<svg xmlns="http://www.w3.org/2000/svg" xmlns:xlink="http://www.w3.org/1999/xlink" xmlns:inkscape="http://www.inkscape.org/namespaces/inkscape" version="1.1" width="118.46721" height="113.08496" viewBox="0 0 118.46721 113.08496">
<defs>
<clipPath id="clip_1">
<path transform="matrix(1,0,0,-1,-219.52391,656.42849)" d="M219.52391 543.3435H337.99113V656.42849H219.52391Z" clip-rule="evenodd"/>
</clipPath>
<path id="font_2_1" d="M.37399293 .6046295C.3829956 .64060977 .38598634 .6516113 .47999574 .6516113 .5099945 .6516113 .5179901 .6516113 .5179901 .6706085 .5179901 .6826172 .5069885 .6826172 .5019989 .6826172 .46899415 .6826172 .3869934 .6796112 .35398866 .6796112 .32398988 .6796112 .25099183 .6826172 .22099304 .6826172 .21398926 .6826172 .20199585 .6826172 .20199585 .6626129 .20199585 .6516113 .21099854 .6516113 .22999573 .6516113 .23199463 .6516113 .25099183 .6516113 .2679901 .6496124 .28599549 .6476135 .29499818 .64660647 .29499818 .6336212 .29499818 .6296234 .2939911 .62661746 .29100038 .614624L.15699768 .07795715C.14698792 .038986207 .14498902 .0309906 .06599426 .0309906 .04899597 .0309906 .038986207 .0309906 .038986207 .010986328 .038986207 0 .04798889 0 .06599426 0H.5289917C.5529938 0 .55400088 0 .55999758 .016998291L.6389923 .23286438C.6429901 .24386597 .6429901 .24586487 .6429901 .24685669 .6429901 .2508545 .6399994 .25785829 .6309967 .25785829 .621994 .25785829 .62098696 .2528534 .6139984 .23686219 .5799866 .14492798 .5359955 .0309906 .36299134 .0309906H.2689972C.25498963 .0309906 .25299073 .0309906 .24699402 .03199768 .23699951 .032989503 .23399353 .033996583 .23399353 .041992189 .23399353 .04498291 .23399353 .04698181 .23899842 .064971927L.37399293 .6046295Z"/>
<path id="font_3_1" d="M.72099307 .33888246C.72099307 .542984 .56999209 .7050781 .3880005 .7050781 .20899964 .7050781 .055999757 .5449829 .055999757 .33888246 .055999757 .13368225 .20999146-.022460938 .3880005-.022460938 .56999209-.022460938 .72099307 .13668823 .72099307 .33888246M.3889923 .0005340576C.2899933 .0005340576 .15299988 .086624149 .15299988 .33888246 .15299988 .5960083 .2919922 .68307498 .3880005 .68307498 .4889984 .68307498 .6239929 .5920105 .6239929 .33888246 .6239929 .083618167 .48298646 .0005340576 .3889923 .0005340576M.5669861 .41389466H.5419922V.3798828H.23498535V.41389466H.20999146V.26983644H.23498535V.30387879H.5419922V.26983644H.5669861V.41389466Z"/>
<path id="font_2_2" d="M.644989 .69506838C.644989 .69807437 .6429901 .7050781 .6339874 .7050781 .6289978 .7050781 .6279907 .70407107 .6159973 .6900635L.56799319 .6330414C.5419922 .68006899 .48999024 .7050781 .4249878 .7050781 .2979889 .7050781 .17799378 .58999636 .17799378 .4689026 .17799378 .38783265 .23098755 .34179688 .28199769 .32678224L.3889923 .2987671C.42599488 .2897644 .48098756 .27474977 .48098756 .19267273 .48098756 .1026001 .39898683 .008529663 .30099488 .008529663 .23699951 .008529663 .12599182 .030548096 .12599182 .15464783 .12599182 .17866516 .1309967 .2026825 .13198853 .20869446 .1329956 .21269226 .13398743 .21369934 .13398743 .21569824 .13398743 .22570801 .1269989 .22669983 .12199402 .22669983 .116989139 .22669983 .114990238 .22570801 .11199951 .22270203 .10798645 .21870423 .051986696-.009475708 .051986696-.012466431 .051986696-.018463135 .056991579-.022460938 .06298828-.022460938 .067993167-.022460938 .068984989-.021469117 .08099365-.007461548L.12998963 .049560548C.17298889-.008468628 .24099732-.022460938 .29899598-.022460938 .43499757-.022460938 .5529938 .11061096 .5529938 .2347107 .5529938 .30377198 .5189972 .33779908 .5039978 .35180665 .48098756 .37483216 .46598817 .37882997 .3769989 .40185548 .35499574 .40785218 .31900025 .41786195 .30999757 .41986085 .2829895 .42886354 .24899292 .457901 .24899292 .51094058 .24899292 .59199526 .32899476 .677063 .42399598 .677063 .5069885 .677063 .56799319 .6340332 .56799319 .52194216 .56799319 .48991395 .56399539 .47190858 .56399539 .4658966 .56399539 .4649048 .56399539 .45588685 .57598879 .45588685 .58599856 .45588685 .58699038 .45889283 .59098818 .47590638L.644989 .69506838Z"/>
<path id="font_4_1" d="M.40899659 .38304139C.36799623 .3780365 .35499574 .34703065 .35499574 .32702638 .35499574 .29803468 .3809967 .29003907 .3939972 .29003907 .39898683 .29003907 .44999696 .29403688 .44999696 .35502626 .44999696 .4163971 .38398744 .44140626 .32398988 .44140626 .18199158 .44140626 .04399109 .3030243 .04399109 .16311646 .04399109 .06819153 .10899353-.009765625 .21998596-.009765625 .37799073-.009765625 .46099855 .091171268 .46099855 .10417175 .46099855 .11315918 .45098878 .120147708 .44499208 .120147708 .43899537 .120147708 .43598939 .11715698 .43099977 .11116028 .35198976 .018234253 .23999024 .018234253 .22200012 .018234253 .16799927 .018234253 .125 .051208497 .125 .12715149 .125 .17111206 .14498902 .27703858 .19198609 .33903504 .23599243 .39518739 .28599549 .4133911 .32499696 .4133911 .33699037 .4133911 .3829956 .41238404 .40899659 .38304139Z"/>
</defs>
<g clip-path="url(#clip_1)">
<path transform="matrix(0,.0541626,.145837,0,-219.52391,656.42849)" stroke-width="5.46507" stroke-linecap="butt" stroke-dasharray="33.6184,20.171,0,0" stroke-dashoffset="17.0783" stroke-miterlimit="10" stroke-linejoin="miter" fill="none" stroke="#231f20" d="M-10087.1 1834.1V1834.1 1841.98L-10088.7 1865.61-10093.4 1896.22-10101 1925.76-10111.3 1954.08-10124.3 1981.03-10139.7 2006.44-10157.5 2030.18-10177.4 2052.07-10199.3 2071.96-10223 2089.71-10248.4 2105.15-10275.4 2118.13-10303.7 2128.49-10333.2 2136.09-10363.8 2140.76-10387.5 2142.35H-10395.4-10403.2L-10426.9 2140.76-10457.5 2136.09-10487 2128.49-10515.3 2118.13-10542.3 2105.15-10567.7 2089.71-10591.4 2071.96-10613.3 2052.07-10633.2 2030.18-10651 2006.44-10666.4 1981.03-10679.4 1954.08-10689.8 1925.76-10697.3 1896.22-10702 1865.61-10703.6 1841.98V1834.1 1826.22L-10702 1802.58-10697.3 1771.97-10689.8 1742.43-10679.4 1714.11-10666.4 1687.16-10651 1661.75-10633.2 1638.02-10613.3 1616.13-10591.4 1596.23-10567.7 1578.49-10542.3 1563.05-10515.3 1550.07-10487 1539.7-10457.5 1532.11-10426.9 1527.43-10403.2 1525.84H-10395.4-10387.5L-10363.8 1527.43-10333.2 1532.11-10303.7 1539.7-10275.4 1550.07-10248.4 1563.05-10223 1578.49-10199.3 1596.23-10177.4 1616.13-10157.5 1638.02-10139.7 1661.75-10124.3 1687.16-10111.3 1714.11-10101 1742.43-10093.4 1771.97-10088.7 1802.58-10087.1 1826.22V1834.1Z"/>
<path transform="matrix(.103709,0,0,-.09629121,-219.52391,656.42849)" stroke-width="9.60636" stroke-linecap="butt" stroke-dasharray="49.6949,29.8169,0,0" stroke-linejoin="round" fill="none" stroke="#231f20" d="M3016.46 5847.27V6612.57"/>
<path transform="matrix(.103709,0,0,-.09629121,-219.52391,656.42849)" stroke-width="9.60636" stroke-linecap="butt" stroke-dasharray="49.6949,29.8169,0,0" stroke-linejoin="round" fill="none" stroke="#231f20" d="M2141.83 5847.27V6612.57"/>
<path transform="matrix(.103709,0,0,-.09629121,-219.52391,656.42849)" stroke-width="38.4254" stroke-linecap="butt" stroke-linejoin="round" fill="none" stroke="#231f20" d="M2579.15 5847.27V6612.57"/>
<path transform="matrix(.1,0,0,-.1,-219.52391,656.42849)" d="M3229.27 5662.78 3241.72 5630.4 3254.17 5662.78 3241.72 5649.82" fill="#939598"/>
<path transform="matrix(.1,0,0,-.1,-219.52391,656.42849)" d="M3254.17 6334.95 3241.72 6367.32 3229.27 6334.95 3241.72 6347.89" fill="#939598"/>
<path transform="matrix(.103709,0,0,-.09629121,-219.52391,656.42849)" stroke-width="4.80318" stroke-linecap="butt" stroke-linejoin="round" fill="none" stroke="#939598" d="M3125.79 5867.44V6592.39"/>
<use data-text="L" xlink:href="#font_2_1" transform="matrix(10.909021,0,0,-10.1288,108.04909,59.99646)"/>
<path transform="matrix(.1,0,0,-.1,-219.52391,656.42849)" d="M2731.49 6009.39V6009.39C2665.07 6071.05 2611.23 6092.77 2611.23 6057.88 2611.23 6023 2665.07 5944.73 2731.49 5883.06 2797.91 5821.39 2851.75 5799.68 2851.75 5834.56 2851.75 5869.45 2797.91 5947.72 2731.49 6009.39" fill="#ae3237"/>
<path transform="matrix(0,-.0428109,-.0815095,-.0756796,-219.52391,656.42849)" stroke-width="8.64274" stroke-linecap="butt" stroke-linejoin="round" fill="none" stroke="#231f20" d="M19789-3351.13H19838.1"/>
<path transform="matrix(0,-.0428109,-.0815095,-.0756796,-219.52391,656.42849)" stroke-width="8.64274" stroke-linecap="butt" stroke-linejoin="round" fill="none" stroke="#231f20" d="M19813.5-3375.72V-3326.54"/>
<path transform="matrix(.103709,0,0,-.09629121,-219.52391,656.42849)" stroke-width="4.80318" stroke-linecap="butt" stroke-linejoin="round" fill="none" stroke="#231f20" d="M2633.81 6175.25V6393.91"/>
<path transform="matrix(.1,0,0,-.1,-219.52391,656.42849)" d="M2810 5983.15 2844.88 6051.5 2771.26 6019.12 2812.33 6021.28" fill="#231f20"/>
<path transform="matrix(.103709,0,0,-.09629121,-219.52391,656.42849)" stroke-width="19.2127" stroke-linecap="butt" stroke-linejoin="round" fill="none" stroke="#231f20" d="M2633.81 6175.25 2711.75 6253.2"/>
<path transform="matrix(.103709,0,0,-.09629121,-219.52391,656.42849)" stroke-width="9.60636" stroke-linecap="butt" stroke-linejoin="round" fill="none" stroke="#000000" d="M2633.81 6273.65C2659.9 6273.65 2684.94 6263.28 2703.39 6244.83"/>
<use data-text="&#x0398;" xlink:href="#font_3_1" transform="matrix(10.909021,0,0,-10.1288,55.0941,50.225465)"/>
<path transform="matrix(.103709,0,0,-.09629121,-219.52391,656.42849)" stroke-width="4.80318" stroke-linecap="butt" stroke-dasharray="49.3192,29.5915,0,0" stroke-linejoin="round" fill="none" stroke="#231f20" d="M2517.92 6291.14V5847.27"/>
<path transform="matrix(.103709,0,0,-.09629121,-219.52391,656.42849)" stroke-width="4.80318" stroke-linecap="butt" stroke-dasharray="50.4992,30.2995,0,0" stroke-linejoin="round" fill="none" stroke="#231f20" d="M2749.7 6059.36V5847.27"/>
<path transform="matrix(0,.0541626,.145837,0,-219.52391,656.42849)" stroke-width="13.6627" stroke-linecap="butt" stroke-dasharray="36.6705,22.0023,0,0" stroke-dashoffset="17.0783" stroke-miterlimit="10" stroke-linejoin="miter" fill="none" stroke="#ae3237" d="M-10285.6 1872.97V1872.97 1876.78L-10287.8 1888.2-10294.2 1902.39-10304.3 1915.23-10317.7 1926.41-10334 1935.64-10352.6 1942.61-10373.2 1947.01-10389.8 1948.55H-10395.4-10400.9L-10417.5 1947.01-10438.1 1942.61-10456.7 1935.64-10473 1926.41-10486.4 1915.23-10496.5 1902.39-10502.9 1888.2-10505.1 1876.78V1872.97 1869.16L-10502.9 1857.74-10496.5 1843.55-10486.4 1830.71-10473 1819.53-10456.7 1810.3-10438.1 1803.33-10417.5 1798.92-10400.9 1797.39H-10395.4-10389.8L-10373.2 1798.92-10352.6 1803.33-10334 1810.3-10317.7 1819.53-10304.3 1830.71-10294.2 1843.55-10287.8 1857.74-10285.6 1869.16V1872.97Z"/>
<path transform="matrix(.103709,0,0,-.09629121,-219.52391,656.42849)" stroke-width="38.4254" stroke-linecap="butt" stroke-linejoin="round" fill="none" stroke="#231f20" d="M2579.15 6229.91V6393.91"/>
<path transform="matrix(.103709,0,0,-.09629121,-219.52391,656.42849)" stroke-width="38.4254" stroke-linecap="butt" stroke-linejoin="round" fill="none" stroke="#231f20" d="M2579.15 5847.27V5956.59"/>
<path transform="matrix(.1,0,0,-.1,-219.52391,656.42849)" d="M2475.53 5610.6V5610.6C2502.04 5665.37 2511.23 5728.07 2496.04 5750.63 2480.85 5773.19 2447.04 5747.08 2420.53 5692.31 2394.02 5637.54 2384.84 5574.84 2400.02 5552.28 2415.21 5529.72 2449.02 5555.83 2475.53 5610.6" fill="#ae3237"/>
<path transform="matrix(.0255175,.0379078,.0445469,-.092027809,-219.52391,656.42849)" stroke-width="9.46918" stroke-linecap="butt" stroke-linejoin="round" fill="none" stroke="#231f20" d="M-682.583 5870.96H-628.699"/>
<path transform="matrix(.0255175,.0379078,.0445469,-.092027809,-219.52391,656.42849)" stroke-width="9.46918" stroke-linecap="butt" stroke-linejoin="round" fill="none" stroke="#231f20" d="M-655.636 5844.02-655.646 5897.9"/>
<path transform="matrix(.1,0,0,-.1,-219.52391,656.42849)" d="M2742.83 6285.21V6285.21C2868.07 6285.21 2969.6 6313.49 2969.6 6348.37 2969.6 6383.25 2868.07 6411.54 2742.83 6411.54 2617.59 6411.54 2516.06 6383.25 2516.06 6348.37 2516.06 6313.49 2617.59 6285.21 2742.83 6285.21" fill="#ae3237"/>
<path transform="matrix(0,.0541626,.145837,0,-219.52391,656.42849)" stroke-width="6.83134" stroke-linecap="butt" stroke-linejoin="round" fill="none" stroke="#231f20" d="M-11740.4 1880.75H-11701.5"/>
<path transform="matrix(0,.0541626,.145837,0,-219.52391,656.42849)" stroke-width="6.83134" stroke-linecap="butt" stroke-linejoin="round" fill="none" stroke="#231f20" d="M-11720.9 1861.31V1900.18"/>
<path transform="matrix(.103709,0,0,-.09629121,-219.52391,656.42849)" stroke-width="38.4254" stroke-linecap="butt" stroke-linejoin="round" fill="none" stroke="#231f20" d="M2579.15 6557.9V6612.57"/>
<use data-text="S" xlink:href="#font_2_2" transform="matrix(10.9091,0,0,-10.9091,14.210083,17.01947)"/>
<use data-text="c" xlink:href="#font_4_1" transform="matrix(7.97011,0,0,-7.97011,20.930008,18.699524)"/>
<path transform="matrix(0,.0541626,.145837,0,-219.52391,656.42849)" stroke-width="5.46507" stroke-linecap="butt" stroke-dasharray="33.6184,20.171,0,0" stroke-dashoffset="17.0783" stroke-miterlimit="10" stroke-linejoin="miter" fill="none" stroke="#231f20" d="M-11447.7 1834.1V1834.1 1841.98L-11449.3 1865.61-11453.9 1896.22-11461.5 1925.76-11471.9 1954.08-11484.9 1981.03-11500.3 2006.44-11518.1 2030.18-11538 2052.07-11559.8 2071.96-11583.6 2089.71-11609 2105.15-11635.9 2118.13-11664.3 2128.49-11693.8 2136.09-11724.4 2140.76-11748 2142.35H-11755.9-11763.8L-11787.4 2140.76-11818 2136.09-11847.6 2128.49-11875.9 2118.13-11902.9 2105.15-11928.3 2089.71-11952 2071.96-11973.9 2052.07-11993.8 2030.18-12011.5 2006.44-12027 1981.03-12040 1954.08-12050.3 1925.76-12057.9 1896.22-12062.6 1865.61-12064.2 1841.98V1834.1 1826.22L-12062.6 1802.58-12057.9 1771.97-12050.3 1742.43-12040 1714.11-12027 1687.16-12011.5 1661.75-11993.8 1638.02-11973.9 1616.13-11952 1596.23-11928.3 1578.49-11902.9 1563.05-11875.9 1550.07-11847.6 1539.7-11818 1532.11-11787.4 1527.43-11763.8 1525.84H-11755.9-11748L-11724.4 1527.43-11693.8 1532.11-11664.3 1539.7-11635.9 1550.07-11609 1563.05-11583.6 1578.49-11559.8 1596.23-11538 1616.13-11518.1 1638.02-11500.3 1661.75-11484.9 1687.16-11471.9 1714.11-11461.5 1742.43-11453.9 1771.97-11449.3 1802.58-11447.7 1826.22V1834.1Z"/>
</g>
</svg>
