<svg xmlns="http://www.w3.org/2000/svg" xmlns:xlink="http://www.w3.org/1999/xlink" xmlns:inkscape="http://www.inkscape.org/namespaces/inkscape" version="1.1" width="432.88996" height="184.70673" viewBox="0 0 432.88996 184.70673">
<defs>
<clipPath id="clip_1">
<path transform="matrix(1,0,0,-1,-137.76013,661.89608)" d="M137.76013 477.18934H570.6501V661.89608H137.76013Z" clip-rule="evenodd"/>
</clipPath>
<path id="font_2_5" d="M.45999146 .31976319C.45999146 .39982606 .45498658 .47988893 .41999818 .5539398 .37399293 .65000918 .2919922 .6660156 .25 .6660156 .18998719 .6660156 .116989139 .64001467 .07598877 .54693606 .04399109 .47789 .038986207 .39982606 .038986207 .31976319 .038986207 .24472046 .042999269 .15464783 .083999637 .07859802 .1269989-.0024719239 .19999695-.022460938 .24899292-.022460938 .30299378-.022460938 .3789978-.0014648438 .4229889 .09359741 .45498658 .16265869 .45999146 .2407074 .45999146 .31976319M.24899292-.00047302247C.20999146-.00047302247 .15098572 .024551392 .1329956 .12062073 .12199402 .18066406 .12199402 .2727356 .12199402 .3317871 .12199402 .39582826 .12199402 .46188355 .12998963 .5159149 .14898682 .63500979 .22399903 .64401248 .24899292 .64401248 .28199769 .64401248 .34799195 .6259918 .36698915 .52693179 .3769989 .47088624 .3769989 .39482118 .3769989 .3317871 .3769989 .25672914 .3769989 .18867493 .3659973 .12461853 .35099793 .029556275 .2939911-.00047302247 .24899292-.00047302247Z"/>
<path id="font_3_3" d="M.19198609 .052993776C.19198609 .08198547 .16799927 .10598755 .13899231 .10598755 .10998535 .10598755 .085998538 .08198547 .085998538 .052993776 .085998538 .023986817 .10998535 0 .13899231 0 .16799927 0 .19198609 .023986817 .19198609 .052993776Z"/>
<path id="font_2_6" d="M.2939911 .64004519C.2939911 .66400149 .2939911 .6660156 .2709961 .6660156 .20899964 .60227969 .12098694 .60227969 .08898926 .60227969V.57128909C.10899353 .57128909 .16799927 .57128909 .21998596 .5972748V.07902527C.21998596 .042999269 .21699524 .0309906 .1269989 .0309906H.09498596V0C.12998963 .0029907227 .21699524 .0029907227 .25698854 .0029907227 .29699708 .0029907227 .38398744 .0029907227 .4189911 0V.0309906H.3869934C.29699708 .0309906 .2939911 .041992189 .2939911 .07902527V.64004519Z"/>
<path id="font_2_7" d="M.1269989 .07699585 .23298645 .18003845C.3889923 .31811524 .44898988 .3721466 .44898988 .47216798 .44898988 .5860901 .35899354 .6660156 .23699951 .6660156 .12399292 .6660156 .049987794 .57411196 .049987794 .48516847 .049987794 .4291687 .099990848 .4291687 .102996829 .4291687 .11999512 .4291687 .15499878 .44117738 .15499878 .48217774 .15499878 .5081787 .13699341 .5341797 .101989749 .5341797 .09399414 .5341797 .09199524 .5341797 .08898926 .5331726 .11199951 .59806826 .1659851 .63500979 .22399903 .63500979 .31498719 .63500979 .35798646 .5541382 .35798646 .47216798 .35798646 .39215089 .30799867 .31311036 .25299073 .25108338L.06098938 .036987306C.049987794 .025985718 .049987794 .023986817 .049987794 0H.42099L.44898988 .17404175H.42399598C.4189911 .14402771 .4119873 .1000061 .4019928 .084991458 .394989 .07699585 .32899476 .07699585 .30699159 .07699585H.1269989Z"/>
<path id="font_2_8" d="M.2899933 .35191346C.37199403 .37893678 .42999269 .4490509 .42999269 .52809146 .42999269 .6100464 .34199525 .6660156 .24598694 .6660156 .14498902 .6660156 .068984989 .60606387 .068984989 .53009036 .068984989 .49710084 .09098816 .47808839 .11999512 .47808839 .15098572 .47808839 .17098999 .50009158 .17098999 .5290985 .17098999 .57910159 .12399292 .57910159 .10899353 .57910159 .13999939 .62802127 .20599365 .64100649 .24198914 .64100649 .2829895 .64100649 .33799745 .6190338 .33799745 .5290985 .33799745 .51708987 .33599855 .45906068 .30999757 .4149933 .27999879 .36691285 .24598694 .36390687 .22099304 .36291505 .21299744 .36190797 .18899536 .35990907 .18199158 .35990907 .17399597 .35890199 .16699219 .35791017 .16699219 .3479004 .16699219 .33691407 .17399597 .33691407 .19099427 .33691407H.23498535C.31698609 .33691407 .35398866 .2686615 .35398866 .17037964 .35398866 .034469606 .2849884 .0055389406 .24099732 .0055389406 .19799805 .0055389406 .12298584 .022491456 .08799744 .08137512 .12298584 .07637024 .1539917 .09837341 .1539917 .1363678 .1539917 .17237854 .1269989 .19238281 .09799194 .19238281 .07398987 .19238281 .041992189 .17837525 .041992189 .1343689 .041992189 .043441774 .1349945-.022460938 .24398804-.022460938 .3659973-.022460938 .45700074 .06838989 .45700074 .17037964 .45700074 .252594 .3939972 .33088685 .2899933 .35191346Z"/>
<path id="font_2_9" d="M.2939911 .16503906V.07800293C.2939911 .041992189 .2919922 .0309906 .21798706 .0309906H.19699097V0C.23799134 .0029907227 .2899933 .0029907227 .33198548 .0029907227 .37399293 .0029907227 .4269867 .0029907227 .46798707 0V.0309906H.44699098C.37298585 .0309906 .37098695 .041992189 .37098695 .07800293V.16503906H.47099305V.19602967H.37098695V.65075686C.37098695 .67074587 .37098695 .6767578 .35499574 .6767578 .34599305 .6767578 .34298707 .6767578 .33499146 .66474917L.027999878 .19602967V.16503906H.2939911M.2999878 .19602967H.055999757L.2999878 .5688019V.19602967Z"/>
<path id="font_2_10" d="M.44898988 .20022583C.44898988 .3193512 .36698915 .41944886 .25898744 .41944886 .21099854 .41944886 .16799927 .40345765 .13198853 .36842347V.5637665C.1519928 .5577698 .18499756 .55078127 .21699524 .55078127 .33999635 .55078127 .4099884 .6417694 .4099884 .6547699 .4099884 .6607666 .40699769 .6657715 .3999939 .6657715 .39898683 .6657715 .39698792 .6657715 .3919983 .66278079 .37199403 .6537781 .32299806 .6337738 .2559967 .6337738 .21598816 .6337738 .16999817 .6407776 .12298584 .6617737 .114990238 .66477969 .11299133 .66477969 .11099243 .66477969 .100997928 .66477969 .100997928 .6567688 .100997928 .6407776V.34439088C.100997928 .32637025 .100997928 .31835938 .114990238 .31835938 .12199402 .31835938 .12399292 .32136537 .12799073 .32736207 .13899231 .3433838 .17599488 .39746095 .25698854 .39746095 .30899049 .39746095 .33399964 .35139466 .34199525 .33337403 .35798646 .29632569 .3600006 .25727845 .3600006 .20722962 .3600006 .17222595 .3600006 .11222839 .33599855 .07035828 .31199647 .031463624 .2749939 .0055389406 .22898865 .0055389406 .1559906 .0055389406 .09899902 .058380128 .08198547 .11723328 .084991458 .1162262 .08799744 .115234378 .09899902 .115234378 .13198853 .115234378 .14898682 .14022827 .14898682 .16423035 .14898682 .18823242 .13198853 .21322632 .09899902 .21322632 .084991458 .21322632 .049987794 .20622254 .049987794 .16023255 .049987794 .07434082 .11898804-.022460938 .23098755-.022460938 .34700013-.022460938 .44898988 .073349 .44898988 .20022583Z"/>
<path id="font_2_1" d="M.13198853 .327713V.35173036C.13198853 .6047821 .2559967 .64100649 .30699159 .64100649 .33099366 .64100649 .37298585 .634964 .394989 .6007538 .37998963 .6007538 .33999635 .6007538 .33999635 .5557556 .33999635 .524765 .3639984 .5097656 .38598634 .5097656 .4019928 .5097656 .43199159 .51875308 .43199159 .5577545 .43199159 .6178589 .3880005 .6660156 .30499269 .6660156 .1769867 .6660156 .041992189 .5367584 .041992189 .31570436 .041992189 .048553468 .1579895-.022460938 .25099183-.022460938 .3619995-.022460938 .45700074 .07156372 .45700074 .2036438 .45700074 .33070375 .36799623 .4267578 .25698854 .4267578 .18899536 .4267578 .1519928 .37573243 .13198853 .327713M.25099183 .0055389406C.18798828 .0055389406 .1579895 .06556702 .1519928 .080566409 .13398743 .127594 .13398743 .2076416 .13398743 .22564698 .13398743 .30369569 .1659851 .40374757 .2559967 .40374757 .27198792 .40374757 .31799317 .40374757 .34899903 .34172059 .36698915 .30470277 .36698915 .2536621 .36698915 .20463562 .36698915 .15661621 .36698915 .10658264 .34999085 .0705719 .31999208 .010528564 .27398683 .0055389406 .25099183 .0055389406Z"/>
<path id="font_2_2" d="M.47599793 .609375C.4850006 .6213684 .4850006 .62338259 .4850006 .64437869H.24198914C.11999512 .64437869 .117996219 .65737918 .11399841 .67637637H.08898926L.055999757 .4702301H.08099365C.083999637 .48625184 .09298706 .5493469 .10598755 .56137087 .11299133 .5673828 .19099427 .5673828 .20399475 .5673828H.41099549C.3999939 .5513611 .32099916 .4421997 .29899598 .40914918 .20899964 .27394105 .17599488 .1347351 .17599488 .032577516 .17599488 .022567749 .17599488-.022460938 .22200012-.022460938 .2679901-.022460938 .2679901 .022567749 .2679901 .032577516V.08366394C.2679901 .13873291 .2709961 .19381714 .2789917 .24790955 .2829895 .27093507 .29699708 .35707093 .34098817 .41915895L.47599793 .609375Z"/>
<path id="font_2_3" d="M.16299439 .4569702C.116989139 .486969 .11299133 .52098086 .11299133 .5379791 .11299133 .598999 .17799378 .64100649 .24899292 .64100649 .32199098 .64100649 .38598634 .58898928 .38598634 .51698306 .38598634 .45996095 .34700013 .4119568 .2869873 .37695313L.16299439 .4569702M.30899049 .36193849C.3809967 .3989563 .42999269 .45095826 .42999269 .51698306 .42999269 .6090088 .34098817 .6660156 .25 .6660156 .1499939 .6660156 .068984989 .59199526 .068984989 .49897767 .068984989 .4809723 .070999149 .43595887 .11299133 .38894654 .12399292 .37695313 .16099549 .35194398 .18598938 .33494569 .12799073 .30592347 .041992189 .24984741 .041992189 .15072632 .041992189 .04458618 .14399719-.022460938 .24899292-.022460938 .3619995-.022460938 .45700074 .06060791 .45700074 .16773987 .45700074 .20379639 .44599916 .24885559 .4079895 .2909088 .3889923 .31193543 .37298585 .3219452 .30899049 .36193849M.20899964 .3199463 .33198548 .24183655C.3600006 .2228241 .40699769 .19277954 .40699769 .13169861 .40699769 .05760193 .33198548 .0055389406 .25 .0055389406 .1639862 .0055389406 .09199524 .067611698 .09199524 .15072632 .09199524 .20880127 .12399292 .27288819 .20899964 .3199463Z"/>
<path id="font_2_4" d="M.36698915 .31781007V.28579713C.36698915 .05178833 .2630005 .0055389406 .20498657 .0055389406 .18798828 .0055389406 .13398743 .007537842 .10699463 .041778566 .15098572 .041778566 .15899658 .07078552 .15899658 .08778381 .15899658 .118774417 .1349945 .13378906 .11299133 .13378906 .09700012 .13378906 .066986087 .12478638 .066986087 .08578491 .066986087 .018615723 .12098694-.022460938 .20599365-.022460938 .33499146-.022460938 .45700074 .11378479 .45700074 .32881166 .45700074 .5979767 .34199525 .6660156 .25299073 .6660156 .19799805 .6660156 .14898682 .64801028 .10598755 .60298159 .06498718 .5579529 .041992189 .5159302 .041992189 .44088746 .041992189 .31581117 .12998963 .21777344 .24198914 .21777344 .30299378 .21777344 .34399415 .25978089 .36698915 .31781007M.24299622 .24076844C.22698975 .24076844 .18099976 .24076844 .1499939 .3038025 .13198853 .3408203 .13198853 .39085389 .13198853 .43988038 .13198853 .49391175 .13198853 .54093936 .15299988 .5779724 .17999268 .6279907 .21798706 .64100649 .25299073 .64100649 .29899598 .64100649 .33198548 .60697939 .34899903 .5619507 .36099244 .52993777 .36499024 .4669037 .36499024 .42086793 .36499024 .3378296 .33099366 .24076844 .24299622 .24076844Z"/>
<path id="font_3_1" d="M.7599945 .69506838C.7599945 .69807437 .7579956 .7050781 .7489929 .7050781 .74598696 .7050781 .7449951 .70407107 .73399356 .69306948L.6639862 .61602786C.6549988 .6300354 .60899356 .7050781 .49798585 .7050781 .2749939 .7050781 .049987794 .48391725 .049987794 .25172425 .049987794 .08659363 .16799927-.022460938 .32099916-.022460938 .4079895-.022460938 .48399354 .017532349 .5369873 .063583377 .6299896 .14564514 .6469879 .2367096 .6469879 .23971558 .6469879 .24972534 .6369934 .24972534 .6349945 .24972534 .6289978 .24972534 .6239929 .24772644 .621994 .23971558 .61299136 .21069336 .58999636 .13963318 .5209961 .081588748 .45199586 .025543213 .3889923 .008529663 .33699037 .008529663 .24699402 .008529663 .14099121 .060577394 .14099121 .21670532 .14099121 .27374269 .1619873 .43588258 .2619934 .55296328 .32299806 .62402346 .4169922 .67407229 .5059967 .67407229 .60798647 .67407229 .6669922 .5970001 .6669922 .48091126 .6669922 .44088746 .6639862 .43988038 .6639862 .4298706 .6639862 .41986085 .6749878 .41986085 .67900088 .41986085 .69200137 .41986085 .69200137 .42185975 .69699099 .43988038L.7599945 .69506838Z"/>
<path id="font_4_3" d="M.31298829 .66430667C.31399537 .66630557 .31698609 .67930606 .31698609 .68029788 .31698609 .68530276 .31298829 .6943054 .30099488 .6943054 .2809906 .6943054 .19799805 .6863098 .17298889 .6843109 .16499329 .68330386 .15098572 .682312 .15098572 .66130068 .15098572 .64730837 .16499329 .64730837 .1769867 .64730837 .22499085 .64730837 .22499085 .64030459 .22499085 .63230898 .22499085 .62532046 .22299195 .61932376 .22099304 .61032107L.07998657 .04423523C.07499695 .026229859 .07499695 .024230957 .07499695 .022232056 .07499695 .007232666 .08699036-.009765625 .10899353-.009765625 .11999512-.009765625 .13899231-.004776001 .1499939 .016220093 .15299988 .022232056 .1619873 .058242799 .16699219 .07925415L.18998719 .16828919C.19299317 .18330384 .20298767 .22131348 .20599365 .23632813 .21598816 .27433778 .21598816 .27534486 .23599243 .3073578 .2679901 .35636903 .31799317 .4133911 .3959961 .4133911 .45199586 .4133911 .45498658 .36738587 .45498658 .34336854 .45498658 .28334046 .4119873 .17228699 .3959961 .13027954 .3849945 .102264408 .3809967 .09326172 .3809967 .07624817 .3809967 .023223877 .4249878-.009765625 .47599793-.009765625 .57598879-.009765625 .6199951 .12828064 .6199951 .14328003 .6199951 .15628052 .6069946 .15628052 .60398867 .15628052 .58999636 .15628052 .58898928 .15028382 .58499148 .13928223 .56199648 .059249879 .5179901 .018234253 .47898866 .018234253 .45799256 .018234253 .45399476 .032226564 .45399476 .053237916 .45399476 .07624817 .45899964 .089263919 .47698976 .13427735 .4889984 .1652832 .5299988 .2713318 .5299988 .32736207 .5299988 .34336854 .5299988 .38539125 .49299623 .4143982 .47599793 .42739869 .44699098 .44140626 .3999939 .44140626 .32699586 .44140626 .27398683 .4013977 .23699951 .35836793L.31298829 .66430667Z"/>
<path id="font_4_1" d="M.5309906 .2663269C.5309906 .37738038 .44799806 .44140626 .34999085 .44140626 .20199585 .44140626 .06199646 .3023529 .06199646 .1652832 .06199646 .06524658 .1349945-.009765625 .24398804-.009765625 .3869934-.009765625 .5309906 .12226868 .5309906 .2663269M.24499512 .018234253C.19499207 .018234253 .14498902 .050247194 .14498902 .12927246 .14498902 .17028809 .1639862 .26834107 .20298767 .32536317 .24598694 .38739015 .3039856 .4133911 .34899903 .4133911 .40299989 .4133911 .44898988 .37638856 .44898988 .3023529 .44898988 .27833558 .43699647 .17929077 .3929901 .10926819 .35499574 .050247194 .29499818 .018234253 .24499512 .018234253Z"/>
<path id="font_4_8" d="M.43399049 .08125305C.42900086 .06124878 .41999818 .027236939 .41999818 .022232056 .41999818 .00022888184 .43798829-.009765625 .45399476-.009765625 .47200013-.009765625 .48799134 .0032196046 .49299623 .01222229 .49798585 .021224976 .5059967 .053237916 .5109863 .07424927 .5159912 .09326172 .5269928 .13928223 .5329895 .16429138 .5389862 .18629456 .54499819 .20831299 .5499878 .23132324 .5609894 .27433778 .5609894 .27633668 .58099368 .3073578 .61299136 .35636903 .6629944 .4133911 .7409973 .4133911 .7969971 .4133911 .7999878 .36738587 .7999878 .34336854 .7999878 .28334046 .7569885 .17228699 .7409973 .13027954 .7299957 .102264408 .7259979 .09326172 .7259979 .07624817 .7259979 .023223877 .769989-.009765625 .82099917-.009765625 .92099-.009765625 .96499636 .12828064 .96499636 .14328003 .96499636 .15628052 .95199587 .15628052 .94898989 .15628052 .93499758 .15628052 .9339905 .15028382 .9299927 .13928223 .9069977 .059249879 .8639984 .018234253 .82398989 .018234253 .8029938 .018234253 .798996 .032226564 .798996 .053237916 .798996 .07624817 .80400088 .089263919 .82199099 .13427735 .83399966 .1652832 .875 .2713318 .875 .32736207 .875 .34336854 .875 .38539125 .83799746 .4143982 .82099917 .42739869 .7919922 .44140626 .7449951 .44140626 .6549988 .44140626 .59999087 .38238526 .56799319 .34036256 .55999758 .42539979 .4889984 .44140626 .43798829 .44140626 .35499574 .44140626 .29899598 .39038087 .2689972 .3503723 .2619934 .41940309 .20298767 .44140626 .1619873 .44140626 .11898804 .44140626 .09599304 .4104004 .08299255 .38739015 .06098938 .3503723 .04699707 .29335023 .04699707 .28834535 .04699707 .27534486 .06098938 .27534486 .06399536 .27534486 .07798767 .27534486 .07899475 .27833558 .085998538 .3053589 .100997928 .36437989 .11999512 .4133911 .15899658 .4133911 .18499756 .4133911 .19198609 .39138795 .19198609 .36437989 .19198609 .34536744 .18299866 .3083496 .17599488 .28134156 .16899109 .2543335 .15899658 .21331787 .1539917 .19129944L.12199402 .06324768C.117996219 .050247194 .11199951 .025222779 .11199951 .022232056 .11199951 .00022888184 .12998963-.009765625 .1459961-.009765625 .1639862-.009765625 .17999268 .0032196046 .18499756 .01222229 .18998719 .021224976 .19799805 .053237916 .20298767 .07424927 .20799256 .09326172 .21899414 .13928223 .22499085 .16429138 .23098755 .18629456 .23699951 .20831299 .24198914 .23132324 .25299073 .27233888 .25498963 .28033448 .28399659 .32136537 .31199647 .3613739 .35899354 .4133911 .43399049 .4133911 .49198915 .4133911 .49299623 .36238099 .49299623 .34336854 .49299623 .31835938 .48999024 .3053589 .47599793 .24932862L.43399049 .08125305Z"/>
<path id="font_4_4" d="M.32398988 .6253052C.32398988 .64131167 .31199647 .66329959 .28399659 .66329959 .25698854 .66329959 .22799683 .6372986 .22799683 .6083069 .22799683 .5913086 .24099732 .5703125 .2679901 .5703125 .29699708 .5703125 .32398988 .5983124 .32398988 .6253052M.11999512 .117263797C.115997318 .104263309 .11099243 .09225464 .11099243 .07525635 .11099243 .02822876 .15098572-.009765625 .20599365-.009765625 .30599977-.009765625 .34999085 .12828064 .34999085 .14328003 .34999085 .15628052 .33699037 .15628052 .33399964 .15628052 .31999208 .15628052 .31900025 .15028382 .31498719 .13928223 .2919922 .059249879 .24798584 .018234253 .20899964 .018234253 .18899536 .018234253 .18399048 .031234742 .18399048 .053237916 .18399048 .07624817 .19099427 .09526062 .19999695 .117263797 .20999146 .14428711 .22099304 .17129517 .23199463 .1973114 .24099732 .22131348 .2769928 .3123474 .2809906 .32435609 .28399659 .33436585 .2869873 .3463745 .2869873 .35636903 .2869873 .4033966 .24699402 .44140626 .19198609 .44140626 .09298706 .44140626 .04699707 .3053589 .04699707 .28834535 .04699707 .27534486 .06098938 .27534486 .06399536 .27534486 .07798767 .27534486 .07899475 .28033448 .08198547 .29135133 .10798645 .37738038 .1519928 .4133911 .18899536 .4133911 .20498657 .4133911 .21398926 .4053955 .21398926 .37838746 .21398926 .3553772 .20799256 .34036256 .18299866 .27833558L.11999512 .117263797Z"/>
<path id="font_4_5" d="M.43899537 .6253052C.43899537 .64230349 .42599488 .66329959 .39898683 .66329959 .36999513 .66329959 .34298707 .6352997 .34298707 .6083069 .34298707 .5923004 .35499574 .5703125 .3829956 .5703125 .4099884 .5703125 .43899537 .5962982 .43899537 .6253052M.22698975-.04901123C.20999146-.11804199 .15699768-.17610169 .09799194-.17610169 .084991458-.17610169 .07299805-.17408753 .06199646-.17004395 .08799744-.15803528 .09599304-.1340332 .09599304-.11903381 .09599304-.09503174 .07699585-.08203125 .056991579-.08203125 .025985718-.08203125 0-.10903931 0-.14103699 0-.17910767 .038986207-.20410156 .09899902-.20410156 .15899658-.20410156 .27598573-.16804505 .30699159-.04600525L.39698792 .31230165C.3999939 .32331849 .4019928 .33232118 .4019928 .34733583 .4019928 .40238954 .35499574 .44140626 .29499818 .44140626 .18399048 .44140626 .11999512 .30230714 .11999512 .2882843 .11999512 .27526856 .13398743 .27526856 .13699341 .27526856 .14898682 .27526856 .1499939 .27827455 .15699768 .29328919 .18199158 .35134889 .23399353 .4133911 .2919922 .4133911 .31698609 .4133911 .32598878 .39637757 .32598878 .36434938 .32598878 .35334779 .32398988 .33932496 .32299806 .33433534L.22698975-.04901123Z"/>
<path id="font_4_6" d="M.31298829 .66430667C.31399537 .66630557 .31698609 .67930606 .31698609 .68029788 .31698609 .68530276 .31298829 .6943054 .30099488 .6943054 .2809906 .6943054 .19799805 .6863098 .17298889 .6843109 .16499329 .68330386 .15098572 .682312 .15098572 .66130068 .15098572 .64730837 .16499329 .64730837 .1769867 .64730837 .22499085 .64730837 .22499085 .64030459 .22499085 .63230898 .22499085 .62532046 .22299195 .61932376 .22099304 .61032107L.07998657 .04425049C.07499695 .026229859 .07499695 .024230957 .07499695 .022232056 .07499695 .007232666 .08699036-.009765625 .10899353-.009765625 .13598633-.009765625 .14898682 .010223389 .15499878 .03224182 .15699768 .036239625 .19999695 .21234131 .20399475 .22636414 .2749939 .21936035 .33198548 .19633484 .33198548 .14430237 .33198548 .13929749 .33198548 .1342926 .32998658 .124298099 .32598878 .10928345 .32598878 .104278568 .32598878 .09327698 .32598878 .022232056 .38398744-.009765625 .43199159-.009765625 .5289917-.009765625 .5589905 .14230347 .5589905 .14331055 .5589905 .15631104 .54599 .15631104 .54299929 .15631104 .5289917 .15631104 .5279999 .15130615 .522995 .1322937 .5109863 .089263919 .48399354 .018234253 .43499757 .018234253 .4079895 .018234253 .3999939 .04324341 .3999939 .07026672 .3999939 .087265018 .3999939 .089263919 .4059906 .11528015 .40699769 .11828613 .41099549 .13529969 .41099549 .14630127 .41099549 .23536682 .29100038 .24937439 .24899292 .25238038 .27799989 .27038575 .31498719 .30340577 .33198548 .31840516 .3829956 .3664093 .43299867 .4133911 .4889984 .4133911 .5009918 .4133911 .5139923 .4104004 .5219879 .40040589 .47898866 .3934021 .46998597 .35940553 .46998597 .34440614 .46998597 .32240296 .4869995 .30740357 .5099945 .30740357 .5369873 .30740357 .5669861 .32940675 .5669861 .37139894 .5669861 .4044037 .54299929 .44140626 .48999024 .44140626 .43299867 .44140626 .3809967 .40040589 .32998658 .3534088 .28799439 .31340028 .25498963 .2823944 .21398926 .26538087L.31298829 .66430667Z"/>
<path id="font_4_7" d="M.28199769 .66430667C.2829895 .66630557 .28599549 .67930606 .28599549 .68029788 .28599549 .68530276 .28199769 .6943054 .269989 .6943054 .25 .6943054 .16699219 .6863098 .14199829 .6843109 .1349945 .68330386 .12098694 .682312 .12098694 .66130068 .12098694 .64730837 .1349945 .64730837 .1459961 .64730837 .19400025 .64730837 .19400025 .64030459 .19400025 .6322937 .19400025 .6253052 .19198609 .6192932 .18998719 .6103058L.06599426 .116241458C.06298828 .10623169 .06199646 .0952301 .06199646 .085235599 .06199646 .021224976 .11898804-.009765625 .16699219-.009765625 .19099427-.009765625 .22099304-.0017700195 .24699402 .04322815 .2679901 .08023071 .28199769 .13923645 .28199769 .14324951 .28199769 .15625 .2689972 .15625 .2659912 .15625 .2519989 .15625 .25 .15023804 .24598694 .13224793 .23298645 .082229617 .21398926 .018234253 .17098999 .018234253 .14399719 .018234253 .13699341 .04322815 .13699341 .067230228 .13699341 .07823181 .13999939 .097229007 .14299011 .10823059L.28199769 .66430667Z"/>
<path id="font_3_4" d="M.43899537 .71199038C.44400025 .72499087 .44400025 .72898867 .44400025 .7299957 .44400025 .7409973 .43499757 .75 .42399598 .75 .4169922 .75 .4099884 .746994 .40699769 .7409973L.05999756-.21200562C.054992677-.2250061 .054992677-.2290039 .054992677-.23001099 .054992677-.24101258 .06399536-.25 .07499695-.25 .08799744-.25 .09098816-.24301148 .09700012-.22601319L.43899537 .71199038Z"/>
<path id="font_3_2" d="M.3959961 .37998963C.37998963 .37998963 .3659973 .37998963 .35198976 .36598207 .33599855 .35098268 .33399964 .33398438 .33399964 .3269806 .33399964 .30297853 .35198976 .2919922 .37098695 .2919922 .3999939 .2919922 .4269867 .315979 .4269867 .35598756 .4269867 .40522767 .37998963 .4423828 .30899049 .4423828 .17399597 .4423828 .040985109 .2989807 .040985109 .15811157 .040985109 .06819153 .09899902-.0107421879 .20298767-.0107421879 .34599305-.0107421879 .42999269 .09516907 .42999269 .107162479 .42999269 .11315918 .42399598 .120147708 .41799928 .120147708 .41299439 .120147708 .41099549 .1181488 .40499879 .1101532 .32598878 .011245728 .21699524 .011245728 .20498657 .011245728 .14199829 .011245728 .114990238 .06021118 .114990238 .120147708 .114990238 .1611023 .1349945 .25801087 .16899109 .31999208 .19999695 .37698365 .25498963 .42037965 .30999757 .42037965 .34399415 .42037965 .38198854 .40724183 .3959961 .37998963Z"/>
<path id="font_4_2" d="M.43099977 .37594605C.40499879 .36994935 .3889923 .348938 .3889923 .32894898 .3889923 .30593873 .40899659 .2969513 .42199708 .2969513 .43199159 .2969513 .46998597 .302948 .46998597 .35394288 .46998597 .41940309 .397995 .44140626 .33699037 .44140626 .18099976 .44140626 .15299988 .325943 .15299988 .2949524 .15299988 .25804139 .17399597 .23410034 .18798828 .22212219 .21398926 .20217896 .23199463 .19818115 .30099488 .18621826 .32199098 .18222046 .38598634 .17025757 .38598634 .120285037 .38598634 .10328674 .375 .06529236 .33299256 .040252687 .2939911 .018234253 .24499512 .018234253 .23298645 .018234253 .19299317 .018234253 .13598633 .027236939 .11299133 .060287477 .1459961 .06428528 .16799927 .08929443 .16799927 .11729431 .16799927 .14228821 .1499939 .15429688 .1289978 .15429688 .099990848 .15429688 .070999149 .13128662 .070999149 .08729553 .070999149 .027236939 .1349945-.009765625 .23199463-.009765625 .41600038-.009765625 .44999696 .11628723 .44999696 .1552887 .44999696 .24707031 .34899903 .26501466 .31199647 .27200318 .30299378 .27400209 .27799989 .27798463 .27198792 .27998353 .23498535 .28697206 .21699524 .30795289 .21699524 .3299408 .21699524 .35295106 .23498535 .37998963 .25698854 .39416505 .28399659 .41137696 .31900025 .4133911 .33599855 .4133911 .35699464 .4133911 .40899659 .4103546 .43099977 .37594605Z"/>
<path id="font_3_5" d="M.2979889 .22583008C.31399537 .22583008 .33198548 .22583008 .33198548 .24282837 .33198548 .25683595 .31999208 .25683595 .30299378 .25683595H.14099121C.16499329 .34172059 .22099304 .3996582 .31199647 .3996582H.34298707C.3600006 .3996582 .37599183 .3996582 .37599183 .4166565 .37599183 .43066407 .36299134 .43066407 .34599305 .43066407H.31098939C.18099976 .43066407 .04699707 .33073426 .04699707 .17791748 .04699707 .06814575 .12199402-.0107421879 .22799683-.0107421879 .29299928-.0107421879 .35798646 .029220581 .35798646 .04019165 .35798646 .043182374 .35699464 .0541687 .34799195 .0541687 .34599305 .0541687 .34399415 .0541687 .33499146 .048171998 .3039856 .028213501 .2669983 .011245728 .22999573 .011245728 .17199707 .011245728 .12199402 .05316162 .12199402 .14099121 .12199402 .17591858 .12998963 .21385193 .1329956 .22583008H.2979889Z"/>
<path id="font_5_1" d="M.7739868 .67807009C.7769928 .6900635 .7769928 .69207766 .7769928 .69407656 .7769928 .69506838 .776001 .7050781 .7649994 .7050781 .7589874 .7050781 .7559967 .70207217 .7489929 .69407656L.6879883 .6270294C.6839905 .62202456 .6799927 .61802676 .67900088 .61802676 .6779938 .61802676 .6769867 .61901858 .67099 .62602236 .6559906 .64604189 .61099246 .7050781 .5069885 .7050781 .27799989 .7050781 .050994874 .48291017 .050994874 .25473023 .050994874 .09159851 .16999817-.022460938 .33099366-.022460938 .43499757-.022460938 .5169983 .031555177 .55599978 .0665741 .6469879 .14764405 .6639862 .23571778 .6639862 .23971558 .6639862 .24372864 .6619873 .25073243 .6499939 .25073243 .6389923 .25073243 .6369934 .24472046 .6359863 .24072266 .58699038 .079589847 .44400025 .008529663 .34399415 .008529663 .24699402 .008529663 .14399719 .06758118 .14399719 .21870423 .14399719 .2637329 .15899658 .42185975 .2599945 .54496768 .31999208 .61701968 .41799928 .67407229 .5139923 .67407229 .625 .67407229 .6839905 .5890045 .6839905 .47891236 .6839905 .44488526 .68099978 .43788148 .68099978 .4298706 .68099978 .41886903 .69299319 .41886903 .69599917 .41886903 .70899966 .41886903 .70899966 .42086793 .71398928 .43988038L.7739868 .67807009Z"/>
<path id="font_6_1" d="M.35899354 .6349335C.35899354 .66503909 .35499574 .66503909 .32499696 .66503909 .25898744 .60058596 .15699768 .60058596 .12098694 .60058596V.5615845C.14698792 .5615845 .21299744 .5615845 .272995 .58958438V.08496094C.272995 .051986696 .272995 .038986207 .16999817 .038986207H.1269989V0C.18199158 .0039978029 .2599945 .0039978029 .31599427 .0039978029 .37199403 .0039978029 .44999696 .0039978029 .5049896 0V.038986207H.46199037C.35899354 .038986207 .35899354 .051986696 .35899354 .08496094V.6349335Z"/>
<path id="font_6_2" d="M.5379944 .18702698H.5009918C.49899293 .17301941 .4889984 .10699463 .47399903 .09599304 .46699525 .08999634 .38598634 .08999634 .37199403 .08999634H.18499756L.31298829 .19403076C.34700013 .22103882 .43598939 .28504945 .46699525 .31506349 .49699403 .3450775 .5379944 .39608766 .5379944 .46710206 .5379944 .5920563 .4249878 .66503909 .29100038 .66503909 .1619873 .66503909 .07199097 .58006289 .07199097 .48609925 .07199097 .43510438 .114990238 .42910768 .12599182 .42910768 .15098572 .42910768 .17999268 .44709779 .17999268 .48310853 .17999268 .50509646 .16699219 .5371094 .12298584 .5371094 .1459961 .5880585 .20698548 .6260376 .27598573 .6260376 .3809967 .6260376 .43699647 .5480957 .43699647 .46710206 .43699647 .39608766 .3899994 .32305909 .31999208 .25904847L.08299255 .041992189C.07299805 .03199768 .07199097 .0309906 .07199097 0H.5069885L.5379944 .18702698Z"/>
<path id="font_6_3" d="M.2939911 .33203126C.3789978 .33203126 .43598939 .274765 .43598939 .17237854 .43598939 .062408449 .36999513 .014511108 .29699708 .014511108 .269989 .014511108 .16699219 .020492554 .12199402 .07836914 .16099549 .0823822 .1769867 .10836792 .1769867 .13537598 .1769867 .16937256 .15299988 .19238281 .11999512 .19238281 .09298706 .19238281 .06298828 .17536927 .06298828 .13337708 .06298828 .034469606 .17298889-.021484375 .2999878-.021484375 .44799806-.021484375 .5469971 .07337952 .5469971 .17237854 .5469971 .24562073 .4909973 .3229828 .37199403 .35302735 .45098878 .37902833 .5149994 .44306947 .5149994 .5251007 .5149994 .60505679 .42099 .66503909 .30099488 .66503909 .18399048 .66503909 .09498596 .61105349 .09498596 .5290985 .09498596 .48609925 .12799073 .47409059 .147995 .47409059 .17399597 .47409059 .20098877 .49209596 .20098877 .5270996 .20098877 .5580902 .1789856 .5760956 .1519928 .5800934 .19898987 .6320343 .2899933 .6320343 .29899598 .6320343 .34999085 .6320343 .4139862 .60806277 .4139862 .5251007 .4139862 .47009278 .3829956 .37402345 .2829895 .36802674 .2649994 .36701966 .23799134 .36502076 .22898865 .36502076 .21899414 .36402894 .20799256 .36302186 .20799256 .34802247 .20799256 .33203126 .21899414 .33203126 .23599243 .33203126H.2939911Z"/>
</defs>
<g clip-path="url(#clip_1)">
<path transform="matrix(.1,0,0,-.1,-137.76013,661.89608)" d="M5602.91 4956.16 5646.15 4971.6 5602.91 4987.04 5620.21 4971.6"/>
<path transform="matrix(.1,0,0,-.1,-137.76013,661.89608)" stroke-width="7.97011" stroke-linecap="butt" stroke-miterlimit="10" stroke-linejoin="miter" fill="none" stroke="#000000" d="M1904.4 4971.6H5620.21"/>
<path transform="matrix(.1,0,0,-.1,-137.76013,661.89608)" stroke-width="3.98506" stroke-linecap="butt" stroke-miterlimit="10" stroke-linejoin="miter" fill="none" stroke="#000000" d="M1904.4 4931.75V5011.45"/>
<path transform="matrix(.1,0,0,-.1,-137.76013,661.89608)" stroke-width="3.98506" stroke-linecap="butt" stroke-miterlimit="10" stroke-linejoin="miter" fill="none" stroke="#000000" d="M2244.58 4931.75V5011.45"/>
<path transform="matrix(.1,0,0,-.1,-137.76013,661.89608)" stroke-width="3.98506" stroke-linecap="butt" stroke-miterlimit="10" stroke-linejoin="miter" fill="none" stroke="#000000" d="M2584.76 4931.75V5011.45"/>
<path transform="matrix(.1,0,0,-.1,-137.76013,661.89608)" stroke-width="3.98506" stroke-linecap="butt" stroke-miterlimit="10" stroke-linejoin="miter" fill="none" stroke="#000000" d="M2924.93 4931.75V5011.45"/>
<path transform="matrix(.1,0,0,-.1,-137.76013,661.89608)" stroke-width="3.98506" stroke-linecap="butt" stroke-miterlimit="10" stroke-linejoin="miter" fill="none" stroke="#000000" d="M3265.11 4931.75V5011.45"/>
<path transform="matrix(.1,0,0,-.1,-137.76013,661.89608)" stroke-width="3.98506" stroke-linecap="butt" stroke-miterlimit="10" stroke-linejoin="miter" fill="none" stroke="#000000" d="M3605.29 4931.75V5011.45"/>
<path transform="matrix(.1,0,0,-.1,-137.76013,661.89608)" stroke-width="3.98506" stroke-linecap="butt" stroke-miterlimit="10" stroke-linejoin="miter" fill="none" stroke="#000000" d="M3945.47 4931.75V5011.45"/>
<path transform="matrix(.1,0,0,-.1,-137.76013,661.89608)" stroke-width="3.98506" stroke-linecap="butt" stroke-miterlimit="10" stroke-linejoin="miter" fill="none" stroke="#000000" d="M4285.65 4931.75V5011.45"/>
<path transform="matrix(.1,0,0,-.1,-137.76013,661.89608)" stroke-width="3.98506" stroke-linecap="butt" stroke-miterlimit="10" stroke-linejoin="miter" fill="none" stroke="#000000" d="M4625.82 4931.75V5011.45"/>
<path transform="matrix(.1,0,0,-.1,-137.76013,661.89608)" stroke-width="3.98506" stroke-linecap="butt" stroke-miterlimit="10" stroke-linejoin="miter" fill="none" stroke="#000000" d="M4966 4931.75V5011.45"/>
<path transform="matrix(.1,0,0,-.1,-137.76013,661.89608)" stroke-width="3.98506" stroke-linecap="butt" stroke-miterlimit="10" stroke-linejoin="miter" fill="none" stroke="#000000" d="M5306.18 4931.75V5011.45"/>
<path transform="matrix(.1,0,0,-.1,-137.76013,661.89608)" stroke-width="3.98506" stroke-linecap="butt" stroke-miterlimit="10" stroke-linejoin="miter" fill="none" stroke="#000000" d="M1904.4 4931.75V5011.45"/>
<path transform="matrix(.1,0,0,-.1,-137.76013,661.89608)" d="M1919.84 6487.43 1904.4 6530.66 1888.96 6487.43 1904.4 6504.72"/>
<path transform="matrix(.1,0,0,-.1,-137.76013,661.89608)" stroke-width="7.97011" stroke-linecap="butt" stroke-miterlimit="10" stroke-linejoin="miter" fill="none" stroke="#000000" d="M1904.4 4971.6V6504.72"/>
<path transform="matrix(.1,0,0,-.1,-137.76013,661.89608)" d="M5602.91 4956.16 5646.15 4971.6 5602.91 4987.04 5620.21 4971.6"/>
<path transform="matrix(.1,0,0,-.1,-137.76013,661.89608)" stroke-width="7.97011" stroke-linecap="butt" stroke-miterlimit="10" stroke-linejoin="miter" fill="none" stroke="#000000" d="M1904.4 4971.6H5620.21"/>
<path transform="matrix(.1,0,0,-.1,-137.76013,661.89608)" d="M1919.84 6487.43 1904.4 6530.66 1888.96 6487.43 1904.4 6504.72"/>
<path transform="matrix(.1,0,0,-.1,-137.76013,661.89608)" stroke-width="7.97011" stroke-linecap="butt" stroke-miterlimit="10" stroke-linejoin="miter" fill="none" stroke="#000000" d="M1904.4 4971.6V6504.72"/>
<path transform="matrix(.1,0,0,-.1,-137.76013,661.89608)" stroke-width="3.98506" stroke-linecap="butt" stroke-miterlimit="10" stroke-linejoin="miter" fill="none" stroke="#000000" d="M1864.55 4971.6H1944.25"/>
<path transform="matrix(.1,0,0,-.1,-137.76013,661.89608)" stroke-width="3.98506" stroke-linecap="butt" stroke-miterlimit="10" stroke-linejoin="miter" fill="none" stroke="#000000" d="M1864.55 5113.34H1944.25"/>
<path transform="matrix(.1,0,0,-.1,-137.76013,661.89608)" stroke-width="3.98506" stroke-linecap="butt" stroke-miterlimit="10" stroke-linejoin="miter" fill="none" stroke="#000000" d="M1864.55 5255.08H1944.25"/>
<path transform="matrix(.1,0,0,-.1,-137.76013,661.89608)" stroke-width="3.98506" stroke-linecap="butt" stroke-miterlimit="10" stroke-linejoin="miter" fill="none" stroke="#000000" d="M1864.55 5396.82H1944.25"/>
<path transform="matrix(.1,0,0,-.1,-137.76013,661.89608)" stroke-width="3.98506" stroke-linecap="butt" stroke-miterlimit="10" stroke-linejoin="miter" fill="none" stroke="#000000" d="M1864.55 5538.56H1944.25"/>
<path transform="matrix(.1,0,0,-.1,-137.76013,661.89608)" stroke-width="3.98506" stroke-linecap="butt" stroke-miterlimit="10" stroke-linejoin="miter" fill="none" stroke="#000000" d="M1864.55 5680.3H1944.25"/>
<path transform="matrix(.1,0,0,-.1,-137.76013,661.89608)" stroke-width="3.98506" stroke-linecap="butt" stroke-miterlimit="10" stroke-linejoin="miter" fill="none" stroke="#000000" d="M1864.55 5822.05H1944.25"/>
<path transform="matrix(.1,0,0,-.1,-137.76013,661.89608)" stroke-width="3.98506" stroke-linecap="butt" stroke-miterlimit="10" stroke-linejoin="miter" fill="none" stroke="#000000" d="M1864.55 5963.79H1944.25"/>
<path transform="matrix(.1,0,0,-.1,-137.76013,661.89608)" stroke-width="3.98506" stroke-linecap="butt" stroke-miterlimit="10" stroke-linejoin="miter" fill="none" stroke="#000000" d="M1864.55 6105.53H1944.25"/>
<path transform="matrix(.1,0,0,-.1,-137.76013,661.89608)" stroke-width="3.98506" stroke-linecap="butt" stroke-miterlimit="10" stroke-linejoin="miter" fill="none" stroke="#000000" d="M1864.55 6247.27H1944.25"/>
<path transform="matrix(.1,0,0,-.1,-137.76013,661.89608)" stroke-width="3.98506" stroke-linecap="butt" stroke-miterlimit="10" stroke-linejoin="miter" fill="none" stroke="#000000" d="M1864.55 6389.01H1944.25"/>
<path transform="matrix(.1,0,0,-.1,-137.76013,661.89608)" stroke-width="3.98506" stroke-linecap="butt" stroke-miterlimit="10" stroke-linejoin="miter" fill="none" stroke="#000000" d="M1864.55 4971.6H1944.25"/>
<path transform="matrix(.1,0,0,-.1,-137.76013,661.89608)" d="M1919.84 6487.43 1904.4 6530.66 1888.96 6487.43 1904.4 6504.72"/>
<path transform="matrix(.1,0,0,-.1,-137.76013,661.89608)" stroke-width="7.97011" stroke-linecap="butt" stroke-miterlimit="10" stroke-linejoin="miter" fill="none" stroke="#000000" d="M1904.4 4971.6V6504.72"/>
<path transform="matrix(.1,0,0,-.1,-137.76013,661.89608)" d="M5602.91 4956.16 5646.15 4971.6 5602.91 4987.04 5620.21 4971.6"/>
<path transform="matrix(.1,0,0,-.1,-137.76013,661.89608)" stroke-width="7.97011" stroke-linecap="butt" stroke-miterlimit="10" stroke-linejoin="miter" fill="none" stroke="#000000" d="M1904.4 4971.6H5620.21"/>
<use data-text="0" xlink:href="#font_2_5" transform="matrix(9.96264,0,0,-9.96264,50.159868,180.21607)"/>
<use data-text="0" xlink:href="#font_2_5" transform="matrix(9.96264,0,0,-9.96264,80.39967,180.21607)"/>
<use data-text="." xlink:href="#font_3_3" transform="matrix(9.96264,0,0,-9.96264,85.439579,180.21607)"/>
<use data-text="1" xlink:href="#font_2_6" transform="matrix(9.96264,0,0,-9.96264,88.19974,180.21607)"/>
<use data-text="0" xlink:href="#font_2_5" transform="matrix(9.96264,0,0,-9.96264,114.35994,180.21607)"/>
<use data-text="." xlink:href="#font_3_3" transform="matrix(9.96264,0,0,-9.96264,119.39975,180.21607)"/>
<use data-text="2" xlink:href="#font_2_7" transform="matrix(9.96264,0,0,-9.96264,122.15991,180.21607)"/>
<use data-text="0" xlink:href="#font_2_5" transform="matrix(9.96264,0,0,-9.96264,148.43997,180.21607)"/>
<use data-text="." xlink:href="#font_3_3" transform="matrix(9.96264,0,0,-9.96264,153.4798,180.21607)"/>
<use data-text="3" xlink:href="#font_2_8" transform="matrix(9.96264,0,0,-9.96264,156.23996,180.21607)"/>
<use data-text="0" xlink:href="#font_2_5" transform="matrix(9.96264,0,0,-9.96264,182.40018,180.21607)"/>
<use data-text="." xlink:href="#font_3_3" transform="matrix(9.96264,0,0,-9.96264,187.43997,180.21607)"/>
<use data-text="4" xlink:href="#font_2_9" transform="matrix(9.96264,0,0,-9.96264,190.20014,180.21607)"/>
<use data-text="0" xlink:href="#font_2_5" transform="matrix(9.96264,0,0,-9.96264,216.4802,180.21607)"/>
<use data-text="." xlink:href="#font_3_3" transform="matrix(9.96264,0,0,-9.96264,221.52002,180.21607)"/>
<use data-text="5" xlink:href="#font_2_10" transform="matrix(9.96264,0,0,-9.96264,224.28018,180.21607)"/>
<use data-text="0" xlink:href="#font_2_5" transform="matrix(9.96264,0,0,-9.96264,250.4404,180.21607)"/>
<use data-text="." xlink:href="#font_3_3" transform="matrix(9.96264,0,0,-9.96264,255.4802,180.21607)"/>
<use data-text="6" xlink:href="#font_2_1" transform="matrix(9.96264,0,0,-9.96264,258.24037,180.21607)"/>
<use data-text="0" xlink:href="#font_2_5" transform="matrix(9.96264,0,0,-9.96264,284.52043,180.21607)"/>
<use data-text="." xlink:href="#font_3_3" transform="matrix(9.96264,0,0,-9.96264,289.56025,180.21607)"/>
<use data-text="7" xlink:href="#font_2_2" transform="matrix(9.96264,0,0,-9.96264,292.3204,180.21607)"/>
<use data-text="0" xlink:href="#font_2_5" transform="matrix(9.96264,0,0,-9.96264,318.48063,180.21607)"/>
<use data-text="." xlink:href="#font_3_3" transform="matrix(9.96264,0,0,-9.96264,323.52043,180.21607)"/>
<use data-text="8" xlink:href="#font_2_3" transform="matrix(9.96264,0,0,-9.96264,326.28059,180.21607)"/>
<use data-text="0" xlink:href="#font_2_5" transform="matrix(9.96264,0,0,-9.96264,352.4408,180.21607)"/>
<use data-text="." xlink:href="#font_3_3" transform="matrix(9.96264,0,0,-9.96264,357.4806,180.21607)"/>
<use data-text="9" xlink:href="#font_2_4" transform="matrix(9.96264,0,0,-9.96264,360.24076,180.21607)"/>
<use data-text="1" xlink:href="#font_2_6" transform="matrix(9.96264,0,0,-9.96264,386.5208,180.21607)"/>
<use data-text="." xlink:href="#font_3_3" transform="matrix(9.96264,0,0,-9.96264,391.56068,180.21607)"/>
<use data-text="0" xlink:href="#font_2_5" transform="matrix(9.96264,0,0,-9.96264,394.3208,180.21607)"/>
<use data-text="0" xlink:href="#font_2_5" transform="matrix(9.96264,0,0,-9.96264,38.759798,167.97626)"/>
<use data-text="0" xlink:href="#font_2_5" transform="matrix(9.96264,0,0,-9.96264,30.959794,153.81607)"/>
<use data-text="." xlink:href="#font_3_3" transform="matrix(9.96264,0,0,-9.96264,35.999635,153.81607)"/>
<use data-text="1" xlink:href="#font_2_6" transform="matrix(9.96264,0,0,-9.96264,38.759798,153.81607)"/>
<use data-text="0" xlink:href="#font_2_5" transform="matrix(9.96264,0,0,-9.96264,30.959794,139.65589)"/>
<use data-text="." xlink:href="#font_3_3" transform="matrix(9.96264,0,0,-9.96264,35.999635,139.65589)"/>
<use data-text="2" xlink:href="#font_2_7" transform="matrix(9.96264,0,0,-9.96264,38.759798,139.65589)"/>
<use data-text="0" xlink:href="#font_2_5" transform="matrix(9.96264,0,0,-9.96264,30.959794,125.49609)"/>
<use data-text="." xlink:href="#font_3_3" transform="matrix(9.96264,0,0,-9.96264,35.999635,125.49609)"/>
<use data-text="3" xlink:href="#font_2_8" transform="matrix(9.96264,0,0,-9.96264,38.759798,125.49609)"/>
<use data-text="0" xlink:href="#font_2_5" transform="matrix(9.96264,0,0,-9.96264,30.959794,111.33588)"/>
<use data-text="." xlink:href="#font_3_3" transform="matrix(9.96264,0,0,-9.96264,35.999635,111.33588)"/>
<use data-text="4" xlink:href="#font_2_9" transform="matrix(9.96264,0,0,-9.96264,38.759798,111.33588)"/>
<use data-text="0" xlink:href="#font_2_5" transform="matrix(9.96264,0,0,-9.96264,30.959794,97.17609)"/>
<use data-text="." xlink:href="#font_3_3" transform="matrix(9.96264,0,0,-9.96264,35.999635,97.17609)"/>
<use data-text="5" xlink:href="#font_2_10" transform="matrix(9.96264,0,0,-9.96264,38.759798,97.17609)"/>
<use data-text="0" xlink:href="#font_2_5" transform="matrix(9.96264,0,0,-9.96264,30.959794,82.895999)"/>
<use data-text="." xlink:href="#font_3_3" transform="matrix(9.96264,0,0,-9.96264,35.999635,82.895999)"/>
<use data-text="6" xlink:href="#font_2_1" transform="matrix(9.96264,0,0,-9.96264,38.759798,82.895999)"/>
<use data-text="0" xlink:href="#font_2_5" transform="matrix(9.96264,0,0,-9.96264,30.959794,68.73578)"/>
<use data-text="." xlink:href="#font_3_3" transform="matrix(9.96264,0,0,-9.96264,35.999635,68.73578)"/>
<use data-text="7" xlink:href="#font_2_2" transform="matrix(9.96264,0,0,-9.96264,38.759798,68.73578)"/>
<use data-text="0" xlink:href="#font_2_5" transform="matrix(9.96264,0,0,-9.96264,30.959794,54.57599)"/>
<use data-text="." xlink:href="#font_3_3" transform="matrix(9.96264,0,0,-9.96264,35.999635,54.57599)"/>
<use data-text="8" xlink:href="#font_2_3" transform="matrix(9.96264,0,0,-9.96264,38.759798,54.57599)"/>
<use data-text="0" xlink:href="#font_2_5" transform="matrix(9.96264,0,0,-9.96264,30.959794,40.41577)"/>
<use data-text="." xlink:href="#font_3_3" transform="matrix(9.96264,0,0,-9.96264,35.999635,40.41577)"/>
<use data-text="9" xlink:href="#font_2_4" transform="matrix(9.96264,0,0,-9.96264,38.759798,40.41577)"/>
<use data-text="1" xlink:href="#font_2_6" transform="matrix(9.96264,0,0,-9.96264,30.959794,26.255982)"/>
<use data-text="." xlink:href="#font_3_3" transform="matrix(9.96264,0,0,-9.96264,35.999635,26.255982)"/>
<use data-text="0" xlink:href="#font_2_5" transform="matrix(9.96264,0,0,-9.96264,38.759798,26.255982)"/>
<use data-text="C" xlink:href="#font_3_1" transform="matrix(9.96264,0,0,-9.96264,2,10.989563)"/>
<use data-text="h" xlink:href="#font_4_3" transform="matrix(6.97385,0,0,-6.97385,9.800003,7.3895876)"/>
<use data-text="o" xlink:href="#font_4_1" transform="matrix(6.97385,0,0,-6.97385,14.480011,7.3895876)"/>
<use data-text="m" xlink:href="#font_4_8" transform="matrix(6.97385,0,0,-6.97385,18.440018,7.3895876)"/>
<use data-text="i" xlink:href="#font_4_4" transform="matrix(6.97385,0,0,-6.97385,9.080078,13.869263)"/>
<use data-text="j" xlink:href="#font_4_5" transform="matrix(6.97385,0,0,-6.97385,11.840073,13.869263)"/>
<use data-text="k" xlink:href="#font_4_6" transform="matrix(6.97385,0,0,-6.97385,15.440231,13.869263)"/>
<use data-text="l" xlink:href="#font_4_7" transform="matrix(6.97385,0,0,-6.97385,19.760148,13.869263)"/>
<use data-text="/" xlink:href="#font_3_4" transform="matrix(9.96264,0,0,-9.96264,25.999985,10.989563)"/>
<use data-text="c" xlink:href="#font_3_2" transform="matrix(9.96264,0,0,-9.96264,31.039994,10.989563)"/>
<use data-text="s" xlink:href="#font_4_2" transform="matrix(6.97385,0,0,-6.97385,35.360139,7.3895876)"/>
<use data-text="i" xlink:href="#font_4_4" transform="matrix(6.97385,0,0,-6.97385,35.360139,13.869263)"/>
<use data-text="j" xlink:href="#font_4_5" transform="matrix(6.97385,0,0,-6.97385,38.120134,13.869263)"/>
<use data-text="k" xlink:href="#font_4_6" transform="matrix(6.97385,0,0,-6.97385,41.72029,13.869263)"/>
<use data-text="l" xlink:href="#font_4_7" transform="matrix(6.97385,0,0,-6.97385,46.040208,13.869263)"/>
<use data-text="&#x01eb;" xlink:href="#font_3_5" transform="matrix(9.96264,0,0,-9.96264,426.8551,168.31226)"/>
<path transform="matrix(.1,0,0,-.1,-137.76013,661.89608)" stroke-width="9.96264" stroke-linecap="butt" stroke-miterlimit="10" stroke-linejoin="miter" fill="none" stroke="#0000ff" d="M1904.4 6388.92 1970.69 6364.89 2036.98 6341.69 2103.27 6319.26 2169.56 6297.58 2235.86 6276.6 2302.14 6256.29 2368.44 6236.61 2434.73 6217.54 2501.02 6199.05 2567.31 6181.11 2633.6 6163.69 2699.89 6146.78 2766.19 6130.34 2832.48 6114.37 2898.77 6098.84 2965.06 6083.72 3031.35 6069.02 3097.64 6054.7 3163.93 6040.75 3230.22 6027.17 3296.51 6013.93 3362.8 6001.01 3429.1 5988.42 3495.39 5976.14 3561.68 5964.14 3627.97 5952.44 3694.26 5941.01 3760.55 5929.84 3826.84 5918.93 3893.13 5908.27 3959.42 5897.85 4025.71 5887.66 4092.01 5877.69 4158.3 5867.93 4224.59 5858.39 4290.88 5849.04 4357.17 5839.89 4423.46 5830.94 4489.75 5822.16 4556.05 5813.57 4622.34 5805.14 4688.63 5796.88 4754.92 5788.79 4821.21 5780.85 4887.5 5773.07 4953.79 5765.43 5020.08 5757.95 5086.37 5750.59 5152.66 5743.38"/>
<use data-text="C" xlink:href="#font_5_1" transform="matrix(8.96638,0,0,-8.96638,382.63288,97.219058)" fill="#0000ff"/>
<use data-text="1" xlink:href="#font_6_1" transform="matrix(5.97758,0,0,-5.97758,389.23286,98.1792)" fill="#0000ff"/>
<use data-text="1" xlink:href="#font_6_1" transform="matrix(5.97758,0,0,-5.97758,392.83283,98.1792)" fill="#0000ff"/>
<use data-text="1" xlink:href="#font_6_1" transform="matrix(5.97758,0,0,-5.97758,396.4328,98.1792)" fill="#0000ff"/>
<use data-text="1" xlink:href="#font_6_1" transform="matrix(5.97758,0,0,-5.97758,400.03279,98.1792)" fill="#0000ff"/>
<path transform="matrix(.1,0,0,-.1,-137.76013,661.89608)" stroke-width="9.96264" stroke-linecap="butt" stroke-miterlimit="10" stroke-linejoin="miter" fill="none" stroke="#0000ff" d="M1904.4 6388.92 1970.69 6387.26 2036.98 6385.66 2103.27 6384.12 2169.56 6382.63 2235.86 6381.19 2302.14 6379.8 2368.44 6378.45 2434.73 6377.14 2501.02 6375.88 2567.31 6374.66 2633.6 6373.47 2699.89 6372.32 2766.19 6371.2 2832.48 6370.11 2898.77 6369.05 2965.06 6368.03 3031.35 6367.03 3097.64 6366.05 3163.93 6365.11 3230.22 6364.19 3296.51 6363.29 3362.8 6362.41 3429.1 6361.55 3495.39 6360.72 3561.68 6359.91 3627.97 6359.11 3694.26 6358.34 3760.55 6357.58 3826.84 6356.84 3893.13 6356.11 3959.42 6355.41 4025.71 6354.71 4092.01 6354.04 4158.3 6353.38 4224.59 6352.72 4290.88 6352.09 4357.17 6351.47 4423.46 6350.86 4489.75 6350.26 4556.05 6349.68 4622.34 6349.1 4688.63 6348.54 4754.92 6347.99 4821.21 6347.45 4887.5 6346.91 4953.79 6346.39 5020.08 6345.88 5086.37 6345.38 5152.66 6344.89"/>
<use data-text="C" xlink:href="#font_5_1" transform="matrix(8.96638,0,0,-8.96638,382.63288,29.896058)" fill="#0000ff"/>
<use data-text="2" xlink:href="#font_6_2" transform="matrix(5.97758,0,0,-5.97758,389.23286,30.855835)" fill="#0000ff"/>
<use data-text="2" xlink:href="#font_6_2" transform="matrix(5.97758,0,0,-5.97758,392.83283,30.855835)" fill="#0000ff"/>
<use data-text="2" xlink:href="#font_6_2" transform="matrix(5.97758,0,0,-5.97758,396.4328,30.855835)" fill="#0000ff"/>
<use data-text="2" xlink:href="#font_6_2" transform="matrix(5.97758,0,0,-5.97758,400.03279,30.855835)" fill="#0000ff"/>
<path transform="matrix(.1,0,0,-.1,-137.76013,661.89608)" stroke-width="9.96264" stroke-linecap="butt" stroke-miterlimit="10" stroke-linejoin="miter" fill="none" stroke="#0000ff" d="M1904.4 6388.92 1970.69 6349.97 2036.98 6313.11 2103.27 6278.17 2169.56 6245.02 2235.86 6213.51 2302.14 6183.52 2368.44 6154.96 2434.73 6127.71 2501.02 6101.7 2567.31 6076.82 2633.6 6053.03 2699.89 6030.24 2766.19 6008.39 2832.48 5987.43 2898.77 5967.3 2965.06 5947.95 3031.35 5929.35 3097.64 5911.44 3163.93 5894.19 3230.22 5877.56 3296.51 5861.52 3362.8 5846.04 3429.1 5831.09 3495.39 5816.64 3561.68 5802.68 3627.97 5789.16 3694.26 5776.08 3760.55 5763.41 3826.84 5751.14 3893.13 5739.23 3959.42 5727.69 4025.71 5716.49 4092.01 5705.62 4158.3 5695.06 4224.59 5684.8 4290.88 5674.82 4357.17 5665.13 4423.46 5655.69 4489.75 5646.51 4556.05 5637.57 4622.34 5628.87 4688.63 5620.39 4754.92 5612.12 4821.21 5604.07 4887.5 5596.21 4953.79 5588.55 5020.08 5581.07 5086.37 5573.77 5152.66 5566.64"/>
<use data-text="C" xlink:href="#font_5_1" transform="matrix(8.96638,0,0,-8.96638,382.63288,107.84906)" fill="#0000ff"/>
<use data-text="3" xlink:href="#font_6_3" transform="matrix(5.97758,0,0,-5.97758,389.23286,108.80884)" fill="#0000ff"/>
<use data-text="3" xlink:href="#font_6_3" transform="matrix(5.97758,0,0,-5.97758,392.83283,108.80884)" fill="#0000ff"/>
<use data-text="3" xlink:href="#font_6_3" transform="matrix(5.97758,0,0,-5.97758,396.4328,108.80884)" fill="#0000ff"/>
<use data-text="3" xlink:href="#font_6_3" transform="matrix(5.97758,0,0,-5.97758,400.03279,108.80884)" fill="#0000ff"/>
<path transform="matrix(.1,0,0,-.1,-137.76013,661.89608)" stroke-width="9.96264" stroke-linecap="butt" stroke-miterlimit="10" stroke-linejoin="miter" fill="none" stroke="#0000ff" d="M1904.4 6388.92 1970.69 6364.27 2036.98 6340.49 2103.27 6317.54 2169.56 6295.39 2235.86 6273.97 2302.14 6253.27 2368.44 6233.23 2434.73 6213.83 2501.02 6195.04 2567.31 6176.82 2633.6 6159.15 2699.89 6142 2766.19 6125.36 2832.48 6109.19 2898.77 6093.48 2965.06 6078.21 3031.35 6063.36 3097.64 6048.9 3163.93 6034.84 3230.22 6021.14 3296.51 6007.79 3362.8 5994.79 3429.1 5982.11 3495.39 5969.75 3561.68 5957.69 3627.97 5945.92 3694.26 5934.43 3760.55 5923.22 3826.84 5912.26 3893.13 5901.56 3959.42 5891.1 4025.71 5880.88 4092.01 5870.88 4158.3 5861.11 4224.59 5851.54 4290.88 5842.18 4357.17 5833.02 4423.46 5824.05 4489.75 5815.27 4556.05 5806.66 4622.34 5798.24 4688.63 5789.98 4754.92 5781.89 4821.21 5773.95 4887.5 5766.17 4953.79 5758.54 5020.08 5751.06 5086.37 5743.71 5152.66 5736.51"/>
<use data-text="C" xlink:href="#font_5_1" transform="matrix(8.96638,0,0,-8.96638,382.63288,89.423038)" fill="#0000ff"/>
<use data-text="1" xlink:href="#font_6_1" transform="matrix(5.97758,0,0,-5.97758,389.23286,90.38281)" fill="#0000ff"/>
<use data-text="1" xlink:href="#font_6_1" transform="matrix(5.97758,0,0,-5.97758,392.83283,90.38281)" fill="#0000ff"/>
<use data-text="3" xlink:href="#font_6_3" transform="matrix(5.97758,0,0,-5.97758,396.4328,90.38281)" fill="#0000ff"/>
<use data-text="3" xlink:href="#font_6_3" transform="matrix(5.97758,0,0,-5.97758,400.03279,90.38281)" fill="#0000ff"/>
<path transform="matrix(.1,0,0,-.1,-137.76013,661.89608)" stroke-width="9.96264" stroke-linecap="butt" stroke-miterlimit="10" stroke-linejoin="miter" fill="none" stroke="#0000ff" d="M1904.4 6388.92 1970.69 6337.64 2036.98 6289.3 2103.27 6243.69 2169.56 6200.58 2235.86 6159.79 2302.14 6121.13 2368.44 6084.47 2434.73 6049.65 2501.02 6016.54 2567.31 5985.04 2633.6 5955.02 2699.89 5926.4 2766.19 5899.09 2832.48 5873 2898.77 5848.05 2965.06 5824.19 3031.35 5801.34 3097.64 5779.44 3163.93 5758.44 3230.22 5738.29 3296.51 5718.95 3362.8 5700.36 3429.1 5682.48 3495.39 5665.29 3561.68 5648.74 3627.97 5632.8 3694.26 5617.44 3760.55 5602.64 3826.84 5588.35 3893.13 5574.57 3959.42 5561.25 4025.71 5548.4 4092.01 5535.97 4158.3 5523.95 4224.59 5512.33 4290.88 5501.09 4357.17 5490.2 4423.46 5479.66 4489.75 5469.44 4556.05 5459.54 4622.34 5449.94 4688.63 5440.63 4754.92 5431.6 4821.21 5422.83 4887.5 5414.32 4953.79 5406.05 5020.08 5398.02 5086.37 5390.22 5152.66 5382.63"/>
<use data-text="C" xlink:href="#font_5_1" transform="matrix(8.96638,0,0,-8.96638,382.63288,126.275089)" fill="#0000ff"/>
<use data-text="3" xlink:href="#font_6_3" transform="matrix(5.97758,0,0,-5.97758,389.23286,127.23523)" fill="#0000ff"/>
<use data-text="3" xlink:href="#font_6_3" transform="matrix(5.97758,0,0,-5.97758,392.83283,127.23523)" fill="#0000ff"/>
<use data-text="1" xlink:href="#font_6_1" transform="matrix(5.97758,0,0,-5.97758,396.4328,127.23523)" fill="#0000ff"/>
<use data-text="2" xlink:href="#font_6_2" transform="matrix(5.97758,0,0,-5.97758,400.03279,127.23523)" fill="#0000ff"/>
<path transform="matrix(.1,0,0,-.1,-137.76013,661.89608)" stroke-width="9.96264" stroke-linecap="butt" stroke-miterlimit="10" stroke-linejoin="miter" fill="none" stroke="#0000ff" d="M1904.4 6388.92 1970.69 6370.85 2036.98 6353.64 2103.27 6337.23 2169.56 6321.55 2235.86 6306.53 2302.14 6292.12 2368.44 6278.27 2434.73 6264.93 2501.02 6252.07 2567.31 6239.65 2633.6 6227.65 2699.89 6216.02 2766.19 6204.76 2832.48 6193.82 2898.77 6183.2 2965.06 6172.88 3031.35 6162.82 3097.64 6153.02 3163.93 6143.47 3230.22 6134.16 3296.51 6125.05 3362.8 6116.16 3429.1 6107.46 3495.39 6098.95 3561.68 6090.62 3627.97 6082.46 3694.26 6074.46 3760.55 6066.61 3826.84 6058.92 3893.13 6051.36 3959.42 6043.95 4025.71 6036.66 4092.01 6029.5 4158.3 6022.46 4224.59 6015.54 4290.88 6008.73 4357.17 6002.02 4423.46 5995.43 4489.75 5988.93 4556.05 5982.54 4622.34 5976.24 4688.63 5970.03 4754.92 5963.91 4821.21 5957.88 4887.5 5951.93 4953.79 5946.07 5020.08 5940.28 5086.37 5934.57 5152.66 5928.94"/>
<use data-text="C" xlink:href="#font_5_1" transform="matrix(8.96638,0,0,-8.96638,382.63288,70.999088)" fill="#0000ff"/>
<use data-text="1" xlink:href="#font_6_1" transform="matrix(5.97758,0,0,-5.97758,389.23286,71.95886)" fill="#0000ff"/>
<use data-text="1" xlink:href="#font_6_1" transform="matrix(5.97758,0,0,-5.97758,392.83283,71.95886)" fill="#0000ff"/>
<use data-text="1" xlink:href="#font_6_1" transform="matrix(5.97758,0,0,-5.97758,396.4328,71.95886)" fill="#0000ff"/>
<use data-text="2" xlink:href="#font_6_2" transform="matrix(5.97758,0,0,-5.97758,400.03279,71.95886)" fill="#0000ff"/>
<path transform="matrix(.1,0,0,-.1,-137.76013,661.89608)" stroke-width="9.96264" stroke-linecap="butt" stroke-miterlimit="10" stroke-linejoin="miter" fill="none" stroke="#0000ff" d="M1904.4 6388.92 1970.69 6367.36 2036.98 6346.45 2103.27 6326.15 2169.56 6306.44 2235.86 6287.3 2302.14 6268.7 2368.44 6250.61 2434.73 6233.03 2501.02 6215.92 2567.31 6199.27 2633.6 6183.06 2699.89 6167.27 2766.19 6151.89 2832.48 6136.9 2898.77 6122.28 2965.06 6108.03 3031.35 6094.12 3097.64 6080.55 3163.93 6067.31 3230.22 6054.38 3296.51 6041.74 3362.8 6029.4 3429.1 6017.34 3495.39 6005.55 3561.68 5994.03 3627.97 5982.75 3694.26 5971.73 3760.55 5960.94 3826.84 5950.38 3893.13 5940.04 3959.42 5929.92 4025.71 5920.01 4092.01 5910.3 4158.3 5900.79 4224.59 5891.47 4290.88 5882.33 4357.17 5873.37 4423.46 5864.59 4489.75 5855.97 4556.05 5847.52 4622.34 5839.23 4688.63 5831.1 4754.92 5823.11 4821.21 5815.27 4887.5 5807.58 4953.79 5800.02 5020.08 5792.6 5086.37 5785.31 5152.66 5778.14"/>
<use data-text="C" xlink:href="#font_5_1" transform="matrix(8.96638,0,0,-8.96638,382.63288,81.62805)" fill="#0000ff"/>
<use data-text="1" xlink:href="#font_6_1" transform="matrix(5.97758,0,0,-5.97758,389.23286,82.588199)" fill="#0000ff"/>
<use data-text="3" xlink:href="#font_6_3" transform="matrix(5.97758,0,0,-5.97758,392.83283,82.588199)" fill="#0000ff"/>
<use data-text="1" xlink:href="#font_6_1" transform="matrix(5.97758,0,0,-5.97758,396.4328,82.588199)" fill="#0000ff"/>
<use data-text="3" xlink:href="#font_6_3" transform="matrix(5.97758,0,0,-5.97758,400.03279,82.588199)" fill="#0000ff"/>
</g>
</svg>
