<svg xmlns="http://www.w3.org/2000/svg" xmlns:xlink="http://www.w3.org/1999/xlink" xmlns:inkscape="http://www.inkscape.org/namespaces/inkscape" version="1.1" width="155.15229" height="100.527408" viewBox="0 0 155.15229 100.527408">
<defs>
<clipPath id="clip_1">
<path transform="matrix(1,0,0,-1,-169.62433,660.832)" d="M169.62433 560.30459H324.7766V660.832H169.62433Z" clip-rule="evenodd"/>
</clipPath>
<path id="font_2_1" d="M.24398804 .66430667C.24499512 .66630557 .24798584 .67930606 .24798584 .68029788 .24798584 .68530276 .24398804 .6943054 .23199463 .6943054 .22799683 .6943054 .19699097 .69129946 .17399597 .68930056L.117996219 .68530276C.09599304 .68330386 .085998538 .682312 .085998538 .66430667 .085998538 .6502991 .099990848 .6502991 .11199951 .6502991 .1599884 .6502991 .1599884 .64430239 .1599884 .63531497 .1599884 .62931826 .1499939 .5893402 .14399719 .5663452L.056991579 .2183075C.04899597 .18429566 .04899597 .16929627 .04899597 .15228272 .04899597 .049240114 .11199951-.009765625 .18899536-.009765625 .31199647-.009765625 .43998719 .13227844 .43998719 .27734376 .43998719 .37638856 .37599183 .44140626 .29599 .44140626 .23999024 .44140626 .19699097 .4053955 .1749878 .38638307L.24398804 .66430667M.18899536 .018234253C.15299988 .018234253 .116989139 .04623413 .116989139 .119277957 .116989139 .14628601 .12098694 .17129517 .1329956 .21931458 .13999939 .24832154 .14698792 .27633668 .15499878 .3053589 .1599884 .32336427 .1599884 .32536317 .17199707 .34036256 .20599365 .38238526 .25099183 .4133911 .29299928 .4133911 .34298707 .4133911 .3619995 .36437989 .3619995 .3193512 .3619995 .28234864 .33999635 .17529297 .30999757 .11627197 .28399659 .0622406 .23599243 .018234253 .18899536 .018234253Z"/>
<path id="font_2_2" d="M.40899659 .38304139C.36799623 .3780365 .35499574 .34703065 .35499574 .32702638 .35499574 .29803468 .3809967 .29003907 .3939972 .29003907 .39898683 .29003907 .44999696 .29403688 .44999696 .35502626 .44999696 .4163971 .38398744 .44140626 .32398988 .44140626 .18199158 .44140626 .04399109 .3030243 .04399109 .16311646 .04399109 .06819153 .10899353-.009765625 .21998596-.009765625 .37799073-.009765625 .46099855 .091171268 .46099855 .10417175 .46099855 .11315918 .45098878 .120147708 .44499208 .120147708 .43899537 .120147708 .43598939 .11715698 .43099977 .11116028 .35198976 .018234253 .23999024 .018234253 .22200012 .018234253 .16799927 .018234253 .125 .051208497 .125 .12715149 .125 .17111206 .14498902 .27703858 .19198609 .33903504 .23599243 .39518739 .28599549 .4133911 .32499696 .4133911 .33699037 .4133911 .3829956 .41238404 .40899659 .38304139Z"/>
<path id="font_3_1" d="M.73098757 .3330078C.74598696 .3330078 .7659912 .3330078 .7659912 .3560028 .7659912 .3789978 .74198916 .3789978 .72698977 .3789978H.09799194C.08299255 .3789978 .05899048 .3789978 .05899048 .3560028 .05899048 .3330078 .07899475 .3330078 .09399414 .3330078H.73098757M.72698977 .12098694C.74198916 .12098694 .7659912 .12098694 .7659912 .14398194 .7659912 .16699219 .74598696 .16699219 .73098757 .16699219H.09399414C.07899475 .16699219 .05899048 .16699219 .05899048 .14398194 .05899048 .12098694 .08299255 .12098694 .09799194 .12098694H.72698977Z"/>
<path id="font_2_3" d="M.036987306-.1608429C.032989503-.17684937 .032989503-.18183899 .032989503-.18385315 .032989503-.20884705 .052993776-.21484375 .06498718-.21484375 .069992069-.21484375 .09298706-.21385193 .10598755-.18785095 .11099243-.17684937 .1309967-.08480835 .16699219 .052246095 .1789856 .031234742 .21099854-.009765625 .27198792-.009765625 .3939972-.009765625 .5289917 .12426758 .5289917 .27433778 .5289917 .38739015 .45399476 .44140626 .3769989 .44140626 .2849884 .44140626 .16699219 .35836793 .1309967 .21430969L.036987306-.1608429M.2709961 .018234253C.20199585 .018234253 .17999268 .09025574 .17999268 .104263309 .17999268 .10826111 .20599365 .21031189 .20799256 .21731568 .25299073 .39439393 .34799195 .4133911 .37599183 .4133911 .42399598 .4133911 .45098878 .3703766 .45098878 .3153534 .45098878 .27934266 .43099977 .17929077 .40098573 .118270877 .37199403 .06124878 .31999208 .018234253 .2709961 .018234253Z"/>
</defs>
<g clip-path="url(#clip_1)">
<path transform="matrix(.1,0,0,-.1,-169.62433,660.832)" d="M2298.61 5935.75 2286.63 5899.27 2327.85 5922 2302.59 5917.03"/>
<path transform="matrix(.0703291,.033074004,.045713899,-.050883004,-169.62433,660.832)" stroke-width="11.8772" stroke-linecap="butt" stroke-miterlimit="10" stroke-linejoin="miter" fill="none" stroke="#000000" d="M-3012.05 10041.5-3012.04 9670.87"/>
<path transform="matrix(.1,0,0,-.1,-169.62433,660.832)" d="M2481.5 6141.18 2472 6164.3 2462.5 6120.03 2472 6144.08"/>
<path transform="matrix(.059175906,-.0658672,0,-.0749569,-169.62433,660.832)" stroke-width="9.17523" stroke-linecap="butt" stroke-miterlimit="10" stroke-linejoin="miter" fill="none" stroke="#000000" d="M4177.38 4474.68V4526.02"/>
<path transform="matrix(.0703291,.033074004,.045713899,-.050883004,-169.62433,660.832)" stroke-width="11.8772" stroke-linecap="butt" stroke-miterlimit="10" stroke-linejoin="miter" fill="none" stroke="#ff0000" d="M-3823.06 9635.95H-2201.03"/>
<path transform="matrix(.0703291,.033074004,.045713899,-.050883004,-169.62433,660.832)" stroke-width="11.8772" stroke-linecap="butt" stroke-miterlimit="10" stroke-linejoin="miter" fill="none" stroke="#ff0000" d="M-3823.06 10447H-2201.03"/>
<path transform="matrix(.059175906,-.0658672,0,-.0749569,-169.62433,660.832)" stroke-width="9.17523" stroke-linecap="butt" stroke-dasharray="45.0576,27.0345,0,0" stroke-miterlimit="10" stroke-linejoin="miter" fill="none" stroke="#ff0000" d="M4490.64 4474.67 4488.06 4484.69 4480.39 4494.54 4467.74 4504.06 4450.32 4513.11 4428.43 4521.52 4402.41 4529.16 4372.69 4535.91 4339.77 4541.65 4304.18 4546.29 4266.5 4549.76 4227.37 4551.99 4187.42 4552.95 4147.29 4552.63 4107.67 4551.03 4069.18 4548.18 4032.48 4544.11 3998.16 4538.91 3966.78 4532.65 3938.85 4525.44 3914.84 4517.4 3895.14 4508.66 3880.08 4499.35 3869.89 4489.65 3864.76 4479.69V4469.66L3869.89 4459.71 3880.08 4450 3895.14 4440.69 3914.84 4431.95 3938.85 4423.91 3966.78 4416.7 3998.16 4410.45 4032.48 4405.24 4069.18 4401.19 4107.67 4398.33 4147.29 4396.73 4187.42 4396.4 4227.37 4397.37 4266.5 4399.6 4304.18 4403.07 4339.77 4407.71 4372.69 4413.45 4402.41 4420.19 4428.43 4427.83 4450.32 4436.25 4467.74 4445.29 4480.39 4454.81 4488.06 4464.66 4490.64 4474.67"/>
<path transform="matrix(.059175906,-.0658672,0,-.0749569,-169.62433,660.832)" stroke-width="9.17523" stroke-linecap="butt" stroke-miterlimit="10" stroke-linejoin="miter" fill="none" stroke="#ff0000" d="M5454.51 3269.84 5451.94 3279.85 5444.26 3289.7 5431.61 3299.22 5414.2 3308.26 5392.3 3316.67 5366.28 3324.32 5336.57 3331.06 5303.64 3336.8 5268.05 3341.44 5230.38 3344.91 5191.24 3347.15 5151.29 3348.11 5111.17 3347.78 5071.55 3346.18 5033.06 3343.33 4996.35 3339.27 4962.03 3334.07 4930.65 3327.81 4902.72 3320.6 4878.71 3312.56 4859.01 3303.82 4843.95 3294.52 4833.77 3284.8 4828.63 3274.86V3264.82L4833.77 3254.86 4843.95 3245.16 4859.01 3235.86 4878.71 3227.12 4902.72 3219.07 4930.65 3211.86 4962.03 3205.61 4996.35 3200.4 5033.06 3196.34 5071.55 3193.48 5111.17 3191.88 5151.29 3191.56 5191.24 3192.52 5230.38 3194.76 5268.05 3198.22 5303.64 3202.87 5336.57 3208.6 5366.28 3215.35 5392.3 3223 5414.2 3231.4 5431.61 3240.45 5444.26 3249.97 5451.94 3259.81 5454.51 3269.84"/>
<path transform="matrix(.059175906,-.0658672,0,-.0749569,-169.62433,660.832)" stroke-width="9.17523" stroke-linecap="butt" stroke-miterlimit="10" stroke-linejoin="miter" fill="none" stroke="#ff0000" d="M3526.76 5679.52 3526.12 5684.54 3524.19 5689.53 3520.98 5694.49 3516.52 5699.39 3510.81 5704.2 3503.87 5708.91 3495.74 5713.5 3486.45 5717.95 3476.04 5722.24 3464.55 5726.36 3452.03 5730.29 3438.53 5734 3424.11 5737.5 3408.82 5740.75 3392.73 5743.75 3375.89 5746.49 3358.4 5748.95 3340.31 5751.13 3321.69 5753.02 3302.63 5754.6 3283.21 5755.87 3263.5 5756.83 3243.58 5757.47 3223.54 5757.8H3203.46L3183.42 5757.47 3163.5 5756.84 3143.8 5755.87 3124.37 5754.6 3105.31 5753.01 3086.7 5751.13 3068.61 5748.96 3051.11 5746.49 3034.28 5743.75 3018.19 5740.75 3002.9 5737.5 2988.47 5734 2974.97 5730.29 2962.45 5726.36 2950.96 5722.25 2940.55 5717.95 2931.26 5713.5 2923.14 5708.91 2916.2 5704.2 2910.49 5699.39 2906.02 5694.49 2902.81 5689.54 2900.89 5684.54 2900.24 5679.52"/>
<path transform="matrix(.059175906,-.0658672,0,-.0749569,-169.62433,660.832)" stroke-width="9.17523" stroke-linecap="butt" stroke-dasharray="43.617,26.1702,0,0" stroke-miterlimit="10" stroke-linejoin="miter" fill="none" stroke="#ff0000" d="M2900.24 5679.52 2900.89 5674.5 2902.81 5669.51 2906.02 5664.55 2910.49 5659.65 2916.2 5654.85 2923.14 5650.13 2931.26 5645.54 2940.55 5641.09 2950.96 5636.8 2962.45 5632.68 2974.97 5628.76 2988.47 5625.04 3002.9 5621.54 3018.19 5618.29 3034.28 5615.29 3051.11 5612.55 3068.61 5610.09 3086.7 5607.91 3105.31 5606.02 3124.37 5604.44 3143.79 5603.17 3163.5 5602.21 3183.42 5601.57 3203.46 5601.25H3223.54L3243.58 5601.57 3263.5 5602.21 3283.21 5603.17 3302.63 5604.44 3321.69 5606.02 3340.31 5607.91 3358.39 5610.09 3375.89 5612.55 3392.72 5615.29 3408.81 5618.29 3424.11 5621.54 3438.53 5625.04 3452.03 5628.75 3464.55 5632.68 3476.04 5636.8 3486.45 5641.09 3495.74 5645.54 3503.87 5650.13 3510.8 5654.84 3516.52 5659.66 3520.98 5664.55 3524.19 5669.5 3526.12 5674.5 3526.76 5679.52"/>
<use data-text="b" xlink:href="#font_2_1" transform="matrix(7.97011,0,0,-7.97011,51.298677,75.75397)"/>
<use data-text="c" xlink:href="#font_2_2" transform="matrix(7.97011,0,0,-7.97011,47.546724,43.042665)"/>
<use data-text="=" xlink:href="#font_3_1" transform="matrix(7.97011,0,0,-7.97011,53.546724,43.042665)"/>
<use data-text="&#x03c1;" xlink:href="#font_2_3" transform="matrix(7.97011,0,0,-7.97011,62.546724,43.042665)"/>
<use data-text="b" xlink:href="#font_2_1" transform="matrix(7.97011,0,0,-7.97011,68.18657,43.042665)"/>
</g>
</svg>
