<svg xmlns="http://www.w3.org/2000/svg" xmlns:xlink="http://www.w3.org/1999/xlink" xmlns:inkscape="http://www.inkscape.org/namespaces/inkscape" version="1.1" width="130.831" height="71.639469" viewBox="0 0 130.831 71.639469">
<defs>
<clipPath id="clip_1">
<path transform="matrix(1,0,0,-1,-188.46613,646.3615)" d="M188.46613 574.72207H319.29713V646.3615H188.46613Z" clip-rule="evenodd"/>
</clipPath>
<path id="font_2_2" d="M.24398804 .66430667C.24499512 .66630557 .24798584 .67930606 .24798584 .68029788 .24798584 .68530276 .24398804 .6943054 .23199463 .6943054 .22799683 .6943054 .19699097 .69129946 .17399597 .68930056L.117996219 .68530276C.09599304 .68330386 .085998538 .682312 .085998538 .66430667 .085998538 .6502991 .099990848 .6502991 .11199951 .6502991 .1599884 .6502991 .1599884 .64430239 .1599884 .63531497 .1599884 .62931826 .1499939 .5893402 .14399719 .5663452L.056991579 .2183075C.04899597 .18429566 .04899597 .16929627 .04899597 .15228272 .04899597 .049240114 .11199951-.009765625 .18899536-.009765625 .31199647-.009765625 .43998719 .13227844 .43998719 .27734376 .43998719 .37638856 .37599183 .44140626 .29599 .44140626 .23999024 .44140626 .19699097 .4053955 .1749878 .38638307L.24398804 .66430667M.18899536 .018234253C.15299988 .018234253 .116989139 .04623413 .116989139 .119277957 .116989139 .14628601 .12098694 .17129517 .1329956 .21931458 .13999939 .24832154 .14698792 .27633668 .15499878 .3053589 .1599884 .32336427 .1599884 .32536317 .17199707 .34036256 .20599365 .38238526 .25099183 .4133911 .29299928 .4133911 .34298707 .4133911 .3619995 .36437989 .3619995 .3193512 .3619995 .28234864 .33999635 .17529297 .30999757 .11627197 .28399659 .0622406 .23599243 .018234253 .18899536 .018234253Z"/>
<path id="font_3_1" d="M.73098757 .3330078C.74598696 .3330078 .7659912 .3330078 .7659912 .3560028 .7659912 .3789978 .74198916 .3789978 .72698977 .3789978H.09799194C.08299255 .3789978 .05899048 .3789978 .05899048 .3560028 .05899048 .3330078 .07899475 .3330078 .09399414 .3330078H.73098757M.72698977 .12098694C.74198916 .12098694 .7659912 .12098694 .7659912 .14398194 .7659912 .16699219 .74598696 .16699219 .73098757 .16699219H.09399414C.07899475 .16699219 .05899048 .16699219 .05899048 .14398194 .05899048 .12098694 .08299255 .12098694 .09799194 .12098694H.72698977Z"/>
<path id="font_2_5" d="M.5209961 .27633668C.5249939 .29135133 .5289917 .3083496 .5289917 .33036805 .5289917 .4053955 .47698976 .44140626 .40499879 .44140626 .32398988 .44140626 .27198792 .39237977 .24299622 .35437013 .23599243 .4093933 .19198609 .44140626 .14099121 .44140626 .10499573 .44140626 .07998657 .418396 .06399536 .38739015 .040985109 .34236146 .02999878 .29135133 .02999878 .28834535 .02999878 .27934266 .036987306 .27534486 .04499817 .27534486 .057998659 .27534486 .05899048 .27934266 .06599426 .30534364 .07899475 .35636903 .09700012 .4133911 .13798523 .4133911 .16299439 .4133911 .16999817 .39038087 .16999817 .36637879 .16999817 .3483734 .16499329 .32936097 .15699768 .29634095 .15499878 .28834535 .13999939 .22932434 .13598633 .21531677L.09899902 .06524658C.09498596 .050247194 .08898926 .025238038 .08898926 .021240235 .08898926-.0017700195 .10798645-.009780884 .12098694-.009780884 .13899231-.009780884 .1539917 .0022277833 .16099549 .01423645 .1639862 .020233155 .17199707 .054244996 .1769867 .07525635L.19999695 .16429138C.20298767 .17930603 .21299744 .21731568 .21598816 .23231507 .22999573 .28634645 .22999573 .28733827 .25299073 .32035829 .28599549 .3693695 .33299256 .4133911 .3999939 .4133911 .43598939 .4133911 .45700074 .39237977 .45700074 .34536744 .45700074 .32635499 .44898988 .28933717 .44898988 .28834535L.33599855-.1608429C.33198548-.17584229 .33198548-.18183899 .33198548-.18385315 .33198548-.20884705 .35198976-.21484375 .3639984-.21484375 .39898683-.21484375 .40699769-.18183899 .4099884-.16984558L.5209961 .27633668Z"/>
<path id="font_2_1" d="M.3919983 .38137818C.3829956 .39839173 .35398866 .44140626 .29299928 .44140626 .17399597 .44140626 .042999269 .3023529 .042999269 .15428162 .042999269 .050247194 .10998535-.009765625 .18699646-.009765625 .25099183-.009765625 .30599977 .041229249 .32398988 .06124878 .34199525-.0077667238 .4099884-.009765625 .42199708-.009765625 .46798707-.009765625 .4909973 .02822876 .49899293 .04524231 .5189972 .08125305 .5329895 .13928223 .5329895 .14328003 .5329895 .14927674 .5289917 .15628052 .5169983 .15628052 .5049896 .15628052 .5029907 .15028382 .49699403 .12527466 .48298646 .070251468 .46398927 .018234253 .4249878 .018234253 .4019928 .018234253 .3929901 .037231447 .3929901 .06524658 .3929901 .08226013 .4019928 .11627197 .4079895 .14128113 .4139862 .16629029 .42900086 .22631836 .43299867 .24432373L.45298768 .32035829C.45799256 .3443756 .46899415 .38638307 .46899415 .39138795 .46899415 .4143982 .44999696 .4223938 .43699647 .4223938 .42199708 .4223938 .39698792 .4123993 .3919983 .38137818M.32398988 .10826111C.27398683 .039230348 .22200012 .018234253 .18998719 .018234253 .14399719 .018234253 .12098694 .0602417 .12098694 .11227417 .12098694 .1592865 .147995 .2663269 .16999817 .3103485 .19898987 .37138368 .24798584 .4133911 .2939911 .4133911 .35899354 .4133911 .37799073 .34036256 .37799073 .32835389 .37799073 .32435609 .35299684 .22631836 .34700013 .20030213 .33399964 .1532898 .33399964 .1512909 .32398988 .10826111Z"/>
<path id="font_2_3" d="M.40899659 .38304139C.36799623 .3780365 .35499574 .34703065 .35499574 .32702638 .35499574 .29803468 .3809967 .29003907 .3939972 .29003907 .39898683 .29003907 .44999696 .29403688 .44999696 .35502626 .44999696 .4163971 .38398744 .44140626 .32398988 .44140626 .18199158 .44140626 .04399109 .3030243 .04399109 .16311646 .04399109 .06819153 .10899353-.009765625 .21998596-.009765625 .37799073-.009765625 .46099855 .091171268 .46099855 .10417175 .46099855 .11315918 .45098878 .120147708 .44499208 .120147708 .43899537 .120147708 .43598939 .11715698 .43099977 .11116028 .35198976 .018234253 .23999024 .018234253 .22200012 .018234253 .16799927 .018234253 .125 .051208497 .125 .12715149 .125 .17111206 .14498902 .27703858 .19198609 .33903504 .23599243 .39518739 .28599549 .4133911 .32499696 .4133911 .33699037 .4133911 .3829956 .41238404 .40899659 .38304139Z"/>
<path id="font_2_4" d="M.6409912 .36634828C.6409912 .39736939 .6319885 .4423828 .59298709 .4423828 .56599429 .4423828 .5399933 .41737367 .5399933 .38935853 .5399933 .37435914 .5509949 .36535646 .56199648 .35534669 .57699587 .3403473 .59199526 .31433106 .59199526 .27731324 .59199526 .21028137 .522995 .068222049 .4229889 .068222049 .37098695 .068222049 .33499146 .099243167 .32299806 .14726258 .33898927 .18127442 .3600006 .2362976 .3600006 .26431275 .3600006 .28131105 .35198976 .29432679 .33299256 .29432679 .28799439 .29432679 .28199769 .18327332 .28199769 .15126038 .24699402 .10923767 .20599365 .068222049 .147995 .068222049 .083999637 .068222049 .053985597 .11924744 .053985597 .17826844 .053985597 .22529602 .066986087 .26730348 .08699036 .3063202 .115997318 .36434938 .15499878 .40237428 .15499878 .41838075 .15499878 .42938233 .1459961 .43737794 .1349945 .43737794 .115997318 .43737794 .100997928 .40837098 .08999634 .3903656 .04699707 .31933595 .015991211 .22628784 .015991211 .14326477 .015991211 .066223148 .04499817-.008773804 .1329956-.008773804 .21899414-.008773804 .2679901 .06022644 .2899933 .08824158 .30499269 .033233644 .34599305-.009765625 .40699769-.009765625 .4889984-.009765625 .5299988 .04322815 .57099917 .11224365 .6029968 .16526795 .6409912 .30332948 .6409912 .36634828Z"/>
</defs>
<g clip-path="url(#clip_1)">
<path transform="matrix(.1,0,0,-.1,-188.46613,646.3615)" d="M2331.01 5935.75 2319.03 5899.27 2360.25 5922 2334.99 5917.04"/>
<path transform="matrix(.0703291,.033074004,.045713899,-.050883004,-188.46613,646.3615)" stroke-width="11.8772" stroke-linecap="butt" stroke-miterlimit="10" stroke-linejoin="miter" fill="none" stroke="#000000" d="M-2979.66 10062.5V9691.92"/>
<path transform="matrix(.1,0,0,-.1,-188.46613,646.3615)" d="M3024.35 5846.04 3074.78 5837.36 3043.35 5867.19 3050.22 5848.91"/>
<path transform="matrix(.0703291,.033074004,.045713899,-.050883004,-188.46613,646.3615)" stroke-width="11.8772" stroke-linecap="butt" stroke-miterlimit="10" stroke-linejoin="miter" fill="none" stroke="#000000" d="M-2979.66 10062.5H-2203.56"/>
<path transform="matrix(.1,0,0,-.1,-188.46613,646.3615)" d="M2513.9 6141.18 2504.4 6164.3 2494.9 6120.03 2504.4 6144.08"/>
<path transform="matrix(.059175906,-.0658672,0,-.0749569,-188.46613,646.3615)" stroke-width="9.17523" stroke-linecap="butt" stroke-miterlimit="10" stroke-linejoin="miter" fill="none" stroke="#000000" d="M4232.13 4426.57V4477.91"/>
<path transform="matrix(.0703291,.033074004,.045713899,-.050883004,-188.46613,646.3615)" stroke-width="11.8772" stroke-linecap="butt" stroke-miterlimit="10" stroke-linejoin="miter" fill="none" stroke="#ff0000" d="M-2168.64 10062.5-2175.3 10114.4-2195.17 10165.4-2227.91 10214.7-2273.01 10261.5-2329.7 10305-2397.07 10344.6-2474 10379.5-2559.24 10409.3-2651.37 10433.3-2748.9 10451.3-2850.22 10462.8-2953.66 10467.8-3057.53 10466.1-3160.13 10457.8-3259.76 10443.1-3354.78 10422-3443.66 10395.1-3524.91 10362.7-3597.21 10325.4-3659.37 10283.7-3710.36 10238.4-3749.36 10190.3-3775.72 10140-3789.01 10088.5V10036.5L-3775.72 9984.99-3749.36 9934.73-3710.36 9886.56-3659.36 9841.29-3597.2 9799.65-3524.91 9762.32-3443.66 9729.92-3354.79 9702.99-3259.76 9681.95-3160.13 9667.17-3057.54 9658.87-2953.66 9657.21-2850.22 9662.2-2748.9 9673.76-2651.38 9691.7-2559.23 9715.74-2474 9745.47-2397.07 9780.4-2329.7 9819.97-2273.01 9863.52-2227.91 9910.34-2195.17 9959.65-2175.3 10010.6-2168.64 10062.5"/>
<path transform="matrix(.059175906,-.0658672,0,-.0749569,-188.46613,646.3615)" stroke-width="9.17523" stroke-linecap="butt" stroke-miterlimit="10" stroke-linejoin="miter" fill="none" stroke="#ff0000" d="M4545.39 4426.56 4544.75 4431.58 4542.82 4436.58 4539.61 4441.54 4535.14 4446.43 4529.43 4451.24 4522.49 4455.95 4514.37 4460.54 4505.07 4465 4494.66 4469.29 4483.18 4473.41 4470.66 4477.33 4457.16 4481.05 4442.73 4484.54 4427.44 4487.79 4411.35 4490.79 4394.52 4493.54 4377.02 4496 4358.93 4498.18 4340.32 4500.06 4321.26 4501.64 4301.83 4502.92 4282.12 4503.88 4262.21 4504.52 4242.17 4504.84H4222.08L4202.05 4504.52 4182.13 4503.88 4162.42 4502.92 4143 4501.64 4123.94 4500.06 4105.33 4498.18 4087.23 4496 4069.74 4493.53 4052.91 4490.8 4036.81 4487.8 4021.52 4484.54 4007.1 4481.05 3993.6 4477.33 3981.08 4473.41 3969.59 4469.29 3959.18 4465 3949.89 4460.55 3941.76 4455.96 3934.83 4451.24 3929.12 4446.43 3924.65 4441.54 3921.44 4436.58 3919.51 4431.58 3918.87 4426.56"/>
<path transform="matrix(.059175906,-.0658672,0,-.0749569,-188.46613,646.3615)" stroke-width="9.17523" stroke-linecap="butt" stroke-dasharray="43.6167,26.17,0,0" stroke-miterlimit="10" stroke-linejoin="miter" fill="none" stroke="#ff0000" d="M3918.87 4426.56 3919.51 4421.55 3921.44 4416.55 3924.65 4411.59 3929.12 4406.7 3934.83 4401.89 3941.76 4397.18 3949.89 4392.59 3959.18 4388.14 3969.59 4383.84 3981.08 4379.72 3993.6 4375.8 4007.1 4372.08 4021.52 4368.59 4036.81 4365.34 4052.91 4362.33 4069.74 4359.59 4087.23 4357.13 4105.33 4354.96 4123.94 4353.07 4143 4351.49 4162.42 4350.22 4182.13 4349.26 4202.04 4348.61 4222.08 4348.29H4242.17L4262.21 4348.61 4282.12 4349.26 4301.83 4350.21 4321.26 4351.49 4340.32 4353.07 4358.93 4354.95 4377.02 4357.13 4394.52 4359.59 4411.34 4362.33 4427.44 4365.34 4442.73 4368.59 4457.16 4372.08 4470.66 4375.8 4483.18 4379.72 4494.66 4383.85 4505.07 4388.14 4514.36 4392.59 4522.49 4397.17 4529.42 4401.89 4535.14 4406.7 4539.61 4411.6 4542.81 4416.55 4544.75 4421.55 4545.39 4426.56"/>
<path transform="matrix(.0871985,.041007203,0,-.071794208,-188.46613,646.3615)" stroke-width="9.57941" stroke-linecap="butt" stroke-miterlimit="10" stroke-linejoin="miter" fill="none" stroke="#ff0000" d="M3526.18 10144.8 3524.84 10150 3520.81 10155.2 3514.12 10160.4 3504.79 10165.5 3492.86 10170.5 3478.38 10175.5 3461.41 10180.2 3442.01 10184.9 3420.27 10189.4 3396.29 10193.7 3370.14 10197.8 3341.95 10201.6 3311.83 10205.3 3279.9 10208.7 3246.3 10211.8 3211.16 10214.7 3174.62 10217.3 3136.84 10219.5 3097.98 10221.5 3058.18 10223.2 3017.62 10224.5 2976.46 10225.5 2934.87 10226.2 2893.03 10226.5H2851.1L2809.25 10226.2 2767.67 10225.5 2726.51 10224.5 2685.95 10223.1 2646.16 10221.5 2607.29 10219.5 2569.51 10217.3 2532.98 10214.7 2497.83 10211.8 2464.23 10208.7 2432.3 10205.3 2402.18 10201.7 2373.99 10197.8 2347.85 10193.7 2323.86 10189.4 2302.12 10184.9 2282.73 10180.2 2265.75 10175.5 2251.27 10170.5 2239.34 10165.5 2230.01 10160.4 2223.32 10155.2 2219.29 10150 2217.95 10144.8"/>
<path transform="matrix(.0871985,.041007203,0,-.071794208,-188.46613,646.3615)" stroke-width="9.57941" stroke-linecap="butt" stroke-dasharray="47.4632,28.4779,0,0" stroke-miterlimit="10" stroke-linejoin="miter" fill="none" stroke="#ff0000" d="M2217.95 10144.8 2219.29 10139.5 2223.32 10134.3 2230.01 10129.1 2239.34 10124 2251.27 10119 2265.75 10114.1 2282.73 10109.3 2302.12 10104.6 2323.86 10100.2 2347.85 10095.9 2373.99 10091.8 2402.18 10087.9 2432.3 10084.2 2464.23 10080.8 2497.83 10077.7 2532.98 10074.8 2569.51 10072.3 2607.29 10070 2646.16 10068 2685.95 10066.4 2726.51 10065.1 2767.67 10064.1 2809.25 10063.4 2851.1 10063H2893.03L2934.87 10063.4 2976.46 10064 3017.62 10065.1 3058.18 10066.4 3097.97 10068 3136.84 10070 3174.62 10072.3 3211.15 10074.8 3246.3 10077.7 3279.9 10080.8 3311.83 10084.2 3341.95 10087.9 3370.14 10091.8 3396.28 10095.9 3420.27 10100.2 3442.01 10104.6 3461.4 10109.3 3478.38 10114.1 3492.86 10119 3504.79 10124 3514.12 10129.1 3520.81 10134.3 3524.84 10139.5 3526.18 10144.8"/>
<use data-text="b" xlink:href="#font_2_2" transform="matrix(7.97011,0,0,-7.97011,13.976868,61.28351)"/>
<use data-text="=" xlink:href="#font_3_1" transform="matrix(7.97011,0,0,-7.97011,19.976868,61.28351)"/>
<use data-text="&#x03b7;" xlink:href="#font_2_5" transform="matrix(7.97011,0,0,-7.97011,28.856949,61.28351)"/>
<use data-text="a" xlink:href="#font_2_1" transform="matrix(7.97011,0,0,-7.97011,34.856935,61.28351)"/>
<use data-text="a" xlink:href="#font_2_1" transform="matrix(7.97011,0,0,-7.97011,124.335849,65.82764)"/>
<use data-text="c" xlink:href="#font_2_3" transform="matrix(7.97011,0,0,-7.97011,76.147159,31.812012)"/>
<use data-text="=" xlink:href="#font_3_1" transform="matrix(7.97011,0,0,-7.97011,82.147159,31.812012)"/>
<use data-text="&#x03c9;" xlink:href="#font_2_4" transform="matrix(7.97011,0,0,-7.97011,91.147159,31.812012)"/>
<use data-text="a" xlink:href="#font_2_1" transform="matrix(7.97011,0,0,-7.97011,98.10733,31.812012)"/>
</g>
</svg>
