<svg xmlns="http://www.w3.org/2000/svg" xmlns:xlink="http://www.w3.org/1999/xlink" xmlns:inkscape="http://www.inkscape.org/namespaces/inkscape" version="1.1" width="141.40727" height="143.05005" viewBox="0 0 141.40727 143.05005">
<defs>
<clipPath id="clip_1">
<path transform="matrix(1,0,0,-1,-176.03179,663.35586)" d="M176.03179 520.3058H317.43907V663.35586H176.03179Z" clip-rule="evenodd"/>
</clipPath>
<clipPath id="clip_2">
<path transform="matrix(.1,0,0,-.1,-176.03179,663.35586)" d="M0 0"/>
</clipPath>
<clipPath id="clip_3">
<path transform="matrix(.1,0,0,-.1,-176.03179,663.35586)" d="M0 0"/>
</clipPath>
<clipPath id="clip_4">
<path transform="matrix(.1,0,0,-.1,-176.03179,663.35586)" d="M0 0"/>
</clipPath>
<path id="font_5_1" d="M.08799744 .059265138C.084991458 .044265748 .07899475 .021255494 .07899475 .01625061 .07899475-.0017547608 .09298706-.0107421879 .10798645-.0107421879 .11999512-.0107421879 .13798523-.002746582 .14498902 .01725769 .14698792 .021255494 .18099976 .15730286 .18499756 .17530823 .19299317 .20831299 .21099854 .27833558 .21699524 .30534364 .22099304 .31835938 .24899292 .36535646 .272995 .38734437 .2809906 .39434815 .30999757 .42037965 .35299684 .42037965 .3789978 .42037965 .3939972 .4083557 .394989 .4083557 .36499024 .40335084 .34298707 .37934876 .34298707 .35334779 .34298707 .33735658 .35398866 .31835938 .3809967 .31835938 .4079895 .31835938 .43598939 .34135438 .43598939 .37734986 .43598939 .41235353 .4039917 .4423828 .35299684 .4423828 .28799439 .4423828 .24398804 .39335633 .22499085 .36535646 .21699524 .4103546 .18099976 .4423828 .13398743 .4423828 .08799744 .4423828 .068984989 .40335084 .05999756 .38534547 .041992189 .35134889 .0289917 .29133607 .0289917 .28834535 .0289917 .27833558 .038986207 .27833558 .040985109 .27833558 .050994874 .27833558 .051986696 .27934266 .057998659 .30134584 .07499695 .37234498 .09498596 .42037965 .1309967 .42037965 .147995 .42037965 .1619873 .41235353 .1619873 .37435914 .1619873 .35334779 .15899658 .3423462 .1459961 .29034425L.08799744 .059265138Z"/>
<path id="font_5_5" d="M.43699647 .67033389C.43699647 .67233279 .43998719 .68333438 .43998719 .6843262 .43998719 .68533328 .43998719 .69433596 .42799378 .69433596 .41799928 .69433596 .4169922 .69132998 .41299439 .67433169L.35499574 .44337464C.19599915 .43836976 .04899597 .30532838 .04899597 .169281 .04899597 .07424927 .11898804-.004776001 .24099732-.011779785 .23298645-.04283142 .22599793-.07489014 .21798706-.10594177 .20599365-.1530304 .19599915-.19108582 .19599915-.1940918 .19599915-.2040863 .20298767-.20507813 .20799256-.20507813 .21299744-.20507813 .21499634-.2040863 .21798706-.20108032 .21998596-.19908142 .22599793-.17506409 .22898865-.16104126L.2669983-.011779785C.42799378-.0067749025 .57299807 .12826538 .57299807 .26231385 .57299807 .3413391 .519989 .43338014 .3809967 .44337464L.43699647 .67033389M.24598694 .010223389C.18598938 .01322937 .11399841 .048233034 .11399841 .14826966 .11399841 .2683258 .19999695 .40837098 .34899903 .42137147L.24598694 .010223389M.375 .42137147C.45098878 .41737367 .5079956 .37135316 .5079956 .2833252 .5079956 .1652832 .42199708 .022232056 .27198792 .010223389L.375 .42137147Z"/>
<path id="font_5_3" d="M.45498658 .5001831C.45498658 .56614688 .43699647 .7050781 .33499146 .7050781 .19599915 .7050781 .041992189 .42323304 .041992189 .19425965 .041992189 .100250247 .070999149-.0107421879 .1619873-.0107421879 .30299378-.0107421879 .45498658 .27627564 .45498658 .5001831M.147995 .36328126C.16499329 .42723084 .18499756 .5071869 .22499085 .57814028 .2519989 .6271057 .2889862 .68307498 .33399964 .68307498 .3829956 .68307498 .3889923 .6191101 .3889923 .56214907 .3889923 .5131836 .3809967 .46220399 .35699464 .36328126H.147995M.34799195 .3312683C.33699037 .28527833 .31599427 .2002716 .27799989 .12826538 .24299622 .060256959 .20498657 .011245728 .1619873 .011245728 .1289978 .011245728 .10798645 .040252687 .10798645 .133255 .10798645 .17526245 .11399841 .23326111 .13999939 .3312683H.34799195Z"/>
<path id="font_5_2" d="M.33399964 .30233766C.33999635 .32835389 .36299134 .42037965 .43299867 .42037965 .43798829 .42037965 .46199037 .42037965 .48298646 .40734864 .45498658 .402359 .43499757 .37734986 .43499757 .35334779 .43499757 .33735658 .44599916 .31835938 .47299195 .31835938 .49499513 .31835938 .5269928 .3363495 .5269928 .37635804 .5269928 .42837525 .46798707 .4423828 .43399049 .4423828 .37599183 .4423828 .34098817 .38935853 .32899476 .36634828 .3039856 .43237306 .25 .4423828 .22099304 .4423828 .116989139 .4423828 .05999756 .3133545 .05999756 .28834535 .05999756 .27833558 .069992069 .27833558 .07199097 .27833558 .07998657 .27833558 .08299255 .28033448 .084991458 .28933717 .11898804 .39535523 .18499756 .42037965 .21899414 .42037965 .23799134 .42037965 .272995 .4113617 .272995 .35334779 .272995 .32235719 .2559967 .25532533 .21899414 .11528015 .20298767 .053268434 .16799927 .011245728 .12399292 .011245728 .117996219 .011245728 .09498596 .011245728 .07398987 .024276734 .09899902 .029266358 .12098694 .05027771 .12098694 .07827759 .12098694 .105270389 .09899902 .11328125 .083999637 .11328125 .053985597 .11328125 .0289917 .08728027 .0289917 .055267335 .0289917 .009246826 .07899475-.0107421879 .12298584-.0107421879 .18899536-.0107421879 .22499085 .059280397 .22799683 .0652771 .23999024 .028274537 .27598573-.0107421879 .33599855-.0107421879 .43899537-.0107421879 .49598695 .118270877 .49598695 .14328003 .49598695 .1532898 .4869995 .1532898 .48399354 .1532898 .47499085 .1532898 .47299195 .14929199 .47099305 .14228821 .43798829 .03527832 .36999513 .011245728 .33799745 .011245728 .29899598 .011245728 .2829895 .043273927 .2829895 .07727051 .2829895 .09927368 .2889862 .121276859 .2999878 .16529846L.33399964 .30233766Z"/>
<path id="font_6_1" d="M.31399537 .63708499C.31399537 .664032 .31199647 .66503909 .2849884 .66503909 .24398804 .6251831 .19099427 .6013489 .09599304 .6013489V.5683594C.12298584 .5683594 .1769867 .5683594 .23498535 .5953522V.08203125C.23498535 .04499817 .23199463 .032989503 .13699341 .032989503H.101989749V0C.14299011 .0029907227 .22898865 .0029907227 .27398683 .0029907227 .31900025 .0029907227 .4059906 .0029907227 .44699098 0V.032989503H.4119873C.31698609 .032989503 .31399537 .04499817 .31399537 .08203125V.63708499Z"/>
<path id="font_6_2" d="M.28199769 .20405579C.2979889 .21907044 .33999635 .2520752 .35598756 .26608277 .41799928 .32312013 .47698976 .3781433 .47698976 .46917726 .47698976 .588089 .3769989 .66503909 .2519989 .66503909 .13198853 .66503909 .052993776 .57411196 .052993776 .48516847 .052993776 .4361725 .09199524 .4291687 .10598755 .4291687 .1269989 .4291687 .1579895 .4441681 .1579895 .48217774 .1579895 .5341797 .10798645 .5341797 .09599304 .5341797 .125 .6070709 .19198609 .6320343 .24099732 .6320343 .33399964 .6320343 .38198854 .55314639 .38198854 .46917726 .38198854 .36514283 .30899049 .28910829 .19099427 .16804505L.06498718 .037994386C.052993776 .026992798 .052993776 .024993897 .052993776 0H.44799806L.47698976 .17904663H.44599916C.44299317 .1590271 .43499757 .10900879 .4229889 .08999634 .4169922 .08198547 .34098817 .08198547 .32499696 .08198547H.14698792L.28199769 .20405579Z"/>
<path id="font_6_3" d="M.25299073 .33370973C.33198548 .33370973 .38198854 .27557374 .38198854 .17037964 .38198854 .045440675 .31098939 .008514404 .2579956 .008514404 .20298767 .008514404 .12799073 .0284729 .09298706 .08137512 .1289978 .08137512 .1539917 .10437012 .1539917 .13737488 .1539917 .16937256 .1309967 .19238281 .09899902 .19238281 .07199097 .19238281 .04399109 .17536927 .04399109 .13537598 .04399109 .04045105 .1459961-.021484375 .2599945-.021484375 .3929901-.021484375 .48599244 .070388797 .48599244 .17037964 .48599244 .25352479 .41999818 .32969667 .31799317 .3517456 .39698792 .37982179 .45599366 .4479828 .45599366 .52804568 .45599366 .6080475 .3659973 .66503909 .2619934 .66503909 .15499878 .66503909 .07398987 .6070404 .07398987 .53105166 .07398987 .49404908 .09899902 .4780426 .125 .4780426 .1559906 .4780426 .17599488 .5000458 .17599488 .52905276 .17599488 .56604006 .14399719 .5800476 .12199402 .5810547 .1639862 .6360321 .24099732 .6390381 .25898744 .6390381 .2849884 .6390381 .36099244 .6310272 .36099244 .52804568 .36099244 .45799256 .33198548 .41589356 .31799317 .39985658 .28799439 .36878968 .2649994 .36679078 .20399475 .3627777 .18499756 .36177064 .1769867 .36076356 .1769867 .3477478 .1769867 .33370973 .18598938 .33370973 .20298767 .33370973H.25299073Z"/>
<path id="font_7_1" d="M.22200012 .21789551C.2889862 .21789551 .35398866 .22389221 .3959961 .23789978 .48098756 .266922 .49499513 .32400514 .49499513 .35604859 .49499513 .4141388 .43998719 .45214845 .35798646 .45214845 .1769867 .45214845 .04899597 .3270111 .04899597 .17196656 .04899597 .057144166 .12599182-.0078125 .2579956-.0078125 .28399659-.0078125 .35299684-.0068206789 .41299439 .016174317 .47099305 .03916931 .5109863 .08010864 .5109863 .09208679 .5109863 .10006714 .49499513 .11804199 .48599244 .11804199 .47999574 .11804199 .47799684 .11505127 .47099305 .107055667 .4169922 .05014038 .33898927 .028182984 .26098634 .028182984 .18899536 .028182984 .16299439 .068115238 .16299439 .12503052 .16299439 .14401245 .16699219 .17695618 .17799378 .21789551H.22200012M.18699646 .25390626C.20498657 .3270111 .22898865 .35404969 .24598694 .3700714 .2809906 .40512086 .32699586 .4161377 .35798646 .4161377 .3939972 .4161377 .43499757 .40011598 .43499757 .35505677 .43499757 .25390626 .28399659 .25390626 .18699646 .25390626Z"/>
<path id="font_8_1" d="M.19299317 .1382904C.20399475 .18132019 .21499634 .22433472 .22499085 .26835633 .22599793 .27035523 .23298645 .29937745 .23399353 .30438233 .23699951 .313385 .2619934 .35438539 .28799439 .37937928 .31999208 .40838624 .35398866 .4133911 .37199403 .4133911 .3829956 .4133911 .40098573 .4123993 .4149933 .40039063 .37199403 .39138795 .3659973 .35438539 .3659973 .3453827 .3659973 .32337953 .3829956 .30838014 .40499879 .30838014 .43199159 .30838014 .46199037 .3303833 .46199037 .3703766 .46199037 .40638734 .43099977 .44140626 .37399293 .44140626 .30599977 .44140626 .2599945 .39637757 .23899842 .36938478 .21899414 .44140626 .15098572 .44140626 .14099121 .44140626 .10499573 .44140626 .07998657 .418396 .06399536 .38739015 .040985109 .3423767 .02999878 .29136659 .02999878 .28837586 .02999878 .27937318 .036987306 .2753601 .04499817 .2753601 .057998659 .2753601 .05899048 .27937318 .06599426 .30537416 .07798767 .35438539 .09599304 .4133911 .13798523 .4133911 .1639862 .4133911 .16999817 .38838197 .16999817 .36637879 .16999817 .34838868 .16499329 .32937623 .15699768 .29637147 .15499878 .28837586 .13999939 .2293396 .13598633 .21533203L.09899902 .06526184C.09498596 .050247194 .08898926 .025238038 .08898926 .021224976 .08898926-.0017700195 .10798645-.009765625 .12098694-.009765625 .1559906-.009765625 .16299439 .018234253 .17098999 .052246095L.19299317 .1382904Z"/>
<path id="font_8_2" d="M.47898866 .4910736C.47898866 .61608889 .43099977 .70410159 .34799195 .70410159 .19898987 .70410159 .04399109 .42607118 .04399109 .20314026 .04399109 .107177738 .07699585-.009765625 .17599488-.009765625 .32199098-.009765625 .47898866 .2611084 .47898866 .4910736M.1559906 .3640747C.20298767 .5660858 .2849884 .6760864 .34700013 .6760864 .40699769 .6760864 .40699769 .5690918 .40699769 .55007937 .40699769 .4940796 .3889923 .41307069 .3769989 .3640747H.1559906M.36799623 .33007813C.32099916 .12916565 .23899842 .018234253 .1769867 .018234253 .12298584 .018234253 .116989139 .09819031 .116989139 .14416504 .116989139 .20713806 .13598633 .28808595 .14698792 .33007813H.36799623Z"/>
<path id="font_8_3" d="M.46199037 .68133547C.46199037 .69332888 .45098878 .69433596 .44599916 .69433596 .43299867 .69433596 .43199159 .688324 .42799378 .67233279L.37098695 .44337464C.19400025 .43537904 .050994874 .3023529 .050994874 .1723175 .050994874 .072280887 .13798523-.005722046 .25698854-.010726929 .24899292-.041793825 .24198914-.0738678 .23399353-.10493469 .22200012-.15203858 .21299744-.18910218 .21299744-.19210816 .21299744-.19311524 .21299744-.20410156 .22799683-.20410156 .24099732-.20410156 .24198914-.19911194 .24699402-.18009949L.2889862-.01171875C.46598817-.0027313233 .60798647 .1282959 .60798647 .2583313 .60798647 .3733673 .5069885 .43836976 .40299989 .4423828L.46199037 .68133547M.3959961 .41537477C.46998597 .40937806 .5369873 .3693695 .5369873 .27633668 .5369873 .18132019 .46798707 .03427124 .29599 .01727295L.3959961 .41537477M.2639923 .016281128C.23199463 .01828003 .12298584 .03427124 .12298584 .15530396 .12298584 .2623291 .20298767 .3993683 .36299134 .41436769L.2639923 .016281128Z"/>
<path id="font_5_4" d="M.48199464 .66833499C.48298646 .67233279 .4850006 .67832949 .4850006 .68333438 .4850006 .69332888 .47799684 .69433596 .47299195 .69433596 .46299745 .69433596 .46199037 .6923218 .45799256 .67433169L.2919922 .013244629C.21598816 .022247315 .17799378 .059265138 .17799378 .12528992 .17799378 .14529419 .17799378 .17129517 .23199463 .31134034 .23599243 .323349 .24299622 .3403473 .24299622 .36035157 .24299622 .405365 .21099854 .4423828 .16099549 .4423828 .06599426 .4423828 .0289917 .29733277 .0289917 .28833009 .0289917 .27833558 .038986207 .27833558 .040985109 .27833558 .050994874 .27833558 .051986696 .28033448 .056991579 .29634095 .083999637 .39135743 .12399292 .42037965 .1579895 .42037965 .1659851 .42037965 .18299866 .42037965 .18299866 .3883667 .18299866 .36235047 .17298889 .3373413 .1599884 .30233766 .11199951 .17630005 .11199951 .15029907 .11199951 .13328552 .11199951 .038253786 .18998719-.002746582 .28599549-.008743286 .27799989-.044815065 .27799989-.046813966 .2639923-.09992981 .26098634-.110946658 .24099732-.1920929 .24099732-.19508362 .24099732-.1960907 .24099732-.20507813 .25299073-.20507813 .25498963-.20507813 .2599945-.20507813 .2619934-.20108032 .2649994-.19908142 .2709961-.17407227 .27398683-.16003418L.31199647-.0107421879C.34899903-.0107421879 .43699647-.0107421879 .5309906 .09628296 .57199099 .14228821 .59298709 .18630982 .60398867 .2163086 .61299136 .24131775 .6349945 .32833863 .6349945 .37236024 .6349945 .42837525 .60798647 .4423828 .59098818 .4423828 .56599429 .4423828 .54100039 .41636659 .54100039 .3943634 .54100039 .38136292 .5469971 .3753662 .55599978 .36735536 .5669861 .35635377 .59199526 .33035279 .59199526 .28233338 .59199526 .2183075 .5399933 .1362915 .5049896 .10028076 .4169922 .011245728 .35299684 .011245728 .31698609 .011245728L.48199464 .66833499Z"/>
</defs>
<g clip-path="url(#clip_1)">
<path transform="matrix(.1,0,0,-.1,-176.03179,663.35586)" d="M3057.78 5554.57 3109.07 5557.32 3064.61 5567.06 3080.34 5559.42"/>
<path transform="matrix(-.0244174,.0445798,.122087,.00891596,-176.03179,663.35586)" stroke-width="8.00182" stroke-linecap="butt" stroke-linejoin="round" fill="none" stroke="#000000" d="M-12476.3-768.29V27.8198"/>
<path transform="matrix(.1,0,0,-.1,-176.03179,663.35586)" d="M1900.75 5283.74 1908.27 5265.01 1934.94 5281.24 1914.01 5275.5"/>
<path transform="matrix(-.0244174,.0445798,.122087,.00891596,-176.03179,663.35586)" stroke-width="8.00182" stroke-linecap="butt" stroke-linejoin="round" fill="none" stroke="#000000" d="M-12476.3-768.29-11680.2-768.287"/>
<path transform="matrix(-.0244174,.0445798,.122087,.00891596,-176.03179,663.35586)" stroke-width="8.00182" stroke-linecap="butt" stroke-linejoin="round" fill="none" stroke="#b11116" d="M-11793.2-768.288C-11793.2-391.066-12099.1-85.2593-12476.3-85.2622"/>
<path transform="matrix(.1,0,0,-.1,-176.03179,663.35586)" d="M2125.5 6533.72 2108.4 6580.42 2091.3 6536.22 2108.4 6553.15"/>
<path transform="matrix(.0988917,.00722202,0,-.0938863,-176.03179,663.35586)" stroke-width="9.87866" stroke-linecap="butt" stroke-linejoin="round" fill="none" stroke="#000000" d="M2132.03 6161.04V7143.88"/>
<path transform="matrix(.0988917,.00722202,0,-.0938863,-176.03179,663.35586)" stroke-width="9.87866" stroke-linecap="butt" stroke-linejoin="round" fill="none" stroke="#b11116" d="M2975.27 6161.04C2975.27 6626.75 2597.73 7004.28 2132.03 7004.28"/>
<path transform="matrix(-.026410802,.0482192,0,-.12537001,-176.03179,663.35586)" stroke-width="7.39787" stroke-linecap="butt" stroke-linejoin="round" fill="none" stroke="#b11116" d="M-7351.63 1420.6C-7351.63 1769.36-7634.36 2052.08-7983.1 2052.08"/>
<path transform="matrix(.061996,.0339566,0,-.104047,-176.03179,663.35586)" stroke-width="8.91393" stroke-linecap="butt" stroke-dasharray="44.934,26.9604,0,0" stroke-miterlimit="10" stroke-linejoin="miter" fill="none" stroke="#b11116" d="M4161.75 6521.28V6531.14L4160.75 6560.43 4157.82 6599.07 4152.98 6637.15 4146.29 6674.62 4137.79 6711.43 4127.54 6747.54 4115.58 6782.89 4101.95 6817.44 4086.71 6851.15 4069.91 6883.95 4051.59 6915.82 4031.79 6946.69 4010.58 6976.52 3987.99 7005.26 3964.08 7032.87 3938.88 7059.3 3912.46 7084.49 3884.85 7108.41 3856.11 7131 3826.27 7152.21 3795.41 7172 3763.54 7190.32 3730.74 7207.13 3697.03 7222.36 3662.47 7235.99 3627.12 7247.95 3591.02 7258.2 3554.21 7266.7 3516.74 7273.39 3478.65 7278.23 3440.02 7281.17 3410.82 7282.16H3400.86"/>
<g clip-path="url(#clip_2)">
</g>
<path transform="matrix(.1,0,0,-.1,-176.03179,663.35586)" d="M2248.78 5852.55 2275.18 5818.95 2261.98 5869.06 2263.3 5844.07" fill="#b11116"/>
<path transform="matrix(.061996,.0339566,0,-.104047,-176.03179,663.35586)" stroke-width="8.91393" stroke-linecap="butt" stroke-linejoin="round" fill="none" stroke="#b11116" d="M3400.86 6901.72C3493.09 6901.72 3582.19 6868.21 3651.57 6807.43"/>
<path transform="matrix(.061996,.0339566,0,-.104047,-176.03179,663.35586)" stroke-width="8.91393" stroke-linecap="butt" stroke-dasharray="44.758,26.8548,0,0" stroke-linejoin="round" fill="none" stroke="#b11116" d="M3400.86 6521.28H4161.75"/>
<path transform="matrix(.061996,.0339566,0,-.104047,-176.03179,663.35586)" stroke-width="8.91393" stroke-linecap="butt" stroke-dasharray="44.7513,26.8508,0,0" stroke-linejoin="round" fill="none" stroke="#b11116" d="M3400.86 6521.28 3938.81 7059.22"/>
<path transform="matrix(.1,0,0,-.1,-176.03179,663.35586)" d="M2511.63 6040.37 2536.25 6114.11 2484.28 6101.26 2513.27 6088.14" fill="#211d70"/>
<path transform="matrix(.061996,.0339566,0,-.104047,-176.03179,663.35586)" stroke-width="8.91393" stroke-linecap="butt" stroke-linejoin="round" fill="none" stroke="#211d70" d="M3938.81 7059.22 4053.92 7174.34"/>
<g clip-path="url(#clip_3)">
</g>
<path transform="matrix(.1,0,0,-.1,-176.03179,663.35586)" d="M2311.9 5486.43 2344.26 5501.21 2293.57 5497.26 2319.34 5495.59" fill="#b11116"/>
<path transform="matrix(-.0244174,.0445798,.122087,.00891596,-176.03179,663.35586)" stroke-width="8.00182" stroke-linecap="butt" stroke-linejoin="round" fill="none" stroke="#b11116" d="M-12134.8-768.286C-12134.8-685.496-12164.8-605.516-12219.4-543.241"/>
<path transform="matrix(-.0244174,.0445798,.122087,.00891596,-176.03179,663.35586)" stroke-width="8.00182" stroke-linecap="butt" stroke-dasharray="40.7834,24.4701,0,0" stroke-miterlimit="10" stroke-linejoin="miter" fill="none" stroke="#b11116" d="M-13200.6-1009.74V-1003.5L-13201.3-984.891-13203.1-960.365-13206.2-936.198-13210.4-912.417-13215.8-889.054-13222.3-866.142-13229.9-843.702-13238.6-821.773-13248.2-800.383-13258.9-779.561-13270.5-759.34-13283.1-739.746-13296.6-720.814-13310.9-702.569-13326.1-685.047-13342.1-668.277-13358.8-652.286-13376.4-637.11-13394.6-622.772-13413.5-609.311-13433.1-596.751-13453.3-585.12-13474.2-574.458-13495.6-564.787-13517.5-556.14-13539.9-548.549-13562.8-542.043-13586.2-536.649-13610-532.402-13634.2-529.332-13658.7-527.467-13677.2-526.837-13683.5-526.838"/>
<path transform="matrix(.07179531,.0393268,.0257945,-.063083309,-176.03179,663.35586)" stroke-width="24.0251" stroke-linecap="butt" stroke-linejoin="round" fill="none" stroke="#211d70" d="M791.842 9512.74V9512.74C791.841 9789.25 429.954 10013.4-16.4482 10013.4-462.85 10013.4-824.738 9789.25-824.737 9512.74-824.736 9236.23-462.849 9012.06-16.4468 9012.06 429.955 9012.06 791.844 9236.23 791.842 9512.74Z"/>
<path transform="matrix(.07179531,.0393268,.0257945,-.063083309,-176.03179,663.35586)" stroke-width="12.0125" stroke-linecap="butt" stroke-linejoin="round" fill="none" stroke="#211d70" d="M-16.4497 9512.74H803.855"/>
<path transform="matrix(.0723538,-.0176132,-.0341053,-.0759276,-176.03179,663.35586)" stroke-width="11.4568" stroke-linecap="butt" stroke-dasharray="57.1526,34.2916,0,0" stroke-linejoin="round" fill="none" stroke="#211d70" d="M6404.24 6426.43V5546.27"/>
<g clip-path="url(#clip_4)">
</g>
<path transform="matrix(.1,0,0,-.1,-176.03179,663.35586)" d="M2808.31 5760.77 2810.04 5805.8 2778.52 5778.21 2800.06 5784.01" fill="#211d70"/>
<path transform="matrix(.0723538,-.0176132,-.0341053,-.0759276,-176.03179,663.35586)" stroke-width="11.4568" stroke-linecap="butt" stroke-linejoin="round" fill="none" stroke="#211d70" d="M6404.24 5937.45C6522.78 5937.45 6637.29 5980.52 6726.45 6058.63"/>
<path transform="matrix(.1,0,0,-.1,-176.03179,663.35586)" d="M2574.5 6005.91 2642.06 6056.14 2547.14 6066.8 2593.32 6044.27" fill="#211d70"/>
<path transform="matrix(.0723538,-.0176132,-.0341053,-.0759276,-176.03179,663.35586)" stroke-width="11.4568" stroke-linecap="butt" stroke-linejoin="round" fill="none" stroke="#211d70" d="M6404.24 6426.43 6613.43 6426.42"/>
<path transform="matrix(.1,0,0,-.1,-176.03179,663.35586)" d="M2468.97 5875.63 2536.28 5797.44 2527 5889.75 2513.3 5848.59" fill="#211d70"/>
<path transform="matrix(.0723538,-.0176132,-.0341053,-.0759276,-176.03179,663.35586)" stroke-width="11.4568" stroke-linecap="butt" stroke-linejoin="round" fill="none" stroke="#211d70" d="M6404.24 6426.43V6217.23"/>
<use data-text="r" xlink:href="#font_5_1" transform="matrix(10.9091,0,0,-10.9091,57.68022,79.483829)"/>
<use data-text="&#x03c6;" xlink:href="#font_5_5" transform="matrix(10.9091,0,0,-10.9091,38.371217,124.88385)"/>
<use data-text="&#x03b8;" xlink:href="#font_5_3" transform="matrix(10.9091,0,0,-10.9091,40.55208,61.197145)"/>
<use data-text="x" xlink:href="#font_5_2" transform="matrix(10.9091,0,0,-10.9091,17.80008,137.59247)"/>
<use data-text="1" xlink:href="#font_6_1" transform="matrix(7.97011,0,0,-7.97011,24.039917,139.27252)"/>
<use data-text="x" xlink:href="#font_5_2" transform="matrix(10.9091,0,0,-10.9091,127.93492,113.49982)"/>
<use data-text="2" xlink:href="#font_6_2" transform="matrix(7.97011,0,0,-7.97011,134.17516,115.179508)"/>
<use data-text="x" xlink:href="#font_5_2" transform="matrix(10.9091,0,0,-10.9091,37.359956,11.451538)"/>
<use data-text="3" xlink:href="#font_6_3" transform="matrix(7.97011,0,0,-7.97011,43.599794,13.131592)"/>
<use data-text="e" xlink:href="#font_7_1" transform="matrix(10.9091,0,0,-10.9091,72.0486,47.611696)"/>
<use data-text="r" xlink:href="#font_8_1" transform="matrix(7.97011,0,0,-7.97011,78.0486,49.291749)"/>
<use data-text="e" xlink:href="#font_7_1" transform="matrix(10.9091,0,0,-10.9091,79.029468,84.86792)"/>
<use data-text="&#x03b8;" xlink:href="#font_8_2" transform="matrix(7.97011,0,0,-7.97011,85.029468,86.66791)"/>
<use data-text="e" xlink:href="#font_7_1" transform="matrix(10.9091,0,0,-10.9091,82.62401,66.11713)"/>
<use data-text="&#x03c6;" xlink:href="#font_8_3" transform="matrix(7.97011,0,0,-7.97011,88.62401,67.917118)"/>
<use data-text="&#x03c8;" xlink:href="#font_5_4" transform="matrix(10.9091,0,0,-10.9091,102.840808,98.82373)"/>
</g>
</svg>
