<svg xmlns="http://www.w3.org/2000/svg" xmlns:xlink="http://www.w3.org/1999/xlink" xmlns:inkscape="http://www.inkscape.org/namespaces/inkscape" version="1.1" width="345.1394" height="205.30603" viewBox="0 0 345.1394 205.30603">
<defs>
<clipPath id="clip_1">
<path transform="matrix(1,0,0,-1,-45.3566,659.56906)" d="M45.3566 454.263H390.496V659.56906H45.3566Z" clip-rule="evenodd"/>
</clipPath>
</defs>
<g clip-path="url(#clip_1)">
<path transform="matrix(.1,0,0,-.1,-45.3566,659.56906)" d="M407.613 5205.34H3809.19" fill="#ffffff"/>
<path transform="matrix(.1,0,0,-.1,-45.3566,659.56906)" stroke-width="9.96264" stroke-linecap="butt" stroke-linejoin="round" fill="none" stroke="#000000" d="M407.613 5205.34H3809.19"/>
<path transform="matrix(.1,0,0,-.1,-45.3566,659.56906)" d="M407.613 5772.27H3809.19" fill="#ffffff"/>
<path transform="matrix(.1,0,0,-.1,-45.3566,659.56906)" stroke-width="9.96264" stroke-linecap="butt" stroke-linejoin="round" fill="none" stroke="#000000" d="M407.613 5772.27H3809.19"/>
<path transform="matrix(.1,0,0,-.1,-45.3566,659.56906)" d="M407.613 6339.19H3809.19" fill="#ffffff"/>
<path transform="matrix(.1,0,0,-.1,-45.3566,659.56906)" stroke-width="9.96264" stroke-linecap="butt" stroke-linejoin="round" fill="none" stroke="#000000" d="M407.613 6339.19H3809.19"/>
<path transform="matrix(.1,0,0,-.1,-45.3566,659.56906)" d="M2193.17 4785.23 2689.23 5644.43" fill="#ffffff"/>
<path transform="matrix(.1,0,0,-.1,-45.3566,659.56906)" stroke-width="9.96264" stroke-linecap="butt" stroke-linejoin="round" fill="none" stroke="#000000" d="M2193.17 4785.23 2689.23 5644.43"/>
<path transform="matrix(.1,0,0,-.1,-45.3566,659.56906)" d="M1527.57 5333.17 2023.63 6192.37" fill="#ffffff"/>
<path transform="matrix(.1,0,0,-.1,-45.3566,659.56906)" stroke-width="9.96264" stroke-linecap="butt" stroke-linejoin="round" fill="none" stroke="#000000" d="M1527.57 5333.17 2023.63 6192.37"/>
<path transform="matrix(.1,0,0,-.1,-45.3566,659.56906)" d="M1475.69 5526.78 2457.64 4959.85" fill="#ffffff"/>
<path transform="matrix(.1,0,0,-.1,-45.3566,659.56906)" stroke-width="9.96264" stroke-linecap="butt" stroke-linejoin="round" fill="none" stroke="#000000" d="M1475.69 5526.78 2457.64 4959.85"/>
<path transform="matrix(.1,0,0,-.1,-45.3566,659.56906)" d="M1759.16 6017.75 2741.11 5450.82" fill="#ffffff"/>
<path transform="matrix(.1,0,0,-.1,-45.3566,659.56906)" stroke-width="9.96264" stroke-linecap="butt" stroke-linejoin="round" fill="none" stroke="#000000" d="M1759.16 6017.75 2741.11 5450.82"/>
<path transform="matrix(.1,0,0,-.1,-45.3566,659.56906)" d="M2958.79 4856.09 3454.86 5715.3" fill="#ffffff"/>
<path transform="matrix(.1,0,0,-.1,-45.3566,659.56906)" stroke-width="9.96264" stroke-linecap="butt" stroke-linejoin="round" fill="none" stroke="#000000" d="M2958.79 4856.09 3454.86 5715.3"/>
<path transform="matrix(.1,0,0,-.1,-45.3566,659.56906)" d="M2391.86 5706.48 2887.93 6565.69" fill="#ffffff"/>
<path transform="matrix(.1,0,0,-.1,-45.3566,659.56906)" stroke-width="9.96264" stroke-linecap="butt" stroke-linejoin="round" fill="none" stroke="#000000" d="M2391.86 5706.48 2887.93 6565.69"/>
<path transform="matrix(.1,0,0,-.1,-45.3566,659.56906)" d="M1258.01 4572.63 1754.07 5431.84" fill="#ffffff"/>
<path transform="matrix(.1,0,0,-.1,-45.3566,659.56906)" stroke-width="9.96264" stroke-linecap="butt" stroke-linejoin="round" fill="none" stroke="#000000" d="M1258.01 4572.63 1754.07 5431.84"/>
<path transform="matrix(.1,0,0,-.1,-45.3566,659.56906)" d="M691.078 5423.02 1187.14 6282.23" fill="#ffffff"/>
<path transform="matrix(.1,0,0,-.1,-45.3566,659.56906)" stroke-width="9.96264" stroke-linecap="butt" stroke-linejoin="round" fill="none" stroke="#000000" d="M691.078 5423.02 1187.14 6282.23"/>
<path transform="matrix(.1,0,0,-.1,-45.3566,659.56906)" d="M691.078 4856.09 1187.14 5715.3" fill="#ffffff"/>
<path transform="matrix(.1,0,0,-.1,-45.3566,659.56906)" stroke-width="9.96264" stroke-linecap="butt" stroke-linejoin="round" fill="none" stroke="#000000" d="M691.078 4856.09 1187.14 5715.3"/>
<path transform="matrix(.1,0,0,-.1,-45.3566,659.56906)" d="M2467.82 6055.73 3449.77 5488.8" fill="#ffffff"/>
<path transform="matrix(.1,0,0,-.1,-45.3566,659.56906)" stroke-width="9.96264" stroke-linecap="butt" stroke-linejoin="round" fill="none" stroke="#000000" d="M2467.82 6055.73 3449.77 5488.8"/>
<path transform="matrix(.1,0,0,-.1,-45.3566,659.56906)" d="M767.031 5488.8 1748.98 4921.87" fill="#ffffff"/>
<path transform="matrix(.1,0,0,-.1,-45.3566,659.56906)" stroke-width="9.96264" stroke-linecap="butt" stroke-linejoin="round" fill="none" stroke="#000000" d="M767.031 5488.8 1748.98 4921.87"/>
<path transform="matrix(.1,0,0,-.1,-45.3566,659.56906)" d="M483.566 6339.19 1465.52 5772.27" fill="#ffffff"/>
<path transform="matrix(.1,0,0,-.1,-45.3566,659.56906)" stroke-width="9.96264" stroke-linecap="butt" stroke-linejoin="round" fill="none" stroke="#000000" d="M483.566 6339.19 1465.52 5772.27"/>
<path transform="matrix(.1,0,0,-.1,-45.3566,659.56906)" d="M2893.02 6480.93 3874.96 5914" fill="#ffffff"/>
<path transform="matrix(.1,0,0,-.1,-45.3566,659.56906)" stroke-width="9.96264" stroke-linecap="butt" stroke-linejoin="round" fill="none" stroke="#000000" d="M2893.02 6480.93 3874.96 5914"/>
<path transform="matrix(.1,0,0,-.1,-45.3566,659.56906)" d="M2326.09 5347.07 3308.04 4780.14" fill="#ffffff"/>
<path transform="matrix(.1,0,0,-.1,-45.3566,659.56906)" stroke-width="9.96264" stroke-linecap="butt" stroke-linejoin="round" fill="none" stroke="#000000" d="M2326.09 5347.07 3308.04 4780.14"/>
<path transform="matrix(.1,0,0,-.1,-45.3566,659.56906)" stroke-width="29.8879" stroke-linecap="butt" stroke-dasharray="48.1095,28.8657,0,0" stroke-dashoffset="24.9066" stroke-miterlimit="10" stroke-linejoin="miter" fill="none" stroke="#b11116" d="M2504.67 5382.62V5382.62L2506.45 5389.25 2509.73 5409.68 2510.63 5437.04 2507.52 5464.52 2500.58 5491.92 2489.97 5519.06 2475.85 5545.77 2458.39 5571.85 2437.75 5597.12 2414.09 5621.4 2387.59 5644.51 2358.39 5666.25 2326.68 5686.46 2292.61 5704.93 2256.35 5721.5 2218.05 5735.98 2188.02 5745.46 2177.9 5748.17 2167.77 5750.88 2137.02 5757.69 2096.62 5764.3 2056.93 5768.08 2018.19 5769.12 1980.62 5767.48 1944.46 5763.24 1909.96 5756.48 1877.33 5747.28 1846.82 5735.71 1818.66 5721.86 1793.08 5705.79 1770.32 5687.59 1750.61 5667.33 1734.18 5645.09 1721.27 5620.95 1713.9 5601.61 1712.13 5594.98 1710.35 5588.35 1707.06 5567.91 1706.17 5540.55 1709.27 5513.07 1716.21 5485.68 1726.83 5458.53 1740.95 5431.83 1758.41 5405.75 1779.05 5380.48 1802.7 5356.2 1829.21 5333.09 1858.4 5311.34 1890.11 5291.14 1924.19 5272.66 1960.45 5256.1 1998.74 5241.62 2028.77 5232.14 2038.9 5229.43 2049.03 5226.71 2079.78 5219.91 2120.18 5213.3 2159.86 5209.52 2198.61 5208.48 2236.18 5210.12 2272.33 5214.36 2306.84 5221.12 2339.46 5230.32 2369.98 5241.88 2398.14 5255.73 2423.72 5271.8 2446.48 5290 2466.19 5310.26 2482.61 5332.5 2495.52 5356.64 2502.89 5375.98 2504.67 5382.62Z"/>
</g>
</svg>
