<svg xmlns="http://www.w3.org/2000/svg" xmlns:xlink="http://www.w3.org/1999/xlink" xmlns:inkscape="http://www.inkscape.org/namespaces/inkscape" version="1.1" width="230.5953" height="180.42688" viewBox="0 0 230.5953 180.42688">
<defs>
<clipPath id="clip_1">
<path transform="matrix(1,0,0,-1,-26.02615,1097.0919)" d="M26.02615 916.66506H256.62147V1097.0919H26.02615Z" clip-rule="evenodd"/>
</clipPath>
<path id="font_2_11" d="M.45999146 .31976319C.45999146 .39982606 .45498658 .47988893 .41999818 .5539398 .37399293 .65000918 .2919922 .6660156 .25 .6660156 .18998719 .6660156 .116989139 .64001467 .07598877 .54693606 .04399109 .47789 .038986207 .39982606 .038986207 .31976319 .038986207 .24472046 .042999269 .15464783 .083999637 .07859802 .1269989-.0024719239 .19999695-.022460938 .24899292-.022460938 .30299378-.022460938 .3789978-.0014648438 .4229889 .09359741 .45498658 .16265869 .45999146 .2407074 .45999146 .31976319M.24899292-.00047302247C.20999146-.00047302247 .15098572 .024551392 .1329956 .12062073 .12199402 .18066406 .12199402 .2727356 .12199402 .3317871 .12199402 .39582826 .12199402 .46188355 .12998963 .5159149 .14898682 .63500979 .22399903 .64401248 .24899292 .64401248 .28199769 .64401248 .34799195 .6259918 .36698915 .52693179 .3769989 .47088624 .3769989 .39482118 .3769989 .3317871 .3769989 .25672914 .3769989 .18867493 .3659973 .12461853 .35099793 .029556275 .2939911-.00047302247 .24899292-.00047302247Z"/>
<path id="font_2_15" d="M.44898988 .20022583C.44898988 .3193512 .36698915 .41944886 .25898744 .41944886 .21099854 .41944886 .16799927 .40345765 .13198853 .36842347V.5637665C.1519928 .5577698 .18499756 .55078127 .21699524 .55078127 .33999635 .55078127 .4099884 .6417694 .4099884 .6547699 .4099884 .6607666 .40699769 .6657715 .3999939 .6657715 .39898683 .6657715 .39698792 .6657715 .3919983 .66278079 .37199403 .6537781 .32299806 .6337738 .2559967 .6337738 .21598816 .6337738 .16999817 .6407776 .12298584 .6617737 .114990238 .66477969 .11299133 .66477969 .11099243 .66477969 .100997928 .66477969 .100997928 .6567688 .100997928 .6407776V.34439088C.100997928 .32637025 .100997928 .31835938 .114990238 .31835938 .12199402 .31835938 .12399292 .32136537 .12799073 .32736207 .13899231 .3433838 .17599488 .39746095 .25698854 .39746095 .30899049 .39746095 .33399964 .35139466 .34199525 .33337403 .35798646 .29632569 .3600006 .25727845 .3600006 .20722962 .3600006 .17222595 .3600006 .11222839 .33599855 .07035828 .31199647 .031463624 .2749939 .0055389406 .22898865 .0055389406 .1559906 .0055389406 .09899902 .058380128 .08198547 .11723328 .084991458 .1162262 .08799744 .115234378 .09899902 .115234378 .13198853 .115234378 .14898682 .14022827 .14898682 .16423035 .14898682 .18823242 .13198853 .21322632 .09899902 .21322632 .084991458 .21322632 .049987794 .20622254 .049987794 .16023255 .049987794 .07434082 .11898804-.022460938 .23098755-.022460938 .34700013-.022460938 .44898988 .073349 .44898988 .20022583Z"/>
<path id="font_2_12" d="M.2939911 .64004519C.2939911 .66400149 .2939911 .6660156 .2709961 .6660156 .20899964 .60227969 .12098694 .60227969 .08898926 .60227969V.57128909C.10899353 .57128909 .16799927 .57128909 .21998596 .5972748V.07902527C.21998596 .042999269 .21699524 .0309906 .1269989 .0309906H.09498596V0C.12998963 .0029907227 .21699524 .0029907227 .25698854 .0029907227 .29699708 .0029907227 .38398744 .0029907227 .4189911 0V.0309906H.3869934C.29699708 .0309906 .2939911 .041992189 .2939911 .07902527V.64004519Z"/>
<path id="font_2_13" d="M.1269989 .07699585 .23298645 .18003845C.3889923 .31811524 .44898988 .3721466 .44898988 .47216798 .44898988 .5860901 .35899354 .6660156 .23699951 .6660156 .12399292 .6660156 .049987794 .57411196 .049987794 .48516847 .049987794 .4291687 .099990848 .4291687 .102996829 .4291687 .11999512 .4291687 .15499878 .44117738 .15499878 .48217774 .15499878 .5081787 .13699341 .5341797 .101989749 .5341797 .09399414 .5341797 .09199524 .5341797 .08898926 .5331726 .11199951 .59806826 .1659851 .63500979 .22399903 .63500979 .31498719 .63500979 .35798646 .5541382 .35798646 .47216798 .35798646 .39215089 .30799867 .31311036 .25299073 .25108338L.06098938 .036987306C.049987794 .025985718 .049987794 .023986817 .049987794 0H.42099L.44898988 .17404175H.42399598C.4189911 .14402771 .4119873 .1000061 .4019928 .084991458 .394989 .07699585 .32899476 .07699585 .30699159 .07699585H.1269989Z"/>
<path id="font_2_14" d="M.2939911 .16503906V.07800293C.2939911 .041992189 .2919922 .0309906 .21798706 .0309906H.19699097V0C.23799134 .0029907227 .2899933 .0029907227 .33198548 .0029907227 .37399293 .0029907227 .4269867 .0029907227 .46798707 0V.0309906H.44699098C.37298585 .0309906 .37098695 .041992189 .37098695 .07800293V.16503906H.47099305V.19602967H.37098695V.65075686C.37098695 .67074587 .37098695 .6767578 .35499574 .6767578 .34599305 .6767578 .34298707 .6767578 .33499146 .66474917L.027999878 .19602967V.16503906H.2939911M.2999878 .19602967H.055999757L.2999878 .5688019V.19602967Z"/>
<path id="font_2_7" d="M.13198853 .327713V.35173036C.13198853 .6047821 .2559967 .64100649 .30699159 .64100649 .33099366 .64100649 .37298585 .634964 .394989 .6007538 .37998963 .6007538 .33999635 .6007538 .33999635 .5557556 .33999635 .524765 .3639984 .5097656 .38598634 .5097656 .4019928 .5097656 .43199159 .51875308 .43199159 .5577545 .43199159 .6178589 .3880005 .6660156 .30499269 .6660156 .1769867 .6660156 .041992189 .5367584 .041992189 .31570436 .041992189 .048553468 .1579895-.022460938 .25099183-.022460938 .3619995-.022460938 .45700074 .07156372 .45700074 .2036438 .45700074 .33070375 .36799623 .4267578 .25698854 .4267578 .18899536 .4267578 .1519928 .37573243 .13198853 .327713M.25099183 .0055389406C.18798828 .0055389406 .1579895 .06556702 .1519928 .080566409 .13398743 .127594 .13398743 .2076416 .13398743 .22564698 .13398743 .30369569 .1659851 .40374757 .2559967 .40374757 .27198792 .40374757 .31799317 .40374757 .34899903 .34172059 .36698915 .30470277 .36698915 .2536621 .36698915 .20463562 .36698915 .15661621 .36698915 .10658264 .34999085 .0705719 .31999208 .010528564 .27398683 .0055389406 .25099183 .0055389406Z"/>
<path id="font_2_8" d="M.16299439 .4569702C.116989139 .486969 .11299133 .52098086 .11299133 .5379791 .11299133 .598999 .17799378 .64100649 .24899292 .64100649 .32199098 .64100649 .38598634 .58898928 .38598634 .51698306 .38598634 .45996095 .34700013 .4119568 .2869873 .37695313L.16299439 .4569702M.30899049 .36193849C.3809967 .3989563 .42999269 .45095826 .42999269 .51698306 .42999269 .6090088 .34098817 .6660156 .25 .6660156 .1499939 .6660156 .068984989 .59199526 .068984989 .49897767 .068984989 .4809723 .070999149 .43595887 .11299133 .38894654 .12399292 .37695313 .16099549 .35194398 .18598938 .33494569 .12799073 .30592347 .041992189 .24984741 .041992189 .15072632 .041992189 .04458618 .14399719-.022460938 .24899292-.022460938 .3619995-.022460938 .45700074 .06060791 .45700074 .16773987 .45700074 .20379639 .44599916 .24885559 .4079895 .2909088 .3889923 .31193543 .37298585 .3219452 .30899049 .36193849M.20899964 .3199463 .33198548 .24183655C.3600006 .2228241 .40699769 .19277954 .40699769 .13169861 .40699769 .05760193 .33198548 .0055389406 .25 .0055389406 .1639862 .0055389406 .09199524 .067611698 .09199524 .15072632 .09199524 .20880127 .12399292 .27288819 .20899964 .3199463Z"/>
<path id="font_3_2" d="M.37399293 .6046295C.3829956 .64060977 .38598634 .6516113 .47999574 .6516113 .5099945 .6516113 .5179901 .6516113 .5179901 .6706085 .5179901 .6826172 .5069885 .6826172 .5019989 .6826172 .46899415 .6826172 .3869934 .6796112 .35398866 .6796112 .32398988 .6796112 .25099183 .6826172 .22099304 .6826172 .21398926 .6826172 .20199585 .6826172 .20199585 .6626129 .20199585 .6516113 .21099854 .6516113 .22999573 .6516113 .23199463 .6516113 .25099183 .6516113 .2679901 .6496124 .28599549 .6476135 .29499818 .64660647 .29499818 .6336212 .29499818 .6296234 .2939911 .62661746 .29100038 .614624L.15699768 .07795715C.14698792 .038986207 .14498902 .0309906 .06599426 .0309906 .04899597 .0309906 .038986207 .0309906 .038986207 .010986328 .038986207 0 .04798889 0 .06599426 0H.5289917C.5529938 0 .55400088 0 .55999758 .016998291L.6389923 .23286438C.6429901 .24386597 .6429901 .24586487 .6429901 .24685669 .6429901 .2508545 .6399994 .25785829 .6309967 .25785829 .621994 .25785829 .62098696 .2528534 .6139984 .23686219 .5799866 .14492798 .5359955 .0309906 .36299134 .0309906H.2689972C.25498963 .0309906 .25299073 .0309906 .24699402 .03199768 .23699951 .032989503 .23399353 .033996583 .23399353 .041992189 .23399353 .04498291 .23399353 .04698181 .23899842 .064971927L.37399293 .6046295Z"/>
<path id="font_4_1" d="M.31298829 .66430667C.31399537 .66630557 .31698609 .67930606 .31698609 .68029788 .31698609 .68530276 .31298829 .6943054 .30099488 .6943054 .2809906 .6943054 .19799805 .6863098 .17298889 .6843109 .16499329 .68330386 .15098572 .682312 .15098572 .66130068 .15098572 .64730837 .16499329 .64730837 .1769867 .64730837 .22499085 .64730837 .22499085 .64030459 .22499085 .63230898 .22499085 .62532046 .22299195 .61932376 .22099304 .61032107L.07998657 .04425049C.07499695 .026229859 .07499695 .024230957 .07499695 .022232056 .07499695 .007232666 .08699036-.009765625 .10899353-.009765625 .13598633-.009765625 .14898682 .010223389 .15499878 .03224182 .15699768 .036239625 .19999695 .21234131 .20399475 .22636414 .2749939 .21936035 .33198548 .19633484 .33198548 .14430237 .33198548 .13929749 .33198548 .1342926 .32998658 .124298099 .32598878 .10928345 .32598878 .104278568 .32598878 .09327698 .32598878 .022232056 .38398744-.009765625 .43199159-.009765625 .5289917-.009765625 .5589905 .14230347 .5589905 .14331055 .5589905 .15631104 .54599 .15631104 .54299929 .15631104 .5289917 .15631104 .5279999 .15130615 .522995 .1322937 .5109863 .089263919 .48399354 .018234253 .43499757 .018234253 .4079895 .018234253 .3999939 .04324341 .3999939 .07026672 .3999939 .087265018 .3999939 .089263919 .4059906 .11528015 .40699769 .11828613 .41099549 .13529969 .41099549 .14630127 .41099549 .23536682 .29100038 .24937439 .24899292 .25238038 .27799989 .27038575 .31498719 .30340577 .33198548 .31840516 .3829956 .3664093 .43299867 .4133911 .4889984 .4133911 .5009918 .4133911 .5139923 .4104004 .5219879 .40040589 .47898866 .3934021 .46998597 .35940553 .46998597 .34440614 .46998597 .32240296 .4869995 .30740357 .5099945 .30740357 .5369873 .30740357 .5669861 .32940675 .5669861 .37139894 .5669861 .4044037 .54299929 .44140626 .48999024 .44140626 .43299867 .44140626 .3809967 .40040589 .32998658 .3534088 .28799439 .31340028 .25498963 .2823944 .21398926 .26538087L.31298829 .66430667Z"/>
<path id="font_4_2" d="M.21099854 .015991211C.21099854-.03907776 .20098877-.10321045 .1329956-.16732788 .1289978-.17134094 .12599182-.17434693 .12599182-.17933655 .12599182-.18634033 .13398743-.19334412 .13999939-.19334412 .1539917-.19334412 .23899842-.113220218 .23899842 .005996704 .23899842 .067993167 .21499634 .114990238 .16899109 .114990238 .13598633 .114990238 .11199951 .08898926 .11199951 .057998659 .11199951 .025985718 .1349945 0 .16999817 0 .19400025 0 .20999146 .015991211 .21099854 .015991211Z"/>
<path id="font_4_3" d="M.053985597-.16085816C.049987794-.1758728 .049987794-.18086243 .049987794-.1818695 .049987794-.20387268 .067993167-.21386719 .083999637-.21386719 .11999512-.21386719 .12799073-.18086243 .13198853-.16386414 .13398743-.15885926 .1539917-.078811649 .17799378 .019226075 .20899964-.0017700195 .24899292-.009765625 .2849884-.009765625 .37098695-.009765625 .4269867 .0602417 .42900086 .0622406 .44799806-.0067749025 .5169983-.009765625 .5319977-.009765625 .56799319-.009765625 .59298709 .01222229 .61099246 .04324341 .6329956 .08226013 .6459961 .13928223 .6459961 .14328003 .6459961 .15628052 .6329956 .15628052 .6299896 .15628052 .6159973 .15628052 .61499026 .15228272 .60798647 .12527466 .59599307 .07725525 .57699587 .018234253 .5349884 .018234253 .5089874 .018234253 .5019989 .040237428 .5019989 .06724548 .5019989 .08425903 .5099945 .120269779 .5169983 .14628601 .5239868 .17329407 .5339966 .21430969 .5389862 .23631287L.56199648 .3253479C.56799319 .3503723 .57899478 .39437867 .57899478 .39938355 .57899478 .41938783 .5629883 .43139649 .54599 .43139649 .5349884 .43139649 .5159912 .4263916 .5049896 .4073944 .5019989 .40138246 .49398805 .3693695 .4889984 .34936524L.46798707 .2663269 .43699647 .14128113C.42999269 .11627197 .42999269 .11427307 .42099 .101257327 .3899994 .057235719 .34599305 .018234253 .2889862 .018234253 .20698548 .018234253 .20698548 .089263919 .20698548 .10726929 .20698548 .13327027 .20999146 .14628601 .22399903 .20030213 .23399353 .24432373 .23599243 .2513275 .24598694 .29034425L.2599945 .34635926C.2649994 .3673706 .2749939 .4053955 .2749939 .4093933 .2749939 .42739869 .26098634 .44140626 .24099732 .44140626 .20498657 .44140626 .19599915 .40638734 .19299317 .39437867L.053985597-.16085816Z"/>
<path id="font_2_9" d="M.33099366-.2400055C.33099366-.23701477 .33099366-.23500061 .31399537-.21800232 .18899536-.0920105 .15699768 .09700012 .15699768 .25 .15699768 .42399598 .19499207 .59799197 .31799317 .72299197 .33099366 .73498538 .33099366 .7369995 .33099366 .73999026 .33099366 .746994 .32699586 .75 .32099916 .75 .31098939 .75 .22099304 .6819916 .1619873 .5549927 .11099243 .44499208 .09899902 .33399964 .09899902 .25 .09899902 .17199707 .10998535 .050994874 .16499329-.06201172 .22499085-.18501282 .31098939-.25 .32099916-.25 .32699586-.25 .33099366-.24700928 .33099366-.2400055Z"/>
<path id="font_3_1" d="M.20599365 .3996582H.2999878C.31999208 .3996582 .32998658 .3996582 .32998658 .41966249 .32998658 .43066407 .31999208 .43066407 .3019867 .43066407H.21398926C.25 .5724945 .25498963 .59246829 .25498963 .59846499 .25498963 .61546328 .24299622 .62545779 .22599793 .62545779 .22299195 .62545779 .19499207 .62446597 .18598938 .58947756L.14698792 .43066407H.052993776C.032989503 .43066407 .022994996 .43066407 .022994996 .4116516 .022994996 .3996582 .0309906 .3996582 .050994874 .3996582H.13899231C.066986087 .11608887 .06298828 .099121097 .06298828 .08114624 .06298828 .02722168 .100997928-.0107421879 .15499878-.0107421879 .25698854-.0107421879 .31399537 .13505554 .31399537 .14305115 .31399537 .1530304 .30599977 .1530304 .3019867 .1530304 .29299928 .1530304 .2919922 .15003968 .2869873 .13905335 .24398804 .035217287 .19099427 .011245728 .15699768 .011245728 .13598633 .011245728 .12599182 .024230957 .12599182 .057174684 .12599182 .08114624 .12799073 .088134769 .13198853 .10510254L.20599365 .3996582Z"/>
<path id="font_3_3" d="M.20298767 .0009918213C.20298767 .066986087 .17799378 .10598755 .13899231 .10598755 .10598755 .10598755 .085998538 .08099365 .085998538 .052993776 .085998538 .025985718 .10598755 0 .13899231 0 .15098572 0 .1639862 .0039978029 .17399597 .0129852299 .1769867 .01499939 .17799378 .015991211 .1789856 .015991211 .17999268 .015991211 .18099976 .01499939 .18099976 .0009918213 .18099976-.07316589 .1459961-.13328552 .11299133-.16635132 .101989749-.17736817 .101989749-.17936707 .101989749-.18237305 .101989749-.18936157 .10699463-.19335938 .11199951-.19335938 .12298584-.19335938 .20298767-.116256717 .20298767 .0009918213Z"/>
<path id="font_5_1" d="M.2899933 .4720459C.2979889 .4890442 .29899598 .49705506 .29899598 .5040436 .29899598 .53504946 .2709961 .5590515 .23999024 .5590515 .20199585 .5590515 .18998719 .52804568 .18499756 .51205447L.052993776 .07901001C.051986696 .07701111 .04798889 .06401062 .04798889 .06300354 .04798889 .05101013 .07899475 .041015626 .08699036 .041015626 .09399414 .041015626 .09498596 .043014528 .101989749 .058013917L.2899933 .4720459Z"/>
<path id="font_2_10" d="M.2889862 .25C.2889862 .32798768 .27799989 .44898988 .22299195 .56199648 .16299439 .68499758 .07699585 .75 .066986087 .75 .06098938 .75 .056991579 .74598696 .056991579 .73999026 .056991579 .7369995 .056991579 .73498538 .07598877 .71699526 .17399597 .6179962 .23098755 .45899964 .23098755 .25 .23098755 .07899475 .19400025-.09700012 .069992069-.2230072 .056991579-.23500061 .056991579-.23701477 .056991579-.2400055 .056991579-.2460022 .06098938-.25 .066986087-.25 .07699585-.25 .16699219-.18200684 .22599793-.055007936 .2769928 .054992677 .2889862 .16600037 .2889862 .25Z"/>
<path id="font_2_6" d="M.10998535 .34429933V.076034549C.10998535 .0309906 .09899902 .0309906 .03199768 .0309906V0C.066986087 .0009918213 .117996219 .0029907227 .14498902 .0029907227 .17098999 .0029907227 .22299195 .0009918213 .25698854 0V.0309906C.18998719 .0309906 .1789856 .0309906 .1789856 .076034549V.2602234C.1789856 .36431886 .25 .42037965 .31399537 .42037965 .3769989 .42037965 .3880005 .36631776 .3880005 .30926515V.076034549C.3880005 .0309906 .3769989 .0309906 .30999757 .0309906V0C.34498597 .0009918213 .3959961 .0029907227 .4229889 .0029907227 .44898988 .0029907227 .5009918 .0009918213 .5349884 0V.0309906C.46798707 .0309906 .45700074 .0309906 .45700074 .076034549V.2602234C.45700074 .36431886 .5279999 .42037965 .59199526 .42037965 .6549988 .42037965 .66600039 .36631776 .66600039 .30926515V.076034549C.66600039 .0309906 .6549988 .0309906 .58799746 .0309906V0C.6230011 .0009918213 .673996 .0029907227 .70098879 .0029907227 .72698977 .0029907227 .7789917 .0009918213 .8129883 0V.0309906C.7609863 .0309906 .73599246 .0309906 .7350006 .061019899V.25221253C.7350006 .3383026 .7350006 .36932374 .70399478 .405365 .6899872 .42237855 .6569977 .4423828 .598999 .4423828 .5149994 .4423828 .47099305 .38233949 .45399476 .34429933 .43998719 .43138124 .3659973 .4423828 .32099916 .4423828 .24798584 .4423828 .20098877 .39935304 .17298889 .33729554V.4423828L.03199768 .43138124V.40037538C.101989749 .4003601 .10998535 .39335633 .10998535 .34429933Z"/>
<path id="font_2_3" d="M.33299256 .076156619C.33699037 .036132814 .3639984-.005859375 .41099549-.005859375 .43199159-.005859375 .49299623 .008132935 .49299623 .089157108V.14518738H.46798707V.089157108C.46798707 .031143189 .44299317 .025131226 .43199159 .025131226 .39898683 .025131226 .394989 .07015991 .394989 .075149539V.27514649C.394989 .31707765 .394989 .3560791 .35899354 .39312745 .31999208 .43223573 .269989 .4482422 .22200012 .4482422 .13999939 .4482422 .070999149 .40115357 .070999149 .335083 .070999149 .30508424 .09098816 .28808595 .116989139 .28808595 .14498902 .28808595 .16299439 .30807496 .16299439 .33407594 .16299439 .3460846 .1579895 .3790741 .11199951 .38008119 .13899231 .41519166 .18798828 .426239 .21998596 .426239 .2689972 .426239 .32598878 .38710023 .32598878 .29808045V.26123048C.2749939 .2582245 .20498657 .25523377 .14199829 .22523499 .066986087 .1912384 .041992189 .13923645 .041992189 .09524536 .041992189 .014251709 .13899231-.0107421879 .20199585-.0107421879 .2679901-.010864258 .31399537 .029129029 .33299256 .076156619M.32598878 .24023438V.1401825C.32598878 .045135499 .2539978 .011138916 .20899964 .011138916 .1599884 .011138916 .11898804 .046142579 .11898804 .09616089 .11898804 .15118408 .16099549 .23422241 .32598878 .24023438Z"/>
<path id="font_2_2" d="M.17298889 .3996582H.31599427V.43066407H.17298889V.6147156H.147995C.14698792 .5326996 .116989139 .42565919 .018997193 .42166139V.3996582H.10398865V.12416077C.10398865 .0012512207 .19699097-.0107421879 .23298645-.0107421879 .3039856-.0107421879 .33198548 .06021118 .33198548 .12416077V.18112183H.30699159V.12615967C.30699159 .052215578 .2769928 .014251709 .23999024 .014251709 .17298889 .014251709 .17298889 .10517883 .17298889 .122161868V.3996582Z"/>
<path id="font_2_1" d="M.16699219 .3323059V.4423828L.027999878 .43138124V.40037538C.09799194 .40037538 .10598755 .39337159 .10598755 .34431459V.076034549C.10598755 .0309906 .09498596 .0309906 .027999878 .0309906V0C.066986087 .0009918213 .11399841 .0029907227 .14199829 .0029907227 .18199158 .0029907227 .22898865 .0029907227 .2689972 0V.0309906H.24798584C.17399597 .0309906 .17199707 .042007448 .17199707 .07803345V.232193C.17199707 .33128358 .21398926 .42037965 .2899933 .42037965 .29699708 .42037965 .29899598 .42037965 .30099488 .41937257 .2979889 .41838075 .27799989 .4063568 .27799989 .38034059 .27799989 .35231019 .29899598 .33729554 .32099916 .33729554 .33898927 .33729554 .3639984 .3493042 .3639984 .3813324 .3639984 .41337586 .33299256 .4423828 .2899933 .4423828 .21699524 .4423828 .18099976 .37535096 .16699219 .3323059Z"/>
<path id="font_2_5" d="M.1769867 .4423828 .036987306 .43138124V.40037538C.101989749 .40037538 .11099243 .3943634 .11099243 .34532167V.076034549C.11099243 .0309906 .099990848 .0309906 .032989503 .0309906V0C.06498718 .0009918213 .11898804 .0029907227 .14299011 .0029907227 .17799378 .0029907227 .21299744 .0009918213 .24699402 0V.0309906C.18099976 .0309906 .1769867 .035995485 .1769867 .075042728V.4423828M.18099976 .6159363C.18099976 .64793398 .1559906 .6689453 .12799073 .6689453 .09700012 .6689453 .07499695 .64193728 .07499695 .6159363 .07499695 .5889435 .09700012 .5629425 .12799073 .5629425 .1559906 .5629425 .18099976 .5839386 .18099976 .6159363Z"/>
<path id="font_2_4" d="M.2869873 .23480225C.31698609 .2727661 .35499574 .32173158 .3789978 .34770204 .4099884 .383667 .45098878 .39865113 .49798585 .3996582V.43066407C.47200013 .4286499 .44198609 .42765809 .41600038 .42765809 .38598634 .42765809 .33299256 .42965699 .31999208 .43066407V.3996582C.34098817 .3976593 .34899903 .38467408 .34899903 .36868287 .34899903 .3527069 .33898927 .33970643 .33399964 .33372499L.27198792 .25578309 .19400025 .35668946C.18499756 .36668397 .18499756 .36868287 .18499756 .37467958 .18499756 .3896637 .19999695 .39865113 .21998596 .3996582V.43066407C.19400025 .42965699 .12799073 .42765809 .11199951 .42765809 .09098816 .42765809 .04399109 .4286499 .016998291 .43066407V.3996582C.08699036 .3996582 .08799744 .39865113 .1349945 .3387146L.23399353 .20982361 .13999939 .09094238C.09199524 .032989503 .032989503 .0309906 .011993408 .0309906V0C.037994386 .0019989014 .068984989 .0029907227 .09498596 .0029907227 .12399292 .0029907227 .1659851 .0009918213 .18998719 0V.0309906C.16799927 .033996583 .16099549 .04698181 .16099549 .061965944 .16099549 .0839386 .18998719 .11691284 .25099183 .18884278L.32699586 .08894348C.33499146 .07795715 .34799195 .061965944 .34799195 .05596924 .34799195 .04698181 .33898927 .03199768 .31199647 .0309906V0C.34199525 .0009918213 .397995 .0029907227 .41999818 .0029907227 .44699098 .0029907227 .48599244 .0019989014 .5159912 0V.0309906C.46199037 .0309906 .44400025 .032989503 .42099 .061965944L.2869873 .23480225Z"/>
</defs>
<g clip-path="url(#clip_1)">
<use data-text="0" xlink:href="#font_2_11" transform="matrix(9.96264,0,0,-9.96264,31.453949,147.75189)" fill="#231f20"/>
<use data-text="5" xlink:href="#font_2_15" transform="matrix(9.96264,0,0,-9.96264,31.453949,109.951908)" fill="#231f20"/>
<use data-text="1" xlink:href="#font_2_12" transform="matrix(9.96264,0,0,-9.96264,26.41372,72.27222)" fill="#231f20"/>
<use data-text="0" xlink:href="#font_2_11" transform="matrix(9.96264,0,0,-9.96264,31.453724,72.27222)" fill="#231f20"/>
<use data-text="1" xlink:href="#font_2_12" transform="matrix(9.96264,0,0,-9.96264,26.41372,34.472169)" fill="#231f20"/>
<use data-text="5" xlink:href="#font_2_15" transform="matrix(9.96264,0,0,-9.96264,31.453724,34.472169)" fill="#231f20"/>
<use data-text="0" xlink:href="#font_2_11" transform="matrix(9.96264,0,0,-9.96264,40.573919,158.67218)" fill="#231f20"/>
<use data-text="2" xlink:href="#font_2_13" transform="matrix(9.96264,0,0,-9.96264,73.454029,158.67218)" fill="#231f20"/>
<use data-text="0" xlink:href="#font_2_11" transform="matrix(9.96264,0,0,-9.96264,78.49402,158.67218)" fill="#231f20"/>
<use data-text="4" xlink:href="#font_2_14" transform="matrix(9.96264,0,0,-9.96264,108.85397,158.67218)" fill="#231f20"/>
<use data-text="0" xlink:href="#font_2_11" transform="matrix(9.96264,0,0,-9.96264,113.89398,158.67218)" fill="#231f20"/>
<use data-text="6" xlink:href="#font_2_7" transform="matrix(9.96264,0,0,-9.96264,144.25394,158.67218)" fill="#231f20"/>
<use data-text="0" xlink:href="#font_2_11" transform="matrix(9.96264,0,0,-9.96264,149.29395,158.67218)" fill="#231f20"/>
<use data-text="8" xlink:href="#font_2_8" transform="matrix(9.96264,0,0,-9.96264,179.6539,158.67218)" fill="#231f20"/>
<use data-text="0" xlink:href="#font_2_11" transform="matrix(9.96264,0,0,-9.96264,184.6939,158.67218)" fill="#231f20"/>
<use data-text="1" xlink:href="#font_2_12" transform="matrix(9.96264,0,0,-9.96264,212.534,158.67218)" fill="#231f20"/>
<use data-text="0" xlink:href="#font_2_11" transform="matrix(9.96264,0,0,-9.96264,217.57399,158.67218)" fill="#231f20"/>
<use data-text="0" xlink:href="#font_2_11" transform="matrix(9.96264,0,0,-9.96264,222.614,158.67218)" fill="#231f20"/>
<path transform="matrix(.1,0,0,-.1,-26.02615,1097.0919)" stroke-width="2.5" stroke-linecap="butt" stroke-miterlimit="3.8" stroke-linejoin="miter" fill="none" stroke="#000000" d="M690.199 9517.8H721.699M2460.7 9517.8H2429.2"/>
<path transform="matrix(.1,0,0,-.1,-26.02615,1097.0919)" stroke-width="2.5" stroke-linecap="butt" stroke-miterlimit="3.8" stroke-linejoin="miter" fill="none" stroke="#000000" d="M690.199 9895.3H721.699M2460.7 9895.3H2429.2"/>
<path transform="matrix(.1,0,0,-.1,-26.02615,1097.0919)" stroke-width="2.5" stroke-linecap="butt" stroke-miterlimit="3.8" stroke-linejoin="miter" fill="none" stroke="#000000" d="M690.199 10272.3H721.699M2460.7 10272.3H2429.2"/>
<path transform="matrix(.1,0,0,-.1,-26.02615,1097.0919)" stroke-width="2.5" stroke-linecap="butt" stroke-miterlimit="3.8" stroke-linejoin="miter" fill="none" stroke="#000000" d="M690.199 10649.8H721.699M2460.7 10649.8H2429.2"/>
<path transform="matrix(.1,0,0,-.1,-26.02615,1097.0919)" stroke-width="2.5" stroke-linecap="butt" stroke-miterlimit="3.8" stroke-linejoin="miter" fill="none" stroke="#000000" d="M690.199 9517.8V9549.3M690.199 10725.3V10693.8"/>
<path transform="matrix(.1,0,0,-.1,-26.02615,1097.0919)" stroke-width="2.5" stroke-linecap="butt" stroke-miterlimit="3.8" stroke-linejoin="miter" fill="none" stroke="#000000" d="M1044.2 9517.8V9549.3M1044.2 10725.3V10693.8"/>
<path transform="matrix(.1,0,0,-.1,-26.02615,1097.0919)" stroke-width="2.5" stroke-linecap="butt" stroke-miterlimit="3.8" stroke-linejoin="miter" fill="none" stroke="#000000" d="M1398.2 9517.8V9549.3M1398.2 10725.3V10693.8"/>
<path transform="matrix(.1,0,0,-.1,-26.02615,1097.0919)" stroke-width="2.5" stroke-linecap="butt" stroke-miterlimit="3.8" stroke-linejoin="miter" fill="none" stroke="#000000" d="M1752.7 9517.8V9549.3M1752.7 10725.3V10693.8"/>
<path transform="matrix(.1,0,0,-.1,-26.02615,1097.0919)" stroke-width="2.5" stroke-linecap="butt" stroke-miterlimit="3.8" stroke-linejoin="miter" fill="none" stroke="#000000" d="M2106.7 9517.8V9549.3M2106.7 10725.3V10693.8"/>
<path transform="matrix(.1,0,0,-.1,-26.02615,1097.0919)" stroke-width="2.5" stroke-linecap="butt" stroke-miterlimit="3.8" stroke-linejoin="miter" fill="none" stroke="#000000" d="M2460.7 9517.8V9549.3M2460.7 10725.3V10693.8"/>
<path transform="matrix(.1,0,0,-.1,-26.02615,1097.0919)" stroke-width="2.5" stroke-linecap="butt" stroke-miterlimit="3.8" stroke-linejoin="miter" fill="none" stroke="#000000" d="M690.199 10725.3V9517.8H2460.7V10725.3H690.199Z"/>
<path transform="matrix(.1,0,0,-.1,-26.02615,1097.0919)" stroke-width="2.5" stroke-linecap="butt" stroke-miterlimit="3.8" stroke-linejoin="miter" fill="none" stroke="#000000" d="M690.199 9517.8V9632.3L690.699 9633.8 691.199 9638.3 692.199 9645.3 693.699 9659.3 699.199 9697.8 708.199 9752.8 716.699 9798.3 725.699 9836.3 734.699 9868.3 743.699 9895.8 752.699 9919.3 761.199 9939.3 770.199 9957.3 779.199 9973.3 788.199 9987.3 797.199 10000.3 805.699 10011.8 814.699 10022.3 823.699 10031.8 832.699 10040.8 841.199 10049.3 850.199 10057.3 859.199 10064.3 867.199 10070.3V10070.8H867.699L868.199 10071.3 869.199 10071.8 870.699 10073.3 876.199 10076.8 877.199 10077.8 885.699 10083.8 894.699 10089.3 903.699 10094.8 912.699 10099.8 921.699 10104.8 930.199 10109.3 939.199 10113.8 948.199 10117.8 957.199 10121.8 966.199 10125.3 974.699 10128.8 983.699 10132.3 992.699 10135.3 1001.7 10138.3 1010.7 10141.3 1019.2 10144.3 1028.2 10146.8 1037.2 10149.3 1044.2 10150.8V10151.3H1044.7 1045.2 1046.2L1047.7 10151.8 1053.2 10153.3 1055.2 10153.8 1063.7 10155.8 1072.7 10157.8 1081.7 10159.8 1090.7 10161.8 1099.7 10163.3 1108.2 10164.8 1117.2 10166.8 1126.2 10168.3 1135.2 10169.3 1143.7 10170.8 1152.7 10172.3 1161.7 10173.3 1170.7 10174.3 1179.7 10175.8 1188.2 10176.8 1197.2 10177.8 1206.2 10178.8 1215.2 10179.3 1221.2 10180.3H1221.7 1222.2 1223.2 1224.2 1224.7L1230.2 10180.8 1232.7 10181.3 1241.7 10181.8 1250.7 10182.8 1259.7 10183.3 1268.7 10184.3 1277.2 10184.8 1286.2 10185.3 1295.2 10185.8 1304.2 10186.3 1313.2 10186.8 1321.7 10187.3 1330.7 10187.8 1339.7 10188.3 1348.7 10188.8 1357.7 10189.3 1366.2 10189.8H1375.2L1384.2 10190.3"/>
<path transform="matrix(.1,0,0,-.1,-26.02615,1097.0919)" stroke-width="2.5" stroke-linecap="butt" stroke-miterlimit="3.8" stroke-linejoin="miter" fill="none" stroke="#000000" d="M1384.2 10190.3 1393.2 10190.8H1402.2L1407.2 10191.3H1410.7 1419.7L1428.7 10191.8H1437.7L1446.2 10192.3H1455.2L1464.2 10192.8H1473.2L1482.2 10193.3H1490.7 1499.7L1508.7 10193.8H1517.7 1526.7L1535.2 10194.3H1544.2 1553.2L1562.2 10194.8H1571.2 1575.2 1575.7 1576.2 1577.2 1579.2 1579.7 1584.2 1588.7 1597.7L1606.7 10195.3H1615.7 1624.2 1633.2 1642.2 1651.2L1660.2 10195.8H1668.7 1677.7 1686.7 1695.7 1704.7 1713.2 1722.2L1731.2 10196.3H1740.2 1748.7 1757.7 1766.7 1775.7 1784.7 1793.2 1802.2 1811.2 1820.2 1829.2 1837.7 1846.7 1855.7L1864.7 10196.8H1873.7 1882.2 1891.2 1900.2 1909.2 1918.2 1926.7 1935.7 1944.7 1953.7 1962.7 1971.2 1980.2 1989.2 1998.2 2007.2 2015.7 2024.7 2033.7 2042.7 2051.2 2060.2 2069.2 2078.2 2087.2 2095.7 2104.7 2113.7 2122.7 2131.7 2140.2 2149.2 2158.2 2167.2 2176.2 2184.7 2193.7 2202.7"/>
<path transform="matrix(.1,0,0,-.1,-26.02615,1097.0919)" stroke-width="2.5" stroke-linecap="butt" stroke-miterlimit="3.8" stroke-linejoin="miter" fill="none" stroke="#000000" d="M2202.7 10196.8H2460.7"/>
<path transform="matrix(.1,0,0,-.1,-26.02615,1097.0919)" stroke-width="2.5" stroke-linecap="butt" stroke-miterlimit="3.8" stroke-linejoin="miter" fill="none" stroke="#000000" d="M690.199 9517.8H867.199V9632.3L867.699 9633.8 868.199 9637.3V9637.8L869.199 9643.8 870.699 9656.3 876.199 9690.8 877.199 9696.3 885.699 9744.3 894.699 9784.3 903.699 9817.8 912.699 9846.3 921.699 9870.3 930.199 9890.8 939.199 9908.8 948.199 9924.3 957.199 9938.3 966.199 9951.3 974.699 9962.3 983.699 9972.8 992.699 9981.8 1001.7 9990.8 1010.7 9998.8 1019.2 10005.8 1028.2 10012.8 1037.2 10019.3 1044.2 10024.3H1044.7V10024.8H1045.2L1046.2 10025.3 1047.7 10026.8 1053.2 10030.3 1055.2 10031.3 1063.7 10036.8 1072.7 10041.8 1081.7 10046.3 1090.7 10050.8 1099.7 10055.3 1108.2 10059.3 1117.2 10063.3 1126.2 10066.8 1135.2 10070.3 1143.7 10073.8 1152.7 10076.8 1161.7 10079.8 1170.7 10082.8 1179.7 10085.3 1188.2 10087.8 1197.2 10090.3 1206.2 10092.8 1215.2 10094.8 1221.2 10096.3H1221.7L1222.2 10096.8H1223.2 1224.2L1224.7 10097.3 1230.2 10098.3 1232.7 10098.8 1241.7 10100.8 1250.7 10102.8 1259.7 10104.3 1268.7 10105.8 1277.2 10107.3 1286.2 10108.8 1295.2 10110.3 1304.2 10111.8 1313.2 10112.8 1321.7 10114.3 1330.7 10115.3 1339.7 10116.3 1348.7 10117.3 1357.7 10118.3 1366.2 10119.3 1375.2 10120.3 1384.2 10121.3"/>
<path transform="matrix(.1,0,0,-.1,-26.02615,1097.0919)" stroke-width="2.5" stroke-linecap="butt" stroke-miterlimit="3.8" stroke-linejoin="miter" fill="none" stroke="#000000" d="M1384.2 10121.3 1393.2 10121.8 1398.2 10122.3H1400.2L1401.7 10122.8H1402.2L1407.2 10123.3H1410.7L1419.7 10124.3 1428.7 10124.8 1437.7 10125.3 1446.2 10125.8 1455.2 10126.3 1464.2 10127.3 1473.2 10127.8 1482.2 10128.3H1490.7L1499.7 10128.8 1508.7 10129.3 1517.7 10129.8 1526.7 10130.3H1535.2L1544.2 10130.8 1553.2 10131.3H1562.2L1571.2 10131.8H1575.2 1575.7 1576.2 1577.2 1579.2L1579.7 10132.3H1584.2 1588.7L1597.7 10132.8H1606.7L1615.7 10133.3H1624.2 1633.2L1642.2 10133.8H1651.2 1660.2L1668.7 10134.3H1677.7 1686.7L1695.7 10134.8H1704.7 1713.2L1722.2 10135.3H1731.2 1740.2 1748.7 1757.7L1766.7 10135.8H1775.7 1784.7 1793.2 1802.2 1811.2L1820.2 10136.3H1829.2 1837.7 1846.7 1855.7 1864.7 1873.7 1882.2L1891.2 10136.8H1900.2 1909.2 1918.2 1926.7 1935.7 1944.7 1953.7 1962.7 1971.2 1980.2 1989.2 1998.2 2007.2 2015.7L2024.7 10137.3H2033.7 2042.7 2051.2 2060.2 2069.2 2078.2 2087.2 2095.7 2104.7 2113.7 2122.7 2131.7 2140.2 2149.2 2158.2 2167.2 2176.2 2184.7 2193.7 2202.7"/>
<path transform="matrix(.1,0,0,-.1,-26.02615,1097.0919)" stroke-width="2.5" stroke-linecap="butt" stroke-miterlimit="3.8" stroke-linejoin="miter" fill="none" stroke="#000000" d="M2202.7 10137.3H2460.7"/>
<path transform="matrix(.1,0,0,-.1,-26.02615,1097.0919)" stroke-width="2.5" stroke-linecap="butt" stroke-miterlimit="3.8" stroke-linejoin="miter" fill="none" stroke="#000000" d="M690.199 9517.8H1044.2V9631.3L1044.7 9631.8V9632.8L1045.2 9635.8 1046.2 9640.3 1047.7 9649.3 1053.2 9673.8 1055.2 9681.3 1063.7 9715.3 1072.7 9743.3 1081.7 9767.3 1090.7 9786.8 1099.7 9803.8 1108.2 9818.3 1117.2 9831.3 1126.2 9842.3 1135.2 9852.3 1143.7 9861.3 1152.7 9869.3 1161.7 9876.3 1170.7 9883.3 1179.7 9889.3 1188.2 9894.8 1197.2 9900.3 1206.2 9905.3 1215.2 9909.8 1221.2 9912.8H1221.7L1222.2 9913.3 1223.2 9913.8 1224.2 9914.3H1224.7L1230.2 9916.8 1232.7 9918.3 1241.7 9921.8 1250.7 9925.8 1259.7 9929.3 1268.7 9932.3 1277.2 9935.3 1286.2 9938.3 1295.2 9940.8 1304.2 9943.8 1313.2 9946.3 1321.7 9948.3 1330.7 9950.8 1339.7 9952.8 1348.7 9954.8 1357.7 9956.8 1366.2 9958.8 1375.2 9960.3 1384.2 9961.8 1393.2 9963.3 1398.2 9964.3H1398.7"/>
<path transform="matrix(.1,0,0,-.1,-26.02615,1097.0919)" stroke-width="2.5" stroke-linecap="butt" stroke-miterlimit="3.8" stroke-linejoin="miter" fill="none" stroke="#000000" d="M1398.7 9964.3 1399.2 9964.8H1402.2L1407.2 9965.8 1410.7 9966.3 1419.7 9967.8 1428.7 9969.3 1437.7 9970.3 1446.2 9971.3 1455.2 9972.8 1464.2 9973.8 1473.2 9974.8 1482.2 9975.3 1490.7 9976.3 1499.7 9977.3 1508.7 9978.3 1517.7 9978.8 1526.7 9979.8 1535.2 9980.3 1544.2 9980.8 1553.2 9981.8 1562.2 9982.3 1571.2 9982.8 1575.2 9983.3H1575.7 1576.2 1577.2 1579.2 1579.7L1584.2 9983.8H1588.7L1597.7 9984.3 1606.7 9984.8 1615.7 9985.3 1624.2 9985.8 1633.2 9986.3H1642.2L1651.2 9986.8 1660.2 9987.3H1668.7L1677.7 9987.8 1686.7 9988.3H1695.7L1704.7 9988.8H1713.2L1722.2 9989.3H1731.2L1740.2 9989.8H1748.7L1757.7 9990.3H1766.7 1775.7L1784.7 9990.8H1793.2 1802.2L1811.2 9991.3H1820.2 1829.2 1837.7L1846.7 9991.8H1855.7 1864.7 1873.7 1882.2L1891.2 9992.3H1900.2 1909.2 1918.2 1926.7 1935.7L1944.7 9992.8H1953.7 1962.7 1971.2 1980.2 1989.2 1998.2 2007.2 2015.7L2024.7 9993.3H2033.7 2042.7 2051.2 2060.2 2069.2 2078.2 2087.2 2095.7 2104.7 2113.7 2122.7 2131.7 2140.2 2149.2 2158.2 2167.2L2176.2 9993.8H2184.7 2193.7 2202.7 2211.7 2220.7 2229.2"/>
<path transform="matrix(.1,0,0,-.1,-26.02615,1097.0919)" stroke-width="2.5" stroke-linecap="butt" stroke-miterlimit="3.8" stroke-linejoin="miter" fill="none" stroke="#000000" d="M2229.2 9993.8H2460.7"/>
<path transform="matrix(.1,0,0,-.1,-26.02615,1097.0919)" stroke-width="2.5" stroke-linecap="butt" stroke-miterlimit="3.8" stroke-linejoin="miter" fill="none" stroke="#000000" d="M690.199 9517.8H1221.2V9631.3H1221.7V9632.3L1222.2 9633.8 1223.2 9636.3 1224.2 9638.8 1224.7 9641.3 1230.2 9655.3 1232.7 9662.3 1241.7 9681.3 1250.7 9696.8 1259.7 9710.3 1268.7 9721.3 1277.2 9731.3 1286.2 9739.3 1295.2 9746.8 1304.2 9752.8 1313.2 9758.3 1321.7 9763.8 1330.7 9768.3 1339.7 9772.3 1348.7 9775.8 1357.7 9779.3 1366.2 9782.8 1375.2 9785.8 1384.2 9788.8 1393.2 9791.3 1398.2 9792.8H1398.7"/>
<path transform="matrix(.1,0,0,-.1,-26.02615,1097.0919)" stroke-width="2.5" stroke-linecap="butt" stroke-miterlimit="3.8" stroke-linejoin="miter" fill="none" stroke="#000000" d="M1398.7 9792.8H1399.2L1400.2 9793.3 1401.7 9793.8H1402.2L1407.2 9795.3 1410.7 9795.8 1419.7 9798.3 1428.7 9800.3 1437.7 9802.3 1446.2 9803.8 1455.2 9805.8 1464.2 9807.3 1473.2 9808.8 1482.2 9810.3 1490.7 9811.8 1499.7 9813.3 1508.7 9814.8 1517.7 9815.8 1526.7 9816.8 1535.2 9817.8 1544.2 9819.3 1553.2 9820.3 1562.2 9820.8 1571.2 9821.8 1575.2 9822.3H1575.7 1576.2 1577.2L1579.2 9822.8H1579.7L1584.2 9823.3H1588.7L1597.7 9824.3 1606.7 9824.8 1615.7 9825.8 1624.2 9826.3 1633.2 9826.8 1642.2 9827.8 1651.2 9828.3 1660.2 9828.8 1668.7 9829.3 1677.7 9829.8 1686.7 9830.3 1695.7 9830.8 1704.7 9831.3H1713.2L1722.2 9831.8 1731.2 9832.3 1740.2 9832.8H1748.7L1757.7 9833.3H1766.7L1775.7 9833.8H1784.7L1793.2 9834.3H1802.2L1811.2 9834.8H1820.2L1829.2 9835.3H1837.7L1846.7 9835.8H1855.7 1864.7L1873.7 9836.3H1882.2 1891.2 1900.2L1909.2 9836.8H1918.2 1926.7 1935.7L1944.7 9837.3H1953.7 1962.7 1971.2 1980.2L1989.2 9837.8H1998.2 2007.2 2015.7 2024.7 2033.7 2042.7L2051.2 9838.3H2060.2 2069.2 2078.2 2087.2 2095.7 2104.7 2113.7 2122.7 2131.7 2140.2L2149.2 9838.8H2158.2 2167.2 2176.2 2184.7 2193.7 2202.7 2211.7 2220.7 2229.2"/>
<path transform="matrix(.1,0,0,-.1,-26.02615,1097.0919)" stroke-width="2.5" stroke-linecap="butt" stroke-miterlimit="3.8" stroke-linejoin="miter" fill="none" stroke="#000000" d="M2229.2 9838.8H2380.7L2389.7 9839.3H2460.7"/>
<path transform="matrix(.1,0,0,-.1,-26.02615,1097.0919)" stroke-width="2.5" stroke-linecap="butt" stroke-miterlimit="3.8" stroke-linejoin="miter" fill="none" stroke="#000000" d="M690.199 9517.8H1398.2V9631.3H1398.7L1399.2 9632.3"/>
<path transform="matrix(.1,0,0,-.1,-26.02615,1097.0919)" stroke-width="2.5" stroke-linecap="butt" stroke-miterlimit="3.8" stroke-linejoin="miter" fill="none" stroke="#000000" d="M1399.2 9632.3 1400.2 9633.3 1401.7 9635.8H1402.2L1407.2 9642.3 1410.7 9646.3 1419.7 9654.8 1428.7 9661.8 1437.7 9667.8 1446.2 9673.3 1455.2 9677.3 1464.2 9681.3 1473.2 9684.3 1482.2 9687.3 1490.7 9689.8 1499.7 9692.3 1508.7 9694.3 1517.7 9696.3 1526.7 9697.8 1535.2 9699.3 1544.2 9700.8 1553.2 9702.3 1562.2 9703.3 1571.2 9704.8 1575.2 9705.3H1575.7 1576.2 1577.2L1579.2 9705.8H1579.7L1584.2 9706.3 1588.7 9706.8 1597.7 9707.8 1606.7 9708.8 1615.7 9709.8 1624.2 9710.8 1633.2 9711.3 1642.2 9712.3 1651.2 9712.8 1660.2 9713.3 1668.7 9714.3 1677.7 9714.8 1686.7 9715.3 1695.7 9715.8 1704.7 9716.3 1713.2 9716.8 1722.2 9717.3 1731.2 9717.8 1740.2 9718.3 1748.7 9718.8 1757.7 9719.3H1766.7L1775.7 9719.8 1784.7 9720.3H1793.2L1802.2 9720.8 1811.2 9721.3H1820.2L1829.2 9721.8H1837.7L1846.7 9722.3H1855.7 1864.7L1873.7 9722.8H1882.2L1891.2 9723.3H1900.2 1909.2L1918.2 9723.8H1926.7 1935.7 1944.7L1953.7 9724.3H1962.7 1971.2 1980.2L1989.2 9724.8H1998.2 2007.2 2015.7 2024.7L2033.7 9725.3H2042.7 2051.2 2060.2 2069.2 2078.2 2087.2L2095.7 9725.8H2104.7 2113.7 2122.7 2131.7 2140.2 2149.2 2158.2 2167.2 2176.2 2184.7 2193.7L2202.7 9726.3H2211.7 2220.7 2229.2 2238.2"/>
<path transform="matrix(.1,0,0,-.1,-26.02615,1097.0919)" stroke-width="2.5" stroke-linecap="butt" stroke-miterlimit="3.8" stroke-linejoin="miter" fill="none" stroke="#000000" d="M2238.2 9726.3H2460.7"/>
<path transform="matrix(.1,0,0,-.1,-26.02615,1097.0919)" stroke-width="2.5" stroke-linecap="butt" stroke-miterlimit="3.8" stroke-linejoin="miter" fill="none" stroke="#000000" d="M690.199 9517.8H1401.7"/>
<path transform="matrix(.1,0,0,-.1,-26.02615,1097.0919)" stroke-width="2.5" stroke-linecap="butt" stroke-miterlimit="3.8" stroke-linejoin="miter" fill="none" stroke="#000000" d="M1401.7 9517.8H1575.2L1575.7 9630.8V9631.3H1576.2L1577.2 9631.8 1579.2 9632.8 1579.7 9633.3 1584.2 9635.3 1588.7 9636.8 1597.7 9640.3 1606.7 9642.8 1615.7 9644.8 1624.2 9646.8 1633.2 9648.3 1642.2 9649.8 1651.2 9650.8 1660.2 9651.8 1668.7 9652.8 1677.7 9653.8 1686.7 9654.3 1695.7 9654.8 1704.7 9655.8 1713.2 9656.3 1722.2 9656.8 1731.2 9657.3 1740.2 9657.8 1748.7 9658.3 1757.7 9658.8H1766.7L1775.7 9659.3 1784.7 9659.8H1793.2L1802.2 9660.3 1811.2 9660.8H1820.2L1829.2 9661.3H1837.7L1846.7 9661.8H1855.7L1864.7 9662.3H1873.7 1882.2L1891.2 9662.8H1900.2 1909.2L1918.2 9663.3H1926.7 1935.7L1944.7 9663.8H1953.7 1962.7 1971.2 1980.2L1989.2 9664.3H1998.2 2007.2 2015.7 2024.7L2033.7 9664.8H2042.7 2051.2 2060.2 2069.2 2078.2 2087.2L2095.7 9665.3H2104.7 2113.7 2122.7 2131.7 2140.2 2149.2 2158.2 2167.2 2176.2 2184.7L2193.7 9665.8H2202.7 2211.7 2220.7 2229.2 2238.2 2247.2"/>
<path transform="matrix(.1,0,0,-.1,-26.02615,1097.0919)" stroke-width="2.5" stroke-linecap="butt" stroke-miterlimit="3.8" stroke-linejoin="miter" fill="none" stroke="#000000" d="M2247.2 9665.8H2451.7L2460.7 9666.3"/>
<path transform="matrix(.1,0,0,-.1,-26.02615,1097.0919)" stroke-width="2.5" stroke-linecap="butt" stroke-dasharray="10,15" stroke-miterlimit="3.8" stroke-linejoin="miter" fill="none" stroke="#000000" d="M690.199 9517.8V9708.8L690.699 9711.3 691.199 9718.8 692.199 9730.3 693.699 9753.8 699.199 9817.3V9817.8L708.199 9909.3 716.699 9985.3 725.699 10048.8 734.699 10101.8 743.699 10147.3 752.699 10186.8 761.199 10220.8 770.199 10250.3 779.199 10276.8 788.199 10300.3 797.199 10321.8 805.699 10340.8 814.699 10358.3 823.699 10374.8 832.699 10389.8 841.199 10403.8 850.199 10416.8 859.199 10428.8 867.199 10438.8V10439.3H867.699L868.199 10440.3 869.199 10441.3 870.699 10443.3 876.199 10449.8 877.199 10450.8 885.699 10460.8 894.699 10470.3 903.699 10479.3 912.699 10487.8 921.699 10495.8 930.199 10503.8 939.199 10510.8 948.199 10517.8 957.199 10524.3 966.199 10530.3 974.699 10536.3 983.699 10541.8 992.699 10547.3 1001.7 10552.3 1010.7 10557.3 1019.2 10561.8 1028.2 10565.8 1037.2 10570.3 1044.2 10573.3H1044.7L1045.2 10573.8H1046.2L1047.7 10574.8 1053.2 10576.8 1055.2 10577.8 1063.7 10581.3 1072.7 10584.8 1081.7 10587.8 1090.7 10590.8 1099.7 10593.8 1108.2 10596.3 1117.2 10599.3 1126.2 10601.8 1135.2 10603.8 1143.7 10606.3 1152.7 10608.3 1161.7 10610.3 1170.7 10612.3 1179.7 10614.3 1188.2 10615.8 1197.2 10617.8 1206.2 10619.3 1215.2 10620.8 1221.2 10621.8H1221.7 1222.2 1223.2L1224.2 10622.3H1224.7L1230.2 10622.8 1232.7 10623.3 1241.7 10624.8 1250.7 10625.8 1259.7 10627.3 1268.7 10628.3 1277.2 10629.3 1286.2 10630.3 1295.2 10631.3 1304.2 10632.3 1313.2 10632.8 1321.7 10633.8 1330.7 10634.8 1339.7 10635.3 1348.7 10636.3 1357.7 10636.8 1366.2 10637.3 1375.2 10637.8 1384.2 10638.8"/>
<path transform="matrix(.1,0,0,-.1,-26.02615,1097.0919)" stroke-width="2.5" stroke-linecap="butt" stroke-dasharray="10,15" stroke-miterlimit="3.8" stroke-linejoin="miter" fill="none" stroke="#000000" d="M1384.2 10638.8 1393.2 10639.3H1399.2L1400.2 10639.8H1401.7 1402.2 1407.2L1410.7 10640.3 1419.7 10640.8 1428.7 10641.3H1437.7L1446.2 10641.8 1455.2 10642.3 1464.2 10642.8H1473.2L1482.2 10643.3 1490.7 10643.8H1499.7L1508.7 10644.3H1517.7L1526.7 10644.8H1535.2L1544.2 10645.3H1553.2L1562.2 10645.8H1571.2 1575.2 1575.7 1576.2L1577.2 10646.3H1579.2 1579.7 1584.2 1588.7 1597.7L1606.7 10646.8H1615.7 1624.2L1633.2 10647.3H1642.2 1651.2 1660.2L1668.7 10647.8H1677.7 1686.7 1695.7 1704.7L1713.2 10648.3H1722.2 1731.2 1740.2 1748.7 1757.7 1766.7L1775.7 10648.8H1784.7 1793.2 1802.2 1811.2 1820.2 1829.2 1837.7 1846.7 1855.7L1864.7 10649.3H1873.7 1882.2 1891.2 1900.2 1909.2 1918.2 1926.7 1935.7 1944.7 1953.7 1962.7 1971.2 1980.2 1989.2 1998.2 2007.2 2015.7 2024.7 2033.7L2042.7 10649.8H2051.2 2060.2 2069.2 2078.2 2087.2 2095.7 2104.7 2113.7 2122.7 2131.7 2140.2 2149.2 2158.2 2167.2 2176.2 2184.7 2193.7 2202.7"/>
<path transform="matrix(.1,0,0,-.1,-26.02615,1097.0919)" stroke-width="2.5" stroke-linecap="butt" stroke-dasharray="10,15" stroke-miterlimit="3.8" stroke-linejoin="miter" fill="none" stroke="#000000" d="M2202.7 10649.8H2460.7"/>
<path transform="matrix(.1,0,0,-.1,-26.02615,1097.0919)" stroke-width="2.5" stroke-linecap="butt" stroke-dasharray="10,15" stroke-miterlimit="3.8" stroke-linejoin="miter" fill="none" stroke="#000000" d="M690.199 9517.8H867.199V9708.8L867.699 9710.8 868.199 9717.3 869.199 9727.8 870.699 9748.8 876.199 9805.8 877.199 9815.3 885.699 9895.8 894.699 9962.3 903.699 10017.8 912.699 10064.8 921.699 10104.8 930.199 10139.3 939.199 10169.3 948.199 10195.8 957.199 10218.8 966.199 10239.8 974.699 10258.8 983.699 10275.8 992.699 10291.3 1001.7 10305.8 1010.7 10319.3 1019.2 10331.3 1028.2 10343.3 1037.2 10353.8 1044.2 10361.8V10362.3H1044.7L1045.2 10362.8 1046.2 10363.8 1047.7 10365.8 1053.2 10371.8 1055.2 10373.3 1063.7 10382.3 1072.7 10390.8 1081.7 10398.8 1090.7 10406.3 1099.7 10413.8 1108.2 10420.3 1117.2 10426.8 1126.2 10432.8 1135.2 10438.8 1143.7 10444.3 1152.7 10449.8 1161.7 10454.8 1170.7 10459.3 1179.7 10463.8 1188.2 10467.8 1197.2 10472.3 1206.2 10475.8 1215.2 10479.8 1221.2 10482.3H1221.7 1222.2L1223.2 10482.8 1224.2 10483.3H1224.7L1230.2 10485.3 1232.7 10486.3 1241.7 10489.8 1250.7 10492.3 1259.7 10495.3 1268.7 10498.3 1277.2 10500.8 1286.2 10503.3 1295.2 10505.3 1304.2 10507.8 1313.2 10509.8 1321.7 10511.8 1330.7 10513.8 1339.7 10515.3 1348.7 10517.3 1357.7 10518.8 1366.2 10520.3 1375.2 10521.8 1384.2 10523.3 1393.2 10524.8"/>
<path transform="matrix(.1,0,0,-.1,-26.02615,1097.0919)" stroke-width="2.5" stroke-linecap="butt" stroke-dasharray="10,15" stroke-miterlimit="3.8" stroke-linejoin="miter" fill="none" stroke="#000000" d="M1393.2 10524.8 1398.2 10525.3H1399.2L1400.2 10525.8H1401.7 1402.2L1407.2 10526.8 1410.7 10527.3 1419.7 10528.3 1428.7 10529.3 1437.7 10530.3 1446.2 10531.3 1455.2 10532.3 1464.2 10533.3 1473.2 10534.3 1482.2 10534.8 1490.7 10535.8 1499.7 10536.3 1508.7 10537.3 1517.7 10537.8 1526.7 10538.3 1535.2 10538.8 1544.2 10539.8 1553.2 10540.3 1562.2 10540.8 1571.2 10541.3H1575.2 1575.7 1576.2 1577.2 1579.2L1579.7 10541.8H1584.2 1588.7L1597.7 10542.3 1606.7 10542.8 1615.7 10543.3 1624.2 10543.8H1633.2L1642.2 10544.3 1651.2 10544.8H1660.2L1668.7 10545.3H1677.7L1686.7 10545.8H1695.7L1704.7 10546.3H1713.2L1722.2 10546.8H1731.2 1740.2L1748.7 10547.3H1757.7 1766.7L1775.7 10547.8H1784.7 1793.2L1802.2 10548.3H1811.2 1820.2 1829.2 1837.7L1846.7 10548.8H1855.7 1864.7 1873.7 1882.2L1891.2 10549.3H1900.2 1909.2 1918.2 1926.7 1935.7 1944.7 1953.7L1962.7 10549.8H1971.2 1980.2 1989.2 1998.2 2007.2 2015.7 2024.7 2033.7 2042.7 2051.2 2060.2L2069.2 10550.3H2078.2 2087.2 2095.7 2104.7 2113.7 2122.7 2131.7 2140.2 2149.2 2158.2 2167.2 2176.2 2184.7 2193.7 2202.7 2211.7"/>
<path transform="matrix(.1,0,0,-.1,-26.02615,1097.0919)" stroke-width="2.5" stroke-linecap="butt" stroke-dasharray="10,15" stroke-miterlimit="3.8" stroke-linejoin="miter" fill="none" stroke="#000000" d="M2211.7 10550.3H2416.2L2425.2 10550.8H2460.7"/>
<path transform="matrix(.1,0,0,-.1,-26.02615,1097.0919)" stroke-width="2.5" stroke-linecap="butt" stroke-dasharray="10,15" stroke-miterlimit="3.8" stroke-linejoin="miter" fill="none" stroke="#000000" d="M690.199 9517.8H1044.2V9707.3L1044.7 9707.8V9709.8L1045.2 9714.3 1046.2 9721.8 1047.7 9736.8 1053.2 9777.8 1055.2 9790.8 1063.7 9847.3 1072.7 9893.8 1081.7 9933.3 1090.7 9966.3 1099.7 9994.8 1108.2 10018.8 1117.2 10040.3 1126.2 10058.8 1135.2 10075.3 1143.7 10090.3 1152.7 10103.3 1161.7 10115.8 1170.7 10126.8 1179.7 10136.8 1188.2 10146.3 1197.2 10155.3 1206.2 10163.3 1215.2 10171.3 1221.2 10176.3H1221.7L1222.2 10176.8 1223.2 10177.8 1224.2 10178.3 1224.7 10178.8 1230.2 10183.3 1232.7 10185.3 1241.7 10191.3 1250.7 10197.3 1259.7 10203.3 1268.7 10208.8 1277.2 10213.8 1286.2 10218.8 1295.2 10223.3 1304.2 10227.3 1313.2 10231.8 1321.7 10235.8 1330.7 10239.3 1339.7 10242.8 1348.7 10246.3 1357.7 10249.3 1366.2 10252.3 1375.2 10255.3 1384.2 10258.3 1393.2 10260.8 1398.2 10262.3"/>
<path transform="matrix(.1,0,0,-.1,-26.02615,1097.0919)" stroke-width="2.5" stroke-linecap="butt" stroke-dasharray="10,15" stroke-miterlimit="3.8" stroke-linejoin="miter" fill="none" stroke="#000000" d="M1398.2 10262.3H1399.2L1400.2 10262.8 1401.7 10263.3H1402.2L1407.2 10264.8 1410.7 10265.3 1419.7 10267.8 1428.7 10269.8 1437.7 10271.8 1446.2 10273.8 1455.2 10275.8 1464.2 10277.3 1473.2 10279.3 1482.2 10280.8 1490.7 10282.3 1499.7 10283.8 1508.7 10284.8 1517.7 10286.3 1526.7 10287.3 1535.2 10288.8 1544.2 10289.8 1553.2 10290.8 1562.2 10291.8 1571.2 10292.8 1575.2 10293.3H1575.7 1576.2 1577.2L1579.2 10293.8H1579.7L1584.2 10294.3 1588.7 10294.8 1597.7 10295.3 1606.7 10296.3 1615.7 10296.8 1624.2 10297.8 1633.2 10298.3 1642.2 10298.8 1651.2 10299.3 1660.2 10300.3 1668.7 10300.8 1677.7 10301.3 1686.7 10301.8 1695.7 10302.3 1704.7 10302.8H1713.2L1722.2 10303.3 1731.2 10303.8 1740.2 10304.3 1748.7 10304.8H1757.7L1766.7 10305.3H1775.7L1784.7 10305.8 1793.2 10306.3H1802.2L1811.2 10306.8H1820.2 1829.2L1837.7 10307.3H1846.7L1855.7 10307.8H1864.7 1873.7L1882.2 10308.3H1891.2 1900.2L1909.2 10308.8H1918.2 1926.7 1935.7L1944.7 10309.3H1953.7 1962.7 1971.2 1980.2L1989.2 10309.8H1998.2 2007.2 2015.7 2024.7 2033.7 2042.7L2051.2 10310.3H2060.2 2069.2 2078.2 2087.2 2095.7 2104.7 2113.7 2122.7L2131.7 10310.8H2140.2 2149.2 2158.2 2167.2 2176.2 2184.7 2193.7 2202.7 2211.7 2220.7"/>
<path transform="matrix(.1,0,0,-.1,-26.02615,1097.0919)" stroke-width="2.5" stroke-linecap="butt" stroke-dasharray="10,15" stroke-miterlimit="3.8" stroke-linejoin="miter" fill="none" stroke="#000000" d="M2220.7 10310.8H2309.7L2318.2 10311.3H2460.7"/>
<path transform="matrix(.1,0,0,-.1,-26.02615,1097.0919)" stroke-width="2.5" stroke-linecap="butt" stroke-dasharray="10,15" stroke-miterlimit="3.8" stroke-linejoin="miter" fill="none" stroke="#000000" d="M690.199 9517.8H1221.2V9706.8L1221.7 9707.3V9708.3L1222.2 9710.8 1223.2 9715.3 1224.2 9719.8 1224.7 9723.8 1230.2 9747.3 1232.7 9758.3 1241.7 9790.3 1250.7 9816.3 1259.7 9838.8 1268.7 9857.3 1277.2 9873.3 1286.2 9887.3 1295.2 9899.3 1304.2 9909.8 1313.2 9918.8 1321.7 9927.3 1330.7 9934.8 1339.7 9941.8 1348.7 9948.3 1357.7 9953.8 1366.2 9959.3 1375.2 9964.3 1384.2 9969.3 1393.2 9973.3 1398.2 9975.8H1398.7"/>
<path transform="matrix(.1,0,0,-.1,-26.02615,1097.0919)" stroke-width="2.5" stroke-linecap="butt" stroke-dasharray="10,15" stroke-miterlimit="3.8" stroke-linejoin="miter" fill="none" stroke="#000000" d="M1398.7 9975.8V9976.3H1399.2L1400.2 9976.8 1401.7 9977.8H1402.2L1407.2 9979.8 1410.7 9981.3 1419.7 9985.3 1428.7 9988.3 1437.7 9991.8 1446.2 9994.8 1455.2 9997.8 1464.2 10000.8 1473.2 10003.3 1482.2 10005.8 1490.7 10007.8 1499.7 10010.3 1508.7 10012.3 1517.7 10014.3 1526.7 10016.3 1535.2 10018.3 1544.2 10019.8 1553.2 10021.8 1562.2 10023.3 1571.2 10024.8 1575.2 10025.3H1575.7 1576.2L1577.2 10025.8H1579.2 1579.7L1584.2 10026.8 1588.7 10027.3 1597.7 10028.8 1606.7 10029.8 1615.7 10030.8 1624.2 10032.3 1633.2 10033.3 1642.2 10034.3 1651.2 10035.3 1660.2 10035.8 1668.7 10036.8 1677.7 10037.8 1686.7 10038.3 1695.7 10039.3 1704.7 10039.8 1713.2 10040.8 1722.2 10041.3 1731.2 10041.8 1740.2 10042.3 1748.7 10042.8 1757.7 10043.3 1766.7 10043.8 1775.7 10044.3 1784.7 10044.8 1793.2 10045.3 1802.2 10045.8 1811.2 10046.3H1820.2L1829.2 10046.8 1837.7 10047.3H1846.7L1855.7 10047.8H1864.7L1873.7 10048.3H1882.2L1891.2 10048.8H1900.2L1909.2 10049.3H1918.2L1926.7 10049.8H1935.7 1944.7L1953.7 10050.3H1962.7 1971.2L1980.2 10050.8H1989.2 1998.2L2007.2 10051.3H2015.7 2024.7 2033.7 2042.7L2051.2 10051.8H2060.2 2069.2 2078.2 2087.2 2095.7L2104.7 10052.3H2113.7 2122.7 2131.7 2140.2 2149.2 2158.2 2167.2L2176.2 10052.8H2184.7 2193.7 2202.7 2211.7 2220.7"/>
<path transform="matrix(.1,0,0,-.1,-26.02615,1097.0919)" stroke-width="2.5" stroke-linecap="butt" stroke-dasharray="10,15" stroke-miterlimit="3.8" stroke-linejoin="miter" fill="none" stroke="#000000" d="M2220.7 10052.8H2300.7L2309.7 10053.3H2460.7"/>
<path transform="matrix(.1,0,0,-.1,-26.02615,1097.0919)" stroke-width="2.5" stroke-linecap="butt" stroke-dasharray="10,15" stroke-miterlimit="3.8" stroke-linejoin="miter" fill="none" stroke="#000000" d="M690.199 9517.8H1398.2V9706.8H1398.7V9707.3"/>
<path transform="matrix(.1,0,0,-.1,-26.02615,1097.0919)" stroke-width="2.5" stroke-linecap="butt" stroke-dasharray="10,15" stroke-miterlimit="3.8" stroke-linejoin="miter" fill="none" stroke="#000000" d="M1398.7 9707.3 1399.2 9708.3 1400.2 9710.3 1401.7 9714.3H1402.2L1407.2 9725.3 1410.7 9731.8 1419.7 9746.3 1428.7 9758.3 1437.7 9768.3 1446.2 9776.8 1455.2 9783.8 1464.2 9789.8 1473.2 9795.3 1482.2 9800.3 1490.7 9804.3 1499.7 9808.3 1508.7 9811.8 1517.7 9814.8 1526.7 9817.8 1535.2 9820.3 1544.2 9822.8 1553.2 9825.3 1562.2 9827.3 1571.2 9829.3 1575.2 9830.3H1575.7 1576.2L1577.2 9830.8H1579.2L1579.7 9831.3 1584.2 9832.3 1588.7 9832.8 1597.7 9834.8 1606.7 9836.3 1615.7 9837.8 1624.2 9839.3 1633.2 9840.3 1642.2 9841.8 1651.2 9842.8 1660.2 9843.8 1668.7 9845.3 1677.7 9846.3 1686.7 9847.3 1695.7 9847.8 1704.7 9848.8 1713.2 9849.8 1722.2 9850.3 1731.2 9851.3 1740.2 9851.8 1748.7 9852.8 1757.7 9853.3 1766.7 9853.8 1775.7 9854.3 1784.7 9855.3 1793.2 9855.8 1802.2 9856.3 1811.2 9856.8 1820.2 9857.3H1829.2L1837.7 9857.8 1846.7 9858.3 1855.7 9858.8H1864.7L1873.7 9859.3 1882.2 9859.8H1891.2L1900.2 9860.3 1909.2 9860.8H1918.2L1926.7 9861.3H1935.7 1944.7L1953.7 9861.8H1962.7L1971.2 9862.3H1980.2 1989.2L1998.2 9862.8H2007.2 2015.7L2024.7 9863.3H2033.7 2042.7 2051.2L2060.2 9863.8H2069.2 2078.2 2087.2L2095.7 9864.3H2104.7 2113.7 2122.7 2131.7 2140.2 2149.2L2158.2 9864.8H2167.2 2176.2 2184.7 2193.7 2202.7 2211.7 2220.7 2229.2"/>
<path transform="matrix(.1,0,0,-.1,-26.02615,1097.0919)" stroke-width="2.5" stroke-linecap="butt" stroke-dasharray="10,15" stroke-miterlimit="3.8" stroke-linejoin="miter" fill="none" stroke="#000000" d="M2229.2 9864.8 2238.2 9865.3H2380.7L2389.7 9865.8H2398.2 2407.2 2416.2 2425.2 2434.2 2442.7 2451.7 2460.7"/>
<path transform="matrix(.1,0,0,-.1,-26.02615,1097.0919)" stroke-width="2.5" stroke-linecap="butt" stroke-dasharray="10,15" stroke-miterlimit="3.8" stroke-linejoin="miter" fill="none" stroke="#000000" d="M690.199 9517.8H1401.7"/>
<path transform="matrix(.1,0,0,-.1,-26.02615,1097.0919)" stroke-width="2.5" stroke-linecap="butt" stroke-dasharray="10,15" stroke-miterlimit="3.8" stroke-linejoin="miter" fill="none" stroke="#000000" d="M1401.7 9517.8H1575.2L1575.7 9706.3V9706.8L1576.2 9707.3 1577.2 9707.8 1579.2 9709.3 1579.7 9710.3 1584.2 9713.3 1588.7 9716.3 1597.7 9721.8 1606.7 9725.8 1615.7 9729.3 1624.2 9732.3 1633.2 9735.3 1642.2 9737.3 1651.2 9739.3 1660.2 9741.3 1668.7 9742.8 1677.7 9744.3 1686.7 9745.3 1695.7 9746.3 1704.7 9747.3 1713.2 9748.3 1722.2 9749.3 1731.2 9750.3 1740.2 9750.8 1748.7 9751.8 1757.7 9752.3 1766.7 9753.3 1775.7 9753.8 1784.7 9754.3 1793.2 9754.8 1802.2 9755.3 1811.2 9755.8 1820.2 9756.3 1829.2 9756.8 1837.7 9757.3H1846.7L1855.7 9757.8 1864.7 9758.3 1873.7 9758.8H1882.2L1891.2 9759.3H1900.2L1909.2 9759.8H1918.2L1926.7 9760.3H1935.7L1944.7 9760.8H1953.7L1962.7 9761.3H1971.2 1980.2L1989.2 9761.8H1998.2L2007.2 9762.3H2015.7 2024.7 2033.7L2042.7 9762.8H2051.2 2060.2 2069.2L2078.2 9763.3H2087.2 2095.7 2104.7 2113.7 2122.7L2131.7 9763.8H2140.2 2149.2 2158.2 2167.2 2176.2 2184.7L2193.7 9764.3H2202.7 2211.7 2220.7 2229.2 2238.2 2247.2"/>
<path transform="matrix(.1,0,0,-.1,-26.02615,1097.0919)" stroke-width="2.5" stroke-linecap="butt" stroke-dasharray="10,15" stroke-miterlimit="3.8" stroke-linejoin="miter" fill="none" stroke="#000000" d="M2247.2 9764.3H2300.7L2309.7 9764.8H2460.7"/>
<path transform="matrix(.1,0,0,-.1,-26.02615,1097.0919)" stroke-width="2.5" stroke-linecap="butt" stroke-miterlimit="3.8" stroke-linejoin="miter" fill="none" stroke="#000000" d="M690.199 10725.3V9517.8H2460.7V10725.3H690.199Z"/>
<use data-text="L" xlink:href="#font_3_2" transform="matrix(0,-9.96264,-9.96264,-0,13.573849,105.6319)" fill="#231f20"/>
<use data-text="k" xlink:href="#font_4_1" transform="matrix(0,-6.97385,-6.97385,-0,15.013687,98.79205)" fill="#231f20"/>
<use data-text="," xlink:href="#font_4_2" transform="matrix(0,-6.97385,-6.97385,-0,15.013687,94.47211)" fill="#231f20"/>
<use data-text="&#x00b5;" xlink:href="#font_4_3" transform="matrix(0,-6.97385,-6.97385,-0,15.013687,92.07214)" fill="#231f20"/>
<use data-text="(" xlink:href="#font_2_9" transform="matrix(0,-9.96264,-9.96264,-0,13.573849,86.67218)" fill="#231f20"/>
<use data-text="t" xlink:href="#font_3_1" transform="matrix(0,-9.96264,-9.96264,-0,13.573849,82.83234)" fill="#231f20"/>
<use data-text="," xlink:href="#font_3_3" transform="matrix(0,-9.96264,-9.96264,-0,13.573849,79.2323)" fill="#231f20"/>
<use data-text="t" xlink:href="#font_3_1" transform="matrix(0,-9.96264,-9.96264,-0,13.573849,74.792789)" fill="#231f20"/>
<use data-text="&#x2032;" xlink:href="#font_5_1" transform="matrix(0,-6.97385,-6.97385,-0,9.97385,71.19214)" fill="#231f20"/>
<use data-text=")" xlink:href="#font_2_10" transform="matrix(0,-9.96264,-9.96264,-0,13.573849,68.43201)" fill="#231f20"/>
<use data-text="t" xlink:href="#font_3_1" transform="matrix(9.96264,0,0,-9.96264,129.73384,175.23194)" fill="#231f20"/>
<use data-text="m" xlink:href="#font_2_6" transform="matrix(9.96264,0,0,-9.96264,117.013538,10.471924)" fill="#231f20"/>
<use data-text="a" xlink:href="#font_2_3" transform="matrix(9.96264,0,0,-9.96264,125.29353,10.471924)" fill="#231f20"/>
<use data-text="t" xlink:href="#font_2_2" transform="matrix(9.96264,0,0,-9.96264,130.33353,10.471924)" fill="#231f20"/>
<use data-text="r" xlink:href="#font_2_1" transform="matrix(9.96264,0,0,-9.96264,134.17354,10.471924)" fill="#231f20"/>
<use data-text="i" xlink:href="#font_2_5" transform="matrix(9.96264,0,0,-9.96264,138.13353,10.471924)" fill="#231f20"/>
<use data-text="x" xlink:href="#font_2_4" transform="matrix(9.96264,0,0,-9.96264,140.89319,10.471924)" fill="#231f20"/>
</g>
</svg>
