<svg xmlns="http://www.w3.org/2000/svg" xmlns:xlink="http://www.w3.org/1999/xlink" xmlns:inkscape="http://www.inkscape.org/namespaces/inkscape" version="1.1" width="230.595" height="180.42688" viewBox="0 0 230.595 180.42688">
<defs>
<clipPath id="clip_1">
<path transform="matrix(1,0,0,-1,-26.02615,1097.0919)" d="M26.02615 916.66506H256.62117V1097.0919H26.02615Z" clip-rule="evenodd"/>
</clipPath>
<path id="font_2_14" d="M.45999146 .31976319C.45999146 .39982606 .45498658 .47988893 .41999818 .5539398 .37399293 .65000918 .2919922 .6660156 .25 .6660156 .18998719 .6660156 .116989139 .64001467 .07598877 .54693606 .04399109 .47789 .038986207 .39982606 .038986207 .31976319 .038986207 .24472046 .042999269 .15464783 .083999637 .07859802 .1269989-.0024719239 .19999695-.022460938 .24899292-.022460938 .30299378-.022460938 .3789978-.0014648438 .4229889 .09359741 .45498658 .16265869 .45999146 .2407074 .45999146 .31976319M.24899292-.00047302247C.20999146-.00047302247 .15098572 .024551392 .1329956 .12062073 .12199402 .18066406 .12199402 .2727356 .12199402 .3317871 .12199402 .39582826 .12199402 .46188355 .12998963 .5159149 .14898682 .63500979 .22399903 .64401248 .24899292 .64401248 .28199769 .64401248 .34799195 .6259918 .36698915 .52693179 .3769989 .47088624 .3769989 .39482118 .3769989 .3317871 .3769989 .25672914 .3769989 .18867493 .3659973 .12461853 .35099793 .029556275 .2939911-.00047302247 .24899292-.00047302247Z"/>
<path id="font_2_15" d="M.2939911 .64004519C.2939911 .66400149 .2939911 .6660156 .2709961 .6660156 .20899964 .60227969 .12098694 .60227969 .08898926 .60227969V.57128909C.10899353 .57128909 .16799927 .57128909 .21998596 .5972748V.07902527C.21998596 .042999269 .21699524 .0309906 .1269989 .0309906H.09498596V0C.12998963 .0029907227 .21699524 .0029907227 .25698854 .0029907227 .29699708 .0029907227 .38398744 .0029907227 .4189911 0V.0309906H.3869934C.29699708 .0309906 .2939911 .041992189 .2939911 .07902527V.64004519Z"/>
<path id="font_2_16" d="M.1269989 .07699585 .23298645 .18003845C.3889923 .31811524 .44898988 .3721466 .44898988 .47216798 .44898988 .5860901 .35899354 .6660156 .23699951 .6660156 .12399292 .6660156 .049987794 .57411196 .049987794 .48516847 .049987794 .4291687 .099990848 .4291687 .102996829 .4291687 .11999512 .4291687 .15499878 .44117738 .15499878 .48217774 .15499878 .5081787 .13699341 .5341797 .101989749 .5341797 .09399414 .5341797 .09199524 .5341797 .08898926 .5331726 .11199951 .59806826 .1659851 .63500979 .22399903 .63500979 .31498719 .63500979 .35798646 .5541382 .35798646 .47216798 .35798646 .39215089 .30799867 .31311036 .25299073 .25108338L.06098938 .036987306C.049987794 .025985718 .049987794 .023986817 .049987794 0H.42099L.44898988 .17404175H.42399598C.4189911 .14402771 .4119873 .1000061 .4019928 .084991458 .394989 .07699585 .32899476 .07699585 .30699159 .07699585H.1269989Z"/>
<path id="font_2_17" d="M.2899933 .35191346C.37199403 .37893678 .42999269 .4490509 .42999269 .52809146 .42999269 .6100464 .34199525 .6660156 .24598694 .6660156 .14498902 .6660156 .068984989 .60606387 .068984989 .53009036 .068984989 .49710084 .09098816 .47808839 .11999512 .47808839 .15098572 .47808839 .17098999 .50009158 .17098999 .5290985 .17098999 .57910159 .12399292 .57910159 .10899353 .57910159 .13999939 .62802127 .20599365 .64100649 .24198914 .64100649 .2829895 .64100649 .33799745 .6190338 .33799745 .5290985 .33799745 .51708987 .33599855 .45906068 .30999757 .4149933 .27999879 .36691285 .24598694 .36390687 .22099304 .36291505 .21299744 .36190797 .18899536 .35990907 .18199158 .35990907 .17399597 .35890199 .16699219 .35791017 .16699219 .3479004 .16699219 .33691407 .17399597 .33691407 .19099427 .33691407H.23498535C.31698609 .33691407 .35398866 .2686615 .35398866 .17037964 .35398866 .034469606 .2849884 .0055389406 .24099732 .0055389406 .19799805 .0055389406 .12298584 .022491456 .08799744 .08137512 .12298584 .07637024 .1539917 .09837341 .1539917 .1363678 .1539917 .17237854 .1269989 .19238281 .09799194 .19238281 .07398987 .19238281 .041992189 .17837525 .041992189 .1343689 .041992189 .043441774 .1349945-.022460938 .24398804-.022460938 .3659973-.022460938 .45700074 .06838989 .45700074 .17037964 .45700074 .252594 .3939972 .33088685 .2899933 .35191346Z"/>
<path id="font_2_18" d="M.2939911 .16503906V.07800293C.2939911 .041992189 .2919922 .0309906 .21798706 .0309906H.19699097V0C.23799134 .0029907227 .2899933 .0029907227 .33198548 .0029907227 .37399293 .0029907227 .4269867 .0029907227 .46798707 0V.0309906H.44699098C.37298585 .0309906 .37098695 .041992189 .37098695 .07800293V.16503906H.47099305V.19602967H.37098695V.65075686C.37098695 .67074587 .37098695 .6767578 .35499574 .6767578 .34599305 .6767578 .34298707 .6767578 .33499146 .66474917L.027999878 .19602967V.16503906H.2939911M.2999878 .19602967H.055999757L.2999878 .5688019V.19602967Z"/>
<path id="font_2_10" d="M.13198853 .327713V.35173036C.13198853 .6047821 .2559967 .64100649 .30699159 .64100649 .33099366 .64100649 .37298585 .634964 .394989 .6007538 .37998963 .6007538 .33999635 .6007538 .33999635 .5557556 .33999635 .524765 .3639984 .5097656 .38598634 .5097656 .4019928 .5097656 .43199159 .51875308 .43199159 .5577545 .43199159 .6178589 .3880005 .6660156 .30499269 .6660156 .1769867 .6660156 .041992189 .5367584 .041992189 .31570436 .041992189 .048553468 .1579895-.022460938 .25099183-.022460938 .3619995-.022460938 .45700074 .07156372 .45700074 .2036438 .45700074 .33070375 .36799623 .4267578 .25698854 .4267578 .18899536 .4267578 .1519928 .37573243 .13198853 .327713M.25099183 .0055389406C.18798828 .0055389406 .1579895 .06556702 .1519928 .080566409 .13398743 .127594 .13398743 .2076416 .13398743 .22564698 .13398743 .30369569 .1659851 .40374757 .2559967 .40374757 .27198792 .40374757 .31799317 .40374757 .34899903 .34172059 .36698915 .30470277 .36698915 .2536621 .36698915 .20463562 .36698915 .15661621 .36698915 .10658264 .34999085 .0705719 .31999208 .010528564 .27398683 .0055389406 .25099183 .0055389406Z"/>
<path id="font_2_11" d="M.16299439 .4569702C.116989139 .486969 .11299133 .52098086 .11299133 .5379791 .11299133 .598999 .17799378 .64100649 .24899292 .64100649 .32199098 .64100649 .38598634 .58898928 .38598634 .51698306 .38598634 .45996095 .34700013 .4119568 .2869873 .37695313L.16299439 .4569702M.30899049 .36193849C.3809967 .3989563 .42999269 .45095826 .42999269 .51698306 .42999269 .6090088 .34098817 .6660156 .25 .6660156 .1499939 .6660156 .068984989 .59199526 .068984989 .49897767 .068984989 .4809723 .070999149 .43595887 .11299133 .38894654 .12399292 .37695313 .16099549 .35194398 .18598938 .33494569 .12799073 .30592347 .041992189 .24984741 .041992189 .15072632 .041992189 .04458618 .14399719-.022460938 .24899292-.022460938 .3619995-.022460938 .45700074 .06060791 .45700074 .16773987 .45700074 .20379639 .44599916 .24885559 .4079895 .2909088 .3889923 .31193543 .37298585 .3219452 .30899049 .36193849M.20899964 .3199463 .33198548 .24183655C.3600006 .2228241 .40699769 .19277954 .40699769 .13169861 .40699769 .05760193 .33198548 .0055389406 .25 .0055389406 .1639862 .0055389406 .09199524 .067611698 .09199524 .15072632 .09199524 .20880127 .12399292 .27288819 .20899964 .3199463Z"/>
<path id="font_3_2" d="M.37399293 .6046295C.3829956 .64060977 .38598634 .6516113 .47999574 .6516113 .5099945 .6516113 .5179901 .6516113 .5179901 .6706085 .5179901 .6826172 .5069885 .6826172 .5019989 .6826172 .46899415 .6826172 .3869934 .6796112 .35398866 .6796112 .32398988 .6796112 .25099183 .6826172 .22099304 .6826172 .21398926 .6826172 .20199585 .6826172 .20199585 .6626129 .20199585 .6516113 .21099854 .6516113 .22999573 .6516113 .23199463 .6516113 .25099183 .6516113 .2679901 .6496124 .28599549 .6476135 .29499818 .64660647 .29499818 .6336212 .29499818 .6296234 .2939911 .62661746 .29100038 .614624L.15699768 .07795715C.14698792 .038986207 .14498902 .0309906 .06599426 .0309906 .04899597 .0309906 .038986207 .0309906 .038986207 .010986328 .038986207 0 .04798889 0 .06599426 0H.5289917C.5529938 0 .55400088 0 .55999758 .016998291L.6389923 .23286438C.6429901 .24386597 .6429901 .24586487 .6429901 .24685669 .6429901 .2508545 .6399994 .25785829 .6309967 .25785829 .621994 .25785829 .62098696 .2528534 .6139984 .23686219 .5799866 .14492798 .5359955 .0309906 .36299134 .0309906H.2689972C.25498963 .0309906 .25299073 .0309906 .24699402 .03199768 .23699951 .032989503 .23399353 .033996583 .23399353 .041992189 .23399353 .04498291 .23399353 .04698181 .23899842 .064971927L.37399293 .6046295Z"/>
<path id="font_4_1" d="M.31298829 .66430667C.31399537 .66630557 .31698609 .67930606 .31698609 .68029788 .31698609 .68530276 .31298829 .6943054 .30099488 .6943054 .2809906 .6943054 .19799805 .6863098 .17298889 .6843109 .16499329 .68330386 .15098572 .682312 .15098572 .66130068 .15098572 .64730837 .16499329 .64730837 .1769867 .64730837 .22499085 .64730837 .22499085 .64030459 .22499085 .63230898 .22499085 .62532046 .22299195 .61932376 .22099304 .61032107L.07998657 .04425049C.07499695 .026229859 .07499695 .024230957 .07499695 .022232056 .07499695 .007232666 .08699036-.009765625 .10899353-.009765625 .13598633-.009765625 .14898682 .010223389 .15499878 .03224182 .15699768 .036239625 .19999695 .21234131 .20399475 .22636414 .2749939 .21936035 .33198548 .19633484 .33198548 .14430237 .33198548 .13929749 .33198548 .1342926 .32998658 .124298099 .32598878 .10928345 .32598878 .104278568 .32598878 .09327698 .32598878 .022232056 .38398744-.009765625 .43199159-.009765625 .5289917-.009765625 .5589905 .14230347 .5589905 .14331055 .5589905 .15631104 .54599 .15631104 .54299929 .15631104 .5289917 .15631104 .5279999 .15130615 .522995 .1322937 .5109863 .089263919 .48399354 .018234253 .43499757 .018234253 .4079895 .018234253 .3999939 .04324341 .3999939 .07026672 .3999939 .087265018 .3999939 .089263919 .4059906 .11528015 .40699769 .11828613 .41099549 .13529969 .41099549 .14630127 .41099549 .23536682 .29100038 .24937439 .24899292 .25238038 .27799989 .27038575 .31498719 .30340577 .33198548 .31840516 .3829956 .3664093 .43299867 .4133911 .4889984 .4133911 .5009918 .4133911 .5139923 .4104004 .5219879 .40040589 .47898866 .3934021 .46998597 .35940553 .46998597 .34440614 .46998597 .32240296 .4869995 .30740357 .5099945 .30740357 .5369873 .30740357 .5669861 .32940675 .5669861 .37139894 .5669861 .4044037 .54299929 .44140626 .48999024 .44140626 .43299867 .44140626 .3809967 .40040589 .32998658 .3534088 .28799439 .31340028 .25498963 .2823944 .21398926 .26538087L.31298829 .66430667Z"/>
<path id="font_4_2" d="M.21099854 .015991211C.21099854-.03907776 .20098877-.10321045 .1329956-.16732788 .1289978-.17134094 .12599182-.17434693 .12599182-.17933655 .12599182-.18634033 .13398743-.19334412 .13999939-.19334412 .1539917-.19334412 .23899842-.113220218 .23899842 .005996704 .23899842 .067993167 .21499634 .114990238 .16899109 .114990238 .13598633 .114990238 .11199951 .08898926 .11199951 .057998659 .11199951 .025985718 .1349945 0 .16999817 0 .19400025 0 .20999146 .015991211 .21099854 .015991211Z"/>
<path id="font_4_3" d="M.053985597-.16085816C.049987794-.1758728 .049987794-.18086243 .049987794-.1818695 .049987794-.20387268 .067993167-.21386719 .083999637-.21386719 .11999512-.21386719 .12799073-.18086243 .13198853-.16386414 .13398743-.15885926 .1539917-.078811649 .17799378 .019226075 .20899964-.0017700195 .24899292-.009765625 .2849884-.009765625 .37098695-.009765625 .4269867 .0602417 .42900086 .0622406 .44799806-.0067749025 .5169983-.009765625 .5319977-.009765625 .56799319-.009765625 .59298709 .01222229 .61099246 .04324341 .6329956 .08226013 .6459961 .13928223 .6459961 .14328003 .6459961 .15628052 .6329956 .15628052 .6299896 .15628052 .6159973 .15628052 .61499026 .15228272 .60798647 .12527466 .59599307 .07725525 .57699587 .018234253 .5349884 .018234253 .5089874 .018234253 .5019989 .040237428 .5019989 .06724548 .5019989 .08425903 .5099945 .120269779 .5169983 .14628601 .5239868 .17329407 .5339966 .21430969 .5389862 .23631287L.56199648 .3253479C.56799319 .3503723 .57899478 .39437867 .57899478 .39938355 .57899478 .41938783 .5629883 .43139649 .54599 .43139649 .5349884 .43139649 .5159912 .4263916 .5049896 .4073944 .5019989 .40138246 .49398805 .3693695 .4889984 .34936524L.46798707 .2663269 .43699647 .14128113C.42999269 .11627197 .42999269 .11427307 .42099 .101257327 .3899994 .057235719 .34599305 .018234253 .2889862 .018234253 .20698548 .018234253 .20698548 .089263919 .20698548 .10726929 .20698548 .13327027 .20999146 .14628601 .22399903 .20030213 .23399353 .24432373 .23599243 .2513275 .24598694 .29034425L.2599945 .34635926C.2649994 .3673706 .2749939 .4053955 .2749939 .4093933 .2749939 .42739869 .26098634 .44140626 .24099732 .44140626 .20498657 .44140626 .19599915 .40638734 .19299317 .39437867L.053985597-.16085816Z"/>
<path id="font_2_12" d="M.33099366-.2400055C.33099366-.23701477 .33099366-.23500061 .31399537-.21800232 .18899536-.0920105 .15699768 .09700012 .15699768 .25 .15699768 .42399598 .19499207 .59799197 .31799317 .72299197 .33099366 .73498538 .33099366 .7369995 .33099366 .73999026 .33099366 .746994 .32699586 .75 .32099916 .75 .31098939 .75 .22099304 .6819916 .1619873 .5549927 .11099243 .44499208 .09899902 .33399964 .09899902 .25 .09899902 .17199707 .10998535 .050994874 .16499329-.06201172 .22499085-.18501282 .31098939-.25 .32099916-.25 .32699586-.25 .33099366-.24700928 .33099366-.2400055Z"/>
<path id="font_3_1" d="M.20599365 .3996582H.2999878C.31999208 .3996582 .32998658 .3996582 .32998658 .41966249 .32998658 .43066407 .31999208 .43066407 .3019867 .43066407H.21398926C.25 .5724945 .25498963 .59246829 .25498963 .59846499 .25498963 .61546328 .24299622 .62545779 .22599793 .62545779 .22299195 .62545779 .19499207 .62446597 .18598938 .58947756L.14698792 .43066407H.052993776C.032989503 .43066407 .022994996 .43066407 .022994996 .4116516 .022994996 .3996582 .0309906 .3996582 .050994874 .3996582H.13899231C.066986087 .11608887 .06298828 .099121097 .06298828 .08114624 .06298828 .02722168 .100997928-.0107421879 .15499878-.0107421879 .25698854-.0107421879 .31399537 .13505554 .31399537 .14305115 .31399537 .1530304 .30599977 .1530304 .3019867 .1530304 .29299928 .1530304 .2919922 .15003968 .2869873 .13905335 .24398804 .035217287 .19099427 .011245728 .15699768 .011245728 .13598633 .011245728 .12599182 .024230957 .12599182 .057174684 .12599182 .08114624 .12799073 .088134769 .13198853 .10510254L.20599365 .3996582Z"/>
<path id="font_3_3" d="M.20298767 .0009918213C.20298767 .066986087 .17799378 .10598755 .13899231 .10598755 .10598755 .10598755 .085998538 .08099365 .085998538 .052993776 .085998538 .025985718 .10598755 0 .13899231 0 .15098572 0 .1639862 .0039978029 .17399597 .0129852299 .1769867 .01499939 .17799378 .015991211 .1789856 .015991211 .17999268 .015991211 .18099976 .01499939 .18099976 .0009918213 .18099976-.07316589 .1459961-.13328552 .11299133-.16635132 .101989749-.17736817 .101989749-.17936707 .101989749-.18237305 .101989749-.18936157 .10699463-.19335938 .11199951-.19335938 .12298584-.19335938 .20298767-.116256717 .20298767 .0009918213Z"/>
<path id="font_5_1" d="M.2899933 .4720459C.2979889 .4890442 .29899598 .49705506 .29899598 .5040436 .29899598 .53504946 .2709961 .5590515 .23999024 .5590515 .20199585 .5590515 .18998719 .52804568 .18499756 .51205447L.052993776 .07901001C.051986696 .07701111 .04798889 .06401062 .04798889 .06300354 .04798889 .05101013 .07899475 .041015626 .08699036 .041015626 .09399414 .041015626 .09498596 .043014528 .101989749 .058013917L.2899933 .4720459Z"/>
<path id="font_2_13" d="M.2889862 .25C.2889862 .32798768 .27799989 .44898988 .22299195 .56199648 .16299439 .68499758 .07699585 .75 .066986087 .75 .06098938 .75 .056991579 .74598696 .056991579 .73999026 .056991579 .7369995 .056991579 .73498538 .07598877 .71699526 .17399597 .6179962 .23098755 .45899964 .23098755 .25 .23098755 .07899475 .19400025-.09700012 .069992069-.2230072 .056991579-.23500061 .056991579-.23701477 .056991579-.2400055 .056991579-.2460022 .06098938-.25 .066986087-.25 .07699585-.25 .16699219-.18200684 .22599793-.055007936 .2769928 .054992677 .2889862 .16600037 .2889862 .25Z"/>
<path id="font_2_8" d="M.1769867 .4423828 .036987306 .43138124V.40037538C.101989749 .40037538 .11099243 .3943634 .11099243 .34532167V.076034549C.11099243 .0309906 .099990848 .0309906 .032989503 .0309906V0C.06498718 .0009918213 .11898804 .0029907227 .14299011 .0029907227 .17799378 .0029907227 .21299744 .0009918213 .24699402 0V.0309906C.18099976 .0309906 .1769867 .035995485 .1769867 .075042728V.4423828M.18099976 .6159363C.18099976 .64793398 .1559906 .6689453 .12799073 .6689453 .09700012 .6689453 .07499695 .64193728 .07499695 .6159363 .07499695 .5889435 .09700012 .5629425 .12799073 .5629425 .1559906 .5629425 .18099976 .5839386 .18099976 .6159363Z"/>
<path id="font_2_1" d="M.10998535 .34429933V.076034549C.10998535 .0309906 .09899902 .0309906 .03199768 .0309906V0C.066986087 .0009918213 .117996219 .0029907227 .14498902 .0029907227 .17098999 .0029907227 .22299195 .0009918213 .25698854 0V.0309906C.18998719 .0309906 .1789856 .0309906 .1789856 .076034549V.2602234C.1789856 .36431886 .25 .42037965 .31399537 .42037965 .3769989 .42037965 .3880005 .36631776 .3880005 .30926515V.076034549C.3880005 .0309906 .3769989 .0309906 .30999757 .0309906V0C.34498597 .0009918213 .3959961 .0029907227 .4229889 .0029907227 .44898988 .0029907227 .5009918 .0009918213 .5349884 0V.0309906C.48298646 .0309906 .45799256 .0309906 .45700074 .061019899V.25221253C.45700074 .3383026 .45700074 .36932374 .42599488 .405365 .4119873 .42237855 .3789978 .4423828 .32099916 .4423828 .24798584 .4423828 .20098877 .39935304 .17298889 .33729554V.4423828L.03199768 .43138124V.40037538C.101989749 .4003601 .10998535 .39335633 .10998535 .34429933Z"/>
<path id="font_2_7" d="M.10998535 .076034549C.10998535 .0309906 .09899902 .0309906 .03199768 .0309906V0C.066986087 .0009918213 .117996219 .0029907227 .14498902 .0029907227 .17098999 .0029907227 .22299195 .0009918213 .25698854 0V.0309906C.18998719 .0309906 .1789856 .0309906 .1789856 .076034549V.2602234C.1789856 .36431886 .25 .42037965 .31399537 .42037965 .3769989 .42037965 .3880005 .36631776 .3880005 .30926515V.076034549C.3880005 .0309906 .3769989 .0309906 .30999757 .0309906V0C.34498597 .0009918213 .3959961 .0029907227 .4229889 .0029907227 .44898988 .0029907227 .5009918 .0009918213 .5349884 0V.0309906C.48298646 .0309906 .45799256 .0309906 .45700074 .061019899V.25221253C.45700074 .3383026 .45700074 .36932374 .42599488 .405365 .4119873 .42237855 .3789978 .4423828 .32099916 .4423828 .23699951 .4423828 .19299317 .38233949 .17599488 .34429933V.69433596L.03199768 .68333438V.6523285C.101989749 .6523285 .10998535 .6453247 .10998535 .596344V.076034549Z"/>
<path id="font_2_2" d="M.47099305 .21424866C.47099305 .34223939 .37098695 .4482422 .25 .4482422 .125 .4482422 .027999878 .3392334 .027999878 .21424866 .027999878 .085250858 .13198853-.0107421879 .24899292-.0107421879 .36999513-.0107421879 .47099305 .087249759 .47099305 .21424866M.25 .014251709C.20698548 .014251709 .16299439 .035247804 .13598633 .08125305 .11099243 .12524414 .11099243 .18624878 .11099243 .22224427 .11099243 .26124574 .11099243 .31523133 .1349945 .35923768 .1619873 .40522767 .20899964 .426239 .24899292 .426239 .29299928 .426239 .33599855 .40423585 .3619995 .36123658 .3880005 .3182373 .3880005 .26023866 .3880005 .22224427 .3880005 .18624878 .3880005 .13224793 .3659973 .08824158 .34399415 .04324341 .2999878 .014251709 .25 .014251709Z"/>
<path id="font_2_9" d="M.10998535 .34429933V.076034549C.10998535 .0309906 .09899902 .0309906 .03199768 .0309906V0C.066986087 .0009918213 .117996219 .0029907227 .14498902 .0029907227 .17098999 .0029907227 .22299195 .0009918213 .25698854 0V.0309906C.18998719 .0309906 .1789856 .0309906 .1789856 .076034549V.2602234C.1789856 .36431886 .25 .42037965 .31399537 .42037965 .3769989 .42037965 .3880005 .36631776 .3880005 .30926515V.076034549C.3880005 .0309906 .3769989 .0309906 .30999757 .0309906V0C.34498597 .0009918213 .3959961 .0029907227 .4229889 .0029907227 .44898988 .0029907227 .5009918 .0009918213 .5349884 0V.0309906C.46798707 .0309906 .45700074 .0309906 .45700074 .076034549V.2602234C.45700074 .36431886 .5279999 .42037965 .59199526 .42037965 .6549988 .42037965 .66600039 .36631776 .66600039 .30926515V.076034549C.66600039 .0309906 .6549988 .0309906 .58799746 .0309906V0C.6230011 .0009918213 .673996 .0029907227 .70098879 .0029907227 .72698977 .0029907227 .7789917 .0009918213 .8129883 0V.0309906C.7609863 .0309906 .73599246 .0309906 .7350006 .061019899V.25221253C.7350006 .3383026 .7350006 .36932374 .70399478 .405365 .6899872 .42237855 .6569977 .4423828 .598999 .4423828 .5149994 .4423828 .47099305 .38233949 .45399476 .34429933 .43998719 .43138124 .3659973 .4423828 .32099916 .4423828 .24798584 .4423828 .20098877 .39935304 .17298889 .33729554V.4423828L.03199768 .43138124V.40037538C.101989749 .4003601 .10998535 .39335633 .10998535 .34429933Z"/>
<path id="font_2_6" d="M.22200012 .17240906C.1349945 .17240906 .1349945 .2723999 .1349945 .2953949 .1349945 .3223877 .13598633 .35438539 .15098572 .37937928 .15899658 .39137269 .18199158 .41937257 .22200012 .41937257 .30899049 .41937257 .30899049 .3193817 .30899049 .29638673 .30899049 .26939393 .30799867 .23739624 .29299928 .21240235 .2849884 .20040894 .2619934 .17240906 .22200012 .17240906M.10598755 .13330078C.10598755 .1373291 .10598755 .16040039 .12298584 .18040467 .1619873 .15240479 .20298767 .14941406 .22200012 .14941406 .31498719 .14941406 .38398744 .21839905 .38398744 .2953949 .38398744 .3323822 .36799623 .36938478 .34298707 .39237977 .3789978 .42637635 .4149933 .43138124 .43299867 .43138124 .43499757 .43138124 .43998719 .43138124 .44299317 .43037416 .43199159 .42637635 .4269867 .41537477 .4269867 .40338136 .4269867 .38638307 .43998719 .3743744 .45599366 .3743744 .46598817 .3743744 .4850006 .38137818 .4850006 .40437318 .4850006 .42137147 .47299195 .45336915 .43399049 .45336915 .4139862 .45336915 .36999513 .44737245 .32798768 .40637208 .28599549 .43937684 .24398804 .4423828 .22200012 .4423828 .1289978 .4423828 .05999756 .37338258 .05999756 .29638673 .05999756 .25239564 .08198547 .21440125 .10699463 .19340515 .09399414 .17840576 .07598877 .14538574 .07598877 .11013794 .07598877 .07891846 .08898926 .04083252 .11999512 .020828248 .05999756 .003829956 .027999878-.039138795 .027999878-.07911682 .027999878-.15107727 .1269989-.20605469 .24899292-.20605469 .36698915-.20605469 .47099305-.15507508 .47099305-.07711792 .47099305-.042144777 .45700074 .008834839 .4059906 .036834718 .35299684 .064834598 .29499818 .064834598 .23399353 .064834598 .20899964 .064834598 .1659851 .064834598 .15899658 .065841678 .1269989 .069869998 .10598755 .10107422 .10598755 .13330078M.25-.18305969C.14898682-.18305969 .07998657-.13209534 .07998657-.07911682 .07998657-.03314209 .117996219 .003829956 .1619873 .0068359377H.22099304C.30699159 .0068359377 .4189911 .0068359377 .4189911-.07911682 .4189911-.13308716 .34799195-.18305969 .25-.18305969Z"/>
<path id="font_2_5" d="M.11199951 .2524414C.117996219 .40126039 .20199585 .426239 .23599243 .426239 .33898927 .426239 .34899903 .2913971 .34899903 .2524414H.11199951M.11099243 .23144531H.3899994C.4119873 .23144531 .4149933 .23144531 .4149933 .2524414 .4149933 .35131837 .36099244 .4482422 .23599243 .4482422 .11999512 .4482422 .027999878 .34532167 .027999878 .22042847 .027999878 .08631897 .1329956-.0107421879 .24798584-.0107421879 .36999513-.0107421879 .4149933 .10032654 .4149933 .11933899 .4149933 .12934876 .40699769 .13134766 .4019928 .13134766 .3929901 .13134766 .3909912 .12535095 .3889923 .11734009 .35398866 .014251709 .2639923 .014251709 .2539978 .014251709 .20399475 .014251709 .1639862 .044281007 .14099121 .08131409 .11099243 .12934876 .11099243 .19540406 .11099243 .23144531Z"/>
<path id="font_2_3" d="M.17298889 .3996582H.31599427V.43066407H.17298889V.6147156H.147995C.14698792 .5326996 .116989139 .42565919 .018997193 .42166139V.3996582H.10398865V.12416077C.10398865 .0012512207 .19699097-.0107421879 .23298645-.0107421879 .3039856-.0107421879 .33198548 .06021118 .33198548 .12416077V.18112183H.30699159V.12615967C.30699159 .052215578 .2769928 .014251709 .23999024 .014251709 .17298889 .014251709 .17298889 .10517883 .17298889 .122161868V.3996582Z"/>
<path id="font_2_4" d="M.4149933 .33569337C.44099427 .39866639 .49198915 .3996582 .5079956 .3996582V.43066407C.4850006 .4286499 .45599366 .42765809 .43299867 .42765809 .4149933 .42765809 .36799623 .42965699 .34599305 .43066407V.3996582C.3769989 .39866639 .3929901 .3816681 .3929901 .35668946 .3929901 .34669496 .3919983 .34469605 .3869934 .33270265L.28599549 .08683777 .1749878 .35568238C.17098999 .36567689 .16899109 .36967469 .16899109 .3736725 .16899109 .3996582 .20599365 .3996582 .22499085 .3996582V.43066407C.19898987 .42965699 .1329956 .42765809 .115997318 .42765809 .08898926 .42765809 .04899597 .4286499 .018997193 .43066407V.3996582C.066986087 .3996582 .085998538 .3996582 .099990848 .36468507L.25-.00010681152C.24499512-.0131073 .23098755-.046081544 .22499085-.05908203 .20298767-.11405945 .1749878-.18309021 .11099243-.18309021 .10598755-.18309021 .08299255-.18309021 .06399536-.16506958 .09498596-.16105652 .102996829-.1390686 .102996829-.123062137 .102996829-.09706116 .083999637-.08105469 .06098938-.08105469 .040985109-.08105469 .018997193-.094055179 .018997193-.124069217 .018997193-.16906739 .06098938-.20507813 .11099243-.20507813 .17399597-.20507813 .21499634-.14805603 .23899842-.09106445L.4149933 .33569337Z"/>
</defs>
<g clip-path="url(#clip_1)">
<use data-text="0" xlink:href="#font_2_14" transform="matrix(9.96264,0,0,-9.96264,24.85395,147.75189)" fill="#231f20"/>
<use data-text="1" xlink:href="#font_2_15" transform="matrix(9.96264,0,0,-9.96264,24.85395,108.75189)" fill="#231f20"/>
<use data-text="2" xlink:href="#font_2_16" transform="matrix(9.96264,0,0,-9.96264,24.85395,69.87219)" fill="#231f20"/>
<use data-text="3" xlink:href="#font_2_17" transform="matrix(9.96264,0,0,-9.96264,24.85395,30.872193)" fill="#231f20"/>
<use data-text="0" xlink:href="#font_2_14" transform="matrix(9.96264,0,0,-9.96264,33.97387,158.67218)" fill="#231f20"/>
<use data-text="2" xlink:href="#font_2_16" transform="matrix(9.96264,0,0,-9.96264,68.17392,158.67218)" fill="#231f20"/>
<use data-text="0" xlink:href="#font_2_14" transform="matrix(9.96264,0,0,-9.96264,73.21393,158.67218)" fill="#231f20"/>
<use data-text="4" xlink:href="#font_2_18" transform="matrix(9.96264,0,0,-9.96264,104.89383,158.67218)" fill="#231f20"/>
<use data-text="0" xlink:href="#font_2_14" transform="matrix(9.96264,0,0,-9.96264,109.93384,158.67218)" fill="#231f20"/>
<use data-text="6" xlink:href="#font_2_10" transform="matrix(9.96264,0,0,-9.96264,141.61374,158.67218)" fill="#231f20"/>
<use data-text="0" xlink:href="#font_2_14" transform="matrix(9.96264,0,0,-9.96264,146.65375,158.67218)" fill="#231f20"/>
<use data-text="8" xlink:href="#font_2_11" transform="matrix(9.96264,0,0,-9.96264,178.33365,158.67218)" fill="#231f20"/>
<use data-text="0" xlink:href="#font_2_14" transform="matrix(9.96264,0,0,-9.96264,183.37364,158.67218)" fill="#231f20"/>
<use data-text="1" xlink:href="#font_2_15" transform="matrix(9.96264,0,0,-9.96264,212.53369,158.67218)" fill="#231f20"/>
<use data-text="0" xlink:href="#font_2_14" transform="matrix(9.96264,0,0,-9.96264,217.57369,158.67218)" fill="#231f20"/>
<use data-text="0" xlink:href="#font_2_14" transform="matrix(9.96264,0,0,-9.96264,222.6137,158.67218)" fill="#231f20"/>
<path transform="matrix(.1,0,0,-.1,-26.02615,1097.0919)" stroke-width="2.5" stroke-linecap="butt" stroke-miterlimit="3.8" stroke-linejoin="miter" fill="none" stroke="#000000" d="M624.199 9517.8H655.699M2460.7 9517.8H2429.2"/>
<path transform="matrix(.1,0,0,-.1,-26.02615,1097.0919)" stroke-width="2.5" stroke-linecap="butt" stroke-miterlimit="3.8" stroke-linejoin="miter" fill="none" stroke="#000000" d="M624.199 9907.3H655.699M2460.7 9907.3H2429.2"/>
<path transform="matrix(.1,0,0,-.1,-26.02615,1097.0919)" stroke-width="2.5" stroke-linecap="butt" stroke-miterlimit="3.8" stroke-linejoin="miter" fill="none" stroke="#000000" d="M624.199 10296.8H655.699M2460.7 10296.8H2429.2"/>
<path transform="matrix(.1,0,0,-.1,-26.02615,1097.0919)" stroke-width="2.5" stroke-linecap="butt" stroke-miterlimit="3.8" stroke-linejoin="miter" fill="none" stroke="#000000" d="M624.199 10686.3H655.699M2460.7 10686.3H2429.2"/>
<path transform="matrix(.1,0,0,-.1,-26.02615,1097.0919)" stroke-width="2.5" stroke-linecap="butt" stroke-miterlimit="3.8" stroke-linejoin="miter" fill="none" stroke="#000000" d="M624.199 9517.8V9549.3M624.199 10725.3V10693.8"/>
<path transform="matrix(.1,0,0,-.1,-26.02615,1097.0919)" stroke-width="2.5" stroke-linecap="butt" stroke-miterlimit="3.8" stroke-linejoin="miter" fill="none" stroke="#000000" d="M991.699 9517.8V9549.3M991.699 10725.3V10693.8"/>
<path transform="matrix(.1,0,0,-.1,-26.02615,1097.0919)" stroke-width="2.5" stroke-linecap="butt" stroke-miterlimit="3.8" stroke-linejoin="miter" fill="none" stroke="#000000" d="M1358.7 9517.8V9549.3M1358.7 10725.3V10693.8"/>
<path transform="matrix(.1,0,0,-.1,-26.02615,1097.0919)" stroke-width="2.5" stroke-linecap="butt" stroke-miterlimit="3.8" stroke-linejoin="miter" fill="none" stroke="#000000" d="M1726.2 9517.8V9549.3M1726.2 10725.3V10693.8"/>
<path transform="matrix(.1,0,0,-.1,-26.02615,1097.0919)" stroke-width="2.5" stroke-linecap="butt" stroke-miterlimit="3.8" stroke-linejoin="miter" fill="none" stroke="#000000" d="M2093.2 9517.8V9549.3M2093.2 10725.3V10693.8"/>
<path transform="matrix(.1,0,0,-.1,-26.02615,1097.0919)" stroke-width="2.5" stroke-linecap="butt" stroke-miterlimit="3.8" stroke-linejoin="miter" fill="none" stroke="#000000" d="M2460.7 9517.8V9549.3M2460.7 10725.3V10693.8"/>
<path transform="matrix(.1,0,0,-.1,-26.02615,1097.0919)" stroke-width="2.5" stroke-linecap="butt" stroke-miterlimit="3.8" stroke-linejoin="miter" fill="none" stroke="#000000" d="M624.199 10725.3V9517.8H2460.7V10725.3H624.199Z"/>
<path transform="matrix(.1,0,0,-.1,-26.02615,1097.0919)" stroke-width="2.5" stroke-linecap="butt" stroke-miterlimit="3.8" stroke-linejoin="miter" fill="none" stroke="#000000" d="M624.199 9517.8V9639.3L624.699 9675.3 625.199 9764.8 626.199 9866.3 627.699 9969.3 633.199 10045.3 642.699 10085.3 651.699 10119.3 661.199 10151.3 670.199 10181.3 679.699 10208.8 688.699 10234.8 698.199 10258.8 707.199 10280.8 716.699 10301.8 725.699 10321.3 734.699 10339.3 744.199 10355.8 753.199 10371.8 762.699 10386.3 771.699 10399.8 781.199 10412.3 790.199 10423.8 799.699 10434.8 807.699 10443.8 808.199 10444.3 808.699 10444.8 809.699 10445.8 811.699 10447.8 817.199 10453.3 818.199 10454.3 827.199 10463.3 836.699 10471.3 845.699 10478.8 854.699 10485.8 864.199 10492.8 873.199 10498.8 882.699 10504.3 891.699 10509.8 901.199 10514.8 910.199 10519.3 919.699 10523.8 928.699 10527.8 938.199 10531.3 947.199 10534.8 956.199 10537.8 965.699 10540.8 974.699 10543.8 984.199 10546.3 991.699 10548.3H992.199L993.199 10548.8 995.199 10549.3 1000.7 10550.8H1002.7L1011.7 10553.3 1021.2 10554.8 1030.2 10556.8 1039.7 10558.3 1048.7 10560.3 1057.7 10561.8 1067.2 10562.8 1076.2 10564.3 1085.7 10565.3 1094.7 10566.3 1104.2 10567.3 1113.2 10568.3 1122.7 10569.3 1131.7 10570.3 1141.2 10570.8 1150.2 10571.8 1159.7 10572.3 1168.7 10572.8 1175.2 10573.3H1175.7 1176.2 1177.2 1177.7 1178.7L1184.2 10573.8H1187.2L1196.2 10574.3 1205.7 10574.8 1214.7 10575.3 1224.2 10575.8 1233.2 10576.3H1242.7L1251.7 10576.8 1261.2 10577.3H1270.2L1279.2 10577.8H1288.7L1297.7 10578.3H1307.2L1316.2 10578.8H1325.7 1334.7L1344.2 10579.3"/>
<path transform="matrix(.1,0,0,-.1,-26.02615,1097.0919)" stroke-width="2.5" stroke-linecap="butt" stroke-miterlimit="3.8" stroke-linejoin="miter" fill="none" stroke="#000000" d="M1344.2 10579.3H1371.7L1380.7 10579.8H1417.7L1427.2 10580.3H1436.2 1445.7 1454.7 1464.2 1473.2 1482.7 1491.7L1500.7 10580.8H1510.2 1519.2 1528.7 1537.7 1542.2 1542.7 1543.2 1544.2 1546.2 1547.2 1551.7 1556.2 1565.7 1574.7 1584.2 1593.2 1602.2 1611.7 1620.7 1630.2 1639.2 1648.7 1657.7 1667.2 1676.2 1685.7 1694.7L1704.2 10581.3H1713.2 1722.2 1731.7 1740.7 1750.2 1759.2 1768.7 1777.7 1787.2 1796.2 1805.7 1814.7 1823.7 1833.2 1842.2 1851.7 1860.7 1870.2 1879.2 1888.7 1897.7 1907.2 1916.2 1925.2 1934.7 1943.7 1953.2 1962.2 1971.7 1980.7 1990.2 1999.2 2008.7 2017.7 2027.2 2036.2 2045.2 2054.7 2063.7 2073.2 2082.2 2091.7 2100.7 2110.2 2119.2 2128.7 2137.7 2146.7 2156.2 2165.2 2174.7 2183.7 2193.2 2202.2"/>
<path transform="matrix(.1,0,0,-.1,-26.02615,1097.0919)" stroke-width="2.5" stroke-linecap="butt" stroke-miterlimit="3.8" stroke-linejoin="miter" fill="none" stroke="#000000" d="M2202.2 10581.3H2460.7"/>
<path transform="matrix(.1,0,0,-.1,-26.02615,1097.0919)" stroke-width="2.5" stroke-linecap="butt" stroke-miterlimit="3.8" stroke-linejoin="miter" fill="none" stroke="#000000" d="M624.199 9517.8H807.699V9612.8L808.199 9625.3V9648.3L808.699 9705.3V9705.8L809.699 9770.8 811.699 9836.8 817.199 9885.3 818.199 9888.8 827.199 9913.3 836.699 9935.3 845.699 9955.3 854.699 9974.3 864.199 9991.8 873.199 10008.3 882.699 10023.8 891.699 10037.8 901.199 10051.3 910.199 10063.3 919.699 10074.8 928.699 10085.8 938.199 10095.3 947.199 10104.8 956.199 10113.3 965.699 10121.3 974.699 10128.8 984.199 10135.8 991.699 10140.8V10141.3L992.199 10141.8 993.199 10142.3 995.199 10143.3 1000.7 10147.3 1002.7 10148.3 1011.7 10153.8 1021.2 10158.8 1030.2 10163.8 1039.7 10168.3 1048.7 10172.8 1057.7 10176.3 1067.2 10180.3 1076.2 10183.3 1085.7 10186.8 1094.7 10189.8 1104.2 10192.3 1113.2 10194.8 1122.7 10197.3 1131.7 10199.3 1141.2 10201.3 1150.2 10203.3 1159.7 10205.3 1168.7 10206.8 1175.2 10207.8H1175.7 1176.2L1177.2 10208.3H1177.7 1178.7L1184.2 10209.3 1187.2 10209.8 1196.2 10211.3 1205.7 10212.3 1214.7 10213.3 1224.2 10214.8 1233.2 10215.8 1242.7 10216.3 1251.7 10217.3 1261.2 10218.3 1270.2 10218.8 1279.2 10219.8 1288.7 10220.3 1297.7 10220.8 1307.2 10221.3 1316.2 10221.8 1325.7 10222.3"/>
<path transform="matrix(.1,0,0,-.1,-26.02615,1097.0919)" stroke-width="2.5" stroke-linecap="butt" stroke-miterlimit="3.8" stroke-linejoin="miter" fill="none" stroke="#000000" d="M1325.7 10222.3 1334.7 10222.8 1344.2 10223.3 1353.2 10223.8H1358.7 1359.2 1359.7 1360.7L1362.7 10224.3H1368.2 1371.7L1380.7 10224.8H1390.2L1399.2 10225.3H1408.7L1417.7 10225.8H1427.2L1436.2 10226.3H1445.7L1454.7 10226.8H1464.2 1473.2 1482.7L1491.7 10227.3H1500.7 1510.2 1519.2L1528.7 10227.8H1537.7 1542.2 1542.7 1543.2 1544.2 1546.2 1547.2 1551.7 1556.2 1565.7 1574.7L1584.2 10228.3H1593.2 1602.2 1611.7 1620.7 1630.2 1639.2 1648.7 1657.7 1667.2 1676.2L1685.7 10228.8H1694.7 1704.2 1713.2 1722.2 1731.7 1740.7 1750.2 1759.2 1768.7 1777.7 1787.2 1796.2 1805.7 1814.7 1823.7 1833.2 1842.2 1851.7 1860.7 1870.2 1879.2 1888.7 1897.7 1907.2 1916.2 1925.2 1934.7 1943.7 1953.2 1962.2 1971.7 1980.7 1990.2 1999.2 2008.7 2017.7 2027.2 2036.2 2045.2 2054.7 2063.7 2073.2 2082.2 2091.7 2100.7 2110.2 2119.2 2128.7 2137.7 2146.7 2156.2 2165.2 2174.7 2183.7"/>
<path transform="matrix(.1,0,0,-.1,-26.02615,1097.0919)" stroke-width="2.5" stroke-linecap="butt" stroke-miterlimit="3.8" stroke-linejoin="miter" fill="none" stroke="#000000" d="M2183.7 10228.8H2460.7"/>
<path transform="matrix(.1,0,0,-.1,-26.02615,1097.0919)" stroke-width="2.5" stroke-linecap="butt" stroke-miterlimit="3.8" stroke-linejoin="miter" fill="none" stroke="#000000" d="M624.199 9517.8H991.699V9612.3L992.199 9627.3 993.199 9644.8 995.199 9662.3 1000.7 9674.8 1002.7 9676.3 1011.7 9682.8 1021.2 9688.8 1030.2 9693.8 1039.7 9698.8 1048.7 9703.3 1057.7 9707.8 1067.2 9711.8 1076.2 9715.3 1085.7 9718.8 1094.7 9722.3 1104.2 9725.3 1113.2 9727.8 1122.7 9730.8 1131.7 9732.8 1141.2 9735.3 1150.2 9737.3 1159.7 9739.3 1168.7 9741.3 1175.2 9742.3H1175.7 1176.2L1177.2 9742.8H1177.7 1178.7L1184.2 9743.8 1187.2 9744.3 1196.2 9745.8 1205.7 9747.3 1214.7 9748.3 1224.2 9749.8 1233.2 9750.8 1242.7 9751.8 1251.7 9752.8 1261.2 9753.8 1270.2 9754.3 1279.2 9755.3 1288.7 9755.8 1297.7 9756.8 1307.2 9757.3 1316.2 9757.8 1325.7 9758.3 1334.7 9758.8 1344.2 9759.3 1353.2 9759.8"/>
<path transform="matrix(.1,0,0,-.1,-26.02615,1097.0919)" stroke-width="2.5" stroke-linecap="butt" stroke-miterlimit="3.8" stroke-linejoin="miter" fill="none" stroke="#000000" d="M1353.2 9759.8H1360.7L1362.7 9760.3H1371.7L1380.7 9760.8 1390.2 9761.3H1399.2L1408.7 9761.8H1417.7L1427.2 9762.3H1436.2L1445.7 9762.8H1454.7 1464.2L1473.2 9763.3H1482.7 1491.7L1500.7 9763.8H1510.2 1519.2 1528.7L1537.7 9764.3H1542.2 1542.7 1543.2 1544.2 1546.2 1547.2 1551.7 1556.2 1565.7 1574.7 1584.2L1593.2 9764.8H1602.2 1611.7 1620.7 1630.2 1639.2 1648.7 1657.7 1667.2 1676.2L1685.7 9765.3H1694.7 1704.2 1713.2 1722.2 1731.7 1740.7 1750.2 1759.2 1768.7 1777.7 1787.2 1796.2 1805.7 1814.7 1823.7 1833.2 1842.2 1851.7 1860.7 1870.2 1879.2 1888.7 1897.7 1907.2 1916.2 1925.2 1934.7 1943.7 1953.2 1962.2 1971.7 1980.7 1990.2 1999.2 2008.7 2017.7 2027.2 2036.2 2045.2 2054.7 2063.7 2073.2 2082.2 2091.7 2100.7 2110.2 2119.2 2128.7 2137.7 2146.7 2156.2 2165.2 2174.7 2183.7 2193.2 2202.2 2211.7"/>
<path transform="matrix(.1,0,0,-.1,-26.02615,1097.0919)" stroke-width="2.5" stroke-linecap="butt" stroke-miterlimit="3.8" stroke-linejoin="miter" fill="none" stroke="#000000" d="M2211.7 9765.3H2460.7"/>
<path transform="matrix(.1,0,0,-.1,-26.02615,1097.0919)" stroke-width="2.5" stroke-linecap="butt" stroke-miterlimit="3.8" stroke-linejoin="miter" fill="none" stroke="#000000" d="M624.199 9517.8H1175.2V9600.3L1175.7 9600.8 1176.2 9602.8 1177.2 9604.3 1177.7 9605.8 1178.7 9606.3 1184.2 9607.8H1187.2L1196.2 9608.8 1205.7 9609.3 1214.7 9609.8 1224.2 9610.3 1233.2 9610.8 1242.7 9611.3 1251.7 9611.8 1261.2 9612.3 1270.2 9612.8H1279.2L1288.7 9613.3H1297.7L1307.2 9613.8 1316.2 9614.3H1325.7 1334.7L1344.2 9614.8H1353.2L1358.7 9615.3H1359.2 1359.7 1360.7"/>
<path transform="matrix(.1,0,0,-.1,-26.02615,1097.0919)" stroke-width="2.5" stroke-linecap="butt" stroke-miterlimit="3.8" stroke-linejoin="miter" fill="none" stroke="#000000" d="M1360.7 9615.3H1380.7L1390.2 9615.8H1417.7L1427.2 9616.3H1436.2 1445.7 1454.7 1464.2 1473.2L1482.7 9616.8H1491.7 1500.7 1510.2 1519.2 1528.7 1537.7 1542.2 1542.7 1543.2 1544.2 1546.2 1547.2 1551.7 1556.2L1565.7 9617.3H1574.7 1584.2 1593.2 1602.2 1611.7 1620.7 1630.2 1639.2 1648.7 1657.7 1667.2 1676.2 1685.7 1694.7 1704.2 1713.2 1722.2 1731.7 1740.7 1750.2 1759.2 1768.7 1777.7 1787.2 1796.2 1805.7 1814.7 1823.7 1833.2 1842.2 1851.7 1860.7 1870.2 1879.2 1888.7 1897.7 1907.2 1916.2 1925.2 1934.7L1943.7 9617.8H1953.2 1962.2 1971.7 1980.7 1990.2 1999.2 2008.7 2017.7 2027.2 2036.2 2045.2 2054.7 2063.7 2073.2 2082.2 2091.7 2100.7 2110.2 2119.2 2128.7 2137.7 2146.7 2156.2 2165.2 2174.7 2183.7 2193.2 2202.2 2211.7 2220.7 2230.2 2239.2 2248.2"/>
<path transform="matrix(.1,0,0,-.1,-26.02615,1097.0919)" stroke-width="2.5" stroke-linecap="butt" stroke-miterlimit="3.8" stroke-linejoin="miter" fill="none" stroke="#000000" d="M2248.2 9617.8H2460.7"/>
<path transform="matrix(.1,0,0,-.1,-26.02615,1097.0919)" stroke-width="2.5" stroke-linecap="butt" stroke-miterlimit="3.8" stroke-linejoin="miter" fill="none" stroke="#000000" d="M624.199 9517.8H1358.7V9599.8H1362.7"/>
<path transform="matrix(.1,0,0,-.1,-26.02615,1097.0919)" stroke-width="2.5" stroke-linecap="butt" stroke-miterlimit="3.8" stroke-linejoin="miter" fill="none" stroke="#000000" d="M1362.7 9599.8H1390.2L1399.2 9600.3H2257.7"/>
<path transform="matrix(.1,0,0,-.1,-26.02615,1097.0919)" stroke-width="2.5" stroke-linecap="butt" stroke-miterlimit="3.8" stroke-linejoin="miter" fill="none" stroke="#000000" d="M2257.7 9600.3H2460.7"/>
<path transform="matrix(.1,0,0,-.1,-26.02615,1097.0919)" stroke-width="2.5" stroke-linecap="butt" stroke-miterlimit="3.8" stroke-linejoin="miter" fill="none" stroke="#000000" d="M624.199 9517.8H1368.2"/>
<path transform="matrix(.1,0,0,-.1,-26.02615,1097.0919)" stroke-width="2.5" stroke-linecap="butt" stroke-miterlimit="3.8" stroke-linejoin="miter" fill="none" stroke="#000000" d="M1368.2 9517.8H1542.2L1542.7 9599.8H2266.7"/>
<path transform="matrix(.1,0,0,-.1,-26.02615,1097.0919)" stroke-width="2.5" stroke-linecap="butt" stroke-miterlimit="3.8" stroke-linejoin="miter" fill="none" stroke="#000000" d="M2266.7 9599.8H2460.7"/>
<path transform="matrix(.1,0,0,-.1,-26.02615,1097.0919)" stroke-width="2.5" stroke-linecap="butt" stroke-dasharray="10,15" stroke-miterlimit="3.8" stroke-linejoin="miter" fill="none" stroke="#000000" d="M624.199 9517.8V9650.8L624.699 9690.3 625.199 9788.3 626.199 9899.3 627.699 10012.3 633.199 10095.3V10095.8L642.699 10139.3 651.699 10176.8 661.199 10211.8 670.199 10244.3 679.699 10274.8 688.699 10302.8 698.199 10329.3 707.199 10353.8 716.699 10376.3 725.699 10397.8 734.699 10417.3 744.199 10435.8 753.199 10452.8 762.699 10468.8 771.699 10483.8 781.199 10497.3 790.199 10510.3 799.699 10522.3 807.699 10532.3H808.199V10532.8L808.699 10533.3 809.699 10534.3 811.699 10536.3 817.199 10542.3 818.199 10543.8 827.199 10553.3 836.699 10562.3 845.699 10570.3 854.699 10578.3 864.199 10585.3 873.199 10592.3 882.699 10598.3 891.699 10604.3 901.199 10609.8 910.199 10614.8 919.699 10619.3 928.699 10623.8 938.199 10627.8 947.199 10631.8 956.199 10635.3 965.699 10638.3 974.699 10641.3 984.199 10644.3 991.699 10646.3 992.199 10646.8H993.199L995.199 10647.3 1000.7 10648.8 1002.7 10649.3 1011.7 10651.8 1021.2 10653.8 1030.2 10655.8 1039.7 10657.8 1048.7 10659.3 1057.7 10660.8 1067.2 10662.3 1076.2 10663.8 1085.7 10665.3 1094.7 10666.3 1104.2 10667.3 1113.2 10668.3 1122.7 10669.3 1131.7 10670.3 1141.2 10671.3 1150.2 10671.8 1159.7 10672.8 1168.7 10673.3 1175.2 10673.8H1175.7 1176.2 1177.2 1177.7L1178.7 10674.3H1184.2L1187.2 10674.8 1196.2 10675.3 1205.7 10675.8 1214.7 10676.3 1224.2 10676.8H1233.2L1242.7 10677.3 1251.7 10677.8H1261.2L1270.2 10678.3 1279.2 10678.8H1288.7L1297.7 10679.3H1307.2L1316.2 10679.8"/>
<path transform="matrix(.1,0,0,-.1,-26.02615,1097.0919)" stroke-width="2.5" stroke-linecap="butt" stroke-dasharray="10,15" stroke-miterlimit="3.8" stroke-linejoin="miter" fill="none" stroke="#000000" d="M1316.2 10679.8H1334.7L1344.2 10680.3H1368.2L1371.7 10680.8H1380.7 1390.2 1399.2 1408.7L1417.7 10681.3H1427.2 1436.2 1445.7 1454.7 1464.2L1473.2 10681.8H1482.7 1491.7 1500.7 1510.2 1519.2 1528.7 1537.7 1542.2 1542.7 1543.2 1544.2 1546.2 1547.2 1551.7 1556.2 1565.7L1574.7 10682.3H1584.2 1593.2 1602.2 1611.7 1620.7 1630.2 1639.2 1648.7 1657.7 1667.2 1676.2 1685.7 1694.7 1704.2 1713.2 1722.2 1731.7 1740.7 1750.2 1759.2 1768.7 1777.7 1787.2 1796.2 1805.7 1814.7 1823.7 1833.2 1842.2 1851.7 1860.7 1870.2 1879.2 1888.7 1897.7 1907.2 1916.2 1925.2 1934.7 1943.7 1953.2 1962.2 1971.7 1980.7 1990.2 1999.2 2008.7 2017.7 2027.2 2036.2 2045.2 2054.7 2063.7 2073.2 2082.2 2091.7 2100.7 2110.2 2119.2 2128.7 2137.7 2146.7 2156.2 2165.2 2174.7"/>
<path transform="matrix(.1,0,0,-.1,-26.02615,1097.0919)" stroke-width="2.5" stroke-linecap="butt" stroke-dasharray="10,15" stroke-miterlimit="3.8" stroke-linejoin="miter" fill="none" stroke="#000000" d="M2174.7 10682.3H2460.7"/>
<path transform="matrix(.1,0,0,-.1,-26.02615,1097.0919)" stroke-width="2.5" stroke-linecap="butt" stroke-dasharray="10,15" stroke-miterlimit="3.8" stroke-linejoin="miter" fill="none" stroke="#000000" d="M624.199 9517.8H807.699V9621.8L808.199 9635.3V9660.8L808.699 9723.3V9723.8L809.699 9794.8 811.699 9867.3 817.199 9920.3 818.199 9923.8 827.199 9950.8 836.699 9974.8 845.699 9997.3 854.699 10017.8 864.199 10037.3 873.199 10055.3 882.699 10071.8 891.699 10087.3 901.199 10101.8 910.199 10115.3 919.699 10127.8 928.699 10139.8 938.199 10150.8 947.199 10160.8 956.199 10170.3 965.699 10178.8 974.699 10186.8 984.199 10194.8 991.699 10200.3V10200.8H992.199L993.199 10201.8 995.199 10203.3 1000.7 10206.8 1002.7 10208.3 1011.7 10214.3 1021.2 10220.3 1030.2 10225.3 1039.7 10230.3 1048.7 10234.8 1057.7 10239.3 1067.2 10243.3 1076.2 10246.8 1085.7 10250.3 1094.7 10253.8 1104.2 10256.8 1113.2 10259.3 1122.7 10261.8 1131.7 10264.3 1141.2 10266.8 1150.2 10268.8 1159.7 10270.8 1168.7 10272.3 1175.2 10273.8H1175.7 1176.2 1177.2L1177.7 10274.3H1178.7L1184.2 10275.3 1187.2 10275.8 1196.2 10277.3 1205.7 10278.3 1214.7 10279.8 1224.2 10280.8 1233.2 10281.8 1242.7 10282.8 1251.7 10283.8 1261.2 10284.8 1270.2 10285.8 1279.2 10286.3 1288.7 10287.3 1297.7 10287.8 1307.2 10288.3 1316.2 10288.8 1325.7 10289.3"/>
<path transform="matrix(.1,0,0,-.1,-26.02615,1097.0919)" stroke-width="2.5" stroke-linecap="butt" stroke-dasharray="10,15" stroke-miterlimit="3.8" stroke-linejoin="miter" fill="none" stroke="#000000" d="M1325.7 10289.3 1334.7 10289.8 1344.2 10290.3 1353.2 10290.8 1358.7 10291.3H1359.2 1359.7 1360.7 1362.7 1368.2L1371.7 10291.8H1380.7L1390.2 10292.3 1399.2 10292.8H1408.7L1417.7 10293.3H1427.2L1436.2 10293.8H1445.7L1454.7 10294.3H1464.2 1473.2L1482.7 10294.8H1491.7 1500.7 1510.2L1519.2 10295.3H1528.7 1537.7 1542.2 1542.7 1543.2 1544.2 1546.2 1547.2 1551.7 1556.2L1565.7 10295.8H1574.7 1584.2 1593.2 1602.2 1611.7 1620.7 1630.2L1639.2 10296.3H1648.7 1657.7 1667.2 1676.2 1685.7 1694.7 1704.2 1713.2 1722.2 1731.7 1740.7 1750.2 1759.2 1768.7 1777.7 1787.2 1796.2 1805.7 1814.7L1823.7 10296.8H1833.2 1842.2 1851.7 1860.7 1870.2 1879.2 1888.7 1897.7 1907.2 1916.2 1925.2 1934.7 1943.7 1953.2 1962.2 1971.7 1980.7 1990.2 1999.2 2008.7 2017.7 2027.2 2036.2 2045.2 2054.7 2063.7 2073.2 2082.2 2091.7 2100.7 2110.2 2119.2 2128.7 2137.7 2146.7 2156.2 2165.2 2174.7 2183.7"/>
<path transform="matrix(.1,0,0,-.1,-26.02615,1097.0919)" stroke-width="2.5" stroke-linecap="butt" stroke-dasharray="10,15" stroke-miterlimit="3.8" stroke-linejoin="miter" fill="none" stroke="#000000" d="M2183.7 10296.8H2460.7"/>
<path transform="matrix(.1,0,0,-.1,-26.02615,1097.0919)" stroke-width="2.5" stroke-linecap="butt" stroke-dasharray="10,15" stroke-miterlimit="3.8" stroke-linejoin="miter" fill="none" stroke="#000000" d="M624.199 9517.8H991.699V9621.3L992.199 9637.8 993.199 9656.8 995.199 9675.8 1000.7 9689.8 1002.7 9691.8 1011.7 9698.8 1021.2 9704.8 1030.2 9710.8 1039.7 9716.3 1048.7 9721.3 1057.7 9725.8 1067.2 9730.3 1076.2 9734.3 1085.7 9738.3 1094.7 9741.8 1104.2 9744.8 1113.2 9747.8 1122.7 9750.8 1131.7 9753.3 1141.2 9755.8 1150.2 9758.3 1159.7 9760.3 1168.7 9762.3 1175.2 9763.8H1175.7 1176.2 1177.2L1177.7 9764.3H1178.7L1184.2 9765.3 1187.2 9765.8 1196.2 9767.8 1205.7 9768.8 1214.7 9770.3 1224.2 9771.8 1233.2 9772.8 1242.7 9773.8 1251.7 9775.3 1261.2 9776.3 1270.2 9776.8 1279.2 9777.8 1288.7 9778.8 1297.7 9779.3 1307.2 9779.8 1316.2 9780.8 1325.7 9781.3 1334.7 9781.8 1344.2 9782.3"/>
<path transform="matrix(.1,0,0,-.1,-26.02615,1097.0919)" stroke-width="2.5" stroke-linecap="butt" stroke-dasharray="10,15" stroke-miterlimit="3.8" stroke-linejoin="miter" fill="none" stroke="#000000" d="M1344.2 9782.3 1353.2 9782.8H1359.7L1360.7 9783.3H1362.7 1368.2L1371.7 9783.8H1380.7L1390.2 9784.3 1399.2 9784.8H1408.7L1417.7 9785.3H1427.2L1436.2 9785.8H1445.7L1454.7 9786.3H1464.2L1473.2 9786.8H1482.7 1491.7L1500.7 9787.3H1510.2 1519.2 1528.7L1537.7 9787.8H1542.2 1542.7 1543.2 1544.2 1546.2 1547.2 1551.7 1556.2 1565.7 1574.7 1584.2L1593.2 9788.3H1602.2 1611.7 1620.7 1630.2 1639.2 1648.7 1657.7 1667.2L1676.2 9788.8H1685.7 1694.7 1704.2 1713.2 1722.2 1731.7 1740.7 1750.2 1759.2 1768.7 1777.7 1787.2 1796.2 1805.7 1814.7 1823.7 1833.2 1842.2 1851.7 1860.7 1870.2 1879.2 1888.7 1897.7 1907.2 1916.2 1925.2 1934.7 1943.7 1953.2 1962.2 1971.7 1980.7 1990.2 1999.2L2008.7 9789.3H2017.7 2027.2 2036.2 2045.2 2054.7 2063.7 2073.2 2082.2 2091.7 2100.7 2110.2 2119.2 2128.7 2137.7 2146.7 2156.2 2165.2 2174.7 2183.7 2193.2 2202.2"/>
<path transform="matrix(.1,0,0,-.1,-26.02615,1097.0919)" stroke-width="2.5" stroke-linecap="butt" stroke-dasharray="10,15" stroke-miterlimit="3.8" stroke-linejoin="miter" fill="none" stroke="#000000" d="M2202.2 9789.3H2460.7"/>
<path transform="matrix(.1,0,0,-.1,-26.02615,1097.0919)" stroke-width="2.5" stroke-linecap="butt" stroke-dasharray="10,15" stroke-miterlimit="3.8" stroke-linejoin="miter" fill="none" stroke="#000000" d="M624.199 9517.8H1175.2V9608.3L1175.7 9608.8 1176.2 9610.8 1177.2 9612.8 1177.7 9613.8 1178.7 9614.8 1184.2 9616.3 1187.2 9616.8 1196.2 9617.3 1205.7 9617.8 1214.7 9618.8 1224.2 9619.3 1233.2 9619.8 1242.7 9620.3 1251.7 9620.8 1261.2 9621.3 1270.2 9621.8H1279.2L1288.7 9622.3 1297.7 9622.8H1307.2L1316.2 9623.3H1325.7L1334.7 9623.8H1344.2L1353.2 9624.3H1358.7 1359.2 1359.7"/>
<path transform="matrix(.1,0,0,-.1,-26.02615,1097.0919)" stroke-width="2.5" stroke-linecap="butt" stroke-dasharray="10,15" stroke-miterlimit="3.8" stroke-linejoin="miter" fill="none" stroke="#000000" d="M1359.7 9624.3H1368.2L1371.7 9624.8H1390.2L1399.2 9625.3H1408.7 1417.7 1427.2L1436.2 9625.8H1445.7 1454.7 1464.2 1473.2 1482.7L1491.7 9626.3H1500.7 1510.2 1519.2 1528.7 1537.7 1542.2 1542.7 1543.2 1544.2 1546.2 1547.2 1551.7 1556.2 1565.7L1574.7 9626.8H1584.2 1593.2 1602.2 1611.7 1620.7 1630.2 1639.2 1648.7 1657.7 1667.2 1676.2 1685.7 1694.7 1704.2 1713.2 1722.2 1731.7 1740.7 1750.2 1759.2 1768.7 1777.7 1787.2 1796.2 1805.7 1814.7 1823.7 1833.2 1842.2 1851.7 1860.7 1870.2 1879.2 1888.7 1897.7 1907.2 1916.2 1925.2 1934.7L1943.7 9627.3H1953.2 1962.2 1971.7 1980.7 1990.2 1999.2 2008.7 2017.7 2027.2 2036.2 2045.2 2054.7 2063.7 2073.2 2082.2 2091.7 2100.7 2110.2 2119.2 2128.7 2137.7 2146.7 2156.2 2165.2 2174.7 2183.7 2193.2 2202.2 2211.7 2220.7 2230.2 2239.2"/>
<path transform="matrix(.1,0,0,-.1,-26.02615,1097.0919)" stroke-width="2.5" stroke-linecap="butt" stroke-dasharray="10,15" stroke-miterlimit="3.8" stroke-linejoin="miter" fill="none" stroke="#000000" d="M2239.2 9627.3H2460.7"/>
<path transform="matrix(.1,0,0,-.1,-26.02615,1097.0919)" stroke-width="2.5" stroke-linecap="butt" stroke-dasharray="10,15" stroke-miterlimit="3.8" stroke-linejoin="miter" fill="none" stroke="#000000" d="M624.199 9517.8H1358.7V9607.3H1359.7L1360.7 9607.8H1362.7"/>
<path transform="matrix(.1,0,0,-.1,-26.02615,1097.0919)" stroke-width="2.5" stroke-linecap="butt" stroke-dasharray="10,15" stroke-miterlimit="3.8" stroke-linejoin="miter" fill="none" stroke="#000000" d="M1362.7 9607.8H1464.2L1473.2 9608.3H2257.7"/>
<path transform="matrix(.1,0,0,-.1,-26.02615,1097.0919)" stroke-width="2.5" stroke-linecap="butt" stroke-dasharray="10,15" stroke-miterlimit="3.8" stroke-linejoin="miter" fill="none" stroke="#000000" d="M2257.7 9608.3H2460.7"/>
<path transform="matrix(.1,0,0,-.1,-26.02615,1097.0919)" stroke-width="2.5" stroke-linecap="butt" stroke-dasharray="10,15" stroke-miterlimit="3.8" stroke-linejoin="miter" fill="none" stroke="#000000" d="M624.199 9517.8H1368.2"/>
<path transform="matrix(.1,0,0,-.1,-26.02615,1097.0919)" stroke-width="2.5" stroke-linecap="butt" stroke-dasharray="10,15" stroke-miterlimit="3.8" stroke-linejoin="miter" fill="none" stroke="#000000" d="M1368.2 9517.8H1542.2L1542.7 9607.3H2266.7"/>
<path transform="matrix(.1,0,0,-.1,-26.02615,1097.0919)" stroke-width="2.5" stroke-linecap="butt" stroke-dasharray="10,15" stroke-miterlimit="3.8" stroke-linejoin="miter" fill="none" stroke="#000000" d="M2266.7 9607.3H2460.7"/>
<path transform="matrix(.1,0,0,-.1,-26.02615,1097.0919)" stroke-width="2.5" stroke-linecap="butt" stroke-miterlimit="3.8" stroke-linejoin="miter" fill="none" stroke="#000000" d="M624.199 10725.3V9517.8H2460.7V10725.3H624.199Z"/>
<use data-text="L" xlink:href="#font_3_2" transform="matrix(0,-9.96264,-9.96264,-0,13.573849,105.6319)" fill="#231f20"/>
<use data-text="k" xlink:href="#font_4_1" transform="matrix(0,-6.97385,-6.97385,-0,15.013687,98.79205)" fill="#231f20"/>
<use data-text="," xlink:href="#font_4_2" transform="matrix(0,-6.97385,-6.97385,-0,15.013687,94.47211)" fill="#231f20"/>
<use data-text="&#x00b5;" xlink:href="#font_4_3" transform="matrix(0,-6.97385,-6.97385,-0,15.013687,92.07214)" fill="#231f20"/>
<use data-text="(" xlink:href="#font_2_12" transform="matrix(0,-9.96264,-9.96264,-0,13.573849,86.67218)" fill="#231f20"/>
<use data-text="t" xlink:href="#font_3_1" transform="matrix(0,-9.96264,-9.96264,-0,13.573849,82.83234)" fill="#231f20"/>
<use data-text="," xlink:href="#font_3_3" transform="matrix(0,-9.96264,-9.96264,-0,13.573849,79.2323)" fill="#231f20"/>
<use data-text="t" xlink:href="#font_3_1" transform="matrix(0,-9.96264,-9.96264,-0,13.573849,74.792789)" fill="#231f20"/>
<use data-text="&#x2032;" xlink:href="#font_5_1" transform="matrix(0,-6.97385,-6.97385,-0,9.97385,71.19214)" fill="#231f20"/>
<use data-text=")" xlink:href="#font_2_13" transform="matrix(0,-9.96264,-9.96264,-0,13.573849,68.43201)" fill="#231f20"/>
<use data-text="t" xlink:href="#font_3_1" transform="matrix(9.96264,0,0,-9.96264,126.37384,175.23194)" fill="#231f20"/>
<use data-text="i" xlink:href="#font_2_8" transform="matrix(9.96264,0,0,-9.96264,96.61365,10.471924)" fill="#231f20"/>
<use data-text="n" xlink:href="#font_2_1" transform="matrix(9.96264,0,0,-9.96264,99.37329,10.471924)" fill="#231f20"/>
<use data-text="h" xlink:href="#font_2_7" transform="matrix(9.96264,0,0,-9.96264,104.89331,10.471924)" fill="#231f20"/>
<use data-text="o" xlink:href="#font_2_2" transform="matrix(9.96264,0,0,-9.96264,110.413318,10.471924)" fill="#231f20"/>
<use data-text="m" xlink:href="#font_2_9" transform="matrix(9.96264,0,0,-9.96264,115.45332,10.471924)" fill="#231f20"/>
<use data-text="o" xlink:href="#font_2_2" transform="matrix(9.96264,0,0,-9.96264,123.73331,10.471924)" fill="#231f20"/>
<use data-text="g" xlink:href="#font_2_6" transform="matrix(9.96264,0,0,-9.96264,128.77332,10.471924)" fill="#231f20"/>
<use data-text="e" xlink:href="#font_2_5" transform="matrix(9.96264,0,0,-9.96264,133.81333,10.471924)" fill="#231f20"/>
<use data-text="n" xlink:href="#font_2_1" transform="matrix(9.96264,0,0,-9.96264,138.25331,10.471924)" fill="#231f20"/>
<use data-text="e" xlink:href="#font_2_5" transform="matrix(9.96264,0,0,-9.96264,143.77333,10.471924)" fill="#231f20"/>
<use data-text="i" xlink:href="#font_2_8" transform="matrix(9.96264,0,0,-9.96264,148.21334,10.471924)" fill="#231f20"/>
<use data-text="t" xlink:href="#font_2_3" transform="matrix(9.96264,0,0,-9.96264,150.97299,10.471924)" fill="#231f20"/>
<use data-text="y" xlink:href="#font_2_4" transform="matrix(9.96264,0,0,-9.96264,154.57315,10.471924)" fill="#231f20"/>
</g>
</svg>
