<svg xmlns="http://www.w3.org/2000/svg" xmlns:xlink="http://www.w3.org/1999/xlink" xmlns:inkscape="http://www.inkscape.org/namespaces/inkscape" version="1.1" width="222.72686" height="183.55139" viewBox="0 0 222.72686 183.55139">
<defs>
<clipPath id="clip_1">
<path transform="matrix(1,0,0,-1,-28.854886,1100.1939)" d="M28.854886 916.64248H251.58174V1100.1939H28.854886Z" clip-rule="evenodd"/>
</clipPath>
<path id="font_2_18" d="M.45999146 .31976319C.45999146 .39982606 .45498658 .47988893 .41999818 .5539398 .37399293 .65000918 .2919922 .6660156 .25 .6660156 .18998719 .6660156 .116989139 .64001467 .07598877 .54693606 .04399109 .47789 .038986207 .39982606 .038986207 .31976319 .038986207 .24472046 .042999269 .15464783 .083999637 .07859802 .1269989-.0024719239 .19999695-.022460938 .24899292-.022460938 .30299378-.022460938 .3789978-.0014648438 .4229889 .09359741 .45498658 .16265869 .45999146 .2407074 .45999146 .31976319M.24899292-.00047302247C.20999146-.00047302247 .15098572 .024551392 .1329956 .12062073 .12199402 .18066406 .12199402 .2727356 .12199402 .3317871 .12199402 .39582826 .12199402 .46188355 .12998963 .5159149 .14898682 .63500979 .22399903 .64401248 .24899292 .64401248 .28199769 .64401248 .34799195 .6259918 .36698915 .52693179 .3769989 .47088624 .3769989 .39482118 .3769989 .3317871 .3769989 .25672914 .3769989 .18867493 .3659973 .12461853 .35099793 .029556275 .2939911-.00047302247 .24899292-.00047302247Z"/>
<path id="font_2_17" d="M.19198609 .052993776C.19198609 .08198547 .16799927 .10598755 .13899231 .10598755 .10998535 .10598755 .085998538 .08198547 .085998538 .052993776 .085998538 .023986817 .10998535 0 .13899231 0 .16799927 0 .19198609 .023986817 .19198609 .052993776Z"/>
<path id="font_2_23" d="M.44898988 .20022583C.44898988 .3193512 .36698915 .41944886 .25898744 .41944886 .21099854 .41944886 .16799927 .40345765 .13198853 .36842347V.5637665C.1519928 .5577698 .18499756 .55078127 .21699524 .55078127 .33999635 .55078127 .4099884 .6417694 .4099884 .6547699 .4099884 .6607666 .40699769 .6657715 .3999939 .6657715 .39898683 .6657715 .39698792 .6657715 .3919983 .66278079 .37199403 .6537781 .32299806 .6337738 .2559967 .6337738 .21598816 .6337738 .16999817 .6407776 .12298584 .6617737 .114990238 .66477969 .11299133 .66477969 .11099243 .66477969 .100997928 .66477969 .100997928 .6567688 .100997928 .6407776V.34439088C.100997928 .32637025 .100997928 .31835938 .114990238 .31835938 .12199402 .31835938 .12399292 .32136537 .12799073 .32736207 .13899231 .3433838 .17599488 .39746095 .25698854 .39746095 .30899049 .39746095 .33399964 .35139466 .34199525 .33337403 .35798646 .29632569 .3600006 .25727845 .3600006 .20722962 .3600006 .17222595 .3600006 .11222839 .33599855 .07035828 .31199647 .031463624 .2749939 .0055389406 .22898865 .0055389406 .1559906 .0055389406 .09899902 .058380128 .08198547 .11723328 .084991458 .1162262 .08799744 .115234378 .09899902 .115234378 .13198853 .115234378 .14898682 .14022827 .14898682 .16423035 .14898682 .18823242 .13198853 .21322632 .09899902 .21322632 .084991458 .21322632 .049987794 .20622254 .049987794 .16023255 .049987794 .07434082 .11898804-.022460938 .23098755-.022460938 .34700013-.022460938 .44898988 .073349 .44898988 .20022583Z"/>
<path id="font_2_11" d="M.13198853 .327713V.35173036C.13198853 .6047821 .2559967 .64100649 .30699159 .64100649 .33099366 .64100649 .37298585 .634964 .394989 .6007538 .37998963 .6007538 .33999635 .6007538 .33999635 .5557556 .33999635 .524765 .3639984 .5097656 .38598634 .5097656 .4019928 .5097656 .43199159 .51875308 .43199159 .5577545 .43199159 .6178589 .3880005 .6660156 .30499269 .6660156 .1769867 .6660156 .041992189 .5367584 .041992189 .31570436 .041992189 .048553468 .1579895-.022460938 .25099183-.022460938 .3619995-.022460938 .45700074 .07156372 .45700074 .2036438 .45700074 .33070375 .36799623 .4267578 .25698854 .4267578 .18899536 .4267578 .1519928 .37573243 .13198853 .327713M.25099183 .0055389406C.18798828 .0055389406 .1579895 .06556702 .1519928 .080566409 .13398743 .127594 .13398743 .2076416 .13398743 .22564698 .13398743 .30369569 .1659851 .40374757 .2559967 .40374757 .27198792 .40374757 .31799317 .40374757 .34899903 .34172059 .36698915 .30470277 .36698915 .2536621 .36698915 .20463562 .36698915 .15661621 .36698915 .10658264 .34999085 .0705719 .31999208 .010528564 .27398683 .0055389406 .25099183 .0055389406Z"/>
<path id="font_2_12" d="M.47599793 .609375C.4850006 .6213684 .4850006 .62338259 .4850006 .64437869H.24198914C.11999512 .64437869 .117996219 .65737918 .11399841 .67637637H.08898926L.055999757 .4702301H.08099365C.083999637 .48625184 .09298706 .5493469 .10598755 .56137087 .11299133 .5673828 .19099427 .5673828 .20399475 .5673828H.41099549C.3999939 .5513611 .32099916 .4421997 .29899598 .40914918 .20899964 .27394105 .17599488 .1347351 .17599488 .032577516 .17599488 .022567749 .17599488-.022460938 .22200012-.022460938 .2679901-.022460938 .2679901 .022567749 .2679901 .032577516V.08366394C.2679901 .13873291 .2709961 .19381714 .2789917 .24790955 .2829895 .27093507 .29699708 .35707093 .34098817 .41915895L.47599793 .609375Z"/>
<path id="font_2_13" d="M.16299439 .4569702C.116989139 .486969 .11299133 .52098086 .11299133 .5379791 .11299133 .598999 .17799378 .64100649 .24899292 .64100649 .32199098 .64100649 .38598634 .58898928 .38598634 .51698306 .38598634 .45996095 .34700013 .4119568 .2869873 .37695313L.16299439 .4569702M.30899049 .36193849C.3809967 .3989563 .42999269 .45095826 .42999269 .51698306 .42999269 .6090088 .34098817 .6660156 .25 .6660156 .1499939 .6660156 .068984989 .59199526 .068984989 .49897767 .068984989 .4809723 .070999149 .43595887 .11299133 .38894654 .12399292 .37695313 .16099549 .35194398 .18598938 .33494569 .12799073 .30592347 .041992189 .24984741 .041992189 .15072632 .041992189 .04458618 .14399719-.022460938 .24899292-.022460938 .3619995-.022460938 .45700074 .06060791 .45700074 .16773987 .45700074 .20379639 .44599916 .24885559 .4079895 .2909088 .3889923 .31193543 .37298585 .3219452 .30899049 .36193849M.20899964 .3199463 .33198548 .24183655C.3600006 .2228241 .40699769 .19277954 .40699769 .13169861 .40699769 .05760193 .33198548 .0055389406 .25 .0055389406 .1639862 .0055389406 .09199524 .067611698 .09199524 .15072632 .09199524 .20880127 .12399292 .27288819 .20899964 .3199463Z"/>
<path id="font_2_19" d="M.2939911 .64004519C.2939911 .66400149 .2939911 .6660156 .2709961 .6660156 .20899964 .60227969 .12098694 .60227969 .08898926 .60227969V.57128909C.10899353 .57128909 .16799927 .57128909 .21998596 .5972748V.07902527C.21998596 .042999269 .21699524 .0309906 .1269989 .0309906H.09498596V0C.12998963 .0029907227 .21699524 .0029907227 .25698854 .0029907227 .29699708 .0029907227 .38398744 .0029907227 .4189911 0V.0309906H.3869934C.29699708 .0309906 .2939911 .041992189 .2939911 .07902527V.64004519Z"/>
<path id="font_2_20" d="M.1269989 .07699585 .23298645 .18003845C.3889923 .31811524 .44898988 .3721466 .44898988 .47216798 .44898988 .5860901 .35899354 .6660156 .23699951 .6660156 .12399292 .6660156 .049987794 .57411196 .049987794 .48516847 .049987794 .4291687 .099990848 .4291687 .102996829 .4291687 .11999512 .4291687 .15499878 .44117738 .15499878 .48217774 .15499878 .5081787 .13699341 .5341797 .101989749 .5341797 .09399414 .5341797 .09199524 .5341797 .08898926 .5331726 .11199951 .59806826 .1659851 .63500979 .22399903 .63500979 .31498719 .63500979 .35798646 .5541382 .35798646 .47216798 .35798646 .39215089 .30799867 .31311036 .25299073 .25108338L.06098938 .036987306C.049987794 .025985718 .049987794 .023986817 .049987794 0H.42099L.44898988 .17404175H.42399598C.4189911 .14402771 .4119873 .1000061 .4019928 .084991458 .394989 .07699585 .32899476 .07699585 .30699159 .07699585H.1269989Z"/>
<path id="font_2_21" d="M.2899933 .35191346C.37199403 .37893678 .42999269 .4490509 .42999269 .52809146 .42999269 .6100464 .34199525 .6660156 .24598694 .6660156 .14498902 .6660156 .068984989 .60606387 .068984989 .53009036 .068984989 .49710084 .09098816 .47808839 .11999512 .47808839 .15098572 .47808839 .17098999 .50009158 .17098999 .5290985 .17098999 .57910159 .12399292 .57910159 .10899353 .57910159 .13999939 .62802127 .20599365 .64100649 .24198914 .64100649 .2829895 .64100649 .33799745 .6190338 .33799745 .5290985 .33799745 .51708987 .33599855 .45906068 .30999757 .4149933 .27999879 .36691285 .24598694 .36390687 .22099304 .36291505 .21299744 .36190797 .18899536 .35990907 .18199158 .35990907 .17399597 .35890199 .16699219 .35791017 .16699219 .3479004 .16699219 .33691407 .17399597 .33691407 .19099427 .33691407H.23498535C.31698609 .33691407 .35398866 .2686615 .35398866 .17037964 .35398866 .034469606 .2849884 .0055389406 .24099732 .0055389406 .19799805 .0055389406 .12298584 .022491456 .08799744 .08137512 .12298584 .07637024 .1539917 .09837341 .1539917 .1363678 .1539917 .17237854 .1269989 .19238281 .09799194 .19238281 .07398987 .19238281 .041992189 .17837525 .041992189 .1343689 .041992189 .043441774 .1349945-.022460938 .24398804-.022460938 .3659973-.022460938 .45700074 .06838989 .45700074 .17037964 .45700074 .252594 .3939972 .33088685 .2899933 .35191346Z"/>
<path id="font_3_1" d="M.1789856 .114868167C.13899231 .047973634 .099990848 .033981325 .055999757 .0309906 .04399109 .02999878 .034988405 .02999878 .034988405 .010986328 .034988405 .004989624 .039993287 0 .04798889 0 .07499695 0 .10598755 .0029907227 .13398743 .0029907227 .16699219 .0029907227 .20199585 0 .23399353 0 .23999024 0 .25299073 0 .25299073 .018997193 .25299073 .02999878 .24398804 .0309906 .23699951 .0309906 .21398926 .032989503 .18998719 .04096985 .18998719 .06593323 .18998719 .077926639 .19599915 .088897708 .20399475 .102890018L.27999879 .23068238H.5309906C.5329895 .2097168 .5469971 .07392883 .5469971 .063949588 .5469971 .033981325 .49499513 .0309906 .47499085 .0309906 .46099855 .0309906 .45098878 .0309906 .45098878 .010986328 .45098878 0 .46299745 0 .46499635 0 .5059967 0 .548996 .0029907227 .58999636 .0029907227 .61499026 .0029907227 .6779938 0 .7029877 0 .70899966 0 .72099307 0 .72099307 .019989014 .72099307 .0309906 .71099856 .0309906 .69799807 .0309906 .6359863 .0309906 .6359863 .037979127 .6329956 .06694031L.57199099 .691803C.56999209 .71180728 .56999209 .7158203 .5529938 .7158203 .5369873 .7158203 .5329895 .7088165 .5269928 .69880679L.1789856 .114868167M.29899598 .26168824 .49598695 .5917816 .5279999 .26168824H.29899598Z"/>
<path id="font_4_2" d="M.33499146 .63612368C.33499146 .6630554 .33299256 .6640625 .30499269 .6640625 .24099732 .6014404 .1499939 .6004486 .10899353 .6004486V.5644531C.1329956 .5644531 .19898987 .5644531 .2539978 .592453V.08203125C.2539978 .04899597 .2539978 .035995485 .1539917 .035995485H.115997318V0C.13398743 .0009918213 .25698854 .0039978029 .2939911 .0039978029 .32499696 .0039978029 .45098878 .0009918213 .47299195 0V.035995485H.43499757C.33499146 .035995485 .33499146 .04899597 .33499146 .08203125V.63612368Z"/>
<path id="font_3_2" d="M.20599365 .3996582H.2999878C.31999208 .3996582 .32998658 .3996582 .32998658 .41966249 .32998658 .43066407 .31999208 .43066407 .3019867 .43066407H.21398926C.25 .5724945 .25498963 .59246829 .25498963 .59846499 .25498963 .61546328 .24299622 .62545779 .22599793 .62545779 .22299195 .62545779 .19499207 .62446597 .18598938 .58947756L.14698792 .43066407H.052993776C.032989503 .43066407 .022994996 .43066407 .022994996 .4116516 .022994996 .3996582 .0309906 .3996582 .050994874 .3996582H.13899231C.066986087 .11608887 .06298828 .099121097 .06298828 .08114624 .06298828 .02722168 .100997928-.0107421879 .15499878-.0107421879 .25698854-.0107421879 .31399537 .13505554 .31399537 .14305115 .31399537 .1530304 .30599977 .1530304 .3019867 .1530304 .29299928 .1530304 .2919922 .15003968 .2869873 .13905335 .24398804 .035217287 .19099427 .011245728 .15699768 .011245728 .13598633 .011245728 .12599182 .024230957 .12599182 .057174684 .12599182 .08114624 .12799073 .088134769 .13198853 .10510254L.20599365 .3996582Z"/>
<path id="font_2_15" d="M.33099366-.2400055C.33099366-.23701477 .33099366-.23500061 .31399537-.21800232 .18899536-.0920105 .15699768 .09700012 .15699768 .25 .15699768 .42399598 .19499207 .59799197 .31799317 .72299197 .33099366 .73498538 .33099366 .7369995 .33099366 .73999026 .33099366 .746994 .32699586 .75 .32099916 .75 .31098939 .75 .22099304 .6819916 .1619873 .5549927 .11099243 .44499208 .09899902 .33399964 .09899902 .25 .09899902 .17199707 .10998535 .050994874 .16499329-.06201172 .22499085-.18501282 .31098939-.25 .32099916-.25 .32699586-.25 .33099366-.24700928 .33099366-.2400055Z"/>
<path id="font_3_4" d="M.20298767 .0009918213C.20298767 .066986087 .17799378 .10598755 .13899231 .10598755 .10598755 .10598755 .085998538 .08099365 .085998538 .052993776 .085998538 .025985718 .10598755 0 .13899231 0 .15098572 0 .1639862 .0039978029 .17399597 .0129852299 .1769867 .01499939 .17799378 .015991211 .1789856 .015991211 .17999268 .015991211 .18099976 .01499939 .18099976 .0009918213 .18099976-.07316589 .1459961-.13328552 .11299133-.16635132 .101989749-.17736817 .101989749-.17936707 .101989749-.18237305 .101989749-.18936157 .10699463-.19335938 .11199951-.19335938 .12298584-.19335938 .20298767-.116256717 .20298767 .0009918213Z"/>
<path id="font_5_1" d="M.2899933 .4720459C.2979889 .4890442 .29899598 .49705506 .29899598 .5040436 .29899598 .53504946 .2709961 .5590515 .23999024 .5590515 .20199585 .5590515 .18998719 .52804568 .18499756 .51205447L.052993776 .07901001C.051986696 .07701111 .04798889 .06401062 .04798889 .06300354 .04798889 .05101013 .07899475 .041015626 .08699036 .041015626 .09399414 .041015626 .09498596 .043014528 .101989749 .058013917L.2899933 .4720459Z"/>
<path id="font_2_16" d="M.2889862 .25C.2889862 .32798768 .27799989 .44898988 .22299195 .56199648 .16299439 .68499758 .07699585 .75 .066986087 .75 .06098938 .75 .056991579 .74598696 .056991579 .73999026 .056991579 .7369995 .056991579 .73498538 .07598877 .71699526 .17399597 .6179962 .23098755 .45899964 .23098755 .25 .23098755 .07899475 .19400025-.09700012 .069992069-.2230072 .056991579-.23500061 .056991579-.23701477 .056991579-.2400055 .056991579-.2460022 .06098938-.25 .066986087-.25 .07699585-.25 .16699219-.18200684 .22599793-.055007936 .2769928 .054992677 .2889862 .16600037 .2889862 .25Z"/>
<path id="font_2_6" d="M.3899994 .40066529C.39898683 .4116516 .39898683 .4136505 .39898683 .41766358 .39898683 .43066407 .3909912 .43066407 .37298585 .43066407H.052993776L.041992189 .2697754H.066986087C.07299805 .37168885 .09199524 .4086609 .20199585 .4086609H.31599427L.036987306 .031982423C.027999878 .020996094 .027999878 .018997193 .027999878 .01399231 .027999878 0 .034988405 0 .053985597 0H.38398744L.40098573 .18684387H.37599183C.36698915 .06895447 .34599305 .024993897 .22999573 .024993897H.11199951L.3899994 .40066529Z"/>
<path id="font_2_1" d="M.47099305 .21424866C.47099305 .34223939 .37098695 .4482422 .25 .4482422 .125 .4482422 .027999878 .3392334 .027999878 .21424866 .027999878 .085250858 .13198853-.0107421879 .24899292-.0107421879 .36999513-.0107421879 .47099305 .087249759 .47099305 .21424866M.25 .014251709C.20698548 .014251709 .16299439 .035247804 .13598633 .08125305 .11099243 .12524414 .11099243 .18624878 .11099243 .22224427 .11099243 .26124574 .11099243 .31523133 .1349945 .35923768 .1619873 .40522767 .20899964 .426239 .24899292 .426239 .29299928 .426239 .33599855 .40423585 .3619995 .36123658 .3880005 .3182373 .3880005 .26023866 .3880005 .22224427 .3880005 .18624878 .3880005 .13224793 .3659973 .08824158 .34399415 .04324341 .2999878 .014251709 .25 .014251709Z"/>
<path id="font_2_10" d="M.10998535 .34429933V.076034549C.10998535 .0309906 .09899902 .0309906 .03199768 .0309906V0C.066986087 .0009918213 .117996219 .0029907227 .14498902 .0029907227 .17098999 .0029907227 .22299195 .0009918213 .25698854 0V.0309906C.18998719 .0309906 .1789856 .0309906 .1789856 .076034549V.2602234C.1789856 .36431886 .25 .42037965 .31399537 .42037965 .3769989 .42037965 .3880005 .36631776 .3880005 .30926515V.076034549C.3880005 .0309906 .3769989 .0309906 .30999757 .0309906V0C.34498597 .0009918213 .3959961 .0029907227 .4229889 .0029907227 .44898988 .0029907227 .5009918 .0009918213 .5349884 0V.0309906C.46798707 .0309906 .45700074 .0309906 .45700074 .076034549V.2602234C.45700074 .36431886 .5279999 .42037965 .59199526 .42037965 .6549988 .42037965 .66600039 .36631776 .66600039 .30926515V.076034549C.66600039 .0309906 .6549988 .0309906 .58799746 .0309906V0C.6230011 .0009918213 .673996 .0029907227 .70098879 .0029907227 .72698977 .0029907227 .7789917 .0009918213 .8129883 0V.0309906C.7609863 .0309906 .73599246 .0309906 .7350006 .061019899V.25221253C.7350006 .3383026 .7350006 .36932374 .70399478 .405365 .6899872 .42237855 .6569977 .4423828 .598999 .4423828 .5149994 .4423828 .47099305 .38233949 .45399476 .34429933 .43998719 .43138124 .3659973 .4423828 .32099916 .4423828 .24798584 .4423828 .20098877 .39935304 .17298889 .33729554V.4423828L.03199768 .43138124V.40037538C.101989749 .4003601 .10998535 .39335633 .10998535 .34429933Z"/>
<path id="font_2_2" d="M.13598633 .07797241C.13598633 .041992189 .13398743 .0309906 .056991579 .0309906H.032989503V0H.6100006L.6519928 .2579193H.6269989C.60198977 .10397339 .57899478 .0309906 .40699769 .0309906H.27398683C.22698975 .0309906 .22499085 .037994386 .22499085 .07098389V.33789063H.31498719C.4119873 .33789063 .4229889 .30589295 .4229889 .220932H.44799806V.48576356H.4229889C.4229889 .39985658 .4119873 .36888124 .31498719 .36888124H.22499085V.6086426C.22499085 .6416168 .22698975 .64860537 .27398683 .64860537H.40299989C.55599978 .64860537 .58299258 .59365847 .598999 .45480348H.6239929L.59599307 .6796112H.032989503V.64860537H.056991579C.13398743 .64860537 .13598633 .637619 .13598633 .60165408V.07797241Z"/>
<path id="font_2_3" d="M.20799256 .19424439C.22999573 .19024658 .31199647 .17424011 .31199647 .102249149 .31199647 .051254274 .2769928 .011245728 .19898987 .011245728 .114990238 .011245728 .07899475 .06825256 .05999756 .15324402 .056991579 .1662445 .055999757 .17024231 .04598999 .17024231 .032989503 .17024231 .032989503 .16323853 .032989503 .14524842V.013244629C.032989503-.003753662 .032989503-.0107421879 .04399109-.0107421879 .04899597-.0107421879 .049987794-.009750366 .068984989 .009246826 .070999149 .011245728 .070999149 .013244629 .08898926 .03224182 .1329956-.009750366 .17799378-.0107421879 .19898987-.0107421879 .31399537-.0107421879 .3600006 .056243898 .3600006 .12825012 .3600006 .1812439 .32998658 .21124268 .31799317 .22323609 .2849884 .25523377 .24598694 .26324464 .20399475 .27124024 .147995 .28224183 .08099365 .2952423 .08099365 .35324098 .08099365 .38822938 .10699463 .42922975 .19299317 .42922975 .30299378 .42922975 .30799867 .3392334 .30999757 .3082428 .31098939 .2992401 .31999208 .2992401 .32199098 .2992401 .33499146 .2992401 .33499146 .304245 .33499146 .3232422V.4242401C.33499146 .4412384 .33499146 .4482422 .32398988 .4482422 .31900025 .4482422 .31698609 .4482422 .3039856 .43623353 .30099488 .43223573 .29100038 .42323304 .2869873 .42022706 .24899292 .4482422 .20799256 .4482422 .19299317 .4482422 .070999149 .4482422 .032989503 .38124085 .032989503 .3252411 .032989503 .29023744 .04899597 .26223756 .07598877 .24023438 .10798645 .21424866 .13598633 .2082367 .20799256 .19424439Z"/>
<path id="font_2_8" d="M.10998535 .076034549C.10998535 .0309906 .09899902 .0309906 .03199768 .0309906V0C.066986087 .0009918213 .117996219 .0029907227 .14498902 .0029907227 .17098999 .0029907227 .22299195 .0009918213 .25698854 0V.0309906C.18998719 .0309906 .1789856 .0309906 .1789856 .076034549V.2602234C.1789856 .36431886 .25 .42037965 .31399537 .42037965 .3769989 .42037965 .3880005 .36631776 .3880005 .30926515V.076034549C.3880005 .0309906 .3769989 .0309906 .30999757 .0309906V0C.34498597 .0009918213 .3959961 .0029907227 .4229889 .0029907227 .44898988 .0029907227 .5009918 .0009918213 .5349884 0V.0309906C.48298646 .0309906 .45799256 .0309906 .45700074 .061019899V.25221253C.45700074 .3383026 .45700074 .36932374 .42599488 .405365 .4119873 .42237855 .3789978 .4423828 .32099916 .4423828 .23699951 .4423828 .19299317 .38233949 .17599488 .34429933V.69433596L.03199768 .68333438V.6523285C.101989749 .6523285 .10998535 .6453247 .10998535 .596344V.076034549Z"/>
<path id="font_2_7" d="M.11199951 .2524414C.117996219 .40126039 .20199585 .426239 .23599243 .426239 .33898927 .426239 .34899903 .2913971 .34899903 .2524414H.11199951M.11099243 .23144531H.3899994C.4119873 .23144531 .4149933 .23144531 .4149933 .2524414 .4149933 .35131837 .36099244 .4482422 .23599243 .4482422 .11999512 .4482422 .027999878 .34532167 .027999878 .22042847 .027999878 .08631897 .1329956-.0107421879 .24798584-.0107421879 .36999513-.0107421879 .4149933 .10032654 .4149933 .11933899 .4149933 .12934876 .40699769 .13134766 .4019928 .13134766 .3929901 .13134766 .3909912 .12535095 .3889923 .11734009 .35398866 .014251709 .2639923 .014251709 .2539978 .014251709 .20399475 .014251709 .1639862 .044281007 .14099121 .08131409 .11099243 .12934876 .11099243 .19540406 .11099243 .23144531Z"/>
<path id="font_2_9" d="M.1769867 .69433596 .032989503 .68333438V.6523285C.102996829 .6523285 .11099243 .6453247 .11099243 .5962982V.07601929C.11099243 .0309906 .099990848 .0309906 .032989503 .0309906V0C.06599426 .0009918213 .11898804 .0029907227 .14399719 .0029907227 .16899109 .0029907227 .21798706 .0009918213 .25498963 0V.0309906C.18798828 .0309906 .1769867 .0309906 .1769867 .07601929V.69433596Z"/>
<path id="font_2_4" d="M.17199707 .3773346V.69433596L.027999878 .68333438V.6523285C.09799194 .6523285 .10598755 .6453247 .10598755 .596344V0H.1309967C.13198853 .0009918213 .13999939 .01499939 .16699219 .062026979 .18199158 .039260866 .22399903-.0107421879 .2979889-.0107421879 .4169922-.0107421879 .5209961 .08728027 .5209961 .2163086 .5209961 .34335328 .4229889 .4423828 .30899049 .4423828 .23098755 .4423828 .18798828 .39535523 .17199707 .3773346M.1749878 .11407471V.32028199C.1749878 .33929444 .1749878 .3403015 .18598938 .35630799 .22499085 .41236878 .27999879 .42037965 .3039856 .42037965 .34899903 .42037965 .3849945 .39434815 .40899659 .35630799 .43499757 .3152771 .43798829 .2582245 .43798829 .21717835 .43798829 .18014527 .43598939 .12008667 .40699769 .075042728 .38598634 .044021608 .34799195 .010986328 .2939911 .010986328 .24899292 .010986328 .21299744 .035003663 .18899536 .07203674 .1749878 .093063358 .1749878 .096069339 .1749878 .11407471Z"/>
<path id="font_2_5" d="M.4149933 .33569337C.44099427 .39866639 .49198915 .3996582 .5079956 .3996582V.43066407C.4850006 .4286499 .45599366 .42765809 .43299867 .42765809 .4149933 .42765809 .36799623 .42965699 .34599305 .43066407V.3996582C.3769989 .39866639 .3929901 .3816681 .3929901 .35668946 .3929901 .34669496 .3919983 .34469605 .3869934 .33270265L.28599549 .08683777 .1749878 .35568238C.17098999 .36567689 .16899109 .36967469 .16899109 .3736725 .16899109 .3996582 .20599365 .3996582 .22499085 .3996582V.43066407C.19898987 .42965699 .1329956 .42765809 .115997318 .42765809 .08898926 .42765809 .04899597 .4286499 .018997193 .43066407V.3996582C.066986087 .3996582 .085998538 .3996582 .099990848 .36468507L.25-.00010681152C.24499512-.0131073 .23098755-.046081544 .22499085-.05908203 .20298767-.11405945 .1749878-.18309021 .11099243-.18309021 .10598755-.18309021 .08299255-.18309021 .06399536-.16506958 .09498596-.16105652 .102996829-.1390686 .102996829-.123062137 .102996829-.09706116 .083999637-.08105469 .06098938-.08105469 .040985109-.08105469 .018997193-.094055179 .018997193-.124069217 .018997193-.16906739 .06098938-.20507813 .11099243-.20507813 .17399597-.20507813 .21499634-.14805603 .23899842-.09106445L.4149933 .33569337Z"/>
<path id="font_3_3" d="M.58299258 .4033661C.59399417 .41436769 .59399417 .41636659 .59399417 .41937257 .59399417 .42536927 .58999636 .43138124 .58200076 .43138124 .57598879 .43138124 .57199099 .42637635 .56599429 .41937257L.33699037 .16418457C.29699708 .29127503 .2889862 .31629945 .2659912 .369339 .25498963 .39234925 .23298645 .4423828 .14498902 .4423828 .08699036 .4423828 .06098938 .39035035 .06098938 .37634278 .06098938 .3753357 .06098938 .366333 .07299805 .366333 .08198547 .366333 .083999637 .3723297 .085998538 .3773346 .100997928 .41636659 .1329956 .42037965 .13899231 .42037965 .16899109 .42037965 .19898987 .34431459 .21598816 .3002777 .24798584 .22122193 .27999879 .10513306 .27999879 .102127078 .27999879 .101135257 .27999879 .09913635 .27198792 .09112549L.041992189-.16607666C.0309906-.17707825 .0309906-.17907715 .0309906-.18208313 .0309906-.18807984 .036987306-.1940918 .042999269-.1940918 .049987794-.1940918 .054992677-.18708802 .05899048-.18309021L.28799439 .07411194C.31999208-.029968262 .33198548-.069000247 .35598756-.12504578 .36898805-.15505982 .3909912-.20507813 .47999574-.20507813 .5379944-.20507813 .5649872-.15306092 .5649872-.14006043 .5649872-.13505554 .5629883-.12904358 .5529938-.12904358 .54299929-.12904358 .5419922-.13304138 .5389862-.14305115 .5299988-.16706848 .5049896-.18309021 .48599244-.18309021 .43499757-.18309021 .36698915 .05909729 .34498597 .13615418L.58299258 .4033661Z"/>
<path id="font_4_1" d="M.7569885 .16801453H.72299197C.7220001 .16500855 .71299746 .117996219 .7049866 .09500122 .69898989 .07899475 .69599917 .070999149 .6339874 .070999149H.548996C.56599429 .1269989 .59498599 .16601563 .651001 .24102783 .69999697 .30703736 .74398806 .37306214 .74398806 .45407105 .74398806 .58909609 .598999 .703125 .40699769 .703125 .21499634 .703125 .069992069 .58909609 .069992069 .45407105 .069992069 .36605836 .117996219 .30104066 .18798828 .20701599 .21699524 .16900635 .24899292 .12400818 .2649994 .070999149H.17999268C.11999512 .070999149 .115997318 .07899475 .11099243 .08999634 .102996829 .10899353 .09098816 .16601563 .09098816 .16801453H.056991579L.09298706 0H.272995C.2939911 0 .30099488 0 .30099488 .021987915 .30099488 .09399414 .2639923 .17901612 .24299622 .22802735 .20498657 .31604005 .1769867 .38105775 .1769867 .45507813 .1769867 .59710696 .2899933 .67510989 .40699769 .67510989 .5249939 .67510989 .6369934 .59609988 .6369934 .45507813 .6369934 .38005067 .6069946 .31105042 .57299807 .23303223 .5509949 .18301392 .5130005 .09500122 .5130005 .022994996 .5130005 0 .5189972 0 .5419922 0H.72099307L.7569885 .16801453Z"/>
<path id="font_2_14" d="M.68699648 .32714845C.70199587 .32714845 .72099307 .32714845 .72099307 .34713746 .72099307 .36714173 .70199587 .36714173 .6879883 .36714173H.08898926C.07499695 .36714173 .055999757 .36714173 .055999757 .34713746 .055999757 .32714845 .07499695 .32714845 .08999634 .32714845H.68699648M.6879883 .13284302C.70199587 .13284302 .72099307 .13284302 .72099307 .15284729 .72099307 .17285156 .70199587 .17285156 .68699648 .17285156H.08999634C.07499695 .17285156 .055999757 .17285156 .055999757 .15284729 .055999757 .13284302 .07499695 .13284302 .08898926 .13284302H.6879883Z"/>
<path id="font_2_22" d="M.2939911 .16503906V.07800293C.2939911 .041992189 .2919922 .0309906 .21798706 .0309906H.19699097V0C.23799134 .0029907227 .2899933 .0029907227 .33198548 .0029907227 .37399293 .0029907227 .4269867 .0029907227 .46798707 0V.0309906H.44699098C.37298585 .0309906 .37098695 .041992189 .37098695 .07800293V.16503906H.47099305V.19602967H.37098695V.65075686C.37098695 .67074587 .37098695 .6767578 .35499574 .6767578 .34599305 .6767578 .34298707 .6767578 .33499146 .66474917L.027999878 .19602967V.16503906H.2939911M.2999878 .19602967H.055999757L.2999878 .5688019V.19602967Z"/>
</defs>
<g clip-path="url(#clip_1)">
<use data-text="0" xlink:href="#font_2_18" transform="matrix(9.96264,0,0,-9.96264,27.425217,150.85382)" fill="#231f20"/>
<use data-text="." xlink:href="#font_2_17" transform="matrix(9.96264,0,0,-9.96264,32.46522,150.85382)" fill="#231f20"/>
<use data-text="5" xlink:href="#font_2_23" transform="matrix(9.96264,0,0,-9.96264,35.224874,150.85382)" fill="#231f20"/>
<use data-text="0" xlink:href="#font_2_18" transform="matrix(9.96264,0,0,-9.96264,27.425217,116.29401)" fill="#231f20"/>
<use data-text="." xlink:href="#font_2_17" transform="matrix(9.96264,0,0,-9.96264,32.46522,116.29401)" fill="#231f20"/>
<use data-text="6" xlink:href="#font_2_11" transform="matrix(9.96264,0,0,-9.96264,35.224874,116.29401)" fill="#231f20"/>
<use data-text="0" xlink:href="#font_2_18" transform="matrix(9.96264,0,0,-9.96264,27.425217,81.85382)" fill="#231f20"/>
<use data-text="." xlink:href="#font_2_17" transform="matrix(9.96264,0,0,-9.96264,32.46522,81.85382)" fill="#231f20"/>
<use data-text="7" xlink:href="#font_2_12" transform="matrix(9.96264,0,0,-9.96264,35.224874,81.85382)" fill="#231f20"/>
<use data-text="0" xlink:href="#font_2_18" transform="matrix(9.96264,0,0,-9.96264,27.425217,47.294069)" fill="#231f20"/>
<use data-text="." xlink:href="#font_2_17" transform="matrix(9.96264,0,0,-9.96264,32.46522,47.294069)" fill="#231f20"/>
<use data-text="8" xlink:href="#font_2_13" transform="matrix(9.96264,0,0,-9.96264,35.224874,47.294069)" fill="#231f20"/>
<use data-text="0" xlink:href="#font_2_18" transform="matrix(9.96264,0,0,-9.96264,44.34512,161.77405)" fill="#231f20"/>
<use data-text="1" xlink:href="#font_2_19" transform="matrix(9.96264,0,0,-9.96264,101.10527,161.77405)" fill="#231f20"/>
<use data-text="2" xlink:href="#font_2_20" transform="matrix(9.96264,0,0,-9.96264,157.98538,161.77405)" fill="#231f20"/>
<use data-text="3" xlink:href="#font_2_21" transform="matrix(9.96264,0,0,-9.96264,214.74553,161.77405)" fill="#231f20"/>
<path transform="matrix(.1,0,0,-.1,-28.854886,1100.1939)" stroke-width="2.5" stroke-linecap="butt" stroke-miterlimit="3.8" stroke-linejoin="miter" fill="none" stroke="#000000" d="M756.199 9517.8H787.699M2460.7 9517.8H2429.2"/>
<path transform="matrix(.1,0,0,-.1,-28.854886,1100.1939)" stroke-width="2.5" stroke-linecap="butt" stroke-miterlimit="3.8" stroke-linejoin="miter" fill="none" stroke="#000000" d="M756.199 9862.8H787.699M2460.7 9862.8H2429.2"/>
<path transform="matrix(.1,0,0,-.1,-28.854886,1100.1939)" stroke-width="2.5" stroke-linecap="butt" stroke-miterlimit="3.8" stroke-linejoin="miter" fill="none" stroke="#000000" d="M756.199 10207.8H787.699M2460.7 10207.8H2429.2"/>
<path transform="matrix(.1,0,0,-.1,-28.854886,1100.1939)" stroke-width="2.5" stroke-linecap="butt" stroke-miterlimit="3.8" stroke-linejoin="miter" fill="none" stroke="#000000" d="M756.199 10552.8H787.699M2460.7 10552.8H2429.2"/>
<path transform="matrix(.1,0,0,-.1,-28.854886,1100.1939)" stroke-width="2.5" stroke-linecap="butt" stroke-miterlimit="3.8" stroke-linejoin="miter" fill="none" stroke="#000000" d="M756.199 9517.8V9549.3M756.199 10725.3V10693.8"/>
<path transform="matrix(.1,0,0,-.1,-28.854886,1100.1939)" stroke-width="2.5" stroke-linecap="butt" stroke-miterlimit="3.8" stroke-linejoin="miter" fill="none" stroke="#000000" d="M1324.2 9517.8V9549.3M1324.2 10725.3V10693.8"/>
<path transform="matrix(.1,0,0,-.1,-28.854886,1100.1939)" stroke-width="2.5" stroke-linecap="butt" stroke-miterlimit="3.8" stroke-linejoin="miter" fill="none" stroke="#000000" d="M1892.7 9517.8V9549.3M1892.7 10725.3V10693.8"/>
<path transform="matrix(.1,0,0,-.1,-28.854886,1100.1939)" stroke-width="2.5" stroke-linecap="butt" stroke-miterlimit="3.8" stroke-linejoin="miter" fill="none" stroke="#000000" d="M2460.7 9517.8V9549.3M2460.7 10725.3V10693.8"/>
<path transform="matrix(.1,0,0,-.1,-28.854886,1100.1939)" stroke-width="2.5" stroke-linecap="butt" stroke-miterlimit="3.8" stroke-linejoin="miter" fill="none" stroke="#000000" d="M756.199 10725.3V9517.8H2460.7V10725.3H756.199Z"/>
<path transform="matrix(.1,0,0,-.1,-28.854886,1100.1939)" stroke-width="2.5" stroke-linecap="butt" stroke-miterlimit="3.8" stroke-linejoin="miter" fill="none" stroke="#000000" d="M2033.2 10638.8H2328.7M765.199 9517.8V9521.3L765.699 9563.3 766.699 9607.8 767.699 9655.3 768.699 9704.3 769.699 9756.3 771.199 9809.8 772.699 9865.3 774.199 9922.3 775.699 9980.8 777.699 10039.8 779.699 10099.3 781.699 10158.3 784.199 10216.8 787.199 10274.3 790.199 10329.3 793.199 10381.3 796.699 10430.3 800.699 10474.8 805.199 10515.3 809.699 10550.3 814.699 10579.8 820.699 10603.8 826.699 10622.3 833.699 10634.8 841.199 10641.8 849.199 10643.8 858.199 10641.3 868.199 10634.3 879.199 10623.8 891.199 10610.3 904.199 10594.3 918.699 10575.8 934.199 10554.8 951.699 10532.8 970.699 10508.3 991.699 10482.8 1014.2 10455.8 1039.7 10427.3 1067.2 10397.3 1097.2 10365.8 1130.7 10332.8 1167.2 10299.3 1207.2 10264.3 1250.7 10228.8 1299.2 10192.8 1352.2 10156.8 1410.2 10120.8 1473.7 10084.8 1543.7 10050.3 1620.2 10016.8 1704.7 9984.8 1796.7 9955.3 1898.2 9928.3 2009.7 9903.8 2131.7 9882.3 2265.7 9864.3 2413.2 9849.8 2460.7 9846.8"/>
<path transform="matrix(.1,0,0,-.1,-28.854886,1100.1939)" stroke-width="2.5" stroke-linecap="butt" stroke-dasharray="10,15" stroke-miterlimit="3.8" stroke-linejoin="miter" fill="none" stroke="#000000" d="M2033.2 10528.8H2328.7M765.199 9517.8 765.699 9557.8 766.699 9608.8 767.699 9662.8 769.199 9719.8 770.699 9779.8 772.199 9842.3 773.699 9906.8 775.699 9973.3 777.699 10040.3 780.199 10108.3 782.699 10175.3 785.699 10241.3 788.699 10305.3 792.199 10365.8 796.199 10422.3 800.699 10473.8 805.699 10519.3 811.199 10558.3 817.199 10589.8 823.699 10614.3 831.199 10631.3 839.199 10641.3 848.699 10644.3 858.699 10641.3 870.199 10633.3 882.699 10620.8 896.699 10603.8 912.199 10584.3 929.699 10561.8 948.699 10536.8 970.199 10509.8 993.699 10480.3 1020.2 10449.3 1049.7 10416.3 1082.2 10381.3 1118.2 10345.3 1158.2 10306.8 1203.2 10267.8 1252.7 10227.3 1307.7 10186.3 1368.7 10145.3 1436.7 10104.3 1512.7 10064.3 1596.7 10025.3 1689.7 9988.8 1793.7 9954.3 1908.7 9923.8 2036.7 9896.3 2178.7 9873.3 2336.7 9854.3 2460.7 9844.3"/>
<path transform="matrix(.1,0,0,-.1,-28.854886,1100.1939)" stroke-width="2.5" stroke-linecap="butt" stroke-dasharray="5,7.5" stroke-miterlimit="3.8" stroke-linejoin="miter" fill="none" stroke="#000000" d="M2033.2 10418.8H2328.7M765.199 9517.8 765.699 9558.8 766.699 9609.8 767.699 9663.8 769.199 9721.3 770.699 9780.8 772.199 9843.3 773.699 9907.8 775.699 9974.3 777.699 10041.3 780.199 10109.3 782.699 10176.3 785.699 10242.3 788.699 10306.3 792.199 10366.8 796.199 10423.3 800.699 10474.8 805.699 10520.3 811.199 10558.8 817.199 10590.8 823.699 10614.8 831.199 10631.8 839.199 10641.8 848.699 10644.8 858.699 10642.3 870.199 10633.8 882.699 10621.3 896.699 10604.8 912.199 10584.8 929.699 10562.3 948.699 10537.3 970.199 10510.3 993.699 10481.3 1020.2 10450.3 1049.7 10417.3 1082.2 10382.3 1118.2 10345.8 1158.2 10307.8 1203.2 10268.8 1252.7 10228.3 1307.7 10187.3 1368.7 10146.3 1436.7 10105.3 1512.7 10065.3 1596.7 10026.3 1689.7 9989.8 1793.7 9955.3 1908.7 9924.8 2036.7 9897.3 2178.7 9874.3 2336.7 9855.3 2460.7 9845.3"/>
<path transform="matrix(.1,0,0,-.1,-28.854886,1100.1939)" stroke-width="2.5" stroke-linecap="butt" stroke-dasharray="30,10,5,10" stroke-miterlimit="3.8" stroke-linejoin="miter" fill="none" stroke="#000000" d="M2033.2 10308.8H2328.7M764.699 9517.8V9519.3L765.699 9567.3 766.699 9618.3 767.699 9672.8 769.199 9729.8 770.699 9789.8 772.199 9852.3 773.699 9916.8 775.699 9982.8 777.699 10050.3 780.199 10117.8 782.699 10184.8 785.699 10250.8 788.699 10314.3 792.199 10374.8 796.199 10430.8 800.699 10481.8 805.699 10526.8 811.199 10565.3 817.199 10596.8 823.699 10620.8 831.199 10637.8 839.199 10647.3 848.699 10650.3 858.699 10647.3 870.199 10639.3 882.699 10626.3 896.699 10609.8 912.199 10590.3 929.699 10567.8 948.699 10542.8 970.199 10515.8 993.699 10486.8 1020.2 10456.3 1049.7 10423.3 1082.2 10388.8 1118.2 10352.3 1158.2 10314.8 1203.2 10275.3 1252.7 10235.3 1307.7 10194.8 1368.7 10153.8 1436.7 10112.8 1512.7 10072.8 1596.7 10034.3 1689.7 9997.8 1793.7 9963.8 1908.7 9932.8 2036.7 9905.8 2178.7 9882.3 2336.7 9863.8 2460.7 9853.3"/>
<path transform="matrix(.1,0,0,-.1,-28.854886,1100.1939)" stroke-width="2.5" stroke-linecap="butt" stroke-miterlimit="3.8" stroke-linejoin="miter" fill="none" stroke="#000000" d="M756.199 10725.3V9517.8H2460.7V10725.3H756.199Z"/>
<use data-text="A" xlink:href="#font_3_1" transform="matrix(0,-9.96264,-9.96264,-0,10.745113,100.09387)" fill="#231f20"/>
<use data-text="1" xlink:href="#font_4_2" transform="matrix(0,-6.97385,-6.97385,-0,12.184952,92.65405)" fill="#231f20"/>
<use data-text="1" xlink:href="#font_4_2" transform="matrix(0,-6.97385,-6.97385,-0,12.184952,88.69409)" fill="#231f20"/>
<use data-text="1" xlink:href="#font_4_2" transform="matrix(0,-6.97385,-6.97385,-0,12.184952,84.73407)" fill="#231f20"/>
<use data-text="1" xlink:href="#font_4_2" transform="matrix(0,-6.97385,-6.97385,-0,12.184952,80.77411)" fill="#231f20"/>
<use data-text="t" xlink:href="#font_3_2" transform="matrix(9.96264,0,0,-9.96264,130.14511,178.33386)" fill="#231f20"/>
<use data-text="A" xlink:href="#font_3_1" transform="matrix(9.96264,0,0,-9.96264,95.82521,13.573853)" fill="#231f20"/>
<use data-text="1" xlink:href="#font_4_2" transform="matrix(6.97385,0,0,-6.97385,103.265048,15.013672)" fill="#231f20"/>
<use data-text="1" xlink:href="#font_4_2" transform="matrix(6.97385,0,0,-6.97385,107.22505,15.013672)" fill="#231f20"/>
<use data-text="1" xlink:href="#font_4_2" transform="matrix(6.97385,0,0,-6.97385,111.18506,15.013672)" fill="#231f20"/>
<use data-text="1" xlink:href="#font_4_2" transform="matrix(6.97385,0,0,-6.97385,115.14508,15.013672)" fill="#231f20"/>
<use data-text="(" xlink:href="#font_2_15" transform="matrix(9.96264,0,0,-9.96264,119.705249,13.573853)" fill="#231f20"/>
<use data-text="t" xlink:href="#font_3_2" transform="matrix(9.96264,0,0,-9.96264,123.54509,13.573853)" fill="#231f20"/>
<use data-text="," xlink:href="#font_3_4" transform="matrix(9.96264,0,0,-9.96264,127.145099,13.573853)" fill="#231f20"/>
<use data-text="t" xlink:href="#font_3_2" transform="matrix(9.96264,0,0,-9.96264,131.58461,13.573853)" fill="#231f20"/>
<use data-text="&#x2032;" xlink:href="#font_5_1" transform="matrix(6.97385,0,0,-6.97385,135.18489,9.973877)" fill="#231f20"/>
<use data-text=")" xlink:href="#font_2_16" transform="matrix(9.96264,0,0,-9.96264,137.94506,13.573853)" fill="#231f20"/>
<use data-text="z" xlink:href="#font_2_6" transform="matrix(9.96264,0,0,-9.96264,145.14507,13.573853)" fill="#231f20"/>
<use data-text="o" xlink:href="#font_2_1" transform="matrix(9.96264,0,0,-9.96264,149.58507,13.573853)" fill="#231f20"/>
<use data-text="o" xlink:href="#font_2_1" transform="matrix(9.96264,0,0,-9.96264,154.86499,13.573853)" fill="#231f20"/>
<use data-text="m" xlink:href="#font_2_10" transform="matrix(9.96264,0,0,-9.96264,159.905,13.573853)" fill="#231f20"/>
<use data-text="E" xlink:href="#font_2_2" transform="matrix(9.96264,0,0,-9.96264,133.9849,38.773805)" fill="#231f20"/>
<use data-text="s" xlink:href="#font_2_3" transform="matrix(9.96264,0,0,-9.96264,140.82489,38.773805)" fill="#231f20"/>
<use data-text="h" xlink:href="#font_2_8" transform="matrix(9.96264,0,0,-9.96264,144.78488,38.773805)" fill="#231f20"/>
<use data-text="e" xlink:href="#font_2_7" transform="matrix(9.96264,0,0,-9.96264,150.30489,38.773805)" fill="#231f20"/>
<use data-text="l" xlink:href="#font_2_9" transform="matrix(9.96264,0,0,-9.96264,154.74489,38.773805)" fill="#231f20"/>
<use data-text="b" xlink:href="#font_2_4" transform="matrix(9.96264,0,0,-9.96264,157.50455,38.773805)" fill="#231f20"/>
<use data-text="y" xlink:href="#font_2_5" transform="matrix(9.96264,0,0,-9.96264,162.78456,38.773805)" fill="#231f20"/>
<use data-text="&#x03c7;" xlink:href="#font_3_3" transform="matrix(9.96264,0,0,-9.96264,132.18489,49.693727)" fill="#231f20"/>
<use data-text="&#x2126;" xlink:href="#font_4_1" transform="matrix(6.97385,0,0,-6.97385,138.42513,51.133546)" fill="#231f20"/>
<use data-text="=" xlink:href="#font_2_14" transform="matrix(9.96264,0,0,-9.96264,147.42513,49.693727)" fill="#231f20"/>
<use data-text="4" xlink:href="#font_2_22" transform="matrix(9.96264,0,0,-9.96264,157.86498,49.693727)" fill="#231f20"/>
<use data-text="0" xlink:href="#font_2_18" transform="matrix(9.96264,0,0,-9.96264,162.90499,49.693727)" fill="#231f20"/>
<use data-text="&#x03c7;" xlink:href="#font_3_3" transform="matrix(9.96264,0,0,-9.96264,132.18492,60.73352)" fill="#231f20"/>
<use data-text="&#x2126;" xlink:href="#font_4_1" transform="matrix(6.97385,0,0,-6.97385,138.42516,62.173707)" fill="#231f20"/>
<use data-text="=" xlink:href="#font_2_14" transform="matrix(9.96264,0,0,-9.96264,147.42516,60.73352)" fill="#231f20"/>
<use data-text="2" xlink:href="#font_2_20" transform="matrix(9.96264,0,0,-9.96264,157.865,60.73352)" fill="#231f20"/>
<use data-text="0" xlink:href="#font_2_18" transform="matrix(9.96264,0,0,-9.96264,162.90502,60.73352)" fill="#231f20"/>
<use data-text="&#x03c7;" xlink:href="#font_3_3" transform="matrix(9.96264,0,0,-9.96264,132.18495,71.77368)" fill="#231f20"/>
<use data-text="&#x2126;" xlink:href="#font_4_1" transform="matrix(6.97385,0,0,-6.97385,138.42519,73.2135)" fill="#231f20"/>
<use data-text="=" xlink:href="#font_2_14" transform="matrix(9.96264,0,0,-9.96264,147.42519,71.77368)" fill="#231f20"/>
<use data-text="1" xlink:href="#font_2_19" transform="matrix(9.96264,0,0,-9.96264,157.86504,71.77368)" fill="#231f20"/>
<use data-text="0" xlink:href="#font_2_18" transform="matrix(9.96264,0,0,-9.96264,162.90505,71.77368)" fill="#231f20"/>
</g>
</svg>
