<svg xmlns="http://www.w3.org/2000/svg" xmlns:xlink="http://www.w3.org/1999/xlink" xmlns:inkscape="http://www.inkscape.org/namespaces/inkscape" version="1.1" width="222.8283" height="183.44916" viewBox="0 0 222.8283 183.44916">
<defs>
<clipPath id="clip_1">
<path transform="matrix(1,0,0,-1,-28.75264,1100.1939)" d="M28.75264 916.7447H251.58094V1100.1939H28.75264Z" clip-rule="evenodd"/>
</clipPath>
<path id="font_2_7" d="M.45999146 .31976319C.45999146 .39982606 .45498658 .47988893 .41999818 .5539398 .37399293 .65000918 .2919922 .6660156 .25 .6660156 .18998719 .6660156 .116989139 .64001467 .07598877 .54693606 .04399109 .47789 .038986207 .39982606 .038986207 .31976319 .038986207 .24472046 .042999269 .15464783 .083999637 .07859802 .1269989-.0024719239 .19999695-.022460938 .24899292-.022460938 .30299378-.022460938 .3789978-.0014648438 .4229889 .09359741 .45498658 .16265869 .45999146 .2407074 .45999146 .31976319M.24899292-.00047302247C.20999146-.00047302247 .15098572 .024551392 .1329956 .12062073 .12199402 .18066406 .12199402 .2727356 .12199402 .3317871 .12199402 .39582826 .12199402 .46188355 .12998963 .5159149 .14898682 .63500979 .22399903 .64401248 .24899292 .64401248 .28199769 .64401248 .34799195 .6259918 .36698915 .52693179 .3769989 .47088624 .3769989 .39482118 .3769989 .3317871 .3769989 .25672914 .3769989 .18867493 .3659973 .12461853 .35099793 .029556275 .2939911-.00047302247 .24899292-.00047302247Z"/>
<path id="font_2_6" d="M.19198609 .052993776C.19198609 .08198547 .16799927 .10598755 .13899231 .10598755 .10998535 .10598755 .085998538 .08198547 .085998538 .052993776 .085998538 .023986817 .10998535 0 .13899231 0 .16799927 0 .19198609 .023986817 .19198609 .052993776Z"/>
<path id="font_2_8" d="M.2939911 .64004519C.2939911 .66400149 .2939911 .6660156 .2709961 .6660156 .20899964 .60227969 .12098694 .60227969 .08898926 .60227969V.57128909C.10899353 .57128909 .16799927 .57128909 .21998596 .5972748V.07902527C.21998596 .042999269 .21699524 .0309906 .1269989 .0309906H.09498596V0C.12998963 .0029907227 .21699524 .0029907227 .25698854 .0029907227 .29699708 .0029907227 .38398744 .0029907227 .4189911 0V.0309906H.3869934C.29699708 .0309906 .2939911 .041992189 .2939911 .07902527V.64004519Z"/>
<path id="font_2_11" d="M.44898988 .20022583C.44898988 .3193512 .36698915 .41944886 .25898744 .41944886 .21099854 .41944886 .16799927 .40345765 .13198853 .36842347V.5637665C.1519928 .5577698 .18499756 .55078127 .21699524 .55078127 .33999635 .55078127 .4099884 .6417694 .4099884 .6547699 .4099884 .6607666 .40699769 .6657715 .3999939 .6657715 .39898683 .6657715 .39698792 .6657715 .3919983 .66278079 .37199403 .6537781 .32299806 .6337738 .2559967 .6337738 .21598816 .6337738 .16999817 .6407776 .12298584 .6617737 .114990238 .66477969 .11299133 .66477969 .11099243 .66477969 .100997928 .66477969 .100997928 .6567688 .100997928 .6407776V.34439088C.100997928 .32637025 .100997928 .31835938 .114990238 .31835938 .12199402 .31835938 .12399292 .32136537 .12799073 .32736207 .13899231 .3433838 .17599488 .39746095 .25698854 .39746095 .30899049 .39746095 .33399964 .35139466 .34199525 .33337403 .35798646 .29632569 .3600006 .25727845 .3600006 .20722962 .3600006 .17222595 .3600006 .11222839 .33599855 .07035828 .31199647 .031463624 .2749939 .0055389406 .22898865 .0055389406 .1559906 .0055389406 .09899902 .058380128 .08198547 .11723328 .084991458 .1162262 .08799744 .115234378 .09899902 .115234378 .13198853 .115234378 .14898682 .14022827 .14898682 .16423035 .14898682 .18823242 .13198853 .21322632 .09899902 .21322632 .084991458 .21322632 .049987794 .20622254 .049987794 .16023255 .049987794 .07434082 .11898804-.022460938 .23098755-.022460938 .34700013-.022460938 .44898988 .073349 .44898988 .20022583Z"/>
<path id="font_2_9" d="M.1269989 .07699585 .23298645 .18003845C.3889923 .31811524 .44898988 .3721466 .44898988 .47216798 .44898988 .5860901 .35899354 .6660156 .23699951 .6660156 .12399292 .6660156 .049987794 .57411196 .049987794 .48516847 .049987794 .4291687 .099990848 .4291687 .102996829 .4291687 .11999512 .4291687 .15499878 .44117738 .15499878 .48217774 .15499878 .5081787 .13699341 .5341797 .101989749 .5341797 .09399414 .5341797 .09199524 .5341797 .08898926 .5331726 .11199951 .59806826 .1659851 .63500979 .22399903 .63500979 .31498719 .63500979 .35798646 .5541382 .35798646 .47216798 .35798646 .39215089 .30799867 .31311036 .25299073 .25108338L.06098938 .036987306C.049987794 .025985718 .049987794 .023986817 .049987794 0H.42099L.44898988 .17404175H.42399598C.4189911 .14402771 .4119873 .1000061 .4019928 .084991458 .394989 .07699585 .32899476 .07699585 .30699159 .07699585H.1269989Z"/>
<path id="font_2_10" d="M.2899933 .35191346C.37199403 .37893678 .42999269 .4490509 .42999269 .52809146 .42999269 .6100464 .34199525 .6660156 .24598694 .6660156 .14498902 .6660156 .068984989 .60606387 .068984989 .53009036 .068984989 .49710084 .09098816 .47808839 .11999512 .47808839 .15098572 .47808839 .17098999 .50009158 .17098999 .5290985 .17098999 .57910159 .12399292 .57910159 .10899353 .57910159 .13999939 .62802127 .20599365 .64100649 .24198914 .64100649 .2829895 .64100649 .33799745 .6190338 .33799745 .5290985 .33799745 .51708987 .33599855 .45906068 .30999757 .4149933 .27999879 .36691285 .24598694 .36390687 .22099304 .36291505 .21299744 .36190797 .18899536 .35990907 .18199158 .35990907 .17399597 .35890199 .16699219 .35791017 .16699219 .3479004 .16699219 .33691407 .17399597 .33691407 .19099427 .33691407H.23498535C.31698609 .33691407 .35398866 .2686615 .35398866 .17037964 .35398866 .034469606 .2849884 .0055389406 .24099732 .0055389406 .19799805 .0055389406 .12298584 .022491456 .08799744 .08137512 .12298584 .07637024 .1539917 .09837341 .1539917 .1363678 .1539917 .17237854 .1269989 .19238281 .09799194 .19238281 .07398987 .19238281 .041992189 .17837525 .041992189 .1343689 .041992189 .043441774 .1349945-.022460938 .24398804-.022460938 .3659973-.022460938 .45700074 .06838989 .45700074 .17037964 .45700074 .252594 .3939972 .33088685 .2899933 .35191346Z"/>
<path id="font_3_1" d="M.1789856 .114868167C.13899231 .047973634 .099990848 .033981325 .055999757 .0309906 .04399109 .02999878 .034988405 .02999878 .034988405 .010986328 .034988405 .004989624 .039993287 0 .04798889 0 .07499695 0 .10598755 .0029907227 .13398743 .0029907227 .16699219 .0029907227 .20199585 0 .23399353 0 .23999024 0 .25299073 0 .25299073 .018997193 .25299073 .02999878 .24398804 .0309906 .23699951 .0309906 .21398926 .032989503 .18998719 .04096985 .18998719 .06593323 .18998719 .077926639 .19599915 .088897708 .20399475 .102890018L.27999879 .23068238H.5309906C.5329895 .2097168 .5469971 .07392883 .5469971 .063949588 .5469971 .033981325 .49499513 .0309906 .47499085 .0309906 .46099855 .0309906 .45098878 .0309906 .45098878 .010986328 .45098878 0 .46299745 0 .46499635 0 .5059967 0 .548996 .0029907227 .58999636 .0029907227 .61499026 .0029907227 .6779938 0 .7029877 0 .70899966 0 .72099307 0 .72099307 .019989014 .72099307 .0309906 .71099856 .0309906 .69799807 .0309906 .6359863 .0309906 .6359863 .037979127 .6329956 .06694031L.57199099 .691803C.56999209 .71180728 .56999209 .7158203 .5529938 .7158203 .5369873 .7158203 .5329895 .7088165 .5269928 .69880679L.1789856 .114868167M.29899598 .26168824 .49598695 .5917816 .5279999 .26168824H.29899598Z"/>
<path id="font_4_1" d="M.33499146 .63612368C.33499146 .6630554 .33299256 .6640625 .30499269 .6640625 .24099732 .6014404 .1499939 .6004486 .10899353 .6004486V.5644531C.1329956 .5644531 .19898987 .5644531 .2539978 .592453V.08203125C.2539978 .04899597 .2539978 .035995485 .1539917 .035995485H.115997318V0C.13398743 .0009918213 .25698854 .0039978029 .2939911 .0039978029 .32499696 .0039978029 .45098878 .0009918213 .47299195 0V.035995485H.43499757C.33499146 .035995485 .33499146 .04899597 .33499146 .08203125V.63612368Z"/>
<path id="font_4_2" d="M.5049896 .18203736H.47099305C.46798707 .16001892 .45799256 .100997928 .44499208 .09098816 .43699647 .084991458 .3600006 .084991458 .34599305 .084991458H.1619873C.2669983 .17803955 .3019867 .20603943 .3619995 .25306703 .43598939 .312088 .5049896 .374115 .5049896 .46914674 .5049896 .5900879 .39898683 .6640625 .2709961 .6640625 .14698792 .6640625 .06298828 .57710269 .06298828 .4851532 .06298828 .43414308 .10598755 .42915345 .115997318 .42915345 .13999939 .42915345 .16899109 .44615174 .16899109 .48214723 .16899109 .5001526 .1619873 .53515627 .10998535 .53515627 .14099121 .6060791 .20899964 .62805178 .2559967 .62805178 .35598756 .62805178 .4079895 .5501404 .4079895 .46914674 .4079895 .38212586 .34599305 .3130951 .31399537 .27708436L.07299805 .038986207C.06298828 .02999878 .06298828 .027999878 .06298828 0H.47499085L.5049896 .18203736Z"/>
<path id="font_3_2" d="M.20599365 .3996582H.2999878C.31999208 .3996582 .32998658 .3996582 .32998658 .41966249 .32998658 .43066407 .31999208 .43066407 .3019867 .43066407H.21398926C.25 .5724945 .25498963 .59246829 .25498963 .59846499 .25498963 .61546328 .24299622 .62545779 .22599793 .62545779 .22299195 .62545779 .19499207 .62446597 .18598938 .58947756L.14698792 .43066407H.052993776C.032989503 .43066407 .022994996 .43066407 .022994996 .4116516 .022994996 .3996582 .0309906 .3996582 .050994874 .3996582H.13899231C.066986087 .11608887 .06298828 .099121097 .06298828 .08114624 .06298828 .02722168 .100997928-.0107421879 .15499878-.0107421879 .25698854-.0107421879 .31399537 .13505554 .31399537 .14305115 .31399537 .1530304 .30599977 .1530304 .3019867 .1530304 .29299928 .1530304 .2919922 .15003968 .2869873 .13905335 .24398804 .035217287 .19099427 .011245728 .15699768 .011245728 .13598633 .011245728 .12599182 .024230957 .12599182 .057174684 .12599182 .08114624 .12799073 .088134769 .13198853 .10510254L.20599365 .3996582Z"/>
<path id="font_2_4" d="M.33099366-.2400055C.33099366-.23701477 .33099366-.23500061 .31399537-.21800232 .18899536-.0920105 .15699768 .09700012 .15699768 .25 .15699768 .42399598 .19499207 .59799197 .31799317 .72299197 .33099366 .73498538 .33099366 .7369995 .33099366 .73999026 .33099366 .746994 .32699586 .75 .32099916 .75 .31098939 .75 .22099304 .6819916 .1619873 .5549927 .11099243 .44499208 .09899902 .33399964 .09899902 .25 .09899902 .17199707 .10998535 .050994874 .16499329-.06201172 .22499085-.18501282 .31098939-.25 .32099916-.25 .32699586-.25 .33099366-.24700928 .33099366-.2400055Z"/>
<path id="font_3_3" d="M.20298767 .0009918213C.20298767 .066986087 .17799378 .10598755 .13899231 .10598755 .10598755 .10598755 .085998538 .08099365 .085998538 .052993776 .085998538 .025985718 .10598755 0 .13899231 0 .15098572 0 .1639862 .0039978029 .17399597 .0129852299 .1769867 .01499939 .17799378 .015991211 .1789856 .015991211 .17999268 .015991211 .18099976 .01499939 .18099976 .0009918213 .18099976-.07316589 .1459961-.13328552 .11299133-.16635132 .101989749-.17736817 .101989749-.17936707 .101989749-.18237305 .101989749-.18936157 .10699463-.19335938 .11199951-.19335938 .12298584-.19335938 .20298767-.116256717 .20298767 .0009918213Z"/>
<path id="font_5_1" d="M.2899933 .4720459C.2979889 .4890442 .29899598 .49705506 .29899598 .5040436 .29899598 .53504946 .2709961 .5590515 .23999024 .5590515 .20199585 .5590515 .18998719 .52804568 .18499756 .51205447L.052993776 .07901001C.051986696 .07701111 .04798889 .06401062 .04798889 .06300354 .04798889 .05101013 .07899475 .041015626 .08699036 .041015626 .09399414 .041015626 .09498596 .043014528 .101989749 .058013917L.2899933 .4720459Z"/>
<path id="font_2_5" d="M.2889862 .25C.2889862 .32798768 .27799989 .44898988 .22299195 .56199648 .16299439 .68499758 .07699585 .75 .066986087 .75 .06098938 .75 .056991579 .74598696 .056991579 .73999026 .056991579 .7369995 .056991579 .73498538 .07598877 .71699526 .17399597 .6179962 .23098755 .45899964 .23098755 .25 .23098755 .07899475 .19400025-.09700012 .069992069-.2230072 .056991579-.23500061 .056991579-.23701477 .056991579-.2400055 .056991579-.2460022 .06098938-.25 .066986087-.25 .07699585-.25 .16699219-.18200684 .22599793-.055007936 .2769928 .054992677 .2889862 .16600037 .2889862 .25Z"/>
<path id="font_2_2" d="M.3899994 .40066529C.39898683 .4116516 .39898683 .4136505 .39898683 .41766358 .39898683 .43066407 .3909912 .43066407 .37298585 .43066407H.052993776L.041992189 .2697754H.066986087C.07299805 .37168885 .09199524 .4086609 .20199585 .4086609H.31599427L.036987306 .031982423C.027999878 .020996094 .027999878 .018997193 .027999878 .01399231 .027999878 0 .034988405 0 .053985597 0H.38398744L.40098573 .18684387H.37599183C.36698915 .06895447 .34599305 .024993897 .22999573 .024993897H.11199951L.3899994 .40066529Z"/>
<path id="font_2_1" d="M.47099305 .21424866C.47099305 .34223939 .37098695 .4482422 .25 .4482422 .125 .4482422 .027999878 .3392334 .027999878 .21424866 .027999878 .085250858 .13198853-.0107421879 .24899292-.0107421879 .36999513-.0107421879 .47099305 .087249759 .47099305 .21424866M.25 .014251709C.20698548 .014251709 .16299439 .035247804 .13598633 .08125305 .11099243 .12524414 .11099243 .18624878 .11099243 .22224427 .11099243 .26124574 .11099243 .31523133 .1349945 .35923768 .1619873 .40522767 .20899964 .426239 .24899292 .426239 .29299928 .426239 .33599855 .40423585 .3619995 .36123658 .3880005 .3182373 .3880005 .26023866 .3880005 .22224427 .3880005 .18624878 .3880005 .13224793 .3659973 .08824158 .34399415 .04324341 .2999878 .014251709 .25 .014251709Z"/>
<path id="font_2_3" d="M.10998535 .34429933V.076034549C.10998535 .0309906 .09899902 .0309906 .03199768 .0309906V0C.066986087 .0009918213 .117996219 .0029907227 .14498902 .0029907227 .17098999 .0029907227 .22299195 .0009918213 .25698854 0V.0309906C.18998719 .0309906 .1789856 .0309906 .1789856 .076034549V.2602234C.1789856 .36431886 .25 .42037965 .31399537 .42037965 .3769989 .42037965 .3880005 .36631776 .3880005 .30926515V.076034549C.3880005 .0309906 .3769989 .0309906 .30999757 .0309906V0C.34498597 .0009918213 .3959961 .0029907227 .4229889 .0029907227 .44898988 .0029907227 .5009918 .0009918213 .5349884 0V.0309906C.46798707 .0309906 .45700074 .0309906 .45700074 .076034549V.2602234C.45700074 .36431886 .5279999 .42037965 .59199526 .42037965 .6549988 .42037965 .66600039 .36631776 .66600039 .30926515V.076034549C.66600039 .0309906 .6549988 .0309906 .58799746 .0309906V0C.6230011 .0009918213 .673996 .0029907227 .70098879 .0029907227 .72698977 .0029907227 .7789917 .0009918213 .8129883 0V.0309906C.7609863 .0309906 .73599246 .0309906 .7350006 .061019899V.25221253C.7350006 .3383026 .7350006 .36932374 .70399478 .405365 .6899872 .42237855 .6569977 .4423828 .598999 .4423828 .5149994 .4423828 .47099305 .38233949 .45399476 .34429933 .43998719 .43138124 .3659973 .4423828 .32099916 .4423828 .24798584 .4423828 .20098877 .39935304 .17298889 .33729554V.4423828L.03199768 .43138124V.40037538C.101989749 .4003601 .10998535 .39335633 .10998535 .34429933Z"/>
</defs>
<g clip-path="url(#clip_1)">
<use data-text="0" xlink:href="#font_2_7" transform="matrix(9.96264,0,0,-9.96264,30.767262,150.85382)" fill="#231f20"/>
<use data-text="." xlink:href="#font_2_6" transform="matrix(9.96264,0,0,-9.96264,35.807268,150.85382)" fill="#231f20"/>
<use data-text="0" xlink:href="#font_2_7" transform="matrix(9.96264,0,0,-9.96264,38.566919,150.85382)" fill="#231f20"/>
<use data-text="1" xlink:href="#font_2_8" transform="matrix(9.96264,0,0,-9.96264,43.60692,150.85382)" fill="#231f20"/>
<use data-text="5" xlink:href="#font_2_11" transform="matrix(9.96264,0,0,-9.96264,48.646928,150.85382)" fill="#231f20"/>
<use data-text="0" xlink:href="#font_2_7" transform="matrix(9.96264,0,0,-9.96264,30.767262,95.89404)" fill="#231f20"/>
<use data-text="." xlink:href="#font_2_6" transform="matrix(9.96264,0,0,-9.96264,35.807268,95.89404)" fill="#231f20"/>
<use data-text="0" xlink:href="#font_2_7" transform="matrix(9.96264,0,0,-9.96264,38.566919,95.89404)" fill="#231f20"/>
<use data-text="2" xlink:href="#font_2_9" transform="matrix(9.96264,0,0,-9.96264,43.60692,95.89404)" fill="#231f20"/>
<use data-text="0" xlink:href="#font_2_7" transform="matrix(9.96264,0,0,-9.96264,48.646928,95.89404)" fill="#231f20"/>
<use data-text="0" xlink:href="#font_2_7" transform="matrix(9.96264,0,0,-9.96264,30.767262,41.053834)" fill="#231f20"/>
<use data-text="." xlink:href="#font_2_6" transform="matrix(9.96264,0,0,-9.96264,35.807268,41.053834)" fill="#231f20"/>
<use data-text="0" xlink:href="#font_2_7" transform="matrix(9.96264,0,0,-9.96264,38.566919,41.053834)" fill="#231f20"/>
<use data-text="2" xlink:href="#font_2_9" transform="matrix(9.96264,0,0,-9.96264,43.60692,41.053834)" fill="#231f20"/>
<use data-text="5" xlink:href="#font_2_11" transform="matrix(9.96264,0,0,-9.96264,48.646928,41.053834)" fill="#231f20"/>
<use data-text="0" xlink:href="#font_2_7" transform="matrix(9.96264,0,0,-9.96264,57.64736,161.7738)" fill="#231f20"/>
<use data-text="1" xlink:href="#font_2_8" transform="matrix(9.96264,0,0,-9.96264,109.96727,161.7738)" fill="#231f20"/>
<use data-text="2" xlink:href="#font_2_9" transform="matrix(9.96264,0,0,-9.96264,162.40712,161.7738)" fill="#231f20"/>
<use data-text="3" xlink:href="#font_2_10" transform="matrix(9.96264,0,0,-9.96264,214.84697,161.7738)" fill="#231f20"/>
<path transform="matrix(.1,0,0,-.1,-28.75264,1100.1939)" stroke-width="2.5" stroke-linecap="butt" stroke-miterlimit="3.8" stroke-linejoin="miter" fill="none" stroke="#000000" d="M888.199 9517.8H919.699M2460.7 9517.8H2429.2"/>
<path transform="matrix(.1,0,0,-.1,-28.75264,1100.1939)" stroke-width="2.5" stroke-linecap="butt" stroke-miterlimit="3.8" stroke-linejoin="miter" fill="none" stroke="#000000" d="M888.199 10066.8H919.699M2460.7 10066.8H2429.2"/>
<path transform="matrix(.1,0,0,-.1,-28.75264,1100.1939)" stroke-width="2.5" stroke-linecap="butt" stroke-miterlimit="3.8" stroke-linejoin="miter" fill="none" stroke="#000000" d="M888.199 10615.3H919.699M2460.7 10615.3H2429.2"/>
<path transform="matrix(.1,0,0,-.1,-28.75264,1100.1939)" stroke-width="2.5" stroke-linecap="butt" stroke-miterlimit="3.8" stroke-linejoin="miter" fill="none" stroke="#000000" d="M888.199 9517.8V9549.3M888.199 10725.3V10693.8"/>
<path transform="matrix(.1,0,0,-.1,-28.75264,1100.1939)" stroke-width="2.5" stroke-linecap="butt" stroke-miterlimit="3.8" stroke-linejoin="miter" fill="none" stroke="#000000" d="M1412.2 9517.8V9549.3M1412.2 10725.3V10693.8"/>
<path transform="matrix(.1,0,0,-.1,-28.75264,1100.1939)" stroke-width="2.5" stroke-linecap="butt" stroke-miterlimit="3.8" stroke-linejoin="miter" fill="none" stroke="#000000" d="M1936.7 9517.8V9549.3M1936.7 10725.3V10693.8"/>
<path transform="matrix(.1,0,0,-.1,-28.75264,1100.1939)" stroke-width="2.5" stroke-linecap="butt" stroke-miterlimit="3.8" stroke-linejoin="miter" fill="none" stroke="#000000" d="M2460.7 9517.8V9549.3M2460.7 10725.3V10693.8"/>
<path transform="matrix(.1,0,0,-.1,-28.75264,1100.1939)" stroke-width="2.5" stroke-linecap="butt" stroke-miterlimit="3.8" stroke-linejoin="miter" fill="none" stroke="#000000" d="M888.199 10725.3V9517.8H2460.7V10725.3H888.199Z"/>
<path transform="matrix(.1,0,0,-.1,-28.75264,1100.1939)" stroke-width="2.5" stroke-linecap="butt" stroke-dasharray="30,10,5,10" stroke-miterlimit="3.8" stroke-linejoin="miter" fill="none" stroke="#000000" d="M898.199 9517.8 899.199 9546.8 900.199 9606.3 901.199 9669.3 902.699 9735.8 904.199 9804.8 906.199 9876.3 908.199 9949.8 910.199 10024.3 912.699 10099.3 915.199 10173.8 918.199 10246.3 921.699 10316.3 925.199 10382.3 929.199 10442.3 933.699 10496.3 938.699 10542.3 944.199 10579.8 950.699 10608.3 957.199 10627.3 964.699 10636.8 973.199 10637.8 982.699 10631.3 993.199 10617.8 1004.7 10598.8 1017.7 10576.3 1032.2 10550.8 1048.2 10522.8 1065.7 10494.3 1085.7 10464.3 1107.7 10433.8 1131.7 10401.8 1158.7 10368.8 1188.7 10334.3 1222.2 10298.3 1259.2 10259.8 1300.2 10219.8 1346.2 10178.3 1397.2 10135.3 1453.7 10091.3 1516.2 10046.8 1585.7 10002.8 1663.2 9959.3 1749.7 9917.8 1845.2 9878.8 1951.2 9843.3 2069.7 9811.8 2200.7 9785.3 2346.7 9763.8 2460.7 9752.3"/>
<path transform="matrix(.1,0,0,-.1,-28.75264,1100.1939)" stroke-width="2.5" stroke-linecap="butt" stroke-dasharray="5,7.5" stroke-miterlimit="3.8" stroke-linejoin="miter" fill="none" stroke="#000000" d="M897.699 9517.8V9539.3L899.199 9595.8 900.199 9656.3 901.199 9719.8 902.699 9786.3 904.199 9855.8 906.199 9927.8 908.199 10001.3 910.199 10075.8 912.699 10150.8 915.199 10225.3 918.199 10297.3 921.699 10366.8 925.199 10431.3 929.199 10490.8 933.699 10543.3 938.699 10588.3 944.199 10624.3 950.699 10651.3 957.199 10668.8 964.699 10677.3 973.199 10676.8 982.699 10669.3 993.199 10654.8 1004.7 10635.8 1017.7 10612.8 1032.2 10586.8 1048.2 10559.8 1065.7 10531.3 1085.7 10502.3 1107.7 10472.3 1131.7 10441.8 1158.7 10409.8 1188.7 10376.3 1222.2 10341.3 1259.2 10304.3 1300.2 10265.3 1346.2 10224.8 1397.2 10182.8 1453.7 10139.3 1516.2 10095.8 1585.7 10051.8 1663.2 10008.8 1749.7 9967.8 1845.2 9928.8 1951.2 9892.8 2069.7 9861.3 2200.7 9834.3 2346.7 9812.8 2460.7 9800.8"/>
<path transform="matrix(.1,0,0,-.1,-28.75264,1100.1939)" stroke-width="2.5" stroke-linecap="butt" stroke-dasharray="10,15" stroke-miterlimit="3.8" stroke-linejoin="miter" fill="none" stroke="#000000" d="M897.699 9517.8V9544.8L899.199 9601.3 900.199 9661.8 901.199 9725.3 902.699 9792.3 904.199 9861.8 906.199 9933.8 908.199 10007.3 910.199 10081.8 912.699 10156.8 915.199 10230.8 918.199 10303.3 921.699 10372.3 925.199 10437.3 929.199 10496.3 933.699 10548.8 938.699 10593.8 944.199 10629.3 950.699 10656.3 957.199 10673.8 964.699 10681.8H973.199L982.699 10673.8 993.199 10659.3 1004.7 10639.8 1017.7 10616.8 1032.2 10591.3 1048.2 10563.8 1065.7 10535.3 1085.7 10506.3 1107.7 10476.8 1131.7 10446.3 1158.7 10414.3 1188.7 10381.3 1222.2 10346.3 1259.2 10309.3 1300.2 10270.8 1346.2 10230.3 1397.2 10188.3 1453.7 10144.8 1516.2 10101.3 1585.7 10057.8 1663.2 10014.8 1749.7 9973.3 1845.2 9934.3 1951.2 9898.8 2069.7 9866.8 2200.7 9839.8 2346.7 9818.3 2460.7 9806.3"/>
<path transform="matrix(.1,0,0,-.1,-28.75264,1100.1939)" stroke-width="2.5" stroke-linecap="butt" stroke-miterlimit="3.8" stroke-linejoin="miter" fill="none" stroke="#000000" d="M897.199 9517.8 897.699 9551.8 898.699 9601.3 899.699 9653.3 900.699 9708.3 902.199 9765.3 903.199 9825.3 904.699 9886.8 906.199 9950.3 908.199 10014.8 909.699 10080.3 911.699 10145.8 914.199 10211.3 916.699 10275.8 919.199 10337.8 922.199 10397.3 925.699 10453.3 929.199 10504.8 933.199 10551.3 937.699 10591.3 942.199 10624.8 947.699 10651.3 953.199 10670.8 959.699 10682.8 966.699 10687.8 974.199 10686.3 982.699 10678.8 991.699 10666.8 1001.7 10650.3 1012.7 10630.8 1024.7 10609.3 1038.2 10585.8 1052.7 10561.8 1068.7 10536.3 1086.2 10510.8 1105.2 10484.8 1126.2 10458.3 1149.7 10430.8 1175.2 10401.8 1203.2 10372.3 1233.7 10340.8 1267.2 10308.3 1304.2 10274.3 1344.7 10238.8 1389.2 10201.8 1437.7 10164.3 1491.2 10126.3 1550.2 10087.8 1614.7 10049.8 1685.2 10012.8 1763.2 9977.3 1848.2 9943.3 1941.7 9912.3 2044.7 9883.8 2157.2 9859.3 2281.2 9838.3 2416.7 9821.3 2460.7 9817.3"/>
<path transform="matrix(.1,0,0,-.1,-28.75264,1100.1939)" stroke-width="2.5" stroke-linecap="butt" stroke-miterlimit="3.8" stroke-linejoin="miter" fill="none" stroke="#000000" d="M888.199 10725.3V9517.8H2460.7V10725.3H888.199Z"/>
<use data-text="A" xlink:href="#font_3_1" transform="matrix(0,-9.96264,-9.96264,-0,10.847359,100.09387)" fill="#231f20"/>
<use data-text="1" xlink:href="#font_4_1" transform="matrix(0,-6.97385,-6.97385,-0,12.287197,92.65405)" fill="#231f20"/>
<use data-text="1" xlink:href="#font_4_1" transform="matrix(0,-6.97385,-6.97385,-0,12.287197,88.69409)" fill="#231f20"/>
<use data-text="2" xlink:href="#font_4_2" transform="matrix(0,-6.97385,-6.97385,-0,12.287197,84.73407)" fill="#231f20"/>
<use data-text="2" xlink:href="#font_4_2" transform="matrix(0,-6.97385,-6.97385,-0,12.287197,80.77411)" fill="#231f20"/>
<use data-text="t" xlink:href="#font_3_2" transform="matrix(9.96264,0,0,-9.96264,136.84737,178.33386)" fill="#231f20"/>
<use data-text="A" xlink:href="#font_3_1" transform="matrix(9.96264,0,0,-9.96264,102.527469,13.573853)" fill="#231f20"/>
<use data-text="1" xlink:href="#font_4_1" transform="matrix(6.97385,0,0,-6.97385,109.9673,15.013672)" fill="#231f20"/>
<use data-text="1" xlink:href="#font_4_1" transform="matrix(6.97385,0,0,-6.97385,113.92731,15.013672)" fill="#231f20"/>
<use data-text="2" xlink:href="#font_4_2" transform="matrix(6.97385,0,0,-6.97385,117.887317,15.013672)" fill="#231f20"/>
<use data-text="2" xlink:href="#font_4_2" transform="matrix(6.97385,0,0,-6.97385,121.847339,15.013672)" fill="#231f20"/>
<use data-text="(" xlink:href="#font_2_4" transform="matrix(9.96264,0,0,-9.96264,126.4075,13.573853)" fill="#231f20"/>
<use data-text="t" xlink:href="#font_3_2" transform="matrix(9.96264,0,0,-9.96264,130.24735,13.573853)" fill="#231f20"/>
<use data-text="," xlink:href="#font_3_3" transform="matrix(9.96264,0,0,-9.96264,133.84735,13.573853)" fill="#231f20"/>
<use data-text="t" xlink:href="#font_3_2" transform="matrix(9.96264,0,0,-9.96264,138.28687,13.573853)" fill="#231f20"/>
<use data-text="&#x2032;" xlink:href="#font_5_1" transform="matrix(6.97385,0,0,-6.97385,141.88715,9.973877)" fill="#231f20"/>
<use data-text=")" xlink:href="#font_2_5" transform="matrix(9.96264,0,0,-9.96264,144.64731,13.573853)" fill="#231f20"/>
<use data-text="z" xlink:href="#font_2_2" transform="matrix(9.96264,0,0,-9.96264,151.84732,13.573853)" fill="#231f20"/>
<use data-text="o" xlink:href="#font_2_1" transform="matrix(9.96264,0,0,-9.96264,156.28733,13.573853)" fill="#231f20"/>
<use data-text="o" xlink:href="#font_2_1" transform="matrix(9.96264,0,0,-9.96264,161.56725,13.573853)" fill="#231f20"/>
<use data-text="m" xlink:href="#font_2_3" transform="matrix(9.96264,0,0,-9.96264,166.60726,13.573853)" fill="#231f20"/>
</g>
</svg>
