<svg xmlns="http://www.w3.org/2000/svg" xmlns:xlink="http://www.w3.org/1999/xlink" xmlns:inkscape="http://www.inkscape.org/namespaces/inkscape" version="1.1" width="227.76682" height="183.55139" viewBox="0 0 227.76682 183.55139">
<defs>
<clipPath id="clip_1">
<path transform="matrix(1,0,0,-1,-28.854886,1100.1939)" d="M28.854886 916.64248H256.6217V1100.1939H28.854886Z" clip-rule="evenodd"/>
</clipPath>
<path id="font_2_13" d="M.45999146 .31976319C.45999146 .39982606 .45498658 .47988893 .41999818 .5539398 .37399293 .65000918 .2919922 .6660156 .25 .6660156 .18998719 .6660156 .116989139 .64001467 .07598877 .54693606 .04399109 .47789 .038986207 .39982606 .038986207 .31976319 .038986207 .24472046 .042999269 .15464783 .083999637 .07859802 .1269989-.0024719239 .19999695-.022460938 .24899292-.022460938 .30299378-.022460938 .3789978-.0014648438 .4229889 .09359741 .45498658 .16265869 .45999146 .2407074 .45999146 .31976319M.24899292-.00047302247C.20999146-.00047302247 .15098572 .024551392 .1329956 .12062073 .12199402 .18066406 .12199402 .2727356 .12199402 .3317871 .12199402 .39582826 .12199402 .46188355 .12998963 .5159149 .14898682 .63500979 .22399903 .64401248 .24899292 .64401248 .28199769 .64401248 .34799195 .6259918 .36698915 .52693179 .3769989 .47088624 .3769989 .39482118 .3769989 .3317871 .3769989 .25672914 .3769989 .18867493 .3659973 .12461853 .35099793 .029556275 .2939911-.00047302247 .24899292-.00047302247Z"/>
<path id="font_3_5" d="M.19198609 .052993776C.19198609 .08198547 .16799927 .10598755 .13899231 .10598755 .10998535 .10598755 .085998538 .08198547 .085998538 .052993776 .085998538 .023986817 .10998535 0 .13899231 0 .16799927 0 .19198609 .023986817 .19198609 .052993776Z"/>
<path id="font_2_15" d="M.1269989 .07699585 .23298645 .18003845C.3889923 .31811524 .44898988 .3721466 .44898988 .47216798 .44898988 .5860901 .35899354 .6660156 .23699951 .6660156 .12399292 .6660156 .049987794 .57411196 .049987794 .48516847 .049987794 .4291687 .099990848 .4291687 .102996829 .4291687 .11999512 .4291687 .15499878 .44117738 .15499878 .48217774 .15499878 .5081787 .13699341 .5341797 .101989749 .5341797 .09399414 .5341797 .09199524 .5341797 .08898926 .5331726 .11199951 .59806826 .1659851 .63500979 .22399903 .63500979 .31498719 .63500979 .35798646 .5541382 .35798646 .47216798 .35798646 .39215089 .30799867 .31311036 .25299073 .25108338L.06098938 .036987306C.049987794 .025985718 .049987794 .023986817 .049987794 0H.42099L.44898988 .17404175H.42399598C.4189911 .14402771 .4119873 .1000061 .4019928 .084991458 .394989 .07699585 .32899476 .07699585 .30699159 .07699585H.1269989Z"/>
<path id="font_2_16" d="M.2939911 .16503906V.07800293C.2939911 .041992189 .2919922 .0309906 .21798706 .0309906H.19699097V0C.23799134 .0029907227 .2899933 .0029907227 .33198548 .0029907227 .37399293 .0029907227 .4269867 .0029907227 .46798707 0V.0309906H.44699098C.37298585 .0309906 .37098695 .041992189 .37098695 .07800293V.16503906H.47099305V.19602967H.37098695V.65075686C.37098695 .67074587 .37098695 .6767578 .35499574 .6767578 .34599305 .6767578 .34298707 .6767578 .33499146 .66474917L.027999878 .19602967V.16503906H.2939911M.2999878 .19602967H.055999757L.2999878 .5688019V.19602967Z"/>
<path id="font_2_8" d="M.13198853 .327713V.35173036C.13198853 .6047821 .2559967 .64100649 .30699159 .64100649 .33099366 .64100649 .37298585 .634964 .394989 .6007538 .37998963 .6007538 .33999635 .6007538 .33999635 .5557556 .33999635 .524765 .3639984 .5097656 .38598634 .5097656 .4019928 .5097656 .43199159 .51875308 .43199159 .5577545 .43199159 .6178589 .3880005 .6660156 .30499269 .6660156 .1769867 .6660156 .041992189 .5367584 .041992189 .31570436 .041992189 .048553468 .1579895-.022460938 .25099183-.022460938 .3619995-.022460938 .45700074 .07156372 .45700074 .2036438 .45700074 .33070375 .36799623 .4267578 .25698854 .4267578 .18899536 .4267578 .1519928 .37573243 .13198853 .327713M.25099183 .0055389406C.18798828 .0055389406 .1579895 .06556702 .1519928 .080566409 .13398743 .127594 .13398743 .2076416 .13398743 .22564698 .13398743 .30369569 .1659851 .40374757 .2559967 .40374757 .27198792 .40374757 .31799317 .40374757 .34899903 .34172059 .36698915 .30470277 .36698915 .2536621 .36698915 .20463562 .36698915 .15661621 .36698915 .10658264 .34999085 .0705719 .31999208 .010528564 .27398683 .0055389406 .25099183 .0055389406Z"/>
<path id="font_2_9" d="M.16299439 .4569702C.116989139 .486969 .11299133 .52098086 .11299133 .5379791 .11299133 .598999 .17799378 .64100649 .24899292 .64100649 .32199098 .64100649 .38598634 .58898928 .38598634 .51698306 .38598634 .45996095 .34700013 .4119568 .2869873 .37695313L.16299439 .4569702M.30899049 .36193849C.3809967 .3989563 .42999269 .45095826 .42999269 .51698306 .42999269 .6090088 .34098817 .6660156 .25 .6660156 .1499939 .6660156 .068984989 .59199526 .068984989 .49897767 .068984989 .4809723 .070999149 .43595887 .11299133 .38894654 .12399292 .37695313 .16099549 .35194398 .18598938 .33494569 .12799073 .30592347 .041992189 .24984741 .041992189 .15072632 .041992189 .04458618 .14399719-.022460938 .24899292-.022460938 .3619995-.022460938 .45700074 .06060791 .45700074 .16773987 .45700074 .20379639 .44599916 .24885559 .4079895 .2909088 .3889923 .31193543 .37298585 .3219452 .30899049 .36193849M.20899964 .3199463 .33198548 .24183655C.3600006 .2228241 .40699769 .19277954 .40699769 .13169861 .40699769 .05760193 .33198548 .0055389406 .25 .0055389406 .1639862 .0055389406 .09199524 .067611698 .09199524 .15072632 .09199524 .20880127 .12399292 .27288819 .20899964 .3199463Z"/>
<path id="font_2_14" d="M.2939911 .64004519C.2939911 .66400149 .2939911 .6660156 .2709961 .6660156 .20899964 .60227969 .12098694 .60227969 .08898926 .60227969V.57128909C.10899353 .57128909 .16799927 .57128909 .21998596 .5972748V.07902527C.21998596 .042999269 .21699524 .0309906 .1269989 .0309906H.09498596V0C.12998963 .0029907227 .21699524 .0029907227 .25698854 .0029907227 .29699708 .0029907227 .38398744 .0029907227 .4189911 0V.0309906H.3869934C.29699708 .0309906 .2939911 .041992189 .2939911 .07902527V.64004519Z"/>
<path id="font_3_1" d="M.1789856 .114868167C.13899231 .047973634 .099990848 .033981325 .055999757 .0309906 .04399109 .02999878 .034988405 .02999878 .034988405 .010986328 .034988405 .004989624 .039993287 0 .04798889 0 .07499695 0 .10598755 .0029907227 .13398743 .0029907227 .16699219 .0029907227 .20199585 0 .23399353 0 .23999024 0 .25299073 0 .25299073 .018997193 .25299073 .02999878 .24398804 .0309906 .23699951 .0309906 .21398926 .032989503 .18998719 .04096985 .18998719 .06593323 .18998719 .077926639 .19599915 .088897708 .20399475 .102890018L.27999879 .23068238H.5309906C.5329895 .2097168 .5469971 .07392883 .5469971 .063949588 .5469971 .033981325 .49499513 .0309906 .47499085 .0309906 .46099855 .0309906 .45098878 .0309906 .45098878 .010986328 .45098878 0 .46299745 0 .46499635 0 .5059967 0 .548996 .0029907227 .58999636 .0029907227 .61499026 .0029907227 .6779938 0 .7029877 0 .70899966 0 .72099307 0 .72099307 .019989014 .72099307 .0309906 .71099856 .0309906 .69799807 .0309906 .6359863 .0309906 .6359863 .037979127 .6329956 .06694031L.57199099 .691803C.56999209 .71180728 .56999209 .7158203 .5529938 .7158203 .5369873 .7158203 .5329895 .7088165 .5269928 .69880679L.1789856 .114868167M.29899598 .26168824 .49598695 .5917816 .5279999 .26168824H.29899598Z"/>
<path id="font_4_2" d="M.33499146 .63612368C.33499146 .6630554 .33299256 .6640625 .30499269 .6640625 .24099732 .6014404 .1499939 .6004486 .10899353 .6004486V.5644531C.1329956 .5644531 .19898987 .5644531 .2539978 .592453V.08203125C.2539978 .04899597 .2539978 .035995485 .1539917 .035995485H.115997318V0C.13398743 .0009918213 .25698854 .0039978029 .2939911 .0039978029 .32499696 .0039978029 .45098878 .0009918213 .47299195 0V.035995485H.43499757C.33499146 .035995485 .33499146 .04899597 .33499146 .08203125V.63612368Z"/>
<path id="font_3_2" d="M.20599365 .3996582H.2999878C.31999208 .3996582 .32998658 .3996582 .32998658 .41966249 .32998658 .43066407 .31999208 .43066407 .3019867 .43066407H.21398926C.25 .5724945 .25498963 .59246829 .25498963 .59846499 .25498963 .61546328 .24299622 .62545779 .22599793 .62545779 .22299195 .62545779 .19499207 .62446597 .18598938 .58947756L.14698792 .43066407H.052993776C.032989503 .43066407 .022994996 .43066407 .022994996 .4116516 .022994996 .3996582 .0309906 .3996582 .050994874 .3996582H.13899231C.066986087 .11608887 .06298828 .099121097 .06298828 .08114624 .06298828 .02722168 .100997928-.0107421879 .15499878-.0107421879 .25698854-.0107421879 .31399537 .13505554 .31399537 .14305115 .31399537 .1530304 .30599977 .1530304 .3019867 .1530304 .29299928 .1530304 .2919922 .15003968 .2869873 .13905335 .24398804 .035217287 .19099427 .011245728 .15699768 .011245728 .13598633 .011245728 .12599182 .024230957 .12599182 .057174684 .12599182 .08114624 .12799073 .088134769 .13198853 .10510254L.20599365 .3996582Z"/>
<path id="font_2_11" d="M.33099366-.2400055C.33099366-.23701477 .33099366-.23500061 .31399537-.21800232 .18899536-.0920105 .15699768 .09700012 .15699768 .25 .15699768 .42399598 .19499207 .59799197 .31799317 .72299197 .33099366 .73498538 .33099366 .7369995 .33099366 .73999026 .33099366 .746994 .32699586 .75 .32099916 .75 .31098939 .75 .22099304 .6819916 .1619873 .5549927 .11099243 .44499208 .09899902 .33399964 .09899902 .25 .09899902 .17199707 .10998535 .050994874 .16499329-.06201172 .22499085-.18501282 .31098939-.25 .32099916-.25 .32699586-.25 .33099366-.24700928 .33099366-.2400055Z"/>
<path id="font_3_4" d="M.20298767 .0009918213C.20298767 .066986087 .17799378 .10598755 .13899231 .10598755 .10598755 .10598755 .085998538 .08099365 .085998538 .052993776 .085998538 .025985718 .10598755 0 .13899231 0 .15098572 0 .1639862 .0039978029 .17399597 .0129852299 .1769867 .01499939 .17799378 .015991211 .1789856 .015991211 .17999268 .015991211 .18099976 .01499939 .18099976 .0009918213 .18099976-.07316589 .1459961-.13328552 .11299133-.16635132 .101989749-.17736817 .101989749-.17936707 .101989749-.18237305 .101989749-.18936157 .10699463-.19335938 .11199951-.19335938 .12298584-.19335938 .20298767-.116256717 .20298767 .0009918213Z"/>
<path id="font_5_1" d="M.2899933 .4720459C.2979889 .4890442 .29899598 .49705506 .29899598 .5040436 .29899598 .53504946 .2709961 .5590515 .23999024 .5590515 .20199585 .5590515 .18998719 .52804568 .18499756 .51205447L.052993776 .07901001C.051986696 .07701111 .04798889 .06401062 .04798889 .06300354 .04798889 .05101013 .07899475 .041015626 .08699036 .041015626 .09399414 .041015626 .09498596 .043014528 .101989749 .058013917L.2899933 .4720459Z"/>
<path id="font_2_12" d="M.2889862 .25C.2889862 .32798768 .27799989 .44898988 .22299195 .56199648 .16299439 .68499758 .07699585 .75 .066986087 .75 .06098938 .75 .056991579 .74598696 .056991579 .73999026 .056991579 .7369995 .056991579 .73498538 .07598877 .71699526 .17399597 .6179962 .23098755 .45899964 .23098755 .25 .23098755 .07899475 .19400025-.09700012 .069992069-.2230072 .056991579-.23500061 .056991579-.23701477 .056991579-.2400055 .056991579-.2460022 .06098938-.25 .066986087-.25 .07699585-.25 .16699219-.18200684 .22599793-.055007936 .2769928 .054992677 .2889862 .16600037 .2889862 .25Z"/>
<path id="font_2_1" d="M.13598633 .07797241C.13598633 .041992189 .13398743 .0309906 .056991579 .0309906H.032989503V0H.6100006L.6519928 .2579193H.6269989C.60198977 .10397339 .57899478 .0309906 .40699769 .0309906H.27398683C.22698975 .0309906 .22499085 .037994386 .22499085 .07098389V.33789063H.31498719C.4119873 .33789063 .4229889 .30589295 .4229889 .220932H.44799806V.48576356H.4229889C.4229889 .39985658 .4119873 .36888124 .31498719 .36888124H.22499085V.6086426C.22499085 .6416168 .22698975 .64860537 .27398683 .64860537H.40299989C.55599978 .64860537 .58299258 .59365847 .598999 .45480348H.6239929L.59599307 .6796112H.032989503V.64860537H.056991579C.13398743 .64860537 .13598633 .637619 .13598633 .60165408V.07797241Z"/>
<path id="font_2_2" d="M.20799256 .19424439C.22999573 .19024658 .31199647 .17424011 .31199647 .102249149 .31199647 .051254274 .2769928 .011245728 .19898987 .011245728 .114990238 .011245728 .07899475 .06825256 .05999756 .15324402 .056991579 .1662445 .055999757 .17024231 .04598999 .17024231 .032989503 .17024231 .032989503 .16323853 .032989503 .14524842V.013244629C.032989503-.003753662 .032989503-.0107421879 .04399109-.0107421879 .04899597-.0107421879 .049987794-.009750366 .068984989 .009246826 .070999149 .011245728 .070999149 .013244629 .08898926 .03224182 .1329956-.009750366 .17799378-.0107421879 .19898987-.0107421879 .31399537-.0107421879 .3600006 .056243898 .3600006 .12825012 .3600006 .1812439 .32998658 .21124268 .31799317 .22323609 .2849884 .25523377 .24598694 .26324464 .20399475 .27124024 .147995 .28224183 .08099365 .2952423 .08099365 .35324098 .08099365 .38822938 .10699463 .42922975 .19299317 .42922975 .30299378 .42922975 .30799867 .3392334 .30999757 .3082428 .31098939 .2992401 .31999208 .2992401 .32199098 .2992401 .33499146 .2992401 .33499146 .304245 .33499146 .3232422V.4242401C.33499146 .4412384 .33499146 .4482422 .32398988 .4482422 .31900025 .4482422 .31698609 .4482422 .3039856 .43623353 .30099488 .43223573 .29100038 .42323304 .2869873 .42022706 .24899292 .4482422 .20799256 .4482422 .19299317 .4482422 .070999149 .4482422 .032989503 .38124085 .032989503 .3252411 .032989503 .29023744 .04899597 .26223756 .07598877 .24023438 .10798645 .21424866 .13598633 .2082367 .20799256 .19424439Z"/>
<path id="font_2_6" d="M.10998535 .076034549C.10998535 .0309906 .09899902 .0309906 .03199768 .0309906V0C.066986087 .0009918213 .117996219 .0029907227 .14498902 .0029907227 .17098999 .0029907227 .22299195 .0009918213 .25698854 0V.0309906C.18998719 .0309906 .1789856 .0309906 .1789856 .076034549V.2602234C.1789856 .36431886 .25 .42037965 .31399537 .42037965 .3769989 .42037965 .3880005 .36631776 .3880005 .30926515V.076034549C.3880005 .0309906 .3769989 .0309906 .30999757 .0309906V0C.34498597 .0009918213 .3959961 .0029907227 .4229889 .0029907227 .44898988 .0029907227 .5009918 .0009918213 .5349884 0V.0309906C.48298646 .0309906 .45799256 .0309906 .45700074 .061019899V.25221253C.45700074 .3383026 .45700074 .36932374 .42599488 .405365 .4119873 .42237855 .3789978 .4423828 .32099916 .4423828 .23699951 .4423828 .19299317 .38233949 .17599488 .34429933V.69433596L.03199768 .68333438V.6523285C.101989749 .6523285 .10998535 .6453247 .10998535 .596344V.076034549Z"/>
<path id="font_2_5" d="M.11199951 .2524414C.117996219 .40126039 .20199585 .426239 .23599243 .426239 .33898927 .426239 .34899903 .2913971 .34899903 .2524414H.11199951M.11099243 .23144531H.3899994C.4119873 .23144531 .4149933 .23144531 .4149933 .2524414 .4149933 .35131837 .36099244 .4482422 .23599243 .4482422 .11999512 .4482422 .027999878 .34532167 .027999878 .22042847 .027999878 .08631897 .1329956-.0107421879 .24798584-.0107421879 .36999513-.0107421879 .4149933 .10032654 .4149933 .11933899 .4149933 .12934876 .40699769 .13134766 .4019928 .13134766 .3929901 .13134766 .3909912 .12535095 .3889923 .11734009 .35398866 .014251709 .2639923 .014251709 .2539978 .014251709 .20399475 .014251709 .1639862 .044281007 .14099121 .08131409 .11099243 .12934876 .11099243 .19540406 .11099243 .23144531Z"/>
<path id="font_2_7" d="M.1769867 .69433596 .032989503 .68333438V.6523285C.102996829 .6523285 .11099243 .6453247 .11099243 .5962982V.07601929C.11099243 .0309906 .099990848 .0309906 .032989503 .0309906V0C.06599426 .0009918213 .11898804 .0029907227 .14399719 .0029907227 .16899109 .0029907227 .21798706 .0009918213 .25498963 0V.0309906C.18798828 .0309906 .1769867 .0309906 .1769867 .07601929V.69433596Z"/>
<path id="font_2_3" d="M.17199707 .3773346V.69433596L.027999878 .68333438V.6523285C.09799194 .6523285 .10598755 .6453247 .10598755 .596344V0H.1309967C.13198853 .0009918213 .13999939 .01499939 .16699219 .062026979 .18199158 .039260866 .22399903-.0107421879 .2979889-.0107421879 .4169922-.0107421879 .5209961 .08728027 .5209961 .2163086 .5209961 .34335328 .4229889 .4423828 .30899049 .4423828 .23098755 .4423828 .18798828 .39535523 .17199707 .3773346M.1749878 .11407471V.32028199C.1749878 .33929444 .1749878 .3403015 .18598938 .35630799 .22499085 .41236878 .27999879 .42037965 .3039856 .42037965 .34899903 .42037965 .3849945 .39434815 .40899659 .35630799 .43499757 .3152771 .43798829 .2582245 .43798829 .21717835 .43798829 .18014527 .43598939 .12008667 .40699769 .075042728 .38598634 .044021608 .34799195 .010986328 .2939911 .010986328 .24899292 .010986328 .21299744 .035003663 .18899536 .07203674 .1749878 .093063358 .1749878 .096069339 .1749878 .11407471Z"/>
<path id="font_2_4" d="M.4149933 .33569337C.44099427 .39866639 .49198915 .3996582 .5079956 .3996582V.43066407C.4850006 .4286499 .45599366 .42765809 .43299867 .42765809 .4149933 .42765809 .36799623 .42965699 .34599305 .43066407V.3996582C.3769989 .39866639 .3929901 .3816681 .3929901 .35668946 .3929901 .34669496 .3919983 .34469605 .3869934 .33270265L.28599549 .08683777 .1749878 .35568238C.17098999 .36567689 .16899109 .36967469 .16899109 .3736725 .16899109 .3996582 .20599365 .3996582 .22499085 .3996582V.43066407C.19898987 .42965699 .1329956 .42765809 .115997318 .42765809 .08898926 .42765809 .04899597 .4286499 .018997193 .43066407V.3996582C.066986087 .3996582 .085998538 .3996582 .099990848 .36468507L.25-.00010681152C.24499512-.0131073 .23098755-.046081544 .22499085-.05908203 .20298767-.11405945 .1749878-.18309021 .11099243-.18309021 .10598755-.18309021 .08299255-.18309021 .06399536-.16506958 .09498596-.16105652 .102996829-.1390686 .102996829-.123062137 .102996829-.09706116 .083999637-.08105469 .06098938-.08105469 .040985109-.08105469 .018997193-.094055179 .018997193-.124069217 .018997193-.16906739 .06098938-.20507813 .11099243-.20507813 .17399597-.20507813 .21499634-.14805603 .23899842-.09106445L.4149933 .33569337Z"/>
<path id="font_3_3" d="M.58299258 .4033661C.59399417 .41436769 .59399417 .41636659 .59399417 .41937257 .59399417 .42536927 .58999636 .43138124 .58200076 .43138124 .57598879 .43138124 .57199099 .42637635 .56599429 .41937257L.33699037 .16418457C.29699708 .29127503 .2889862 .31629945 .2659912 .369339 .25498963 .39234925 .23298645 .4423828 .14498902 .4423828 .08699036 .4423828 .06098938 .39035035 .06098938 .37634278 .06098938 .3753357 .06098938 .366333 .07299805 .366333 .08198547 .366333 .083999637 .3723297 .085998538 .3773346 .100997928 .41636659 .1329956 .42037965 .13899231 .42037965 .16899109 .42037965 .19898987 .34431459 .21598816 .3002777 .24798584 .22122193 .27999879 .10513306 .27999879 .102127078 .27999879 .101135257 .27999879 .09913635 .27198792 .09112549L.041992189-.16607666C.0309906-.17707825 .0309906-.17907715 .0309906-.18208313 .0309906-.18807984 .036987306-.1940918 .042999269-.1940918 .049987794-.1940918 .054992677-.18708802 .05899048-.18309021L.28799439 .07411194C.31999208-.029968262 .33198548-.069000247 .35598756-.12504578 .36898805-.15505982 .3909912-.20507813 .47999574-.20507813 .5379944-.20507813 .5649872-.15306092 .5649872-.14006043 .5649872-.13505554 .5629883-.12904358 .5529938-.12904358 .54299929-.12904358 .5419922-.13304138 .5389862-.14305115 .5299988-.16706848 .5049896-.18309021 .48599244-.18309021 .43499757-.18309021 .36698915 .05909729 .34498597 .13615418L.58299258 .4033661Z"/>
<path id="font_4_1" d="M.7569885 .16801453H.72299197C.7220001 .16500855 .71299746 .117996219 .7049866 .09500122 .69898989 .07899475 .69599917 .070999149 .6339874 .070999149H.548996C.56599429 .1269989 .59498599 .16601563 .651001 .24102783 .69999697 .30703736 .74398806 .37306214 .74398806 .45407105 .74398806 .58909609 .598999 .703125 .40699769 .703125 .21499634 .703125 .069992069 .58909609 .069992069 .45407105 .069992069 .36605836 .117996219 .30104066 .18798828 .20701599 .21699524 .16900635 .24899292 .12400818 .2649994 .070999149H.17999268C.11999512 .070999149 .115997318 .07899475 .11099243 .08999634 .102996829 .10899353 .09098816 .16601563 .09098816 .16801453H.056991579L.09298706 0H.272995C.2939911 0 .30099488 0 .30099488 .021987915 .30099488 .09399414 .2639923 .17901612 .24299622 .22802735 .20498657 .31604005 .1769867 .38105775 .1769867 .45507813 .1769867 .59710696 .2899933 .67510989 .40699769 .67510989 .5249939 .67510989 .6369934 .59609988 .6369934 .45507813 .6369934 .38005067 .6069946 .31105042 .57299807 .23303223 .5509949 .18301392 .5130005 .09500122 .5130005 .022994996 .5130005 0 .5189972 0 .5419922 0H.72099307L.7569885 .16801453Z"/>
<path id="font_2_10" d="M.68699648 .32714845C.70199587 .32714845 .72099307 .32714845 .72099307 .34713746 .72099307 .36714173 .70199587 .36714173 .6879883 .36714173H.08898926C.07499695 .36714173 .055999757 .36714173 .055999757 .34713746 .055999757 .32714845 .07499695 .32714845 .08999634 .32714845H.68699648M.6879883 .13284302C.70199587 .13284302 .72099307 .13284302 .72099307 .15284729 .72099307 .17285156 .70199587 .17285156 .68699648 .17285156H.08999634C.07499695 .17285156 .055999757 .17285156 .055999757 .15284729 .055999757 .13284302 .07499695 .13284302 .08898926 .13284302H.6879883Z"/>
</defs>
<g clip-path="url(#clip_1)">
<use data-text="0" xlink:href="#font_2_13" transform="matrix(9.96264,0,0,-9.96264,35.225217,150.85382)" fill="#231f20"/>
<use data-text="0" xlink:href="#font_2_13" transform="matrix(9.96264,0,0,-9.96264,27.425217,123.97412)" fill="#231f20"/>
<use data-text="." xlink:href="#font_3_5" transform="matrix(9.96264,0,0,-9.96264,32.465059,123.97412)" fill="#231f20"/>
<use data-text="2" xlink:href="#font_2_15" transform="matrix(9.96264,0,0,-9.96264,35.225217,123.97412)" fill="#231f20"/>
<use data-text="0" xlink:href="#font_2_13" transform="matrix(9.96264,0,0,-9.96264,27.425217,97.21393)" fill="#231f20"/>
<use data-text="." xlink:href="#font_3_5" transform="matrix(9.96264,0,0,-9.96264,32.465059,97.21393)" fill="#231f20"/>
<use data-text="4" xlink:href="#font_2_16" transform="matrix(9.96264,0,0,-9.96264,35.225217,97.21393)" fill="#231f20"/>
<use data-text="0" xlink:href="#font_2_13" transform="matrix(9.96264,0,0,-9.96264,27.425217,70.33386)" fill="#231f20"/>
<use data-text="." xlink:href="#font_3_5" transform="matrix(9.96264,0,0,-9.96264,32.465059,70.33386)" fill="#231f20"/>
<use data-text="6" xlink:href="#font_2_8" transform="matrix(9.96264,0,0,-9.96264,35.225217,70.33386)" fill="#231f20"/>
<use data-text="0" xlink:href="#font_2_13" transform="matrix(9.96264,0,0,-9.96264,27.425217,43.453737)" fill="#231f20"/>
<use data-text="." xlink:href="#font_3_5" transform="matrix(9.96264,0,0,-9.96264,32.465059,43.453737)" fill="#231f20"/>
<use data-text="8" xlink:href="#font_2_9" transform="matrix(9.96264,0,0,-9.96264,35.225217,43.453737)" fill="#231f20"/>
<use data-text="0" xlink:href="#font_2_13" transform="matrix(9.96264,0,0,-9.96264,44.345136,161.77375)" fill="#231f20"/>
<use data-text="2" xlink:href="#font_2_15" transform="matrix(9.96264,0,0,-9.96264,75.90529,161.77375)" fill="#231f20"/>
<use data-text="0" xlink:href="#font_2_13" transform="matrix(9.96264,0,0,-9.96264,80.9453,161.77375)" fill="#231f20"/>
<use data-text="4" xlink:href="#font_2_16" transform="matrix(9.96264,0,0,-9.96264,109.98529,161.77375)" fill="#231f20"/>
<use data-text="0" xlink:href="#font_2_13" transform="matrix(9.96264,0,0,-9.96264,115.0253,161.77375)" fill="#231f20"/>
<use data-text="6" xlink:href="#font_2_8" transform="matrix(9.96264,0,0,-9.96264,144.0653,161.77375)" fill="#231f20"/>
<use data-text="0" xlink:href="#font_2_13" transform="matrix(9.96264,0,0,-9.96264,149.10532,161.77375)" fill="#231f20"/>
<use data-text="8" xlink:href="#font_2_9" transform="matrix(9.96264,0,0,-9.96264,178.14533,161.77375)" fill="#231f20"/>
<use data-text="0" xlink:href="#font_2_13" transform="matrix(9.96264,0,0,-9.96264,183.18532,161.77375)" fill="#231f20"/>
<use data-text="1" xlink:href="#font_2_14" transform="matrix(9.96264,0,0,-9.96264,209.70548,161.77375)" fill="#231f20"/>
<use data-text="0" xlink:href="#font_2_13" transform="matrix(9.96264,0,0,-9.96264,214.74547,161.77375)" fill="#231f20"/>
<use data-text="0" xlink:href="#font_2_13" transform="matrix(9.96264,0,0,-9.96264,219.78548,161.77375)" fill="#231f20"/>
<path transform="matrix(.1,0,0,-.1,-28.854886,1100.1939)" stroke-width="2.5" stroke-linecap="butt" stroke-miterlimit="3.8" stroke-linejoin="miter" fill="none" stroke="#000000" d="M756.199 9517.8H787.699M2460.7 9517.8H2429.2"/>
<path transform="matrix(.1,0,0,-.1,-28.854886,1100.1939)" stroke-width="2.5" stroke-linecap="butt" stroke-miterlimit="3.8" stroke-linejoin="miter" fill="none" stroke="#000000" d="M756.199 9786.3H787.699M2460.7 9786.3H2429.2"/>
<path transform="matrix(.1,0,0,-.1,-28.854886,1100.1939)" stroke-width="2.5" stroke-linecap="butt" stroke-miterlimit="3.8" stroke-linejoin="miter" fill="none" stroke="#000000" d="M756.199 10054.3H787.699M2460.7 10054.3H2429.2"/>
<path transform="matrix(.1,0,0,-.1,-28.854886,1100.1939)" stroke-width="2.5" stroke-linecap="butt" stroke-miterlimit="3.8" stroke-linejoin="miter" fill="none" stroke="#000000" d="M756.199 10322.8H787.699M2460.7 10322.8H2429.2"/>
<path transform="matrix(.1,0,0,-.1,-28.854886,1100.1939)" stroke-width="2.5" stroke-linecap="butt" stroke-miterlimit="3.8" stroke-linejoin="miter" fill="none" stroke="#000000" d="M756.199 10591.3H787.699M2460.7 10591.3H2429.2"/>
<path transform="matrix(.1,0,0,-.1,-28.854886,1100.1939)" stroke-width="2.5" stroke-linecap="butt" stroke-miterlimit="3.8" stroke-linejoin="miter" fill="none" stroke="#000000" d="M756.199 9517.8V9549.3M756.199 10725.3V10693.8"/>
<path transform="matrix(.1,0,0,-.1,-28.854886,1100.1939)" stroke-width="2.5" stroke-linecap="butt" stroke-miterlimit="3.8" stroke-linejoin="miter" fill="none" stroke="#000000" d="M1097.2 9517.8V9549.3M1097.2 10725.3V10693.8"/>
<path transform="matrix(.1,0,0,-.1,-28.854886,1100.1939)" stroke-width="2.5" stroke-linecap="butt" stroke-miterlimit="3.8" stroke-linejoin="miter" fill="none" stroke="#000000" d="M1438.2 9517.8V9549.3M1438.2 10725.3V10693.8"/>
<path transform="matrix(.1,0,0,-.1,-28.854886,1100.1939)" stroke-width="2.5" stroke-linecap="butt" stroke-miterlimit="3.8" stroke-linejoin="miter" fill="none" stroke="#000000" d="M1778.7 9517.8V9549.3M1778.7 10725.3V10693.8"/>
<path transform="matrix(.1,0,0,-.1,-28.854886,1100.1939)" stroke-width="2.5" stroke-linecap="butt" stroke-miterlimit="3.8" stroke-linejoin="miter" fill="none" stroke="#000000" d="M2119.7 9517.8V9549.3M2119.7 10725.3V10693.8"/>
<path transform="matrix(.1,0,0,-.1,-28.854886,1100.1939)" stroke-width="2.5" stroke-linecap="butt" stroke-miterlimit="3.8" stroke-linejoin="miter" fill="none" stroke="#000000" d="M2460.7 9517.8V9549.3M2460.7 10725.3V10693.8"/>
<path transform="matrix(.1,0,0,-.1,-28.854886,1100.1939)" stroke-width="2.5" stroke-linecap="butt" stroke-miterlimit="3.8" stroke-linejoin="miter" fill="none" stroke="#000000" d="M756.199 10725.3V9517.8H2460.7V10725.3H756.199Z"/>
<path transform="matrix(.1,0,0,-.1,-28.854886,1100.1939)" stroke-width="2.5" stroke-linecap="butt" stroke-miterlimit="3.8" stroke-linejoin="miter" fill="none" stroke="#000000" d="M1691.7 10638.8H1987.2M756.199 9982.8V10174.3L756.699 10189.8V10414.8L757.199 10437.8V10460.3 10482.8 10504.3 10524.3 10543.3L757.699 10560.8V10576.3 10590.3L758.199 10601.8V10610.8 10618.3L758.699 10622.8V10625.8L759.199 10626.8V10625.3L759.699 10622.8V10618.8L760.199 10613.8 760.699 10607.3 761.199 10599.8 761.699 10591.8 762.199 10583.3 762.699 10573.8 763.199 10563.8 763.699 10553.3 764.699 10542.3 765.699 10530.8 766.199 10518.3 767.199 10505.8 768.699 10492.3 769.699 10478.8 771.199 10465.3 772.699 10451.3 774.199 10437.3 775.699 10423.3 777.699 10409.3 779.699 10395.8 782.199 10382.8 784.699 10370.3 787.199 10358.8 790.699 10348.3 793.699 10338.8 797.699 10330.3 801.699 10323.3 805.699 10317.8 810.699 10313.3 816.199 10310.3 821.699 10308.3 828.199 10307.8H835.199L843.199 10308.3 851.699 10309.8 860.699 10311.3 871.199 10312.8 882.199 10314.8 894.699 10316.3 908.199 10317.8 922.699 10319.3 939.199 10320.3 956.699 10321.3 976.199 10321.8 997.699 10322.3 1021.2 10322.8H1047.2 1075.7 1106.7 1140.7L1178.2 10323.3H1219.7 1264.7 1314.2 1368.7 1428.7 1494.2 1566.2 1644.7 1731.7 1826.7 1931.2 2045.7 2171.2 2309.2 2460.7"/>
<path transform="matrix(.1,0,0,-.1,-28.854886,1100.1939)" stroke-width="2.5" stroke-linecap="butt" stroke-miterlimit="3.8" stroke-linejoin="miter" fill="none" stroke="#000000" d="M926.699 9982.8V10141.8L927.199 10154.8V10299.3L927.699 10317.3V10335.3 10353.3 10371.3 10387.8L928.199 10404.3V10419.3 10433.3 10445.8L928.699 10456.3V10465.3L929.199 10472.8V10477.8 10481.3L929.699 10482.8 930.199 10482.3V10480.3L930.699 10476.8 931.199 10471.8 931.699 10465.8 932.199 10458.3 932.699 10450.3 933.199 10441.3 933.699 10431.8 934.199 10421.3 935.199 10410.8 936.199 10399.3 936.699 10387.3 937.699 10375.3 939.199 10362.3 940.199 10349.8 941.699 10336.3 942.699 10323.3 944.699 10310.3 946.199 10297.3 948.199 10284.3 950.199 10272.3 952.699 10260.8 955.199 10250.3 957.699 10240.3 960.699 10231.8 964.199 10224.3 967.699 10217.8 971.699 10213.3 976.199 10209.8 981.199 10207.8 986.699 10206.8 992.199 10207.3 998.699 10208.8 1005.7 10211.3 1013.7 10214.8 1021.7 10218.3 1031.2 10222.8 1041.2 10227.3 1052.7 10231.8 1064.7 10236.8 1078.2 10241.3 1093.2 10245.8 1109.2 10250.3 1127.2 10254.3 1146.7 10258.3 1168.2 10261.8 1191.7 10265.3 1217.7 10268.3 1246.2 10270.8 1277.2 10273.3 1311.2 10275.3 1348.7 10276.8 1390.2 10277.8 1435.2 10278.8 1484.7 10279.3 1539.2 10279.8 1598.7 10280.3H1664.7 1736.2 1815.2 1902.2 1997.2L2101.7 10280.8H2216.2 2341.7 2460.7"/>
<path transform="matrix(.1,0,0,-.1,-28.854886,1100.1939)" stroke-width="2.5" stroke-linecap="butt" stroke-miterlimit="3.8" stroke-linejoin="miter" fill="none" stroke="#000000" d="M1097.2 9982.8V10027.8L1097.7 10031.3V10076.3L1098.2 10082.3V10088.8 10094.8 10101.3 10107.3L1098.7 10113.3V10119.3 10124.8L1099.2 10129.8V10134.3 10138.3L1099.7 10141.3V10143.8L1100.2 10145.3V10145.8H1100.7L1101.2 10144.3 1101.7 10141.8 1102.2 10138.8V10134.3L1102.7 10129.3 1103.7 10123.3 1104.2 10116.3 1104.7 10108.8 1105.7 10100.8 1106.2 10092.3 1107.2 10083.3 1108.2 10073.8 1109.2 10063.8 1110.7 10053.8 1111.7 10043.8 1113.2 10033.3 1115.2 10023.3 1116.7 10012.8 1118.7 10002.8 1120.7 9993.3 1123.2 9983.8 1125.7 9975.3 1128.2 9967.3 1131.2 9959.8 1134.7 9953.3 1138.2 9947.8 1142.2 9942.8 1146.7 9939.3 1151.7 9936.3 1156.7 9934.3 1162.7 9932.8 1169.2 9932.3 1176.2 9932.8 1183.7 9933.3 1192.2 9934.3 1201.7 9935.8 1211.7 9937.8 1223.2 9939.3 1235.2 9941.3 1248.7 9943.3 1263.7 9945.3 1279.7 9946.8 1297.7 9948.8 1317.2 9950.3 1338.7 9951.3 1362.2 9952.8 1388.2 9953.8 1416.7 9954.3 1447.7 9954.8 1481.7 9955.3H1519.2L1560.7 9955.8H1605.7L1655.2 9955.3H1709.7 1769.2 1834.7L1906.7 9954.8H1985.7 2072.7 2167.7 2271.7 2386.7 2460.7"/>
<path transform="matrix(.1,0,0,-.1,-28.854886,1100.1939)" stroke-width="2.5" stroke-linecap="butt" stroke-miterlimit="3.8" stroke-linejoin="miter" fill="none" stroke="#000000" d="M1267.7 9982.8V9985.8H1268.2V9987.3H1268.7V9987.8H1269.2V9987.3 9986.8H1269.7V9985.8 9985.3L1270.2 9984.3V9983.3L1270.7 9981.8V9980.3L1271.2 9978.3 1271.7 9975.8 1272.2 9973.3V9970.3L1272.7 9967.3 1273.2 9963.8 1274.2 9959.8 1274.7 9955.8 1275.2 9950.8 1276.2 9946.3 1276.7 9940.8 1277.7 9935.3 1278.7 9929.3 1279.7 9923.3 1281.2 9916.8 1282.2 9909.8 1283.7 9902.8 1285.2 9895.8 1287.2 9888.3 1289.2 9881.3 1291.2 9873.8 1293.7 9866.3 1296.2 9858.8 1298.7 9851.3 1301.7 9843.8 1305.2 9836.8 1308.7 9830.3 1312.7 9823.8 1317.2 9817.8 1322.2 9812.3 1327.2 9806.8 1333.2 9801.8 1339.7 9797.3 1346.7 9793.3 1354.2 9789.3 1362.7 9785.8 1372.2 9782.3 1382.2 9779.3 1393.7 9776.3 1405.7 9773.3 1419.2 9770.3 1434.2 9767.8 1450.2 9764.8 1468.2 9762.3 1487.7 9759.3 1509.2 9756.8 1532.7 9754.3 1558.7 9751.8 1586.7 9749.3 1618.2 9747.3 1652.2 9744.8 1689.7 9743.3 1730.7 9741.3 1776.2 9739.8 1825.7 9738.8 1880.2 9737.8 1939.7 9736.8 2005.2 9736.3 2077.2 9735.8H2156.2L2242.7 9735.3H2338.2 2442.2 2460.7"/>
<path transform="matrix(.1,0,0,-.1,-28.854886,1100.1939)" stroke-width="2.5" stroke-linecap="butt" stroke-miterlimit="3.8" stroke-linejoin="miter" fill="none" stroke="#000000" d="M1438.2 9982.8V9981.3H1438.7V9979.8L1439.2 9979.3V9978.8 9978.3 9977.8 9977.3L1439.7 9976.8V9976.3 9975.8L1440.2 9974.8V9974.3L1440.7 9973.3V9972.3L1441.2 9971.3V9970.3L1441.7 9968.8 1442.2 9967.8V9966.3L1442.7 9964.8 1443.2 9962.8 1443.7 9960.8 1444.2 9958.8 1445.2 9956.8 1445.7 9954.3 1446.7 9951.8 1447.2 9949.3 1448.2 9946.3 1449.2 9943.3 1450.2 9939.8 1451.7 9936.3 1452.7 9932.8 1454.2 9928.8 1455.7 9924.8 1457.7 9920.8 1459.7 9916.3 1461.7 9911.8 1463.7 9907.3 1466.2 9902.3 1469.2 9897.8 1472.2 9892.8 1475.7 9887.8 1479.2 9882.8 1483.2 9878.3 1487.7 9873.3 1492.7 9868.3 1497.7 9863.8 1503.7 9859.3 1510.2 9854.8 1517.2 9850.8 1524.7 9846.8 1533.2 9842.8 1542.7 9838.8 1552.7 9834.8 1564.2 9831.3 1576.2 9827.8 1589.7 9824.3 1604.7 9820.8 1620.7 9817.3 1638.7 9814.3 1658.2 9810.8 1679.7 9807.8 1703.2 9804.8 1729.2 9801.8 1757.2 9799.3 1788.7 9796.8 1822.7 9794.8 1860.2 9792.8 1901.2 9790.8 1946.7 9789.3 1996.2 9788.3 2050.7 9787.3 2110.2 9786.3 2175.7 9785.8 2247.7 9785.3 2326.7 9784.8H2413.2 2460.7"/>
<path transform="matrix(.1,0,0,-.1,-28.854886,1100.1939)" stroke-width="2.5" stroke-linecap="butt" stroke-miterlimit="3.8" stroke-linejoin="miter" fill="none" stroke="#000000" d="M1608.7 9982.8V9982.3H1609.2V9981.3H1609.7V9980.8L1610.2 9980.3V9979.8H1610.7V9979.3L1611.2 9978.8 1611.7 9978.3V9977.8L1612.2 9977.3 1612.7 9976.8V9976.3L1613.2 9975.8 1613.7 9974.8 1614.2 9974.3 1614.7 9973.3 1615.7 9972.8 1616.2 9971.8 1616.7 9970.8 1617.7 9969.8 1618.7 9968.3 1619.7 9967.3 1620.7 9965.8 1622.2 9964.8 1623.2 9963.3 1624.7 9961.8 1626.2 9959.8 1628.2 9958.3 1630.2 9956.3 1632.2 9954.8 1634.2 9952.8 1636.7 9950.8 1639.7 9948.3 1642.7 9946.3 1646.2 9944.3 1649.7 9941.8 1653.7 9939.8 1658.2 9937.3 1663.2 9935.3 1668.2 9932.8 1674.2 9930.3 1680.7 9928.3 1687.7 9926.3 1695.2 9923.8 1703.7 9921.8 1713.2 9919.8 1723.2 9917.8 1734.2 9915.8 1746.7 9913.8 1760.2 9911.8 1775.2 9909.8 1791.2 9908.3 1809.2 9906.3 1828.7 9904.3 1850.2 9902.8 1873.7 9901.3 1899.7 9899.8 1927.7 9898.3 1959.2 9896.8 1993.2 9895.8 2030.7 9894.3 2071.7 9893.8 2117.2 9892.8 2166.7 9892.3 2221.2 9891.3H2280.7L2346.2 9890.8H2418.2L2460.7 9890.3"/>
<path transform="matrix(.1,0,0,-.1,-28.854886,1100.1939)" stroke-width="2.5" stroke-linecap="butt" stroke-dasharray="10,15" stroke-miterlimit="3.8" stroke-linejoin="miter" fill="none" stroke="#000000" d="M1691.7 10528.8H1987.2M756.199 9517.8V10168.3L756.699 10185.3V10418.3L757.199 10444.3V10470.3 10494.8 10518.3 10540.3L757.699 10560.3V10578.3 10593.3L758.199 10605.8V10615.3 10621.8L758.699 10625.3 759.199 10626.8V10625.8L759.699 10622.3 760.199 10617.3V10610.8L760.699 10603.3 761.199 10594.8 762.199 10584.8 762.699 10574.3 763.199 10562.8 764.199 10550.8 765.199 10538.3 766.199 10524.3 767.199 10510.3 768.199 10495.8 769.699 10480.3 771.199 10464.8 772.699 10448.8 774.699 10432.8 776.699 10416.8 778.699 10401.3 781.199 10385.8 784.199 10371.8 787.199 10358.3 790.699 10346.3 794.699 10335.8 798.699 10326.8 803.699 10319.3 808.699 10313.8 814.699 10309.8 821.199 10307.8 828.699 10306.8H836.699L845.199 10307.8 855.199 10309.3 866.199 10311.3 878.699 10313.8 892.199 10315.8"/>
<path transform="matrix(.1,0,0,-.1,-28.854886,1100.1939)" stroke-width="2.5" stroke-linecap="butt" stroke-dasharray="10,15" stroke-miterlimit="3.8" stroke-linejoin="miter" fill="none" stroke="#000000" d="M892.199 10315.8 907.199 10317.3 924.199 10319.3 942.699 10320.3 963.199 10321.3 986.699 10322.3 1012.2 10322.8 1040.7 10323.3H1072.2 1107.2L1146.2 10323.8H1189.7 1237.7 1291.2 1350.7 1416.7 1489.7 1571.7 1662.2 1762.7 1874.7 1998.7 2136.7 2290.2 2460.7"/>
<path transform="matrix(.1,0,0,-.1,-28.854886,1100.1939)" stroke-width="2.5" stroke-linecap="butt" stroke-dasharray="10,15" stroke-miterlimit="3.8" stroke-linejoin="miter" fill="none" stroke="#000000" d="M756.199 9517.8H926.699V10142.3L927.199 10156.8V10172.3 10188.8 10206.3 10224.8 10243.8 10263.8 10283.8 10304.3L927.699 10325.3V10345.8 10365.8 10385.3L928.199 10403.8V10420.8 10436.3L928.699 10449.8V10461.3 10470.3L929.199 10477.3V10481.3L929.699 10482.8 930.199 10482.3V10479.8L930.699 10474.8 931.199 10468.8 931.699 10460.8 932.199 10451.8 933.199 10441.8 933.699 10430.8 934.699 10419.3 935.199 10406.8 936.199 10393.3 937.699 10379.8 938.699 10365.3 940.199 10350.8 941.699 10335.8 943.199 10320.8 945.199 10305.8 947.199 10291.3 949.199 10277.3 951.699 10263.8 954.699 10251.3 957.699 10240.3 961.199 10230.3 965.199 10221.8 969.199 10215.3 974.199 10210.8 979.199 10207.8 985.199 10206.3 991.699 10206.8 998.699 10208.3 1006.7 10211.3 1015.7 10215.3 1025.7 10219.8 1036.7 10224.8 1049.2 10230.3 1062.7 10235.8"/>
<path transform="matrix(.1,0,0,-.1,-28.854886,1100.1939)" stroke-width="2.5" stroke-linecap="butt" stroke-dasharray="10,15" stroke-miterlimit="3.8" stroke-linejoin="miter" fill="none" stroke="#000000" d="M1062.7 10235.8 1077.7 10241.3 1094.7 10246.3 1113.2 10251.3 1133.7 10256.3 1156.7 10260.8 1182.7 10264.8 1210.7 10268.3 1242.7 10271.3 1277.7 10273.8 1316.7 10276.3 1359.7 10277.8 1408.2 10278.8 1461.7 10279.8 1521.2 10280.3 1587.2 10280.8H1660.2L1741.7 10281.3H1832.7 1933.2 2045.2 2169.2 2307.2 2460.7"/>
<path transform="matrix(.1,0,0,-.1,-28.854886,1100.1939)" stroke-width="2.5" stroke-linecap="butt" stroke-dasharray="10,15" stroke-miterlimit="3.8" stroke-linejoin="miter" fill="none" stroke="#000000" d="M756.199 9517.8H1097.2V10028.3L1097.7 10032.3V10036.8 10041.8 10047.3 10052.8 10058.8 10065.3 10071.8L1098.2 10078.3V10085.3 10092.3 10099.8 10106.8L1098.7 10113.3V10120.3 10126.3L1099.2 10131.8V10136.8L1099.7 10140.8V10143.8L1100.2 10145.8 1100.7 10146.3V10145.8L1101.2 10143.8 1101.7 10140.8 1102.2 10136.3 1102.7 10130.8 1103.2 10124.3 1104.2 10116.8 1104.7 10108.3 1105.7 10098.8 1106.7 10089.3 1107.7 10078.8 1109.2 10067.8 1110.2 10056.3 1111.7 10044.8 1113.2 10033.3 1115.2 10021.3 1117.2 10009.8 1119.7 9998.8 1122.2 9987.8 1124.7 9977.8 1127.7 9968.3 1131.2 9959.8 1135.2 9952.8 1139.2 9946.3 1143.7 9941.3 1149.2 9937.3 1154.7 9934.8 1161.2 9933.3 1168.7 9932.8H1176.2L1185.2 9933.8 1195.2 9934.8 1205.7 9936.8 1218.2 9938.8 1231.2 9940.8 1246.2 9943.3 1262.7 9945.3 1281.2 9947.3 1301.7 9949.3 1324.7 9950.8 1349.7 9952.3 1377.7 9953.8 1409.2 9954.3"/>
<path transform="matrix(.1,0,0,-.1,-28.854886,1100.1939)" stroke-width="2.5" stroke-linecap="butt" stroke-dasharray="10,15" stroke-miterlimit="3.8" stroke-linejoin="miter" fill="none" stroke="#000000" d="M1409.2 9954.3 1443.7 9955.3 1482.2 9955.8H1749.2L1821.7 9955.3H1902.2 1991.7 2091.2 2201.7L2324.2 9954.8H2460.7"/>
<path transform="matrix(.1,0,0,-.1,-28.854886,1100.1939)" stroke-width="2.5" stroke-linecap="butt" stroke-dasharray="10,15" stroke-miterlimit="3.8" stroke-linejoin="miter" fill="none" stroke="#000000" d="M756.199 9517.8H1267.7V9985.8L1268.2 9986.3V9986.8 9987.3 9987.8H1268.7 1269.2V9987.3L1269.7 9986.8V9986.3 9985.3L1270.2 9984.3 1270.7 9982.8V9980.8L1271.2 9978.8 1271.7 9976.3 1272.2 9973.3 1272.7 9969.8 1273.2 9966.3 1273.7 9961.8 1274.2 9957.3 1275.2 9952.3 1276.2 9946.8 1276.7 9940.8 1278.2 9934.3 1279.2 9927.8 1280.2 9920.3 1281.7 9912.8 1283.2 9905.3 1285.2 9897.3 1287.2 9888.8 1289.2 9880.3 1291.7 9871.8 1294.2 9863.3 1297.2 9854.8 1300.7 9846.8 1304.2 9838.8 1308.7 9830.8 1313.2 9823.8 1318.2 9816.8 1323.7 9810.8 1330.2 9804.8 1336.7 9799.3 1344.7 9794.8 1353.2 9790.3 1362.7 9786.3 1373.2 9782.3 1385.2 9778.8 1398.2 9775.3 1412.7 9772.3 1428.7 9768.8 1446.7 9765.8 1466.7 9762.3 1488.7 9759.3 1513.2 9756.3 1540.7 9753.3 1570.7 9750.8 1604.7 9748.3 1642.2 9745.8 1683.7 9743.8 1729.7 9741.8 1781.2 9740.3 1838.2 9738.8 1901.7 9737.8 1972.2 9736.8 2050.2 9736.3 2137.2 9735.8H2234.2L2341.2 9735.3H2460.7"/>
<path transform="matrix(.1,0,0,-.1,-28.854886,1100.1939)" stroke-width="2.5" stroke-linecap="butt" stroke-dasharray="10,15" stroke-miterlimit="3.8" stroke-linejoin="miter" fill="none" stroke="#000000" d="M756.199 9517.8H1438.2V9983.3 9981.8L1438.7 9981.3V9980.8 9980.3 9979.8H1439.2V9979.3 9978.8 9978.3L1439.7 9977.8V9977.3 9976.3L1440.2 9975.8V9974.8L1440.7 9973.8V9972.8L1441.2 9971.3 1441.7 9970.3V9968.8L1442.2 9967.3 1442.7 9965.3 1443.2 9963.3 1443.7 9961.3 1444.7 9958.8 1445.2 9956.3 1446.2 9953.8 1446.7 9950.8 1447.7 9947.3 1449.2 9944.3 1450.2 9940.3 1451.7 9936.3 1453.2 9932.3 1454.7 9927.8 1456.7 9923.3 1458.7 9918.3 1461.2 9913.3 1463.7 9908.3 1466.2 9902.8 1469.7 9897.3 1473.2 9891.8 1477.2 9886.3 1481.2 9880.8 1486.2 9875.3 1491.7 9869.8 1497.7 9864.3 1504.2 9859.3 1511.2 9854.3 1519.7 9849.8 1528.7 9844.8 1538.7 9840.8 1549.7 9836.3 1562.2 9832.3 1576.2 9828.3 1591.7 9824.3 1608.7 9820.3 1627.7 9816.3 1648.7 9812.8 1672.2 9809.3 1698.2 9805.8 1726.7 9802.3 1758.7 9799.3 1794.7 9796.8 1834.2 9794.3 1878.2 9791.8 1927.2 9790.3 1981.7 9788.8 2041.7 9787.3 2109.2 9786.3 2183.7 9785.8 2266.2 9785.3 2358.2 9784.8H2460.7"/>
<path transform="matrix(.1,0,0,-.1,-28.854886,1100.1939)" stroke-width="2.5" stroke-linecap="butt" stroke-dasharray="10,15" stroke-miterlimit="3.8" stroke-linejoin="miter" fill="none" stroke="#000000" d="M756.199 9517.8H1608.7V9983.3 9982.3H1609.2V9981.8H1609.7V9981.3L1610.2 9980.8V9980.3L1610.7 9979.8 1611.2 9979.3V9978.8L1611.7 9978.3 1612.2 9977.8V9977.3L1612.7 9976.8 1613.2 9975.8 1613.7 9975.3 1614.7 9974.3 1615.2 9973.3 1615.7 9972.3 1616.7 9971.3 1617.7 9970.3 1618.7 9968.8 1619.7 9967.3 1621.2 9965.8 1622.2 9964.3 1624.2 9962.8 1625.7 9960.8 1627.7 9958.8 1629.7 9956.8 1632.2 9954.8 1634.7 9952.8 1637.7 9950.3 1641.2 9947.8 1644.7 9945.3 1648.7 9942.8 1653.2 9940.3 1658.2 9937.8 1663.7 9935.3 1669.7 9932.3 1676.2 9929.8 1684.2 9927.3 1692.2 9924.8 1701.7 9922.8 1712.2 9920.3 1723.7 9917.8 1736.2 9915.8 1750.7 9913.3 1766.2 9911.3 1783.7 9909.3 1803.2 9907.3 1825.2 9904.8 1849.2 9903.3 1875.7 9901.3 1905.7 9899.3 1938.7 9897.8 1975.2 9896.3 2016.2 9895.3 2061.2 9893.8 2111.7 9893.3 2167.7 9892.3 2229.7 9891.8 2298.7 9891.3 2375.7 9890.8H2460.7"/>
<path transform="matrix(.1,0,0,-.1,-28.854886,1100.1939)" stroke-width="2.5" stroke-linecap="butt" stroke-miterlimit="3.8" stroke-linejoin="miter" fill="none" stroke="#000000" d="M756.199 10725.3V9517.8H2460.7V10725.3H756.199Z"/>
<use data-text="A" xlink:href="#font_3_1" transform="matrix(0,-9.96264,-9.96264,-0,10.745113,100.09387)" fill="#231f20"/>
<use data-text="1" xlink:href="#font_4_2" transform="matrix(0,-6.97385,-6.97385,-0,12.184952,92.65405)" fill="#231f20"/>
<use data-text="1" xlink:href="#font_4_2" transform="matrix(0,-6.97385,-6.97385,-0,12.184952,88.69409)" fill="#231f20"/>
<use data-text="1" xlink:href="#font_4_2" transform="matrix(0,-6.97385,-6.97385,-0,12.184952,84.73407)" fill="#231f20"/>
<use data-text="1" xlink:href="#font_4_2" transform="matrix(0,-6.97385,-6.97385,-0,12.184952,80.77411)" fill="#231f20"/>
<use data-text="t" xlink:href="#font_3_2" transform="matrix(9.96264,0,0,-9.96264,130.14511,178.33386)" fill="#231f20"/>
<use data-text="A" xlink:href="#font_3_1" transform="matrix(9.96264,0,0,-9.96264,109.02521,13.573853)" fill="#231f20"/>
<use data-text="1" xlink:href="#font_4_2" transform="matrix(6.97385,0,0,-6.97385,116.46504,15.013672)" fill="#231f20"/>
<use data-text="1" xlink:href="#font_4_2" transform="matrix(6.97385,0,0,-6.97385,120.42505,15.013672)" fill="#231f20"/>
<use data-text="1" xlink:href="#font_4_2" transform="matrix(6.97385,0,0,-6.97385,124.385059,15.013672)" fill="#231f20"/>
<use data-text="1" xlink:href="#font_4_2" transform="matrix(6.97385,0,0,-6.97385,128.34508,15.013672)" fill="#231f20"/>
<use data-text="(" xlink:href="#font_2_11" transform="matrix(9.96264,0,0,-9.96264,132.78495,13.573853)" fill="#231f20"/>
<use data-text="t" xlink:href="#font_3_2" transform="matrix(9.96264,0,0,-9.96264,136.62479,13.573853)" fill="#231f20"/>
<use data-text="," xlink:href="#font_3_4" transform="matrix(9.96264,0,0,-9.96264,140.2248,13.573853)" fill="#231f20"/>
<use data-text="t" xlink:href="#font_3_2" transform="matrix(9.96264,0,0,-9.96264,144.6643,13.573853)" fill="#231f20"/>
<use data-text="&#x2032;" xlink:href="#font_5_1" transform="matrix(6.97385,0,0,-6.97385,148.26499,9.973877)" fill="#231f20"/>
<use data-text=")" xlink:href="#font_2_12" transform="matrix(9.96264,0,0,-9.96264,151.14507,13.573853)" fill="#231f20"/>
<use data-text="E" xlink:href="#font_2_1" transform="matrix(9.96264,0,0,-9.96264,99.78487,38.773805)" fill="#231f20"/>
<use data-text="s" xlink:href="#font_2_2" transform="matrix(9.96264,0,0,-9.96264,106.62486,38.773805)" fill="#231f20"/>
<use data-text="h" xlink:href="#font_2_6" transform="matrix(9.96264,0,0,-9.96264,110.584857,38.773805)" fill="#231f20"/>
<use data-text="e" xlink:href="#font_2_5" transform="matrix(9.96264,0,0,-9.96264,116.10486,38.773805)" fill="#231f20"/>
<use data-text="l" xlink:href="#font_2_7" transform="matrix(9.96264,0,0,-9.96264,120.54486,38.773805)" fill="#231f20"/>
<use data-text="b" xlink:href="#font_2_3" transform="matrix(9.96264,0,0,-9.96264,123.30452,38.773805)" fill="#231f20"/>
<use data-text="y" xlink:href="#font_2_4" transform="matrix(9.96264,0,0,-9.96264,128.58454,38.773805)" fill="#231f20"/>
<use data-text="&#x03c7;" xlink:href="#font_3_3" transform="matrix(9.96264,0,0,-9.96264,98.10518,49.693727)" fill="#231f20"/>
<use data-text="&#x2126;" xlink:href="#font_4_1" transform="matrix(6.97385,0,0,-6.97385,104.34502,51.133546)" fill="#231f20"/>
<use data-text="=" xlink:href="#font_2_10" transform="matrix(9.96264,0,0,-9.96264,113.2251,49.693727)" fill="#231f20"/>
<use data-text="4" xlink:href="#font_2_16" transform="matrix(9.96264,0,0,-9.96264,123.78525,49.693727)" fill="#231f20"/>
<use data-text="0" xlink:href="#font_2_13" transform="matrix(9.96264,0,0,-9.96264,128.82526,49.693727)" fill="#231f20"/>
</g>
</svg>
