<svg xmlns="http://www.w3.org/2000/svg" xmlns:xlink="http://www.w3.org/1999/xlink" xmlns:inkscape="http://www.inkscape.org/namespaces/inkscape" version="1.1" width="227.86888" height="183.44916" viewBox="0 0 227.86888 183.44916">
<defs>
<clipPath id="clip_1">
<path transform="matrix(1,0,0,-1,-28.75264,1100.1939)" d="M28.75264 916.7447H256.62153V1100.1939H28.75264Z" clip-rule="evenodd"/>
</clipPath>
<path id="font_2_5" d="M.45999146 .31976319C.45999146 .39982606 .45498658 .47988893 .41999818 .5539398 .37399293 .65000918 .2919922 .6660156 .25 .6660156 .18998719 .6660156 .116989139 .64001467 .07598877 .54693606 .04399109 .47789 .038986207 .39982606 .038986207 .31976319 .038986207 .24472046 .042999269 .15464783 .083999637 .07859802 .1269989-.0024719239 .19999695-.022460938 .24899292-.022460938 .30299378-.022460938 .3789978-.0014648438 .4229889 .09359741 .45498658 .16265869 .45999146 .2407074 .45999146 .31976319M.24899292-.00047302247C.20999146-.00047302247 .15098572 .024551392 .1329956 .12062073 .12199402 .18066406 .12199402 .2727356 .12199402 .3317871 .12199402 .39582826 .12199402 .46188355 .12998963 .5159149 .14898682 .63500979 .22399903 .64401248 .24899292 .64401248 .28199769 .64401248 .34799195 .6259918 .36698915 .52693179 .3769989 .47088624 .3769989 .39482118 .3769989 .3317871 .3769989 .25672914 .3769989 .18867493 .3659973 .12461853 .35099793 .029556275 .2939911-.00047302247 .24899292-.00047302247Z"/>
<path id="font_3_4" d="M.19198609 .052993776C.19198609 .08198547 .16799927 .10598755 .13899231 .10598755 .10998535 .10598755 .085998538 .08198547 .085998538 .052993776 .085998538 .023986817 .10998535 0 .13899231 0 .16799927 0 .19198609 .023986817 .19198609 .052993776Z"/>
<path id="font_2_6" d="M.2939911 .64004519C.2939911 .66400149 .2939911 .6660156 .2709961 .6660156 .20899964 .60227969 .12098694 .60227969 .08898926 .60227969V.57128909C.10899353 .57128909 .16799927 .57128909 .21998596 .5972748V.07902527C.21998596 .042999269 .21699524 .0309906 .1269989 .0309906H.09498596V0C.12998963 .0029907227 .21699524 .0029907227 .25698854 .0029907227 .29699708 .0029907227 .38398744 .0029907227 .4189911 0V.0309906H.3869934C.29699708 .0309906 .2939911 .041992189 .2939911 .07902527V.64004519Z"/>
<path id="font_2_7" d="M.1269989 .07699585 .23298645 .18003845C.3889923 .31811524 .44898988 .3721466 .44898988 .47216798 .44898988 .5860901 .35899354 .6660156 .23699951 .6660156 .12399292 .6660156 .049987794 .57411196 .049987794 .48516847 .049987794 .4291687 .099990848 .4291687 .102996829 .4291687 .11999512 .4291687 .15499878 .44117738 .15499878 .48217774 .15499878 .5081787 .13699341 .5341797 .101989749 .5341797 .09399414 .5341797 .09199524 .5341797 .08898926 .5331726 .11199951 .59806826 .1659851 .63500979 .22399903 .63500979 .31498719 .63500979 .35798646 .5541382 .35798646 .47216798 .35798646 .39215089 .30799867 .31311036 .25299073 .25108338L.06098938 .036987306C.049987794 .025985718 .049987794 .023986817 .049987794 0H.42099L.44898988 .17404175H.42399598C.4189911 .14402771 .4119873 .1000061 .4019928 .084991458 .394989 .07699585 .32899476 .07699585 .30699159 .07699585H.1269989Z"/>
<path id="font_2_8" d="M.2899933 .35191346C.37199403 .37893678 .42999269 .4490509 .42999269 .52809146 .42999269 .6100464 .34199525 .6660156 .24598694 .6660156 .14498902 .6660156 .068984989 .60606387 .068984989 .53009036 .068984989 .49710084 .09098816 .47808839 .11999512 .47808839 .15098572 .47808839 .17098999 .50009158 .17098999 .5290985 .17098999 .57910159 .12399292 .57910159 .10899353 .57910159 .13999939 .62802127 .20599365 .64100649 .24198914 .64100649 .2829895 .64100649 .33799745 .6190338 .33799745 .5290985 .33799745 .51708987 .33599855 .45906068 .30999757 .4149933 .27999879 .36691285 .24598694 .36390687 .22099304 .36291505 .21299744 .36190797 .18899536 .35990907 .18199158 .35990907 .17399597 .35890199 .16699219 .35791017 .16699219 .3479004 .16699219 .33691407 .17399597 .33691407 .19099427 .33691407H.23498535C.31698609 .33691407 .35398866 .2686615 .35398866 .17037964 .35398866 .034469606 .2849884 .0055389406 .24099732 .0055389406 .19799805 .0055389406 .12298584 .022491456 .08799744 .08137512 .12298584 .07637024 .1539917 .09837341 .1539917 .1363678 .1539917 .17237854 .1269989 .19238281 .09799194 .19238281 .07398987 .19238281 .041992189 .17837525 .041992189 .1343689 .041992189 .043441774 .1349945-.022460938 .24398804-.022460938 .3659973-.022460938 .45700074 .06838989 .45700074 .17037964 .45700074 .252594 .3939972 .33088685 .2899933 .35191346Z"/>
<path id="font_2_9" d="M.2939911 .16503906V.07800293C.2939911 .041992189 .2919922 .0309906 .21798706 .0309906H.19699097V0C.23799134 .0029907227 .2899933 .0029907227 .33198548 .0029907227 .37399293 .0029907227 .4269867 .0029907227 .46798707 0V.0309906H.44699098C.37298585 .0309906 .37098695 .041992189 .37098695 .07800293V.16503906H.47099305V.19602967H.37098695V.65075686C.37098695 .67074587 .37098695 .6767578 .35499574 .6767578 .34599305 .6767578 .34298707 .6767578 .33499146 .66474917L.027999878 .19602967V.16503906H.2939911M.2999878 .19602967H.055999757L.2999878 .5688019V.19602967Z"/>
<path id="font_2_1" d="M.13198853 .327713V.35173036C.13198853 .6047821 .2559967 .64100649 .30699159 .64100649 .33099366 .64100649 .37298585 .634964 .394989 .6007538 .37998963 .6007538 .33999635 .6007538 .33999635 .5557556 .33999635 .524765 .3639984 .5097656 .38598634 .5097656 .4019928 .5097656 .43199159 .51875308 .43199159 .5577545 .43199159 .6178589 .3880005 .6660156 .30499269 .6660156 .1769867 .6660156 .041992189 .5367584 .041992189 .31570436 .041992189 .048553468 .1579895-.022460938 .25099183-.022460938 .3619995-.022460938 .45700074 .07156372 .45700074 .2036438 .45700074 .33070375 .36799623 .4267578 .25698854 .4267578 .18899536 .4267578 .1519928 .37573243 .13198853 .327713M.25099183 .0055389406C.18798828 .0055389406 .1579895 .06556702 .1519928 .080566409 .13398743 .127594 .13398743 .2076416 .13398743 .22564698 .13398743 .30369569 .1659851 .40374757 .2559967 .40374757 .27198792 .40374757 .31799317 .40374757 .34899903 .34172059 .36698915 .30470277 .36698915 .2536621 .36698915 .20463562 .36698915 .15661621 .36698915 .10658264 .34999085 .0705719 .31999208 .010528564 .27398683 .0055389406 .25099183 .0055389406Z"/>
<path id="font_2_2" d="M.16299439 .4569702C.116989139 .486969 .11299133 .52098086 .11299133 .5379791 .11299133 .598999 .17799378 .64100649 .24899292 .64100649 .32199098 .64100649 .38598634 .58898928 .38598634 .51698306 .38598634 .45996095 .34700013 .4119568 .2869873 .37695313L.16299439 .4569702M.30899049 .36193849C.3809967 .3989563 .42999269 .45095826 .42999269 .51698306 .42999269 .6090088 .34098817 .6660156 .25 .6660156 .1499939 .6660156 .068984989 .59199526 .068984989 .49897767 .068984989 .4809723 .070999149 .43595887 .11299133 .38894654 .12399292 .37695313 .16099549 .35194398 .18598938 .33494569 .12799073 .30592347 .041992189 .24984741 .041992189 .15072632 .041992189 .04458618 .14399719-.022460938 .24899292-.022460938 .3619995-.022460938 .45700074 .06060791 .45700074 .16773987 .45700074 .20379639 .44599916 .24885559 .4079895 .2909088 .3889923 .31193543 .37298585 .3219452 .30899049 .36193849M.20899964 .3199463 .33198548 .24183655C.3600006 .2228241 .40699769 .19277954 .40699769 .13169861 .40699769 .05760193 .33198548 .0055389406 .25 .0055389406 .1639862 .0055389406 .09199524 .067611698 .09199524 .15072632 .09199524 .20880127 .12399292 .27288819 .20899964 .3199463Z"/>
<path id="font_3_1" d="M.1789856 .114868167C.13899231 .047973634 .099990848 .033981325 .055999757 .0309906 .04399109 .02999878 .034988405 .02999878 .034988405 .010986328 .034988405 .004989624 .039993287 0 .04798889 0 .07499695 0 .10598755 .0029907227 .13398743 .0029907227 .16699219 .0029907227 .20199585 0 .23399353 0 .23999024 0 .25299073 0 .25299073 .018997193 .25299073 .02999878 .24398804 .0309906 .23699951 .0309906 .21398926 .032989503 .18998719 .04096985 .18998719 .06593323 .18998719 .077926639 .19599915 .088897708 .20399475 .102890018L.27999879 .23068238H.5309906C.5329895 .2097168 .5469971 .07392883 .5469971 .063949588 .5469971 .033981325 .49499513 .0309906 .47499085 .0309906 .46099855 .0309906 .45098878 .0309906 .45098878 .010986328 .45098878 0 .46299745 0 .46499635 0 .5059967 0 .548996 .0029907227 .58999636 .0029907227 .61499026 .0029907227 .6779938 0 .7029877 0 .70899966 0 .72099307 0 .72099307 .019989014 .72099307 .0309906 .71099856 .0309906 .69799807 .0309906 .6359863 .0309906 .6359863 .037979127 .6329956 .06694031L.57199099 .691803C.56999209 .71180728 .56999209 .7158203 .5529938 .7158203 .5369873 .7158203 .5329895 .7088165 .5269928 .69880679L.1789856 .114868167M.29899598 .26168824 .49598695 .5917816 .5279999 .26168824H.29899598Z"/>
<path id="font_4_1" d="M.33499146 .63612368C.33499146 .6630554 .33299256 .6640625 .30499269 .6640625 .24099732 .6014404 .1499939 .6004486 .10899353 .6004486V.5644531C.1329956 .5644531 .19898987 .5644531 .2539978 .592453V.08203125C.2539978 .04899597 .2539978 .035995485 .1539917 .035995485H.115997318V0C.13398743 .0009918213 .25698854 .0039978029 .2939911 .0039978029 .32499696 .0039978029 .45098878 .0009918213 .47299195 0V.035995485H.43499757C.33499146 .035995485 .33499146 .04899597 .33499146 .08203125V.63612368Z"/>
<path id="font_4_2" d="M.5049896 .18203736H.47099305C.46798707 .16001892 .45799256 .100997928 .44499208 .09098816 .43699647 .084991458 .3600006 .084991458 .34599305 .084991458H.1619873C.2669983 .17803955 .3019867 .20603943 .3619995 .25306703 .43598939 .312088 .5049896 .374115 .5049896 .46914674 .5049896 .5900879 .39898683 .6640625 .2709961 .6640625 .14698792 .6640625 .06298828 .57710269 .06298828 .4851532 .06298828 .43414308 .10598755 .42915345 .115997318 .42915345 .13999939 .42915345 .16899109 .44615174 .16899109 .48214723 .16899109 .5001526 .1619873 .53515627 .10998535 .53515627 .14099121 .6060791 .20899964 .62805178 .2559967 .62805178 .35598756 .62805178 .4079895 .5501404 .4079895 .46914674 .4079895 .38212586 .34599305 .3130951 .31399537 .27708436L.07299805 .038986207C.06298828 .02999878 .06298828 .027999878 .06298828 0H.47499085L.5049896 .18203736Z"/>
<path id="font_3_2" d="M.20599365 .3996582H.2999878C.31999208 .3996582 .32998658 .3996582 .32998658 .41966249 .32998658 .43066407 .31999208 .43066407 .3019867 .43066407H.21398926C.25 .5724945 .25498963 .59246829 .25498963 .59846499 .25498963 .61546328 .24299622 .62545779 .22599793 .62545779 .22299195 .62545779 .19499207 .62446597 .18598938 .58947756L.14698792 .43066407H.052993776C.032989503 .43066407 .022994996 .43066407 .022994996 .4116516 .022994996 .3996582 .0309906 .3996582 .050994874 .3996582H.13899231C.066986087 .11608887 .06298828 .099121097 .06298828 .08114624 .06298828 .02722168 .100997928-.0107421879 .15499878-.0107421879 .25698854-.0107421879 .31399537 .13505554 .31399537 .14305115 .31399537 .1530304 .30599977 .1530304 .3019867 .1530304 .29299928 .1530304 .2919922 .15003968 .2869873 .13905335 .24398804 .035217287 .19099427 .011245728 .15699768 .011245728 .13598633 .011245728 .12599182 .024230957 .12599182 .057174684 .12599182 .08114624 .12799073 .088134769 .13198853 .10510254L.20599365 .3996582Z"/>
<path id="font_2_3" d="M.33099366-.2400055C.33099366-.23701477 .33099366-.23500061 .31399537-.21800232 .18899536-.0920105 .15699768 .09700012 .15699768 .25 .15699768 .42399598 .19499207 .59799197 .31799317 .72299197 .33099366 .73498538 .33099366 .7369995 .33099366 .73999026 .33099366 .746994 .32699586 .75 .32099916 .75 .31098939 .75 .22099304 .6819916 .1619873 .5549927 .11099243 .44499208 .09899902 .33399964 .09899902 .25 .09899902 .17199707 .10998535 .050994874 .16499329-.06201172 .22499085-.18501282 .31098939-.25 .32099916-.25 .32699586-.25 .33099366-.24700928 .33099366-.2400055Z"/>
<path id="font_3_3" d="M.20298767 .0009918213C.20298767 .066986087 .17799378 .10598755 .13899231 .10598755 .10598755 .10598755 .085998538 .08099365 .085998538 .052993776 .085998538 .025985718 .10598755 0 .13899231 0 .15098572 0 .1639862 .0039978029 .17399597 .0129852299 .1769867 .01499939 .17799378 .015991211 .1789856 .015991211 .17999268 .015991211 .18099976 .01499939 .18099976 .0009918213 .18099976-.07316589 .1459961-.13328552 .11299133-.16635132 .101989749-.17736817 .101989749-.17936707 .101989749-.18237305 .101989749-.18936157 .10699463-.19335938 .11199951-.19335938 .12298584-.19335938 .20298767-.116256717 .20298767 .0009918213Z"/>
<path id="font_5_1" d="M.2899933 .4720459C.2979889 .4890442 .29899598 .49705506 .29899598 .5040436 .29899598 .53504946 .2709961 .5590515 .23999024 .5590515 .20199585 .5590515 .18998719 .52804568 .18499756 .51205447L.052993776 .07901001C.051986696 .07701111 .04798889 .06401062 .04798889 .06300354 .04798889 .05101013 .07899475 .041015626 .08699036 .041015626 .09399414 .041015626 .09498596 .043014528 .101989749 .058013917L.2899933 .4720459Z"/>
<path id="font_2_4" d="M.2889862 .25C.2889862 .32798768 .27799989 .44898988 .22299195 .56199648 .16299439 .68499758 .07699585 .75 .066986087 .75 .06098938 .75 .056991579 .74598696 .056991579 .73999026 .056991579 .7369995 .056991579 .73498538 .07598877 .71699526 .17399597 .6179962 .23098755 .45899964 .23098755 .25 .23098755 .07899475 .19400025-.09700012 .069992069-.2230072 .056991579-.23500061 .056991579-.23701477 .056991579-.2400055 .056991579-.2460022 .06098938-.25 .066986087-.25 .07699585-.25 .16699219-.18200684 .22599793-.055007936 .2769928 .054992677 .2889862 .16600037 .2889862 .25Z"/>
</defs>
<g clip-path="url(#clip_1)">
<use data-text="0" xlink:href="#font_2_5" transform="matrix(9.96264,0,0,-9.96264,41.92746,150.85382)" fill="#231f20"/>
<use data-text="0" xlink:href="#font_2_5" transform="matrix(9.96264,0,0,-9.96264,29.207558,110.533939)" fill="#231f20"/>
<use data-text="." xlink:href="#font_3_4" transform="matrix(9.96264,0,0,-9.96264,34.2474,110.533939)" fill="#231f20"/>
<use data-text="0" xlink:href="#font_2_5" transform="matrix(9.96264,0,0,-9.96264,37.00756,110.533939)" fill="#231f20"/>
<use data-text="1" xlink:href="#font_2_6" transform="matrix(9.96264,0,0,-9.96264,42.04757,110.533939)" fill="#231f20"/>
<use data-text="0" xlink:href="#font_2_5" transform="matrix(9.96264,0,0,-9.96264,29.207562,70.333988)" fill="#231f20"/>
<use data-text="." xlink:href="#font_3_4" transform="matrix(9.96264,0,0,-9.96264,34.247404,70.333988)" fill="#231f20"/>
<use data-text="0" xlink:href="#font_2_5" transform="matrix(9.96264,0,0,-9.96264,37.00756,70.333988)" fill="#231f20"/>
<use data-text="2" xlink:href="#font_2_7" transform="matrix(9.96264,0,0,-9.96264,42.04757,70.333988)" fill="#231f20"/>
<use data-text="0" xlink:href="#font_2_5" transform="matrix(9.96264,0,0,-9.96264,29.207562,30.134034)" fill="#231f20"/>
<use data-text="." xlink:href="#font_3_4" transform="matrix(9.96264,0,0,-9.96264,34.247404,30.134034)" fill="#231f20"/>
<use data-text="0" xlink:href="#font_2_5" transform="matrix(9.96264,0,0,-9.96264,37.00756,30.134034)" fill="#231f20"/>
<use data-text="3" xlink:href="#font_2_8" transform="matrix(9.96264,0,0,-9.96264,42.04757,30.134034)" fill="#231f20"/>
<use data-text="0" xlink:href="#font_2_5" transform="matrix(9.96264,0,0,-9.96264,51.047365,161.77405)" fill="#231f20"/>
<use data-text="2" xlink:href="#font_2_7" transform="matrix(9.96264,0,0,-9.96264,81.28717,161.77405)" fill="#231f20"/>
<use data-text="0" xlink:href="#font_2_5" transform="matrix(9.96264,0,0,-9.96264,86.32717,161.77405)" fill="#231f20"/>
<use data-text="4" xlink:href="#font_2_9" transform="matrix(9.96264,0,0,-9.96264,114.04732,161.77405)" fill="#231f20"/>
<use data-text="0" xlink:href="#font_2_5" transform="matrix(9.96264,0,0,-9.96264,119.087329,161.77405)" fill="#231f20"/>
<use data-text="6" xlink:href="#font_2_1" transform="matrix(9.96264,0,0,-9.96264,146.80748,161.77405)" fill="#231f20"/>
<use data-text="0" xlink:href="#font_2_5" transform="matrix(9.96264,0,0,-9.96264,151.84749,161.77405)" fill="#231f20"/>
<use data-text="8" xlink:href="#font_2_2" transform="matrix(9.96264,0,0,-9.96264,179.56764,161.77405)" fill="#231f20"/>
<use data-text="0" xlink:href="#font_2_5" transform="matrix(9.96264,0,0,-9.96264,184.60764,161.77405)" fill="#231f20"/>
<use data-text="1" xlink:href="#font_2_6" transform="matrix(9.96264,0,0,-9.96264,209.80754,161.77405)" fill="#231f20"/>
<use data-text="0" xlink:href="#font_2_5" transform="matrix(9.96264,0,0,-9.96264,214.84754,161.77405)" fill="#231f20"/>
<use data-text="0" xlink:href="#font_2_5" transform="matrix(9.96264,0,0,-9.96264,219.88755,161.77405)" fill="#231f20"/>
<path transform="matrix(.1,0,0,-.1,-28.75264,1100.1939)" stroke-width="2.5" stroke-linecap="butt" stroke-miterlimit="3.8" stroke-linejoin="miter" fill="none" stroke="#000000" d="M822.199 9517.8H853.699M2460.7 9517.8H2429.2"/>
<path transform="matrix(.1,0,0,-.1,-28.75264,1100.1939)" stroke-width="2.5" stroke-linecap="butt" stroke-miterlimit="3.8" stroke-linejoin="miter" fill="none" stroke="#000000" d="M822.199 9920.3H853.699M2460.7 9920.3H2429.2"/>
<path transform="matrix(.1,0,0,-.1,-28.75264,1100.1939)" stroke-width="2.5" stroke-linecap="butt" stroke-miterlimit="3.8" stroke-linejoin="miter" fill="none" stroke="#000000" d="M822.199 10322.8H853.699M2460.7 10322.8H2429.2"/>
<path transform="matrix(.1,0,0,-.1,-28.75264,1100.1939)" stroke-width="2.5" stroke-linecap="butt" stroke-miterlimit="3.8" stroke-linejoin="miter" fill="none" stroke="#000000" d="M822.199 10725.3H853.699M2460.7 10725.3H2429.2"/>
<path transform="matrix(.1,0,0,-.1,-28.75264,1100.1939)" stroke-width="2.5" stroke-linecap="butt" stroke-miterlimit="3.8" stroke-linejoin="miter" fill="none" stroke="#000000" d="M822.199 9517.8V9549.3M822.199 10725.3V10693.8"/>
<path transform="matrix(.1,0,0,-.1,-28.75264,1100.1939)" stroke-width="2.5" stroke-linecap="butt" stroke-miterlimit="3.8" stroke-linejoin="miter" fill="none" stroke="#000000" d="M1149.7 9517.8V9549.3M1149.7 10725.3V10693.8"/>
<path transform="matrix(.1,0,0,-.1,-28.75264,1100.1939)" stroke-width="2.5" stroke-linecap="butt" stroke-miterlimit="3.8" stroke-linejoin="miter" fill="none" stroke="#000000" d="M1477.7 9517.8V9549.3M1477.7 10725.3V10693.8"/>
<path transform="matrix(.1,0,0,-.1,-28.75264,1100.1939)" stroke-width="2.5" stroke-linecap="butt" stroke-miterlimit="3.8" stroke-linejoin="miter" fill="none" stroke="#000000" d="M1805.2 9517.8V9549.3M1805.2 10725.3V10693.8"/>
<path transform="matrix(.1,0,0,-.1,-28.75264,1100.1939)" stroke-width="2.5" stroke-linecap="butt" stroke-miterlimit="3.8" stroke-linejoin="miter" fill="none" stroke="#000000" d="M2133.2 9517.8V9549.3M2133.2 10725.3V10693.8"/>
<path transform="matrix(.1,0,0,-.1,-28.75264,1100.1939)" stroke-width="2.5" stroke-linecap="butt" stroke-miterlimit="3.8" stroke-linejoin="miter" fill="none" stroke="#000000" d="M2460.7 9517.8V9549.3M2460.7 10725.3V10693.8"/>
<path transform="matrix(.1,0,0,-.1,-28.75264,1100.1939)" stroke-width="2.5" stroke-linecap="butt" stroke-miterlimit="3.8" stroke-linejoin="miter" fill="none" stroke="#000000" d="M822.199 10725.3V9517.8H2460.7V10725.3H822.199Z"/>
<path transform="matrix(.1,0,0,-.1,-28.75264,1100.1939)" stroke-width="2.5" stroke-linecap="butt" stroke-dasharray="10,15" stroke-miterlimit="3.8" stroke-linejoin="miter" fill="none" stroke="#000000" d="M822.199 9517.8V10093.8L822.699 10111.8V10328.3L823.199 10355.8V10382.8 10409.3 10434.8 10458.8L823.699 10480.3V10499.8 10515.8L824.199 10529.3V10538.8 10545.3L824.699 10548.3 825.199 10545.3 825.699 10540.3V10532.8L826.199 10524.3 826.699 10515.3 827.199 10505.3 827.699 10494.8 828.199 10484.3 829.199 10473.3 829.699 10461.8 830.699 10450.3 831.699 10438.3 832.699 10425.3 833.699 10411.8 835.199 10397.8 836.699 10382.8 838.199 10367.3 839.699 10351.3 841.699 10335.3 844.199 10319.3 846.199 10303.8 849.199 10288.8 852.199 10274.3 855.199 10261.3 859.199 10249.8 863.199 10239.8 867.699 10231.8 872.699 10225.8 878.699 10221.3 884.699 10218.8 891.699 10218.3H899.199L908.199 10219.8 917.699 10221.8 928.199 10223.8 939.699 10226.3 952.699 10228.3 967.199 10230.3 983.699 10231.8"/>
<path transform="matrix(.1,0,0,-.1,-28.75264,1100.1939)" stroke-width="2.5" stroke-linecap="butt" stroke-dasharray="10,15" stroke-miterlimit="3.8" stroke-linejoin="miter" fill="none" stroke="#000000" d="M983.699 10231.8 1001.7 10233.3 1021.2 10234.3 1043.7 10234.8 1068.2 10235.3 1095.7 10235.8H1125.7 1159.7L1197.2 10236.3H1238.7 1285.2 1336.2 1393.7 1457.2 1527.7 1605.7 1693.2 1789.7 1897.2 2016.7 2149.2 2296.7 2460.7"/>
<path transform="matrix(.1,0,0,-.1,-28.75264,1100.1939)" stroke-width="2.5" stroke-linecap="butt" stroke-dasharray="10,15" stroke-miterlimit="3.8" stroke-linejoin="miter" fill="none" stroke="#000000" d="M822.199 9517.8H986.199V10097.3L986.699 10114.3V10132.3 10151.3 10171.3 10191.8 10212.3 10233.8L987.199 10254.8V10275.8 10296.3 10315.8L987.699 10333.8V10350.3 10365.3L988.199 10377.8V10387.8 10394.8L988.699 10399.3 989.199 10401.3V10400.8L989.699 10397.3 990.199 10392.3 990.699 10385.3 991.199 10376.8 991.699 10366.8 992.199 10356.3 992.699 10344.8 993.699 10332.8 994.699 10320.3 995.199 10306.8 996.699 10293.3 997.699 10278.8 998.699 10264.3 1000.2 10249.3 1001.7 10233.8 1003.7 10218.8 1005.7 10203.8 1007.7 10189.3 1010.2 10175.3 1013.2 10162.3 1015.7 10150.8 1019.2 10140.8 1023.2 10132.3 1027.2 10125.8 1031.7 10120.8 1036.7 10118.3 1042.2 10117.3 1048.7 10117.8 1055.7 10119.8 1063.2 10123.3 1071.7 10127.3 1081.2 10131.8 1091.7 10136.8 1103.7 10142.3"/>
<path transform="matrix(.1,0,0,-.1,-28.75264,1100.1939)" stroke-width="2.5" stroke-linecap="butt" stroke-dasharray="10,15" stroke-miterlimit="3.8" stroke-linejoin="miter" fill="none" stroke="#000000" d="M1103.7 10142.3 1116.7 10147.3 1131.2 10152.8 1147.2 10157.8 1165.2 10162.3 1185.2 10166.8 1207.2 10171.3 1232.2 10174.8 1259.2 10178.3 1289.7 10181.3 1323.2 10183.8 1360.7 10185.8 1402.7 10187.3 1448.7 10188.3 1500.2 10189.3 1557.2 10189.8H1620.7L1691.2 10190.3H1769.7 1856.7 1953.7 2061.2 2180.7 2313.2 2460.7"/>
<path transform="matrix(.1,0,0,-.1,-28.75264,1100.1939)" stroke-width="2.5" stroke-linecap="butt" stroke-dasharray="10,15" stroke-miterlimit="3.8" stroke-linejoin="miter" fill="none" stroke="#000000" d="M822.199 9517.8H1149.7V9907.8L1150.2 9908.3V9909.3 9910.3 9911.3 9912.3 9913.8 9914.8 9916.3 9918.3 9920.3 9922.3 9924.3 9926.8 9929.3 9932.3 9935.8 9939.3 9942.8 9946.8 9951.3 9955.8 9961.3 9966.3L1150.7 9972.3V9977.8 9984.3 9990.8 9997.3 10004.3L1151.2 10011.3V10017.8 10024.8 10030.8L1151.7 10036.8V10042.3L1152.2 10047.3V10051.3L1152.7 10054.3V10056.8L1153.2 10057.3 1153.7 10056.8V10055.3L1154.2 10052.3 1154.7 10048.3 1155.2 10042.8 1156.2 10036.3 1156.7 10028.8 1157.2 10020.8 1158.2 10011.3 1159.2 10001.8 1160.2 9991.3 1161.2 9980.8 1162.7 9969.3 1164.2 9958.3 1165.7 9946.8 1167.2 9935.8 1169.2 9924.8 1171.2 9913.8 1173.7 9903.8 1176.7 9894.3 1179.2 9885.8 1182.7 9877.8 1186.2 9871.3 1190.2 9865.8 1194.7 9861.3 1199.7 9858.3 1205.7 9856.3 1211.7 9855.3 1218.7 9854.8 1226.2 9855.3 1234.7 9856.3 1244.2 9857.8 1254.7 9859.3 1266.2 9861.3 1279.2 9863.3 1293.2 9865.3 1309.2 9867.3 1327.2 9868.8 1346.7 9870.8 1368.7 9872.3 1392.7 9873.3 1419.7 9874.3 1449.7 9875.3 1483.2 9875.8 1520.2 9876.3"/>
<path transform="matrix(.1,0,0,-.1,-28.75264,1100.1939)" stroke-width="2.5" stroke-linecap="butt" stroke-dasharray="10,15" stroke-miterlimit="3.8" stroke-linejoin="miter" fill="none" stroke="#000000" d="M1520.2 9876.3H1776.7L1846.7 9875.8H2211.7L2329.7 9875.3H2460.7"/>
<path transform="matrix(.1,0,0,-.1,-28.75264,1100.1939)" stroke-width="2.5" stroke-linecap="butt" stroke-dasharray="10,15" stroke-miterlimit="3.8" stroke-linejoin="miter" fill="none" stroke="#000000" d="M822.199 9517.8H1313.7V9902.3H1314.2V9902.8 9903.3 9903.8 9904.3 9904.8H1314.7V9905.3H1315.2V9904.8L1315.7 9904.3V9903.8L1316.2 9902.8V9901.8L1316.7 9900.3V9898.8L1317.2 9896.8 1317.7 9894.3 1318.2 9891.8 1318.7 9888.8 1319.2 9885.3 1319.7 9881.3 1320.2 9876.8 1321.2 9872.3 1321.7 9866.8 1322.7 9861.3 1323.7 9855.8 1324.7 9849.3 1326.2 9842.8 1327.7 9835.8 1329.2 9828.8 1330.7 9821.3 1332.7 9813.8 1334.7 9806.3 1337.2 9798.3 1339.7 9790.8 1342.7 9783.3 1345.7 9776.3 1349.2 9769.3 1353.2 9762.3 1357.7 9756.3 1362.2 9750.3 1367.7 9744.8 1373.7 9740.3 1380.2 9735.8 1387.7 9731.8 1396.2 9727.8 1405.2 9724.8 1415.2 9721.8 1426.7 9718.8 1439.2 9715.8 1453.2 9713.3 1468.7 9710.3 1485.7 9707.8 1505.2 9705.3 1526.2 9702.8 1549.7 9700.3 1576.2 9697.8 1605.2 9695.3 1637.7 9693.3 1673.7 9691.3 1713.7 9689.3 1758.2 9687.8 1807.7 9686.3 1862.2 9685.3 1923.2 9684.3 1991.2 9683.8 2066.2 9683.3 2149.7 9682.8H2242.7 2346.2L2460.7 9682.3"/>
<path transform="matrix(.1,0,0,-.1,-28.75264,1100.1939)" stroke-width="2.5" stroke-linecap="butt" stroke-dasharray="10,15" stroke-miterlimit="3.8" stroke-linejoin="miter" fill="none" stroke="#000000" d="M822.199 9517.8H1477.7V9900.8 9899.8H1478.2V9899.3 9898.8 9898.3 9897.8H1478.7V9897.3 9896.8 9896.3L1479.2 9895.8V9895.3 9894.8L1479.7 9893.8V9892.8L1480.2 9892.3V9891.3L1480.7 9889.8V9888.8L1481.2 9887.3 1481.7 9885.8 1482.2 9884.3 1482.7 9882.3 1483.2 9880.3 1483.7 9878.3 1484.7 9876.3 1485.2 9873.3 1486.2 9870.8 1487.2 9867.8 1488.2 9864.8 1489.2 9861.3 1490.7 9857.8 1492.2 9853.8 1493.7 9849.8 1495.7 9845.8 1497.7 9841.3 1499.7 9836.3 1502.2 9831.8 1504.7 9826.8 1508.2 9821.8 1511.2 9816.8 1515.2 9811.8 1519.2 9806.8 1523.7 9801.8 1529.2 9797.3 1534.7 9792.3 1541.2 9787.8 1548.2 9783.3 1556.2 9779.3 1564.7 9775.3 1574.2 9771.3 1585.2 9767.8 1597.2 9763.8 1610.2 9760.3 1625.2 9756.8 1641.7 9753.3 1659.7 9750.3 1680.2 9746.8 1702.7 9743.8 1727.7 9740.8 1755.2 9737.8 1786.2 9735.3 1820.2 9732.8 1858.7 9730.8 1900.7 9728.8 1947.7 9727.3 2000.2 9725.8 2058.2 9724.8 2122.7 9723.8 2194.2 9723.3 2273.7 9722.8 2362.2 9722.3H2460.7"/>
<path transform="matrix(.1,0,0,-.1,-28.75264,1100.1939)" stroke-width="2.5" stroke-linecap="butt" stroke-dasharray="10,15" stroke-miterlimit="3.8" stroke-linejoin="miter" fill="none" stroke="#000000" d="M822.199 9517.8H1641.7V9900.8 9900.3H1642.2V9899.8 9899.3H1642.7V9898.8L1643.2 9898.3 1643.7 9897.8V9897.3L1644.2 9896.8 1644.7 9896.3V9895.8L1645.2 9895.3 1645.7 9894.8 1646.2 9894.3 1646.7 9893.3 1647.2 9892.8 1647.7 9891.8 1648.7 9890.8 1649.2 9889.8 1650.2 9888.8 1651.2 9887.8 1652.2 9886.3 1653.7 9884.8 1654.7 9883.3 1656.2 9881.8 1658.2 9880.3 1659.7 9878.3 1662.2 9876.3 1664.2 9874.8 1666.7 9872.3 1669.7 9870.3 1672.7 9868.3 1676.2 9865.8 1680.2 9863.3 1684.2 9861.3 1689.2 9858.8 1694.2 9856.3 1700.2 9854.3 1706.7 9851.8 1714.2 9849.3 1722.2 9847.3 1731.2 9844.8 1741.2 9842.8 1752.2 9840.8 1764.2 9838.8 1778.2 9836.8 1793.2 9834.8 1810.2 9832.8 1828.7 9830.8 1849.7 9828.8 1872.7 9827.3 1898.7 9825.8 1927.2 9823.8 1958.7 9822.3 1994.2 9821.3 2033.2 9819.8 2076.7 9818.8 2125.2 9818.3 2179.2 9817.3 2238.7 9816.8 2305.2 9816.3H2378.7L2460.7 9815.8"/>
<path transform="matrix(.1,0,0,-.1,-28.75264,1100.1939)" stroke-width="2.5" stroke-linecap="butt" stroke-miterlimit="3.8" stroke-linejoin="miter" fill="none" stroke="#000000" d="M822.199 9903.3V10085.8L822.699 10100.8V10351.8L823.199 10375.8V10399.3 10422.3 10444.3 10464.8L823.699 10483.3V10500.3 10515.3 10527.3L824.199 10537.3V10544.3 10548.8L824.699 10550.3V10549.8L825.199 10547.3V10542.8L825.699 10536.8 826.199 10529.8 826.699 10521.8V10513.3L827.199 10504.3 827.699 10495.3 828.199 10485.8 829.199 10476.3 829.699 10466.3 830.199 10456.3 831.199 10445.8 832.199 10434.8 833.199 10423.3 834.199 10411.3 835.199 10398.8 836.699 10385.8 837.699 10372.3 839.199 10358.8 841.199 10344.8 842.699 10330.8 844.699 10316.8 847.199 10303.3 849.699 10289.8 852.199 10277.8 855.199 10266.3 858.199 10255.8 861.699 10246.8 865.699 10238.8 870.199 10232.8 874.699 10228.3 879.699 10224.8 885.199 10222.8 891.699 10222.3H898.199L905.699 10223.3 913.699 10224.8 922.699 10226.3 932.699 10228.3 943.199 10230.3 955.199 10231.8 968.199 10233.8 982.199 10234.8 997.699 10235.8 1015.2 10236.8 1033.7 10237.3 1054.7 10237.8 1077.2 10238.3H1102.2 1129.2 1159.2 1192.2 1228.2L1267.7 10238.8H1311.2 1358.7 1411.2 1468.7 1531.7 1600.7 1676.7L1759.7 10238.3H1851.2 1951.7 2061.7 2182.7 2315.2 2460.7"/>
<path transform="matrix(.1,0,0,-.1,-28.75264,1100.1939)" stroke-width="2.5" stroke-linecap="butt" stroke-miterlimit="3.8" stroke-linejoin="miter" fill="none" stroke="#000000" d="M986.199 9903.3V10093.8L986.699 10108.3V10247.3L987.199 10265.8V10284.3 10301.8 10318.8 10334.8L987.699 10349.8V10363.3 10374.8L988.199 10384.8V10392.8L988.699 10398.3V10402.3L989.199 10403.8V10403.3L989.699 10400.8V10396.8L990.199 10391.3 990.699 10384.3 991.199 10376.8 991.699 10367.8 992.199 10358.3 992.699 10348.3 993.699 10337.8 994.199 10326.8 995.199 10315.3 995.699 10303.8 996.699 10291.3 997.699 10278.8 999.199 10265.8 1000.2 10252.8 1001.7 10239.3 1003.2 10225.8 1004.7 10212.8 1006.7 10199.8 1008.7 10187.3 1011.2 10175.3 1013.2 10164.3 1016.2 10154.3 1019.2 10145.3 1022.2 10137.3 1025.7 10131.3 1029.7 10126.3 1033.7 10123.3 1038.7 10121.3 1043.7 10120.8 1049.2 10121.3 1055.2 10123.3 1062.2 10125.8 1069.7 10129.3 1077.7 10133.3 1086.7 10137.8 1096.2 10141.8 1107.2 10146.8 1119.2 10151.3 1131.7 10155.8 1146.2 10160.3 1161.7 10164.3 1178.7 10168.3 1197.7 10171.8 1218.2 10175.3 1240.7 10178.8 1265.7 10181.3 1293.2 10183.8 1323.2 10185.8 1355.7 10187.8 1391.7 10189.3 1431.7 10190.3 1474.7 10191.3 1522.7 10191.8 1574.7 10192.3H1632.2 1695.2L1764.7 10192.8H1840.2 1923.7 2015.2 2115.2 2225.7 2346.2 2460.7"/>
<path transform="matrix(.1,0,0,-.1,-28.75264,1100.1939)" stroke-width="2.5" stroke-linecap="butt" stroke-miterlimit="3.8" stroke-linejoin="miter" fill="none" stroke="#000000" d="M1149.7 9903.3 1150.2 9926.3V9970.3L1150.7 9975.3V9980.3 9985.8 9991.8 9997.3 10003.3L1151.2 10009.3V10015.3 10021.3 10027.3 10032.8L1151.7 10038.3V10043.3 10047.8L1152.2 10051.8V10055.3L1152.7 10057.8V10059.3L1153.2 10059.8 1153.7 10058.8 1154.2 10056.3 1154.7 10053.3 1155.2 10048.8 1155.7 10043.8 1156.2 10037.8 1156.7 10031.3 1157.2 10023.8 1158.2 10015.8 1158.7 10007.3 1159.7 9998.8 1160.7 9989.3 1161.7 9979.8 1162.7 9969.8 1164.2 9959.8 1165.7 9949.8 1167.2 9939.8 1168.7 9930.3 1170.7 9920.8 1172.7 9911.3 1174.7 9902.8 1177.2 9894.8 1179.7 9887.3 1182.7 9880.3 1186.2 9874.3 1189.7 9869.3 1193.2 9865.3 1197.7 9862.3 1202.2 9859.8 1207.2 9858.3 1213.2 9857.3H1219.2L1226.2 9857.8 1233.2 9858.3 1241.7 9859.8 1250.2 9861.3 1260.2 9862.8 1271.2 9864.3 1282.7 9866.3 1295.7 9867.8 1310.2 9869.3 1325.7 9871.3 1342.7 9872.8 1361.7 9873.8 1382.2 9875.3 1404.7 9876.3 1429.7 9876.8 1456.7 9877.8 1486.7 9878.3H1519.7L1555.7 9878.8H1595.2 1638.7L1686.2 9878.3H1738.7 1796.2 1859.2L1928.2 9877.8H2004.2 2087.7 2178.7 2279.2 2389.2 2460.7"/>
<path transform="matrix(.1,0,0,-.1,-28.75264,1100.1939)" stroke-width="2.5" stroke-linecap="butt" stroke-miterlimit="3.8" stroke-linejoin="miter" fill="none" stroke="#000000" d="M1313.7 9903.3V9904.8H1314.2V9907.3H1314.7V9907.8H1315.2V9907.3L1315.7 9906.8V9906.3L1316.2 9905.3V9904.8 9903.3L1316.7 9902.3 1317.2 9900.8V9898.8L1317.7 9896.8 1318.2 9894.3V9891.8L1318.7 9888.8 1319.2 9885.3 1319.7 9881.8 1320.7 9877.8 1321.2 9873.3 1321.7 9868.8 1322.7 9864.3 1323.7 9858.8 1324.7 9853.3 1325.7 9847.8 1326.7 9841.8 1328.2 9835.3 1329.2 9829.3 1330.7 9822.8 1332.7 9815.8 1334.2 9809.3 1336.2 9802.3 1338.7 9795.8 1341.2 9788.8 1343.7 9782.3 1346.7 9775.8 1349.7 9769.8 1353.2 9763.8 1357.2 9758.3 1361.7 9753.3 1366.2 9748.3 1371.2 9743.8 1376.7 9739.8 1383.2 9735.8 1389.7 9732.3 1397.2 9729.3 1405.2 9726.3 1414.2 9723.8 1424.2 9720.8 1434.7 9718.3 1446.7 9715.8 1459.7 9713.8 1473.7 9711.3 1489.2 9708.8 1506.7 9706.8 1525.2 9704.3 1546.2 9702.3 1568.7 9699.8 1593.7 9697.8 1620.7 9695.8 1650.7 9694.3 1683.7 9692.3 1719.7 9690.8 1759.2 9689.3 1802.7 9688.3 1850.2 9687.3 1902.7 9686.3 1960.2 9685.8 2023.2 9685.3 2092.2 9684.8 2168.2 9684.3H2251.2 2342.7L2443.2 9683.8H2460.7"/>
<path transform="matrix(.1,0,0,-.1,-28.75264,1100.1939)" stroke-width="2.5" stroke-linecap="butt" stroke-miterlimit="3.8" stroke-linejoin="miter" fill="none" stroke="#000000" d="M1477.7 9903.3V9902.3L1478.2 9901.8V9900.3H1478.7V9899.8 9899.3 9898.8L1479.2 9898.3V9897.8 9897.3 9896.8L1479.7 9895.8V9895.3L1480.2 9894.3V9893.3L1480.7 9892.8V9891.3L1481.2 9890.3 1481.7 9889.3V9887.8L1482.2 9886.3 1482.7 9884.8 1483.2 9882.8 1483.7 9880.8 1484.2 9878.8 1485.2 9876.8 1485.7 9874.3 1486.7 9871.8 1487.2 9869.3 1488.2 9866.3 1489.2 9863.3 1490.7 9860.3 1491.7 9856.8 1493.2 9853.3 1494.7 9849.8 1496.2 9845.8 1498.2 9841.8 1500.2 9837.8 1502.7 9833.3 1504.7 9828.8 1507.7 9824.8 1510.7 9820.3 1513.7 9815.8 1517.2 9811.3 1521.2 9806.8 1525.2 9802.8 1530.2 9798.3 1535.2 9794.3 1540.7 9790.3 1546.7 9786.3 1553.7 9782.3 1561.2 9778.8 1569.2 9775.3 1578.2 9771.8 1587.7 9768.8 1598.7 9765.3 1610.7 9762.3 1623.7 9759.3 1637.7 9756.3 1653.2 9753.3 1670.2 9750.3 1689.2 9747.3 1709.7 9744.8 1732.7 9742.3 1757.2 9739.3 1784.7 9737.3 1814.7 9734.8 1847.2 9732.8 1883.7 9731.3 1923.2 9729.8 1966.7 9728.3 2014.2 9727.3 2066.2 9726.3 2123.7 9725.8 2186.7 9724.8H2256.2L2331.7 9724.3H2415.2 2460.7"/>
<path transform="matrix(.1,0,0,-.1,-28.75264,1100.1939)" stroke-width="2.5" stroke-linecap="butt" stroke-miterlimit="3.8" stroke-linejoin="miter" fill="none" stroke="#000000" d="M1641.7 9903.3V9902.8L1642.2 9902.3V9901.8H1642.7V9901.3L1643.2 9900.8V9900.3H1643.7V9899.8L1644.2 9899.3V9898.8L1644.7 9898.3H1645.2V9897.8L1645.7 9897.3 1646.2 9896.3 1646.7 9895.8 1647.2 9895.3 1647.7 9894.3 1648.2 9893.8 1648.7 9892.8 1649.7 9891.8 1650.2 9890.8 1651.2 9889.8 1652.2 9888.8 1653.2 9887.8 1654.2 9886.3 1655.7 9884.8 1657.2 9883.3 1658.7 9881.8 1660.2 9880.3 1662.2 9878.8 1664.2 9876.8 1666.2 9875.3 1668.7 9873.3 1671.2 9871.3 1674.2 9869.3 1677.7 9867.3 1681.2 9865.3 1685.2 9863.3 1689.2 9860.8 1693.7 9858.8 1699.2 9856.8 1704.7 9854.8 1710.7 9852.8 1717.7 9850.8 1724.7 9848.8 1733.2 9846.8 1742.2 9844.8 1751.7 9842.8 1762.7 9841.3 1774.2 9839.3 1787.2 9837.8 1801.7 9835.8 1817.2 9834.3 1834.2 9832.3 1853.2 9830.8 1873.7 9829.3 1896.2 9827.8 1921.2 9826.3 1948.7 9825.3 1978.2 9823.8 2011.2 9822.8 2047.2 9821.8 2086.7 9820.8 2130.2 9820.3 2178.2 9819.8 2230.2 9819.3 2287.7 9818.8 2350.7 9818.3H2419.7 2460.7"/>
<path transform="matrix(.1,0,0,-.1,-28.75264,1100.1939)" stroke-width="2.5" stroke-linecap="butt" stroke-miterlimit="3.8" stroke-linejoin="miter" fill="none" stroke="#000000" d="M822.199 10725.3V9517.8H2460.7V10725.3H822.199Z"/>
<use data-text="A" xlink:href="#font_3_1" transform="matrix(0,-9.96264,-9.96264,-0,10.847359,100.09387)" fill="#231f20"/>
<use data-text="1" xlink:href="#font_4_1" transform="matrix(0,-6.97385,-6.97385,-0,12.287197,92.65405)" fill="#231f20"/>
<use data-text="1" xlink:href="#font_4_1" transform="matrix(0,-6.97385,-6.97385,-0,12.287197,88.69409)" fill="#231f20"/>
<use data-text="2" xlink:href="#font_4_2" transform="matrix(0,-6.97385,-6.97385,-0,12.287197,84.73407)" fill="#231f20"/>
<use data-text="2" xlink:href="#font_4_2" transform="matrix(0,-6.97385,-6.97385,-0,12.287197,80.77411)" fill="#231f20"/>
<use data-text="t" xlink:href="#font_3_2" transform="matrix(9.96264,0,0,-9.96264,133.60736,178.33386)" fill="#231f20"/>
<use data-text="A" xlink:href="#font_3_1" transform="matrix(9.96264,0,0,-9.96264,112.36716,13.573853)" fill="#231f20"/>
<use data-text="1" xlink:href="#font_4_1" transform="matrix(6.97385,0,0,-6.97385,119.80739,15.013672)" fill="#231f20"/>
<use data-text="1" xlink:href="#font_4_1" transform="matrix(6.97385,0,0,-6.97385,123.767398,15.013672)" fill="#231f20"/>
<use data-text="2" xlink:href="#font_4_2" transform="matrix(6.97385,0,0,-6.97385,127.7274,15.013672)" fill="#231f20"/>
<use data-text="2" xlink:href="#font_4_2" transform="matrix(6.97385,0,0,-6.97385,131.68743,15.013672)" fill="#231f20"/>
<use data-text="(" xlink:href="#font_2_3" transform="matrix(9.96264,0,0,-9.96264,136.2472,13.573853)" fill="#231f20"/>
<use data-text="t" xlink:href="#font_3_2" transform="matrix(9.96264,0,0,-9.96264,140.08704,13.573853)" fill="#231f20"/>
<use data-text="," xlink:href="#font_3_3" transform="matrix(9.96264,0,0,-9.96264,143.68704,13.573853)" fill="#231f20"/>
<use data-text="t" xlink:href="#font_3_2" transform="matrix(9.96264,0,0,-9.96264,148.12656,13.573853)" fill="#231f20"/>
<use data-text="&#x2032;" xlink:href="#font_5_1" transform="matrix(6.97385,0,0,-6.97385,151.72724,9.973877)" fill="#231f20"/>
<use data-text=")" xlink:href="#font_2_4" transform="matrix(9.96264,0,0,-9.96264,154.487,13.573853)" fill="#231f20"/>
</g>
</svg>
