<svg xmlns="http://www.w3.org/2000/svg" xmlns:xlink="http://www.w3.org/1999/xlink" xmlns:inkscape="http://www.inkscape.org/namespaces/inkscape" version="1.1" width="227.86907" height="183.44916" viewBox="0 0 227.86907 183.44916">
<defs>
<clipPath id="clip_1">
<path transform="matrix(1,0,0,-1,-28.75264,1100.1939)" d="M28.75264 916.7447H256.6217V1100.1939H28.75264Z" clip-rule="evenodd"/>
</clipPath>
<path id="font_2_5" d="M.45999146 .31976319C.45999146 .39982606 .45498658 .47988893 .41999818 .5539398 .37399293 .65000918 .2919922 .6660156 .25 .6660156 .18998719 .6660156 .116989139 .64001467 .07598877 .54693606 .04399109 .47789 .038986207 .39982606 .038986207 .31976319 .038986207 .24472046 .042999269 .15464783 .083999637 .07859802 .1269989-.0024719239 .19999695-.022460938 .24899292-.022460938 .30299378-.022460938 .3789978-.0014648438 .4229889 .09359741 .45498658 .16265869 .45999146 .2407074 .45999146 .31976319M.24899292-.00047302247C.20999146-.00047302247 .15098572 .024551392 .1329956 .12062073 .12199402 .18066406 .12199402 .2727356 .12199402 .3317871 .12199402 .39582826 .12199402 .46188355 .12998963 .5159149 .14898682 .63500979 .22399903 .64401248 .24899292 .64401248 .28199769 .64401248 .34799195 .6259918 .36698915 .52693179 .3769989 .47088624 .3769989 .39482118 .3769989 .3317871 .3769989 .25672914 .3769989 .18867493 .3659973 .12461853 .35099793 .029556275 .2939911-.00047302247 .24899292-.00047302247Z"/>
<path id="font_3_4" d="M.19198609 .052993776C.19198609 .08198547 .16799927 .10598755 .13899231 .10598755 .10998535 .10598755 .085998538 .08198547 .085998538 .052993776 .085998538 .023986817 .10998535 0 .13899231 0 .16799927 0 .19198609 .023986817 .19198609 .052993776Z"/>
<path id="font_2_6" d="M.2939911 .64004519C.2939911 .66400149 .2939911 .6660156 .2709961 .6660156 .20899964 .60227969 .12098694 .60227969 .08898926 .60227969V.57128909C.10899353 .57128909 .16799927 .57128909 .21998596 .5972748V.07902527C.21998596 .042999269 .21699524 .0309906 .1269989 .0309906H.09498596V0C.12998963 .0029907227 .21699524 .0029907227 .25698854 .0029907227 .29699708 .0029907227 .38398744 .0029907227 .4189911 0V.0309906H.3869934C.29699708 .0309906 .2939911 .041992189 .2939911 .07902527V.64004519Z"/>
<path id="font_2_7" d="M.1269989 .07699585 .23298645 .18003845C.3889923 .31811524 .44898988 .3721466 .44898988 .47216798 .44898988 .5860901 .35899354 .6660156 .23699951 .6660156 .12399292 .6660156 .049987794 .57411196 .049987794 .48516847 .049987794 .4291687 .099990848 .4291687 .102996829 .4291687 .11999512 .4291687 .15499878 .44117738 .15499878 .48217774 .15499878 .5081787 .13699341 .5341797 .101989749 .5341797 .09399414 .5341797 .09199524 .5341797 .08898926 .5331726 .11199951 .59806826 .1659851 .63500979 .22399903 .63500979 .31498719 .63500979 .35798646 .5541382 .35798646 .47216798 .35798646 .39215089 .30799867 .31311036 .25299073 .25108338L.06098938 .036987306C.049987794 .025985718 .049987794 .023986817 .049987794 0H.42099L.44898988 .17404175H.42399598C.4189911 .14402771 .4119873 .1000061 .4019928 .084991458 .394989 .07699585 .32899476 .07699585 .30699159 .07699585H.1269989Z"/>
<path id="font_2_8" d="M.2899933 .35191346C.37199403 .37893678 .42999269 .4490509 .42999269 .52809146 .42999269 .6100464 .34199525 .6660156 .24598694 .6660156 .14498902 .6660156 .068984989 .60606387 .068984989 .53009036 .068984989 .49710084 .09098816 .47808839 .11999512 .47808839 .15098572 .47808839 .17098999 .50009158 .17098999 .5290985 .17098999 .57910159 .12399292 .57910159 .10899353 .57910159 .13999939 .62802127 .20599365 .64100649 .24198914 .64100649 .2829895 .64100649 .33799745 .6190338 .33799745 .5290985 .33799745 .51708987 .33599855 .45906068 .30999757 .4149933 .27999879 .36691285 .24598694 .36390687 .22099304 .36291505 .21299744 .36190797 .18899536 .35990907 .18199158 .35990907 .17399597 .35890199 .16699219 .35791017 .16699219 .3479004 .16699219 .33691407 .17399597 .33691407 .19099427 .33691407H.23498535C.31698609 .33691407 .35398866 .2686615 .35398866 .17037964 .35398866 .034469606 .2849884 .0055389406 .24099732 .0055389406 .19799805 .0055389406 .12298584 .022491456 .08799744 .08137512 .12298584 .07637024 .1539917 .09837341 .1539917 .1363678 .1539917 .17237854 .1269989 .19238281 .09799194 .19238281 .07398987 .19238281 .041992189 .17837525 .041992189 .1343689 .041992189 .043441774 .1349945-.022460938 .24398804-.022460938 .3659973-.022460938 .45700074 .06838989 .45700074 .17037964 .45700074 .252594 .3939972 .33088685 .2899933 .35191346Z"/>
<path id="font_2_9" d="M.2939911 .16503906V.07800293C.2939911 .041992189 .2919922 .0309906 .21798706 .0309906H.19699097V0C.23799134 .0029907227 .2899933 .0029907227 .33198548 .0029907227 .37399293 .0029907227 .4269867 .0029907227 .46798707 0V.0309906H.44699098C.37298585 .0309906 .37098695 .041992189 .37098695 .07800293V.16503906H.47099305V.19602967H.37098695V.65075686C.37098695 .67074587 .37098695 .6767578 .35499574 .6767578 .34599305 .6767578 .34298707 .6767578 .33499146 .66474917L.027999878 .19602967V.16503906H.2939911M.2999878 .19602967H.055999757L.2999878 .5688019V.19602967Z"/>
<path id="font_2_10" d="M.44898988 .20022583C.44898988 .3193512 .36698915 .41944886 .25898744 .41944886 .21099854 .41944886 .16799927 .40345765 .13198853 .36842347V.5637665C.1519928 .5577698 .18499756 .55078127 .21699524 .55078127 .33999635 .55078127 .4099884 .6417694 .4099884 .6547699 .4099884 .6607666 .40699769 .6657715 .3999939 .6657715 .39898683 .6657715 .39698792 .6657715 .3919983 .66278079 .37199403 .6537781 .32299806 .6337738 .2559967 .6337738 .21598816 .6337738 .16999817 .6407776 .12298584 .6617737 .114990238 .66477969 .11299133 .66477969 .11099243 .66477969 .100997928 .66477969 .100997928 .6567688 .100997928 .6407776V.34439088C.100997928 .32637025 .100997928 .31835938 .114990238 .31835938 .12199402 .31835938 .12399292 .32136537 .12799073 .32736207 .13899231 .3433838 .17599488 .39746095 .25698854 .39746095 .30899049 .39746095 .33399964 .35139466 .34199525 .33337403 .35798646 .29632569 .3600006 .25727845 .3600006 .20722962 .3600006 .17222595 .3600006 .11222839 .33599855 .07035828 .31199647 .031463624 .2749939 .0055389406 .22898865 .0055389406 .1559906 .0055389406 .09899902 .058380128 .08198547 .11723328 .084991458 .1162262 .08799744 .115234378 .09899902 .115234378 .13198853 .115234378 .14898682 .14022827 .14898682 .16423035 .14898682 .18823242 .13198853 .21322632 .09899902 .21322632 .084991458 .21322632 .049987794 .20622254 .049987794 .16023255 .049987794 .07434082 .11898804-.022460938 .23098755-.022460938 .34700013-.022460938 .44898988 .073349 .44898988 .20022583Z"/>
<path id="font_2_1" d="M.13198853 .327713V.35173036C.13198853 .6047821 .2559967 .64100649 .30699159 .64100649 .33099366 .64100649 .37298585 .634964 .394989 .6007538 .37998963 .6007538 .33999635 .6007538 .33999635 .5557556 .33999635 .524765 .3639984 .5097656 .38598634 .5097656 .4019928 .5097656 .43199159 .51875308 .43199159 .5577545 .43199159 .6178589 .3880005 .6660156 .30499269 .6660156 .1769867 .6660156 .041992189 .5367584 .041992189 .31570436 .041992189 .048553468 .1579895-.022460938 .25099183-.022460938 .3619995-.022460938 .45700074 .07156372 .45700074 .2036438 .45700074 .33070375 .36799623 .4267578 .25698854 .4267578 .18899536 .4267578 .1519928 .37573243 .13198853 .327713M.25099183 .0055389406C.18798828 .0055389406 .1579895 .06556702 .1519928 .080566409 .13398743 .127594 .13398743 .2076416 .13398743 .22564698 .13398743 .30369569 .1659851 .40374757 .2559967 .40374757 .27198792 .40374757 .31799317 .40374757 .34899903 .34172059 .36698915 .30470277 .36698915 .2536621 .36698915 .20463562 .36698915 .15661621 .36698915 .10658264 .34999085 .0705719 .31999208 .010528564 .27398683 .0055389406 .25099183 .0055389406Z"/>
<path id="font_2_2" d="M.16299439 .4569702C.116989139 .486969 .11299133 .52098086 .11299133 .5379791 .11299133 .598999 .17799378 .64100649 .24899292 .64100649 .32199098 .64100649 .38598634 .58898928 .38598634 .51698306 .38598634 .45996095 .34700013 .4119568 .2869873 .37695313L.16299439 .4569702M.30899049 .36193849C.3809967 .3989563 .42999269 .45095826 .42999269 .51698306 .42999269 .6090088 .34098817 .6660156 .25 .6660156 .1499939 .6660156 .068984989 .59199526 .068984989 .49897767 .068984989 .4809723 .070999149 .43595887 .11299133 .38894654 .12399292 .37695313 .16099549 .35194398 .18598938 .33494569 .12799073 .30592347 .041992189 .24984741 .041992189 .15072632 .041992189 .04458618 .14399719-.022460938 .24899292-.022460938 .3619995-.022460938 .45700074 .06060791 .45700074 .16773987 .45700074 .20379639 .44599916 .24885559 .4079895 .2909088 .3889923 .31193543 .37298585 .3219452 .30899049 .36193849M.20899964 .3199463 .33198548 .24183655C.3600006 .2228241 .40699769 .19277954 .40699769 .13169861 .40699769 .05760193 .33198548 .0055389406 .25 .0055389406 .1639862 .0055389406 .09199524 .067611698 .09199524 .15072632 .09199524 .20880127 .12399292 .27288819 .20899964 .3199463Z"/>
<path id="font_3_1" d="M.1789856 .114868167C.13899231 .047973634 .099990848 .033981325 .055999757 .0309906 .04399109 .02999878 .034988405 .02999878 .034988405 .010986328 .034988405 .004989624 .039993287 0 .04798889 0 .07499695 0 .10598755 .0029907227 .13398743 .0029907227 .16699219 .0029907227 .20199585 0 .23399353 0 .23999024 0 .25299073 0 .25299073 .018997193 .25299073 .02999878 .24398804 .0309906 .23699951 .0309906 .21398926 .032989503 .18998719 .04096985 .18998719 .06593323 .18998719 .077926639 .19599915 .088897708 .20399475 .102890018L.27999879 .23068238H.5309906C.5329895 .2097168 .5469971 .07392883 .5469971 .063949588 .5469971 .033981325 .49499513 .0309906 .47499085 .0309906 .46099855 .0309906 .45098878 .0309906 .45098878 .010986328 .45098878 0 .46299745 0 .46499635 0 .5059967 0 .548996 .0029907227 .58999636 .0029907227 .61499026 .0029907227 .6779938 0 .7029877 0 .70899966 0 .72099307 0 .72099307 .019989014 .72099307 .0309906 .71099856 .0309906 .69799807 .0309906 .6359863 .0309906 .6359863 .037979127 .6329956 .06694031L.57199099 .691803C.56999209 .71180728 .56999209 .7158203 .5529938 .7158203 .5369873 .7158203 .5329895 .7088165 .5269928 .69880679L.1789856 .114868167M.29899598 .26168824 .49598695 .5917816 .5279999 .26168824H.29899598Z"/>
<path id="font_4_1" d="M.272995 .33428956C.35099793 .33428956 .40699769 .2803192 .40699769 .1733551 .40699769 .04940796 .33499146 .012466431 .2769928 .012466431 .23699951 .012466431 .14898682 .0234375 .10699463 .082351688 .1539917 .084350589 .16499329 .11735535 .16499329 .13835144 .16499329 .17034912 .14099121 .19335938 .10998535 .19335938 .08198547 .19335938 .053985597 .17634583 .053985597 .13534546 .053985597 .041412355 .1579895-.01953125 .2789917-.01953125 .41799928-.01953125 .5139923 .07336426 .5139923 .1733551 .5139923 .2513275 .44999696 .32929994 .33999635 .35229493 .44499208 .39024354 .48298646 .4650879 .48298646 .5260773 .48298646 .60505679 .3919983 .6640625 .2809906 .6640625 .16999817 .6640625 .084991458 .61006167 .084991458 .5300751 .084991458 .49606324 .10699463 .47706605 .13699341 .47706605 .16799927 .47706605 .18798828 .5000763 .18798828 .5280762 .18798828 .5570679 .16799927 .57806399 .13699341 .5800781 .17199707 .62405398 .24099732 .63505557 .27799989 .63505557 .32299806 .63505557 .38598634 .6130676 .38598634 .5260773 .38598634 .48406983 .37199403 .43814088 .34599305 .4072113 .31298829 .36927796 .2849884 .3672943 .23498535 .36428834 .20999146 .3623047 .20799256 .3623047 .20298767 .3612976 .20098877 .3612976 .19299317 .3592987 .19299317 .34829713 .19299317 .33428956 .20199585 .33428956 .21899414 .33428956H.272995Z"/>
<path id="font_3_2" d="M.20599365 .3996582H.2999878C.31999208 .3996582 .32998658 .3996582 .32998658 .41966249 .32998658 .43066407 .31999208 .43066407 .3019867 .43066407H.21398926C.25 .5724945 .25498963 .59246829 .25498963 .59846499 .25498963 .61546328 .24299622 .62545779 .22599793 .62545779 .22299195 .62545779 .19499207 .62446597 .18598938 .58947756L.14698792 .43066407H.052993776C.032989503 .43066407 .022994996 .43066407 .022994996 .4116516 .022994996 .3996582 .0309906 .3996582 .050994874 .3996582H.13899231C.066986087 .11608887 .06298828 .099121097 .06298828 .08114624 .06298828 .02722168 .100997928-.0107421879 .15499878-.0107421879 .25698854-.0107421879 .31399537 .13505554 .31399537 .14305115 .31399537 .1530304 .30599977 .1530304 .3019867 .1530304 .29299928 .1530304 .2919922 .15003968 .2869873 .13905335 .24398804 .035217287 .19099427 .011245728 .15699768 .011245728 .13598633 .011245728 .12599182 .024230957 .12599182 .057174684 .12599182 .08114624 .12799073 .088134769 .13198853 .10510254L.20599365 .3996582Z"/>
<path id="font_2_3" d="M.33099366-.2400055C.33099366-.23701477 .33099366-.23500061 .31399537-.21800232 .18899536-.0920105 .15699768 .09700012 .15699768 .25 .15699768 .42399598 .19499207 .59799197 .31799317 .72299197 .33099366 .73498538 .33099366 .7369995 .33099366 .73999026 .33099366 .746994 .32699586 .75 .32099916 .75 .31098939 .75 .22099304 .6819916 .1619873 .5549927 .11099243 .44499208 .09899902 .33399964 .09899902 .25 .09899902 .17199707 .10998535 .050994874 .16499329-.06201172 .22499085-.18501282 .31098939-.25 .32099916-.25 .32699586-.25 .33099366-.24700928 .33099366-.2400055Z"/>
<path id="font_3_3" d="M.20298767 .0009918213C.20298767 .066986087 .17799378 .10598755 .13899231 .10598755 .10598755 .10598755 .085998538 .08099365 .085998538 .052993776 .085998538 .025985718 .10598755 0 .13899231 0 .15098572 0 .1639862 .0039978029 .17399597 .0129852299 .1769867 .01499939 .17799378 .015991211 .1789856 .015991211 .17999268 .015991211 .18099976 .01499939 .18099976 .0009918213 .18099976-.07316589 .1459961-.13328552 .11299133-.16635132 .101989749-.17736817 .101989749-.17936707 .101989749-.18237305 .101989749-.18936157 .10699463-.19335938 .11199951-.19335938 .12298584-.19335938 .20298767-.116256717 .20298767 .0009918213Z"/>
<path id="font_5_1" d="M.2899933 .4720459C.2979889 .4890442 .29899598 .49705506 .29899598 .5040436 .29899598 .53504946 .2709961 .5590515 .23999024 .5590515 .20199585 .5590515 .18998719 .52804568 .18499756 .51205447L.052993776 .07901001C.051986696 .07701111 .04798889 .06401062 .04798889 .06300354 .04798889 .05101013 .07899475 .041015626 .08699036 .041015626 .09399414 .041015626 .09498596 .043014528 .101989749 .058013917L.2899933 .4720459Z"/>
<path id="font_2_4" d="M.2889862 .25C.2889862 .32798768 .27799989 .44898988 .22299195 .56199648 .16299439 .68499758 .07699585 .75 .066986087 .75 .06098938 .75 .056991579 .74598696 .056991579 .73999026 .056991579 .7369995 .056991579 .73498538 .07598877 .71699526 .17399597 .6179962 .23098755 .45899964 .23098755 .25 .23098755 .07899475 .19400025-.09700012 .069992069-.2230072 .056991579-.23500061 .056991579-.23701477 .056991579-.2400055 .056991579-.2460022 .06098938-.25 .066986087-.25 .07699585-.25 .16699219-.18200684 .22599793-.055007936 .2769928 .054992677 .2889862 .16600037 .2889862 .25Z"/>
</defs>
<g clip-path="url(#clip_1)">
<use data-text="0" xlink:href="#font_2_5" transform="matrix(9.96264,0,0,-9.96264,35.32746,150.85382)" fill="#231f20"/>
<use data-text="0" xlink:href="#font_2_5" transform="matrix(9.96264,0,0,-9.96264,27.527462,130.69403)" fill="#231f20"/>
<use data-text="." xlink:href="#font_3_4" transform="matrix(9.96264,0,0,-9.96264,32.567304,130.69403)" fill="#231f20"/>
<use data-text="1" xlink:href="#font_2_6" transform="matrix(9.96264,0,0,-9.96264,35.32746,130.69403)" fill="#231f20"/>
<use data-text="0" xlink:href="#font_2_5" transform="matrix(9.96264,0,0,-9.96264,27.527462,110.53381)" fill="#231f20"/>
<use data-text="." xlink:href="#font_3_4" transform="matrix(9.96264,0,0,-9.96264,32.567304,110.53381)" fill="#231f20"/>
<use data-text="2" xlink:href="#font_2_7" transform="matrix(9.96264,0,0,-9.96264,35.32746,110.53381)" fill="#231f20"/>
<use data-text="0" xlink:href="#font_2_5" transform="matrix(9.96264,0,0,-9.96264,27.527462,90.37402)" fill="#231f20"/>
<use data-text="." xlink:href="#font_3_4" transform="matrix(9.96264,0,0,-9.96264,32.567304,90.37402)" fill="#231f20"/>
<use data-text="3" xlink:href="#font_2_8" transform="matrix(9.96264,0,0,-9.96264,35.32746,90.37402)" fill="#231f20"/>
<use data-text="0" xlink:href="#font_2_5" transform="matrix(9.96264,0,0,-9.96264,27.527462,70.33386)" fill="#231f20"/>
<use data-text="." xlink:href="#font_3_4" transform="matrix(9.96264,0,0,-9.96264,32.567304,70.33386)" fill="#231f20"/>
<use data-text="4" xlink:href="#font_2_9" transform="matrix(9.96264,0,0,-9.96264,35.32746,70.33386)" fill="#231f20"/>
<use data-text="0" xlink:href="#font_2_5" transform="matrix(9.96264,0,0,-9.96264,27.527462,50.174074)" fill="#231f20"/>
<use data-text="." xlink:href="#font_3_4" transform="matrix(9.96264,0,0,-9.96264,32.567304,50.174074)" fill="#231f20"/>
<use data-text="5" xlink:href="#font_2_10" transform="matrix(9.96264,0,0,-9.96264,35.32746,50.174074)" fill="#231f20"/>
<use data-text="0" xlink:href="#font_2_5" transform="matrix(9.96264,0,0,-9.96264,27.527462,30.133912)" fill="#231f20"/>
<use data-text="." xlink:href="#font_3_4" transform="matrix(9.96264,0,0,-9.96264,32.567304,30.133912)" fill="#231f20"/>
<use data-text="6" xlink:href="#font_2_1" transform="matrix(9.96264,0,0,-9.96264,35.32746,30.133912)" fill="#231f20"/>
<use data-text="0" xlink:href="#font_2_5" transform="matrix(9.96264,0,0,-9.96264,44.44738,161.77393)" fill="#231f20"/>
<use data-text="2" xlink:href="#font_2_7" transform="matrix(9.96264,0,0,-9.96264,76.00754,161.77393)" fill="#231f20"/>
<use data-text="0" xlink:href="#font_2_5" transform="matrix(9.96264,0,0,-9.96264,81.04754,161.77393)" fill="#231f20"/>
<use data-text="4" xlink:href="#font_2_9" transform="matrix(9.96264,0,0,-9.96264,110.08754,161.77393)" fill="#231f20"/>
<use data-text="0" xlink:href="#font_2_5" transform="matrix(9.96264,0,0,-9.96264,115.12755,161.77393)" fill="#231f20"/>
<use data-text="6" xlink:href="#font_2_1" transform="matrix(9.96264,0,0,-9.96264,144.16756,161.77393)" fill="#231f20"/>
<use data-text="0" xlink:href="#font_2_5" transform="matrix(9.96264,0,0,-9.96264,149.20757,161.77393)" fill="#231f20"/>
<use data-text="8" xlink:href="#font_2_2" transform="matrix(9.96264,0,0,-9.96264,178.24758,161.77393)" fill="#231f20"/>
<use data-text="0" xlink:href="#font_2_5" transform="matrix(9.96264,0,0,-9.96264,183.28757,161.77393)" fill="#231f20"/>
<use data-text="1" xlink:href="#font_2_6" transform="matrix(9.96264,0,0,-9.96264,209.80773,161.77393)" fill="#231f20"/>
<use data-text="0" xlink:href="#font_2_5" transform="matrix(9.96264,0,0,-9.96264,214.84772,161.77393)" fill="#231f20"/>
<use data-text="0" xlink:href="#font_2_5" transform="matrix(9.96264,0,0,-9.96264,219.88773,161.77393)" fill="#231f20"/>
<path transform="matrix(.1,0,0,-.1,-28.75264,1100.1939)" stroke-width="2.5" stroke-linecap="butt" stroke-miterlimit="3.8" stroke-linejoin="miter" fill="none" stroke="#000000" d="M756.199 9517.8H787.699M2460.7 9517.8H2429.2"/>
<path transform="matrix(.1,0,0,-.1,-28.75264,1100.1939)" stroke-width="2.5" stroke-linecap="butt" stroke-miterlimit="3.8" stroke-linejoin="miter" fill="none" stroke="#000000" d="M756.199 9719.3H787.699M2460.7 9719.3H2429.2"/>
<path transform="matrix(.1,0,0,-.1,-28.75264,1100.1939)" stroke-width="2.5" stroke-linecap="butt" stroke-miterlimit="3.8" stroke-linejoin="miter" fill="none" stroke="#000000" d="M756.199 9920.3H787.699M2460.7 9920.3H2429.2"/>
<path transform="matrix(.1,0,0,-.1,-28.75264,1100.1939)" stroke-width="2.5" stroke-linecap="butt" stroke-miterlimit="3.8" stroke-linejoin="miter" fill="none" stroke="#000000" d="M756.199 10121.8H787.699M2460.7 10121.8H2429.2"/>
<path transform="matrix(.1,0,0,-.1,-28.75264,1100.1939)" stroke-width="2.5" stroke-linecap="butt" stroke-miterlimit="3.8" stroke-linejoin="miter" fill="none" stroke="#000000" d="M756.199 10322.8H787.699M2460.7 10322.8H2429.2"/>
<path transform="matrix(.1,0,0,-.1,-28.75264,1100.1939)" stroke-width="2.5" stroke-linecap="butt" stroke-miterlimit="3.8" stroke-linejoin="miter" fill="none" stroke="#000000" d="M756.199 10524.3H787.699M2460.7 10524.3H2429.2"/>
<path transform="matrix(.1,0,0,-.1,-28.75264,1100.1939)" stroke-width="2.5" stroke-linecap="butt" stroke-miterlimit="3.8" stroke-linejoin="miter" fill="none" stroke="#000000" d="M756.199 10725.3H787.699M2460.7 10725.3H2429.2"/>
<path transform="matrix(.1,0,0,-.1,-28.75264,1100.1939)" stroke-width="2.5" stroke-linecap="butt" stroke-miterlimit="3.8" stroke-linejoin="miter" fill="none" stroke="#000000" d="M756.199 9517.8V9549.3M756.199 10725.3V10693.8"/>
<path transform="matrix(.1,0,0,-.1,-28.75264,1100.1939)" stroke-width="2.5" stroke-linecap="butt" stroke-miterlimit="3.8" stroke-linejoin="miter" fill="none" stroke="#000000" d="M1097.2 9517.8V9549.3M1097.2 10725.3V10693.8"/>
<path transform="matrix(.1,0,0,-.1,-28.75264,1100.1939)" stroke-width="2.5" stroke-linecap="butt" stroke-miterlimit="3.8" stroke-linejoin="miter" fill="none" stroke="#000000" d="M1438.2 9517.8V9549.3M1438.2 10725.3V10693.8"/>
<path transform="matrix(.1,0,0,-.1,-28.75264,1100.1939)" stroke-width="2.5" stroke-linecap="butt" stroke-miterlimit="3.8" stroke-linejoin="miter" fill="none" stroke="#000000" d="M1778.7 9517.8V9549.3M1778.7 10725.3V10693.8"/>
<path transform="matrix(.1,0,0,-.1,-28.75264,1100.1939)" stroke-width="2.5" stroke-linecap="butt" stroke-miterlimit="3.8" stroke-linejoin="miter" fill="none" stroke="#000000" d="M2119.7 9517.8V9549.3M2119.7 10725.3V10693.8"/>
<path transform="matrix(.1,0,0,-.1,-28.75264,1100.1939)" stroke-width="2.5" stroke-linecap="butt" stroke-miterlimit="3.8" stroke-linejoin="miter" fill="none" stroke="#000000" d="M2460.7 9517.8V9549.3M2460.7 10725.3V10693.8"/>
<path transform="matrix(.1,0,0,-.1,-28.75264,1100.1939)" stroke-width="2.5" stroke-linecap="butt" stroke-miterlimit="3.8" stroke-linejoin="miter" fill="none" stroke="#000000" d="M756.199 10725.3V9517.8H2460.7V10725.3H756.199Z"/>
<path transform="matrix(.1,0,0,-.1,-28.75264,1100.1939)" stroke-width="2.5" stroke-linecap="butt" stroke-dasharray="10,15" stroke-miterlimit="3.8" stroke-linejoin="miter" fill="none" stroke="#000000" d="M756.199 9517.8V9904.8L756.699 9919.8V10153.8L757.199 10186.8V10220.8 10256.3 10292.8 10330.3L757.699 10367.8V10404.8 10441.3L758.199 10476.3V10509.3 10539.3L758.699 10565.3 759.199 10587.3V10604.8L759.699 10616.3 760.199 10621.8V10621.3L760.699 10614.3 761.199 10601.3 762.199 10582.8 762.699 10558.8 763.199 10530.8 764.199 10498.8 765.199 10464.3 766.199 10427.3 767.199 10389.8 768.199 10351.3 769.699 10313.8 771.199 10276.8 772.699 10241.8 774.699 10209.3 776.699 10179.3 778.699 10152.3 781.199 10128.8 784.199 10109.3 787.199 10093.3 790.699 10080.8 794.699 10071.8 798.699 10065.8 803.699 10062.8 808.699 10061.3 814.699 10061.8 821.199 10063.3 828.699 10065.3 836.699 10067.8 845.199 10070.3 855.199 10073.3 866.199 10075.8 878.699 10077.8 892.199 10079.8 907.199 10081.3 924.199 10082.8 942.699 10083.8"/>
<path transform="matrix(.1,0,0,-.1,-28.75264,1100.1939)" stroke-width="2.5" stroke-linecap="butt" stroke-dasharray="10,15" stroke-miterlimit="3.8" stroke-linejoin="miter" fill="none" stroke="#000000" d="M942.699 10083.8 963.199 10084.3 986.699 10084.8 1012.2 10085.3H1040.7L1072.2 10085.8H1107.2 1146.2 1189.7 1237.7 1291.2 1350.7 1416.7 1489.7 1571.7 1662.2 1762.7 1874.7 1998.7 2136.7 2290.2 2460.7"/>
<path transform="matrix(.1,0,0,-.1,-28.75264,1100.1939)" stroke-width="2.5" stroke-linecap="butt" stroke-dasharray="10,15" stroke-miterlimit="3.8" stroke-linejoin="miter" fill="none" stroke="#000000" d="M756.199 9517.8H926.699V9883.8L927.199 9895.8V9908.8 9923.3 9938.8 9955.3 9972.8 9991.8 10011.8 10032.3L927.699 10054.3V10077.3 10100.8 10124.8L928.199 10149.3V10173.3 10197.3L928.699 10219.8V10241.8 10261.3L929.199 10279.3V10294.3L929.699 10305.8 930.199 10314.3V10318.3L930.699 10318.8 931.199 10315.3 931.699 10307.3 932.199 10295.8 933.199 10280.3 933.699 10262.3 934.699 10241.3 935.199 10218.8 936.199 10194.8 937.699 10169.8 938.699 10144.3 940.199 10119.3 941.699 10094.8 943.199 10071.3 945.199 10049.3 947.199 10029.3 949.199 10011.3 951.699 9995.8 954.699 9982.8 957.699 9972.3 961.199 9964.3 965.199 9959.3 969.199 9955.8 974.199 9954.8H979.199L985.199 9956.8 991.699 9959.3 998.699 9962.8 1006.7 9966.8 1015.7 9970.8 1025.7 9975.3 1036.7 9979.8 1049.2 9984.3 1062.7 9988.8 1077.7 9993.3"/>
<path transform="matrix(.1,0,0,-.1,-28.75264,1100.1939)" stroke-width="2.5" stroke-linecap="butt" stroke-dasharray="10,15" stroke-miterlimit="3.8" stroke-linejoin="miter" fill="none" stroke="#000000" d="M1077.7 9993.3 1094.7 9997.3 1113.2 10001.8 1133.7 10005.3 1156.7 10008.8 1182.7 10011.8 1210.7 10014.8 1242.7 10016.8 1277.7 10018.8 1316.7 10020.8 1359.7 10021.8 1408.2 10022.8 1461.7 10023.3 1521.2 10023.8H1587.2 1660.2L1741.7 10024.3H1832.7 1933.2 2045.2 2169.2 2307.2 2460.7"/>
<path transform="matrix(.1,0,0,-.1,-28.75264,1100.1939)" stroke-width="2.5" stroke-linecap="butt" stroke-dasharray="10,15" stroke-miterlimit="3.8" stroke-linejoin="miter" fill="none" stroke="#000000" d="M756.199 9517.8H1097.2V9794.8L1097.7 9797.8V9801.3 9804.8 9808.8 9813.3 9817.8 9822.8 9827.8L1098.2 9833.3V9838.8 9844.3 9850.3 9855.8L1098.7 9861.8V9867.3 9872.8L1099.2 9877.8V9882.8L1099.7 9886.3V9889.8L1100.2 9891.8 1100.7 9893.3 1101.2 9892.8 1101.7 9890.3 1102.2 9886.8 1102.7 9882.3 1103.2 9876.8 1104.2 9869.8 1104.7 9861.8 1105.7 9853.3 1106.7 9844.3 1107.7 9834.8 1109.2 9824.8 1110.2 9814.8 1111.7 9804.8 1113.2 9794.8 1115.2 9785.3 1117.2 9776.3 1119.7 9767.3 1122.2 9759.8 1124.7 9752.8 1127.7 9746.3 1131.2 9741.3 1135.2 9736.8 1139.2 9733.8 1143.7 9731.3 1149.2 9729.8 1154.7 9728.8H1161.2 1168.7L1176.2 9729.8 1185.2 9730.8 1195.2 9731.8 1205.7 9733.3 1218.2 9734.3 1231.2 9735.8 1246.2 9737.3 1262.7 9738.3 1281.2 9739.8 1301.7 9740.8 1324.7 9741.8 1349.7 9742.8 1377.7 9743.3 1409.2 9743.8 1443.7 9744.3 1482.2 9744.8H1525.2 1572.7"/>
<path transform="matrix(.1,0,0,-.1,-28.75264,1100.1939)" stroke-width="2.5" stroke-linecap="butt" stroke-dasharray="10,15" stroke-miterlimit="3.8" stroke-linejoin="miter" fill="none" stroke="#000000" d="M1572.7 9744.8H1625.2L1684.2 9744.3H1991.7L2091.2 9743.8H2201.7 2324.2 2460.7"/>
<path transform="matrix(.1,0,0,-.1,-28.75264,1100.1939)" stroke-width="2.5" stroke-linecap="butt" stroke-dasharray="10,15" stroke-miterlimit="3.8" stroke-linejoin="miter" fill="none" stroke="#000000" d="M756.199 9517.8H1267.7V9763.8L1268.2 9764.3V9764.8 9765.3H1268.7 1269.2V9764.8H1269.7V9763.8 9763.3L1270.2 9762.3 1270.7 9761.3V9760.3L1271.2 9758.8 1271.7 9756.8 1272.2 9754.8 1272.7 9752.3 1273.2 9749.8 1273.7 9746.8 1274.2 9743.3 1275.2 9739.8 1276.2 9735.8 1276.7 9731.8 1278.2 9727.3 1279.2 9722.8 1280.2 9717.8 1281.7 9712.8 1283.2 9707.3 1285.2 9701.8 1287.2 9696.8 1289.2 9691.3 1291.7 9685.8 1294.2 9680.3 1297.2 9675.3 1300.7 9670.3 1304.2 9665.8 1308.7 9661.3 1313.2 9657.3 1318.2 9653.3 1323.7 9650.3 1330.2 9647.3 1336.7 9644.3 1344.7 9642.3 1353.2 9639.8 1362.7 9637.8 1373.2 9636.3 1385.2 9634.3 1398.2 9632.8 1412.7 9630.8 1428.7 9629.3 1446.7 9627.8 1466.7 9626.3 1488.7 9624.8 1513.2 9622.8 1540.7 9621.3 1570.7 9619.8 1604.7 9618.8 1642.2 9617.3 1683.7 9616.3 1729.7 9615.3 1781.2 9614.3 1838.2 9613.8 1901.7 9613.3 1972.2 9612.8 2050.2 9612.3H2137.2L2234.2 9611.8H2341.2 2460.7"/>
<path transform="matrix(.1,0,0,-.1,-28.75264,1100.1939)" stroke-width="2.5" stroke-linecap="butt" stroke-dasharray="10,15" stroke-miterlimit="3.8" stroke-linejoin="miter" fill="none" stroke="#000000" d="M756.199 9517.8H1438.2V9761.8 9760.8H1438.7V9760.3 9759.8L1439.2 9759.3V9758.8 9758.3L1439.7 9757.8V9757.3L1440.2 9756.3V9755.8L1440.7 9755.3V9754.3L1441.2 9753.8 1441.7 9752.8V9751.8L1442.2 9750.3 1442.7 9749.3 1443.2 9747.8 1443.7 9746.3 1444.7 9744.8 1445.2 9742.8 1446.2 9741.3 1446.7 9738.8 1447.7 9736.8 1449.2 9734.3 1450.2 9731.8 1451.7 9729.3 1453.2 9726.3 1454.7 9723.3 1456.7 9720.3 1458.7 9716.8 1461.2 9713.8 1463.7 9710.3 1466.2 9706.8 1469.7 9702.8 1473.2 9699.3 1477.2 9695.8 1481.2 9692.3 1486.2 9688.8 1491.7 9685.3 1497.7 9682.3 1504.2 9679.3 1511.2 9676.3 1519.7 9673.3 1528.7 9670.8 1538.7 9667.8 1549.7 9665.3 1562.2 9662.8 1576.2 9660.8 1591.7 9658.3 1608.7 9655.8 1627.7 9653.8 1648.7 9651.8 1672.2 9649.3 1698.2 9647.3 1726.7 9645.3 1758.7 9643.8 1794.7 9641.8 1834.2 9640.3 1878.2 9639.3 1927.2 9638.3 1981.7 9637.3 2041.7 9636.3 2109.2 9635.8 2183.7 9635.3H2266.2L2358.2 9634.8H2460.7"/>
<path transform="matrix(.1,0,0,-.1,-28.75264,1100.1939)" stroke-width="2.5" stroke-linecap="butt" stroke-dasharray="10,15" stroke-miterlimit="3.8" stroke-linejoin="miter" fill="none" stroke="#000000" d="M756.199 9517.8H1608.7V9761.8 9761.3H1609.2V9760.8H1609.7V9760.3H1610.2V9759.8H1610.7V9759.3H1611.2V9758.8L1611.7 9758.3H1612.2V9757.8L1612.7 9757.3 1613.2 9756.8 1613.7 9756.3 1614.7 9755.8 1615.2 9754.8 1615.7 9754.3 1616.7 9753.3 1617.7 9752.8 1618.7 9751.8 1619.7 9750.8 1621.2 9749.8 1622.2 9748.8 1624.2 9747.3 1625.7 9746.3 1627.7 9744.8 1629.7 9743.3 1632.2 9741.8 1634.7 9740.3 1637.7 9738.8 1641.2 9737.3 1644.7 9735.3 1648.7 9733.8 1653.2 9731.8 1658.2 9730.3 1663.7 9728.3 1669.7 9726.8 1676.2 9724.8 1684.2 9723.3 1692.2 9721.8 1701.7 9719.8 1712.2 9718.3 1723.7 9716.8 1736.2 9715.3 1750.7 9713.8 1766.2 9712.3 1783.7 9710.8 1803.2 9709.8 1825.2 9708.3 1849.2 9706.8 1875.7 9705.8 1905.7 9704.8 1938.7 9703.8 1975.2 9702.8 2016.2 9701.8 2061.2 9700.8 2111.7 9700.3 2167.7 9699.8 2229.7 9699.3H2298.7L2375.7 9698.8H2460.7"/>
<path transform="matrix(.1,0,0,-.1,-28.75264,1100.1939)" stroke-width="2.5" stroke-linecap="butt" stroke-miterlimit="3.8" stroke-linejoin="miter" fill="none" stroke="#000000" d="M756.199 9761.8V9909.8L756.699 9923.3V10149.3L757.199 10177.8V10207.8 10238.3 10270.3 10302.8 10335.3L757.699 10368.3V10401.3 10433.3L758.199 10464.8V10494.3 10522.3L758.699 10547.8V10569.8L759.199 10588.8V10603.8L759.699 10614.8V10620.8L760.199 10621.8 760.699 10618.3 761.199 10610.3 761.699 10597.3 762.199 10579.8 762.699 10558.3 763.199 10533.8 763.699 10506.3 764.699 10476.3 765.699 10444.3 766.199 10411.8 767.199 10378.3 768.699 10344.8 769.699 10311.8 771.199 10279.3 772.699 10248.3 774.199 10219.3 775.699 10191.8 777.699 10166.8 779.699 10144.8 782.199 10124.8 784.699 10108.3 787.199 10094.3 790.699 10083.3 793.699 10074.8 797.699 10068.8 801.699 10064.8 805.699 10062.8 810.699 10062.3 816.199 10062.8 821.699 10064.3 828.199 10065.8 835.199 10068.3 843.199 10070.8 851.699 10072.8 860.699 10075.3 871.199 10077.3 882.199 10078.8 894.699 10080.8 908.199 10081.8 922.699 10082.8 939.199 10083.8 956.699 10084.3 976.199 10084.8 997.699 10085.3H1021.2 1047.2 1075.7 1106.7 1140.7 1178.2 1219.7 1264.7 1314.2 1368.7 1428.7 1494.2 1566.2 1644.7 1731.7 1826.7 1931.2 2045.7 2171.2 2309.2 2460.7"/>
<path transform="matrix(.1,0,0,-.1,-28.75264,1100.1939)" stroke-width="2.5" stroke-linecap="butt" stroke-miterlimit="3.8" stroke-linejoin="miter" fill="none" stroke="#000000" d="M926.699 9761.8V9883.3L927.199 9893.8V10026.8L927.699 10045.8V10065.8 10086.3 10107.3 10128.3L928.199 10149.8V10170.8 10191.8 10212.3L928.699 10231.8V10250.3L929.199 10267.3V10282.3 10294.8L929.699 10305.3 930.199 10312.8V10317.3L930.699 10318.8 931.199 10317.3 931.699 10312.3 932.199 10304.3 932.699 10293.8 933.199 10280.3 933.699 10264.3 934.199 10246.3 935.199 10226.8 936.199 10205.8 936.699 10184.3 937.699 10161.8 939.199 10139.8 940.199 10117.8 941.699 10096.3 942.699 10075.3 944.699 10055.8 946.199 10037.8 948.199 10021.3 950.199 10006.3 952.699 9993.3 955.199 9982.3 957.699 9973.3 960.699 9965.8 964.199 9960.8 967.699 9957.3 971.699 9955.3H976.199L981.199 9955.8 986.699 9957.3 992.199 9959.8 998.699 9962.8 1005.7 9966.3 1013.7 9969.8 1021.7 9973.8 1031.2 9977.8 1041.2 9981.8 1052.7 9985.8 1064.7 9989.8 1078.2 9993.3 1093.2 9997.3 1109.2 10000.8 1127.2 10004.3 1146.7 10007.3 1168.2 10009.8 1191.7 10012.8 1217.7 10014.8 1246.2 10016.8 1277.2 10018.8 1311.2 10019.8 1348.7 10021.3 1390.2 10021.8 1435.2 10022.8 1484.7 10023.3H1539.2L1598.7 10023.8H1664.7 1736.2 1815.2 1902.2 1997.2 2101.7 2216.2 2341.7 2460.7"/>
<path transform="matrix(.1,0,0,-.1,-28.75264,1100.1939)" stroke-width="2.5" stroke-linecap="butt" stroke-miterlimit="3.8" stroke-linejoin="miter" fill="none" stroke="#000000" d="M1097.2 9761.8V9794.3L1097.7 9797.3V9831.8L1098.2 9836.3V9841.3 9846.3 9851.8 9856.8L1098.7 9861.8V9866.8 9871.8L1099.2 9876.3V9880.3 9884.3L1099.7 9887.3V9890.3L1100.2 9891.8V9893.3H1100.7L1101.2 9892.8 1101.7 9891.3 1102.2 9888.8V9885.3L1102.7 9880.8 1103.7 9875.3 1104.2 9869.3 1104.7 9862.8 1105.7 9855.3 1106.2 9847.3 1107.2 9839.3 1108.2 9830.3 1109.2 9821.8 1110.7 9812.8 1111.7 9803.8 1113.2 9795.3 1115.2 9786.8 1116.7 9778.8 1118.7 9770.8 1120.7 9763.8 1123.2 9756.8 1125.7 9750.8 1128.2 9745.8 1131.2 9741.3 1134.7 9737.3 1138.2 9734.3 1142.2 9731.8 1146.7 9730.3 1151.7 9729.3 1156.7 9728.8H1162.7 1169.2L1176.2 9729.8 1183.7 9730.3 1192.2 9731.3 1201.7 9732.8 1211.7 9733.8 1223.2 9734.8 1235.2 9736.3 1248.7 9737.3 1263.7 9738.3 1279.7 9739.3 1297.7 9740.3 1317.2 9741.3 1338.7 9742.3 1362.2 9742.8 1388.2 9743.3 1416.7 9743.8 1447.7 9744.3H1481.7 1519.2 1560.7 1605.7 1655.2 1709.7 1769.2 1834.7L1906.7 9743.8H1985.7 2072.7 2167.7 2271.7 2386.7 2460.7"/>
<path transform="matrix(.1,0,0,-.1,-28.75264,1100.1939)" stroke-width="2.5" stroke-linecap="butt" stroke-miterlimit="3.8" stroke-linejoin="miter" fill="none" stroke="#000000" d="M1267.7 9761.8V9763.8H1268.2V9764.8L1268.7 9765.3H1269.2V9764.8L1269.7 9764.3V9763.8 9763.3L1270.2 9762.8V9761.8L1270.7 9760.8V9759.8L1271.2 9758.3 1271.7 9756.8 1272.2 9754.8V9752.8L1272.7 9750.8 1273.2 9748.3 1274.2 9745.3 1274.7 9742.3 1275.2 9738.8 1276.2 9735.8 1276.7 9731.8 1277.7 9727.8 1278.7 9723.8 1279.7 9719.8 1281.2 9715.3 1282.2 9710.8 1283.7 9705.8 1285.2 9701.3 1287.2 9696.3 1289.2 9691.8 1291.2 9686.8 1293.7 9682.3 1296.2 9677.8 1298.7 9673.3 1301.7 9668.8 1305.2 9664.8 1308.7 9660.8 1312.7 9657.3 1317.2 9654.3 1322.2 9650.8 1327.2 9648.3 1333.2 9645.8 1339.7 9643.3 1346.7 9641.3 1354.2 9639.8 1362.7 9637.8 1372.2 9636.3 1382.2 9634.8 1393.7 9633.3 1405.7 9631.8 1419.2 9630.3 1434.2 9628.8 1450.2 9627.3 1468.2 9625.8 1487.7 9624.8 1509.2 9623.3 1532.7 9621.8 1558.7 9620.8 1586.7 9619.3 1618.2 9618.3 1652.2 9617.3 1689.7 9616.3 1730.7 9615.3 1776.2 9614.3 1825.7 9613.8 1880.2 9613.3 1939.7 9612.8 2005.2 9612.3H2077.2 2156.2L2242.7 9611.8H2338.2 2442.2 2460.7"/>
<path transform="matrix(.1,0,0,-.1,-28.75264,1100.1939)" stroke-width="2.5" stroke-linecap="butt" stroke-miterlimit="3.8" stroke-linejoin="miter" fill="none" stroke="#000000" d="M1438.2 9761.8V9760.8H1438.7V9759.3H1439.2V9758.8 9758.3 9757.8H1439.7V9757.3 9756.8L1440.2 9756.3V9755.8L1440.7 9754.8V9754.3L1441.2 9753.8V9752.8L1441.7 9751.8 1442.2 9750.8V9749.8L1442.7 9748.8 1443.2 9747.8 1443.7 9746.3 1444.2 9744.8 1445.2 9743.3 1445.7 9741.8 1446.7 9739.8 1447.2 9737.8 1448.2 9735.8 1449.2 9733.8 1450.2 9731.8 1451.7 9729.3 1452.7 9726.8 1454.2 9724.3 1455.7 9721.3 1457.7 9718.8 1459.7 9715.8 1461.7 9712.8 1463.7 9709.8 1466.2 9706.3 1469.2 9703.3 1472.2 9700.3 1475.7 9696.8 1479.2 9693.8 1483.2 9690.8 1487.7 9687.8 1492.7 9684.8 1497.7 9681.8 1503.7 9679.3 1510.2 9676.8 1517.2 9673.8 1524.7 9671.8 1533.2 9669.3 1542.7 9666.8 1552.7 9664.8 1564.2 9662.8 1576.2 9660.3 1589.7 9658.3 1604.7 9656.3 1620.7 9654.3 1638.7 9652.3 1658.2 9650.8 1679.7 9648.8 1703.2 9646.8 1729.2 9645.3 1757.2 9643.8 1788.7 9642.3 1822.7 9640.8 1860.2 9639.8 1901.2 9638.8 1946.7 9637.8 1996.2 9636.8 2050.7 9636.3 2110.2 9635.8 2175.7 9635.3H2247.7L2326.7 9634.8H2413.2 2460.7"/>
<path transform="matrix(.1,0,0,-.1,-28.75264,1100.1939)" stroke-width="2.5" stroke-linecap="butt" stroke-miterlimit="3.8" stroke-linejoin="miter" fill="none" stroke="#000000" d="M1608.7 9761.8V9761.3H1609.2V9760.8H1609.7V9760.3L1610.2 9759.8 1610.7 9759.3 1611.2 9758.8 1611.7 9758.3 1612.2 9757.8 1612.7 9757.3V9756.8H1613.2L1613.7 9756.3 1614.2 9755.8 1614.7 9755.3 1615.7 9754.3 1616.2 9753.8 1616.7 9753.3 1617.7 9752.3 1618.7 9751.8 1619.7 9750.8 1620.7 9749.8 1622.2 9748.8 1623.2 9747.8 1624.7 9746.8 1626.2 9745.8 1628.2 9744.3 1630.2 9743.3 1632.2 9741.8 1634.2 9740.3 1636.7 9739.3 1639.7 9737.8 1642.7 9736.3 1646.2 9734.8 1649.7 9733.3 1653.7 9731.3 1658.2 9729.8 1663.2 9728.3 1668.2 9726.8 1674.2 9725.3 1680.7 9723.8 1687.7 9722.3 1695.2 9720.8 1703.7 9719.3 1713.2 9718.3 1723.2 9716.8 1734.2 9715.3 1746.7 9714.3 1760.2 9712.8 1775.2 9711.8 1791.2 9710.3 1809.2 9709.3 1828.7 9707.8 1850.2 9706.8 1873.7 9705.8 1899.7 9704.8 1927.7 9703.8 1959.2 9702.8 1993.2 9702.3 2030.7 9701.3 2071.7 9700.8 2117.2 9700.3 2166.7 9699.8 2221.2 9699.3H2280.7L2346.2 9698.8H2418.2 2460.7"/>
<path transform="matrix(.1,0,0,-.1,-28.75264,1100.1939)" stroke-width="2.5" stroke-linecap="butt" stroke-miterlimit="3.8" stroke-linejoin="miter" fill="none" stroke="#000000" d="M756.199 10725.3V9517.8H2460.7V10725.3H756.199Z"/>
<use data-text="A" xlink:href="#font_3_1" transform="matrix(0,-9.96264,-9.96264,-0,10.847359,100.09387)" fill="#231f20"/>
<use data-text="3" xlink:href="#font_4_1" transform="matrix(0,-6.97385,-6.97385,-0,12.287197,92.65405)" fill="#231f20"/>
<use data-text="3" xlink:href="#font_4_1" transform="matrix(0,-6.97385,-6.97385,-0,12.287197,88.69409)" fill="#231f20"/>
<use data-text="3" xlink:href="#font_4_1" transform="matrix(0,-6.97385,-6.97385,-0,12.287197,84.73407)" fill="#231f20"/>
<use data-text="3" xlink:href="#font_4_1" transform="matrix(0,-6.97385,-6.97385,-0,12.287197,80.77411)" fill="#231f20"/>
<use data-text="t" xlink:href="#font_3_2" transform="matrix(9.96264,0,0,-9.96264,130.24736,178.33386)" fill="#231f20"/>
<use data-text="A" xlink:href="#font_3_1" transform="matrix(9.96264,0,0,-9.96264,109.12746,13.573853)" fill="#231f20"/>
<use data-text="3" xlink:href="#font_4_1" transform="matrix(6.97385,0,0,-6.97385,116.56729,15.013672)" fill="#231f20"/>
<use data-text="3" xlink:href="#font_4_1" transform="matrix(6.97385,0,0,-6.97385,120.5273,15.013672)" fill="#231f20"/>
<use data-text="3" xlink:href="#font_4_1" transform="matrix(6.97385,0,0,-6.97385,124.487308,15.013672)" fill="#231f20"/>
<use data-text="3" xlink:href="#font_4_1" transform="matrix(6.97385,0,0,-6.97385,128.44733,15.013672)" fill="#231f20"/>
<use data-text="(" xlink:href="#font_2_3" transform="matrix(9.96264,0,0,-9.96264,132.88719,13.573853)" fill="#231f20"/>
<use data-text="t" xlink:href="#font_3_2" transform="matrix(9.96264,0,0,-9.96264,136.72704,13.573853)" fill="#231f20"/>
<use data-text="," xlink:href="#font_3_3" transform="matrix(9.96264,0,0,-9.96264,140.32704,13.573853)" fill="#231f20"/>
<use data-text="t" xlink:href="#font_3_2" transform="matrix(9.96264,0,0,-9.96264,144.76656,13.573853)" fill="#231f20"/>
<use data-text="&#x2032;" xlink:href="#font_5_1" transform="matrix(6.97385,0,0,-6.97385,148.36724,9.973877)" fill="#231f20"/>
<use data-text=")" xlink:href="#font_2_4" transform="matrix(9.96264,0,0,-9.96264,151.24732,13.573853)" fill="#231f20"/>
</g>
</svg>
