<svg xmlns="http://www.w3.org/2000/svg" xmlns:xlink="http://www.w3.org/1999/xlink" xmlns:inkscape="http://www.inkscape.org/namespaces/inkscape" version="1.1" width="271.68656" height="183.55139" viewBox="0 0 271.68656 183.55139">
<defs>
<clipPath id="clip_1">
<path transform="matrix(1,0,0,-1,-28.854886,1100.1939)" d="M28.854886 916.64248H300.54145V1100.1939H28.854886Z" clip-rule="evenodd"/>
</clipPath>
<path id="font_2_21" d="M.45999146 .31976319C.45999146 .39982606 .45498658 .47988893 .41999818 .5539398 .37399293 .65000918 .2919922 .6660156 .25 .6660156 .18998719 .6660156 .116989139 .64001467 .07598877 .54693606 .04399109 .47789 .038986207 .39982606 .038986207 .31976319 .038986207 .24472046 .042999269 .15464783 .083999637 .07859802 .1269989-.0024719239 .19999695-.022460938 .24899292-.022460938 .30299378-.022460938 .3789978-.0014648438 .4229889 .09359741 .45498658 .16265869 .45999146 .2407074 .45999146 .31976319M.24899292-.00047302247C.20999146-.00047302247 .15098572 .024551392 .1329956 .12062073 .12199402 .18066406 .12199402 .2727356 .12199402 .3317871 .12199402 .39582826 .12199402 .46188355 .12998963 .5159149 .14898682 .63500979 .22399903 .64401248 .24899292 .64401248 .28199769 .64401248 .34799195 .6259918 .36698915 .52693179 .3769989 .47088624 .3769989 .39482118 .3769989 .3317871 .3769989 .25672914 .3769989 .18867493 .3659973 .12461853 .35099793 .029556275 .2939911-.00047302247 .24899292-.00047302247Z"/>
<path id="font_2_20" d="M.19198609 .052993776C.19198609 .08198547 .16799927 .10598755 .13899231 .10598755 .10998535 .10598755 .085998538 .08198547 .085998538 .052993776 .085998538 .023986817 .10998535 0 .13899231 0 .16799927 0 .19198609 .023986817 .19198609 .052993776Z"/>
<path id="font_2_24" d="M.2899933 .35191346C.37199403 .37893678 .42999269 .4490509 .42999269 .52809146 .42999269 .6100464 .34199525 .6660156 .24598694 .6660156 .14498902 .6660156 .068984989 .60606387 .068984989 .53009036 .068984989 .49710084 .09098816 .47808839 .11999512 .47808839 .15098572 .47808839 .17098999 .50009158 .17098999 .5290985 .17098999 .57910159 .12399292 .57910159 .10899353 .57910159 .13999939 .62802127 .20599365 .64100649 .24198914 .64100649 .2829895 .64100649 .33799745 .6190338 .33799745 .5290985 .33799745 .51708987 .33599855 .45906068 .30999757 .4149933 .27999879 .36691285 .24598694 .36390687 .22099304 .36291505 .21299744 .36190797 .18899536 .35990907 .18199158 .35990907 .17399597 .35890199 .16699219 .35791017 .16699219 .3479004 .16699219 .33691407 .17399597 .33691407 .19099427 .33691407H.23498535C.31698609 .33691407 .35398866 .2686615 .35398866 .17037964 .35398866 .034469606 .2849884 .0055389406 .24099732 .0055389406 .19799805 .0055389406 .12298584 .022491456 .08799744 .08137512 .12298584 .07637024 .1539917 .09837341 .1539917 .1363678 .1539917 .17237854 .1269989 .19238281 .09799194 .19238281 .07398987 .19238281 .041992189 .17837525 .041992189 .1343689 .041992189 .043441774 .1349945-.022460938 .24398804-.022460938 .3659973-.022460938 .45700074 .06838989 .45700074 .17037964 .45700074 .252594 .3939972 .33088685 .2899933 .35191346Z"/>
<path id="font_2_26" d="M.44898988 .20022583C.44898988 .3193512 .36698915 .41944886 .25898744 .41944886 .21099854 .41944886 .16799927 .40345765 .13198853 .36842347V.5637665C.1519928 .5577698 .18499756 .55078127 .21699524 .55078127 .33999635 .55078127 .4099884 .6417694 .4099884 .6547699 .4099884 .6607666 .40699769 .6657715 .3999939 .6657715 .39898683 .6657715 .39698792 .6657715 .3919983 .66278079 .37199403 .6537781 .32299806 .6337738 .2559967 .6337738 .21598816 .6337738 .16999817 .6407776 .12298584 .6617737 .114990238 .66477969 .11299133 .66477969 .11099243 .66477969 .100997928 .66477969 .100997928 .6567688 .100997928 .6407776V.34439088C.100997928 .32637025 .100997928 .31835938 .114990238 .31835938 .12199402 .31835938 .12399292 .32136537 .12799073 .32736207 .13899231 .3433838 .17599488 .39746095 .25698854 .39746095 .30899049 .39746095 .33399964 .35139466 .34199525 .33337403 .35798646 .29632569 .3600006 .25727845 .3600006 .20722962 .3600006 .17222595 .3600006 .11222839 .33599855 .07035828 .31199647 .031463624 .2749939 .0055389406 .22898865 .0055389406 .1559906 .0055389406 .09899902 .058380128 .08198547 .11723328 .084991458 .1162262 .08799744 .115234378 .09899902 .115234378 .13198853 .115234378 .14898682 .14022827 .14898682 .16423035 .14898682 .18823242 .13198853 .21322632 .09899902 .21322632 .084991458 .21322632 .049987794 .20622254 .049987794 .16023255 .049987794 .07434082 .11898804-.022460938 .23098755-.022460938 .34700013-.022460938 .44898988 .073349 .44898988 .20022583Z"/>
<path id="font_2_25" d="M.2939911 .16503906V.07800293C.2939911 .041992189 .2919922 .0309906 .21798706 .0309906H.19699097V0C.23799134 .0029907227 .2899933 .0029907227 .33198548 .0029907227 .37399293 .0029907227 .4269867 .0029907227 .46798707 0V.0309906H.44699098C.37298585 .0309906 .37098695 .041992189 .37098695 .07800293V.16503906H.47099305V.19602967H.37098695V.65075686C.37098695 .67074587 .37098695 .6767578 .35499574 .6767578 .34599305 .6767578 .34298707 .6767578 .33499146 .66474917L.027999878 .19602967V.16503906H.2939911M.2999878 .19602967H.055999757L.2999878 .5688019V.19602967Z"/>
<path id="font_2_22" d="M.2939911 .64004519C.2939911 .66400149 .2939911 .6660156 .2709961 .6660156 .20899964 .60227969 .12098694 .60227969 .08898926 .60227969V.57128909C.10899353 .57128909 .16799927 .57128909 .21998596 .5972748V.07902527C.21998596 .042999269 .21699524 .0309906 .1269989 .0309906H.09498596V0C.12998963 .0029907227 .21699524 .0029907227 .25698854 .0029907227 .29699708 .0029907227 .38398744 .0029907227 .4189911 0V.0309906H.3869934C.29699708 .0309906 .2939911 .041992189 .2939911 .07902527V.64004519Z"/>
<path id="font_2_23" d="M.1269989 .07699585 .23298645 .18003845C.3889923 .31811524 .44898988 .3721466 .44898988 .47216798 .44898988 .5860901 .35899354 .6660156 .23699951 .6660156 .12399292 .6660156 .049987794 .57411196 .049987794 .48516847 .049987794 .4291687 .099990848 .4291687 .102996829 .4291687 .11999512 .4291687 .15499878 .44117738 .15499878 .48217774 .15499878 .5081787 .13699341 .5341797 .101989749 .5341797 .09399414 .5341797 .09199524 .5341797 .08898926 .5331726 .11199951 .59806826 .1659851 .63500979 .22399903 .63500979 .31498719 .63500979 .35798646 .5541382 .35798646 .47216798 .35798646 .39215089 .30799867 .31311036 .25299073 .25108338L.06098938 .036987306C.049987794 .025985718 .049987794 .023986817 .049987794 0H.42099L.44898988 .17404175H.42399598C.4189911 .14402771 .4119873 .1000061 .4019928 .084991458 .394989 .07699585 .32899476 .07699585 .30699159 .07699585H.1269989Z"/>
<path id="font_3_3" d="M.58299258 .4033661C.59399417 .41436769 .59399417 .41636659 .59399417 .41937257 .59399417 .42536927 .58999636 .43138124 .58200076 .43138124 .57598879 .43138124 .57199099 .42637635 .56599429 .41937257L.33699037 .16418457C.29699708 .29127503 .2889862 .31629945 .2659912 .369339 .25498963 .39234925 .23298645 .4423828 .14498902 .4423828 .08699036 .4423828 .06098938 .39035035 .06098938 .37634278 .06098938 .3753357 .06098938 .366333 .07299805 .366333 .08198547 .366333 .083999637 .3723297 .085998538 .3773346 .100997928 .41636659 .1329956 .42037965 .13899231 .42037965 .16899109 .42037965 .19898987 .34431459 .21598816 .3002777 .24798584 .22122193 .27999879 .10513306 .27999879 .102127078 .27999879 .101135257 .27999879 .09913635 .27198792 .09112549L.041992189-.16607666C.0309906-.17707825 .0309906-.17907715 .0309906-.18208313 .0309906-.18807984 .036987306-.1940918 .042999269-.1940918 .049987794-.1940918 .054992677-.18708802 .05899048-.18309021L.28799439 .07411194C.31999208-.029968262 .33198548-.069000247 .35598756-.12504578 .36898805-.15505982 .3909912-.20507813 .47999574-.20507813 .5379944-.20507813 .5649872-.15306092 .5649872-.14006043 .5649872-.13505554 .5629883-.12904358 .5529938-.12904358 .54299929-.12904358 .5419922-.13304138 .5389862-.14305115 .5299988-.16706848 .5049896-.18309021 .48599244-.18309021 .43499757-.18309021 .36698915 .05909729 .34498597 .13615418L.58299258 .4033661Z"/>
<path id="font_4_1" d="M.7569885 .16801453H.72299197C.7220001 .16500855 .71299746 .117996219 .7049866 .09500122 .69898989 .07899475 .69599917 .070999149 .6339874 .070999149H.548996C.56599429 .1269989 .59498599 .16601563 .651001 .24102783 .69999697 .30703736 .74398806 .37306214 .74398806 .45407105 .74398806 .58909609 .598999 .703125 .40699769 .703125 .21499634 .703125 .069992069 .58909609 .069992069 .45407105 .069992069 .36605836 .117996219 .30104066 .18798828 .20701599 .21699524 .16900635 .24899292 .12400818 .2649994 .070999149H.17999268C.11999512 .070999149 .115997318 .07899475 .11099243 .08999634 .102996829 .10899353 .09098816 .16601563 .09098816 .16801453H.056991579L.09298706 0H.272995C.2939911 0 .30099488 0 .30099488 .021987915 .30099488 .09399414 .2639923 .17901612 .24299622 .22802735 .20498657 .31604005 .1769867 .38105775 .1769867 .45507813 .1769867 .59710696 .2899933 .67510989 .40699769 .67510989 .5249939 .67510989 .6369934 .59609988 .6369934 .45507813 .6369934 .38005067 .6069946 .31105042 .57299807 .23303223 .5509949 .18301392 .5130005 .09500122 .5130005 .022994996 .5130005 0 .5189972 0 .5419922 0H.72099307L.7569885 .16801453Z"/>
<path id="font_2_17" d="M.68699648 .32714845C.70199587 .32714845 .72099307 .32714845 .72099307 .34713746 .72099307 .36714173 .70199587 .36714173 .6879883 .36714173H.08898926C.07499695 .36714173 .055999757 .36714173 .055999757 .34713746 .055999757 .32714845 .07499695 .32714845 .08999634 .32714845H.68699648M.6879883 .13284302C.70199587 .13284302 .72099307 .13284302 .72099307 .15284729 .72099307 .17285156 .70199587 .17285156 .68699648 .17285156H.08999634C.07499695 .17285156 .055999757 .17285156 .055999757 .15284729 .055999757 .13284302 .07499695 .13284302 .08898926 .13284302H.6879883Z"/>
<path id="font_3_1" d="M.1789856 .114868167C.13899231 .047973634 .099990848 .033981325 .055999757 .0309906 .04399109 .02999878 .034988405 .02999878 .034988405 .010986328 .034988405 .004989624 .039993287 0 .04798889 0 .07499695 0 .10598755 .0029907227 .13398743 .0029907227 .16699219 .0029907227 .20199585 0 .23399353 0 .23999024 0 .25299073 0 .25299073 .018997193 .25299073 .02999878 .24398804 .0309906 .23699951 .0309906 .21398926 .032989503 .18998719 .04096985 .18998719 .06593323 .18998719 .077926639 .19599915 .088897708 .20399475 .102890018L.27999879 .23068238H.5309906C.5329895 .2097168 .5469971 .07392883 .5469971 .063949588 .5469971 .033981325 .49499513 .0309906 .47499085 .0309906 .46099855 .0309906 .45098878 .0309906 .45098878 .010986328 .45098878 0 .46299745 0 .46499635 0 .5059967 0 .548996 .0029907227 .58999636 .0029907227 .61499026 .0029907227 .6779938 0 .7029877 0 .70899966 0 .72099307 0 .72099307 .019989014 .72099307 .0309906 .71099856 .0309906 .69799807 .0309906 .6359863 .0309906 .6359863 .037979127 .6329956 .06694031L.57199099 .691803C.56999209 .71180728 .56999209 .7158203 .5529938 .7158203 .5369873 .7158203 .5329895 .7088165 .5269928 .69880679L.1789856 .114868167M.29899598 .26168824 .49598695 .5917816 .5279999 .26168824H.29899598Z"/>
<path id="font_4_2" d="M.33499146 .63612368C.33499146 .6630554 .33299256 .6640625 .30499269 .6640625 .24099732 .6014404 .1499939 .6004486 .10899353 .6004486V.5644531C.1329956 .5644531 .19898987 .5644531 .2539978 .592453V.08203125C.2539978 .04899597 .2539978 .035995485 .1539917 .035995485H.115997318V0C.13398743 .0009918213 .25698854 .0039978029 .2939911 .0039978029 .32499696 .0039978029 .45098878 .0009918213 .47299195 0V.035995485H.43499757C.33499146 .035995485 .33499146 .04899597 .33499146 .08203125V.63612368Z"/>
<path id="font_4_3" d="M.272995 .33428956C.35099793 .33428956 .40699769 .2803192 .40699769 .1733551 .40699769 .04940796 .33499146 .012466431 .2769928 .012466431 .23699951 .012466431 .14898682 .0234375 .10699463 .082351688 .1539917 .084350589 .16499329 .11735535 .16499329 .13835144 .16499329 .17034912 .14099121 .19335938 .10998535 .19335938 .08198547 .19335938 .053985597 .17634583 .053985597 .13534546 .053985597 .041412355 .1579895-.01953125 .2789917-.01953125 .41799928-.01953125 .5139923 .07336426 .5139923 .1733551 .5139923 .2513275 .44999696 .32929994 .33999635 .35229493 .44499208 .39024354 .48298646 .4650879 .48298646 .5260773 .48298646 .60505679 .3919983 .6640625 .2809906 .6640625 .16999817 .6640625 .084991458 .61006167 .084991458 .5300751 .084991458 .49606324 .10699463 .47706605 .13699341 .47706605 .16799927 .47706605 .18798828 .5000763 .18798828 .5280762 .18798828 .5570679 .16799927 .57806399 .13699341 .5800781 .17199707 .62405398 .24099732 .63505557 .27799989 .63505557 .32299806 .63505557 .38598634 .6130676 .38598634 .5260773 .38598634 .48406983 .37199403 .43814088 .34599305 .4072113 .31298829 .36927796 .2849884 .3672943 .23498535 .36428834 .20999146 .3623047 .20799256 .3623047 .20298767 .3612976 .20098877 .3612976 .19299317 .3592987 .19299317 .34829713 .19299317 .33428956 .20199585 .33428956 .21899414 .33428956H.272995Z"/>
<path id="font_3_2" d="M.20599365 .3996582H.2999878C.31999208 .3996582 .32998658 .3996582 .32998658 .41966249 .32998658 .43066407 .31999208 .43066407 .3019867 .43066407H.21398926C.25 .5724945 .25498963 .59246829 .25498963 .59846499 .25498963 .61546328 .24299622 .62545779 .22599793 .62545779 .22299195 .62545779 .19499207 .62446597 .18598938 .58947756L.14698792 .43066407H.052993776C.032989503 .43066407 .022994996 .43066407 .022994996 .4116516 .022994996 .3996582 .0309906 .3996582 .050994874 .3996582H.13899231C.066986087 .11608887 .06298828 .099121097 .06298828 .08114624 .06298828 .02722168 .100997928-.0107421879 .15499878-.0107421879 .25698854-.0107421879 .31399537 .13505554 .31399537 .14305115 .31399537 .1530304 .30599977 .1530304 .3019867 .1530304 .29299928 .1530304 .2919922 .15003968 .2869873 .13905335 .24398804 .035217287 .19099427 .011245728 .15699768 .011245728 .13598633 .011245728 .12599182 .024230957 .12599182 .057174684 .12599182 .08114624 .12799073 .088134769 .13198853 .10510254L.20599365 .3996582Z"/>
<path id="font_2_18" d="M.33099366-.2400055C.33099366-.23701477 .33099366-.23500061 .31399537-.21800232 .18899536-.0920105 .15699768 .09700012 .15699768 .25 .15699768 .42399598 .19499207 .59799197 .31799317 .72299197 .33099366 .73498538 .33099366 .7369995 .33099366 .73999026 .33099366 .746994 .32699586 .75 .32099916 .75 .31098939 .75 .22099304 .6819916 .1619873 .5549927 .11099243 .44499208 .09899902 .33399964 .09899902 .25 .09899902 .17199707 .10998535 .050994874 .16499329-.06201172 .22499085-.18501282 .31098939-.25 .32099916-.25 .32699586-.25 .33099366-.24700928 .33099366-.2400055Z"/>
<path id="font_3_4" d="M.20298767 .0009918213C.20298767 .066986087 .17799378 .10598755 .13899231 .10598755 .10598755 .10598755 .085998538 .08099365 .085998538 .052993776 .085998538 .025985718 .10598755 0 .13899231 0 .15098572 0 .1639862 .0039978029 .17399597 .0129852299 .1769867 .01499939 .17799378 .015991211 .1789856 .015991211 .17999268 .015991211 .18099976 .01499939 .18099976 .0009918213 .18099976-.07316589 .1459961-.13328552 .11299133-.16635132 .101989749-.17736817 .101989749-.17936707 .101989749-.18237305 .101989749-.18936157 .10699463-.19335938 .11199951-.19335938 .12298584-.19335938 .20298767-.116256717 .20298767 .0009918213Z"/>
<path id="font_5_1" d="M.2899933 .4720459C.2979889 .4890442 .29899598 .49705506 .29899598 .5040436 .29899598 .53504946 .2709961 .5590515 .23999024 .5590515 .20199585 .5590515 .18998719 .52804568 .18499756 .51205447L.052993776 .07901001C.051986696 .07701111 .04798889 .06401062 .04798889 .06300354 .04798889 .05101013 .07899475 .041015626 .08699036 .041015626 .09399414 .041015626 .09498596 .043014528 .101989749 .058013917L.2899933 .4720459Z"/>
<path id="font_2_19" d="M.2889862 .25C.2889862 .32798768 .27799989 .44898988 .22299195 .56199648 .16299439 .68499758 .07699585 .75 .066986087 .75 .06098938 .75 .056991579 .74598696 .056991579 .73999026 .056991579 .7369995 .056991579 .73498538 .07598877 .71699526 .17399597 .6179962 .23098755 .45899964 .23098755 .25 .23098755 .07899475 .19400025-.09700012 .069992069-.2230072 .056991579-.23500061 .056991579-.23701477 .056991579-.2400055 .056991579-.2460022 .06098938-.25 .066986087-.25 .07699585-.25 .16699219-.18200684 .22599793-.055007936 .2769928 .054992677 .2889862 .16600037 .2889862 .25Z"/>
<path id="font_2_10" d="M.3899994 .40066529C.39898683 .4116516 .39898683 .4136505 .39898683 .41766358 .39898683 .43066407 .3909912 .43066407 .37298585 .43066407H.052993776L.041992189 .2697754H.066986087C.07299805 .37168885 .09199524 .4086609 .20199585 .4086609H.31599427L.036987306 .031982423C.027999878 .020996094 .027999878 .018997193 .027999878 .01399231 .027999878 0 .034988405 0 .053985597 0H.38398744L.40098573 .18684387H.37599183C.36698915 .06895447 .34599305 .024993897 .22999573 .024993897H.11199951L.3899994 .40066529Z"/>
<path id="font_2_1" d="M.47099305 .21424866C.47099305 .34223939 .37098695 .4482422 .25 .4482422 .125 .4482422 .027999878 .3392334 .027999878 .21424866 .027999878 .085250858 .13198853-.0107421879 .24899292-.0107421879 .36999513-.0107421879 .47099305 .087249759 .47099305 .21424866M.25 .014251709C.20698548 .014251709 .16299439 .035247804 .13598633 .08125305 .11099243 .12524414 .11099243 .18624878 .11099243 .22224427 .11099243 .26124574 .11099243 .31523133 .1349945 .35923768 .1619873 .40522767 .20899964 .426239 .24899292 .426239 .29299928 .426239 .33599855 .40423585 .3619995 .36123658 .3880005 .3182373 .3880005 .26023866 .3880005 .22224427 .3880005 .18624878 .3880005 .13224793 .3659973 .08824158 .34399415 .04324341 .2999878 .014251709 .25 .014251709Z"/>
<path id="font_2_16" d="M.10998535 .34429933V.076034549C.10998535 .0309906 .09899902 .0309906 .03199768 .0309906V0C.066986087 .0009918213 .117996219 .0029907227 .14498902 .0029907227 .17098999 .0029907227 .22299195 .0009918213 .25698854 0V.0309906C.18998719 .0309906 .1789856 .0309906 .1789856 .076034549V.2602234C.1789856 .36431886 .25 .42037965 .31399537 .42037965 .3769989 .42037965 .3880005 .36631776 .3880005 .30926515V.076034549C.3880005 .0309906 .3769989 .0309906 .30999757 .0309906V0C.34498597 .0009918213 .3959961 .0029907227 .4229889 .0029907227 .44898988 .0029907227 .5009918 .0009918213 .5349884 0V.0309906C.46798707 .0309906 .45700074 .0309906 .45700074 .076034549V.2602234C.45700074 .36431886 .5279999 .42037965 .59199526 .42037965 .6549988 .42037965 .66600039 .36631776 .66600039 .30926515V.076034549C.66600039 .0309906 .6549988 .0309906 .58799746 .0309906V0C.6230011 .0009918213 .673996 .0029907227 .70098879 .0029907227 .72698977 .0029907227 .7789917 .0009918213 .8129883 0V.0309906C.7609863 .0309906 .73599246 .0309906 .7350006 .061019899V.25221253C.7350006 .3383026 .7350006 .36932374 .70399478 .405365 .6899872 .42237855 .6569977 .4423828 .598999 .4423828 .5149994 .4423828 .47099305 .38233949 .45399476 .34429933 .43998719 .43138124 .3659973 .4423828 .32099916 .4423828 .24798584 .4423828 .20098877 .39935304 .17298889 .33729554V.4423828L.03199768 .43138124V.40037538C.101989749 .4003601 .10998535 .39335633 .10998535 .34429933Z"/>
<path id="font_2_2" d="M.13598633 .07797241C.13598633 .041992189 .13398743 .0309906 .056991579 .0309906H.032989503V0H.6100006L.6519928 .2579193H.6269989C.60198977 .10397339 .57899478 .0309906 .40699769 .0309906H.27398683C.22698975 .0309906 .22499085 .037994386 .22499085 .07098389V.33789063H.31498719C.4119873 .33789063 .4229889 .30589295 .4229889 .220932H.44799806V.48576356H.4229889C.4229889 .39985658 .4119873 .36888124 .31498719 .36888124H.22499085V.6086426C.22499085 .6416168 .22698975 .64860537 .27398683 .64860537H.40299989C.55599978 .64860537 .58299258 .59365847 .598999 .45480348H.6239929L.59599307 .6796112H.032989503V.64860537H.056991579C.13398743 .64860537 .13598633 .637619 .13598633 .60165408V.07797241Z"/>
<path id="font_2_4" d="M.20799256 .19424439C.22999573 .19024658 .31199647 .17424011 .31199647 .102249149 .31199647 .051254274 .2769928 .011245728 .19898987 .011245728 .114990238 .011245728 .07899475 .06825256 .05999756 .15324402 .056991579 .1662445 .055999757 .17024231 .04598999 .17024231 .032989503 .17024231 .032989503 .16323853 .032989503 .14524842V.013244629C.032989503-.003753662 .032989503-.0107421879 .04399109-.0107421879 .04899597-.0107421879 .049987794-.009750366 .068984989 .009246826 .070999149 .011245728 .070999149 .013244629 .08898926 .03224182 .1329956-.009750366 .17799378-.0107421879 .19898987-.0107421879 .31399537-.0107421879 .3600006 .056243898 .3600006 .12825012 .3600006 .1812439 .32998658 .21124268 .31799317 .22323609 .2849884 .25523377 .24598694 .26324464 .20399475 .27124024 .147995 .28224183 .08099365 .2952423 .08099365 .35324098 .08099365 .38822938 .10699463 .42922975 .19299317 .42922975 .30299378 .42922975 .30799867 .3392334 .30999757 .3082428 .31098939 .2992401 .31999208 .2992401 .32199098 .2992401 .33499146 .2992401 .33499146 .304245 .33499146 .3232422V.4242401C.33499146 .4412384 .33499146 .4482422 .32398988 .4482422 .31900025 .4482422 .31698609 .4482422 .3039856 .43623353 .30099488 .43223573 .29100038 .42323304 .2869873 .42022706 .24899292 .4482422 .20799256 .4482422 .19299317 .4482422 .070999149 .4482422 .032989503 .38124085 .032989503 .3252411 .032989503 .29023744 .04899597 .26223756 .07598877 .24023438 .10798645 .21424866 .13598633 .2082367 .20799256 .19424439Z"/>
<path id="font_2_13" d="M.10998535 .076034549C.10998535 .0309906 .09899902 .0309906 .03199768 .0309906V0C.066986087 .0009918213 .117996219 .0029907227 .14498902 .0029907227 .17098999 .0029907227 .22299195 .0009918213 .25698854 0V.0309906C.18998719 .0309906 .1789856 .0309906 .1789856 .076034549V.2602234C.1789856 .36431886 .25 .42037965 .31399537 .42037965 .3769989 .42037965 .3880005 .36631776 .3880005 .30926515V.076034549C.3880005 .0309906 .3769989 .0309906 .30999757 .0309906V0C.34498597 .0009918213 .3959961 .0029907227 .4229889 .0029907227 .44898988 .0029907227 .5009918 .0009918213 .5349884 0V.0309906C.48298646 .0309906 .45799256 .0309906 .45700074 .061019899V.25221253C.45700074 .3383026 .45700074 .36932374 .42599488 .405365 .4119873 .42237855 .3789978 .4423828 .32099916 .4423828 .23699951 .4423828 .19299317 .38233949 .17599488 .34429933V.69433596L.03199768 .68333438V.6523285C.101989749 .6523285 .10998535 .6453247 .10998535 .596344V.076034549Z"/>
<path id="font_2_12" d="M.11199951 .2524414C.117996219 .40126039 .20199585 .426239 .23599243 .426239 .33898927 .426239 .34899903 .2913971 .34899903 .2524414H.11199951M.11099243 .23144531H.3899994C.4119873 .23144531 .4149933 .23144531 .4149933 .2524414 .4149933 .35131837 .36099244 .4482422 .23599243 .4482422 .11999512 .4482422 .027999878 .34532167 .027999878 .22042847 .027999878 .08631897 .1329956-.0107421879 .24798584-.0107421879 .36999513-.0107421879 .4149933 .10032654 .4149933 .11933899 .4149933 .12934876 .40699769 .13134766 .4019928 .13134766 .3929901 .13134766 .3909912 .12535095 .3889923 .11734009 .35398866 .014251709 .2639923 .014251709 .2539978 .014251709 .20399475 .014251709 .1639862 .044281007 .14099121 .08131409 .11099243 .12934876 .11099243 .19540406 .11099243 .23144531Z"/>
<path id="font_2_15" d="M.1769867 .69433596 .032989503 .68333438V.6523285C.102996829 .6523285 .11099243 .6453247 .11099243 .5962982V.07601929C.11099243 .0309906 .099990848 .0309906 .032989503 .0309906V0C.06599426 .0009918213 .11898804 .0029907227 .14399719 .0029907227 .16899109 .0029907227 .21798706 .0009918213 .25498963 0V.0309906C.18798828 .0309906 .1769867 .0309906 .1769867 .07601929V.69433596Z"/>
<path id="font_2_7" d="M.17199707 .3773346V.69433596L.027999878 .68333438V.6523285C.09799194 .6523285 .10598755 .6453247 .10598755 .596344V0H.1309967C.13198853 .0009918213 .13999939 .01499939 .16699219 .062026979 .18199158 .039260866 .22399903-.0107421879 .2979889-.0107421879 .4169922-.0107421879 .5209961 .08728027 .5209961 .2163086 .5209961 .34335328 .4229889 .4423828 .30899049 .4423828 .23098755 .4423828 .18798828 .39535523 .17199707 .3773346M.1749878 .11407471V.32028199C.1749878 .33929444 .1749878 .3403015 .18598938 .35630799 .22499085 .41236878 .27999879 .42037965 .3039856 .42037965 .34899903 .42037965 .3849945 .39434815 .40899659 .35630799 .43499757 .3152771 .43798829 .2582245 .43798829 .21717835 .43798829 .18014527 .43598939 .12008667 .40699769 .075042728 .38598634 .044021608 .34799195 .010986328 .2939911 .010986328 .24899292 .010986328 .21299744 .035003663 .18899536 .07203674 .1749878 .093063358 .1749878 .096069339 .1749878 .11407471Z"/>
<path id="font_2_8" d="M.4149933 .33569337C.44099427 .39866639 .49198915 .3996582 .5079956 .3996582V.43066407C.4850006 .4286499 .45599366 .42765809 .43299867 .42765809 .4149933 .42765809 .36799623 .42965699 .34599305 .43066407V.3996582C.3769989 .39866639 .3929901 .3816681 .3929901 .35668946 .3929901 .34669496 .3919983 .34469605 .3869934 .33270265L.28599549 .08683777 .1749878 .35568238C.17098999 .36567689 .16899109 .36967469 .16899109 .3736725 .16899109 .3996582 .20599365 .3996582 .22499085 .3996582V.43066407C.19898987 .42965699 .1329956 .42765809 .115997318 .42765809 .08898926 .42765809 .04899597 .4286499 .018997193 .43066407V.3996582C.066986087 .3996582 .085998538 .3996582 .099990848 .36468507L.25-.00010681152C.24499512-.0131073 .23098755-.046081544 .22499085-.05908203 .20298767-.11405945 .1749878-.18309021 .11099243-.18309021 .10598755-.18309021 .08299255-.18309021 .06399536-.16506958 .09498596-.16105652 .102996829-.1390686 .102996829-.123062137 .102996829-.09706116 .083999637-.08105469 .06098938-.08105469 .040985109-.08105469 .018997193-.094055179 .018997193-.124069217 .018997193-.16906739 .06098938-.20507813 .11099243-.20507813 .17399597-.20507813 .21499634-.14805603 .23899842-.09106445L.4149933 .33569337Z"/>
<path id="font_2_11" d="M.37998963 .055252077V-.0107421879L.5269928 .00024414063V.03125C.45700074 .03125 .44898988 .038253786 .44898988 .087265018V.69433596L.30499269 .68333438V.6523285C.375 .6523285 .3829956 .6453247 .3829956 .596344V.38035584C.35398866 .41636659 .31098939 .4423828 .25698854 .4423828 .13899231 .4423828 .033996583 .3443451 .033996583 .21531677 .033996583 .088272098 .13198853-.0107421879 .24598694-.0107421879 .30999757-.0107421879 .35499574 .023254395 .37998963 .055252077M.37998963 .323349V.118270877C.37998963 .1002655 .37998963 .0982666 .36898805 .08126831 .33898927 .0332489 .2939911 .011245728 .25099183 .011245728 .20599365 .011245728 .16999817 .037246705 .1459961 .07527161 .11999512 .11627197 .116989139 .17329407 .116989139 .21430969 .116989139 .25131227 .11898804 .31134034 .147995 .35635377 .16899109 .38735963 .20698548 .42037965 .26098634 .42037965 .29599 .42037965 .33799745 .405365 .36898805 .36035157 .37998963 .34335328 .37998963 .34135438 .37998963 .323349Z"/>
<path id="font_2_14" d="M.1769867 .4423828 .036987306 .43138124V.40037538C.101989749 .40037538 .11099243 .3943634 .11099243 .34532167V.076034549C.11099243 .0309906 .099990848 .0309906 .032989503 .0309906V0C.06498718 .0009918213 .11898804 .0029907227 .14299011 .0029907227 .17799378 .0029907227 .21299744 .0009918213 .24699402 0V.0309906C.18099976 .0309906 .1769867 .035995485 .1769867 .075042728V.4423828M.18099976 .6159363C.18099976 .64793398 .1559906 .6689453 .12799073 .6689453 .09700012 .6689453 .07499695 .64193728 .07499695 .6159363 .07499695 .5889435 .09700012 .5629425 .12799073 .5629425 .1559906 .5629425 .18099976 .5839386 .18099976 .6159363Z"/>
<path id="font_2_5" d="M.3909912 .07926941V-.0107421879L.5349884 .00024414063V.03125C.46499635 .03125 .45700074 .038253786 .45700074 .087265018V.4423828L.30999757 .43138124V.40037538C.37998963 .40037538 .3880005 .39337159 .3880005 .34436036V.16630554C.3880005 .07926941 .33999635 .011245728 .2669983 .011245728 .18299866 .011245728 .1789856 .058258058 .1789856 .11027527V.4423828L.03199768 .43138124V.40037538C.10998535 .40037538 .10998535 .39736939 .10998535 .3083496V.15829468C.10998535 .08027649 .10998535-.0107421879 .2619934-.0107421879 .31799317-.0107421879 .3619995 .01725769 .3909912 .07926941Z"/>
<path id="font_2_9" d="M.116989139 .21801758C.116989139 .38093568 .19898987 .42323304 .2519989 .42323304 .26098634 .42323304 .32398988 .42222596 .35899354 .38594056 .31799317 .38293458 .31199647 .3529358 .31199647 .3399353 .31199647 .31393434 .32998658 .2939453 .35798646 .2939453 .38398744 .2939453 .4039917 .3109436 .4039917 .34094239 .4039917 .40911866 .32798768 .4482422 .25099183 .4482422 .12599182 .4482422 .033996583 .3399353 .033996583 .21601868 .033996583 .08816528 .1329956-.0107421879 .24899292-.0107421879 .3829956-.0107421879 .4149933 .10914612 .4149933 .119140628 .4149933 .12911988 .40499879 .12911988 .4019928 .12911988 .3929901 .12911988 .3909912 .12512207 .3889923 .119140628 .3600006 .026229859 .29499818 .014251709 .2579956 .014251709 .20498657 .014251709 .116989139 .0572052 .116989139 .21801758Z"/>
<path id="font_2_6" d="M.33299256 .076156619C.33699037 .036132814 .3639984-.005859375 .41099549-.005859375 .43199159-.005859375 .49299623 .008132935 .49299623 .089157108V.14518738H.46798707V.089157108C.46798707 .031143189 .44299317 .025131226 .43199159 .025131226 .39898683 .025131226 .394989 .07015991 .394989 .075149539V.27514649C.394989 .31707765 .394989 .3560791 .35899354 .39312745 .31999208 .43223573 .269989 .4482422 .22200012 .4482422 .13999939 .4482422 .070999149 .40115357 .070999149 .335083 .070999149 .30508424 .09098816 .28808595 .116989139 .28808595 .14498902 .28808595 .16299439 .30807496 .16299439 .33407594 .16299439 .3460846 .1579895 .3790741 .11199951 .38008119 .13899231 .41519166 .18798828 .426239 .21998596 .426239 .2689972 .426239 .32598878 .38710023 .32598878 .29808045V.26123048C.2749939 .2582245 .20498657 .25523377 .14199829 .22523499 .066986087 .1912384 .041992189 .13923645 .041992189 .09524536 .041992189 .014251709 .13899231-.0107421879 .20199585-.0107421879 .2679901-.010864258 .31399537 .029129029 .33299256 .076156619M.32598878 .24023438V.1401825C.32598878 .045135499 .2539978 .011138916 .20899964 .011138916 .1599884 .011138916 .11898804 .046142579 .11898804 .09616089 .11898804 .15118408 .16099549 .23422241 .32598878 .24023438Z"/>
<path id="font_2_3" d="M.16699219 .3323059V.4423828L.027999878 .43138124V.40037538C.09799194 .40037538 .10598755 .39337159 .10598755 .34431459V.076034549C.10598755 .0309906 .09498596 .0309906 .027999878 .0309906V0C.066986087 .0009918213 .11399841 .0029907227 .14199829 .0029907227 .18199158 .0029907227 .22898865 .0029907227 .2689972 0V.0309906H.24798584C.17399597 .0309906 .17199707 .042007448 .17199707 .07803345V.232193C.17199707 .33128358 .21398926 .42037965 .2899933 .42037965 .29699708 .42037965 .29899598 .42037965 .30099488 .41937257 .2979889 .41838075 .27799989 .4063568 .27799989 .38034059 .27799989 .35231019 .29899598 .33729554 .32099916 .33729554 .33898927 .33729554 .3639984 .3493042 .3639984 .3813324 .3639984 .41337586 .33299256 .4423828 .2899933 .4423828 .21699524 .4423828 .18099976 .37535096 .16699219 .3323059Z"/>
</defs>
<g clip-path="url(#clip_1)">
<use data-text="0" xlink:href="#font_2_21" transform="matrix(9.96264,0,0,-9.96264,30.665017,150.85382)" fill="#231f20"/>
<use data-text="." xlink:href="#font_2_20" transform="matrix(9.96264,0,0,-9.96264,35.70502,150.85382)" fill="#231f20"/>
<use data-text="0" xlink:href="#font_2_21" transform="matrix(9.96264,0,0,-9.96264,38.464673,150.85382)" fill="#231f20"/>
<use data-text="3" xlink:href="#font_2_24" transform="matrix(9.96264,0,0,-9.96264,43.504674,150.85382)" fill="#231f20"/>
<use data-text="0" xlink:href="#font_2_21" transform="matrix(9.96264,0,0,-9.96264,48.54468,150.85382)" fill="#231f20"/>
<use data-text="0" xlink:href="#font_2_21" transform="matrix(9.96264,0,0,-9.96264,30.665017,107.77411)" fill="#231f20"/>
<use data-text="." xlink:href="#font_2_20" transform="matrix(9.96264,0,0,-9.96264,35.70502,107.77411)" fill="#231f20"/>
<use data-text="0" xlink:href="#font_2_21" transform="matrix(9.96264,0,0,-9.96264,38.464673,107.77411)" fill="#231f20"/>
<use data-text="3" xlink:href="#font_2_24" transform="matrix(9.96264,0,0,-9.96264,43.504674,107.77411)" fill="#231f20"/>
<use data-text="5" xlink:href="#font_2_26" transform="matrix(9.96264,0,0,-9.96264,48.54468,107.77411)" fill="#231f20"/>
<use data-text="0" xlink:href="#font_2_21" transform="matrix(9.96264,0,0,-9.96264,30.665017,64.5741)" fill="#231f20"/>
<use data-text="." xlink:href="#font_2_20" transform="matrix(9.96264,0,0,-9.96264,35.70502,64.5741)" fill="#231f20"/>
<use data-text="0" xlink:href="#font_2_21" transform="matrix(9.96264,0,0,-9.96264,38.464673,64.5741)" fill="#231f20"/>
<use data-text="4" xlink:href="#font_2_25" transform="matrix(9.96264,0,0,-9.96264,43.504674,64.5741)" fill="#231f20"/>
<use data-text="0" xlink:href="#font_2_21" transform="matrix(9.96264,0,0,-9.96264,48.54468,64.5741)" fill="#231f20"/>
<use data-text="0" xlink:href="#font_2_21" transform="matrix(9.96264,0,0,-9.96264,57.545118,161.77411)" fill="#231f20"/>
<use data-text="1" xlink:href="#font_2_22" transform="matrix(9.96264,0,0,-9.96264,109.86502,161.77411)" fill="#231f20"/>
<use data-text="2" xlink:href="#font_2_23" transform="matrix(9.96264,0,0,-9.96264,162.30487,161.77411)" fill="#231f20"/>
<use data-text="3" xlink:href="#font_2_24" transform="matrix(9.96264,0,0,-9.96264,214.74472,161.77411)" fill="#231f20"/>
<use data-text="&#x03c7;" xlink:href="#font_3_3" transform="matrix(9.96264,0,0,-9.96264,232.9851,126.49402)" fill="#231f20"/>
<use data-text="&#x2126;" xlink:href="#font_4_1" transform="matrix(6.97385,0,0,-6.97385,239.22534,127.93384)" fill="#231f20"/>
<use data-text="=" xlink:href="#font_2_17" transform="matrix(9.96264,0,0,-9.96264,248.22534,126.49402)" fill="#231f20"/>
<use data-text="1" xlink:href="#font_2_22" transform="matrix(9.96264,0,0,-9.96264,258.6652,126.49402)" fill="#231f20"/>
<use data-text="0" xlink:href="#font_2_21" transform="matrix(9.96264,0,0,-9.96264,263.70518,126.49402)" fill="#231f20"/>
<use data-text="&#x03c7;" xlink:href="#font_3_3" transform="matrix(9.96264,0,0,-9.96264,232.98514,112.69403)" fill="#231f20"/>
<use data-text="&#x2126;" xlink:href="#font_4_1" transform="matrix(6.97385,0,0,-6.97385,239.22537,114.13385)" fill="#231f20"/>
<use data-text="=" xlink:href="#font_2_17" transform="matrix(9.96264,0,0,-9.96264,248.22537,112.69403)" fill="#231f20"/>
<use data-text="2" xlink:href="#font_2_23" transform="matrix(9.96264,0,0,-9.96264,258.66523,112.69403)" fill="#231f20"/>
<use data-text="0" xlink:href="#font_2_21" transform="matrix(9.96264,0,0,-9.96264,263.7052,112.69403)" fill="#231f20"/>
<use data-text="&#x03c7;" xlink:href="#font_3_3" transform="matrix(9.96264,0,0,-9.96264,232.98517,98.89404)" fill="#231f20"/>
<use data-text="&#x2126;" xlink:href="#font_4_1" transform="matrix(6.97385,0,0,-6.97385,239.2254,100.33386)" fill="#231f20"/>
<use data-text="=" xlink:href="#font_2_17" transform="matrix(9.96264,0,0,-9.96264,248.2254,98.89404)" fill="#231f20"/>
<use data-text="4" xlink:href="#font_2_25" transform="matrix(9.96264,0,0,-9.96264,258.66526,98.89404)" fill="#231f20"/>
<use data-text="0" xlink:href="#font_2_21" transform="matrix(9.96264,0,0,-9.96264,263.70524,98.89404)" fill="#231f20"/>
<path transform="matrix(.1,0,0,-.1,-28.854886,1100.1939)" stroke-width="2.5" stroke-linecap="butt" stroke-miterlimit="3.8" stroke-linejoin="miter" fill="none" stroke="#000000" d="M888.199 9517.8H919.699M2460.7 9517.8H2429.2"/>
<path transform="matrix(.1,0,0,-.1,-28.854886,1100.1939)" stroke-width="2.5" stroke-linecap="butt" stroke-miterlimit="3.8" stroke-linejoin="miter" fill="none" stroke="#000000" d="M888.199 9948.8H919.699M2460.7 9948.8H2429.2"/>
<path transform="matrix(.1,0,0,-.1,-28.854886,1100.1939)" stroke-width="2.5" stroke-linecap="butt" stroke-miterlimit="3.8" stroke-linejoin="miter" fill="none" stroke="#000000" d="M888.199 10380.3H919.699M2460.7 10380.3H2429.2"/>
<path transform="matrix(.1,0,0,-.1,-28.854886,1100.1939)" stroke-width="2.5" stroke-linecap="butt" stroke-miterlimit="3.8" stroke-linejoin="miter" fill="none" stroke="#000000" d="M888.199 9517.8V9549.3M888.199 10725.3V10693.8"/>
<path transform="matrix(.1,0,0,-.1,-28.854886,1100.1939)" stroke-width="2.5" stroke-linecap="butt" stroke-miterlimit="3.8" stroke-linejoin="miter" fill="none" stroke="#000000" d="M1412.2 9517.8V9549.3M1412.2 10725.3V10693.8"/>
<path transform="matrix(.1,0,0,-.1,-28.854886,1100.1939)" stroke-width="2.5" stroke-linecap="butt" stroke-miterlimit="3.8" stroke-linejoin="miter" fill="none" stroke="#000000" d="M1936.7 9517.8V9549.3M1936.7 10725.3V10693.8"/>
<path transform="matrix(.1,0,0,-.1,-28.854886,1100.1939)" stroke-width="2.5" stroke-linecap="butt" stroke-miterlimit="3.8" stroke-linejoin="miter" fill="none" stroke="#000000" d="M2460.7 9517.8V9549.3M2460.7 10725.3V10693.8"/>
<path transform="matrix(.1,0,0,-.1,-28.854886,1100.1939)" stroke-width="2.5" stroke-linecap="butt" stroke-miterlimit="3.8" stroke-linejoin="miter" fill="none" stroke="#000000" d="M888.199 10725.3V9517.8H2460.7V10725.3H888.199Z"/>
<path transform="matrix(.1,0,0,-.1,-28.854886,1100.1939)" stroke-width="2.5" stroke-linecap="butt" stroke-miterlimit="3.8" stroke-linejoin="miter" fill="none" stroke="#000000" d="M2509.7 9807.8 2460.7 9809.3 2502.2 9783.3M2618.2 9760.8 2460.7 9809.3"/>
<path transform="matrix(.1,0,0,-.1,-28.854886,1100.1939)" stroke-width="2.5" stroke-linecap="butt" stroke-miterlimit="3.8" stroke-linejoin="miter" fill="none" stroke="#000000" d="M2506.2 9910.8 2460.7 9898.8 2506.2 9886.8M2618.2 9898.8H2460.7"/>
<path transform="matrix(.1,0,0,-.1,-28.854886,1100.1939)" stroke-width="2.5" stroke-linecap="butt" stroke-miterlimit="3.8" stroke-linejoin="miter" fill="none" stroke="#000000" d="M2496.2 9958.8 2460.7 9910.3 2515.7 9934.3M2618.2 10036.8 2460.7 9910.3"/>
<path transform="matrix(.1,0,0,-.1,-28.854886,1100.1939)" stroke-width="2.5" stroke-linecap="butt" stroke-miterlimit="3.8" stroke-linejoin="miter" fill="none" stroke="#000000" d="M2033.2 10638.8H2328.7M896.199 9517.8V9544.8L897.199 9601.3 897.699 9659.8 898.699 9721.3 899.699 9784.8 900.699 9850.3 902.199 9917.3 903.199 9985.8 904.699 10054.8 906.199 10123.3 908.199 10191.3 909.699 10257.3 911.699 10320.3 914.199 10379.8 916.699 10434.8 919.199 10484.3 922.199 10526.8 925.699 10561.8 929.199 10588.3 933.199 10606.8 937.699 10615.8 942.199 10616.3 947.699 10607.8 953.199 10592.3 959.699 10569.8 966.699 10542.3 974.199 10511.3 982.699 10477.8 991.699 10444.8 1001.7 10412.8 1012.7 10383.3 1024.7 10357.8 1038.2 10336.8 1052.7 10320.3 1068.7 10308.8 1086.2 10300.8 1105.2 10296.8 1126.2 10294.8 1149.7 10294.3H1175.2L1203.2 10293.8 1233.7 10291.8 1267.2 10288.3 1304.2 10281.3 1344.7 10271.8 1389.2 10258.8 1437.7 10242.3 1491.2 10221.8 1550.2 10198.3 1614.7 10171.8 1685.2 10142.3 1763.2 10110.8 1848.2 10078.3 1941.7 10045.8 2044.7 10013.3 2157.2 9982.8 2281.2 9954.8 2416.7 9930.3 2460.7 9924.3"/>
<path transform="matrix(.1,0,0,-.1,-28.854886,1100.1939)" stroke-width="2.5" stroke-linecap="butt" stroke-dasharray="10,15" stroke-miterlimit="3.8" stroke-linejoin="miter" fill="none" stroke="#000000" d="M2033.2 10528.8H2328.7M897.199 9517.8 897.699 9558.8 899.199 9626.8 900.199 9697.8 901.199 9770.8 902.699 9845.3 904.199 9921.3 906.199 9996.8 908.199 10071.8 910.199 10144.3 912.699 10213.3 915.199 10277.3 918.199 10335.3 921.699 10385.3 925.199 10426.8 929.199 10458.3 933.699 10478.8 938.699 10488.3 944.199 10487.3 950.699 10476.3 957.199 10456.3 964.699 10429.3 973.199 10397.3 982.699 10362.8 993.199 10327.8 1004.7 10294.3 1017.7 10264.3 1032.2 10239.3 1048.2 10219.8 1065.7 10205.3 1085.7 10195.8 1107.7 10189.8 1131.7 10186.8 1158.7 10185.3 1188.7 10183.3 1222.2 10180.3 1259.2 10175.3 1300.2 10166.8 1346.2 10154.8 1397.2 10138.3 1453.7 10118.3 1516.2 10093.3 1585.7 10064.8 1663.2 10032.8 1749.7 9998.3 1845.2 9962.3 1951.2 9926.3 2069.7 9890.8 2200.7 9857.8 2346.7 9828.8 2460.7 9811.3"/>
<path transform="matrix(.1,0,0,-.1,-28.854886,1100.1939)" stroke-width="2.5" stroke-linecap="butt" stroke-dasharray="30,10,5,10" stroke-miterlimit="3.8" stroke-linejoin="miter" fill="none" stroke="#000000" d="M2033.2 10418.8H2328.7M897.199 9517.8 897.699 9555.3 899.199 9622.8 900.199 9693.8 901.199 9766.8 902.699 9841.3 904.199 9916.8 906.199 9992.3 908.199 10067.3 910.199 10139.3 912.699 10208.3 915.199 10272.3 918.199 10330.3 921.699 10380.3 925.199 10421.3 929.199 10452.8 933.699 10473.3 938.699 10483.3 944.199 10481.8 950.699 10470.8 957.199 10451.3 964.699 10424.3 973.199 10392.3 982.699 10357.8 993.199 10322.8 1004.7 10289.3 1017.7 10259.8 1032.2 10234.8 1048.2 10214.8 1065.7 10200.8 1085.7 10191.3 1107.7 10185.3 1131.7 10182.3 1158.7 10180.3 1188.7 10178.8 1222.2 10175.8 1259.2 10170.3 1300.2 10161.8 1346.2 10149.8 1397.2 10133.8 1453.7 10113.3 1516.2 10088.8 1585.7 10060.3 1663.2 10028.3 1749.7 9993.8 1845.2 9957.8 1951.2 9921.8 2069.7 9886.3 2200.7 9853.8 2346.7 9824.3 2460.7 9806.8"/>
<path transform="matrix(.1,0,0,-.1,-28.854886,1100.1939)" stroke-width="2.5" stroke-linecap="butt" stroke-dasharray="10,15" stroke-miterlimit="3.8" stroke-linejoin="miter" fill="none" stroke="#000000" d="M896.199 9517.8 897.199 9574.8 897.699 9641.8 899.199 9711.8 900.199 9784.3 901.199 9859.8 902.699 9936.8 904.199 10014.8 906.199 10092.8 908.199 10169.8 910.199 10244.3 912.699 10315.3 915.199 10380.8 918.199 10440.3 921.699 10491.3 925.199 10532.8 929.199 10564.3 933.699 10584.8 938.699 10593.8 944.199 10591.3 950.699 10578.8 957.199 10556.8 964.699 10527.8 973.199 10493.3 982.699 10456.3 993.199 10419.3 1004.7 10384.3 1017.7 10352.8 1032.2 10326.8 1048.2 10306.3 1065.7 10291.8 1085.7 10282.8 1107.7 10277.8 1131.7 10275.8H1158.7L1188.7 10275.3 1222.2 10273.8 1259.2 10269.8 1300.2 10262.8 1346.2 10251.8 1397.2 10236.3 1453.7 10216.3 1516.2 10191.8 1585.7 10162.8 1663.2 10130.3 1749.7 10094.8 1845.2 10057.8 1951.2 10020.3 2069.7 9983.8 2200.7 9949.8 2346.7 9919.3 2460.7 9900.8"/>
<path transform="matrix(.1,0,0,-.1,-28.854886,1100.1939)" stroke-width="2.5" stroke-linecap="butt" stroke-dasharray="30,10,5,10" stroke-miterlimit="3.8" stroke-linejoin="miter" fill="none" stroke="#000000" d="M896.199 9517.8 897.199 9571.3 897.699 9637.8 899.199 9707.8 900.199 9780.8 901.199 9855.8 902.699 9932.8 904.199 10010.3 906.199 10088.3 908.199 10165.3 910.199 10239.3 912.699 10310.3 915.199 10375.8 918.199 10434.8 921.699 10485.8 925.199 10527.8 929.199 10559.3 933.699 10579.3 938.699 10588.3 944.199 10586.3 950.699 10573.3 957.199 10551.3 964.699 10522.3 973.199 10488.3 982.699 10451.3 993.199 10414.3 1004.7 10379.3 1017.7 10347.8 1032.2 10321.8 1048.2 10301.8 1065.7 10287.3 1085.7 10278.3 1107.7 10273.3 1131.7 10271.3 1158.7 10270.8 1188.7 10270.3 1222.2 10268.8 1259.2 10265.3 1300.2 10257.8 1346.2 10246.8 1397.2 10231.3 1453.7 10211.3 1516.2 10186.8 1585.7 10158.3 1663.2 10125.8 1749.7 10090.3 1845.2 10053.3 1951.2 10015.8 2069.7 9979.3 2200.7 9945.3 2346.7 9914.8 2460.7 9896.8"/>
<path transform="matrix(.1,0,0,-.1,-28.854886,1100.1939)" stroke-width="2.5" stroke-linecap="butt" stroke-dasharray="10,15" stroke-miterlimit="3.8" stroke-linejoin="miter" fill="none" stroke="#000000" d="M896.199 9517.8V9521.8L897.199 9585.3 897.699 9652.3 899.199 9722.3 900.199 9795.8 901.199 9871.3 902.699 9948.3 904.199 10026.8 906.199 10105.3 908.199 10182.3 910.199 10257.3 912.699 10328.3 915.199 10394.3 918.199 10453.3 921.699 10504.8 925.199 10546.8 929.199 10578.3 933.699 10598.3 938.699 10607.3 944.199 10604.8 950.699 10591.8 957.199 10569.8 964.699 10540.3 973.199 10505.8 982.699 10468.3 993.199 10430.8 1004.7 10395.3 1017.7 10363.8 1032.2 10337.8 1048.2 10317.3 1065.7 10302.8 1085.7 10293.8 1107.7 10289.3 1131.7 10287.3H1158.7L1188.7 10286.8 1222.2 10285.8 1259.2 10281.8 1300.2 10274.8 1346.2 10264.3 1397.2 10248.8 1453.7 10228.8 1516.2 10204.3 1585.7 10175.3 1663.2 10142.8 1749.7 10107.3 1845.2 10070.3 1951.2 10032.3 2069.7 9995.8 2200.7 9961.3 2346.7 9930.8 2460.7 9912.3"/>
<path transform="matrix(.1,0,0,-.1,-28.854886,1100.1939)" stroke-width="2.5" stroke-linecap="butt" stroke-dasharray="30,10,5,10" stroke-miterlimit="3.8" stroke-linejoin="miter" fill="none" stroke="#000000" d="M896.199 9517.8 897.199 9581.3 897.699 9648.3 899.199 9718.3 900.199 9791.3 901.199 9866.8 902.699 9943.8 904.199 10021.8 906.199 10099.8 908.199 10176.8 910.199 10251.8 912.699 10322.8 915.199 10388.3 918.199 10447.8 921.699 10498.8 925.199 10540.8 929.199 10571.8 933.699 10592.3 938.699 10600.8 944.199 10598.3 950.699 10585.8 957.199 10563.3 964.699 10534.3 973.199 10499.8 982.699 10462.3 993.199 10424.8 1004.7 10389.8 1017.7 10358.3 1032.2 10332.3 1048.2 10311.8 1065.7 10297.3 1085.7 10288.3 1107.7 10283.8 1131.7 10281.8H1158.7 1188.7L1222.2 10280.3 1259.2 10276.3 1300.2 10269.3 1346.2 10258.8 1397.2 10243.3 1453.7 10223.3 1516.2 10198.8 1585.7 10169.8 1663.2 10137.3 1749.7 10102.3 1845.2 10064.8 1951.2 10027.3 2069.7 9990.8 2200.7 9956.3 2346.7 9925.8 2460.7 9907.8"/>
<path transform="matrix(.1,0,0,-.1,-28.854886,1100.1939)" stroke-width="2.5" stroke-linecap="butt" stroke-miterlimit="3.8" stroke-linejoin="miter" fill="none" stroke="#000000" d="M888.199 10725.3V9517.8H2460.7V10725.3H888.199Z"/>
<use data-text="A" xlink:href="#font_3_1" transform="matrix(0,-9.96264,-9.96264,-0,10.745113,100.09387)" fill="#231f20"/>
<use data-text="1" xlink:href="#font_4_2" transform="matrix(0,-6.97385,-6.97385,-0,12.184952,92.65405)" fill="#231f20"/>
<use data-text="1" xlink:href="#font_4_2" transform="matrix(0,-6.97385,-6.97385,-0,12.184952,88.69409)" fill="#231f20"/>
<use data-text="3" xlink:href="#font_4_3" transform="matrix(0,-6.97385,-6.97385,-0,12.184952,84.73407)" fill="#231f20"/>
<use data-text="3" xlink:href="#font_4_3" transform="matrix(0,-6.97385,-6.97385,-0,12.184952,80.77411)" fill="#231f20"/>
<use data-text="t" xlink:href="#font_3_2" transform="matrix(9.96264,0,0,-9.96264,136.74512,178.33386)" fill="#231f20"/>
<use data-text="A" xlink:href="#font_3_1" transform="matrix(9.96264,0,0,-9.96264,102.42522,13.573853)" fill="#231f20"/>
<use data-text="1" xlink:href="#font_4_2" transform="matrix(6.97385,0,0,-6.97385,109.86505,15.013672)" fill="#231f20"/>
<use data-text="1" xlink:href="#font_4_2" transform="matrix(6.97385,0,0,-6.97385,113.82506,15.013672)" fill="#231f20"/>
<use data-text="3" xlink:href="#font_4_3" transform="matrix(6.97385,0,0,-6.97385,117.785068,15.013672)" fill="#231f20"/>
<use data-text="3" xlink:href="#font_4_3" transform="matrix(6.97385,0,0,-6.97385,121.74509,15.013672)" fill="#231f20"/>
<use data-text="(" xlink:href="#font_2_18" transform="matrix(9.96264,0,0,-9.96264,126.30525,13.573853)" fill="#231f20"/>
<use data-text="t" xlink:href="#font_3_2" transform="matrix(9.96264,0,0,-9.96264,130.1451,13.573853)" fill="#231f20"/>
<use data-text="," xlink:href="#font_3_4" transform="matrix(9.96264,0,0,-9.96264,133.7451,13.573853)" fill="#231f20"/>
<use data-text="t" xlink:href="#font_3_2" transform="matrix(9.96264,0,0,-9.96264,138.18462,13.573853)" fill="#231f20"/>
<use data-text="&#x2032;" xlink:href="#font_5_1" transform="matrix(6.97385,0,0,-6.97385,141.7849,9.973877)" fill="#231f20"/>
<use data-text=")" xlink:href="#font_2_19" transform="matrix(9.96264,0,0,-9.96264,144.54506,13.573853)" fill="#231f20"/>
<use data-text="z" xlink:href="#font_2_10" transform="matrix(9.96264,0,0,-9.96264,151.74507,13.573853)" fill="#231f20"/>
<use data-text="o" xlink:href="#font_2_1" transform="matrix(9.96264,0,0,-9.96264,156.18508,13.573853)" fill="#231f20"/>
<use data-text="o" xlink:href="#font_2_1" transform="matrix(9.96264,0,0,-9.96264,161.465,13.573853)" fill="#231f20"/>
<use data-text="m" xlink:href="#font_2_16" transform="matrix(9.96264,0,0,-9.96264,166.505,13.573853)" fill="#231f20"/>
<use data-text="E" xlink:href="#font_2_2" transform="matrix(9.96264,0,0,-9.96264,133.98487,38.773805)" fill="#231f20"/>
<use data-text="s" xlink:href="#font_2_4" transform="matrix(9.96264,0,0,-9.96264,140.82486,38.773805)" fill="#231f20"/>
<use data-text="h" xlink:href="#font_2_13" transform="matrix(9.96264,0,0,-9.96264,144.78485,38.773805)" fill="#231f20"/>
<use data-text="e" xlink:href="#font_2_12" transform="matrix(9.96264,0,0,-9.96264,150.30486,38.773805)" fill="#231f20"/>
<use data-text="l" xlink:href="#font_2_15" transform="matrix(9.96264,0,0,-9.96264,154.74486,38.773805)" fill="#231f20"/>
<use data-text="b" xlink:href="#font_2_7" transform="matrix(9.96264,0,0,-9.96264,157.50452,38.773805)" fill="#231f20"/>
<use data-text="y" xlink:href="#font_2_8" transform="matrix(9.96264,0,0,-9.96264,162.78453,38.773805)" fill="#231f20"/>
<use data-text="m" xlink:href="#font_2_16" transform="matrix(9.96264,0,0,-9.96264,107.464969,49.693727)" fill="#231f20"/>
<use data-text="e" xlink:href="#font_2_12" transform="matrix(9.96264,0,0,-9.96264,115.744968,49.693727)" fill="#231f20"/>
<use data-text="d" xlink:href="#font_2_11" transform="matrix(9.96264,0,0,-9.96264,120.18495,49.693727)" fill="#231f20"/>
<use data-text="i" xlink:href="#font_2_14" transform="matrix(9.96264,0,0,-9.96264,125.70497,49.693727)" fill="#231f20"/>
<use data-text="u" xlink:href="#font_2_5" transform="matrix(9.96264,0,0,-9.96264,128.46463,49.693727)" fill="#231f20"/>
<use data-text="m" xlink:href="#font_2_16" transform="matrix(9.96264,0,0,-9.96264,133.98464,49.693727)" fill="#231f20"/>
<use data-text="m" xlink:href="#font_2_16" transform="matrix(9.96264,0,0,-9.96264,145.74472,49.693727)" fill="#231f20"/>
<use data-text="e" xlink:href="#font_2_12" transform="matrix(9.96264,0,0,-9.96264,154.02472,49.693727)" fill="#231f20"/>
<use data-text="s" xlink:href="#font_2_4" transform="matrix(9.96264,0,0,-9.96264,158.4647,49.693727)" fill="#231f20"/>
<use data-text="h" xlink:href="#font_2_13" transform="matrix(9.96264,0,0,-9.96264,162.42472,49.693727)" fill="#231f20"/>
<use data-text="c" xlink:href="#font_2_9" transform="matrix(9.96264,0,0,-9.96264,115.74504,60.73352)" fill="#231f20"/>
<use data-text="o" xlink:href="#font_2_1" transform="matrix(9.96264,0,0,-9.96264,120.18504,60.73352)" fill="#231f20"/>
<use data-text="a" xlink:href="#font_2_6" transform="matrix(9.96264,0,0,-9.96264,125.22505,60.73352)" fill="#231f20"/>
<use data-text="r" xlink:href="#font_2_3" transform="matrix(9.96264,0,0,-9.96264,130.26505,60.73352)" fill="#231f20"/>
<use data-text="s" xlink:href="#font_2_4" transform="matrix(9.96264,0,0,-9.96264,134.22504,60.73352)" fill="#231f20"/>
<use data-text="e" xlink:href="#font_2_12" transform="matrix(9.96264,0,0,-9.96264,138.18505,60.73352)" fill="#231f20"/>
<use data-text="m" xlink:href="#font_2_16" transform="matrix(9.96264,0,0,-9.96264,145.74504,60.73352)" fill="#231f20"/>
<use data-text="e" xlink:href="#font_2_12" transform="matrix(9.96264,0,0,-9.96264,154.02504,60.73352)" fill="#231f20"/>
<use data-text="s" xlink:href="#font_2_4" transform="matrix(9.96264,0,0,-9.96264,158.46503,60.73352)" fill="#231f20"/>
<use data-text="h" xlink:href="#font_2_13" transform="matrix(9.96264,0,0,-9.96264,162.42504,60.73352)" fill="#231f20"/>
</g>
</svg>
