<svg xmlns="http://www.w3.org/2000/svg" xmlns:xlink="http://www.w3.org/1999/xlink" xmlns:inkscape="http://www.inkscape.org/namespaces/inkscape" version="1.1" width="227.76584" height="183.55139" viewBox="0 0 227.76584 183.55139">
<defs>
<clipPath id="clip_1">
<path transform="matrix(1,0,0,-1,-28.854886,1100.1939)" d="M28.854886 916.64248H256.62074V1100.1939H28.854886Z" clip-rule="evenodd"/>
</clipPath>
<path id="font_2_1" d="M.6589966 .23046875C.6759949 .23046875 .69400027 .23046875 .69400027 .25045777 .69400027 .27046205 .6759949 .27046205 .6589966 .27046205H.117996219C.100997928 .27046205 .08299255 .27046205 .08299255 .25045777 .08299255 .23046875 .100997928 .23046875 .117996219 .23046875H.6589966Z"/>
<path id="font_3_13" d="M.45999146 .31976319C.45999146 .39982606 .45498658 .47988893 .41999818 .5539398 .37399293 .65000918 .2919922 .6660156 .25 .6660156 .18998719 .6660156 .116989139 .64001467 .07598877 .54693606 .04399109 .47789 .038986207 .39982606 .038986207 .31976319 .038986207 .24472046 .042999269 .15464783 .083999637 .07859802 .1269989-.0024719239 .19999695-.022460938 .24899292-.022460938 .30299378-.022460938 .3789978-.0014648438 .4229889 .09359741 .45498658 .16265869 .45999146 .2407074 .45999146 .31976319M.24899292-.00047302247C.20999146-.00047302247 .15098572 .024551392 .1329956 .12062073 .12199402 .18066406 .12199402 .2727356 .12199402 .3317871 .12199402 .39582826 .12199402 .46188355 .12998963 .5159149 .14898682 .63500979 .22399903 .64401248 .24899292 .64401248 .28199769 .64401248 .34799195 .6259918 .36698915 .52693179 .3769989 .47088624 .3769989 .39482118 .3769989 .3317871 .3769989 .25672914 .3769989 .18867493 .3659973 .12461853 .35099793 .029556275 .2939911-.00047302247 .24899292-.00047302247Z"/>
<path id="font_4_5" d="M.19198609 .052993776C.19198609 .08198547 .16799927 .10598755 .13899231 .10598755 .10998535 .10598755 .085998538 .08198547 .085998538 .052993776 .085998538 .023986817 .10998535 0 .13899231 0 .16799927 0 .19198609 .023986817 .19198609 .052993776Z"/>
<path id="font_3_15" d="M.1269989 .07699585 .23298645 .18003845C.3889923 .31811524 .44898988 .3721466 .44898988 .47216798 .44898988 .5860901 .35899354 .6660156 .23699951 .6660156 .12399292 .6660156 .049987794 .57411196 .049987794 .48516847 .049987794 .4291687 .099990848 .4291687 .102996829 .4291687 .11999512 .4291687 .15499878 .44117738 .15499878 .48217774 .15499878 .5081787 .13699341 .5341797 .101989749 .5341797 .09399414 .5341797 .09199524 .5341797 .08898926 .5331726 .11199951 .59806826 .1659851 .63500979 .22399903 .63500979 .31498719 .63500979 .35798646 .5541382 .35798646 .47216798 .35798646 .39215089 .30799867 .31311036 .25299073 .25108338L.06098938 .036987306C.049987794 .025985718 .049987794 .023986817 .049987794 0H.42099L.44898988 .17404175H.42399598C.4189911 .14402771 .4119873 .1000061 .4019928 .084991458 .394989 .07699585 .32899476 .07699585 .30699159 .07699585H.1269989Z"/>
<path id="font_3_16" d="M.2939911 .16503906V.07800293C.2939911 .041992189 .2919922 .0309906 .21798706 .0309906H.19699097V0C.23799134 .0029907227 .2899933 .0029907227 .33198548 .0029907227 .37399293 .0029907227 .4269867 .0029907227 .46798707 0V.0309906H.44699098C.37298585 .0309906 .37098695 .041992189 .37098695 .07800293V.16503906H.47099305V.19602967H.37098695V.65075686C.37098695 .67074587 .37098695 .6767578 .35499574 .6767578 .34599305 .6767578 .34298707 .6767578 .33499146 .66474917L.027999878 .19602967V.16503906H.2939911M.2999878 .19602967H.055999757L.2999878 .5688019V.19602967Z"/>
<path id="font_3_8" d="M.13198853 .327713V.35173036C.13198853 .6047821 .2559967 .64100649 .30699159 .64100649 .33099366 .64100649 .37298585 .634964 .394989 .6007538 .37998963 .6007538 .33999635 .6007538 .33999635 .5557556 .33999635 .524765 .3639984 .5097656 .38598634 .5097656 .4019928 .5097656 .43199159 .51875308 .43199159 .5577545 .43199159 .6178589 .3880005 .6660156 .30499269 .6660156 .1769867 .6660156 .041992189 .5367584 .041992189 .31570436 .041992189 .048553468 .1579895-.022460938 .25099183-.022460938 .3619995-.022460938 .45700074 .07156372 .45700074 .2036438 .45700074 .33070375 .36799623 .4267578 .25698854 .4267578 .18899536 .4267578 .1519928 .37573243 .13198853 .327713M.25099183 .0055389406C.18798828 .0055389406 .1579895 .06556702 .1519928 .080566409 .13398743 .127594 .13398743 .2076416 .13398743 .22564698 .13398743 .30369569 .1659851 .40374757 .2559967 .40374757 .27198792 .40374757 .31799317 .40374757 .34899903 .34172059 .36698915 .30470277 .36698915 .2536621 .36698915 .20463562 .36698915 .15661621 .36698915 .10658264 .34999085 .0705719 .31999208 .010528564 .27398683 .0055389406 .25099183 .0055389406Z"/>
<path id="font_3_9" d="M.16299439 .4569702C.116989139 .486969 .11299133 .52098086 .11299133 .5379791 .11299133 .598999 .17799378 .64100649 .24899292 .64100649 .32199098 .64100649 .38598634 .58898928 .38598634 .51698306 .38598634 .45996095 .34700013 .4119568 .2869873 .37695313L.16299439 .4569702M.30899049 .36193849C.3809967 .3989563 .42999269 .45095826 .42999269 .51698306 .42999269 .6090088 .34098817 .6660156 .25 .6660156 .1499939 .6660156 .068984989 .59199526 .068984989 .49897767 .068984989 .4809723 .070999149 .43595887 .11299133 .38894654 .12399292 .37695313 .16099549 .35194398 .18598938 .33494569 .12799073 .30592347 .041992189 .24984741 .041992189 .15072632 .041992189 .04458618 .14399719-.022460938 .24899292-.022460938 .3619995-.022460938 .45700074 .06060791 .45700074 .16773987 .45700074 .20379639 .44599916 .24885559 .4079895 .2909088 .3889923 .31193543 .37298585 .3219452 .30899049 .36193849M.20899964 .3199463 .33198548 .24183655C.3600006 .2228241 .40699769 .19277954 .40699769 .13169861 .40699769 .05760193 .33198548 .0055389406 .25 .0055389406 .1639862 .0055389406 .09199524 .067611698 .09199524 .15072632 .09199524 .20880127 .12399292 .27288819 .20899964 .3199463Z"/>
<path id="font_3_14" d="M.2939911 .64004519C.2939911 .66400149 .2939911 .6660156 .2709961 .6660156 .20899964 .60227969 .12098694 .60227969 .08898926 .60227969V.57128909C.10899353 .57128909 .16799927 .57128909 .21998596 .5972748V.07902527C.21998596 .042999269 .21699524 .0309906 .1269989 .0309906H.09498596V0C.12998963 .0029907227 .21699524 .0029907227 .25698854 .0029907227 .29699708 .0029907227 .38398744 .0029907227 .4189911 0V.0309906H.3869934C.29699708 .0309906 .2939911 .041992189 .2939911 .07902527V.64004519Z"/>
<path id="font_4_1" d="M.1789856 .114868167C.13899231 .047973634 .099990848 .033981325 .055999757 .0309906 .04399109 .02999878 .034988405 .02999878 .034988405 .010986328 .034988405 .004989624 .039993287 0 .04798889 0 .07499695 0 .10598755 .0029907227 .13398743 .0029907227 .16699219 .0029907227 .20199585 0 .23399353 0 .23999024 0 .25299073 0 .25299073 .018997193 .25299073 .02999878 .24398804 .0309906 .23699951 .0309906 .21398926 .032989503 .18998719 .04096985 .18998719 .06593323 .18998719 .077926639 .19599915 .088897708 .20399475 .102890018L.27999879 .23068238H.5309906C.5329895 .2097168 .5469971 .07392883 .5469971 .063949588 .5469971 .033981325 .49499513 .0309906 .47499085 .0309906 .46099855 .0309906 .45098878 .0309906 .45098878 .010986328 .45098878 0 .46299745 0 .46499635 0 .5059967 0 .548996 .0029907227 .58999636 .0029907227 .61499026 .0029907227 .6779938 0 .7029877 0 .70899966 0 .72099307 0 .72099307 .019989014 .72099307 .0309906 .71099856 .0309906 .69799807 .0309906 .6359863 .0309906 .6359863 .037979127 .6329956 .06694031L.57199099 .691803C.56999209 .71180728 .56999209 .7158203 .5529938 .7158203 .5369873 .7158203 .5329895 .7088165 .5269928 .69880679L.1789856 .114868167M.29899598 .26168824 .49598695 .5917816 .5279999 .26168824H.29899598Z"/>
<path id="font_5_3" d="M.272995 .33428956C.35099793 .33428956 .40699769 .2803192 .40699769 .1733551 .40699769 .04940796 .33499146 .012466431 .2769928 .012466431 .23699951 .012466431 .14898682 .0234375 .10699463 .082351688 .1539917 .084350589 .16499329 .11735535 .16499329 .13835144 .16499329 .17034912 .14099121 .19335938 .10998535 .19335938 .08198547 .19335938 .053985597 .17634583 .053985597 .13534546 .053985597 .041412355 .1579895-.01953125 .2789917-.01953125 .41799928-.01953125 .5139923 .07336426 .5139923 .1733551 .5139923 .2513275 .44999696 .32929994 .33999635 .35229493 .44499208 .39024354 .48298646 .4650879 .48298646 .5260773 .48298646 .60505679 .3919983 .6640625 .2809906 .6640625 .16999817 .6640625 .084991458 .61006167 .084991458 .5300751 .084991458 .49606324 .10699463 .47706605 .13699341 .47706605 .16799927 .47706605 .18798828 .5000763 .18798828 .5280762 .18798828 .5570679 .16799927 .57806399 .13699341 .5800781 .17199707 .62405398 .24099732 .63505557 .27799989 .63505557 .32299806 .63505557 .38598634 .6130676 .38598634 .5260773 .38598634 .48406983 .37199403 .43814088 .34599305 .4072113 .31298829 .36927796 .2849884 .3672943 .23498535 .36428834 .20999146 .3623047 .20799256 .3623047 .20298767 .3612976 .20098877 .3612976 .19299317 .3592987 .19299317 .34829713 .19299317 .33428956 .20199585 .33428956 .21899414 .33428956H.272995Z"/>
<path id="font_5_2" d="M.33499146 .63612368C.33499146 .6630554 .33299256 .6640625 .30499269 .6640625 .24099732 .6014404 .1499939 .6004486 .10899353 .6004486V.5644531C.1329956 .5644531 .19898987 .5644531 .2539978 .592453V.08203125C.2539978 .04899597 .2539978 .035995485 .1539917 .035995485H.115997318V0C.13398743 .0009918213 .25698854 .0039978029 .2939911 .0039978029 .32499696 .0039978029 .45098878 .0009918213 .47299195 0V.035995485H.43499757C.33499146 .035995485 .33499146 .04899597 .33499146 .08203125V.63612368Z"/>
<path id="font_4_2" d="M.20599365 .3996582H.2999878C.31999208 .3996582 .32998658 .3996582 .32998658 .41966249 .32998658 .43066407 .31999208 .43066407 .3019867 .43066407H.21398926C.25 .5724945 .25498963 .59246829 .25498963 .59846499 .25498963 .61546328 .24299622 .62545779 .22599793 .62545779 .22299195 .62545779 .19499207 .62446597 .18598938 .58947756L.14698792 .43066407H.052993776C.032989503 .43066407 .022994996 .43066407 .022994996 .4116516 .022994996 .3996582 .0309906 .3996582 .050994874 .3996582H.13899231C.066986087 .11608887 .06298828 .099121097 .06298828 .08114624 .06298828 .02722168 .100997928-.0107421879 .15499878-.0107421879 .25698854-.0107421879 .31399537 .13505554 .31399537 .14305115 .31399537 .1530304 .30599977 .1530304 .3019867 .1530304 .29299928 .1530304 .2919922 .15003968 .2869873 .13905335 .24398804 .035217287 .19099427 .011245728 .15699768 .011245728 .13598633 .011245728 .12599182 .024230957 .12599182 .057174684 .12599182 .08114624 .12799073 .088134769 .13198853 .10510254L.20599365 .3996582Z"/>
<path id="font_3_11" d="M.33099366-.2400055C.33099366-.23701477 .33099366-.23500061 .31399537-.21800232 .18899536-.0920105 .15699768 .09700012 .15699768 .25 .15699768 .42399598 .19499207 .59799197 .31799317 .72299197 .33099366 .73498538 .33099366 .7369995 .33099366 .73999026 .33099366 .746994 .32699586 .75 .32099916 .75 .31098939 .75 .22099304 .6819916 .1619873 .5549927 .11099243 .44499208 .09899902 .33399964 .09899902 .25 .09899902 .17199707 .10998535 .050994874 .16499329-.06201172 .22499085-.18501282 .31098939-.25 .32099916-.25 .32699586-.25 .33099366-.24700928 .33099366-.2400055Z"/>
<path id="font_4_4" d="M.20298767 .0009918213C.20298767 .066986087 .17799378 .10598755 .13899231 .10598755 .10598755 .10598755 .085998538 .08099365 .085998538 .052993776 .085998538 .025985718 .10598755 0 .13899231 0 .15098572 0 .1639862 .0039978029 .17399597 .0129852299 .1769867 .01499939 .17799378 .015991211 .1789856 .015991211 .17999268 .015991211 .18099976 .01499939 .18099976 .0009918213 .18099976-.07316589 .1459961-.13328552 .11299133-.16635132 .101989749-.17736817 .101989749-.17936707 .101989749-.18237305 .101989749-.18936157 .10699463-.19335938 .11199951-.19335938 .12298584-.19335938 .20298767-.116256717 .20298767 .0009918213Z"/>
<path id="font_6_1" d="M.2899933 .4720459C.2979889 .4890442 .29899598 .49705506 .29899598 .5040436 .29899598 .53504946 .2709961 .5590515 .23999024 .5590515 .20199585 .5590515 .18998719 .52804568 .18499756 .51205447L.052993776 .07901001C.051986696 .07701111 .04798889 .06401062 .04798889 .06300354 .04798889 .05101013 .07899475 .041015626 .08699036 .041015626 .09399414 .041015626 .09498596 .043014528 .101989749 .058013917L.2899933 .4720459Z"/>
<path id="font_3_12" d="M.2889862 .25C.2889862 .32798768 .27799989 .44898988 .22299195 .56199648 .16299439 .68499758 .07699585 .75 .066986087 .75 .06098938 .75 .056991579 .74598696 .056991579 .73999026 .056991579 .7369995 .056991579 .73498538 .07598877 .71699526 .17399597 .6179962 .23098755 .45899964 .23098755 .25 .23098755 .07899475 .19400025-.09700012 .069992069-.2230072 .056991579-.23500061 .056991579-.23701477 .056991579-.2400055 .056991579-.2460022 .06098938-.25 .066986087-.25 .07699585-.25 .16699219-.18200684 .22599793-.055007936 .2769928 .054992677 .2889862 .16600037 .2889862 .25Z"/>
<path id="font_3_1" d="M.13598633 .07797241C.13598633 .041992189 .13398743 .0309906 .056991579 .0309906H.032989503V0H.6100006L.6519928 .2579193H.6269989C.60198977 .10397339 .57899478 .0309906 .40699769 .0309906H.27398683C.22698975 .0309906 .22499085 .037994386 .22499085 .07098389V.33789063H.31498719C.4119873 .33789063 .4229889 .30589295 .4229889 .220932H.44799806V.48576356H.4229889C.4229889 .39985658 .4119873 .36888124 .31498719 .36888124H.22499085V.6086426C.22499085 .6416168 .22698975 .64860537 .27398683 .64860537H.40299989C.55599978 .64860537 .58299258 .59365847 .598999 .45480348H.6239929L.59599307 .6796112H.032989503V.64860537H.056991579C.13398743 .64860537 .13598633 .637619 .13598633 .60165408V.07797241Z"/>
<path id="font_3_2" d="M.20799256 .19424439C.22999573 .19024658 .31199647 .17424011 .31199647 .102249149 .31199647 .051254274 .2769928 .011245728 .19898987 .011245728 .114990238 .011245728 .07899475 .06825256 .05999756 .15324402 .056991579 .1662445 .055999757 .17024231 .04598999 .17024231 .032989503 .17024231 .032989503 .16323853 .032989503 .14524842V.013244629C.032989503-.003753662 .032989503-.0107421879 .04399109-.0107421879 .04899597-.0107421879 .049987794-.009750366 .068984989 .009246826 .070999149 .011245728 .070999149 .013244629 .08898926 .03224182 .1329956-.009750366 .17799378-.0107421879 .19898987-.0107421879 .31399537-.0107421879 .3600006 .056243898 .3600006 .12825012 .3600006 .1812439 .32998658 .21124268 .31799317 .22323609 .2849884 .25523377 .24598694 .26324464 .20399475 .27124024 .147995 .28224183 .08099365 .2952423 .08099365 .35324098 .08099365 .38822938 .10699463 .42922975 .19299317 .42922975 .30299378 .42922975 .30799867 .3392334 .30999757 .3082428 .31098939 .2992401 .31999208 .2992401 .32199098 .2992401 .33499146 .2992401 .33499146 .304245 .33499146 .3232422V.4242401C.33499146 .4412384 .33499146 .4482422 .32398988 .4482422 .31900025 .4482422 .31698609 .4482422 .3039856 .43623353 .30099488 .43223573 .29100038 .42323304 .2869873 .42022706 .24899292 .4482422 .20799256 .4482422 .19299317 .4482422 .070999149 .4482422 .032989503 .38124085 .032989503 .3252411 .032989503 .29023744 .04899597 .26223756 .07598877 .24023438 .10798645 .21424866 .13598633 .2082367 .20799256 .19424439Z"/>
<path id="font_3_6" d="M.10998535 .076034549C.10998535 .0309906 .09899902 .0309906 .03199768 .0309906V0C.066986087 .0009918213 .117996219 .0029907227 .14498902 .0029907227 .17098999 .0029907227 .22299195 .0009918213 .25698854 0V.0309906C.18998719 .0309906 .1789856 .0309906 .1789856 .076034549V.2602234C.1789856 .36431886 .25 .42037965 .31399537 .42037965 .3769989 .42037965 .3880005 .36631776 .3880005 .30926515V.076034549C.3880005 .0309906 .3769989 .0309906 .30999757 .0309906V0C.34498597 .0009918213 .3959961 .0029907227 .4229889 .0029907227 .44898988 .0029907227 .5009918 .0009918213 .5349884 0V.0309906C.48298646 .0309906 .45799256 .0309906 .45700074 .061019899V.25221253C.45700074 .3383026 .45700074 .36932374 .42599488 .405365 .4119873 .42237855 .3789978 .4423828 .32099916 .4423828 .23699951 .4423828 .19299317 .38233949 .17599488 .34429933V.69433596L.03199768 .68333438V.6523285C.101989749 .6523285 .10998535 .6453247 .10998535 .596344V.076034549Z"/>
<path id="font_3_5" d="M.11199951 .2524414C.117996219 .40126039 .20199585 .426239 .23599243 .426239 .33898927 .426239 .34899903 .2913971 .34899903 .2524414H.11199951M.11099243 .23144531H.3899994C.4119873 .23144531 .4149933 .23144531 .4149933 .2524414 .4149933 .35131837 .36099244 .4482422 .23599243 .4482422 .11999512 .4482422 .027999878 .34532167 .027999878 .22042847 .027999878 .08631897 .1329956-.0107421879 .24798584-.0107421879 .36999513-.0107421879 .4149933 .10032654 .4149933 .11933899 .4149933 .12934876 .40699769 .13134766 .4019928 .13134766 .3929901 .13134766 .3909912 .12535095 .3889923 .11734009 .35398866 .014251709 .2639923 .014251709 .2539978 .014251709 .20399475 .014251709 .1639862 .044281007 .14099121 .08131409 .11099243 .12934876 .11099243 .19540406 .11099243 .23144531Z"/>
<path id="font_3_7" d="M.1769867 .69433596 .032989503 .68333438V.6523285C.102996829 .6523285 .11099243 .6453247 .11099243 .5962982V.07601929C.11099243 .0309906 .099990848 .0309906 .032989503 .0309906V0C.06599426 .0009918213 .11898804 .0029907227 .14399719 .0029907227 .16899109 .0029907227 .21798706 .0009918213 .25498963 0V.0309906C.18798828 .0309906 .1769867 .0309906 .1769867 .07601929V.69433596Z"/>
<path id="font_3_3" d="M.17199707 .3773346V.69433596L.027999878 .68333438V.6523285C.09799194 .6523285 .10598755 .6453247 .10598755 .596344V0H.1309967C.13198853 .0009918213 .13999939 .01499939 .16699219 .062026979 .18199158 .039260866 .22399903-.0107421879 .2979889-.0107421879 .4169922-.0107421879 .5209961 .08728027 .5209961 .2163086 .5209961 .34335328 .4229889 .4423828 .30899049 .4423828 .23098755 .4423828 .18798828 .39535523 .17199707 .3773346M.1749878 .11407471V.32028199C.1749878 .33929444 .1749878 .3403015 .18598938 .35630799 .22499085 .41236878 .27999879 .42037965 .3039856 .42037965 .34899903 .42037965 .3849945 .39434815 .40899659 .35630799 .43499757 .3152771 .43798829 .2582245 .43798829 .21717835 .43798829 .18014527 .43598939 .12008667 .40699769 .075042728 .38598634 .044021608 .34799195 .010986328 .2939911 .010986328 .24899292 .010986328 .21299744 .035003663 .18899536 .07203674 .1749878 .093063358 .1749878 .096069339 .1749878 .11407471Z"/>
<path id="font_3_4" d="M.4149933 .33569337C.44099427 .39866639 .49198915 .3996582 .5079956 .3996582V.43066407C.4850006 .4286499 .45599366 .42765809 .43299867 .42765809 .4149933 .42765809 .36799623 .42965699 .34599305 .43066407V.3996582C.3769989 .39866639 .3929901 .3816681 .3929901 .35668946 .3929901 .34669496 .3919983 .34469605 .3869934 .33270265L.28599549 .08683777 .1749878 .35568238C.17098999 .36567689 .16899109 .36967469 .16899109 .3736725 .16899109 .3996582 .20599365 .3996582 .22499085 .3996582V.43066407C.19898987 .42965699 .1329956 .42765809 .115997318 .42765809 .08898926 .42765809 .04899597 .4286499 .018997193 .43066407V.3996582C.066986087 .3996582 .085998538 .3996582 .099990848 .36468507L.25-.00010681152C.24499512-.0131073 .23098755-.046081544 .22499085-.05908203 .20298767-.11405945 .1749878-.18309021 .11099243-.18309021 .10598755-.18309021 .08299255-.18309021 .06399536-.16506958 .09498596-.16105652 .102996829-.1390686 .102996829-.123062137 .102996829-.09706116 .083999637-.08105469 .06098938-.08105469 .040985109-.08105469 .018997193-.094055179 .018997193-.124069217 .018997193-.16906739 .06098938-.20507813 .11099243-.20507813 .17399597-.20507813 .21499634-.14805603 .23899842-.09106445L.4149933 .33569337Z"/>
<path id="font_4_3" d="M.58299258 .4033661C.59399417 .41436769 .59399417 .41636659 .59399417 .41937257 .59399417 .42536927 .58999636 .43138124 .58200076 .43138124 .57598879 .43138124 .57199099 .42637635 .56599429 .41937257L.33699037 .16418457C.29699708 .29127503 .2889862 .31629945 .2659912 .369339 .25498963 .39234925 .23298645 .4423828 .14498902 .4423828 .08699036 .4423828 .06098938 .39035035 .06098938 .37634278 .06098938 .3753357 .06098938 .366333 .07299805 .366333 .08198547 .366333 .083999637 .3723297 .085998538 .3773346 .100997928 .41636659 .1329956 .42037965 .13899231 .42037965 .16899109 .42037965 .19898987 .34431459 .21598816 .3002777 .24798584 .22122193 .27999879 .10513306 .27999879 .102127078 .27999879 .101135257 .27999879 .09913635 .27198792 .09112549L.041992189-.16607666C.0309906-.17707825 .0309906-.17907715 .0309906-.18208313 .0309906-.18807984 .036987306-.1940918 .042999269-.1940918 .049987794-.1940918 .054992677-.18708802 .05899048-.18309021L.28799439 .07411194C.31999208-.029968262 .33198548-.069000247 .35598756-.12504578 .36898805-.15505982 .3909912-.20507813 .47999574-.20507813 .5379944-.20507813 .5649872-.15306092 .5649872-.14006043 .5649872-.13505554 .5629883-.12904358 .5529938-.12904358 .54299929-.12904358 .5419922-.13304138 .5389862-.14305115 .5299988-.16706848 .5049896-.18309021 .48599244-.18309021 .43499757-.18309021 .36698915 .05909729 .34498597 .13615418L.58299258 .4033661Z"/>
<path id="font_5_1" d="M.7569885 .16801453H.72299197C.7220001 .16500855 .71299746 .117996219 .7049866 .09500122 .69898989 .07899475 .69599917 .070999149 .6339874 .070999149H.548996C.56599429 .1269989 .59498599 .16601563 .651001 .24102783 .69999697 .30703736 .74398806 .37306214 .74398806 .45407105 .74398806 .58909609 .598999 .703125 .40699769 .703125 .21499634 .703125 .069992069 .58909609 .069992069 .45407105 .069992069 .36605836 .117996219 .30104066 .18798828 .20701599 .21699524 .16900635 .24899292 .12400818 .2649994 .070999149H.17999268C.11999512 .070999149 .115997318 .07899475 .11099243 .08999634 .102996829 .10899353 .09098816 .16601563 .09098816 .16801453H.056991579L.09298706 0H.272995C.2939911 0 .30099488 0 .30099488 .021987915 .30099488 .09399414 .2639923 .17901612 .24299622 .22802735 .20498657 .31604005 .1769867 .38105775 .1769867 .45507813 .1769867 .59710696 .2899933 .67510989 .40699769 .67510989 .5249939 .67510989 .6369934 .59609988 .6369934 .45507813 .6369934 .38005067 .6069946 .31105042 .57299807 .23303223 .5509949 .18301392 .5130005 .09500122 .5130005 .022994996 .5130005 0 .5189972 0 .5419922 0H.72099307L.7569885 .16801453Z"/>
<path id="font_3_10" d="M.68699648 .32714845C.70199587 .32714845 .72099307 .32714845 .72099307 .34713746 .72099307 .36714173 .70199587 .36714173 .6879883 .36714173H.08898926C.07499695 .36714173 .055999757 .36714173 .055999757 .34713746 .055999757 .32714845 .07499695 .32714845 .08999634 .32714845H.68699648M.6879883 .13284302C.70199587 .13284302 .72099307 .13284302 .72099307 .15284729 .72099307 .17285156 .70199587 .17285156 .68699648 .17285156H.08999634C.07499695 .17285156 .055999757 .17285156 .055999757 .15284729 .055999757 .13284302 .07499695 .13284302 .08898926 .13284302H.6879883Z"/>
</defs>
<g clip-path="url(#clip_1)">
<use data-text="&#x2212;" xlink:href="#font_2_1" transform="matrix(9.96264,0,0,-9.96264,27.905316,150.85382)" fill="#231f20"/>
<use data-text="0" xlink:href="#font_3_13" transform="matrix(9.96264,0,0,-9.96264,35.70532,150.85382)" fill="#231f20"/>
<use data-text="." xlink:href="#font_4_5" transform="matrix(9.96264,0,0,-9.96264,40.74516,150.85382)" fill="#231f20"/>
<use data-text="0" xlink:href="#font_3_13" transform="matrix(9.96264,0,0,-9.96264,43.50532,150.85382)" fill="#231f20"/>
<use data-text="2" xlink:href="#font_3_15" transform="matrix(9.96264,0,0,-9.96264,48.54533,150.85382)" fill="#231f20"/>
<use data-text="0" xlink:href="#font_3_13" transform="matrix(9.96264,0,0,-9.96264,48.425245,110.533939)" fill="#231f20"/>
<use data-text="0" xlink:href="#font_3_13" transform="matrix(9.96264,0,0,-9.96264,35.70534,70.333988)" fill="#231f20"/>
<use data-text="." xlink:href="#font_4_5" transform="matrix(9.96264,0,0,-9.96264,40.745183,70.333988)" fill="#231f20"/>
<use data-text="0" xlink:href="#font_3_13" transform="matrix(9.96264,0,0,-9.96264,43.505346,70.333988)" fill="#231f20"/>
<use data-text="2" xlink:href="#font_3_15" transform="matrix(9.96264,0,0,-9.96264,48.545354,70.333988)" fill="#231f20"/>
<use data-text="0" xlink:href="#font_3_13" transform="matrix(9.96264,0,0,-9.96264,35.70534,30.134034)" fill="#231f20"/>
<use data-text="." xlink:href="#font_4_5" transform="matrix(9.96264,0,0,-9.96264,40.745183,30.134034)" fill="#231f20"/>
<use data-text="0" xlink:href="#font_3_13" transform="matrix(9.96264,0,0,-9.96264,43.505346,30.134034)" fill="#231f20"/>
<use data-text="4" xlink:href="#font_3_16" transform="matrix(9.96264,0,0,-9.96264,48.545354,30.134034)" fill="#231f20"/>
<use data-text="0" xlink:href="#font_3_13" transform="matrix(9.96264,0,0,-9.96264,57.545148,161.77405)" fill="#231f20"/>
<use data-text="2" xlink:href="#font_3_15" transform="matrix(9.96264,0,0,-9.96264,86.4651,161.77405)" fill="#231f20"/>
<use data-text="0" xlink:href="#font_3_13" transform="matrix(9.96264,0,0,-9.96264,91.5051,161.77405)" fill="#231f20"/>
<use data-text="4" xlink:href="#font_3_16" transform="matrix(9.96264,0,0,-9.96264,117.90491,161.77405)" fill="#231f20"/>
<use data-text="0" xlink:href="#font_3_13" transform="matrix(9.96264,0,0,-9.96264,122.944919,161.77405)" fill="#231f20"/>
<use data-text="6" xlink:href="#font_3_8" transform="matrix(9.96264,0,0,-9.96264,149.34473,161.77405)" fill="#231f20"/>
<use data-text="0" xlink:href="#font_3_13" transform="matrix(9.96264,0,0,-9.96264,154.38474,161.77405)" fill="#231f20"/>
<use data-text="8" xlink:href="#font_3_9" transform="matrix(9.96264,0,0,-9.96264,180.78455,161.77405)" fill="#231f20"/>
<use data-text="0" xlink:href="#font_3_13" transform="matrix(9.96264,0,0,-9.96264,185.82454,161.77405)" fill="#231f20"/>
<use data-text="1" xlink:href="#font_3_14" transform="matrix(9.96264,0,0,-9.96264,209.7045,161.77405)" fill="#231f20"/>
<use data-text="0" xlink:href="#font_3_13" transform="matrix(9.96264,0,0,-9.96264,214.74449,161.77405)" fill="#231f20"/>
<use data-text="0" xlink:href="#font_3_13" transform="matrix(9.96264,0,0,-9.96264,219.7845,161.77405)" fill="#231f20"/>
<path transform="matrix(.1,0,0,-.1,-28.854886,1100.1939)" stroke-width="2.5" stroke-linecap="butt" stroke-miterlimit="3.8" stroke-linejoin="miter" fill="none" stroke="#000000" d="M888.199 9517.8H919.699M2460.7 9517.8H2429.2"/>
<path transform="matrix(.1,0,0,-.1,-28.854886,1100.1939)" stroke-width="2.5" stroke-linecap="butt" stroke-miterlimit="3.8" stroke-linejoin="miter" fill="none" stroke="#000000" d="M888.199 9920.3H919.699M2460.7 9920.3H2429.2"/>
<path transform="matrix(.1,0,0,-.1,-28.854886,1100.1939)" stroke-width="2.5" stroke-linecap="butt" stroke-miterlimit="3.8" stroke-linejoin="miter" fill="none" stroke="#000000" d="M888.199 10322.8H919.699M2460.7 10322.8H2429.2"/>
<path transform="matrix(.1,0,0,-.1,-28.854886,1100.1939)" stroke-width="2.5" stroke-linecap="butt" stroke-miterlimit="3.8" stroke-linejoin="miter" fill="none" stroke="#000000" d="M888.199 10725.3H919.699M2460.7 10725.3H2429.2"/>
<path transform="matrix(.1,0,0,-.1,-28.854886,1100.1939)" stroke-width="2.5" stroke-linecap="butt" stroke-miterlimit="3.8" stroke-linejoin="miter" fill="none" stroke="#000000" d="M888.199 9517.8V9549.3M888.199 10725.3V10693.8"/>
<path transform="matrix(.1,0,0,-.1,-28.854886,1100.1939)" stroke-width="2.5" stroke-linecap="butt" stroke-miterlimit="3.8" stroke-linejoin="miter" fill="none" stroke="#000000" d="M1202.7 9517.8V9549.3M1202.7 10725.3V10693.8"/>
<path transform="matrix(.1,0,0,-.1,-28.854886,1100.1939)" stroke-width="2.5" stroke-linecap="butt" stroke-miterlimit="3.8" stroke-linejoin="miter" fill="none" stroke="#000000" d="M1517.2 9517.8V9549.3M1517.2 10725.3V10693.8"/>
<path transform="matrix(.1,0,0,-.1,-28.854886,1100.1939)" stroke-width="2.5" stroke-linecap="butt" stroke-miterlimit="3.8" stroke-linejoin="miter" fill="none" stroke="#000000" d="M1831.7 9517.8V9549.3M1831.7 10725.3V10693.8"/>
<path transform="matrix(.1,0,0,-.1,-28.854886,1100.1939)" stroke-width="2.5" stroke-linecap="butt" stroke-miterlimit="3.8" stroke-linejoin="miter" fill="none" stroke="#000000" d="M2146.2 9517.8V9549.3M2146.2 10725.3V10693.8"/>
<path transform="matrix(.1,0,0,-.1,-28.854886,1100.1939)" stroke-width="2.5" stroke-linecap="butt" stroke-miterlimit="3.8" stroke-linejoin="miter" fill="none" stroke="#000000" d="M2460.7 9517.8V9549.3M2460.7 10725.3V10693.8"/>
<path transform="matrix(.1,0,0,-.1,-28.854886,1100.1939)" stroke-width="2.5" stroke-linecap="butt" stroke-miterlimit="3.8" stroke-linejoin="miter" fill="none" stroke="#000000" d="M888.199 10725.3V9517.8H2460.7V10725.3H888.199Z"/>
<path transform="matrix(.1,0,0,-.1,-28.854886,1100.1939)" stroke-width="2.5" stroke-linecap="butt" stroke-miterlimit="3.8" stroke-linejoin="miter" fill="none" stroke="#000000" d="M1757.7 10638.8H2053.2M888.199 9686.3V9717.3L888.699 9723.8V9912.8L889.199 9946.8V9984.8 10026.8 10072.3 10121.8 10174.3L889.699 10230.3V10287.8 10347.3L890.199 10406.8V10465.3 10521.8L890.699 10574.3V10621.8L891.199 10662.8V10695.3L891.699 10718.8V10725.3M892.699 10725.3 893.199 10708.3 893.699 10679.8 894.199 10642.3 894.699 10596.8 895.199 10545.3 896.199 10488.3 896.699 10428.3 897.699 10366.3 898.699 10303.3 899.699 10241.3 900.699 10180.8 901.699 10123.3 903.199 10069.3 904.699 10019.8 906.199 9975.8 908.199 9937.3 910.199 9904.8 912.199 9878.3 914.199 9858.3 917.199 9843.8 919.699 9835.3 922.699 9830.8H926.199L930.199 9833.8 934.199 9839.3 938.699 9845.8 943.199 9852.8 948.699 9859.8 954.699 9866.3 961.199 9872.3 968.199 9876.8 976.199 9880.3 984.699 9883.3 994.199 9885.3 1004.2 9886.8 1015.7 9887.8 1028.2 9888.3H1041.7L1056.7 9888.8H1073.2L1091.2 9888.3H1111.2 1132.7 1156.7L1182.7 9887.8H1211.7 1243.2 1277.7 1315.7 1357.2 1403.2 1453.2L1508.2 9887.3H1568.7 1635.2 1708.2 1788.2 1875.7 1972.2 2077.7 2193.7 2321.2 2460.7"/>
<path transform="matrix(.1,0,0,-.1,-28.854886,1100.1939)" stroke-width="2.5" stroke-linecap="butt" stroke-miterlimit="3.8" stroke-linejoin="miter" fill="none" stroke="#000000" d="M1045.7 9686.3V9736.8L1046.2 9745.8V9832.8L1046.7 9854.3V9877.3 9902.3 9928.8 9957.3L1047.2 9986.8V10017.3 10047.8L1047.7 10077.8V10106.8L1048.2 10133.3V10157.3L1048.7 10177.8V10193.3L1049.2 10204.3 1049.7 10209.3V10207.8L1050.2 10200.8 1050.7 10187.8 1051.2 10169.8 1051.7 10146.3 1052.7 10119.3 1053.2 10088.8 1054.2 10056.3 1054.7 10022.3 1055.7 9988.3 1056.7 9954.3 1057.7 9921.3 1059.2 9890.3 1060.7 9861.3 1061.7 9835.3 1063.7 9812.8 1065.2 9793.3 1067.2 9777.8 1069.2 9765.3 1071.7 9756.8 1074.2 9751.8 1077.2 9749.8 1080.2 9750.3 1083.7 9752.8 1087.2 9757.3 1091.2 9762.3 1095.7 9768.3 1100.7 9773.8 1106.2 9779.3 1112.2 9784.3 1118.2 9788.3 1125.7 9791.8 1133.2 9794.8 1141.7 9797.3 1151.2 9799.3 1161.7 9800.8 1173.2 9801.8 1185.2 9802.8 1199.2 9803.8 1214.2 9804.8 1230.7 9805.8 1248.7 9806.3 1268.2 9806.8 1290.2 9807.3 1313.7 9807.8 1340.2 9808.3H1368.7 1400.2 1435.2 1472.7 1514.7 1560.2 1610.7 1665.7 1726.2 1792.7L1865.2 9807.8H1945.2 2033.2 2129.2 2235.2 2351.2 2460.7"/>
<path transform="matrix(.1,0,0,-.1,-28.854886,1100.1939)" stroke-width="2.5" stroke-linecap="butt" stroke-miterlimit="3.8" stroke-linejoin="miter" fill="none" stroke="#000000" d="M1202.7 9686.3V9686.8H1203.2V9691.3L1203.7 9692.3V9693.8 9694.8 9696.3 9697.8 9699.8L1204.2 9701.3V9703.8 9705.8L1204.7 9708.3V9710.8 9712.8L1205.2 9715.3V9717.8L1205.7 9719.8V9721.3L1206.2 9722.8V9723.8L1206.7 9724.3 1207.2 9723.8 1207.7 9722.8 1208.2 9721.3 1208.7 9718.8 1209.2 9715.8 1209.7 9712.3 1210.7 9708.3 1211.2 9703.8 1212.2 9699.3 1213.2 9694.8 1214.2 9690.3 1215.2 9685.8 1216.2 9682.3 1217.7 9678.8 1219.2 9676.3 1220.7 9674.3 1222.7 9672.8 1224.7 9672.3H1226.7L1228.7 9672.8 1231.7 9674.3 1234.2 9676.3 1237.2 9678.8 1240.7 9681.3 1244.7 9683.8 1248.7 9686.8 1253.2 9689.3 1257.7 9691.8 1263.2 9693.8 1269.2 9695.8 1275.7 9696.8 1282.7 9697.8 1290.7 9698.3H1299.2 1308.7L1318.7 9697.8H1330.2L1342.7 9697.3 1356.2 9696.3 1371.2 9695.8 1387.7 9695.3 1405.7 9694.8 1425.7 9694.3 1447.2 9693.8H1471.2L1497.2 9693.3H1526.2L1557.7 9692.8H1592.2 1630.2 1671.7 1717.7 1767.7 1822.7 1883.2 1949.7 2022.7 2102.7 2190.2 2286.7 2392.2 2460.7"/>
<path transform="matrix(.1,0,0,-.1,-28.854886,1100.1939)" stroke-width="2.5" stroke-linecap="butt" stroke-miterlimit="3.8" stroke-linejoin="miter" fill="none" stroke="#000000" d="M1360.2 9686.3H1364.2V9686.8H1366.2L1367.2 9687.3H1367.7 1368.7L1369.2 9687.8 1370.2 9688.3 1371.2 9688.8 1372.2 9689.3 1373.7 9690.3 1375.2 9691.3 1376.2 9692.3 1378.2 9693.8 1379.7 9695.3 1381.7 9696.8 1383.7 9698.8 1386.2 9700.8 1388.7 9702.8 1391.7 9705.3 1394.7 9707.8 1398.2 9710.3 1401.7 9712.8 1405.7 9715.8 1410.2 9718.3 1415.2 9720.8 1420.7 9723.8 1426.7 9726.3 1432.7 9728.8 1440.2 9730.8 1447.7 9732.8 1456.2 9734.8 1465.7 9736.8 1476.2 9738.8 1487.7 9740.3 1499.7 9741.8 1513.7 9743.8 1528.7 9745.3 1545.2 9746.3 1563.2 9747.8 1582.7 9749.3 1604.7 9750.8 1628.2 9751.8 1654.7 9753.3 1683.2 9754.3 1714.7 9755.3 1749.7 9756.3 1787.2 9757.3 1829.2 9757.8 1874.7 9758.3 1925.2 9758.8 1980.2 9759.3 2040.7 9759.8H2107.2 2179.7 2259.7L2347.7 9760.3H2443.7 2460.7"/>
<path transform="matrix(.1,0,0,-.1,-28.854886,1100.1939)" stroke-width="2.5" stroke-linecap="butt" stroke-miterlimit="3.8" stroke-linejoin="miter" fill="none" stroke="#000000" d="M1517.2 9686.3H1518.2V9686.8H1521.7L1522.2 9687.3H1522.7 1523.2 1523.7L1524.2 9687.8H1525.2 1525.7L1526.7 9688.3H1527.7L1528.7 9688.8H1529.7L1530.7 9689.3 1532.2 9689.8 1533.7 9690.3 1535.2 9690.8 1537.2 9691.3 1539.2 9691.8 1541.2 9692.8 1543.2 9693.3 1546.2 9694.3 1548.7 9695.3 1551.7 9696.3 1555.2 9697.3 1559.2 9698.3 1563.2 9699.3 1567.7 9700.8 1572.2 9701.8 1577.7 9703.3 1583.7 9704.8 1590.2 9705.8 1597.2 9707.3 1605.2 9708.8 1613.7 9709.8 1623.2 9711.3 1633.2 9712.3 1644.7 9713.8 1657.2 9714.8 1670.7 9716.3 1685.7 9717.3 1702.2 9718.3 1720.2 9719.3 1740.2 9720.3 1761.7 9721.3 1785.7 9722.3 1811.7 9723.3 1840.7 9723.8 1872.2 9724.8 1906.7 9725.3 1944.7 9725.8 1986.2 9726.3 2032.2 9726.8 2082.2 9727.3H2137.2 2197.7L2264.2 9727.8H2337.2 2417.2 2460.7"/>
<path transform="matrix(.1,0,0,-.1,-28.854886,1100.1939)" stroke-width="2.5" stroke-linecap="butt" stroke-miterlimit="3.8" stroke-linejoin="miter" fill="none" stroke="#000000" d="M1674.7 9686.3H1676.7V9686.8H1685.7L1686.7 9687.3H1688.2 1689.7 1690.7 1692.7 1694.2L1696.2 9687.8H1698.2 1700.7L1703.2 9688.3H1706.2 1709.2L1712.7 9688.8H1716.2L1720.2 9689.3H1724.7L1729.7 9689.8H1735.2L1741.2 9690.3H1747.2L1754.7 9690.8 1762.2 9691.3H1770.7L1780.2 9691.8H1790.7L1802.2 9692.3 1814.2 9692.8H1828.2L1843.2 9693.3H1859.7L1877.7 9693.8H1897.2L1919.2 9694.3H1942.7L1969.2 9694.8H1997.7 2029.2L2064.2 9695.3H2101.7 2143.7 2189.2 2239.7 2294.7L2355.2 9695.8H2421.7 2460.7"/>
<path transform="matrix(.1,0,0,-.1,-28.854886,1100.1939)" stroke-width="2.5" stroke-linecap="butt" stroke-dasharray="10,15" stroke-miterlimit="3.8" stroke-linejoin="miter" fill="none" stroke="#000000" d="M1757.7 10528.8H2053.2M888.199 9920.3V9685.3 9715.3L888.699 9722.3V9730.8 9740.8 9752.8 9766.8 9783.8 9803.8 9826.8 9854.3 9885.3 9920.8L889.199 9961.3V10006.8 10056.8 10111.8 10171.3L889.699 10234.3V10300.3 10367.8L890.199 10434.8V10500.3L890.699 10561.3V10616.3L891.199 10662.8V10698.8L891.699 10722.3V10725.3M892.699 10725.3 893.199 10712.8 893.699 10682.8 894.199 10641.3 894.699 10589.3 895.699 10529.3 896.199 10463.3 897.199 10393.8 898.199 10322.3 899.199 10251.3 900.699 10182.3 901.699 10116.8 903.699 10055.8 905.199 10000.8 907.199 9953.3 909.199 9912.8 911.699 9880.8 914.199 9856.3 916.699 9839.8 920.199 9830.8 923.699 9827.3 927.699 9828.8 931.699 9833.8 936.699 9841.3 942.199 9849.8 948.199 9857.8 954.699 9865.3 962.199 9871.3 970.699 9876.3 979.699 9879.8 989.699 9882.3 1001.2 9884.3 1013.7 9885.3 1027.7 9885.8 1043.2 9886.3H1060.2 1079.2 1100.7 1124.2 1150.7 1179.7 1212.2 1247.7 1287.7 1332.2L1381.7 9885.8H1436.7 1497.2 1565.2 1640.2 1723.7 1816.7 1919.7 2034.7 2161.7 2303.7"/>
<path transform="matrix(.1,0,0,-.1,-28.854886,1100.1939)" stroke-width="2.5" stroke-linecap="butt" stroke-dasharray="10,15" stroke-miterlimit="3.8" stroke-linejoin="miter" fill="none" stroke="#000000" d="M2303.7 9885.8H2460.7"/>
<path transform="matrix(.1,0,0,-.1,-28.854886,1100.1939)" stroke-width="2.5" stroke-linecap="butt" stroke-dasharray="10,15" stroke-miterlimit="3.8" stroke-linejoin="miter" fill="none" stroke="#000000" d="M888.199 9920.3H1045.7V9685.3 9733.3L1046.2 9743.3V9755.3 9768.8 9784.3 9802.3 9822.8 9845.8L1046.7 9871.8V9899.8 9930.3 9962.8L1047.2 9996.3V10031.3L1047.7 10065.3V10098.8L1048.2 10129.8V10156.8L1048.7 10179.3V10195.8L1049.2 10205.3 1049.7 10207.8 1050.2 10201.8 1050.7 10188.8 1051.2 10168.3 1052.2 10141.8 1052.7 10110.3 1053.7 10074.8 1054.7 10036.8 1055.7 9997.8 1056.7 9959.3 1057.7 9921.3 1059.2 9886.3 1060.7 9853.8 1062.2 9825.3 1064.2 9800.8 1066.2 9780.8 1068.7 9765.8 1071.2 9755.3 1074.2 9749.3 1077.2 9747.3 1080.7 9748.8 1084.7 9752.8 1089.2 9758.3 1094.2 9764.8 1099.2 9771.3 1105.2 9777.8 1112.2 9783.3 1119.7 9787.8 1127.7 9791.8 1136.7 9794.8 1147.2 9796.8 1158.2 9798.8 1170.7 9800.3 1184.7 9801.3 1200.2 9802.3 1217.7 9803.3 1236.7 9804.3 1257.7 9804.8 1281.7 9805.3 1307.7 9805.8 1336.7 9806.3H1369.2L1405.2 9806.8H1445.2 1489.7 1538.7L1593.7 9806.3H1654.7 1722.2 1797.7 1881.2 1974.2 2077.2 2191.7L2319.2 9805.8H2460.7"/>
<path transform="matrix(.1,0,0,-.1,-28.854886,1100.1939)" stroke-width="2.5" stroke-linecap="butt" stroke-dasharray="10,15" stroke-miterlimit="3.8" stroke-linejoin="miter" fill="none" stroke="#000000" d="M888.199 9920.3H1202.7V9685.3 9685.8H1203.2V9686.3 9686.8 9687.3 9687.8 9688.8 9689.3 9690.3L1203.7 9691.3V9692.8 9694.3 9696.3 9697.8L1204.2 9700.3V9702.3 9705.3L1204.7 9707.8V9710.3L1205.2 9713.3V9715.8L1205.7 9718.3V9720.3L1206.2 9721.8 1206.7 9722.8H1207.2V9722.3L1207.7 9720.3 1208.7 9717.8 1209.2 9714.3 1209.7 9710.3 1210.7 9705.8 1211.7 9700.8 1212.7 9695.8 1213.7 9690.3 1214.7 9685.8 1216.2 9681.3 1217.7 9677.3 1219.2 9674.3 1221.2 9672.3 1223.2 9671.3 1225.7 9670.8 1228.2 9671.3 1231.2 9672.8 1234.2 9675.3 1237.7 9677.8 1241.7 9680.8 1245.7 9684.3 1250.7 9687.3 1256.2 9690.3 1262.2 9692.8 1268.7 9694.8 1275.7 9695.8 1284.2 9696.8 1293.2 9697.3H1303.2 1314.2L1326.7 9696.8 1340.2 9696.3 1355.7 9695.3 1372.7 9694.8 1391.7 9694.3 1412.7 9693.8 1435.7 9693.3 1461.7 9692.8 1490.7 9692.3 1522.7 9691.8H1558.2 1597.7 1641.2L1690.2 9691.3H1744.2 1804.2 1871.2 1945.7 2028.2 2119.7 2221.7 2334.7 2460.7"/>
<path transform="matrix(.1,0,0,-.1,-28.854886,1100.1939)" stroke-width="2.5" stroke-linecap="butt" stroke-dasharray="10,15" stroke-miterlimit="3.8" stroke-linejoin="miter" fill="none" stroke="#000000" d="M888.199 9920.3H1360.2V9685.3H1364.7L1365.2 9685.8H1365.7 1366.2 1367.2L1367.7 9686.3H1368.7L1369.7 9686.8 1370.7 9687.3 1371.7 9688.3 1373.2 9688.8 1374.7 9689.8 1376.2 9691.3 1378.2 9692.8 1380.2 9694.3 1382.2 9696.3 1384.7 9698.3 1387.7 9700.8 1390.7 9703.3 1394.2 9706.3 1397.7 9709.3 1401.7 9712.3 1406.7 9715.3 1411.7 9718.3 1417.7 9721.3 1424.2 9724.3 1431.2 9727.3 1439.2 9729.8 1447.7 9732.3 1457.7 9734.8 1468.2 9736.8 1480.2 9738.8 1493.7 9740.8 1508.7 9742.3 1525.2 9744.3 1543.7 9745.8 1563.7 9747.3 1586.7 9748.8 1611.7 9750.3 1639.7 9751.8 1670.7 9753.3 1705.2 9754.3 1743.7 9755.8 1786.2 9756.3 1833.7 9757.3 1886.2 9757.8 1944.7 9758.3 2009.7 9758.8 2082.2 9759.3H2162.2 2251.7 2350.7L2460.7 9759.8"/>
<path transform="matrix(.1,0,0,-.1,-28.854886,1100.1939)" stroke-width="2.5" stroke-linecap="butt" stroke-dasharray="10,15" stroke-miterlimit="3.8" stroke-linejoin="miter" fill="none" stroke="#000000" d="M888.199 9920.3H1517.2V9685.3H1518.7V9685.8H1519.2 1519.7 1520.2 1520.7 1521.2 1521.7L1522.2 9686.3H1522.7 1523.2 1523.7L1524.7 9686.8H1525.2 1526.2L1527.2 9687.3 1528.7 9687.8H1529.7L1531.2 9688.3 1532.7 9688.8 1534.2 9689.3 1536.2 9689.8 1538.7 9690.8 1540.7 9691.3 1543.2 9692.3 1546.2 9693.3 1549.7 9694.3 1553.2 9695.8 1557.2 9696.8 1561.7 9698.3 1566.7 9699.8 1572.2 9700.8 1578.2 9702.3 1584.7 9703.8 1592.7 9705.8 1600.7 9707.3 1610.2 9708.8 1620.2 9709.8 1631.7 9711.3 1644.7 9712.8 1658.7 9714.3 1674.7 9715.8 1692.2 9716.8 1711.7 9718.3 1733.2 9719.3 1757.2 9720.3 1783.7 9721.3 1813.2 9722.3 1846.2 9723.3 1882.7 9724.3 1923.2 9724.8 1968.7 9725.3 2018.7 9725.8 2074.2 9726.3 2136.2 9726.8H2205.2 2281.2L2366.2 9727.3H2460.7"/>
<path transform="matrix(.1,0,0,-.1,-28.854886,1100.1939)" stroke-width="2.5" stroke-linecap="butt" stroke-dasharray="10,15" stroke-miterlimit="3.8" stroke-linejoin="miter" fill="none" stroke="#000000" d="M888.199 9920.3H1674.7V9685.3H1678.7L1679.2 9685.8H1679.7 1680.2 1680.7 1681.2 1682.2 1682.7 1683.7 1684.7 1686.2 1687.2L1688.7 9686.3H1690.2 1692.2 1694.2L1696.2 9686.8H1698.7 1701.2L1704.2 9687.3H1707.7L1711.7 9687.8H1715.7L1720.2 9688.3H1725.2L1730.7 9688.8H1737.2L1744.2 9689.3 1751.7 9689.8H1760.7L1770.2 9690.3 1780.7 9690.8 1792.7 9691.3H1805.7L1820.2 9691.8H1836.2L1854.2 9692.3 1874.2 9692.8H1896.7L1921.2 9693.3H1948.7L1979.2 9693.8H2012.7L2050.7 9694.3H2092.2 2138.7 2190.2 2247.7L2311.2 9694.8H2382.2 2460.7"/>
<path transform="matrix(.1,0,0,-.1,-28.854886,1100.1939)" stroke-width="2.5" stroke-linecap="butt" stroke-miterlimit="3.8" stroke-linejoin="miter" fill="none" stroke="#000000" d="M888.199 10725.3V9517.8H2460.7V10725.3H888.199Z"/>
<use data-text="A" xlink:href="#font_4_1" transform="matrix(0,-9.96264,-9.96264,-0,10.745113,100.09387)" fill="#231f20"/>
<use data-text="3" xlink:href="#font_5_3" transform="matrix(0,-6.97385,-6.97385,-0,12.184952,92.65405)" fill="#231f20"/>
<use data-text="3" xlink:href="#font_5_3" transform="matrix(0,-6.97385,-6.97385,-0,12.184952,88.69409)" fill="#231f20"/>
<use data-text="1" xlink:href="#font_5_2" transform="matrix(0,-6.97385,-6.97385,-0,12.184952,84.73407)" fill="#231f20"/>
<use data-text="1" xlink:href="#font_5_2" transform="matrix(0,-6.97385,-6.97385,-0,12.184952,80.77411)" fill="#231f20"/>
<use data-text="t" xlink:href="#font_4_2" transform="matrix(9.96264,0,0,-9.96264,136.74512,178.33386)" fill="#231f20"/>
<use data-text="A" xlink:href="#font_4_1" transform="matrix(9.96264,0,0,-9.96264,115.62521,13.573853)" fill="#231f20"/>
<use data-text="3" xlink:href="#font_5_3" transform="matrix(6.97385,0,0,-6.97385,123.06505,15.013672)" fill="#231f20"/>
<use data-text="3" xlink:href="#font_5_3" transform="matrix(6.97385,0,0,-6.97385,127.025058,15.013672)" fill="#231f20"/>
<use data-text="1" xlink:href="#font_5_2" transform="matrix(6.97385,0,0,-6.97385,130.98506,15.013672)" fill="#231f20"/>
<use data-text="1" xlink:href="#font_5_2" transform="matrix(6.97385,0,0,-6.97385,134.94509,15.013672)" fill="#231f20"/>
<use data-text="(" xlink:href="#font_3_11" transform="matrix(9.96264,0,0,-9.96264,139.38495,13.573853)" fill="#231f20"/>
<use data-text="t" xlink:href="#font_4_2" transform="matrix(9.96264,0,0,-9.96264,143.2248,13.573853)" fill="#231f20"/>
<use data-text="," xlink:href="#font_4_4" transform="matrix(9.96264,0,0,-9.96264,146.8248,13.573853)" fill="#231f20"/>
<use data-text="t" xlink:href="#font_4_2" transform="matrix(9.96264,0,0,-9.96264,151.26432,13.573853)" fill="#231f20"/>
<use data-text="&#x2032;" xlink:href="#font_6_1" transform="matrix(6.97385,0,0,-6.97385,154.86499,9.973877)" fill="#231f20"/>
<use data-text=")" xlink:href="#font_3_12" transform="matrix(9.96264,0,0,-9.96264,157.74507,13.573853)" fill="#231f20"/>
<use data-text="E" xlink:href="#font_3_1" transform="matrix(9.96264,0,0,-9.96264,106.38487,38.773805)" fill="#231f20"/>
<use data-text="s" xlink:href="#font_3_2" transform="matrix(9.96264,0,0,-9.96264,113.22487,38.773805)" fill="#231f20"/>
<use data-text="h" xlink:href="#font_3_6" transform="matrix(9.96264,0,0,-9.96264,117.18486,38.773805)" fill="#231f20"/>
<use data-text="e" xlink:href="#font_3_5" transform="matrix(9.96264,0,0,-9.96264,122.704868,38.773805)" fill="#231f20"/>
<use data-text="l" xlink:href="#font_3_7" transform="matrix(9.96264,0,0,-9.96264,127.14487,38.773805)" fill="#231f20"/>
<use data-text="b" xlink:href="#font_3_3" transform="matrix(9.96264,0,0,-9.96264,129.90453,38.773805)" fill="#231f20"/>
<use data-text="y" xlink:href="#font_3_4" transform="matrix(9.96264,0,0,-9.96264,135.18454,38.773805)" fill="#231f20"/>
<use data-text="&#x03c7;" xlink:href="#font_4_3" transform="matrix(9.96264,0,0,-9.96264,104.705188,49.693727)" fill="#231f20"/>
<use data-text="&#x2126;" xlink:href="#font_5_1" transform="matrix(6.97385,0,0,-6.97385,110.94502,51.133546)" fill="#231f20"/>
<use data-text="=" xlink:href="#font_3_10" transform="matrix(9.96264,0,0,-9.96264,119.8251,49.693727)" fill="#231f20"/>
<use data-text="4" xlink:href="#font_3_16" transform="matrix(9.96264,0,0,-9.96264,130.38526,49.693727)" fill="#231f20"/>
<use data-text="0" xlink:href="#font_3_13" transform="matrix(9.96264,0,0,-9.96264,135.42527,49.693727)" fill="#231f20"/>
</g>
</svg>
