<svg xmlns="http://www.w3.org/2000/svg" xmlns:xlink="http://www.w3.org/1999/xlink" xmlns:inkscape="http://www.inkscape.org/namespaces/inkscape" version="1.1" width="222.8291" height="183.44916" viewBox="0 0 222.8291 183.44916">
<defs>
<clipPath id="clip_1">
<path transform="matrix(1,0,0,-1,-28.75264,1100.1939)" d="M28.75264 916.7447H251.58174V1100.1939H28.75264Z" clip-rule="evenodd"/>
</clipPath>
<path id="font_2_8" d="M.45999146 .31976319C.45999146 .39982606 .45498658 .47988893 .41999818 .5539398 .37399293 .65000918 .2919922 .6660156 .25 .6660156 .18998719 .6660156 .116989139 .64001467 .07598877 .54693606 .04399109 .47789 .038986207 .39982606 .038986207 .31976319 .038986207 .24472046 .042999269 .15464783 .083999637 .07859802 .1269989-.0024719239 .19999695-.022460938 .24899292-.022460938 .30299378-.022460938 .3789978-.0014648438 .4229889 .09359741 .45498658 .16265869 .45999146 .2407074 .45999146 .31976319M.24899292-.00047302247C.20999146-.00047302247 .15098572 .024551392 .1329956 .12062073 .12199402 .18066406 .12199402 .2727356 .12199402 .3317871 .12199402 .39582826 .12199402 .46188355 .12998963 .5159149 .14898682 .63500979 .22399903 .64401248 .24899292 .64401248 .28199769 .64401248 .34799195 .6259918 .36698915 .52693179 .3769989 .47088624 .3769989 .39482118 .3769989 .3317871 .3769989 .25672914 .3769989 .18867493 .3659973 .12461853 .35099793 .029556275 .2939911-.00047302247 .24899292-.00047302247Z"/>
<path id="font_2_7" d="M.19198609 .052993776C.19198609 .08198547 .16799927 .10598755 .13899231 .10598755 .10998535 .10598755 .085998538 .08198547 .085998538 .052993776 .085998538 .023986817 .10998535 0 .13899231 0 .16799927 0 .19198609 .023986817 .19198609 .052993776Z"/>
<path id="font_2_10" d="M.1269989 .07699585 .23298645 .18003845C.3889923 .31811524 .44898988 .3721466 .44898988 .47216798 .44898988 .5860901 .35899354 .6660156 .23699951 .6660156 .12399292 .6660156 .049987794 .57411196 .049987794 .48516847 .049987794 .4291687 .099990848 .4291687 .102996829 .4291687 .11999512 .4291687 .15499878 .44117738 .15499878 .48217774 .15499878 .5081787 .13699341 .5341797 .101989749 .5341797 .09399414 .5341797 .09199524 .5341797 .08898926 .5331726 .11199951 .59806826 .1659851 .63500979 .22399903 .63500979 .31498719 .63500979 .35798646 .5541382 .35798646 .47216798 .35798646 .39215089 .30799867 .31311036 .25299073 .25108338L.06098938 .036987306C.049987794 .025985718 .049987794 .023986817 .049987794 0H.42099L.44898988 .17404175H.42399598C.4189911 .14402771 .4119873 .1000061 .4019928 .084991458 .394989 .07699585 .32899476 .07699585 .30699159 .07699585H.1269989Z"/>
<path id="font_2_11" d="M.2899933 .35191346C.37199403 .37893678 .42999269 .4490509 .42999269 .52809146 .42999269 .6100464 .34199525 .6660156 .24598694 .6660156 .14498902 .6660156 .068984989 .60606387 .068984989 .53009036 .068984989 .49710084 .09098816 .47808839 .11999512 .47808839 .15098572 .47808839 .17098999 .50009158 .17098999 .5290985 .17098999 .57910159 .12399292 .57910159 .10899353 .57910159 .13999939 .62802127 .20599365 .64100649 .24198914 .64100649 .2829895 .64100649 .33799745 .6190338 .33799745 .5290985 .33799745 .51708987 .33599855 .45906068 .30999757 .4149933 .27999879 .36691285 .24598694 .36390687 .22099304 .36291505 .21299744 .36190797 .18899536 .35990907 .18199158 .35990907 .17399597 .35890199 .16699219 .35791017 .16699219 .3479004 .16699219 .33691407 .17399597 .33691407 .19099427 .33691407H.23498535C.31698609 .33691407 .35398866 .2686615 .35398866 .17037964 .35398866 .034469606 .2849884 .0055389406 .24099732 .0055389406 .19799805 .0055389406 .12298584 .022491456 .08799744 .08137512 .12298584 .07637024 .1539917 .09837341 .1539917 .1363678 .1539917 .17237854 .1269989 .19238281 .09799194 .19238281 .07398987 .19238281 .041992189 .17837525 .041992189 .1343689 .041992189 .043441774 .1349945-.022460938 .24398804-.022460938 .3659973-.022460938 .45700074 .06838989 .45700074 .17037964 .45700074 .252594 .3939972 .33088685 .2899933 .35191346Z"/>
<path id="font_2_12" d="M.2939911 .16503906V.07800293C.2939911 .041992189 .2919922 .0309906 .21798706 .0309906H.19699097V0C.23799134 .0029907227 .2899933 .0029907227 .33198548 .0029907227 .37399293 .0029907227 .4269867 .0029907227 .46798707 0V.0309906H.44699098C.37298585 .0309906 .37098695 .041992189 .37098695 .07800293V.16503906H.47099305V.19602967H.37098695V.65075686C.37098695 .67074587 .37098695 .6767578 .35499574 .6767578 .34599305 .6767578 .34298707 .6767578 .33499146 .66474917L.027999878 .19602967V.16503906H.2939911M.2999878 .19602967H.055999757L.2999878 .5688019V.19602967Z"/>
<path id="font_2_13" d="M.44898988 .20022583C.44898988 .3193512 .36698915 .41944886 .25898744 .41944886 .21099854 .41944886 .16799927 .40345765 .13198853 .36842347V.5637665C.1519928 .5577698 .18499756 .55078127 .21699524 .55078127 .33999635 .55078127 .4099884 .6417694 .4099884 .6547699 .4099884 .6607666 .40699769 .6657715 .3999939 .6657715 .39898683 .6657715 .39698792 .6657715 .3919983 .66278079 .37199403 .6537781 .32299806 .6337738 .2559967 .6337738 .21598816 .6337738 .16999817 .6407776 .12298584 .6617737 .114990238 .66477969 .11299133 .66477969 .11099243 .66477969 .100997928 .66477969 .100997928 .6567688 .100997928 .6407776V.34439088C.100997928 .32637025 .100997928 .31835938 .114990238 .31835938 .12199402 .31835938 .12399292 .32136537 .12799073 .32736207 .13899231 .3433838 .17599488 .39746095 .25698854 .39746095 .30899049 .39746095 .33399964 .35139466 .34199525 .33337403 .35798646 .29632569 .3600006 .25727845 .3600006 .20722962 .3600006 .17222595 .3600006 .11222839 .33599855 .07035828 .31199647 .031463624 .2749939 .0055389406 .22898865 .0055389406 .1559906 .0055389406 .09899902 .058380128 .08198547 .11723328 .084991458 .1162262 .08799744 .115234378 .09899902 .115234378 .13198853 .115234378 .14898682 .14022827 .14898682 .16423035 .14898682 .18823242 .13198853 .21322632 .09899902 .21322632 .084991458 .21322632 .049987794 .20622254 .049987794 .16023255 .049987794 .07434082 .11898804-.022460938 .23098755-.022460938 .34700013-.022460938 .44898988 .073349 .44898988 .20022583Z"/>
<path id="font_2_4" d="M.13198853 .327713V.35173036C.13198853 .6047821 .2559967 .64100649 .30699159 .64100649 .33099366 .64100649 .37298585 .634964 .394989 .6007538 .37998963 .6007538 .33999635 .6007538 .33999635 .5557556 .33999635 .524765 .3639984 .5097656 .38598634 .5097656 .4019928 .5097656 .43199159 .51875308 .43199159 .5577545 .43199159 .6178589 .3880005 .6660156 .30499269 .6660156 .1769867 .6660156 .041992189 .5367584 .041992189 .31570436 .041992189 .048553468 .1579895-.022460938 .25099183-.022460938 .3619995-.022460938 .45700074 .07156372 .45700074 .2036438 .45700074 .33070375 .36799623 .4267578 .25698854 .4267578 .18899536 .4267578 .1519928 .37573243 .13198853 .327713M.25099183 .0055389406C.18798828 .0055389406 .1579895 .06556702 .1519928 .080566409 .13398743 .127594 .13398743 .2076416 .13398743 .22564698 .13398743 .30369569 .1659851 .40374757 .2559967 .40374757 .27198792 .40374757 .31799317 .40374757 .34899903 .34172059 .36698915 .30470277 .36698915 .2536621 .36698915 .20463562 .36698915 .15661621 .36698915 .10658264 .34999085 .0705719 .31999208 .010528564 .27398683 .0055389406 .25099183 .0055389406Z"/>
<path id="font_2_9" d="M.2939911 .64004519C.2939911 .66400149 .2939911 .6660156 .2709961 .6660156 .20899964 .60227969 .12098694 .60227969 .08898926 .60227969V.57128909C.10899353 .57128909 .16799927 .57128909 .21998596 .5972748V.07902527C.21998596 .042999269 .21699524 .0309906 .1269989 .0309906H.09498596V0C.12998963 .0029907227 .21699524 .0029907227 .25698854 .0029907227 .29699708 .0029907227 .38398744 .0029907227 .4189911 0V.0309906H.3869934C.29699708 .0309906 .2939911 .041992189 .2939911 .07902527V.64004519Z"/>
<path id="font_3_1" d="M.1789856 .114868167C.13899231 .047973634 .099990848 .033981325 .055999757 .0309906 .04399109 .02999878 .034988405 .02999878 .034988405 .010986328 .034988405 .004989624 .039993287 0 .04798889 0 .07499695 0 .10598755 .0029907227 .13398743 .0029907227 .16699219 .0029907227 .20199585 0 .23399353 0 .23999024 0 .25299073 0 .25299073 .018997193 .25299073 .02999878 .24398804 .0309906 .23699951 .0309906 .21398926 .032989503 .18998719 .04096985 .18998719 .06593323 .18998719 .077926639 .19599915 .088897708 .20399475 .102890018L.27999879 .23068238H.5309906C.5329895 .2097168 .5469971 .07392883 .5469971 .063949588 .5469971 .033981325 .49499513 .0309906 .47499085 .0309906 .46099855 .0309906 .45098878 .0309906 .45098878 .010986328 .45098878 0 .46299745 0 .46499635 0 .5059967 0 .548996 .0029907227 .58999636 .0029907227 .61499026 .0029907227 .6779938 0 .7029877 0 .70899966 0 .72099307 0 .72099307 .019989014 .72099307 .0309906 .71099856 .0309906 .69799807 .0309906 .6359863 .0309906 .6359863 .037979127 .6329956 .06694031L.57199099 .691803C.56999209 .71180728 .56999209 .7158203 .5529938 .7158203 .5369873 .7158203 .5329895 .7088165 .5269928 .69880679L.1789856 .114868167M.29899598 .26168824 .49598695 .5917816 .5279999 .26168824H.29899598Z"/>
<path id="font_4_1" d="M.272995 .33428956C.35099793 .33428956 .40699769 .2803192 .40699769 .1733551 .40699769 .04940796 .33499146 .012466431 .2769928 .012466431 .23699951 .012466431 .14898682 .0234375 .10699463 .082351688 .1539917 .084350589 .16499329 .11735535 .16499329 .13835144 .16499329 .17034912 .14099121 .19335938 .10998535 .19335938 .08198547 .19335938 .053985597 .17634583 .053985597 .13534546 .053985597 .041412355 .1579895-.01953125 .2789917-.01953125 .41799928-.01953125 .5139923 .07336426 .5139923 .1733551 .5139923 .2513275 .44999696 .32929994 .33999635 .35229493 .44499208 .39024354 .48298646 .4650879 .48298646 .5260773 .48298646 .60505679 .3919983 .6640625 .2809906 .6640625 .16999817 .6640625 .084991458 .61006167 .084991458 .5300751 .084991458 .49606324 .10699463 .47706605 .13699341 .47706605 .16799927 .47706605 .18798828 .5000763 .18798828 .5280762 .18798828 .5570679 .16799927 .57806399 .13699341 .5800781 .17199707 .62405398 .24099732 .63505557 .27799989 .63505557 .32299806 .63505557 .38598634 .6130676 .38598634 .5260773 .38598634 .48406983 .37199403 .43814088 .34599305 .4072113 .31298829 .36927796 .2849884 .3672943 .23498535 .36428834 .20999146 .3623047 .20799256 .3623047 .20298767 .3612976 .20098877 .3612976 .19299317 .3592987 .19299317 .34829713 .19299317 .33428956 .20199585 .33428956 .21899414 .33428956H.272995Z"/>
<path id="font_3_2" d="M.20599365 .3996582H.2999878C.31999208 .3996582 .32998658 .3996582 .32998658 .41966249 .32998658 .43066407 .31999208 .43066407 .3019867 .43066407H.21398926C.25 .5724945 .25498963 .59246829 .25498963 .59846499 .25498963 .61546328 .24299622 .62545779 .22599793 .62545779 .22299195 .62545779 .19499207 .62446597 .18598938 .58947756L.14698792 .43066407H.052993776C.032989503 .43066407 .022994996 .43066407 .022994996 .4116516 .022994996 .3996582 .0309906 .3996582 .050994874 .3996582H.13899231C.066986087 .11608887 .06298828 .099121097 .06298828 .08114624 .06298828 .02722168 .100997928-.0107421879 .15499878-.0107421879 .25698854-.0107421879 .31399537 .13505554 .31399537 .14305115 .31399537 .1530304 .30599977 .1530304 .3019867 .1530304 .29299928 .1530304 .2919922 .15003968 .2869873 .13905335 .24398804 .035217287 .19099427 .011245728 .15699768 .011245728 .13598633 .011245728 .12599182 .024230957 .12599182 .057174684 .12599182 .08114624 .12799073 .088134769 .13198853 .10510254L.20599365 .3996582Z"/>
<path id="font_2_5" d="M.33099366-.2400055C.33099366-.23701477 .33099366-.23500061 .31399537-.21800232 .18899536-.0920105 .15699768 .09700012 .15699768 .25 .15699768 .42399598 .19499207 .59799197 .31799317 .72299197 .33099366 .73498538 .33099366 .7369995 .33099366 .73999026 .33099366 .746994 .32699586 .75 .32099916 .75 .31098939 .75 .22099304 .6819916 .1619873 .5549927 .11099243 .44499208 .09899902 .33399964 .09899902 .25 .09899902 .17199707 .10998535 .050994874 .16499329-.06201172 .22499085-.18501282 .31098939-.25 .32099916-.25 .32699586-.25 .33099366-.24700928 .33099366-.2400055Z"/>
<path id="font_3_3" d="M.20298767 .0009918213C.20298767 .066986087 .17799378 .10598755 .13899231 .10598755 .10598755 .10598755 .085998538 .08099365 .085998538 .052993776 .085998538 .025985718 .10598755 0 .13899231 0 .15098572 0 .1639862 .0039978029 .17399597 .0129852299 .1769867 .01499939 .17799378 .015991211 .1789856 .015991211 .17999268 .015991211 .18099976 .01499939 .18099976 .0009918213 .18099976-.07316589 .1459961-.13328552 .11299133-.16635132 .101989749-.17736817 .101989749-.17936707 .101989749-.18237305 .101989749-.18936157 .10699463-.19335938 .11199951-.19335938 .12298584-.19335938 .20298767-.116256717 .20298767 .0009918213Z"/>
<path id="font_5_1" d="M.2899933 .4720459C.2979889 .4890442 .29899598 .49705506 .29899598 .5040436 .29899598 .53504946 .2709961 .5590515 .23999024 .5590515 .20199585 .5590515 .18998719 .52804568 .18499756 .51205447L.052993776 .07901001C.051986696 .07701111 .04798889 .06401062 .04798889 .06300354 .04798889 .05101013 .07899475 .041015626 .08699036 .041015626 .09399414 .041015626 .09498596 .043014528 .101989749 .058013917L.2899933 .4720459Z"/>
<path id="font_2_6" d="M.2889862 .25C.2889862 .32798768 .27799989 .44898988 .22299195 .56199648 .16299439 .68499758 .07699585 .75 .066986087 .75 .06098938 .75 .056991579 .74598696 .056991579 .73999026 .056991579 .7369995 .056991579 .73498538 .07598877 .71699526 .17399597 .6179962 .23098755 .45899964 .23098755 .25 .23098755 .07899475 .19400025-.09700012 .069992069-.2230072 .056991579-.23500061 .056991579-.23701477 .056991579-.2400055 .056991579-.2460022 .06098938-.25 .066986087-.25 .07699585-.25 .16699219-.18200684 .22599793-.055007936 .2769928 .054992677 .2889862 .16600037 .2889862 .25Z"/>
<path id="font_2_2" d="M.3899994 .40066529C.39898683 .4116516 .39898683 .4136505 .39898683 .41766358 .39898683 .43066407 .3909912 .43066407 .37298585 .43066407H.052993776L.041992189 .2697754H.066986087C.07299805 .37168885 .09199524 .4086609 .20199585 .4086609H.31599427L.036987306 .031982423C.027999878 .020996094 .027999878 .018997193 .027999878 .01399231 .027999878 0 .034988405 0 .053985597 0H.38398744L.40098573 .18684387H.37599183C.36698915 .06895447 .34599305 .024993897 .22999573 .024993897H.11199951L.3899994 .40066529Z"/>
<path id="font_2_1" d="M.47099305 .21424866C.47099305 .34223939 .37098695 .4482422 .25 .4482422 .125 .4482422 .027999878 .3392334 .027999878 .21424866 .027999878 .085250858 .13198853-.0107421879 .24899292-.0107421879 .36999513-.0107421879 .47099305 .087249759 .47099305 .21424866M.25 .014251709C.20698548 .014251709 .16299439 .035247804 .13598633 .08125305 .11099243 .12524414 .11099243 .18624878 .11099243 .22224427 .11099243 .26124574 .11099243 .31523133 .1349945 .35923768 .1619873 .40522767 .20899964 .426239 .24899292 .426239 .29299928 .426239 .33599855 .40423585 .3619995 .36123658 .3880005 .3182373 .3880005 .26023866 .3880005 .22224427 .3880005 .18624878 .3880005 .13224793 .3659973 .08824158 .34399415 .04324341 .2999878 .014251709 .25 .014251709Z"/>
<path id="font_2_3" d="M.10998535 .34429933V.076034549C.10998535 .0309906 .09899902 .0309906 .03199768 .0309906V0C.066986087 .0009918213 .117996219 .0029907227 .14498902 .0029907227 .17098999 .0029907227 .22299195 .0009918213 .25698854 0V.0309906C.18998719 .0309906 .1789856 .0309906 .1789856 .076034549V.2602234C.1789856 .36431886 .25 .42037965 .31399537 .42037965 .3769989 .42037965 .3880005 .36631776 .3880005 .30926515V.076034549C.3880005 .0309906 .3769989 .0309906 .30999757 .0309906V0C.34498597 .0009918213 .3959961 .0029907227 .4229889 .0029907227 .44898988 .0029907227 .5009918 .0009918213 .5349884 0V.0309906C.46798707 .0309906 .45700074 .0309906 .45700074 .076034549V.2602234C.45700074 .36431886 .5279999 .42037965 .59199526 .42037965 .6549988 .42037965 .66600039 .36631776 .66600039 .30926515V.076034549C.66600039 .0309906 .6549988 .0309906 .58799746 .0309906V0C.6230011 .0009918213 .673996 .0029907227 .70098879 .0029907227 .72698977 .0029907227 .7789917 .0009918213 .8129883 0V.0309906C.7609863 .0309906 .73599246 .0309906 .7350006 .061019899V.25221253C.7350006 .3383026 .7350006 .36932374 .70399478 .405365 .6899872 .42237855 .6569977 .4423828 .598999 .4423828 .5149994 .4423828 .47099305 .38233949 .45399476 .34429933 .43998719 .43138124 .3659973 .4423828 .32099916 .4423828 .24798584 .4423828 .20098877 .39935304 .17298889 .33729554V.4423828L.03199768 .43138124V.40037538C.101989749 .4003601 .10998535 .39335633 .10998535 .34429933Z"/>
</defs>
<g clip-path="url(#clip_1)">
<use data-text="0" xlink:href="#font_2_8" transform="matrix(9.96264,0,0,-9.96264,27.527462,150.85382)" fill="#231f20"/>
<use data-text="." xlink:href="#font_2_7" transform="matrix(9.96264,0,0,-9.96264,32.567468,150.85382)" fill="#231f20"/>
<use data-text="2" xlink:href="#font_2_10" transform="matrix(9.96264,0,0,-9.96264,35.327119,150.85382)" fill="#231f20"/>
<use data-text="0" xlink:href="#font_2_8" transform="matrix(9.96264,0,0,-9.96264,27.527462,120.61401)" fill="#231f20"/>
<use data-text="." xlink:href="#font_2_7" transform="matrix(9.96264,0,0,-9.96264,32.567468,120.61401)" fill="#231f20"/>
<use data-text="3" xlink:href="#font_2_11" transform="matrix(9.96264,0,0,-9.96264,35.327119,120.61401)" fill="#231f20"/>
<use data-text="0" xlink:href="#font_2_8" transform="matrix(9.96264,0,0,-9.96264,27.527462,90.37421)" fill="#231f20"/>
<use data-text="." xlink:href="#font_2_7" transform="matrix(9.96264,0,0,-9.96264,32.567468,90.37421)" fill="#231f20"/>
<use data-text="4" xlink:href="#font_2_12" transform="matrix(9.96264,0,0,-9.96264,35.327119,90.37421)" fill="#231f20"/>
<use data-text="0" xlink:href="#font_2_8" transform="matrix(9.96264,0,0,-9.96264,27.527462,60.253908)" fill="#231f20"/>
<use data-text="." xlink:href="#font_2_7" transform="matrix(9.96264,0,0,-9.96264,32.567468,60.253908)" fill="#231f20"/>
<use data-text="5" xlink:href="#font_2_13" transform="matrix(9.96264,0,0,-9.96264,35.327119,60.253908)" fill="#231f20"/>
<use data-text="0" xlink:href="#font_2_8" transform="matrix(9.96264,0,0,-9.96264,27.527462,30.134034)" fill="#231f20"/>
<use data-text="." xlink:href="#font_2_7" transform="matrix(9.96264,0,0,-9.96264,32.567468,30.134034)" fill="#231f20"/>
<use data-text="6" xlink:href="#font_2_4" transform="matrix(9.96264,0,0,-9.96264,35.327119,30.134034)" fill="#231f20"/>
<use data-text="0" xlink:href="#font_2_8" transform="matrix(9.96264,0,0,-9.96264,44.447366,161.77405)" fill="#231f20"/>
<use data-text="1" xlink:href="#font_2_9" transform="matrix(9.96264,0,0,-9.96264,101.20752,161.77405)" fill="#231f20"/>
<use data-text="2" xlink:href="#font_2_10" transform="matrix(9.96264,0,0,-9.96264,158.08763,161.77405)" fill="#231f20"/>
<use data-text="3" xlink:href="#font_2_11" transform="matrix(9.96264,0,0,-9.96264,214.84778,161.77405)" fill="#231f20"/>
<path transform="matrix(.1,0,0,-.1,-28.75264,1100.1939)" stroke-width="2.5" stroke-linecap="butt" stroke-miterlimit="3.8" stroke-linejoin="miter" fill="none" stroke="#000000" d="M756.199 9517.8H787.699M2460.7 9517.8H2429.2"/>
<path transform="matrix(.1,0,0,-.1,-28.75264,1100.1939)" stroke-width="2.5" stroke-linecap="butt" stroke-miterlimit="3.8" stroke-linejoin="miter" fill="none" stroke="#000000" d="M756.199 9819.8H787.699M2460.7 9819.8H2429.2"/>
<path transform="matrix(.1,0,0,-.1,-28.75264,1100.1939)" stroke-width="2.5" stroke-linecap="butt" stroke-miterlimit="3.8" stroke-linejoin="miter" fill="none" stroke="#000000" d="M756.199 10121.8H787.699M2460.7 10121.8H2429.2"/>
<path transform="matrix(.1,0,0,-.1,-28.75264,1100.1939)" stroke-width="2.5" stroke-linecap="butt" stroke-miterlimit="3.8" stroke-linejoin="miter" fill="none" stroke="#000000" d="M756.199 10423.3H787.699M2460.7 10423.3H2429.2"/>
<path transform="matrix(.1,0,0,-.1,-28.75264,1100.1939)" stroke-width="2.5" stroke-linecap="butt" stroke-miterlimit="3.8" stroke-linejoin="miter" fill="none" stroke="#000000" d="M756.199 10725.3H787.699M2460.7 10725.3H2429.2"/>
<path transform="matrix(.1,0,0,-.1,-28.75264,1100.1939)" stroke-width="2.5" stroke-linecap="butt" stroke-miterlimit="3.8" stroke-linejoin="miter" fill="none" stroke="#000000" d="M756.199 9517.8V9549.3M756.199 10725.3V10693.8"/>
<path transform="matrix(.1,0,0,-.1,-28.75264,1100.1939)" stroke-width="2.5" stroke-linecap="butt" stroke-miterlimit="3.8" stroke-linejoin="miter" fill="none" stroke="#000000" d="M1324.2 9517.8V9549.3M1324.2 10725.3V10693.8"/>
<path transform="matrix(.1,0,0,-.1,-28.75264,1100.1939)" stroke-width="2.5" stroke-linecap="butt" stroke-miterlimit="3.8" stroke-linejoin="miter" fill="none" stroke="#000000" d="M1892.7 9517.8V9549.3M1892.7 10725.3V10693.8"/>
<path transform="matrix(.1,0,0,-.1,-28.75264,1100.1939)" stroke-width="2.5" stroke-linecap="butt" stroke-miterlimit="3.8" stroke-linejoin="miter" fill="none" stroke="#000000" d="M2460.7 9517.8V9549.3M2460.7 10725.3V10693.8"/>
<path transform="matrix(.1,0,0,-.1,-28.75264,1100.1939)" stroke-width="2.5" stroke-linecap="butt" stroke-miterlimit="3.8" stroke-linejoin="miter" fill="none" stroke="#000000" d="M756.199 10725.3V9517.8H2460.7V10725.3H756.199Z"/>
<path transform="matrix(.1,0,0,-.1,-28.75264,1100.1939)" stroke-width="2.5" stroke-linecap="butt" stroke-dasharray="30,10,5,10" stroke-miterlimit="3.8" stroke-linejoin="miter" fill="none" stroke="#000000" d="M764.699 9517.8V9524.3L765.699 9548.3 766.699 9575.3 767.699 9604.3 769.199 9635.3 770.699 9669.3 772.199 9705.8 773.699 9744.8 775.699 9786.8 777.699 9831.3 780.199 9878.3 782.699 9927.8 785.699 9979.3 788.699 10032.8 792.199 10088.3 796.199 10144.3 800.699 10200.8 805.699 10256.8 811.199 10311.8 817.199 10364.3 823.699 10413.3 831.199 10458.3 839.199 10497.8 848.699 10530.8 858.699 10556.3 870.199 10573.3 882.699 10581.8 896.699 10580.3 912.199 10569.8 929.699 10550.3 948.699 10522.3 970.199 10486.3 993.699 10443.8 1020.2 10395.8 1049.7 10343.8 1082.2 10289.3 1118.2 10232.3 1158.2 10175.3 1203.2 10118.8 1252.7 10063.8 1307.7 10011.3 1368.7 9961.8 1436.7 9916.8 1512.7 9876.3 1596.7 9840.8 1689.7 9811.3 1793.7 9786.8 1908.7 9768.3 2036.7 9754.3 2178.7 9745.3 2336.7 9740.3 2460.7 9738.8"/>
<path transform="matrix(.1,0,0,-.1,-28.75264,1100.1939)" stroke-width="2.5" stroke-linecap="butt" stroke-dasharray="5,7.5" stroke-miterlimit="3.8" stroke-linejoin="miter" fill="none" stroke="#000000" d="M764.699 9517.8 765.699 9541.8 766.699 9568.3 767.699 9597.3 769.199 9628.3 770.699 9661.8 772.199 9697.8 773.699 9736.8 775.699 9778.3 777.699 9822.8 780.199 9869.3 782.699 9918.3 785.699 9969.8 788.699 10023.3 792.199 10077.8 796.199 10133.8 800.699 10190.3 805.699 10245.8 811.199 10300.8 817.199 10353.3 823.699 10402.3 831.199 10447.3 839.199 10486.8 848.699 10520.3 858.699 10545.8 870.199 10562.8 882.699 10571.3 896.699 10570.3 912.199 10560.3 929.699 10540.8 948.699 10512.8 970.199 10476.8 993.699 10434.8 1020.2 10386.8 1049.7 10334.8 1082.2 10279.8 1118.2 10222.8 1158.2 10165.8 1203.2 10109.3 1252.7 10054.3 1307.7 10001.8 1368.7 9952.3 1436.7 9907.3 1512.7 9867.3 1596.7 9831.8 1689.7 9802.3 1793.7 9778.3 1908.7 9759.8 2036.7 9746.3 2178.7 9737.3 2336.7 9732.3 2460.7 9730.8"/>
<path transform="matrix(.1,0,0,-.1,-28.75264,1100.1939)" stroke-width="2.5" stroke-linecap="butt" stroke-dasharray="10,15" stroke-miterlimit="3.8" stroke-linejoin="miter" fill="none" stroke="#000000" d="M764.699 9517.8 765.699 9541.3 766.699 9567.3 767.699 9596.3 769.199 9627.3 770.699 9660.8 772.199 9696.8 773.699 9735.8 775.699 9777.3 777.699 9821.3 780.199 9868.3 782.699 9917.3 785.699 9968.8 788.699 10021.8 792.199 10076.8 796.199 10132.3 800.699 10188.8 805.699 10244.3 811.199 10299.3 817.199 10351.8 823.699 10400.8 831.199 10445.8 839.199 10485.3 848.699 10518.8 858.699 10544.3 870.199 10561.8 882.699 10569.8 896.699 10569.3 912.199 10558.8 929.699 10539.3 948.699 10511.3 970.199 10475.8 993.699 10433.3 1020.2 10385.3 1049.7 10333.3 1082.2 10278.3 1118.2 10221.8 1158.2 10164.3 1203.2 10107.8 1252.7 10052.8 1307.7 10000.3 1368.7 9951.3 1436.7 9906.3 1512.7 9865.8 1596.7 9830.8 1689.7 9801.3 1793.7 9777.3 1908.7 9758.8 2036.7 9745.3 2178.7 9736.3 2336.7 9731.3 2460.7 9729.8"/>
<path transform="matrix(.1,0,0,-.1,-28.75264,1100.1939)" stroke-width="2.5" stroke-linecap="butt" stroke-miterlimit="3.8" stroke-linejoin="miter" fill="none" stroke="#000000" d="M764.699 9517.8 765.199 9522.3 765.699 9543.8 766.699 9566.8 767.699 9591.8 768.699 9618.3 769.699 9646.8 771.199 9677.8 772.699 9710.3 774.199 9744.8 775.699 9781.8 777.699 9820.8 779.699 9861.8 781.699 9904.3 784.199 9948.8 787.199 9995.3 790.199 10042.8 793.199 10091.3 796.699 10140.3 800.699 10189.8 805.199 10239.3 809.699 10287.8 814.699 10334.3 820.699 10379.3 826.699 10420.8 833.699 10458.8 841.199 10492.3 849.199 10520.8 858.199 10543.3 868.199 10559.3 879.199 10568.3 891.199 10570.3 904.199 10564.8 918.699 10552.3 934.199 10532.8 951.699 10506.8 970.699 10475.3 991.699 10437.8 1014.2 10396.3 1039.7 10351.8 1067.2 10304.3 1097.2 10254.8 1130.7 10204.8 1167.2 10154.3 1207.2 10104.8 1250.7 10056.3 1299.2 10009.8 1352.2 9965.8 1410.2 9925.3 1473.7 9887.8 1543.7 9854.3 1620.2 9824.8 1704.7 9799.8 1796.7 9778.8 1898.2 9762.3 2009.7 9749.8 2131.7 9740.8 2265.7 9734.8 2413.2 9731.8 2460.7 9731.3"/>
<path transform="matrix(.1,0,0,-.1,-28.75264,1100.1939)" stroke-width="2.5" stroke-linecap="butt" stroke-miterlimit="3.8" stroke-linejoin="miter" fill="none" stroke="#000000" d="M756.199 10725.3V9517.8H2460.7V10725.3H756.199Z"/>
<use data-text="A" xlink:href="#font_3_1" transform="matrix(0,-9.96264,-9.96264,-0,10.847359,100.09387)" fill="#231f20"/>
<use data-text="3" xlink:href="#font_4_1" transform="matrix(0,-6.97385,-6.97385,-0,12.287197,92.65405)" fill="#231f20"/>
<use data-text="3" xlink:href="#font_4_1" transform="matrix(0,-6.97385,-6.97385,-0,12.287197,88.69409)" fill="#231f20"/>
<use data-text="3" xlink:href="#font_4_1" transform="matrix(0,-6.97385,-6.97385,-0,12.287197,84.73407)" fill="#231f20"/>
<use data-text="3" xlink:href="#font_4_1" transform="matrix(0,-6.97385,-6.97385,-0,12.287197,80.77411)" fill="#231f20"/>
<use data-text="t" xlink:href="#font_3_2" transform="matrix(9.96264,0,0,-9.96264,130.24736,178.33386)" fill="#231f20"/>
<use data-text="A" xlink:href="#font_3_1" transform="matrix(9.96264,0,0,-9.96264,95.92746,13.573853)" fill="#231f20"/>
<use data-text="3" xlink:href="#font_4_1" transform="matrix(6.97385,0,0,-6.97385,103.367298,15.013672)" fill="#231f20"/>
<use data-text="3" xlink:href="#font_4_1" transform="matrix(6.97385,0,0,-6.97385,107.3273,15.013672)" fill="#231f20"/>
<use data-text="3" xlink:href="#font_4_1" transform="matrix(6.97385,0,0,-6.97385,111.28731,15.013672)" fill="#231f20"/>
<use data-text="3" xlink:href="#font_4_1" transform="matrix(6.97385,0,0,-6.97385,115.24733,15.013672)" fill="#231f20"/>
<use data-text="(" xlink:href="#font_2_5" transform="matrix(9.96264,0,0,-9.96264,119.807498,13.573853)" fill="#231f20"/>
<use data-text="t" xlink:href="#font_3_2" transform="matrix(9.96264,0,0,-9.96264,123.64734,13.573853)" fill="#231f20"/>
<use data-text="," xlink:href="#font_3_3" transform="matrix(9.96264,0,0,-9.96264,127.247348,13.573853)" fill="#231f20"/>
<use data-text="t" xlink:href="#font_3_2" transform="matrix(9.96264,0,0,-9.96264,131.68686,13.573853)" fill="#231f20"/>
<use data-text="&#x2032;" xlink:href="#font_5_1" transform="matrix(6.97385,0,0,-6.97385,135.28714,9.973877)" fill="#231f20"/>
<use data-text=")" xlink:href="#font_2_6" transform="matrix(9.96264,0,0,-9.96264,138.0473,13.573853)" fill="#231f20"/>
<use data-text="z" xlink:href="#font_2_2" transform="matrix(9.96264,0,0,-9.96264,145.24732,13.573853)" fill="#231f20"/>
<use data-text="o" xlink:href="#font_2_1" transform="matrix(9.96264,0,0,-9.96264,149.68732,13.573853)" fill="#231f20"/>
<use data-text="o" xlink:href="#font_2_1" transform="matrix(9.96264,0,0,-9.96264,154.96724,13.573853)" fill="#231f20"/>
<use data-text="m" xlink:href="#font_2_3" transform="matrix(9.96264,0,0,-9.96264,160.00725,13.573853)" fill="#231f20"/>
</g>
</svg>
