<svg xmlns="http://www.w3.org/2000/svg" xmlns:xlink="http://www.w3.org/1999/xlink" xmlns:inkscape="http://www.inkscape.org/namespaces/inkscape" version="1.1" width="227.86888" height="183.44916" viewBox="0 0 227.86888 183.44916">
<defs>
<clipPath id="clip_1">
<path transform="matrix(1,0,0,-1,-28.75264,1100.1939)" d="M28.75264 916.7447H256.62153V1100.1939H28.75264Z" clip-rule="evenodd"/>
</clipPath>
<path id="font_2_5" d="M.45999146 .31976319C.45999146 .39982606 .45498658 .47988893 .41999818 .5539398 .37399293 .65000918 .2919922 .6660156 .25 .6660156 .18998719 .6660156 .116989139 .64001467 .07598877 .54693606 .04399109 .47789 .038986207 .39982606 .038986207 .31976319 .038986207 .24472046 .042999269 .15464783 .083999637 .07859802 .1269989-.0024719239 .19999695-.022460938 .24899292-.022460938 .30299378-.022460938 .3789978-.0014648438 .4229889 .09359741 .45498658 .16265869 .45999146 .2407074 .45999146 .31976319M.24899292-.00047302247C.20999146-.00047302247 .15098572 .024551392 .1329956 .12062073 .12199402 .18066406 .12199402 .2727356 .12199402 .3317871 .12199402 .39582826 .12199402 .46188355 .12998963 .5159149 .14898682 .63500979 .22399903 .64401248 .24899292 .64401248 .28199769 .64401248 .34799195 .6259918 .36698915 .52693179 .3769989 .47088624 .3769989 .39482118 .3769989 .3317871 .3769989 .25672914 .3769989 .18867493 .3659973 .12461853 .35099793 .029556275 .2939911-.00047302247 .24899292-.00047302247Z"/>
<path id="font_3_4" d="M.19198609 .052993776C.19198609 .08198547 .16799927 .10598755 .13899231 .10598755 .10998535 .10598755 .085998538 .08198547 .085998538 .052993776 .085998538 .023986817 .10998535 0 .13899231 0 .16799927 0 .19198609 .023986817 .19198609 .052993776Z"/>
<path id="font_2_6" d="M.2939911 .64004519C.2939911 .66400149 .2939911 .6660156 .2709961 .6660156 .20899964 .60227969 .12098694 .60227969 .08898926 .60227969V.57128909C.10899353 .57128909 .16799927 .57128909 .21998596 .5972748V.07902527C.21998596 .042999269 .21699524 .0309906 .1269989 .0309906H.09498596V0C.12998963 .0029907227 .21699524 .0029907227 .25698854 .0029907227 .29699708 .0029907227 .38398744 .0029907227 .4189911 0V.0309906H.3869934C.29699708 .0309906 .2939911 .041992189 .2939911 .07902527V.64004519Z"/>
<path id="font_2_7" d="M.1269989 .07699585 .23298645 .18003845C.3889923 .31811524 .44898988 .3721466 .44898988 .47216798 .44898988 .5860901 .35899354 .6660156 .23699951 .6660156 .12399292 .6660156 .049987794 .57411196 .049987794 .48516847 .049987794 .4291687 .099990848 .4291687 .102996829 .4291687 .11999512 .4291687 .15499878 .44117738 .15499878 .48217774 .15499878 .5081787 .13699341 .5341797 .101989749 .5341797 .09399414 .5341797 .09199524 .5341797 .08898926 .5331726 .11199951 .59806826 .1659851 .63500979 .22399903 .63500979 .31498719 .63500979 .35798646 .5541382 .35798646 .47216798 .35798646 .39215089 .30799867 .31311036 .25299073 .25108338L.06098938 .036987306C.049987794 .025985718 .049987794 .023986817 .049987794 0H.42099L.44898988 .17404175H.42399598C.4189911 .14402771 .4119873 .1000061 .4019928 .084991458 .394989 .07699585 .32899476 .07699585 .30699159 .07699585H.1269989Z"/>
<path id="font_2_8" d="M.2899933 .35191346C.37199403 .37893678 .42999269 .4490509 .42999269 .52809146 .42999269 .6100464 .34199525 .6660156 .24598694 .6660156 .14498902 .6660156 .068984989 .60606387 .068984989 .53009036 .068984989 .49710084 .09098816 .47808839 .11999512 .47808839 .15098572 .47808839 .17098999 .50009158 .17098999 .5290985 .17098999 .57910159 .12399292 .57910159 .10899353 .57910159 .13999939 .62802127 .20599365 .64100649 .24198914 .64100649 .2829895 .64100649 .33799745 .6190338 .33799745 .5290985 .33799745 .51708987 .33599855 .45906068 .30999757 .4149933 .27999879 .36691285 .24598694 .36390687 .22099304 .36291505 .21299744 .36190797 .18899536 .35990907 .18199158 .35990907 .17399597 .35890199 .16699219 .35791017 .16699219 .3479004 .16699219 .33691407 .17399597 .33691407 .19099427 .33691407H.23498535C.31698609 .33691407 .35398866 .2686615 .35398866 .17037964 .35398866 .034469606 .2849884 .0055389406 .24099732 .0055389406 .19799805 .0055389406 .12298584 .022491456 .08799744 .08137512 .12298584 .07637024 .1539917 .09837341 .1539917 .1363678 .1539917 .17237854 .1269989 .19238281 .09799194 .19238281 .07398987 .19238281 .041992189 .17837525 .041992189 .1343689 .041992189 .043441774 .1349945-.022460938 .24398804-.022460938 .3659973-.022460938 .45700074 .06838989 .45700074 .17037964 .45700074 .252594 .3939972 .33088685 .2899933 .35191346Z"/>
<path id="font_2_9" d="M.2939911 .16503906V.07800293C.2939911 .041992189 .2919922 .0309906 .21798706 .0309906H.19699097V0C.23799134 .0029907227 .2899933 .0029907227 .33198548 .0029907227 .37399293 .0029907227 .4269867 .0029907227 .46798707 0V.0309906H.44699098C.37298585 .0309906 .37098695 .041992189 .37098695 .07800293V.16503906H.47099305V.19602967H.37098695V.65075686C.37098695 .67074587 .37098695 .6767578 .35499574 .6767578 .34599305 .6767578 .34298707 .6767578 .33499146 .66474917L.027999878 .19602967V.16503906H.2939911M.2999878 .19602967H.055999757L.2999878 .5688019V.19602967Z"/>
<path id="font_2_1" d="M.13198853 .327713V.35173036C.13198853 .6047821 .2559967 .64100649 .30699159 .64100649 .33099366 .64100649 .37298585 .634964 .394989 .6007538 .37998963 .6007538 .33999635 .6007538 .33999635 .5557556 .33999635 .524765 .3639984 .5097656 .38598634 .5097656 .4019928 .5097656 .43199159 .51875308 .43199159 .5577545 .43199159 .6178589 .3880005 .6660156 .30499269 .6660156 .1769867 .6660156 .041992189 .5367584 .041992189 .31570436 .041992189 .048553468 .1579895-.022460938 .25099183-.022460938 .3619995-.022460938 .45700074 .07156372 .45700074 .2036438 .45700074 .33070375 .36799623 .4267578 .25698854 .4267578 .18899536 .4267578 .1519928 .37573243 .13198853 .327713M.25099183 .0055389406C.18798828 .0055389406 .1579895 .06556702 .1519928 .080566409 .13398743 .127594 .13398743 .2076416 .13398743 .22564698 .13398743 .30369569 .1659851 .40374757 .2559967 .40374757 .27198792 .40374757 .31799317 .40374757 .34899903 .34172059 .36698915 .30470277 .36698915 .2536621 .36698915 .20463562 .36698915 .15661621 .36698915 .10658264 .34999085 .0705719 .31999208 .010528564 .27398683 .0055389406 .25099183 .0055389406Z"/>
<path id="font_2_2" d="M.16299439 .4569702C.116989139 .486969 .11299133 .52098086 .11299133 .5379791 .11299133 .598999 .17799378 .64100649 .24899292 .64100649 .32199098 .64100649 .38598634 .58898928 .38598634 .51698306 .38598634 .45996095 .34700013 .4119568 .2869873 .37695313L.16299439 .4569702M.30899049 .36193849C.3809967 .3989563 .42999269 .45095826 .42999269 .51698306 .42999269 .6090088 .34098817 .6660156 .25 .6660156 .1499939 .6660156 .068984989 .59199526 .068984989 .49897767 .068984989 .4809723 .070999149 .43595887 .11299133 .38894654 .12399292 .37695313 .16099549 .35194398 .18598938 .33494569 .12799073 .30592347 .041992189 .24984741 .041992189 .15072632 .041992189 .04458618 .14399719-.022460938 .24899292-.022460938 .3619995-.022460938 .45700074 .06060791 .45700074 .16773987 .45700074 .20379639 .44599916 .24885559 .4079895 .2909088 .3889923 .31193543 .37298585 .3219452 .30899049 .36193849M.20899964 .3199463 .33198548 .24183655C.3600006 .2228241 .40699769 .19277954 .40699769 .13169861 .40699769 .05760193 .33198548 .0055389406 .25 .0055389406 .1639862 .0055389406 .09199524 .067611698 .09199524 .15072632 .09199524 .20880127 .12399292 .27288819 .20899964 .3199463Z"/>
<path id="font_3_1" d="M.1789856 .114868167C.13899231 .047973634 .099990848 .033981325 .055999757 .0309906 .04399109 .02999878 .034988405 .02999878 .034988405 .010986328 .034988405 .004989624 .039993287 0 .04798889 0 .07499695 0 .10598755 .0029907227 .13398743 .0029907227 .16699219 .0029907227 .20199585 0 .23399353 0 .23999024 0 .25299073 0 .25299073 .018997193 .25299073 .02999878 .24398804 .0309906 .23699951 .0309906 .21398926 .032989503 .18998719 .04096985 .18998719 .06593323 .18998719 .077926639 .19599915 .088897708 .20399475 .102890018L.27999879 .23068238H.5309906C.5329895 .2097168 .5469971 .07392883 .5469971 .063949588 .5469971 .033981325 .49499513 .0309906 .47499085 .0309906 .46099855 .0309906 .45098878 .0309906 .45098878 .010986328 .45098878 0 .46299745 0 .46499635 0 .5059967 0 .548996 .0029907227 .58999636 .0029907227 .61499026 .0029907227 .6779938 0 .7029877 0 .70899966 0 .72099307 0 .72099307 .019989014 .72099307 .0309906 .71099856 .0309906 .69799807 .0309906 .6359863 .0309906 .6359863 .037979127 .6329956 .06694031L.57199099 .691803C.56999209 .71180728 .56999209 .7158203 .5529938 .7158203 .5369873 .7158203 .5329895 .7088165 .5269928 .69880679L.1789856 .114868167M.29899598 .26168824 .49598695 .5917816 .5279999 .26168824H.29899598Z"/>
<path id="font_4_1" d="M.33499146 .63612368C.33499146 .6630554 .33299256 .6640625 .30499269 .6640625 .24099732 .6014404 .1499939 .6004486 .10899353 .6004486V.5644531C.1329956 .5644531 .19898987 .5644531 .2539978 .592453V.08203125C.2539978 .04899597 .2539978 .035995485 .1539917 .035995485H.115997318V0C.13398743 .0009918213 .25698854 .0039978029 .2939911 .0039978029 .32499696 .0039978029 .45098878 .0009918213 .47299195 0V.035995485H.43499757C.33499146 .035995485 .33499146 .04899597 .33499146 .08203125V.63612368Z"/>
<path id="font_4_2" d="M.272995 .33428956C.35099793 .33428956 .40699769 .2803192 .40699769 .1733551 .40699769 .04940796 .33499146 .012466431 .2769928 .012466431 .23699951 .012466431 .14898682 .0234375 .10699463 .082351688 .1539917 .084350589 .16499329 .11735535 .16499329 .13835144 .16499329 .17034912 .14099121 .19335938 .10998535 .19335938 .08198547 .19335938 .053985597 .17634583 .053985597 .13534546 .053985597 .041412355 .1579895-.01953125 .2789917-.01953125 .41799928-.01953125 .5139923 .07336426 .5139923 .1733551 .5139923 .2513275 .44999696 .32929994 .33999635 .35229493 .44499208 .39024354 .48298646 .4650879 .48298646 .5260773 .48298646 .60505679 .3919983 .6640625 .2809906 .6640625 .16999817 .6640625 .084991458 .61006167 .084991458 .5300751 .084991458 .49606324 .10699463 .47706605 .13699341 .47706605 .16799927 .47706605 .18798828 .5000763 .18798828 .5280762 .18798828 .5570679 .16799927 .57806399 .13699341 .5800781 .17199707 .62405398 .24099732 .63505557 .27799989 .63505557 .32299806 .63505557 .38598634 .6130676 .38598634 .5260773 .38598634 .48406983 .37199403 .43814088 .34599305 .4072113 .31298829 .36927796 .2849884 .3672943 .23498535 .36428834 .20999146 .3623047 .20799256 .3623047 .20298767 .3612976 .20098877 .3612976 .19299317 .3592987 .19299317 .34829713 .19299317 .33428956 .20199585 .33428956 .21899414 .33428956H.272995Z"/>
<path id="font_3_2" d="M.20599365 .3996582H.2999878C.31999208 .3996582 .32998658 .3996582 .32998658 .41966249 .32998658 .43066407 .31999208 .43066407 .3019867 .43066407H.21398926C.25 .5724945 .25498963 .59246829 .25498963 .59846499 .25498963 .61546328 .24299622 .62545779 .22599793 .62545779 .22299195 .62545779 .19499207 .62446597 .18598938 .58947756L.14698792 .43066407H.052993776C.032989503 .43066407 .022994996 .43066407 .022994996 .4116516 .022994996 .3996582 .0309906 .3996582 .050994874 .3996582H.13899231C.066986087 .11608887 .06298828 .099121097 .06298828 .08114624 .06298828 .02722168 .100997928-.0107421879 .15499878-.0107421879 .25698854-.0107421879 .31399537 .13505554 .31399537 .14305115 .31399537 .1530304 .30599977 .1530304 .3019867 .1530304 .29299928 .1530304 .2919922 .15003968 .2869873 .13905335 .24398804 .035217287 .19099427 .011245728 .15699768 .011245728 .13598633 .011245728 .12599182 .024230957 .12599182 .057174684 .12599182 .08114624 .12799073 .088134769 .13198853 .10510254L.20599365 .3996582Z"/>
<path id="font_2_3" d="M.33099366-.2400055C.33099366-.23701477 .33099366-.23500061 .31399537-.21800232 .18899536-.0920105 .15699768 .09700012 .15699768 .25 .15699768 .42399598 .19499207 .59799197 .31799317 .72299197 .33099366 .73498538 .33099366 .7369995 .33099366 .73999026 .33099366 .746994 .32699586 .75 .32099916 .75 .31098939 .75 .22099304 .6819916 .1619873 .5549927 .11099243 .44499208 .09899902 .33399964 .09899902 .25 .09899902 .17199707 .10998535 .050994874 .16499329-.06201172 .22499085-.18501282 .31098939-.25 .32099916-.25 .32699586-.25 .33099366-.24700928 .33099366-.2400055Z"/>
<path id="font_3_3" d="M.20298767 .0009918213C.20298767 .066986087 .17799378 .10598755 .13899231 .10598755 .10598755 .10598755 .085998538 .08099365 .085998538 .052993776 .085998538 .025985718 .10598755 0 .13899231 0 .15098572 0 .1639862 .0039978029 .17399597 .0129852299 .1769867 .01499939 .17799378 .015991211 .1789856 .015991211 .17999268 .015991211 .18099976 .01499939 .18099976 .0009918213 .18099976-.07316589 .1459961-.13328552 .11299133-.16635132 .101989749-.17736817 .101989749-.17936707 .101989749-.18237305 .101989749-.18936157 .10699463-.19335938 .11199951-.19335938 .12298584-.19335938 .20298767-.116256717 .20298767 .0009918213Z"/>
<path id="font_5_1" d="M.2899933 .4720459C.2979889 .4890442 .29899598 .49705506 .29899598 .5040436 .29899598 .53504946 .2709961 .5590515 .23999024 .5590515 .20199585 .5590515 .18998719 .52804568 .18499756 .51205447L.052993776 .07901001C.051986696 .07701111 .04798889 .06401062 .04798889 .06300354 .04798889 .05101013 .07899475 .041015626 .08699036 .041015626 .09399414 .041015626 .09498596 .043014528 .101989749 .058013917L.2899933 .4720459Z"/>
<path id="font_2_4" d="M.2889862 .25C.2889862 .32798768 .27799989 .44898988 .22299195 .56199648 .16299439 .68499758 .07699585 .75 .066986087 .75 .06098938 .75 .056991579 .74598696 .056991579 .73999026 .056991579 .7369995 .056991579 .73498538 .07598877 .71699526 .17399597 .6179962 .23098755 .45899964 .23098755 .25 .23098755 .07899475 .19400025-.09700012 .069992069-.2230072 .056991579-.23500061 .056991579-.23701477 .056991579-.2400055 .056991579-.2460022 .06098938-.25 .066986087-.25 .07699585-.25 .16699219-.18200684 .22599793-.055007936 .2769928 .054992677 .2889862 .16600037 .2889862 .25Z"/>
</defs>
<g clip-path="url(#clip_1)">
<use data-text="0" xlink:href="#font_2_5" transform="matrix(9.96264,0,0,-9.96264,41.92746,150.85382)" fill="#231f20"/>
<use data-text="0" xlink:href="#font_2_5" transform="matrix(9.96264,0,0,-9.96264,29.207558,120.61401)" fill="#231f20"/>
<use data-text="." xlink:href="#font_3_4" transform="matrix(9.96264,0,0,-9.96264,34.2474,120.61401)" fill="#231f20"/>
<use data-text="0" xlink:href="#font_2_5" transform="matrix(9.96264,0,0,-9.96264,37.00756,120.61401)" fill="#231f20"/>
<use data-text="1" xlink:href="#font_2_6" transform="matrix(9.96264,0,0,-9.96264,42.04757,120.61401)" fill="#231f20"/>
<use data-text="0" xlink:href="#font_2_5" transform="matrix(9.96264,0,0,-9.96264,29.207562,90.37421)" fill="#231f20"/>
<use data-text="." xlink:href="#font_3_4" transform="matrix(9.96264,0,0,-9.96264,34.247404,90.37421)" fill="#231f20"/>
<use data-text="0" xlink:href="#font_2_5" transform="matrix(9.96264,0,0,-9.96264,37.00756,90.37421)" fill="#231f20"/>
<use data-text="2" xlink:href="#font_2_7" transform="matrix(9.96264,0,0,-9.96264,42.04757,90.37421)" fill="#231f20"/>
<use data-text="0" xlink:href="#font_2_5" transform="matrix(9.96264,0,0,-9.96264,29.207562,60.253908)" fill="#231f20"/>
<use data-text="." xlink:href="#font_3_4" transform="matrix(9.96264,0,0,-9.96264,34.247404,60.253908)" fill="#231f20"/>
<use data-text="0" xlink:href="#font_2_5" transform="matrix(9.96264,0,0,-9.96264,37.00756,60.253908)" fill="#231f20"/>
<use data-text="3" xlink:href="#font_2_8" transform="matrix(9.96264,0,0,-9.96264,42.04757,60.253908)" fill="#231f20"/>
<use data-text="0" xlink:href="#font_2_5" transform="matrix(9.96264,0,0,-9.96264,29.207562,30.134034)" fill="#231f20"/>
<use data-text="." xlink:href="#font_3_4" transform="matrix(9.96264,0,0,-9.96264,34.247404,30.134034)" fill="#231f20"/>
<use data-text="0" xlink:href="#font_2_5" transform="matrix(9.96264,0,0,-9.96264,37.00756,30.134034)" fill="#231f20"/>
<use data-text="4" xlink:href="#font_2_9" transform="matrix(9.96264,0,0,-9.96264,42.04757,30.134034)" fill="#231f20"/>
<use data-text="0" xlink:href="#font_2_5" transform="matrix(9.96264,0,0,-9.96264,51.047365,161.77405)" fill="#231f20"/>
<use data-text="2" xlink:href="#font_2_7" transform="matrix(9.96264,0,0,-9.96264,81.28717,161.77405)" fill="#231f20"/>
<use data-text="0" xlink:href="#font_2_5" transform="matrix(9.96264,0,0,-9.96264,86.32717,161.77405)" fill="#231f20"/>
<use data-text="4" xlink:href="#font_2_9" transform="matrix(9.96264,0,0,-9.96264,114.04732,161.77405)" fill="#231f20"/>
<use data-text="0" xlink:href="#font_2_5" transform="matrix(9.96264,0,0,-9.96264,119.087329,161.77405)" fill="#231f20"/>
<use data-text="6" xlink:href="#font_2_1" transform="matrix(9.96264,0,0,-9.96264,146.80748,161.77405)" fill="#231f20"/>
<use data-text="0" xlink:href="#font_2_5" transform="matrix(9.96264,0,0,-9.96264,151.84749,161.77405)" fill="#231f20"/>
<use data-text="8" xlink:href="#font_2_2" transform="matrix(9.96264,0,0,-9.96264,179.56764,161.77405)" fill="#231f20"/>
<use data-text="0" xlink:href="#font_2_5" transform="matrix(9.96264,0,0,-9.96264,184.60764,161.77405)" fill="#231f20"/>
<use data-text="1" xlink:href="#font_2_6" transform="matrix(9.96264,0,0,-9.96264,209.80754,161.77405)" fill="#231f20"/>
<use data-text="0" xlink:href="#font_2_5" transform="matrix(9.96264,0,0,-9.96264,214.84754,161.77405)" fill="#231f20"/>
<use data-text="0" xlink:href="#font_2_5" transform="matrix(9.96264,0,0,-9.96264,219.88755,161.77405)" fill="#231f20"/>
<path transform="matrix(.1,0,0,-.1,-28.75264,1100.1939)" stroke-width="2.5" stroke-linecap="butt" stroke-miterlimit="3.8" stroke-linejoin="miter" fill="none" stroke="#000000" d="M822.199 9517.8H853.699M2460.7 9517.8H2429.2"/>
<path transform="matrix(.1,0,0,-.1,-28.75264,1100.1939)" stroke-width="2.5" stroke-linecap="butt" stroke-miterlimit="3.8" stroke-linejoin="miter" fill="none" stroke="#000000" d="M822.199 9819.8H853.699M2460.7 9819.8H2429.2"/>
<path transform="matrix(.1,0,0,-.1,-28.75264,1100.1939)" stroke-width="2.5" stroke-linecap="butt" stroke-miterlimit="3.8" stroke-linejoin="miter" fill="none" stroke="#000000" d="M822.199 10121.8H853.699M2460.7 10121.8H2429.2"/>
<path transform="matrix(.1,0,0,-.1,-28.75264,1100.1939)" stroke-width="2.5" stroke-linecap="butt" stroke-miterlimit="3.8" stroke-linejoin="miter" fill="none" stroke="#000000" d="M822.199 10423.3H853.699M2460.7 10423.3H2429.2"/>
<path transform="matrix(.1,0,0,-.1,-28.75264,1100.1939)" stroke-width="2.5" stroke-linecap="butt" stroke-miterlimit="3.8" stroke-linejoin="miter" fill="none" stroke="#000000" d="M822.199 10725.3H853.699M2460.7 10725.3H2429.2"/>
<path transform="matrix(.1,0,0,-.1,-28.75264,1100.1939)" stroke-width="2.5" stroke-linecap="butt" stroke-miterlimit="3.8" stroke-linejoin="miter" fill="none" stroke="#000000" d="M822.199 9517.8V9549.3M822.199 10725.3V10693.8"/>
<path transform="matrix(.1,0,0,-.1,-28.75264,1100.1939)" stroke-width="2.5" stroke-linecap="butt" stroke-miterlimit="3.8" stroke-linejoin="miter" fill="none" stroke="#000000" d="M1149.7 9517.8V9549.3M1149.7 10725.3V10693.8"/>
<path transform="matrix(.1,0,0,-.1,-28.75264,1100.1939)" stroke-width="2.5" stroke-linecap="butt" stroke-miterlimit="3.8" stroke-linejoin="miter" fill="none" stroke="#000000" d="M1477.7 9517.8V9549.3M1477.7 10725.3V10693.8"/>
<path transform="matrix(.1,0,0,-.1,-28.75264,1100.1939)" stroke-width="2.5" stroke-linecap="butt" stroke-miterlimit="3.8" stroke-linejoin="miter" fill="none" stroke="#000000" d="M1805.2 9517.8V9549.3M1805.2 10725.3V10693.8"/>
<path transform="matrix(.1,0,0,-.1,-28.75264,1100.1939)" stroke-width="2.5" stroke-linecap="butt" stroke-miterlimit="3.8" stroke-linejoin="miter" fill="none" stroke="#000000" d="M2133.2 9517.8V9549.3M2133.2 10725.3V10693.8"/>
<path transform="matrix(.1,0,0,-.1,-28.75264,1100.1939)" stroke-width="2.5" stroke-linecap="butt" stroke-miterlimit="3.8" stroke-linejoin="miter" fill="none" stroke="#000000" d="M2460.7 9517.8V9549.3M2460.7 10725.3V10693.8"/>
<path transform="matrix(.1,0,0,-.1,-28.75264,1100.1939)" stroke-width="2.5" stroke-linecap="butt" stroke-miterlimit="3.8" stroke-linejoin="miter" fill="none" stroke="#000000" d="M822.199 10725.3V9517.8H2460.7V10725.3H822.199Z"/>
<path transform="matrix(.1,0,0,-.1,-28.75264,1100.1939)" stroke-width="2.5" stroke-linecap="butt" stroke-dasharray="10,15" stroke-miterlimit="3.8" stroke-linejoin="miter" fill="none" stroke="#000000" d="M822.199 9517.8V10424.8L822.699 10446.8V10682.3L823.199 10707.3V10725.3M826.199 10725.3V10719.8L826.699 10710.3 827.199 10703.3 827.699 10698.3 828.199 10695.3 829.199 10693.3 829.699 10692.8H830.699 831.699L832.699 10692.3 833.699 10690.8 835.199 10688.3 836.699 10684.8 838.199 10679.3 839.699 10672.3 841.699 10663.8 844.199 10653.8 846.199 10642.3 849.199 10629.8 852.199 10616.8 855.199 10603.3 859.199 10590.8 863.199 10578.8 867.699 10567.8 872.699 10558.8 878.699 10551.8 884.699 10546.8 891.699 10543.3 899.199 10542.3H908.199L917.699 10543.3 928.199 10545.3 939.699 10547.8 952.699 10550.3 967.199 10552.3 983.699 10554.3 1001.7 10556.3 1021.2 10557.3 1043.7 10558.3 1068.2 10558.8 1095.7 10559.3 1125.7 10559.8H1159.7L1197.2 10560.3H1238.7 1285.2 1336.2 1393.7"/>
<path transform="matrix(.1,0,0,-.1,-28.75264,1100.1939)" stroke-width="2.5" stroke-linecap="butt" stroke-dasharray="10,15" stroke-miterlimit="3.8" stroke-linejoin="miter" fill="none" stroke="#000000" d="M1393.7 10560.3H2460.7"/>
<path transform="matrix(.1,0,0,-.1,-28.75264,1100.1939)" stroke-width="2.5" stroke-linecap="butt" stroke-dasharray="10,15" stroke-miterlimit="3.8" stroke-linejoin="miter" fill="none" stroke="#000000" d="M822.199 9517.8H986.199V10428.8L986.699 10449.3V10470.8 10492.8 10515.3 10538.3 10560.8 10582.8L987.199 10604.3V10624.8 10643.3 10660.3L987.699 10674.8V10686.8 10695.8L988.199 10701.8V10704.8 10705.3L988.699 10702.8 989.199 10698.3V10691.8L989.699 10684.3 990.199 10675.8 990.699 10667.3 991.199 10658.8 991.699 10650.3 992.199 10642.3 992.699 10634.8 993.699 10627.3 994.699 10620.3 995.199 10612.8 996.699 10604.8 997.699 10595.8 998.699 10586.3 1000.2 10576.3 1001.7 10564.8 1003.7 10552.8 1005.7 10539.8 1007.7 10526.8 1010.2 10513.3 1013.2 10499.8 1015.7 10486.8 1019.2 10474.3 1023.2 10463.8 1027.2 10454.3 1031.7 10446.8 1036.7 10441.3 1042.2 10437.8 1048.7 10436.8 1055.7 10437.8 1063.2 10440.3 1071.7 10444.3 1081.2 10449.3"/>
<path transform="matrix(.1,0,0,-.1,-28.75264,1100.1939)" stroke-width="2.5" stroke-linecap="butt" stroke-dasharray="10,15" stroke-miterlimit="3.8" stroke-linejoin="miter" fill="none" stroke="#000000" d="M1081.2 10449.3 1091.7 10455.3 1103.7 10461.8 1116.7 10468.3 1131.2 10475.3 1147.2 10481.8 1165.2 10487.8 1185.2 10493.8 1207.2 10499.3 1232.2 10504.3 1259.2 10508.8 1289.7 10512.8 1323.2 10515.8 1360.7 10518.8 1402.7 10520.8 1448.7 10522.3 1500.2 10523.8 1557.2 10524.3 1620.7 10524.8 1691.2 10525.3H1769.7 1856.7 1953.7 2061.2 2180.7 2313.2 2460.7"/>
<path transform="matrix(.1,0,0,-.1,-28.75264,1100.1939)" stroke-width="2.5" stroke-linecap="butt" stroke-dasharray="10,15" stroke-miterlimit="3.8" stroke-linejoin="miter" fill="none" stroke="#000000" d="M822.199 9517.8H1149.7V10181.3L1150.2 10182.3V10183.8 10184.8 10186.3 10187.8 10189.8 10191.8 10193.8 10195.8 10198.8 10201.3 10204.3 10207.8 10211.3 10215.3 10219.8 10224.3 10229.8 10235.3 10240.8 10247.3 10253.8 10261.3L1150.7 10268.8V10276.3 10284.8 10293.3 10301.8 10310.3L1151.2 10319.3V10327.8 10335.8 10343.8L1151.7 10351.3V10357.8L1152.2 10363.3V10367.8L1152.7 10370.8V10372.8L1153.2 10373.3 1153.7 10372.3V10369.8L1154.2 10365.8 1154.7 10360.3 1155.2 10353.3 1156.2 10345.8 1156.7 10336.8 1157.2 10326.8 1158.2 10315.8 1159.2 10304.3 1160.2 10292.3 1161.2 10279.3 1162.7 10266.3 1164.2 10252.3 1165.7 10238.3 1167.2 10223.8 1169.2 10209.8 1171.2 10195.3 1173.7 10181.8 1176.7 10168.8 1179.2 10156.3 1182.7 10144.8 1186.2 10134.8 1190.2 10125.8 1194.7 10118.8 1199.7 10112.8 1205.7 10108.8 1211.7 10106.3 1218.7 10104.8H1226.2L1234.7 10105.8 1244.2 10107.3 1254.7 10109.8 1266.2 10112.3 1279.2 10115.3 1293.2 10118.3 1309.2 10120.8 1327.2 10123.8 1346.7 10126.3 1368.7 10128.8 1392.7 10130.8 1419.7 10132.3"/>
<path transform="matrix(.1,0,0,-.1,-28.75264,1100.1939)" stroke-width="2.5" stroke-linecap="butt" stroke-dasharray="10,15" stroke-miterlimit="3.8" stroke-linejoin="miter" fill="none" stroke="#000000" d="M1419.7 10132.3 1449.7 10133.8 1483.2 10134.8 1520.2 10135.3H1561.2L1606.7 10135.8H1657.7L1714.2 10135.3H1776.7L1846.7 10134.8H1923.7 2009.7 2105.7L2211.7 10134.3H2329.7 2460.7"/>
<path transform="matrix(.1,0,0,-.1,-28.75264,1100.1939)" stroke-width="2.5" stroke-linecap="butt" stroke-dasharray="10,15" stroke-miterlimit="3.8" stroke-linejoin="miter" fill="none" stroke="#000000" d="M822.199 9517.8H1313.7V10174.3H1314.2V10174.8 10175.3 10175.8 10176.3 10176.8 10177.3L1314.7 10177.8V10178.3H1315.2V10177.8 10177.3L1315.7 10176.8V10175.8L1316.2 10174.8V10173.3L1316.7 10171.3V10169.3L1317.2 10166.3 1317.7 10163.3 1318.2 10159.3 1318.7 10155.3 1319.2 10150.3 1319.7 10144.8 1320.2 10138.8 1321.2 10132.3 1321.7 10125.3 1322.7 10117.3 1323.7 10108.8 1324.7 10100.3 1326.2 10090.8 1327.7 10080.8 1329.2 10070.8 1330.7 10060.3 1332.7 10049.3 1334.7 10037.8 1337.2 10026.3 1339.7 10014.8 1342.7 10003.3 1345.7 9992.3 1349.2 9981.3 1353.2 9970.8 1357.7 9960.8 1362.2 9951.3 1367.7 9942.3 1373.7 9934.3 1380.2 9926.8 1387.7 9919.8 1396.2 9913.3 1405.2 9907.8 1415.2 9902.3 1426.7 9897.3 1439.2 9892.3 1453.2 9887.3 1468.7 9882.8 1485.7 9878.3 1505.2 9873.8 1526.2 9869.8 1549.7 9865.3 1576.2 9861.3 1605.2 9857.3 1637.7 9853.8 1673.7 9850.3 1713.7 9847.3 1758.2 9844.8 1807.7 9842.3 1862.2 9840.3 1923.2 9838.8 1991.2 9837.8 2066.2 9836.8 2149.7 9836.3H2242.7L2346.2 9835.8H2460.7"/>
<path transform="matrix(.1,0,0,-.1,-28.75264,1100.1939)" stroke-width="2.5" stroke-linecap="butt" stroke-dasharray="10,15" stroke-miterlimit="3.8" stroke-linejoin="miter" fill="none" stroke="#000000" d="M822.199 9517.8H1477.7V10172.3 10170.8L1478.2 10170.3V10169.8 10169.3 10168.8 10168.3 10167.8L1478.7 10167.3V10166.8 10166.3 10165.8L1479.2 10164.8V10164.3 10163.3L1479.7 10162.3V10161.3L1480.2 10159.8V10158.3L1480.7 10156.8V10155.3L1481.2 10153.3 1481.7 10151.3 1482.2 10148.8 1482.7 10146.3 1483.2 10143.8 1483.7 10140.8 1484.7 10137.3 1485.2 10133.8 1486.2 10130.3 1487.2 10125.8 1488.2 10121.3 1489.2 10116.8 1490.7 10111.3 1492.2 10105.8 1493.7 10100.3 1495.7 10094.3 1497.7 10087.8 1499.7 10081.3 1502.2 10074.3 1504.7 10067.3 1508.2 10059.8 1511.2 10052.3 1515.2 10044.8 1519.2 10037.8 1523.7 10030.3 1529.2 10022.8 1534.7 10015.8 1541.2 10008.8 1548.2 10002.3 1556.2 9995.8 1564.7 9989.3 1574.2 9983.3 1585.2 9977.3 1597.2 9971.8 1610.2 9966.3 1625.2 9960.8 1641.7 9955.3 1659.7 9950.3 1680.2 9945.3 1702.7 9940.3 1727.7 9935.8 1755.2 9931.3 1786.2 9926.8 1820.2 9923.3 1858.7 9919.8 1900.7 9916.8 1947.7 9914.3 2000.2 9912.3 2058.2 9910.8 2122.7 9909.3 2194.2 9908.3 2273.7 9907.8 2362.2 9907.3H2460.7"/>
<path transform="matrix(.1,0,0,-.1,-28.75264,1100.1939)" stroke-width="2.5" stroke-linecap="butt" stroke-dasharray="10,15" stroke-miterlimit="3.8" stroke-linejoin="miter" fill="none" stroke="#000000" d="M822.199 9517.8H1641.7V10172.3 10171.3H1642.2V10170.8 10170.3L1642.7 10169.8V10169.3L1643.2 10168.8V10168.3L1643.7 10167.8V10167.3 10166.8L1644.2 10166.3 1644.7 10165.8V10165.3L1645.2 10164.3 1645.7 10163.8 1646.2 10162.8 1646.7 10161.8 1647.2 10160.8 1647.7 10159.3 1648.7 10158.3 1649.2 10156.8 1650.2 10155.3 1651.2 10153.8 1652.2 10151.8 1653.7 10149.8 1654.7 10147.8 1656.2 10145.8 1658.2 10143.3 1659.7 10140.8 1662.2 10138.3 1664.2 10135.3 1666.7 10132.3 1669.7 10129.3 1672.7 10126.3 1676.2 10122.8 1680.2 10119.8 1684.2 10116.3 1689.2 10112.8 1694.2 10109.8 1700.2 10106.3 1706.7 10102.8 1714.2 10099.8 1722.2 10096.3 1731.2 10093.3 1741.2 10089.8 1752.2 10086.8 1764.2 10083.8 1778.2 10080.8 1793.2 10078.3 1810.2 10075.3 1828.7 10072.8 1849.7 10069.8 1872.7 10067.3 1898.7 10064.8 1927.2 10062.8 1958.7 10060.3 1994.2 10058.8 2033.2 10056.8 2076.7 10055.3 2125.2 10054.3 2179.2 10053.3 2238.7 10052.3 2305.2 10051.8 2378.7 10051.3 2460.7 10050.8"/>
<path transform="matrix(.1,0,0,-.1,-28.75264,1100.1939)" stroke-width="2.5" stroke-linecap="butt" stroke-miterlimit="3.8" stroke-linejoin="miter" fill="none" stroke="#000000" d="M822.199 10173.8V10414.3L822.699 10432.8V10704.3L823.199 10725.3M826.199 10725.3 826.699 10717.3V10710.3L827.199 10704.3 827.699 10700.3 828.199 10697.3 829.199 10695.8 829.699 10695.3H830.199 831.199L832.199 10694.8 833.199 10694.3 834.199 10692.8 835.199 10690.8 836.699 10687.3 837.699 10682.8 839.199 10676.8 841.199 10669.8 842.699 10661.8 844.699 10652.3 847.199 10641.8 849.699 10631.3 852.199 10619.8 855.199 10608.3 858.199 10596.8 861.699 10586.3 865.699 10576.3 870.199 10567.8 874.699 10560.3 879.699 10554.8 885.199 10550.3 891.699 10547.8 898.199 10546.3H905.699L913.699 10546.8 922.699 10548.3 932.699 10549.8 943.199 10551.8 955.199 10553.8 968.199 10555.8 982.199 10557.3 997.699 10558.8 1015.2 10559.8 1033.7 10560.8 1054.7 10561.3 1077.2 10561.8H1102.2L1129.2 10562.3H1159.2 1192.2 1228.2 1267.7L1311.2 10562.8H1358.7 1411.2 1468.7 1531.7 1600.7 1676.7 1759.7 1851.2 1951.7L2061.7 10562.3H2182.7 2315.2 2460.7"/>
<path transform="matrix(.1,0,0,-.1,-28.75264,1100.1939)" stroke-width="2.5" stroke-linecap="butt" stroke-miterlimit="3.8" stroke-linejoin="miter" fill="none" stroke="#000000" d="M986.199 10173.8V10423.3L986.699 10441.3V10596.8L987.199 10615.3V10632.8 10648.8 10663.8 10676.3L987.699 10687.3V10695.8 10702.3L988.199 10706.3V10708.3L988.699 10707.8V10705.3L989.199 10701.3V10695.8L989.699 10689.3V10681.8L990.199 10674.3 990.699 10666.8 991.199 10659.3 991.699 10651.8 992.199 10644.8 992.699 10638.3 993.699 10631.8 994.199 10625.3 995.199 10618.8 995.699 10611.8 996.699 10604.8 997.699 10596.8 999.199 10588.3 1000.2 10579.3 1001.7 10569.3 1003.2 10558.8 1004.7 10547.8 1006.7 10536.3 1008.7 10524.3 1011.2 10512.8 1013.2 10500.8 1016.2 10489.3 1019.2 10478.8 1022.2 10468.8 1025.7 10460.3 1029.7 10453.3 1033.7 10447.3 1038.7 10443.3 1043.7 10440.8 1049.2 10440.3 1055.2 10440.8 1062.2 10443.3 1069.7 10446.3 1077.7 10450.8 1086.7 10455.3 1096.2 10460.8 1107.2 10466.3 1119.2 10472.3 1131.7 10477.8 1146.2 10483.8 1161.7 10489.3 1178.7 10494.3 1197.7 10499.3 1218.2 10503.8 1240.7 10507.8 1265.7 10511.8 1293.2 10514.8 1323.2 10517.8 1355.7 10520.3 1391.7 10522.3 1431.7 10523.8 1474.7 10524.8 1522.7 10525.8 1574.7 10526.3 1632.2 10526.8 1695.2 10527.3H1764.7 1840.2 1923.7 2015.2 2115.2 2225.7 2346.2 2460.7"/>
<path transform="matrix(.1,0,0,-.1,-28.75264,1100.1939)" stroke-width="2.5" stroke-linecap="butt" stroke-miterlimit="3.8" stroke-linejoin="miter" fill="none" stroke="#000000" d="M1149.7 10173.8 1150.2 10205.8V10264.8L1150.7 10271.3V10278.3 10285.3 10292.8 10300.3 10307.8L1151.2 10315.8V10323.3 10330.8 10338.3 10345.3L1151.7 10351.8V10357.8 10362.8L1152.2 10367.3V10370.8L1152.7 10373.3V10374.8L1153.2 10375.3V10374.8L1153.7 10372.8 1154.2 10369.3 1154.7 10365.3 1155.2 10359.8 1155.7 10353.8 1156.2 10346.3 1156.7 10338.3 1157.2 10329.8 1158.2 10320.3 1158.7 10310.3 1159.7 10299.8 1160.7 10288.8 1161.7 10277.3 1162.7 10265.3 1164.2 10253.3 1165.7 10240.8 1167.2 10227.8 1168.7 10215.3 1170.7 10202.8 1172.7 10190.3 1174.7 10178.8 1177.2 10167.3 1179.7 10156.3 1182.7 10146.3 1186.2 10137.3 1189.7 10129.8 1193.2 10122.8 1197.7 10117.3 1202.2 10112.8 1207.2 10109.8 1213.2 10107.8 1219.2 10106.8 1226.2 10106.3 1233.2 10107.3 1241.7 10108.3 1250.2 10110.3 1260.2 10112.3 1271.2 10114.8 1282.7 10117.3 1295.7 10119.8 1310.2 10122.3 1325.7 10124.8 1342.7 10127.3 1361.7 10129.3 1382.2 10131.3 1404.7 10132.8 1429.7 10134.3 1456.7 10135.3 1486.7 10135.8 1519.7 10136.3 1555.7 10136.8H1595.2 1638.7 1686.2 1738.7L1796.2 10136.3H1859.2 1928.2L2004.2 10135.8H2087.7 2178.7 2279.2 2389.2 2460.7"/>
<path transform="matrix(.1,0,0,-.1,-28.75264,1100.1939)" stroke-width="2.5" stroke-linecap="butt" stroke-miterlimit="3.8" stroke-linejoin="miter" fill="none" stroke="#000000" d="M1313.7 10173.8V10175.8L1314.2 10176.3V10178.8L1314.7 10179.3V10179.8H1315.2V10179.3 10178.8L1315.7 10178.3V10177.8L1316.2 10176.8V10175.3 10173.8L1316.7 10172.3 1317.2 10169.8V10167.3L1317.7 10164.8 1318.2 10161.3V10157.8L1318.7 10153.3 1319.2 10148.8 1319.7 10143.8 1320.7 10138.3 1321.2 10132.3 1321.7 10126.3 1322.7 10119.3 1323.7 10111.8 1324.7 10104.3 1325.7 10096.3 1326.7 10087.8 1328.2 10078.8 1329.2 10069.8 1330.7 10060.3 1332.7 10050.3 1334.2 10040.3 1336.2 10030.3 1338.7 10020.3 1341.2 10009.8 1343.7 9999.8 1346.7 9990.3 1349.7 9980.3 1353.2 9971.3 1357.2 9962.3 1361.7 9953.8 1366.2 9945.8 1371.2 9938.3 1376.7 9931.3 1383.2 9924.8 1389.7 9919.3 1397.2 9913.3 1405.2 9908.3 1414.2 9903.8 1424.2 9899.3 1434.7 9894.8 1446.7 9890.3 1459.7 9886.3 1473.7 9882.3 1489.2 9878.3 1506.7 9874.3 1525.2 9870.8 1546.2 9866.8 1568.7 9863.3 1593.7 9859.8 1620.7 9856.3 1650.7 9853.3 1683.7 9850.3 1719.7 9847.8 1759.2 9845.3 1802.7 9843.3 1850.2 9841.8 1902.7 9840.3 1960.2 9839.3 2023.2 9838.3 2092.2 9837.8 2168.2 9837.3 2251.2 9836.8H2342.7L2443.2 9836.3H2460.7"/>
<path transform="matrix(.1,0,0,-.1,-28.75264,1100.1939)" stroke-width="2.5" stroke-linecap="butt" stroke-miterlimit="3.8" stroke-linejoin="miter" fill="none" stroke="#000000" d="M1477.7 10173.8V10172.3L1478.2 10171.8V10169.8L1478.7 10169.3V10168.8 10168.3 10167.8 10167.3L1479.2 10166.8V10166.3 10165.3 10164.3L1479.7 10163.3V10162.3L1480.2 10161.3V10160.3L1480.7 10158.8V10157.3L1481.2 10155.8 1481.7 10153.8V10151.8L1482.2 10149.8 1482.7 10147.8 1483.2 10145.3 1483.7 10142.8 1484.2 10139.8 1485.2 10136.8 1485.7 10133.3 1486.7 10129.8 1487.2 10126.3 1488.2 10122.3 1489.2 10117.8 1490.7 10113.3 1491.7 10108.3 1493.2 10103.3 1494.7 10098.3 1496.2 10092.8 1498.2 10086.8 1500.2 10080.8 1502.7 10074.8 1504.7 10068.3 1507.7 10061.8 1510.7 10055.3 1513.7 10048.8 1517.2 10042.3 1521.2 10035.8 1525.2 10029.3 1530.2 10022.8 1535.2 10016.3 1540.7 10010.3 1546.7 10004.3 1553.7 9998.8 1561.2 9992.8 1569.2 9987.3 1578.2 9982.3 1587.7 9977.3 1598.7 9972.3 1610.7 9967.3 1623.7 9962.3 1637.7 9957.8 1653.2 9952.8 1670.2 9948.3 1689.2 9944.3 1709.7 9939.8 1732.7 9935.8 1757.2 9931.8 1784.7 9928.3 1814.7 9924.8 1847.2 9921.8 1883.7 9918.8 1923.2 9916.3 1966.7 9914.3 2014.2 9912.8 2066.2 9911.3 2123.7 9910.3 2186.7 9909.3 2256.2 9908.8 2331.7 9908.3H2415.2L2460.7 9907.8"/>
<path transform="matrix(.1,0,0,-.1,-28.75264,1100.1939)" stroke-width="2.5" stroke-linecap="butt" stroke-miterlimit="3.8" stroke-linejoin="miter" fill="none" stroke="#000000" d="M1641.7 10173.8V10172.8H1642.2V10171.8L1642.7 10171.3V10170.8L1643.2 10170.3V10169.8L1643.7 10169.3V10168.8L1644.2 10168.3V10167.8L1644.7 10167.3 1645.2 10166.3V10165.8L1645.7 10165.3 1646.2 10164.3 1646.7 10163.3 1647.2 10162.3 1647.7 10161.3 1648.2 10160.3 1648.7 10159.3 1649.7 10157.8 1650.2 10156.3 1651.2 10155.3 1652.2 10153.3 1653.2 10151.8 1654.2 10149.8 1655.7 10148.3 1657.2 10146.3 1658.7 10143.8 1660.2 10141.8 1662.2 10139.3 1664.2 10136.8 1666.2 10134.3 1668.7 10131.8 1671.2 10128.8 1674.2 10126.3 1677.7 10123.3 1681.2 10120.3 1685.2 10117.3 1689.2 10114.3 1693.7 10111.3 1699.2 10108.3 1704.7 10105.3 1710.7 10102.3 1717.7 10099.3 1724.7 10096.8 1733.2 10093.8 1742.2 10091.3 1751.7 10088.3 1762.7 10085.8 1774.2 10083.3 1787.2 10080.8 1801.7 10078.3 1817.2 10075.8 1834.2 10073.3 1853.2 10070.8 1873.7 10068.8 1896.2 10066.3 1921.2 10064.3 1948.7 10062.3 1978.2 10060.8 2011.2 10059.3 2047.2 10057.8 2086.7 10056.3 2130.2 10055.3 2178.2 10054.3 2230.2 10053.8 2287.7 10053.3 2350.7 10052.8 2419.7 10052.3H2460.7"/>
<path transform="matrix(.1,0,0,-.1,-28.75264,1100.1939)" stroke-width="2.5" stroke-linecap="butt" stroke-miterlimit="3.8" stroke-linejoin="miter" fill="none" stroke="#000000" d="M822.199 10725.3V9517.8H2460.7V10725.3H822.199Z"/>
<use data-text="A" xlink:href="#font_3_1" transform="matrix(0,-9.96264,-9.96264,-0,10.847359,100.09387)" fill="#231f20"/>
<use data-text="1" xlink:href="#font_4_1" transform="matrix(0,-6.97385,-6.97385,-0,12.287197,92.65405)" fill="#231f20"/>
<use data-text="1" xlink:href="#font_4_1" transform="matrix(0,-6.97385,-6.97385,-0,12.287197,88.69409)" fill="#231f20"/>
<use data-text="3" xlink:href="#font_4_2" transform="matrix(0,-6.97385,-6.97385,-0,12.287197,84.73407)" fill="#231f20"/>
<use data-text="3" xlink:href="#font_4_2" transform="matrix(0,-6.97385,-6.97385,-0,12.287197,80.77411)" fill="#231f20"/>
<use data-text="t" xlink:href="#font_3_2" transform="matrix(9.96264,0,0,-9.96264,133.60736,178.33386)" fill="#231f20"/>
<use data-text="A" xlink:href="#font_3_1" transform="matrix(9.96264,0,0,-9.96264,112.36716,13.573853)" fill="#231f20"/>
<use data-text="1" xlink:href="#font_4_1" transform="matrix(6.97385,0,0,-6.97385,119.80739,15.013672)" fill="#231f20"/>
<use data-text="1" xlink:href="#font_4_1" transform="matrix(6.97385,0,0,-6.97385,123.767398,15.013672)" fill="#231f20"/>
<use data-text="3" xlink:href="#font_4_2" transform="matrix(6.97385,0,0,-6.97385,127.7274,15.013672)" fill="#231f20"/>
<use data-text="3" xlink:href="#font_4_2" transform="matrix(6.97385,0,0,-6.97385,131.68743,15.013672)" fill="#231f20"/>
<use data-text="(" xlink:href="#font_2_3" transform="matrix(9.96264,0,0,-9.96264,136.2472,13.573853)" fill="#231f20"/>
<use data-text="t" xlink:href="#font_3_2" transform="matrix(9.96264,0,0,-9.96264,140.08704,13.573853)" fill="#231f20"/>
<use data-text="," xlink:href="#font_3_3" transform="matrix(9.96264,0,0,-9.96264,143.68704,13.573853)" fill="#231f20"/>
<use data-text="t" xlink:href="#font_3_2" transform="matrix(9.96264,0,0,-9.96264,148.12656,13.573853)" fill="#231f20"/>
<use data-text="&#x2032;" xlink:href="#font_5_1" transform="matrix(6.97385,0,0,-6.97385,151.72724,9.973877)" fill="#231f20"/>
<use data-text=")" xlink:href="#font_2_4" transform="matrix(9.96264,0,0,-9.96264,154.487,13.573853)" fill="#231f20"/>
</g>
</svg>
