<svg xmlns="http://www.w3.org/2000/svg" xmlns:xlink="http://www.w3.org/1999/xlink" xmlns:inkscape="http://www.inkscape.org/namespaces/inkscape" version="1.1" width="219.94197" height="178.96063" viewBox="0 0 219.94197 178.96063">
<defs>
<clipPath id="clip_1">
<path transform="matrix(1,0,0,-1,-29.128018,1095.33)" d="M29.128018 916.3693H249.06999V1095.33H29.128018Z" clip-rule="evenodd"/>
</clipPath>
<path id="font_2_30" d="M.2939911 .64004519C.2939911 .66400149 .2939911 .6660156 .2709961 .6660156 .20899964 .60227969 .12098694 .60227969 .08898926 .60227969V.57128909C.10899353 .57128909 .16799927 .57128909 .21998596 .5972748V.07902527C.21998596 .042999269 .21699524 .0309906 .1269989 .0309906H.09498596V0C.12998963 .0029907227 .21699524 .0029907227 .25698854 .0029907227 .29699708 .0029907227 .38398744 .0029907227 .4189911 0V.0309906H.3869934C.29699708 .0309906 .2939911 .041992189 .2939911 .07902527V.64004519Z"/>
<path id="font_2_29" d="M.45999146 .31976319C.45999146 .39982606 .45498658 .47988893 .41999818 .5539398 .37399293 .65000918 .2919922 .6660156 .25 .6660156 .18998719 .6660156 .116989139 .64001467 .07598877 .54693606 .04399109 .47789 .038986207 .39982606 .038986207 .31976319 .038986207 .24472046 .042999269 .15464783 .083999637 .07859802 .1269989-.0024719239 .19999695-.022460938 .24899292-.022460938 .30299378-.022460938 .3789978-.0014648438 .4229889 .09359741 .45498658 .16265869 .45999146 .2407074 .45999146 .31976319M.24899292-.00047302247C.20999146-.00047302247 .15098572 .024551392 .1329956 .12062073 .12199402 .18066406 .12199402 .2727356 .12199402 .3317871 .12199402 .39582826 .12199402 .46188355 .12998963 .5159149 .14898682 .63500979 .22399903 .64401248 .24899292 .64401248 .28199769 .64401248 .34799195 .6259918 .36698915 .52693179 .3769989 .47088624 .3769989 .39482118 .3769989 .3317871 .3769989 .25672914 .3769989 .18867493 .3659973 .12461853 .35099793 .029556275 .2939911-.00047302247 .24899292-.00047302247Z"/>
<path id="font_3_1" d="M.5049896 .18203736H.47099305C.46798707 .16001892 .45799256 .100997928 .44499208 .09098816 .43699647 .084991458 .3600006 .084991458 .34599305 .084991458H.1619873C.2669983 .17803955 .3019867 .20603943 .3619995 .25306703 .43598939 .312088 .5049896 .374115 .5049896 .46914674 .5049896 .5900879 .39898683 .6640625 .2709961 .6640625 .14698792 .6640625 .06298828 .57710269 .06298828 .4851532 .06298828 .43414308 .10598755 .42915345 .115997318 .42915345 .13999939 .42915345 .16899109 .44615174 .16899109 .48214723 .16899109 .5001526 .1619873 .53515627 .10998535 .53515627 .14099121 .6060791 .20899964 .62805178 .2559967 .62805178 .35598756 .62805178 .4079895 .5501404 .4079895 .46914674 .4079895 .38212586 .34599305 .3130951 .31399537 .27708436L.07299805 .038986207C.06298828 .02999878 .06298828 .027999878 .06298828 0H.47499085L.5049896 .18203736Z"/>
<path id="font_3_2" d="M.272995 .33428956C.35099793 .33428956 .40699769 .2803192 .40699769 .1733551 .40699769 .04940796 .33499146 .012466431 .2769928 .012466431 .23699951 .012466431 .14898682 .0234375 .10699463 .082351688 .1539917 .084350589 .16499329 .11735535 .16499329 .13835144 .16499329 .17034912 .14099121 .19335938 .10998535 .19335938 .08198547 .19335938 .053985597 .17634583 .053985597 .13534546 .053985597 .041412355 .1579895-.01953125 .2789917-.01953125 .41799928-.01953125 .5139923 .07336426 .5139923 .1733551 .5139923 .2513275 .44999696 .32929994 .33999635 .35229493 .44499208 .39024354 .48298646 .4650879 .48298646 .5260773 .48298646 .60505679 .3919983 .6640625 .2809906 .6640625 .16999817 .6640625 .084991458 .61006167 .084991458 .5300751 .084991458 .49606324 .10699463 .47706605 .13699341 .47706605 .16799927 .47706605 .18798828 .5000763 .18798828 .5280762 .18798828 .5570679 .16799927 .57806399 .13699341 .5800781 .17199707 .62405398 .24099732 .63505557 .27799989 .63505557 .32299806 .63505557 .38598634 .6130676 .38598634 .5260773 .38598634 .48406983 .37199403 .43814088 .34599305 .4072113 .31298829 .36927796 .2849884 .3672943 .23498535 .36428834 .20999146 .3623047 .20799256 .3623047 .20298767 .3612976 .20098877 .3612976 .19299317 .3592987 .19299317 .34829713 .19299317 .33428956 .20199585 .33428956 .21899414 .33428956H.272995Z"/>
<path id="font_3_3" d="M.5289917 .1640625V.20005799H.41799928V.64582827C.41799928 .66682437 .41799928 .6738281 .3959961 .6738281 .38398744 .6738281 .37998963 .6738281 .36999513 .65982058L.038986207 .20005799V.1640625H.33299256V.08201599C.33299256 .04800415 .33299256 .035995485 .2519989 .035995485H.22499085V0C.2749939 .0019989014 .33898927 .0039978029 .375 .0039978029 .4119873 .0039978029 .47599793 .0019989014 .526001 0V.035995485H.49899293C.41799928 .035995485 .41799928 .04800415 .41799928 .08201599V.1640625H.5289917M.33999635 .5658722V.20005799H.07598877L.33999635 .5658722Z"/>
<path id="font_2_15" d="M.116989139 .21801758C.116989139 .38093568 .19898987 .42323304 .2519989 .42323304 .26098634 .42323304 .32398988 .42222596 .35899354 .38594056 .31799317 .38293458 .31199647 .3529358 .31199647 .3399353 .31199647 .31393434 .32998658 .2939453 .35798646 .2939453 .38398744 .2939453 .4039917 .3109436 .4039917 .34094239 .4039917 .40911866 .32798768 .4482422 .25099183 .4482422 .12599182 .4482422 .033996583 .3399353 .033996583 .21601868 .033996583 .08816528 .1329956-.0107421879 .24899292-.0107421879 .3829956-.0107421879 .4149933 .10914612 .4149933 .119140628 .4149933 .12911988 .40499879 .12911988 .4019928 .12911988 .3929901 .12911988 .3909912 .12512207 .3889923 .119140628 .3600006 .026229859 .29499818 .014251709 .2579956 .014251709 .20498657 .014251709 .116989139 .0572052 .116989139 .21801758Z"/>
<path id="font_2_2" d="M.47099305 .21424866C.47099305 .34223939 .37098695 .4482422 .25 .4482422 .125 .4482422 .027999878 .3392334 .027999878 .21424866 .027999878 .085250858 .13198853-.0107421879 .24899292-.0107421879 .36999513-.0107421879 .47099305 .087249759 .47099305 .21424866M.25 .014251709C.20698548 .014251709 .16299439 .035247804 .13598633 .08125305 .11099243 .12524414 .11099243 .18624878 .11099243 .22224427 .11099243 .26124574 .11099243 .31523133 .1349945 .35923768 .1619873 .40522767 .20899964 .426239 .24899292 .426239 .29299928 .426239 .33599855 .40423585 .3619995 .36123658 .3880005 .3182373 .3880005 .26023866 .3880005 .22224427 .3880005 .18624878 .3880005 .13224793 .3659973 .08824158 .34399415 .04324341 .2999878 .014251709 .25 .014251709Z"/>
<path id="font_2_23" d="M.10998535 .34429933V.076034549C.10998535 .0309906 .09899902 .0309906 .03199768 .0309906V0C.066986087 .0009918213 .117996219 .0029907227 .14498902 .0029907227 .17098999 .0029907227 .22299195 .0009918213 .25698854 0V.0309906C.18998719 .0309906 .1789856 .0309906 .1789856 .076034549V.2602234C.1789856 .36431886 .25 .42037965 .31399537 .42037965 .3769989 .42037965 .3880005 .36631776 .3880005 .30926515V.076034549C.3880005 .0309906 .3769989 .0309906 .30999757 .0309906V0C.34498597 .0009918213 .3959961 .0029907227 .4229889 .0029907227 .44898988 .0029907227 .5009918 .0009918213 .5349884 0V.0309906C.46798707 .0309906 .45700074 .0309906 .45700074 .076034549V.2602234C.45700074 .36431886 .5279999 .42037965 .59199526 .42037965 .6549988 .42037965 .66600039 .36631776 .66600039 .30926515V.076034549C.66600039 .0309906 .6549988 .0309906 .58799746 .0309906V0C.6230011 .0009918213 .673996 .0029907227 .70098879 .0029907227 .72698977 .0029907227 .7789917 .0009918213 .8129883 0V.0309906C.7609863 .0309906 .73599246 .0309906 .7350006 .061019899V.25221253C.7350006 .3383026 .7350006 .36932374 .70399478 .405365 .6899872 .42237855 .6569977 .4423828 .598999 .4423828 .5149994 .4423828 .47099305 .38233949 .45399476 .34429933 .43998719 .43138124 .3659973 .4423828 .32099916 .4423828 .24798584 .4423828 .20098877 .39935304 .17298889 .33729554V.4423828L.03199768 .43138124V.40037538C.101989749 .4003601 .10998535 .39335633 .10998535 .34429933Z"/>
<path id="font_2_4" d="M.17199707 .37635804V.4423828L.027999878 .43138124V.40037538C.09899902 .40037538 .10598755 .3943634 .10598755 .35035707V-.11816406C.10598755-.16334534 .09498596-.16334534 .027999878-.16334534V-.19433594C.06199646-.19334412 .11399841-.19134522 .13999939-.19134522 .16699219-.19134522 .21798706-.19334412 .25299073-.19433594V-.16334534C.18598938-.16334534 .1749878-.16334534 .1749878-.11816406V.05026245 .059265138C.17999268 .043258668 .22200012-.0107421879 .2979889-.0107421879 .4169922-.0107421879 .5209961 .08728027 .5209961 .2163086 .5209961 .34335328 .42399598 .4423828 .31199647 .4423828 .23399353 .4423828 .19198609 .39837647 .17199707 .37635804M.1749878 .11428833V.33735658C.20399475 .3883667 .25299073 .41737367 .3039856 .41737367 .3769989 .41737367 .43798829 .3293457 .43798829 .2163086 .43798829 .09527588 .36799623 .011245728 .2939911 .011245728 .2539978 .011245728 .21598816 .03125 .18899536 .072265628 .1749878 .09327698 .1749878 .0942688 .1749878 .11428833Z"/>
<path id="font_2_10" d="M.3909912 .07926941V-.0107421879L.5349884 .00024414063V.03125C.46499635 .03125 .45700074 .038253786 .45700074 .087265018V.4423828L.30999757 .43138124V.40037538C.37998963 .40037538 .3880005 .39337159 .3880005 .34436036V.16630554C.3880005 .07926941 .33999635 .011245728 .2669983 .011245728 .18299866 .011245728 .1789856 .058258058 .1789856 .11027527V.4423828L.03199768 .43138124V.40037538C.10998535 .40037538 .10998535 .39736939 .10998535 .3083496V.15829468C.10998535 .08027649 .10998535-.0107421879 .2619934-.0107421879 .31799317-.0107421879 .3619995 .01725769 .3909912 .07926941Z"/>
<path id="font_2_9" d="M.17298889 .3996582H.31599427V.43066407H.17298889V.6147156H.147995C.14698792 .5326996 .116989139 .42565919 .018997193 .42166139V.3996582H.10398865V.12416077C.10398865 .0012512207 .19699097-.0107421879 .23298645-.0107421879 .3039856-.0107421879 .33198548 .06021118 .33198548 .12416077V.18112183H.30699159V.12615967C.30699159 .052215578 .2769928 .014251709 .23999024 .014251709 .17298889 .014251709 .17298889 .10517883 .17298889 .122161868V.3996582Z"/>
<path id="font_2_12" d="M.33299256 .076156619C.33699037 .036132814 .3639984-.005859375 .41099549-.005859375 .43199159-.005859375 .49299623 .008132935 .49299623 .089157108V.14518738H.46798707V.089157108C.46798707 .031143189 .44299317 .025131226 .43199159 .025131226 .39898683 .025131226 .394989 .07015991 .394989 .075149539V.27514649C.394989 .31707765 .394989 .3560791 .35899354 .39312745 .31999208 .43223573 .269989 .4482422 .22200012 .4482422 .13999939 .4482422 .070999149 .40115357 .070999149 .335083 .070999149 .30508424 .09098816 .28808595 .116989139 .28808595 .14498902 .28808595 .16299439 .30807496 .16299439 .33407594 .16299439 .3460846 .1579895 .3790741 .11199951 .38008119 .13899231 .41519166 .18798828 .426239 .21998596 .426239 .2689972 .426239 .32598878 .38710023 .32598878 .29808045V.26123048C.2749939 .2582245 .20498657 .25523377 .14199829 .22523499 .066986087 .1912384 .041992189 .13923645 .041992189 .09524536 .041992189 .014251709 .13899231-.0107421879 .20199585-.0107421879 .2679901-.010864258 .31399537 .029129029 .33299256 .076156619M.32598878 .24023438V.1401825C.32598878 .045135499 .2539978 .011138916 .20899964 .011138916 .1599884 .011138916 .11898804 .046142579 .11898804 .09616089 .11898804 .15118408 .16099549 .23422241 .32598878 .24023438Z"/>
<path id="font_2_20" d="M.1769867 .4423828 .036987306 .43138124V.40037538C.101989749 .40037538 .11099243 .3943634 .11099243 .34532167V.076034549C.11099243 .0309906 .099990848 .0309906 .032989503 .0309906V0C.06498718 .0009918213 .11898804 .0029907227 .14299011 .0029907227 .17799378 .0029907227 .21299744 .0009918213 .24699402 0V.0309906C.18099976 .0309906 .1769867 .035995485 .1769867 .075042728V.4423828M.18099976 .6159363C.18099976 .64793398 .1559906 .6689453 .12799073 .6689453 .09700012 .6689453 .07499695 .64193728 .07499695 .6159363 .07499695 .5889435 .09700012 .5629425 .12799073 .5629425 .1559906 .5629425 .18099976 .5839386 .18099976 .6159363Z"/>
<path id="font_2_1" d="M.10998535 .34429933V.076034549C.10998535 .0309906 .09899902 .0309906 .03199768 .0309906V0C.066986087 .0009918213 .117996219 .0029907227 .14498902 .0029907227 .17098999 .0029907227 .22299195 .0009918213 .25698854 0V.0309906C.18998719 .0309906 .1789856 .0309906 .1789856 .076034549V.2602234C.1789856 .36431886 .25 .42037965 .31399537 .42037965 .3769989 .42037965 .3880005 .36631776 .3880005 .30926515V.076034549C.3880005 .0309906 .3769989 .0309906 .30999757 .0309906V0C.34498597 .0009918213 .3959961 .0029907227 .4229889 .0029907227 .44898988 .0029907227 .5009918 .0009918213 .5349884 0V.0309906C.48298646 .0309906 .45799256 .0309906 .45700074 .061019899V.25221253C.45700074 .3383026 .45700074 .36932374 .42599488 .405365 .4119873 .42237855 .3789978 .4423828 .32099916 .4423828 .24798584 .4423828 .20098877 .39935304 .17298889 .33729554V.4423828L.03199768 .43138124V.40037538C.101989749 .4003601 .10998535 .39335633 .10998535 .34429933Z"/>
<path id="font_2_17" d="M.11199951 .2524414C.117996219 .40126039 .20199585 .426239 .23599243 .426239 .33898927 .426239 .34899903 .2913971 .34899903 .2524414H.11199951M.11099243 .23144531H.3899994C.4119873 .23144531 .4149933 .23144531 .4149933 .2524414 .4149933 .35131837 .36099244 .4482422 .23599243 .4482422 .11999512 .4482422 .027999878 .34532167 .027999878 .22042847 .027999878 .08631897 .1329956-.0107421879 .24798584-.0107421879 .36999513-.0107421879 .4149933 .10032654 .4149933 .11933899 .4149933 .12934876 .40699769 .13134766 .4019928 .13134766 .3929901 .13134766 .3909912 .12535095 .3889923 .11734009 .35398866 .014251709 .2639923 .014251709 .2539978 .014251709 .20399475 .014251709 .1639862 .044281007 .14099121 .08131409 .11099243 .12934876 .11099243 .19540406 .11099243 .23144531Z"/>
<path id="font_2_24" d="M.33099366-.2400055C.33099366-.23701477 .33099366-.23500061 .31399537-.21800232 .18899536-.0920105 .15699768 .09700012 .15699768 .25 .15699768 .42399598 .19499207 .59799197 .31799317 .72299197 .33099366 .73498538 .33099366 .7369995 .33099366 .73999026 .33099366 .746994 .32699586 .75 .32099916 .75 .31098939 .75 .22099304 .6819916 .1619873 .5549927 .11099243 .44499208 .09899902 .33399964 .09899902 .25 .09899902 .17199707 .10998535 .050994874 .16499329-.06201172 .22499085-.18501282 .31098939-.25 .32099916-.25 .32699586-.25 .33099366-.24700928 .33099366-.2400055Z"/>
<path id="font_2_7" d="M.20799256 .19424439C.22999573 .19024658 .31199647 .17424011 .31199647 .102249149 .31199647 .051254274 .2769928 .011245728 .19898987 .011245728 .114990238 .011245728 .07899475 .06825256 .05999756 .15324402 .056991579 .1662445 .055999757 .17024231 .04598999 .17024231 .032989503 .17024231 .032989503 .16323853 .032989503 .14524842V.013244629C.032989503-.003753662 .032989503-.0107421879 .04399109-.0107421879 .04899597-.0107421879 .049987794-.009750366 .068984989 .009246826 .070999149 .011245728 .070999149 .013244629 .08898926 .03224182 .1329956-.009750366 .17799378-.0107421879 .19898987-.0107421879 .31399537-.0107421879 .3600006 .056243898 .3600006 .12825012 .3600006 .1812439 .32998658 .21124268 .31799317 .22323609 .2849884 .25523377 .24598694 .26324464 .20399475 .27124024 .147995 .28224183 .08099365 .2952423 .08099365 .35324098 .08099365 .38822938 .10699463 .42922975 .19299317 .42922975 .30299378 .42922975 .30799867 .3392334 .30999757 .3082428 .31098939 .2992401 .31999208 .2992401 .32199098 .2992401 .33499146 .2992401 .33499146 .304245 .33499146 .3232422V.4242401C.33499146 .4412384 .33499146 .4482422 .32398988 .4482422 .31900025 .4482422 .31698609 .4482422 .3039856 .43623353 .30099488 .43223573 .29100038 .42323304 .2869873 .42022706 .24899292 .4482422 .20799256 .4482422 .19299317 .4482422 .070999149 .4482422 .032989503 .38124085 .032989503 .3252411 .032989503 .29023744 .04899597 .26223756 .07598877 .24023438 .10798645 .21424866 .13598633 .2082367 .20799256 .19424439Z"/>
<path id="font_2_25" d="M.2889862 .25C.2889862 .32798768 .27799989 .44898988 .22299195 .56199648 .16299439 .68499758 .07699585 .75 .066986087 .75 .06098938 .75 .056991579 .74598696 .056991579 .73999026 .056991579 .7369995 .056991579 .73498538 .07598877 .71699526 .17399597 .6179962 .23098755 .45899964 .23098755 .25 .23098755 .07899475 .19400025-.09700012 .069992069-.2230072 .056991579-.23500061 .056991579-.23701477 .056991579-.2400055 .056991579-.2460022 .06098938-.25 .066986087-.25 .07699585-.25 .16699219-.18200684 .22599793-.055007936 .2769928 .054992677 .2889862 .16600037 .2889862 .25Z"/>
<path id="font_2_13" d="M.17199707 .3773346V.69433596L.027999878 .68333438V.6523285C.09799194 .6523285 .10598755 .6453247 .10598755 .596344V0H.1309967C.13198853 .0009918213 .13999939 .01499939 .16699219 .062026979 .18199158 .039260866 .22399903-.0107421879 .2979889-.0107421879 .4169922-.0107421879 .5209961 .08728027 .5209961 .2163086 .5209961 .34335328 .4229889 .4423828 .30899049 .4423828 .23098755 .4423828 .18798828 .39535523 .17199707 .3773346M.1749878 .11407471V.32028199C.1749878 .33929444 .1749878 .3403015 .18598938 .35630799 .22499085 .41236878 .27999879 .42037965 .3039856 .42037965 .34899903 .42037965 .3849945 .39434815 .40899659 .35630799 .43499757 .3152771 .43798829 .2582245 .43798829 .21717835 .43798829 .18014527 .43598939 .12008667 .40699769 .075042728 .38598634 .044021608 .34799195 .010986328 .2939911 .010986328 .24899292 .010986328 .21299744 .035003663 .18899536 .07203674 .1749878 .093063358 .1749878 .096069339 .1749878 .11407471Z"/>
<path id="font_2_6" d="M.16699219 .3323059V.4423828L.027999878 .43138124V.40037538C.09799194 .40037538 .10598755 .39337159 .10598755 .34431459V.076034549C.10598755 .0309906 .09498596 .0309906 .027999878 .0309906V0C.066986087 .0009918213 .11399841 .0029907227 .14199829 .0029907227 .18199158 .0029907227 .22898865 .0029907227 .2689972 0V.0309906H.24798584C.17399597 .0309906 .17199707 .042007448 .17199707 .07803345V.232193C.17199707 .33128358 .21398926 .42037965 .2899933 .42037965 .29699708 .42037965 .29899598 .42037965 .30099488 .41937257 .2979889 .41838075 .27799989 .4063568 .27799989 .38034059 .27799989 .35231019 .29899598 .33729554 .32099916 .33729554 .33898927 .33729554 .3639984 .3493042 .3639984 .3813324 .3639984 .41337586 .33299256 .4423828 .2899933 .4423828 .21699524 .4423828 .18099976 .37535096 .16699219 .3323059Z"/>
<path id="font_2_18" d="M.1749878 .43066407V.5467529C.1749878 .63479617 .22299195 .68307498 .2669983 .68307498 .269989 .68307498 .2849884 .68307498 .2999878 .675827 .28799439 .6717987 .269989 .6587982 .269989 .6338043 .269989 .61079409 .28599549 .5907898 .31298829 .5907898 .34199525 .5907898 .35699464 .61079409 .35699464 .63479617 .35699464 .6717987 .31999208 .7050781 .2669983 .7050781 .19699097 .7050781 .11199951 .65179446 .11199951 .5457611V.43066407H.032989503V.3996582H.11199951V.07595825C.11199951 .0309906 .100997928 .0309906 .033996583 .0309906V0C.07299805 .0009918213 .11999512 .0029907227 .147995 .0029907227 .18798828 .0029907227 .23498535 .0029907227 .2749939 0V.0309906H.2539978C.17999268 .0309906 .17799378 .04197693 .17799378 .07795715V.3996582H.2919922V.43066407H.1749878Z"/>
<path id="font_2_22" d="M.1769867 .69433596 .032989503 .68333438V.6523285C.102996829 .6523285 .11099243 .6453247 .11099243 .5962982V.07601929C.11099243 .0309906 .099990848 .0309906 .032989503 .0309906V0C.06599426 .0009918213 .11898804 .0029907227 .14399719 .0029907227 .16899109 .0029907227 .21798706 .0009918213 .25498963 0V.0309906C.18798828 .0309906 .1769867 .0309906 .1769867 .07601929V.69433596Z"/>
<path id="font_2_5" d="M.37998963 .061264039V-.11816406C.37998963-.16334534 .36898805-.16334534 .3019867-.16334534V-.19433594C.33599855-.19334412 .3880005-.19134522 .4139862-.19134522 .44099427-.19134522 .49198915-.19334412 .5269928-.19433594V-.16334534C.45999146-.16334534 .44898988-.16334534 .44898988-.11816406V.4423828H.4269867L.3889923 .35134889C.37599183 .379364 .33499146 .4423828 .25498963 .4423828 .13899231 .4423828 .033996583 .34535218 .033996583 .21531677 .033996583 .090270999 .1309967-.0107421879 .24699402-.0107421879 .31698609-.0107421879 .35798646 .03225708 .37998963 .061264039M.3829956 .2773285V.1362915C.3829956 .104278568 .36499024 .07626343 .34298707 .052261354 .32998658 .038253786 .2979889 .011245728 .25099183 .011245728 .17799378 .011245728 .116989139 .10028076 .116989139 .21531677 .116989139 .3343506 .18699646 .41737367 .26098634 .41737367 .34098817 .41737367 .3829956 .33035279 .3829956 .2773285Z"/>
<path id="font_2_16" d="M.37998963 .055252077V-.0107421879L.5269928 .00024414063V.03125C.45700074 .03125 .44898988 .038253786 .44898988 .087265018V.69433596L.30499269 .68333438V.6523285C.375 .6523285 .3829956 .6453247 .3829956 .596344V.38035584C.35398866 .41636659 .31098939 .4423828 .25698854 .4423828 .13899231 .4423828 .033996583 .3443451 .033996583 .21531677 .033996583 .088272098 .13198853-.0107421879 .24598694-.0107421879 .30999757-.0107421879 .35499574 .023254395 .37998963 .055252077M.37998963 .323349V.118270877C.37998963 .1002655 .37998963 .0982666 .36898805 .08126831 .33898927 .0332489 .2939911 .011245728 .25099183 .011245728 .20599365 .011245728 .16999817 .037246705 .1459961 .07527161 .11999512 .11627197 .116989139 .17329407 .116989139 .21430969 .116989139 .25131227 .11898804 .31134034 .147995 .35635377 .16899109 .38735963 .20698548 .42037965 .26098634 .42037965 .29599 .42037965 .33799745 .405365 .36898805 .36035157 .37998963 .34335328 .37998963 .34135438 .37998963 .323349Z"/>
<path id="font_2_28" d="M.19198609 .052993776C.19198609 .08198547 .16799927 .10598755 .13899231 .10598755 .10998535 .10598755 .085998538 .08198547 .085998538 .052993776 .085998538 .023986817 .10998535 0 .13899231 0 .16799927 0 .19198609 .023986817 .19198609 .052993776Z"/>
<path id="font_2_14" d="M.58200076 .2578125H.5569916C.54599 .15588379 .5319977 .0309906 .35598756 .0309906H.27398683C.22698975 .0309906 .22499085 .037979127 .22499085 .07095337V.6036377C.22499085 .637619 .22499085 .6516113 .31999208 .6516113H.35299684V.6826172C.31698609 .6796112 .22599793 .6796112 .18499756 .6796112 .1459961 .6796112 .067993167 .6796112 .032989503 .6826172V.6516113H.056991579C.13398743 .6516113 .13598633 .64060977 .13598633 .6046295V.07795715C.13598633 .04197693 .13398743 .0309906 .056991579 .0309906H.032989503V0H.55400088L.58200076 .2578125Z"/>
<path id="font_2_3" d="M.055999757 .34179688C.055999757 .1346283 .21798706-.022460938 .4039917-.022460938 .5669861-.022460938 .6649933 .116622928 .6649933 .23271179 .6649933 .24272156 .6649933 .24972534 .6519928 .24972534 .6409912 .24972534 .6409912 .24372864 .6399994 .23371887 .6319885 .09059143 .5249939 .008529663 .41600038 .008529663 .35499574 .008529663 .15899658 .042556764 .15899658 .34080506 .15899658 .64004519 .35398866 .67407229 .4149933 .67407229 .5239868 .67407229 .61299136 .58299258 .6329956 .4368744 .6349945 .42286683 .6349945 .41986085 .6489868 .41986085 .6649933 .41986085 .6649933 .42286683 .6649933 .44387818V.68107607C.6649933 .69807437 .6649933 .7050781 .6539917 .7050781 .6499939 .7050781 .6459961 .7050781 .6380005 .69306948L.58799746 .61901858C.5509949 .6550598 .5 .7050781 .4039917 .7050781 .21699524 .7050781 .055999757 .5459595 .055999757 .34179688Z"/>
<path id="font_2_26" d="M.40899659 .23046875H.6879883C.70199587 .23046875 .72099307 .23046875 .72099307 .25045777 .72099307 .27046205 .70199587 .27046205 .6879883 .27046205H.40899659V.5500183C.40899659 .56399539 .40899659 .5830078 .3889923 .5830078 .36898805 .5830078 .36898805 .56399539 .36898805 .5500183V.27046205H.08898926C.07499695 .27046205 .055999757 .27046205 .055999757 .25045777 .055999757 .23046875 .07499695 .23046875 .08898926 .23046875H.36898805V-.05000305C.36898805-.06401062 .36898805-.08300781 .3889923-.08300781 .40899659-.08300781 .40899659-.06401062 .40899659-.05000305V.23046875Z"/>
<path id="font_2_8" d="M.59298709 .06288147C.60598757 .04093933 .6459961 .0009918213 .6569977 .0009918213 .66600039 .0009918213 .66600039 .008987427 .66600039 .023986817V.19755554C.66600039 .23646546 .66999819 .24145508 .7350006 .24145508V.27246095C.69799807 .27145387 .6429901 .26945497 .61299136 .26945497 .57299807 .26945497 .48799134 .26945497 .45199586 .27246095V.24145508H.48399354C.57398989 .24145508 .57699587 .23048401 .57699587 .193573V.12973023C.57699587 .017532349 .44999696 .008529663 .42199708 .008529663 .35699464 .008529663 .15899658 .043518068 .15899658 .34155274 .15899658 .6410217 .35598756 .67407229 .41600038 .67407229 .522995 .67407229 .6139984 .5839386 .6339874 .43670655 .6359863 .42268373 .6359863 .41967774 .6499939 .41967774 .66600039 .41967774 .66600039 .42268373 .66600039 .44371034V.68107607C.66600039 .69807437 .66600039 .7050781 .6549988 .7050781 .651001 .7050781 .6469879 .7050781 .6389923 .69306948L.58898928 .61898806C.5569916 .6510315 .5029907 .7050781 .4039917 .7050781 .21798706 .7050781 .055999757 .546875 .055999757 .34155274 .055999757 .13648987 .21598816-.022460938 .4059906-.022460938 .47898866-.022003174 .5589905 .0039978029 .59298709 .06288147Z"/>
<path id="font_2_11" d="M.41600038 .33276368C.4249878 .35572816 .44198609 .39866639 .5079956 .3996582V.43066407C.4850006 .4286499 .45599366 .42765809 .43299867 .42765809 .40899659 .42765809 .36299134 .42965699 .34599305 .43066407V.3996582C.3829956 .39866639 .3939972 .3757019 .3939972 .35671998 .3939972 .34773255 .3919983 .34375 .3880005 .33276368L.28599549 .07814026 .17399597 .35671998C.16799927 .3697052 .16799927 .3717041 .16799927 .373703 .16799927 .3996582 .20698548 .3996582 .22499085 .3996582V.43066407C.19499207 .42965699 .13899231 .42765809 .115997318 .42765809 .08898926 .42765809 .04899597 .4286499 .018997193 .43066407V.3996582C.08198547 .3996582 .085998538 .3936615 .09899902 .36271668L.24299622 .008255005C.24899292-.0057525637 .25099183-.0107421879 .2639923-.0107421879 .2769928-.0107421879 .2809906-.0017547608 .2849884 .008255005L.41600038 .33276368Z"/>
<path id="font_2_27" d="M.27598573 .18710327V.24511719H.010986328V.18710327H.27598573Z"/>
<path id="font_2_21" d="M.34899903 .38783265 .22099304 .41886903C.15899658 .4338684 .11999512 .48791505 .11999512 .5459595 .11999512 .61602786 .17399597 .677063 .2519989 .677063 .4189911 .677063 .44099427 .51293948 .44699098 .4678955 .44799806 .4618988 .44799806 .45588685 .45899964 .45588685 .47200013 .45588685 .47200013 .46089173 .47200013 .47990418V.68107607C.47200013 .69807437 .47200013 .7050781 .46099855 .7050781 .45399476 .7050781 .45298768 .70407107 .44599916 .69207766L.41099549 .6350403C.3809967 .6640625 .33999635 .7050781 .25099183 .7050781 .13999939 .7050781 .055999757 .61701968 .055999757 .51094058 .055999757 .4278717 .10899353 .35481263 .18699646 .3277893 .19799805 .3237915 .24899292 .31178285 .31900025 .2947693 .34599305 .28775025 .37599183 .28074647 .4039917 .24372864 .4249878 .21769715 .43499757 .18467713 .43499757 .15164185 .43499757 .080596927 .3849945 .008529663 .30099488 .008529663 .27198792 .008529663 .19599915 .013534546 .14299011 .062576297 .084991458 .116622928 .08198547 .18066406 .08099365 .21670532 .07998657 .22669983 .07199097 .22669983 .068984989 .22669983 .055999757 .22669983 .055999757 .21969605 .055999757 .20169068V.0015258789C.055999757-.015472412 .055999757-.022460938 .066986087-.022460938 .07398987-.022460938 .07499695-.020462037 .08198547-.009475708 .08198547-.008468628 .084991458-.0054626467 .117996219 .047561647 .14898682 .013534546 .21299744-.022460938 .3019867-.022460938 .4189911-.022460938 .49899293 .07559204 .49899293 .18566895 .49899293 .28575135 .43299867 .36782838 .34899903 .38783265Z"/>
<path id="font_2_19" d="M.10998535 .076034549C.10998535 .0309906 .09899902 .0309906 .03199768 .0309906V0C.066986087 .0009918213 .117996219 .0029907227 .14498902 .0029907227 .17098999 .0029907227 .22299195 .0009918213 .25698854 0V.0309906C.18998719 .0309906 .1789856 .0309906 .1789856 .076034549V.2602234C.1789856 .36431886 .25 .42037965 .31399537 .42037965 .3769989 .42037965 .3880005 .36631776 .3880005 .30926515V.076034549C.3880005 .0309906 .3769989 .0309906 .30999757 .0309906V0C.34498597 .0009918213 .3959961 .0029907227 .4229889 .0029907227 .44898988 .0029907227 .5009918 .0009918213 .5349884 0V.0309906C.48298646 .0309906 .45799256 .0309906 .45700074 .061019899V.25221253C.45700074 .3383026 .45700074 .36932374 .42599488 .405365 .4119873 .42237855 .3789978 .4423828 .32099916 .4423828 .23699951 .4423828 .19299317 .38233949 .17599488 .34429933V.69433596L.03199768 .68333438V.6523285C.101989749 .6523285 .10998535 .6453247 .10998535 .596344V.076034549Z"/>
</defs>
<g clip-path="url(#clip_1)">
<use data-text="1" xlink:href="#font_2_30" transform="matrix(9.96264,0,0,-9.96264,34.952085,145.98993)" fill="#231f20"/>
<use data-text="1" xlink:href="#font_2_30" transform="matrix(9.96264,0,0,-9.96264,29.911854,114.670047)" fill="#231f20"/>
<use data-text="0" xlink:href="#font_2_29" transform="matrix(9.96264,0,0,-9.96264,34.951864,114.670047)" fill="#231f20"/>
<use data-text="1" xlink:href="#font_2_30" transform="matrix(9.96264,0,0,-9.96264,25.472016,83.47003)" fill="#231f20"/>
<use data-text="0" xlink:href="#font_2_29" transform="matrix(9.96264,0,0,-9.96264,30.51202,83.47003)" fill="#231f20"/>
<use data-text="2" xlink:href="#font_3_1" transform="matrix(6.97385,0,0,-6.97385,35.552114,79.870059)" fill="#231f20"/>
<use data-text="1" xlink:href="#font_2_30" transform="matrix(9.96264,0,0,-9.96264,25.472012,52.27002)" fill="#231f20"/>
<use data-text="0" xlink:href="#font_2_29" transform="matrix(9.96264,0,0,-9.96264,30.512017,52.27002)" fill="#231f20"/>
<use data-text="3" xlink:href="#font_3_2" transform="matrix(6.97385,0,0,-6.97385,35.552114,48.670045)" fill="#231f20"/>
<use data-text="1" xlink:href="#font_2_30" transform="matrix(9.96264,0,0,-9.96264,25.472012,21.070069)" fill="#231f20"/>
<use data-text="0" xlink:href="#font_2_29" transform="matrix(9.96264,0,0,-9.96264,30.512017,21.070069)" fill="#231f20"/>
<use data-text="4" xlink:href="#font_3_3" transform="matrix(6.97385,0,0,-6.97385,35.552114,17.350098)" fill="#231f20"/>
<use data-text="1" xlink:href="#font_2_30" transform="matrix(9.96264,0,0,-9.96264,67.711917,156.9101)" fill="#231f20"/>
<use data-text="0" xlink:href="#font_2_29" transform="matrix(9.96264,0,0,-9.96264,72.75192,156.9101)" fill="#231f20"/>
<use data-text="2" xlink:href="#font_3_1" transform="matrix(6.97385,0,0,-6.97385,77.79202,153.31012)" fill="#231f20"/>
<use data-text="1" xlink:href="#font_2_30" transform="matrix(9.96264,0,0,-9.96264,124.59201,156.9101)" fill="#231f20"/>
<use data-text="0" xlink:href="#font_2_29" transform="matrix(9.96264,0,0,-9.96264,129.63202,156.9101)" fill="#231f20"/>
<use data-text="3" xlink:href="#font_3_2" transform="matrix(6.97385,0,0,-6.97385,134.6721,153.31012)" fill="#231f20"/>
<use data-text="1" xlink:href="#font_2_30" transform="matrix(9.96264,0,0,-9.96264,181.3522,156.9101)" fill="#231f20"/>
<use data-text="0" xlink:href="#font_2_29" transform="matrix(9.96264,0,0,-9.96264,186.3922,156.9101)" fill="#231f20"/>
<use data-text="4" xlink:href="#font_3_3" transform="matrix(6.97385,0,0,-6.97385,191.4323,153.31012)" fill="#231f20"/>
<path transform="matrix(.1,0,0,-.1,-29.128018,1095.33)" stroke-width="2.5" stroke-linecap="butt" stroke-miterlimit="3.8" stroke-linejoin="miter" fill="none" stroke="#000000" d="M756.199 9517.8H787.699M2460.7 9517.8H2429.2"/>
<path transform="matrix(.1,0,0,-.1,-29.128018,1095.33)" stroke-width="2.5" stroke-linecap="butt" stroke-miterlimit="3.8" stroke-linejoin="miter" fill="none" stroke="#000000" d="M756.199 9830.3H787.699M2460.7 9830.3H2429.2"/>
<path transform="matrix(.1,0,0,-.1,-29.128018,1095.33)" stroke-width="2.5" stroke-linecap="butt" stroke-miterlimit="3.8" stroke-linejoin="miter" fill="none" stroke="#000000" d="M756.199 10142.3H787.699M2460.7 10142.3H2429.2"/>
<path transform="matrix(.1,0,0,-.1,-29.128018,1095.33)" stroke-width="2.5" stroke-linecap="butt" stroke-miterlimit="3.8" stroke-linejoin="miter" fill="none" stroke="#000000" d="M756.199 10454.8H787.699M2460.7 10454.8H2429.2"/>
<path transform="matrix(.1,0,0,-.1,-29.128018,1095.33)" stroke-width="2.5" stroke-linecap="butt" stroke-miterlimit="3.8" stroke-linejoin="miter" fill="none" stroke="#000000" d="M756.199 10767.3H787.699M2460.7 10767.3H2429.2"/>
<path transform="matrix(.1,0,0,-.1,-29.128018,1095.33)" stroke-width="2.5" stroke-linecap="butt" stroke-miterlimit="3.8" stroke-linejoin="miter" fill="none" stroke="#000000" d="M1040.2 9517.8V9549.3M1040.2 10923.3V10891.8"/>
<path transform="matrix(.1,0,0,-.1,-29.128018,1095.33)" stroke-width="2.5" stroke-linecap="butt" stroke-miterlimit="3.8" stroke-linejoin="miter" fill="none" stroke="#000000" d="M1608.7 9517.8V9549.3M1608.7 10923.3V10891.8"/>
<path transform="matrix(.1,0,0,-.1,-29.128018,1095.33)" stroke-width="2.5" stroke-linecap="butt" stroke-miterlimit="3.8" stroke-linejoin="miter" fill="none" stroke="#000000" d="M2176.7 9517.8V9549.3M2176.7 10923.3V10891.8"/>
<path transform="matrix(.1,0,0,-.1,-29.128018,1095.33)" stroke-width="2.5" stroke-linecap="butt" stroke-miterlimit="3.8" stroke-linejoin="miter" fill="none" stroke="#000000" d="M756.199 10923.3V9517.8H2460.7V10923.3H756.199Z"/>
<path transform="matrix(.1,0,0,-.1,-29.128018,1095.33)" stroke-width="2.5" stroke-linecap="butt" stroke-miterlimit="3.8" stroke-linejoin="miter" fill="none" stroke="#000000" d="M2120.7 10836.8H2416.2M1145.2 9634.8 1313.7 9824.8 1483.7 10011.8 1654.2 10201.3 1824.7 10392.3 1995.7 10595.8"/>
<path transform="matrix(.1,0,0,-.1,-29.128018,1095.33)" stroke-width="2.5" stroke-linecap="butt" stroke-miterlimit="3.8" stroke-linejoin="miter" fill="none" stroke="#000000" d="M1145.2 9619.05V9650.55"/>
<path transform="matrix(.1,0,0,-.1,-29.128018,1095.33)" stroke-width="2.5" stroke-linecap="butt" stroke-miterlimit="3.8" stroke-linejoin="miter" fill="none" stroke="#000000" d="M1129.45 9634.8H1160.95"/>
<path transform="matrix(.1,0,0,-.1,-29.128018,1095.33)" stroke-width="2.5" stroke-linecap="butt" stroke-miterlimit="3.8" stroke-linejoin="miter" fill="none" stroke="#000000" d="M1313.7 9809.05V9840.55"/>
<path transform="matrix(.1,0,0,-.1,-29.128018,1095.33)" stroke-width="2.5" stroke-linecap="butt" stroke-miterlimit="3.8" stroke-linejoin="miter" fill="none" stroke="#000000" d="M1297.95 9824.8H1329.45"/>
<path transform="matrix(.1,0,0,-.1,-29.128018,1095.33)" stroke-width="2.5" stroke-linecap="butt" stroke-miterlimit="3.8" stroke-linejoin="miter" fill="none" stroke="#000000" d="M1483.7 9996.05V10027.6"/>
<path transform="matrix(.1,0,0,-.1,-29.128018,1095.33)" stroke-width="2.5" stroke-linecap="butt" stroke-miterlimit="3.8" stroke-linejoin="miter" fill="none" stroke="#000000" d="M1467.95 10011.8H1499.45"/>
<path transform="matrix(.1,0,0,-.1,-29.128018,1095.33)" stroke-width="2.5" stroke-linecap="butt" stroke-miterlimit="3.8" stroke-linejoin="miter" fill="none" stroke="#000000" d="M1654.2 10185.6V10217.1"/>
<path transform="matrix(.1,0,0,-.1,-29.128018,1095.33)" stroke-width="2.5" stroke-linecap="butt" stroke-miterlimit="3.8" stroke-linejoin="miter" fill="none" stroke="#000000" d="M1638.45 10201.3H1669.95"/>
<path transform="matrix(.1,0,0,-.1,-29.128018,1095.33)" stroke-width="2.5" stroke-linecap="butt" stroke-miterlimit="3.8" stroke-linejoin="miter" fill="none" stroke="#000000" d="M1824.7 10376.6V10408.1"/>
<path transform="matrix(.1,0,0,-.1,-29.128018,1095.33)" stroke-width="2.5" stroke-linecap="butt" stroke-miterlimit="3.8" stroke-linejoin="miter" fill="none" stroke="#000000" d="M1808.95 10392.3H1840.45"/>
<path transform="matrix(.1,0,0,-.1,-29.128018,1095.33)" stroke-width="2.5" stroke-linecap="butt" stroke-miterlimit="3.8" stroke-linejoin="miter" fill="none" stroke="#000000" d="M1995.7 10580.1V10611.6"/>
<path transform="matrix(.1,0,0,-.1,-29.128018,1095.33)" stroke-width="2.5" stroke-linecap="butt" stroke-miterlimit="3.8" stroke-linejoin="miter" fill="none" stroke="#000000" d="M1979.95 10595.8H2011.45"/>
<path transform="matrix(.1,0,0,-.1,-29.128018,1095.33)" stroke-width="2.5" stroke-linecap="butt" stroke-miterlimit="3.8" stroke-linejoin="miter" fill="none" stroke="#000000" d="M2268.2 10821.1V10852.6"/>
<path transform="matrix(.1,0,0,-.1,-29.128018,1095.33)" stroke-width="2.5" stroke-linecap="butt" stroke-miterlimit="3.8" stroke-linejoin="miter" fill="none" stroke="#000000" d="M2252.45 10836.8H2283.95"/>
<path transform="matrix(.1,0,0,-.1,-29.128018,1095.33)" stroke-width="2.5" stroke-linecap="butt" stroke-dasharray="10,15" stroke-miterlimit="3.8" stroke-linejoin="miter" fill="none" stroke="#000000" d="M2120.7 10726.8H2416.2M1145.2 9585.8 1313.7 9675.8 1483.7 9768.3 1654.2 9861.3 1824.7 9953.8 1995.7 10049.3"/>
<path transform="matrix(.1,0,0,-.1,-29.128018,1095.33)" stroke-width="2.5" stroke-linecap="butt" stroke-miterlimit="3.8" stroke-linejoin="miter" fill="none" stroke="#000000" d="M1145.2 9570.05V9601.55"/>
<path transform="matrix(.1,0,0,-.1,-29.128018,1095.33)" stroke-width="2.5" stroke-linecap="butt" stroke-miterlimit="3.8" stroke-linejoin="miter" fill="none" stroke="#000000" d="M1129.45 9585.8H1160.95"/>
<path transform="matrix(.1,0,0,-.1,-29.128018,1095.33)" stroke-width="2.5" stroke-linecap="butt" stroke-miterlimit="3.8" stroke-linejoin="miter" fill="none" stroke="#000000" d="M1313.7 9660.05V9691.55"/>
<path transform="matrix(.1,0,0,-.1,-29.128018,1095.33)" stroke-width="2.5" stroke-linecap="butt" stroke-miterlimit="3.8" stroke-linejoin="miter" fill="none" stroke="#000000" d="M1297.95 9675.8H1329.45"/>
<path transform="matrix(.1,0,0,-.1,-29.128018,1095.33)" stroke-width="2.5" stroke-linecap="butt" stroke-miterlimit="3.8" stroke-linejoin="miter" fill="none" stroke="#000000" d="M1483.7 9752.55V9784.05"/>
<path transform="matrix(.1,0,0,-.1,-29.128018,1095.33)" stroke-width="2.5" stroke-linecap="butt" stroke-miterlimit="3.8" stroke-linejoin="miter" fill="none" stroke="#000000" d="M1467.95 9768.3H1499.45"/>
<path transform="matrix(.1,0,0,-.1,-29.128018,1095.33)" stroke-width="2.5" stroke-linecap="butt" stroke-miterlimit="3.8" stroke-linejoin="miter" fill="none" stroke="#000000" d="M1654.2 9845.55V9877.05"/>
<path transform="matrix(.1,0,0,-.1,-29.128018,1095.33)" stroke-width="2.5" stroke-linecap="butt" stroke-miterlimit="3.8" stroke-linejoin="miter" fill="none" stroke="#000000" d="M1638.45 9861.3H1669.95"/>
<path transform="matrix(.1,0,0,-.1,-29.128018,1095.33)" stroke-width="2.5" stroke-linecap="butt" stroke-miterlimit="3.8" stroke-linejoin="miter" fill="none" stroke="#000000" d="M1824.7 9938.05V9969.55"/>
<path transform="matrix(.1,0,0,-.1,-29.128018,1095.33)" stroke-width="2.5" stroke-linecap="butt" stroke-miterlimit="3.8" stroke-linejoin="miter" fill="none" stroke="#000000" d="M1808.95 9953.8H1840.45"/>
<path transform="matrix(.1,0,0,-.1,-29.128018,1095.33)" stroke-width="2.5" stroke-linecap="butt" stroke-miterlimit="3.8" stroke-linejoin="miter" fill="none" stroke="#000000" d="M1995.7 10033.6V10065.1"/>
<path transform="matrix(.1,0,0,-.1,-29.128018,1095.33)" stroke-width="2.5" stroke-linecap="butt" stroke-miterlimit="3.8" stroke-linejoin="miter" fill="none" stroke="#000000" d="M1979.95 10049.3H2011.45"/>
<path transform="matrix(.1,0,0,-.1,-29.128018,1095.33)" stroke-width="2.5" stroke-linecap="butt" stroke-miterlimit="3.8" stroke-linejoin="miter" fill="none" stroke="#000000" d="M2268.2 10711.1V10742.6"/>
<path transform="matrix(.1,0,0,-.1,-29.128018,1095.33)" stroke-width="2.5" stroke-linecap="butt" stroke-miterlimit="3.8" stroke-linejoin="miter" fill="none" stroke="#000000" d="M2252.45 10726.8H2283.95"/>
<path transform="matrix(.1,0,0,-.1,-29.128018,1095.33)" stroke-width="2.5" stroke-linecap="butt" stroke-miterlimit="3.8" stroke-linejoin="miter" fill="none" stroke="#000000" d="M756.199 10923.3V9517.8H2460.7V10923.3H756.199Z"/>
<use data-text="c" xlink:href="#font_2_15" transform="matrix(0,-9.96264,-9.96264,-0,10.471981,119.589969)" fill="#231f20"/>
<use data-text="o" xlink:href="#font_2_2" transform="matrix(0,-9.96264,-9.96264,-0,10.471981,115.14996)" fill="#231f20"/>
<use data-text="m" xlink:href="#font_2_23" transform="matrix(0,-9.96264,-9.96264,-0,10.471981,110.11005)" fill="#231f20"/>
<use data-text="p" xlink:href="#font_2_4" transform="matrix(0,-9.96264,-9.96264,-0,10.471981,101.83008)" fill="#231f20"/>
<use data-text="u" xlink:href="#font_2_10" transform="matrix(0,-9.96264,-9.96264,-0,10.471981,96.31012)" fill="#231f20"/>
<use data-text="t" xlink:href="#font_2_9" transform="matrix(0,-9.96264,-9.96264,-0,10.471981,90.79016)" fill="#231f20"/>
<use data-text="a" xlink:href="#font_2_12" transform="matrix(0,-9.96264,-9.96264,-0,10.471981,86.950199)" fill="#231f20"/>
<use data-text="t" xlink:href="#font_2_9" transform="matrix(0,-9.96264,-9.96264,-0,10.471981,81.91028)" fill="#231f20"/>
<use data-text="i" xlink:href="#font_2_20" transform="matrix(0,-9.96264,-9.96264,-0,10.471981,78.07031)" fill="#231f20"/>
<use data-text="o" xlink:href="#font_2_2" transform="matrix(0,-9.96264,-9.96264,-0,10.471981,75.31067)" fill="#231f20"/>
<use data-text="n" xlink:href="#font_2_1" transform="matrix(0,-9.96264,-9.96264,-0,10.471981,70.27063)" fill="#231f20"/>
<use data-text="t" xlink:href="#font_2_9" transform="matrix(0,-9.96264,-9.96264,-0,10.471981,61.51062)" fill="#231f20"/>
<use data-text="i" xlink:href="#font_2_20" transform="matrix(0,-9.96264,-9.96264,-0,10.471981,57.670656)" fill="#231f20"/>
<use data-text="m" xlink:href="#font_2_23" transform="matrix(0,-9.96264,-9.96264,-0,10.471981,54.91101)" fill="#231f20"/>
<use data-text="e" xlink:href="#font_2_17" transform="matrix(0,-9.96264,-9.96264,-0,10.471981,46.631105)" fill="#231f20"/>
<use data-text="(" xlink:href="#font_2_24" transform="matrix(0,-9.96264,-9.96264,-0,10.471981,38.71106)" fill="#231f20"/>
<use data-text="s" xlink:href="#font_2_7" transform="matrix(0,-9.96264,-9.96264,-0,10.471981,34.871095)" fill="#231f20"/>
<use data-text=")" xlink:href="#font_2_25" transform="matrix(0,-9.96264,-9.96264,-0,10.471981,30.911133)" fill="#231f20"/>
<use data-text="n" xlink:href="#font_2_1" transform="matrix(9.96264,0,0,-9.96264,79.59198,173.46997)" fill="#231f20"/>
<use data-text="u" xlink:href="#font_2_10" transform="matrix(9.96264,0,0,-9.96264,84.87207,173.46997)" fill="#231f20"/>
<use data-text="m" xlink:href="#font_2_23" transform="matrix(9.96264,0,0,-9.96264,90.392078,173.46997)" fill="#231f20"/>
<use data-text="b" xlink:href="#font_2_13" transform="matrix(9.96264,0,0,-9.96264,98.432239,173.46997)" fill="#231f20"/>
<use data-text="e" xlink:href="#font_2_17" transform="matrix(9.96264,0,0,-9.96264,104.1924,173.46997)" fill="#231f20"/>
<use data-text="r" xlink:href="#font_2_6" transform="matrix(9.96264,0,0,-9.96264,108.6324,173.46997)" fill="#231f20"/>
<use data-text="o" xlink:href="#font_2_2" transform="matrix(9.96264,0,0,-9.96264,115.952548,173.46997)" fill="#231f20"/>
<use data-text="f" xlink:href="#font_2_18" transform="matrix(9.96264,0,0,-9.96264,120.99255,173.46997)" fill="#231f20"/>
<use data-text="t" xlink:href="#font_2_9" transform="matrix(9.96264,0,0,-9.96264,127.23262,173.46997)" fill="#231f20"/>
<use data-text="i" xlink:href="#font_2_20" transform="matrix(9.96264,0,0,-9.96264,131.07263,173.46997)" fill="#231f20"/>
<use data-text="m" xlink:href="#font_2_23" transform="matrix(9.96264,0,0,-9.96264,133.83229,173.46997)" fill="#231f20"/>
<use data-text="e" xlink:href="#font_2_17" transform="matrix(9.96264,0,0,-9.96264,142.11229,173.46997)" fill="#231f20"/>
<use data-text="s" xlink:href="#font_2_7" transform="matrix(9.96264,0,0,-9.96264,149.91237,173.46997)" fill="#231f20"/>
<use data-text="a" xlink:href="#font_2_12" transform="matrix(9.96264,0,0,-9.96264,153.87236,173.46997)" fill="#231f20"/>
<use data-text="m" xlink:href="#font_2_23" transform="matrix(9.96264,0,0,-9.96264,158.91237,173.46997)" fill="#231f20"/>
<use data-text="p" xlink:href="#font_2_4" transform="matrix(9.96264,0,0,-9.96264,167.19235,173.46997)" fill="#231f20"/>
<use data-text="l" xlink:href="#font_2_22" transform="matrix(9.96264,0,0,-9.96264,172.71237,173.46997)" fill="#231f20"/>
<use data-text="e" xlink:href="#font_2_17" transform="matrix(9.96264,0,0,-9.96264,175.47203,173.46997)" fill="#231f20"/>
<use data-text="s" xlink:href="#font_2_7" transform="matrix(9.96264,0,0,-9.96264,179.91205,173.46997)" fill="#231f20"/>
<use data-text="q" xlink:href="#font_2_5" transform="matrix(9.96264,0,0,-9.96264,81.39198,14.109985)" fill="#231f20"/>
<use data-text="u" xlink:href="#font_2_10" transform="matrix(9.96264,0,0,-9.96264,86.672,14.109985)" fill="#231f20"/>
<use data-text="a" xlink:href="#font_2_12" transform="matrix(9.96264,0,0,-9.96264,92.192,14.109985)" fill="#231f20"/>
<use data-text="d" xlink:href="#font_2_16" transform="matrix(9.96264,0,0,-9.96264,97.23201,14.109985)" fill="#231f20"/>
<use data-text="." xlink:href="#font_2_28" transform="matrix(9.96264,0,0,-9.96264,102.752,14.109985)" fill="#231f20"/>
<use data-text="i" xlink:href="#font_2_20" transform="matrix(9.96264,0,0,-9.96264,109.95181,14.109985)" fill="#231f20"/>
<use data-text="n" xlink:href="#font_2_1" transform="matrix(9.96264,0,0,-9.96264,112.71147,14.109985)" fill="#231f20"/>
<use data-text="t" xlink:href="#font_2_9" transform="matrix(9.96264,0,0,-9.96264,121.591327,14.109985)" fill="#231f20"/>
<use data-text="i" xlink:href="#font_2_20" transform="matrix(9.96264,0,0,-9.96264,125.431339,14.109985)" fill="#231f20"/>
<use data-text="m" xlink:href="#font_2_23" transform="matrix(9.96264,0,0,-9.96264,128.191,14.109985)" fill="#231f20"/>
<use data-text="e" xlink:href="#font_2_17" transform="matrix(9.96264,0,0,-9.96264,136.471,14.109985)" fill="#231f20"/>
<use data-text="d" xlink:href="#font_2_16" transform="matrix(9.96264,0,0,-9.96264,144.27108,14.109985)" fill="#231f20"/>
<use data-text="o" xlink:href="#font_2_2" transform="matrix(9.96264,0,0,-9.96264,149.79108,14.109985)" fill="#231f20"/>
<use data-text="m" xlink:href="#font_2_23" transform="matrix(9.96264,0,0,-9.96264,154.83109,14.109985)" fill="#231f20"/>
<use data-text="a" xlink:href="#font_2_12" transform="matrix(9.96264,0,0,-9.96264,163.11109,14.109985)" fill="#231f20"/>
<use data-text="i" xlink:href="#font_2_20" transform="matrix(9.96264,0,0,-9.96264,168.15108,14.109985)" fill="#231f20"/>
<use data-text="n" xlink:href="#font_2_1" transform="matrix(9.96264,0,0,-9.96264,170.91074,14.109985)" fill="#231f20"/>
<use data-text="L" xlink:href="#font_2_14" transform="matrix(9.96264,0,0,-9.96264,91.35214,25.029908)" fill="#231f20"/>
<use data-text="C" xlink:href="#font_2_3" transform="matrix(9.96264,0,0,-9.96264,97.59215,25.029908)" fill="#231f20"/>
<use data-text="+" xlink:href="#font_2_26" transform="matrix(9.96264,0,0,-9.96264,104.792148,25.029908)" fill="#231f20"/>
<use data-text="G" xlink:href="#font_2_8" transform="matrix(9.96264,0,0,-9.96264,112.59215,25.029908)" fill="#231f20"/>
<use data-text="a" xlink:href="#font_2_12" transform="matrix(9.96264,0,0,-9.96264,120.39215,25.029908)" fill="#231f20"/>
<use data-text="v" xlink:href="#font_2_11" transform="matrix(9.96264,0,0,-9.96264,125.192,25.029908)" fill="#231f20"/>
<use data-text="e" xlink:href="#font_2_17" transform="matrix(9.96264,0,0,-9.96264,130.23184,25.029908)" fill="#231f20"/>
<use data-text="r" xlink:href="#font_2_6" transform="matrix(9.96264,0,0,-9.96264,134.67185,25.029908)" fill="#231f20"/>
<use data-text="-" xlink:href="#font_2_27" transform="matrix(9.96264,0,0,-9.96264,138.63184,25.029908)" fill="#231f20"/>
<use data-text="S" xlink:href="#font_2_21" transform="matrix(9.96264,0,0,-9.96264,141.99185,25.029908)" fill="#231f20"/>
<use data-text="t" xlink:href="#font_2_9" transform="matrix(9.96264,0,0,-9.96264,147.51186,25.029908)" fill="#231f20"/>
<use data-text="e" xlink:href="#font_2_17" transform="matrix(9.96264,0,0,-9.96264,151.35187,25.029908)" fill="#231f20"/>
<use data-text="h" xlink:href="#font_2_19" transform="matrix(9.96264,0,0,-9.96264,155.79187,25.029908)" fill="#231f20"/>
<use data-text="f" xlink:href="#font_2_18" transform="matrix(9.96264,0,0,-9.96264,161.31188,25.029908)" fill="#231f20"/>
<use data-text="e" xlink:href="#font_2_17" transform="matrix(9.96264,0,0,-9.96264,164.31188,25.029908)" fill="#231f20"/>
<use data-text="s" xlink:href="#font_2_7" transform="matrix(9.96264,0,0,-9.96264,168.75188,25.029908)" fill="#231f20"/>
<use data-text="t" xlink:href="#font_2_9" transform="matrix(9.96264,0,0,-9.96264,172.71187,25.029908)" fill="#231f20"/>
</g>
</svg>
