<svg xmlns="http://www.w3.org/2000/svg" xmlns:xlink="http://www.w3.org/1999/xlink" xmlns:inkscape="http://www.inkscape.org/namespaces/inkscape" version="1.1" width="241.02" height="208.773" viewBox="0 0 241.02 208.773">
<defs>
<path id="font_1_49" d="M.37998963 .32505799C.37998963 .12722779 .33499146 .012313843 .25 .012313843 .1639862 .012313843 .11999512 .1262207 .11999512 .32904054 .11999512 .5318756 .16499329 .6497803 .24798584 .6497803 .33599855 .6497803 .37998963 .53286746 .37998963 .32505799M.47599793 .3300476C.47599793 .53486636 .3849945 .67578127 .2539978 .67578127 .09298706 .67578127 .023986817 .5128937 .023986817 .3360443 .023986817 .17218018 .07899475-.013671875 .25-.013671875 .41299439-.013671875 .47599793 .15818787 .47599793 .3300476Z"/>
<path id="font_1_3177" d="M.56799319 .4284668H.28599549C.18199158 .4284668 .117996219 .38246156 .07398987 .3024292H.08999634C.13398743 .35546876 .17098999 .35546876 .22898865 .35546876L.13999939 .14936829C.1269989 .12034607 .10899353 .09133911 .06599426 .079330448 .039993287 .07232666 .034988405 .046310426 .034988405 .031311037 .034988405 .007293701 .05999756-.0126953129 .085998538-.0126953129 .09799194-.0126953129 .11299133-.010696411 .12399292-.0017089844 .20799256 .061325075 .23899842 .23339844 .2849884 .35546876H.3789978C.35398866 .27142335 .32398988 .2013855 .30099488 .13035584 .29499818 .111343387 .2919922 .09133911 .2919922 .06832886 .2919922 .029159546 .30899049-.0068359377 .34899903-.0068359377 .4189911-.0068359377 .47200013 .06315613 .49299623 .13522339H.47698976C.45298768 .08117676 .4249878 .06915283 .4039917 .06915283 .38198854 .06915283 .3659973 .094177249 .3659973 .11720276 .3659973 .1842804 .4189911 .31240846 .43299867 .35546876H.54499819L.56799319 .4284668Z"/>
<path id="font_1_48" d="M.2869873 .67578127H.21998596L-.009002686-.013671875H.05899048L.2869873 .67578127Z"/>
<path id="font_1_57" d="M.2709961 .27209474C.33898927 .22613526 .36898805 .18617249 .36898805 .1242218 .36898805 .059280397 .32398988 .014328003 .25898744 .014328003 .18299866 .014328003 .13198853 .06626892 .13198853 .15820313 .13198853 .22314453 .15299988 .26409913 .21199036 .3120575L.2709961 .27209474M.35499574 .53286746C.35499574 .470932 .32899476 .42897035 .26098634 .3889923 .17298889 .4409485 .13598633 .48690797 .13598633 .54885867 .13598633 .6108093 .1789856 .6477661 .24598694 .6477661 .31399537 .6477661 .35499574 .60180667 .35499574 .53286746M.44499208 .15519715C.44499208 .23512268 .41299439 .28907777 .2899933 .37101747 .3889923 .42396546 .42399598 .45793153 .42399598 .53286746 .42399598 .6108093 .35499574 .67578127 .2559967 .67578127 .14498902 .67578127 .06199646 .61579897 .06199646 .5198822 .06199646 .4549408 .08299255 .41697694 .18598938 .3320465 .07899475 .2571106 .055999757 .21813965 .055999757 .14920044 .055999757 .055282594 .1349945-.013671875 .24798584-.013671875 .36799623-.013671875 .44499208 .05229187 .44499208 .15519715Z"/>
<path id="font_1_53" d="M.2919922 .23098755H.051986696L.2919922 .573822V.23098755M.47299195 .16699219V.23098755H.36999513V.67578127H.32598878L.011993408 .23098755V.16699219H.2919922V0H.36999513V.16699219H.47299195Z"/>
<path id="font_1_52" d="M.06098938 .50987246C.101989749 .58380129 .147995 .61576846 .20999146 .61576846 .27598573 .61576846 .31799317 .58180239 .31799317 .51387026 .31799317 .45292665 .28599549 .40795899 .23699951 .37998963 .21699524 .36799623 .19099427 .3570099 .15299988 .34402467V.33003236C.20999146 .33003236 .23298645 .32704164 .25498963 .3200531 .32398988 .3000641 .35899354 .2511139 .35899354 .17518616 .35899354 .09025574 .30299378 .022323609 .22898865 .022323609 .20098877 .022323609 .17999268 .027313233 .14299011 .05329895 .114990238 .073272708 .09899902 .07926941 .08198547 .07926941 .05899048 .07926941 .040985109 .06428528 .040985109 .043304445 .040985109 .0073242189 .07998657-.013671875 .15299988-.013671875 .24198914-.013671875 .33699037 .015319824 .3849945 .07926941 .4139862 .11723328 .43099977 .16618347 .43099977 .21913147 .43099977 .27108766 .4149933 .31704713 .3869934 .34802247 .3659973 .36999513 .34799195 .38198854 .3039856 .40097047 .37098695 .44093324 .39698792 .4908905 .39698792 .5388489 .39698792 .6207733 .33399964 .67578127 .24099732 .67578127 .13699341 .67578127 .07398987 .6087799 .04499817 .51387026L.06098938 .50987246Z"/>
<path id="font_1_51" d="M.47399903 .13696289 .45999146 .1429596C.4269867 .08699036 .4059906 .07598877 .3639984 .07598877H.12998963L.29499818 .2519226C.38398744 .34588624 .4229889 .42085267 .4229889 .4998169 .4229889 .59877017 .35099793 .67578127 .23799134 .67578127 .114990238 .67578127 .050994874 .5937805 .02999878 .4768219L.050994874 .47183229C.09098816 .5697937 .12599182 .6017761 .19799805 .6017761 .2829895 .6017761 .33699037 .55178835 .33699037 .4608307 .33699037 .37586976 .30099488 .29989625 .20698548 .200943L.0289917 .011993408V0H.41999818L.47399903 .13696289Z"/>
<path id="font_1_1155" d="M.62098696 .22012329V.2861328H.06399536V.22012329H.62098696Z"/>
<path id="font_1_50" d="M.3939972 0V.01499939C.31900025 .01499939 .29899598 .032989503 .29899598 .07597351V.67277529L.2899933 .67578127 .11099243 .5847931V.5708008L.13798523 .5807953C.1559906 .5877991 .17298889 .59280398 .18299866 .59280398 .20399475 .59280398 .21299744 .57780459 .21299744 .543808V.0949707C.21299744 .039978029 .19198609 .018997193 .117996219 .01499939V0H.3939972Z"/>
<path id="font_1_1334" d="M.20298767 .25335694C.20298767 .2853546 .17599488 .3133545 .14399719 .3133545 .11099243 .3133545 .08299255 .2833557 .08299255 .25335694 .08299255 .22335816 .11099243 .19335938 .14399719 .19335938 .17599488 .19335938 .20298767 .22135926 .20298767 .25335694Z"/>
<path id="font_2_1155" d="M.62098696 .22012329V.2861328H.06399536V.22012329H.62098696Z"/>
<path id="font_2_51" d="M.47399903 .13696289 .45999146 .1429596C.4269867 .08699036 .4059906 .07598877 .3639984 .07598877H.12998963L.29499818 .2519226C.38398744 .34588624 .4229889 .42085267 .4229889 .4998169 .4229889 .59877017 .35099793 .67578127 .23799134 .67578127 .114990238 .67578127 .050994874 .5937805 .02999878 .4768219L.050994874 .47183229C.09098816 .5697937 .12599182 .6017761 .19799805 .6017761 .2829895 .6017761 .33699037 .55178835 .33699037 .4608307 .33699037 .37586976 .30099488 .29989625 .20698548 .200943L.0289917 .011993408V0H.41999818L.47399903 .13696289Z"/>
<clipPath id="clip_3">
<path transform="matrix(1,0,0,-1,43.362,177.6)" d="M0 0H194.27433V161.39392H0Z"/>
</clipPath>
<path id="font_1_3193" d="M.6899872 .35546876C.69799807 .3364563 .70199587 .31443788 .70199587 .28442384 .70199587 .19836426 .625 .019256592 .5369873 .019256592 .48399354 .019256592 .46699525 .06628418 .46699525 .11631775 .5029907 .16835022 .522995 .21037293 .522995 .26541139 .522995 .3024292 .5059967 .32144166 .48298646 .32144166 .4189911 .32144166 .4139862 .22537232 .4139862 .17234802 .4139862 .15834046 .41600038 .13632202 .41799928 .12130737 .40499879 .075286868 .34899903 .019256592 .29100038 .019256592 .24598694 .019256592 .22299195 .0632782 .22299195 .109313968 .22299195 .20936585 .2599945 .2984314 .31900025 .35546876H.6899872M.8659973 .4284668H.23699951C.13999939 .4284668 .056991579 .3464508 .02999878 .2684021H.04598999C.07899475 .31744386 .1269989 .35546876 .18099976 .35546876H.23098755C.17399597 .30142213 .14099121 .23239136 .14099121 .14732361 .14099121 .07829285 .1769867-.0107421879 .2789917-.0107421879 .34498597-.0107421879 .3919983 .025253296 .43299867 .075286868 .43699647 .024246216 .47799684-.0107421879 .5369873-.0107421879 .6409912-.0107421879 .7819977 .10229492 .7819977 .27241517 .7819977 .306427 .776001 .33244325 .7639923 .35546876H.84399417L.8659973 .4284668Z"/>
<path id="font_1_2477" d="M.33799745 .3143463C.35299684 .31835938 .37298585 .31835938 .3889923 .31835938 .46699525 .31835938 .5309906 .28330995 .5309906 .21022034 .5309906 .08004761 .43499757 .037994386 .34098817 .037994386 .31498719 .037994386 .29499818 .039993287 .269989 .04699707L.33799745 .3143463M.4059906 .61125186C.4189911 .61325076 .43399049 .6142578 .44898988 .6142578 .5029907 .6142578 .56799319 .5932617 .56799319 .5162964 .56799319 .41932679 .5119934 .35334779 .3999939 .35334779 .3849945 .35334779 .36698915 .35534669 .34700013 .35934449L.4059906 .61125186M.19799805 .653244 .19299317 .6372528H.21199036C.2709961 .6372528 .2899933 .62124636 .2899933 .5952606 .2899933 .5892639 .2889862 .5792694 .28799439 .5742645L.16499329 .07904053C.15699768 .04499817 .13798523 .015991211 .06199646 .015991211H.041992189L.037994386 0H.3619995C.56900027 0 .651001 .094070438 .651001 .19319153 .651001 .27830506 .58399966 .32035829 .5239868 .3313446L.5209961 .33535768C.54100039 .3403473 .56999209 .34835816 .59498599 .36134339 .6429901 .38534547 .6859894 .43032838 .6859894 .5082855 .6859894 .6442566 .5339966 .653244 .44999696 .653244H.19799805Z"/>
<path id="font_2_50" d="M.3939972 0V.01499939C.31900025 .01499939 .29899598 .032989503 .29899598 .07597351V.67277529L.2899933 .67578127 .11099243 .5847931V.5708008L.13798523 .5807953C.1559906 .5877991 .17298889 .59280398 .18299866 .59280398 .20399475 .59280398 .21299744 .57780459 .21299744 .543808V.0949707C.21299744 .039978029 .19198609 .018997193 .117996219 .01499939V0H.3939972Z"/>
<path id="font_2_52" d="M.06098938 .50987246C.101989749 .58380129 .147995 .61576846 .20999146 .61576846 .27598573 .61576846 .31799317 .58180239 .31799317 .51387026 .31799317 .45292665 .28599549 .40795899 .23699951 .37998963 .21699524 .36799623 .19099427 .3570099 .15299988 .34402467V.33003236C.20999146 .33003236 .23298645 .32704164 .25498963 .3200531 .32398988 .3000641 .35899354 .2511139 .35899354 .17518616 .35899354 .09025574 .30299378 .022323609 .22898865 .022323609 .20098877 .022323609 .17999268 .027313233 .14299011 .05329895 .114990238 .073272708 .09899902 .07926941 .08198547 .07926941 .05899048 .07926941 .040985109 .06428528 .040985109 .043304445 .040985109 .0073242189 .07998657-.013671875 .15299988-.013671875 .24198914-.013671875 .33699037 .015319824 .3849945 .07926941 .4139862 .11723328 .43099977 .16618347 .43099977 .21913147 .43099977 .27108766 .4149933 .31704713 .3869934 .34802247 .3659973 .36999513 .34799195 .38198854 .3039856 .40097047 .37098695 .44093324 .39698792 .4908905 .39698792 .5388489 .39698792 .6207733 .33399964 .67578127 .24099732 .67578127 .13699341 .67578127 .07398987 .6087799 .04499817 .51387026L.06098938 .50987246Z"/>
<path id="font_1_92" d="M.29899598-.15586853V-.13085938H.21598816C.18299866-.13085938 .1639862-.116867069 .1639862-.07687378V.58909609C.1639862 .6251068 .18199158 .6371002 .21598816 .6371002H.29899598V.6621094H.08799744V-.15586853H.29899598Z"/>
<path id="font_4_40" d="M.70899966 .35403443H.45298768V.3360443C.5319977 .3300476 .5419922 .322052 .5419922 .24412537V.087265018C.5419922 .05429077 .48599244 .026321412 .40899659 .026321412 .2519989 .026321412 .1459961 .13821411 .1459961 .3240509 .1459961 .42297364 .16999817 .5138855 .22299195 .5668335 .2659912 .61079409 .32099916 .6357727 .3899994 .6357727 .44599916 .6357727 .49798585 .6167908 .5359955 .5808258 .56599429 .55184939 .58200076 .5258789 .6069946 .4649353H.6299896L.621994 .67578127H.59999087C.59399417 .6567688 .57598879 .6427765 .5549927 .6427765 .54499819 .6427765 .5299988 .6457672 .5109863 .652771 .46598817 .6677704 .43199159 .67578127 .37799073 .67578127 .2809906 .67578127 .19898987 .6447754 .13899231 .58981326 .07199097 .5288696 .03199768 .43695069 .03199768 .32705689 .03199768 .22914124 .05899048 .15220642 .114990238 .09326172 .18099976 .02432251 .2829895-.013671875 .3849945-.013671875 .48799134-.013671875 .58399966 .0113220219 .6389923 .056289674V.25611878C.6389923 .32106019 .651001 .3310547 .70899966 .3360443V.35403443Z"/>
<path id="font_4_49" d="M.20199585 .58909609C.20199585 .6161041 .20799256 .6251068 .23699951 .6251068 .37298585 .6251068 .43299867 .58509829 .43299867 .4750824 .43299867 .38508607 .37298585 .32807923 .2630005 .32807923 .24299622 .32807923 .22499085 .32907105 .20199585 .3310852V.58909609M.015991211 .6621094V.6430969C.08999634 .6371002 .099990848 .6251068 .099990848 .5511017V.122024539C.099990848 .035995485 .09399414 .024993897 .015991211 .018997193V0H.29599V.018997193C.21499634 .022994996 .20199585 .035995485 .20199585 .11201477V.29107667C.22898865 .28907777 .24499512 .28808595 .2709961 .28808595 .37799073 .28808595 .4269867 .29707337 .4850006 .34907533 .5219879 .38208009 .5419922 .4270935 .5419922 .48008729 .5419922 .53009036 .5249939 .5710907 .49198915 .59910586 .44699098 .6371002 .375 .6621094 .2749939 .6621094H.015991211Z"/>
<path id="font_4_66" d="M.2869873 .12716675C.2869873 .09819031 .2809906 .084198 .2519989 .064208988 .23498535 .053222658 .21398926 .048233034 .19400025 .048233034 .15499878 .048233034 .125 .07220459 .125 .12516785 .125 .15615845 .1349945 .18013 .15899658 .20211792 .18399048 .22509766 .22499085 .24609375 .2869873 .2680664V.12716675M.44198609 .066207889C.4249878 .052230836 .4149933 .047225954 .39898683 .047225954 .3809967 .047225954 .36799623 .067214969 .36799623 .11317444V.30404664C.36799623 .3650055 .3639984 .38598634 .33999635 .41496278 .31599427 .44395448 .27799989 .45996095 .22200012 .45996095 .1769867 .45996095 .1349945 .44795228 .10699463 .42996217 .07199097 .40797425 .055999757 .37599183 .055999757 .35002137 .055999757 .32302857 .07798767 .30404664 .09899902 .30404664 .125 .30404664 .14498902 .32603456 .14498902 .34501649 .14498902 .3659973 .13899231 .3690033 .13899231 .3869934 .13899231 .41397096 .16899109 .43595887 .20899964 .43595887 .2539978 .43595887 .2869873 .40797425 .2869873 .34602357V.29205323C.17399597 .25009156 .13699341 .23109436 .10699463 .21110535 .067993167 .18513489 .036987306 .14616394 .036987306 .094192508 .036987306 .02822876 .07998657-.009765625 .14199829-.009765625 .18499756-.009765625 .23399353 .0032196046 .2869873 .06321716H.28799439C.29299928 .010223389 .31498719-.009765625 .35198976-.009765625 .38598634-.009765625 .4119873 .00022888184 .44198609 .038223268V.066207889Z"/>
<path id="font_1_94" d="M.24499512-.15586853V.6621094H.033996583V.6371002H.117996219C.1559906 .6371002 .16899109 .618103 .16899109 .58309939V-.084869388C.16899109-.115875247 .15699768-.13085938 .12199402-.13085938H.033996583V-.15586853H.24499512Z"/>
<path id="font_4_38" d="M.5970001 .16905213H.56900027C.5239868 .06300354 .48098756 .036987306 .33799745 .036987306H.3019867C.22799683 .036987306 .20098877 .041992189 .20098877 .08401489V.32714845H.35198976C.43798829 .32714845 .45298768 .3141327 .46499635 .23008728H.48799134V.4641266H.46499635C.45298768 .38513185 .43798829 .36813355 .35198976 .36813355H.20098877V.58810427C.20098877 .6201019 .20799256 .62409976 .23599243 .62409976H.36698915C.48298646 .62409976 .5059967 .60910037 .5209961 .51911929H.54599L.5419922 .6621094H.011993408V.6430969C.08699036 .6390991 .09899902 .62409976 .09899902 .55010989V.11402893C.09899902 .036987306 .08898926 .023986817 .011993408 .018997193V0H.5509949L.5970001 .16905213Z"/>
<path id="font_4_53" d="M.59298709 .4920807 .58599856 .6621094H.023986817L.016998291 .4920807H.040985109C.06098938 .60209658 .08799744 .6201019 .19400025 .6201019H.2539978V.12301636C.2539978 .034988405 .24299622 .023986817 .1599884 .018997193V0H.45199586V.018997193C.36999513 .022994996 .35598756 .034988405 .35598756 .11100769V.6201019H.4149933C.5209961 .6201019 .5469971 .60209658 .56900027 .4920807H.59298709Z"/>
<path id="font_4_42" d="M.31498719 0V.018997193C.23298645 .021987915 .21699524 .037002565 .21699524 .11201477V.5510864C.21699524 .6271057 .23098755 .6390991 .31498719 .6430969V.6621094H.017990113V.6430969C.102996829 .6381073 .114990238 .63009646 .114990238 .5510864V.11201477C.114990238 .033996583 .101989749 .021987915 .017990113 .018997193V0H.31498719Z"/>
<path id="font_4_48" d="M.57398989 .33703614C.57398989 .21714783 .54599 .12322998 .4909973 .07028198 .45599366 .03730774 .4119873 .022323609 .3619995 .022323609 .31599427 .022323609 .27198792 .03630066 .23799134 .067276 .1769867 .12322998 .147995 .21315003 .147995 .3320465 .147995 .42695619 .17399597 .52388 .21699524 .5728302 .2559967 .6177826 .30599977 .6397705 .3600006 .6397705 .40699769 .6397705 .44699098 .6227875 .48298646 .59280398 .5399933 .54486086 .57398989 .450943 .57398989 .33703614M.6879883 .33103944C.6879883 .5288696 .5569916 .67578127 .36099244 .67578127 .1659851 .67578127 .033996583 .53686526 .033996583 .3340454 .033996583 .1262207 .16699219-.013671875 .36099244-.013671875 .5529938-.013671875 .6879883 .12522888 .6879883 .33103944Z"/>
<path id="font_4_83" d="M.1599884 .45794679 .15499878 .45996095C.101989749 .43894959 .06599426 .42495729 .0069885256 .40596009V.3899536C.020996094 .3929596 .02999878 .39396668 .041992189 .39396668 .066986087 .39396668 .07598877 .3779602 .07598877 .33396913V.083984378C.07598877 .033996583 .068984989 .026992798 .004989624 .01499939V0H.24499512V.01499939C.1769867 .017990113 .1599884 .032989503 .1599884 .08998108V.31497193C.1599884 .3469696 .20199585 .3969574 .22999573 .3969574 .23599243 .3969574 .24499512 .3919525 .2559967 .381958 .27198792 .36695863 .2829895 .361969 .29599 .361969 .31999208 .361969 .33499146 .3789673 .33499146 .4069519 .33499146 .43995667 .31399537 .45996095 .27999879 .45996095 .23799134 .45996095 .20999146 .43795777 .1599884 .3659668V.45794679Z"/>
</defs>
<path transform="matrix(1,0,0,-1,43.362,177.6)" stroke-width=".3985" stroke-linecap="butt" stroke-miterlimit="10" stroke-linejoin="miter" fill="none" stroke="#b0b0b0" d="M8.83064 0V161.39392M52.98177 0V161.39392M97.13625 0V161.39392M141.28961 0V161.39392M185.44297 0V161.39392"/>
<path transform="matrix(1,0,0,-1,43.362,177.6)" stroke-width=".3985" stroke-linecap="butt" stroke-miterlimit="10" stroke-linejoin="miter" fill="none" stroke="#b0b0b0" d="M0 5.04355H194.27433M0 55.47916H194.27433M0 105.91476H194.27433M0 156.35036H194.27433"/>
<path transform="matrix(1,0,0,-1,43.362,177.6)" stroke-width=".19925" stroke-linecap="butt" stroke-miterlimit="10" stroke-linejoin="miter" fill="none" stroke="#000000" d="M8.83064-4.25221V0M52.98177-4.25221V0M97.13625-4.25221V0M141.28961-4.25221V0M185.44297-4.25221V0"/>
<path transform="matrix(1,0,0,-1,43.362,177.6)" stroke-width=".19925" stroke-linecap="butt" stroke-miterlimit="10" stroke-linejoin="miter" fill="none" stroke="#000000" d="M-4.25243 5.04355H0M-4.25243 55.47916H0M-4.25243 105.91476H0M-4.25243 156.35036H0"/>
<path transform="matrix(1,0,0,-1,43.362,177.6)" stroke-width=".3985" stroke-linecap="butt" stroke-miterlimit="10" stroke-linejoin="miter" fill="none" stroke="#000000" d="M0 0V161.39392H194.27433V0H0Z"/>
<use data-text="0" xlink:href="#font_1_49" transform="matrix(9.96264,0,0,-9.96264,49.702,192.10701)"/>
<use data-text="&#x1d70b;" xlink:href="#font_1_3177" transform="matrix(9.96264,0,0,-9.96264,89.438999,192.10701)"/>
<use data-text="/" xlink:href="#font_1_48" transform="matrix(9.96264,0,0,-9.96264,95.49628,192.10701)"/>
<use data-text="8" xlink:href="#font_1_57" transform="matrix(9.96264,0,0,-9.96264,98.26589,192.10701)"/>
<use data-text="&#x1d70b;" xlink:href="#font_1_3177" transform="matrix(9.96264,0,0,-9.96264,133.593,192.10701)"/>
<use data-text="/" xlink:href="#font_1_48" transform="matrix(9.96264,0,0,-9.96264,139.6503,192.10701)"/>
<use data-text="4" xlink:href="#font_1_53" transform="matrix(9.96264,0,0,-9.96264,142.4199,192.10701)"/>
<use data-text="3" xlink:href="#font_1_52" transform="matrix(9.96264,0,0,-9.96264,175.255,192.10701)"/>
<use data-text="&#x1d70b;" xlink:href="#font_1_3177" transform="matrix(9.96264,0,0,-9.96264,180.23633,192.10701)"/>
<use data-text="/" xlink:href="#font_1_48" transform="matrix(9.96264,0,0,-9.96264,186.29363,192.10701)"/>
<use data-text="8" xlink:href="#font_1_57" transform="matrix(9.96264,0,0,-9.96264,189.06324,192.10701)"/>
<use data-text="&#x1d70b;" xlink:href="#font_1_3177" transform="matrix(9.96264,0,0,-9.96264,221.898,192.10701)"/>
<use data-text="/" xlink:href="#font_1_48" transform="matrix(9.96264,0,0,-9.96264,227.95529,192.10701)"/>
<use data-text="2" xlink:href="#font_1_51" transform="matrix(9.96264,0,0,-9.96264,230.7249,192.10701)"/>
<use data-text="&#x2212;" xlink:href="#font_1_1155" transform="matrix(9.96264,0,0,-9.96264,23.784,175.854)"/>
<use data-text="3" xlink:href="#font_1_52" transform="matrix(9.96264,0,0,-9.96264,30.60841,175.854)"/>
<use data-text="&#x2212;" xlink:href="#font_1_1155" transform="matrix(9.96264,0,0,-9.96264,23.784,125.48901)"/>
<use data-text="2" xlink:href="#font_1_51" transform="matrix(9.96264,0,0,-9.96264,30.60841,125.48901)"/>
<use data-text="&#x2212;" xlink:href="#font_1_1155" transform="matrix(9.96264,0,0,-9.96264,23.784,75.054019)"/>
<use data-text="1" xlink:href="#font_1_50" transform="matrix(9.96264,0,0,-9.96264,30.60841,75.054019)"/>
<use data-text="0" xlink:href="#font_1_49" transform="matrix(9.96264,0,0,-9.96264,30.609,24.550004)"/>
<use data-text="&#x22c5;" xlink:href="#font_1_1334" transform="matrix(9.96264,0,0,-9.96264,46.55,11.028)"/>
<use data-text="1" xlink:href="#font_1_50" transform="matrix(9.96264,0,0,-9.96264,49.399316,11.028)"/>
<use data-text="0" xlink:href="#font_1_49" transform="matrix(9.96264,0,0,-9.96264,54.380636,11.028)"/>
<use data-text="&#x2212;" xlink:href="#font_2_1155" transform="matrix(7.47198,0,0,-7.47198,59.362,7.0429995)"/>
<use data-text="2" xlink:href="#font_2_51" transform="matrix(7.47198,0,0,-7.47198,64.48031,7.0429995)"/>
<g clip-path="url(#clip_3)">
<path transform="matrix(1,0,0,-1,43.362,177.6)" stroke-width=".59776" stroke-linecap="butt" stroke-miterlimit="10" stroke-linejoin="miter" fill="none" stroke="#0000ff" d="M8.83069 156.35012 12.36298 155.36496 15.89525 154.39455 19.4275 153.4527 22.9598 152.55182 26.49207 151.70201 30.02434 150.9108 33.55663 150.18321 37.0889 149.52173 40.62117 148.92656 44.15344 148.39615 47.68573 147.927 51.218 147.5148 54.75027 147.15514 58.28255 146.84243 61.81482 146.57134 65.34709 146.33696 68.87938 146.13465 72.41165 145.96045 75.94392 145.81073 79.4762 145.68202 83.00848 145.57303 86.54076 145.48181 90.07303 145.40872 93.6053 145.35173 97.13757 145.31192 100.66985 145.29016 104.20213 145.28769 107.7344 145.307 111.26668 145.3498 114.79895 145.41869 118.33124 145.51718 121.86351 145.64855 125.39578 145.81581 128.92806 146.02285 132.46033 146.27329 135.9926 146.57083 139.52489 146.91892 143.05716 147.32076 146.58943 147.7791 150.1217 148.2959 153.65399 148.87291 157.18627 149.51003 160.71854 150.2064 164.25083 150.95983 167.78308 151.76619 171.31536 152.62036 174.84764 153.515 178.37992 154.44158 181.91219 155.39022 185.44446 156.35012"/>
<path transform="matrix(1,0,0,-1,43.362,177.6)" stroke-width=".59776" stroke-linecap="butt" stroke-miterlimit="10" stroke-linejoin="miter" fill="none" stroke="#ff0000" d="M8.83069 156.35012H12.36298 15.89525 19.4275 22.9598 26.49207 30.02434 33.55663 37.0889 40.62117 44.15344 47.68573 51.218 54.75027 58.28255 61.81482 65.34709 68.87938 72.41165 75.94392 79.4762 83.00848 86.54076 90.07303 93.6053 97.13757 100.66985 104.20213 107.7344 111.26668 114.79895 118.33124 121.86351 125.39578 128.92806 132.46033 135.9926 139.52489 143.05716 146.58943 150.1217 153.65399 157.18627 160.71854 164.25083 167.78308 171.31536 174.84764 178.37992 181.91219 185.44446"/>
<path transform="matrix(1,0,0,-1,43.362,177.6)" stroke-width=".59776" stroke-linecap="butt" stroke-miterlimit="10" stroke-linejoin="miter" fill="none" stroke="#00bfbf" d="M8.83069 156.35012H12.36298 15.89525 19.4275 22.9598 26.49207 30.02434 33.55663 37.0889 40.62117 44.15344 47.68573 51.218 54.75027 58.28255 61.81482 65.34709 68.87938 72.41165 75.94392 79.4762 83.00848 86.54076 90.07303 93.6053 97.13757 100.66985 104.20213 107.7344 111.26668 114.79895 118.33124 121.86351 125.39578 128.92806 132.46033 135.9926 139.52489 143.05716 146.58943 150.1217 153.65399 157.18627 160.71854 164.25083 167.78308 171.31536 174.84764 178.37992 181.91219 185.44446"/>
<path transform="matrix(1,0,0,-1,43.362,177.6)" stroke-width=".59776" stroke-linecap="butt" stroke-miterlimit="10" stroke-linejoin="miter" fill="none" stroke="#bf00bf" d="M8.83069 156.35012 12.36298 154.54454 15.89525 152.74665 19.4275 150.96408 22.9598 149.20438 26.49207 147.47499 30.02434 145.7832 33.55663 144.13613 37.0889 142.5406 40.62117 141.00325 44.15344 139.53041 47.68573 138.12805 51.218 136.80185 54.75027 135.5571 58.28255 134.39867 61.81482 133.33104 65.34709 132.35829 68.87938 131.48404 72.41165 130.71147 75.94392 130.04325 79.4762 129.48169 83.00848 129.02854 86.54076 128.68514 90.07303 128.45233 93.6053 128.33057 97.13757 128.31975 100.66985 128.41945 104.20213 128.62873 107.7344 128.94622 111.26668 129.37023 114.79895 129.89859 118.33124 130.5288 121.86351 131.258 125.39578 132.08296 128.92806 133.00014 132.46033 134.00569 135.9926 135.09549 139.52489 136.26512 143.05716 137.50992 146.58943 138.82497 150.1217 140.20519 153.65399 141.64525 157.18627 143.1397 160.71854 144.68285 164.25083 146.26895 167.78308 147.89209 171.31536 149.54624 174.84764 151.22531 178.37992 152.92313 181.91219 154.63349 185.44446 156.35012"/>
<path transform="matrix(1,0,0,-1,43.362,177.6)" stroke-width=".59776" stroke-linecap="butt" stroke-miterlimit="10" stroke-linejoin="miter" fill="none" stroke="#008000" d="M8.83069 156.35012 12.36298 155.20084 15.89525 153.97136 19.4275 152.58774 22.9598 150.98902 26.49207 149.13437 30.02434 147.01079 33.55663 144.64028 37.0889 142.08525 40.62117 139.4493 44.15344 136.8706 47.68573 134.50676 51.218 132.51187 54.75027 131.01198 58.28255 130.08547 61.81482 129.75392 65.34709 129.98423 68.87938 130.69911 72.41165 131.79175 75.94392 133.14037 79.4762 134.62088 83.00848 136.11647 86.54076 137.52411 90.07303 138.75888 93.6053 139.7565 97.13757 140.47472 100.66985 140.89373 104.20213 141.01607 107.7344 140.86563 111.26668 140.48584 114.79895 139.93706 118.33124 139.29276 121.86351 138.63463 125.39578 138.04686 128.92806 137.60938 132.46033 137.39116 135.9926 137.44377 139.52489 137.7969 143.05716 138.45606 146.58943 139.40346 150.1217 140.60193 153.65399 142.00104 157.18627 143.5441 160.71854 145.17517 164.25083 146.84482 167.78308 148.51398 171.31536 150.15615 174.84764 151.75785 178.37992 153.31743 181.91219 154.84314 185.44446 156.35012"/>
</g>
<path transform="matrix(1,0,0,-1,43.362,177.6)" stroke-width=".59776" stroke-linecap="butt" stroke-miterlimit="10" stroke-linejoin="miter" fill="none" stroke="#0000ff" d="M5.84186 156.35012H11.81952M8.83069 159.33895V153.36128"/>
<path transform="matrix(1,0,0,-1,43.362,177.6)" stroke-width=".59776" stroke-linecap="butt" stroke-miterlimit="10" stroke-linejoin="miter" fill="none" stroke="#0000ff" d="M94.14874 145.31192H100.1264M97.13757 148.30075V142.32309"/>
<path transform="matrix(1,0,0,-1,43.362,177.6)" stroke-width=".59776" stroke-linecap="butt" stroke-miterlimit="10" stroke-linejoin="miter" fill="none" stroke="#0000ff" d="M182.45563 156.35012H188.43329M185.44446 159.33895V153.36128"/>
<path transform="matrix(1,0,0,-1,43.362,177.6)" stroke-width=".59776" stroke-linecap="butt" stroke-miterlimit="10" stroke-linejoin="miter" fill="none" stroke="#0000ff" d=""/>
<path transform="matrix(1,0,0,-1,43.362,177.6)" d="M11.81952 156.35012C11.81952 158.00081 10.48138 159.33895 8.83069 159.33895 7.17998 159.33895 5.84186 158.00081 5.84186 156.35012 5.84186 154.6994 7.17998 153.36128 8.83069 153.36128 10.48138 153.36128 11.81952 154.6994 11.81952 156.35012ZM8.83069 156.35012" fill="#ff0000"/>
<path transform="matrix(1,0,0,-1,43.362,177.6)" stroke-width=".59776" stroke-linecap="butt" stroke-miterlimit="10" stroke-linejoin="miter" fill="none" stroke="#ff0000" d="M11.81952 156.35012C11.81952 158.00081 10.48138 159.33895 8.83069 159.33895 7.17998 159.33895 5.84186 158.00081 5.84186 156.35012 5.84186 154.6994 7.17998 153.36128 8.83069 153.36128 10.48138 153.36128 11.81952 154.6994 11.81952 156.35012ZM8.83069 156.35012"/>
<path transform="matrix(1,0,0,-1,43.362,177.6)" d="M100.1264 156.35012C100.1264 158.00081 98.78828 159.33895 97.13757 159.33895 95.48688 159.33895 94.14874 158.00081 94.14874 156.35012 94.14874 154.6994 95.48688 153.36128 97.13757 153.36128 98.78828 153.36128 100.1264 154.6994 100.1264 156.35012ZM97.13757 156.35012" fill="#ff0000"/>
<path transform="matrix(1,0,0,-1,43.362,177.6)" stroke-width=".59776" stroke-linecap="butt" stroke-miterlimit="10" stroke-linejoin="miter" fill="none" stroke="#ff0000" d="M100.1264 156.35012C100.1264 158.00081 98.78828 159.33895 97.13757 159.33895 95.48688 159.33895 94.14874 158.00081 94.14874 156.35012 94.14874 154.6994 95.48688 153.36128 97.13757 153.36128 98.78828 153.36128 100.1264 154.6994 100.1264 156.35012ZM97.13757 156.35012"/>
<path transform="matrix(1,0,0,-1,43.362,177.6)" d="M188.43329 156.35012C188.43329 158.00081 187.09517 159.33895 185.44446 159.33895 183.79375 159.33895 182.45563 158.00081 182.45563 156.35012 182.45563 154.6994 183.79375 153.36128 185.44446 153.36128 187.09517 153.36128 188.43329 154.6994 188.43329 156.35012ZM185.44446 156.35012" fill="#ff0000"/>
<path transform="matrix(1,0,0,-1,43.362,177.6)" stroke-width=".59776" stroke-linecap="butt" stroke-miterlimit="10" stroke-linejoin="miter" fill="none" stroke="#ff0000" d="M188.43329 156.35012C188.43329 158.00081 187.09517 159.33895 185.44446 159.33895 183.79375 159.33895 182.45563 158.00081 182.45563 156.35012 182.45563 154.6994 183.79375 153.36128 185.44446 153.36128 187.09517 153.36128 188.43329 154.6994 188.43329 156.35012ZM185.44446 156.35012"/>
<path transform="matrix(1,0,0,-1,43.362,177.6)" stroke-width=".59776" stroke-linecap="butt" stroke-miterlimit="10" stroke-linejoin="miter" fill="none" stroke="#ff0000" d=""/>
<path transform="matrix(1,0,0,-1,43.362,177.6)" stroke-width=".59776" stroke-linecap="butt" stroke-miterlimit="10" stroke-linejoin="miter" fill="none" stroke="#00bfbf" d="M8.83069 153.36128V159.33895M11.4191 157.84453 6.24228 154.8557M11.4191 154.8557 6.24228 157.84453"/>
<path transform="matrix(1,0,0,-1,43.362,177.6)" stroke-width=".59776" stroke-linecap="butt" stroke-miterlimit="10" stroke-linejoin="miter" fill="none" stroke="#00bfbf" d="M97.13757 153.36128V159.33895M99.72598 157.84453 94.54916 154.8557M99.72598 154.8557 94.54916 157.84453"/>
<path transform="matrix(1,0,0,-1,43.362,177.6)" stroke-width=".59776" stroke-linecap="butt" stroke-miterlimit="10" stroke-linejoin="miter" fill="none" stroke="#00bfbf" d="M185.44446 153.36128V159.33895M188.03287 157.84453 182.85605 154.8557M188.03287 154.8557 182.85605 157.84453"/>
<path transform="matrix(1,0,0,-1,43.362,177.6)" stroke-width=".59776" stroke-linecap="butt" stroke-miterlimit="10" stroke-linejoin="miter" fill="none" stroke="#00bfbf" d=""/>
<path transform="matrix(1,0,0,-1,43.362,177.6)" stroke-width=".59776" stroke-linecap="butt" stroke-miterlimit="10" stroke-linejoin="miter" fill="none" stroke="#bf00bf" d="M6.71725 154.23668 10.9441 158.46353M6.71725 158.46353 10.9441 154.23668"/>
<path transform="matrix(1,0,0,-1,43.362,177.6)" stroke-width=".59776" stroke-linecap="butt" stroke-miterlimit="10" stroke-linejoin="miter" fill="none" stroke="#bf00bf" d="M95.02415 126.20633 99.251 130.43318M95.02415 130.43318 99.251 126.20633"/>
<path transform="matrix(1,0,0,-1,43.362,177.6)" stroke-width=".59776" stroke-linecap="butt" stroke-miterlimit="10" stroke-linejoin="miter" fill="none" stroke="#bf00bf" d="M183.33104 154.23668 187.55788 158.46353M183.33104 158.46353 187.55788 154.23668"/>
<path transform="matrix(1,0,0,-1,43.362,177.6)" stroke-width=".59776" stroke-linecap="butt" stroke-miterlimit="10" stroke-linejoin="miter" fill="none" stroke="#bf00bf" d=""/>
<path transform="matrix(1,0,0,-1,43.362,177.6)" d="M8.83069 159.33895 11.07231 156.35012 8.83069 153.36128 6.58907 156.35012Z" fill="#008000"/>
<path transform="matrix(1,0,0,-1,43.362,177.6)" stroke-width=".59776" stroke-linecap="butt" stroke-miterlimit="10" stroke-linejoin="miter" fill="none" stroke="#008000" d="M8.83069 159.33895 11.07231 156.35012 8.83069 153.36128 6.58907 156.35012Z"/>
<path transform="matrix(1,0,0,-1,43.362,177.6)" d="M97.13757 143.46355 99.3792 140.47472 97.13757 137.48589 94.89595 140.47472Z" fill="#008000"/>
<path transform="matrix(1,0,0,-1,43.362,177.6)" stroke-width=".59776" stroke-linecap="butt" stroke-miterlimit="10" stroke-linejoin="miter" fill="none" stroke="#008000" d="M97.13757 143.46355 99.3792 140.47472 97.13757 137.48589 94.89595 140.47472Z"/>
<path transform="matrix(1,0,0,-1,43.362,177.6)" d="M185.44446 159.33895 187.68608 156.35012 185.44446 153.36128 183.20284 156.35012Z" fill="#008000"/>
<path transform="matrix(1,0,0,-1,43.362,177.6)" stroke-width=".59776" stroke-linecap="butt" stroke-miterlimit="10" stroke-linejoin="miter" fill="none" stroke="#008000" d="M185.44446 159.33895 187.68608 156.35012 185.44446 153.36128 183.20284 156.35012Z"/>
<path transform="matrix(1,0,0,-1,43.362,177.6)" stroke-width=".59776" stroke-linecap="butt" stroke-miterlimit="10" stroke-linejoin="miter" fill="none" stroke="#008000" d=""/>
<use data-text="&#x1d71b;" xlink:href="#font_1_3193" transform="matrix(9.96264,0,0,-9.96264,135.935,203.35)"/>
<use data-text="&#x1d435;" xlink:href="#font_1_2477" transform="matrix(0,-9.96264,-9.96264,-0,14.348999,122.177)"/>
<use data-text="1" xlink:href="#font_2_50" transform="matrix(0,-7.47198,-7.47198,-0,16.839997,115.243)"/>
<use data-text="3" xlink:href="#font_2_52" transform="matrix(0,-7.47198,-7.47198,-0,16.839997,111.50701)"/>
<use data-text="[" xlink:href="#font_1_92" transform="matrix(0,-9.96264,-9.96264,-0,14.348999,104.595)"/>
<use data-text="G" xlink:href="#font_4_40" transform="matrix(0,-9.96264,-9.96264,-0,14.348999,101.277)"/>
<use data-text="P" xlink:href="#font_4_49" transform="matrix(0,-9.96264,-9.96264,-0,14.348999,94.08397)"/>
<use data-text="a" xlink:href="#font_4_66" transform="matrix(0,-9.96264,-9.96264,-0,14.348999,88.63441)"/>
<use data-text="&#x2212;" xlink:href="#font_2_1155" transform="matrix(0,-7.47198,-7.47198,-0,10.363998,84.211)"/>
<use data-text="1" xlink:href="#font_2_50" transform="matrix(0,-7.47198,-7.47198,-0,10.363998,79.0927)"/>
<use data-text="]" xlink:href="#font_1_94" transform="matrix(0,-9.96264,-9.96264,-0,14.348999,74.949008)"/>
<path transform="matrix(1,0,0,-1,43.362,177.6)" d="M135.7066 5.04086H188.24707V78.93935H135.7066Z" fill="#ffffff" fill-opacity=".8"/>
<path transform="matrix(1,0,0,-1,43.362,177.6)" stroke-width=".3985" stroke-linecap="butt" stroke-miterlimit="10" stroke-linejoin="miter" fill="none" stroke="#cccccc" d="M135.7066 5.04086H188.24707V78.93935H135.7066Z"/>
<path transform="matrix(1,0,0,-1,182.355,106.647)" stroke-width=".59776" stroke-linecap="butt" stroke-miterlimit="10" stroke-linejoin="miter" fill="none" stroke="#0000ff" d="M0 0H8.50412 17.00826"/>
<path transform="matrix(1,0,0,-1,182.355,106.647)" stroke-width=".59776" stroke-linecap="butt" stroke-miterlimit="10" stroke-linejoin="miter" fill="none" stroke="#0000ff" d="M5.51529 0H11.49295M8.50412 2.98883V-2.98883"/>
<use data-text="&#x1d435;" xlink:href="#font_1_2477" transform="matrix(9.96264,0,0,-9.96264,201.65399,109.15301)"/>
<use data-text="1" xlink:href="#font_2_50" transform="matrix(7.47198,0,0,-7.47198,208.58798,111.64301)"/>
<use data-text="3" xlink:href="#font_2_52" transform="matrix(7.47198,0,0,-7.47198,212.32398,111.64301)"/>
<path transform="matrix(1,0,0,-1,182.355,119.845)" stroke-width=".59776" stroke-linecap="butt" stroke-miterlimit="10" stroke-linejoin="miter" fill="none" stroke="#ff0000" d="M0 0H8.50412 17.00826"/>
<path transform="matrix(1,0,0,-1,182.355,119.845)" d="M11.49295 0C11.49295 1.6507 10.15482 2.98883 8.50412 2.98883 6.85341 2.98883 5.51529 1.6507 5.51529 0 5.51529-1.6507 6.85341-2.98883 8.50412-2.98883 10.15482-2.98883 11.49295-1.6507 11.49295 0ZM8.50412 0" fill="#ff0000" fill-opacity=".8"/>
<path transform="matrix(1,0,0,-1,182.355,119.845)" stroke-width=".59776" stroke-linecap="butt" stroke-miterlimit="10" stroke-linejoin="miter" fill="none" stroke="#ff0000" d="M11.49295 0C11.49295 1.6507 10.15482 2.98883 8.50412 2.98883 6.85341 2.98883 5.51529 1.6507 5.51529 0 5.51529-1.6507 6.85341-2.98883 8.50412-2.98883 10.15482-2.98883 11.49295-1.6507 11.49295 0ZM8.50412 0"/>
<use data-text="&#x1d435;" xlink:href="#font_1_2477" transform="matrix(9.96264,0,0,-9.96264,201.65399,123.56301)"/>
<use data-text="E" xlink:href="#font_4_38" transform="matrix(7.47198,0,0,-7.47198,208.98699,119.57801)"/>
<use data-text="T" xlink:href="#font_4_53" transform="matrix(7.47198,0,0,-7.47198,213.55237,119.57801)"/>
<use data-text="I" xlink:href="#font_4_42" transform="matrix(7.47198,0,0,-7.47198,218.11775,119.57801)"/>
<use data-text="1" xlink:href="#font_2_50" transform="matrix(7.47198,0,0,-7.47198,208.58798,127.26001)"/>
<use data-text="3" xlink:href="#font_2_52" transform="matrix(7.47198,0,0,-7.47198,212.32398,127.26001)"/>
<path transform="matrix(1,0,0,-1,182.355,134.256)" stroke-width=".59776" stroke-linecap="butt" stroke-miterlimit="10" stroke-linejoin="miter" fill="none" stroke="#00bfbf" d="M0 0H8.50412 17.00826"/>
<path transform="matrix(1,0,0,-1,182.355,134.256)" stroke-width=".59776" stroke-linecap="butt" stroke-miterlimit="10" stroke-linejoin="miter" fill="none" stroke="#00bfbf" d="M8.50412-2.98883V2.98883M11.09253 1.49442 5.91571-1.49442M11.09253-1.49442 5.91571 1.49442"/>
<use data-text="&#x1d435;" xlink:href="#font_1_2477" transform="matrix(9.96264,0,0,-9.96264,201.65399,137.974)"/>
<use data-text="T" xlink:href="#font_4_53" transform="matrix(7.47198,0,0,-7.47198,208.98699,133.98902)"/>
<use data-text="I" xlink:href="#font_4_42" transform="matrix(7.47198,0,0,-7.47198,213.55237,133.98902)"/>
<use data-text="1" xlink:href="#font_2_50" transform="matrix(7.47198,0,0,-7.47198,208.58798,141.67102)"/>
<use data-text="3" xlink:href="#font_2_52" transform="matrix(7.47198,0,0,-7.47198,212.32398,141.67102)"/>
<path transform="matrix(1,0,0,-1,182.355,148.771)" stroke-width=".59776" stroke-linecap="butt" stroke-miterlimit="10" stroke-linejoin="miter" fill="none" stroke="#bf00bf" d="M0 0H8.50412 17.00826"/>
<path transform="matrix(1,0,0,-1,182.355,148.771)" stroke-width=".59776" stroke-linecap="butt" stroke-miterlimit="10" stroke-linejoin="miter" fill="none" stroke="#bf00bf" d="M6.39069-2.11342 10.61754 2.11342M6.39069 2.11342 10.61754-2.11342"/>
<use data-text="&#x1d435;" xlink:href="#font_1_2477" transform="matrix(9.96264,0,0,-9.96264,201.65399,152.594)"/>
<use data-text="E" xlink:href="#font_4_38" transform="matrix(7.47198,0,0,-7.47198,208.98699,148.50499)"/>
<use data-text="O" xlink:href="#font_4_48" transform="matrix(7.47198,0,0,-7.47198,213.55237,148.50499)"/>
<use data-text="1" xlink:href="#font_2_50" transform="matrix(7.47198,0,0,-7.47198,208.58798,156.291)"/>
<use data-text="3" xlink:href="#font_2_52" transform="matrix(7.47198,0,0,-7.47198,212.32398,156.291)"/>
<path transform="matrix(1,0,0,-1,182.355,163.32399)" stroke-width=".59776" stroke-linecap="butt" stroke-miterlimit="10" stroke-linejoin="miter" fill="none" stroke="#008000" d="M0 0H8.50412 17.00826"/>
<path transform="matrix(1,0,0,-1,182.355,163.32399)" d="M8.50412 2.98883 10.74574 0 8.50412-2.98883 6.2625 0Z" fill="#008000" fill-opacity=".8"/>
<path transform="matrix(1,0,0,-1,182.355,163.32399)" stroke-width=".59776" stroke-linecap="butt" stroke-miterlimit="10" stroke-linejoin="miter" fill="none" stroke="#008000" d="M8.50412 2.98883 10.74574 0 8.50412-2.98883 6.2625 0Z"/>
<use data-text="&#x1d435;" xlink:href="#font_1_2477" transform="matrix(9.96264,0,0,-9.96264,201.65399,167.07999)"/>
<use data-text="T" xlink:href="#font_4_53" transform="matrix(7.47198,0,0,-7.47198,208.98699,163.01999)"/>
<use data-text="r" xlink:href="#font_4_83" transform="matrix(7.47198,0,0,-7.47198,213.37305,163.01999)"/>
<use data-text="a" xlink:href="#font_4_66" transform="matrix(7.47198,0,0,-7.47198,215.84629,163.01999)"/>
<use data-text="T" xlink:href="#font_4_53" transform="matrix(7.47198,0,0,-7.47198,219.16385,163.01999)"/>
<use data-text="I" xlink:href="#font_4_42" transform="matrix(7.47198,0,0,-7.47198,223.72924,163.01999)"/>
<use data-text="1" xlink:href="#font_2_50" transform="matrix(7.47198,0,0,-7.47198,208.58798,170.77597)"/>
<use data-text="3" xlink:href="#font_2_52" transform="matrix(7.47198,0,0,-7.47198,212.32398,170.77597)"/>
</svg>
