<svg xmlns="http://www.w3.org/2000/svg" xmlns:xlink="http://www.w3.org/1999/xlink" xmlns:inkscape="http://www.inkscape.org/namespaces/inkscape" version="1.1" width="246.649" height="194.757" viewBox="0 0 246.649 194.757">
<defs>
<path id="font_1_49" d="M.37998963 .32505799C.37998963 .12722779 .33499146 .012313843 .25 .012313843 .1639862 .012313843 .11999512 .1262207 .11999512 .32904054 .11999512 .5318756 .16499329 .6497803 .24798584 .6497803 .33599855 .6497803 .37998963 .53286746 .37998963 .32505799M.47599793 .3300476C.47599793 .53486636 .3849945 .67578127 .2539978 .67578127 .09298706 .67578127 .023986817 .5128937 .023986817 .3360443 .023986817 .17218018 .07899475-.013671875 .25-.013671875 .41299439-.013671875 .47599793 .15818787 .47599793 .3300476Z"/>
<path id="font_1_3177" d="M.56799319 .4284668H.28599549C.18199158 .4284668 .117996219 .38246156 .07398987 .3024292H.08999634C.13398743 .35546876 .17098999 .35546876 .22898865 .35546876L.13999939 .14936829C.1269989 .12034607 .10899353 .09133911 .06599426 .079330448 .039993287 .07232666 .034988405 .046310426 .034988405 .031311037 .034988405 .007293701 .05999756-.0126953129 .085998538-.0126953129 .09799194-.0126953129 .11299133-.010696411 .12399292-.0017089844 .20799256 .061325075 .23899842 .23339844 .2849884 .35546876H.3789978C.35398866 .27142335 .32398988 .2013855 .30099488 .13035584 .29499818 .111343387 .2919922 .09133911 .2919922 .06832886 .2919922 .029159546 .30899049-.0068359377 .34899903-.0068359377 .4189911-.0068359377 .47200013 .06315613 .49299623 .13522339H.47698976C.45298768 .08117676 .4249878 .06915283 .4039917 .06915283 .38198854 .06915283 .3659973 .094177249 .3659973 .11720276 .3659973 .1842804 .4189911 .31240846 .43299867 .35546876H.54499819L.56799319 .4284668Z"/>
<path id="font_1_48" d="M.2869873 .67578127H.21998596L-.009002686-.013671875H.05899048L.2869873 .67578127Z"/>
<path id="font_1_57" d="M.2709961 .27209474C.33898927 .22613526 .36898805 .18617249 .36898805 .1242218 .36898805 .059280397 .32398988 .014328003 .25898744 .014328003 .18299866 .014328003 .13198853 .06626892 .13198853 .15820313 .13198853 .22314453 .15299988 .26409913 .21199036 .3120575L.2709961 .27209474M.35499574 .53286746C.35499574 .470932 .32899476 .42897035 .26098634 .3889923 .17298889 .4409485 .13598633 .48690797 .13598633 .54885867 .13598633 .6108093 .1789856 .6477661 .24598694 .6477661 .31399537 .6477661 .35499574 .60180667 .35499574 .53286746M.44499208 .15519715C.44499208 .23512268 .41299439 .28907777 .2899933 .37101747 .3889923 .42396546 .42399598 .45793153 .42399598 .53286746 .42399598 .6108093 .35499574 .67578127 .2559967 .67578127 .14498902 .67578127 .06199646 .61579897 .06199646 .5198822 .06199646 .4549408 .08299255 .41697694 .18598938 .3320465 .07899475 .2571106 .055999757 .21813965 .055999757 .14920044 .055999757 .055282594 .1349945-.013671875 .24798584-.013671875 .36799623-.013671875 .44499208 .05229187 .44499208 .15519715Z"/>
<path id="font_1_53" d="M.2919922 .23098755H.051986696L.2919922 .573822V.23098755M.47299195 .16699219V.23098755H.36999513V.67578127H.32598878L.011993408 .23098755V.16699219H.2919922V0H.36999513V.16699219H.47299195Z"/>
<path id="font_1_52" d="M.06098938 .50987246C.101989749 .58380129 .147995 .61576846 .20999146 .61576846 .27598573 .61576846 .31799317 .58180239 .31799317 .51387026 .31799317 .45292665 .28599549 .40795899 .23699951 .37998963 .21699524 .36799623 .19099427 .3570099 .15299988 .34402467V.33003236C.20999146 .33003236 .23298645 .32704164 .25498963 .3200531 .32398988 .3000641 .35899354 .2511139 .35899354 .17518616 .35899354 .09025574 .30299378 .022323609 .22898865 .022323609 .20098877 .022323609 .17999268 .027313233 .14299011 .05329895 .114990238 .073272708 .09899902 .07926941 .08198547 .07926941 .05899048 .07926941 .040985109 .06428528 .040985109 .043304445 .040985109 .0073242189 .07998657-.013671875 .15299988-.013671875 .24198914-.013671875 .33699037 .015319824 .3849945 .07926941 .4139862 .11723328 .43099977 .16618347 .43099977 .21913147 .43099977 .27108766 .4149933 .31704713 .3869934 .34802247 .3659973 .36999513 .34799195 .38198854 .3039856 .40097047 .37098695 .44093324 .39698792 .4908905 .39698792 .5388489 .39698792 .6207733 .33399964 .67578127 .24099732 .67578127 .13699341 .67578127 .07398987 .6087799 .04499817 .51387026L.06098938 .50987246Z"/>
<path id="font_1_51" d="M.47399903 .13696289 .45999146 .1429596C.4269867 .08699036 .4059906 .07598877 .3639984 .07598877H.12998963L.29499818 .2519226C.38398744 .34588624 .4229889 .42085267 .4229889 .4998169 .4229889 .59877017 .35099793 .67578127 .23799134 .67578127 .114990238 .67578127 .050994874 .5937805 .02999878 .4768219L.050994874 .47183229C.09098816 .5697937 .12599182 .6017761 .19799805 .6017761 .2829895 .6017761 .33699037 .55178835 .33699037 .4608307 .33699037 .37586976 .30099488 .29989625 .20698548 .200943L.0289917 .011993408V0H.41999818L.47399903 .13696289Z"/>
<path id="font_2_17" d="M.37998963 .32505799C.37998963 .12722779 .33499146 .012313843 .25 .012313843 .1639862 .012313843 .11999512 .1262207 .11999512 .32904054 .11999512 .5318756 .16499329 .6497803 .24798584 .6497803 .33599855 .6497803 .37998963 .53286746 .37998963 .32505799M.47599793 .3300476C.47599793 .53486636 .3849945 .67578127 .2539978 .67578127 .09298706 .67578127 .023986817 .5128937 .023986817 .3360443 .023986817 .17218018 .07899475-.013671875 .25-.013671875 .41299439-.013671875 .47599793 .15818787 .47599793 .3300476Z"/>
<path id="font_2_15" d="M.18099976 .04324341C.18099976 .07325745 .15499878 .100250247 .12599182 .100250247 .09498596 .100250247 .069992069 .07525635 .069992069 .04425049 .069992069 .013244629 .09399414-.0107421879 .125-.0107421879 .15499878-.0107421879 .18099976 .014251709 .18099976 .04324341Z"/>
<path id="font_2_25" d="M.2709961 .27209474C.33898927 .22613526 .36898805 .18617249 .36898805 .1242218 .36898805 .059280397 .32398988 .014328003 .25898744 .014328003 .18299866 .014328003 .13198853 .06626892 .13198853 .15820313 .13198853 .22314453 .15299988 .26409913 .21199036 .3120575L.2709961 .27209474M.35499574 .53286746C.35499574 .470932 .32899476 .42897035 .26098634 .3889923 .17298889 .4409485 .13598633 .48690797 .13598633 .54885867 .13598633 .6108093 .1789856 .6477661 .24598694 .6477661 .31399537 .6477661 .35499574 .60180667 .35499574 .53286746M.44499208 .15519715C.44499208 .23512268 .41299439 .28907777 .2899933 .37101747 .3889923 .42396546 .42399598 .45793153 .42399598 .53286746 .42399598 .6108093 .35499574 .67578127 .2559967 .67578127 .14498902 .67578127 .06199646 .61579897 .06199646 .5198822 .06199646 .4549408 .08299255 .41697694 .18598938 .3320465 .07899475 .2571106 .055999757 .21813965 .055999757 .14920044 .055999757 .055282594 .1349945-.013671875 .24798584-.013671875 .36799623-.013671875 .44499208 .05229187 .44499208 .15519715Z"/>
<path id="font_2_26" d="M.3619995 .35516358C.3619995 .30223084 .2889862 .28027345 .24499512 .28027345 .16999817 .28027345 .12199402 .35516358 .12199402 .47399903 .12199402 .52793887 .13699341 .586853 .15699768 .6138153 .17399597 .63578799 .19999695 .6477661 .22999573 .6477661 .31698609 .6477661 .3619995 .56188967 .3619995 .39411927V.35516358M.05899048-.021728516C.18899536-.0037384034 .2539978 .020263672 .33898927 .09725952 .4189911 .17027283 .45899964 .27926637 .45899964 .39411927 .45899964 .47799684 .43499757 .5499115 .394989 .59983828 .35598756 .6477661 .3019867 .67578127 .23799134 .67578127 .11898804 .67578127 .02999878 .5748749 .02999878 .44004823 .02999878 .31822206 .101989749 .23725891 .20999146 .23725891 .2689972 .23725891 .31698609 .2522583 .3600006 .2942505 .31999208 .13026428 .20799256 .025268555 .055999757-.001739502L.05899048-.021728516Z"/>
<path id="font_2_18" d="M.3939972 0V.01499939C.31900025 .01499939 .29899598 .032989503 .29899598 .07597351V.67277529L.2899933 .67578127 .11099243 .5847931V.5708008L.13798523 .5807953C.1559906 .5877991 .17298889 .59280398 .18299866 .59280398 .20399475 .59280398 .21299744 .57780459 .21299744 .543808V.0949707C.21299744 .039978029 .19198609 .018997193 .117996219 .01499939V0H.3939972Z"/>
<clipPath id="clip_3">
<path transform="matrix(1,0,0,-1,48.991,163.58402)" d="M0 0H194.27433V161.39438H0Z"/>
</clipPath>
<path id="font_1_3193" d="M.6899872 .35546876C.69799807 .3364563 .70199587 .31443788 .70199587 .28442384 .70199587 .19836426 .625 .019256592 .5369873 .019256592 .48399354 .019256592 .46699525 .06628418 .46699525 .11631775 .5029907 .16835022 .522995 .21037293 .522995 .26541139 .522995 .3024292 .5059967 .32144166 .48298646 .32144166 .4189911 .32144166 .4139862 .22537232 .4139862 .17234802 .4139862 .15834046 .41600038 .13632202 .41799928 .12130737 .40499879 .075286868 .34899903 .019256592 .29100038 .019256592 .24598694 .019256592 .22299195 .0632782 .22299195 .109313968 .22299195 .20936585 .2599945 .2984314 .31900025 .35546876H.6899872M.8659973 .4284668H.23699951C.13999939 .4284668 .056991579 .3464508 .02999878 .2684021H.04598999C.07899475 .31744386 .1269989 .35546876 .18099976 .35546876H.23098755C.17399597 .30142213 .14099121 .23239136 .14099121 .14732361 .14099121 .07829285 .1769867-.0107421879 .2789917-.0107421879 .34498597-.0107421879 .3919983 .025253296 .43299867 .075286868 .43699647 .024246216 .47799684-.0107421879 .5369873-.0107421879 .6409912-.0107421879 .7819977 .10229492 .7819977 .27241517 .7819977 .306427 .776001 .33244325 .7639923 .35546876H.84399417L.8659973 .4284668Z"/>
<path id="font_1_2477" d="M.33799745 .3143463C.35299684 .31835938 .37298585 .31835938 .3889923 .31835938 .46699525 .31835938 .5309906 .28330995 .5309906 .21022034 .5309906 .08004761 .43499757 .037994386 .34098817 .037994386 .31498719 .037994386 .29499818 .039993287 .269989 .04699707L.33799745 .3143463M.4059906 .61125186C.4189911 .61325076 .43399049 .6142578 .44898988 .6142578 .5029907 .6142578 .56799319 .5932617 .56799319 .5162964 .56799319 .41932679 .5119934 .35334779 .3999939 .35334779 .3849945 .35334779 .36698915 .35534669 .34700013 .35934449L.4059906 .61125186M.19799805 .653244 .19299317 .6372528H.21199036C.2709961 .6372528 .2899933 .62124636 .2899933 .5952606 .2899933 .5892639 .2889862 .5792694 .28799439 .5742645L.16499329 .07904053C.15699768 .04499817 .13798523 .015991211 .06199646 .015991211H.041992189L.037994386 0H.3619995C.56900027 0 .651001 .094070438 .651001 .19319153 .651001 .27830506 .58399966 .32035829 .5239868 .3313446L.5209961 .33535768C.54100039 .3403473 .56999209 .34835816 .59498599 .36134339 .6429901 .38534547 .6859894 .43032838 .6859894 .5082855 .6859894 .6442566 .5339966 .653244 .44999696 .653244H.19799805Z"/>
<path id="font_4_52" d="M.06098938 .50987246C.101989749 .58380129 .147995 .61576846 .20999146 .61576846 .27598573 .61576846 .31799317 .58180239 .31799317 .51387026 .31799317 .45292665 .28599549 .40795899 .23699951 .37998963 .21699524 .36799623 .19099427 .3570099 .15299988 .34402467V.33003236C.20999146 .33003236 .23298645 .32704164 .25498963 .3200531 .32398988 .3000641 .35899354 .2511139 .35899354 .17518616 .35899354 .09025574 .30299378 .022323609 .22898865 .022323609 .20098877 .022323609 .17999268 .027313233 .14299011 .05329895 .114990238 .073272708 .09899902 .07926941 .08198547 .07926941 .05899048 .07926941 .040985109 .06428528 .040985109 .043304445 .040985109 .0073242189 .07998657-.013671875 .15299988-.013671875 .24198914-.013671875 .33699037 .015319824 .3849945 .07926941 .4139862 .11723328 .43099977 .16618347 .43099977 .21913147 .43099977 .27108766 .4149933 .31704713 .3869934 .34802247 .3659973 .36999513 .34799195 .38198854 .3039856 .40097047 .37098695 .44093324 .39698792 .4908905 .39698792 .5388489 .39698792 .6207733 .33399964 .67578127 .24099732 .67578127 .13699341 .67578127 .07398987 .6087799 .04499817 .51387026L.06098938 .50987246Z"/>
<path id="font_1_92" d="M.29899598-.15586853V-.13085938H.21598816C.18299866-.13085938 .1639862-.116867069 .1639862-.07687378V.58909609C.1639862 .6251068 .18199158 .6371002 .21598816 .6371002H.29899598V.6621094H.08799744V-.15586853H.29899598Z"/>
<path id="font_5_40" d="M.70899966 .35403443H.45298768V.3360443C.5319977 .3300476 .5419922 .322052 .5419922 .24412537V.087265018C.5419922 .05429077 .48599244 .026321412 .40899659 .026321412 .2519989 .026321412 .1459961 .13821411 .1459961 .3240509 .1459961 .42297364 .16999817 .5138855 .22299195 .5668335 .2659912 .61079409 .32099916 .6357727 .3899994 .6357727 .44599916 .6357727 .49798585 .6167908 .5359955 .5808258 .56599429 .55184939 .58200076 .5258789 .6069946 .4649353H.6299896L.621994 .67578127H.59999087C.59399417 .6567688 .57598879 .6427765 .5549927 .6427765 .54499819 .6427765 .5299988 .6457672 .5109863 .652771 .46598817 .6677704 .43199159 .67578127 .37799073 .67578127 .2809906 .67578127 .19898987 .6447754 .13899231 .58981326 .07199097 .5288696 .03199768 .43695069 .03199768 .32705689 .03199768 .22914124 .05899048 .15220642 .114990238 .09326172 .18099976 .02432251 .2829895-.013671875 .3849945-.013671875 .48799134-.013671875 .58399966 .0113220219 .6389923 .056289674V.25611878C.6389923 .32106019 .651001 .3310547 .70899966 .3360443V.35403443Z"/>
<path id="font_5_49" d="M.20199585 .58909609C.20199585 .6161041 .20799256 .6251068 .23699951 .6251068 .37298585 .6251068 .43299867 .58509829 .43299867 .4750824 .43299867 .38508607 .37298585 .32807923 .2630005 .32807923 .24299622 .32807923 .22499085 .32907105 .20199585 .3310852V.58909609M.015991211 .6621094V.6430969C.08999634 .6371002 .099990848 .6251068 .099990848 .5511017V.122024539C.099990848 .035995485 .09399414 .024993897 .015991211 .018997193V0H.29599V.018997193C.21499634 .022994996 .20199585 .035995485 .20199585 .11201477V.29107667C.22898865 .28907777 .24499512 .28808595 .2709961 .28808595 .37799073 .28808595 .4269867 .29707337 .4850006 .34907533 .5219879 .38208009 .5419922 .4270935 .5419922 .48008729 .5419922 .53009036 .5249939 .5710907 .49198915 .59910586 .44699098 .6371002 .375 .6621094 .2749939 .6621094H.015991211Z"/>
<path id="font_5_66" d="M.2869873 .12716675C.2869873 .09819031 .2809906 .084198 .2519989 .064208988 .23498535 .053222658 .21398926 .048233034 .19400025 .048233034 .15499878 .048233034 .125 .07220459 .125 .12516785 .125 .15615845 .1349945 .18013 .15899658 .20211792 .18399048 .22509766 .22499085 .24609375 .2869873 .2680664V.12716675M.44198609 .066207889C.4249878 .052230836 .4149933 .047225954 .39898683 .047225954 .3809967 .047225954 .36799623 .067214969 .36799623 .11317444V.30404664C.36799623 .3650055 .3639984 .38598634 .33999635 .41496278 .31599427 .44395448 .27799989 .45996095 .22200012 .45996095 .1769867 .45996095 .1349945 .44795228 .10699463 .42996217 .07199097 .40797425 .055999757 .37599183 .055999757 .35002137 .055999757 .32302857 .07798767 .30404664 .09899902 .30404664 .125 .30404664 .14498902 .32603456 .14498902 .34501649 .14498902 .3659973 .13899231 .3690033 .13899231 .3869934 .13899231 .41397096 .16899109 .43595887 .20899964 .43595887 .2539978 .43595887 .2869873 .40797425 .2869873 .34602357V.29205323C.17399597 .25009156 .13699341 .23109436 .10699463 .21110535 .067993167 .18513489 .036987306 .14616394 .036987306 .094192508 .036987306 .02822876 .07998657-.009765625 .14199829-.009765625 .18499756-.009765625 .23399353 .0032196046 .2869873 .06321716H.28799439C.29299928 .010223389 .31498719-.009765625 .35198976-.009765625 .38598634-.009765625 .4119873 .00022888184 .44198609 .038223268V.066207889Z"/>
<path id="font_4_1155" d="M.62098696 .22012329V.2861328H.06399536V.22012329H.62098696Z"/>
<path id="font_4_50" d="M.3939972 0V.01499939C.31900025 .01499939 .29899598 .032989503 .29899598 .07597351V.67277529L.2899933 .67578127 .11099243 .5847931V.5708008L.13798523 .5807953C.1559906 .5877991 .17298889 .59280398 .18299866 .59280398 .20399475 .59280398 .21299744 .57780459 .21299744 .543808V.0949707C.21299744 .039978029 .19198609 .018997193 .117996219 .01499939V0H.3939972Z"/>
<path id="font_1_94" d="M.24499512-.15586853V.6621094H.033996583V.6371002H.117996219C.1559906 .6371002 .16899109 .618103 .16899109 .58309939V-.084869388C.16899109-.115875247 .15699768-.13085938 .12199402-.13085938H.033996583V-.15586853H.24499512Z"/>
<path id="font_5_38" d="M.5970001 .16905213H.56900027C.5239868 .06300354 .48098756 .036987306 .33799745 .036987306H.3019867C.22799683 .036987306 .20098877 .041992189 .20098877 .08401489V.32714845H.35198976C.43798829 .32714845 .45298768 .3141327 .46499635 .23008728H.48799134V.4641266H.46499635C.45298768 .38513185 .43798829 .36813355 .35198976 .36813355H.20098877V.58810427C.20098877 .6201019 .20799256 .62409976 .23599243 .62409976H.36698915C.48298646 .62409976 .5059967 .60910037 .5209961 .51911929H.54599L.5419922 .6621094H.011993408V.6430969C.08699036 .6390991 .09899902 .62409976 .09899902 .55010989V.11402893C.09899902 .036987306 .08898926 .023986817 .011993408 .018997193V0H.5509949L.5970001 .16905213Z"/>
<path id="font_5_53" d="M.59298709 .4920807 .58599856 .6621094H.023986817L.016998291 .4920807H.040985109C.06098938 .60209658 .08799744 .6201019 .19400025 .6201019H.2539978V.12301636C.2539978 .034988405 .24299622 .023986817 .1599884 .018997193V0H.45199586V.018997193C.36999513 .022994996 .35598756 .034988405 .35598756 .11100769V.6201019H.4149933C.5209961 .6201019 .5469971 .60209658 .56900027 .4920807H.59298709Z"/>
<path id="font_5_42" d="M.31498719 0V.018997193C.23298645 .021987915 .21699524 .037002565 .21699524 .11201477V.5510864C.21699524 .6271057 .23098755 .6390991 .31498719 .6430969V.6621094H.017990113V.6430969C.102996829 .6381073 .114990238 .63009646 .114990238 .5510864V.11201477C.114990238 .033996583 .101989749 .021987915 .017990113 .018997193V0H.31498719Z"/>
<path id="font_5_48" d="M.57398989 .33703614C.57398989 .21714783 .54599 .12322998 .4909973 .07028198 .45599366 .03730774 .4119873 .022323609 .3619995 .022323609 .31599427 .022323609 .27198792 .03630066 .23799134 .067276 .1769867 .12322998 .147995 .21315003 .147995 .3320465 .147995 .42695619 .17399597 .52388 .21699524 .5728302 .2559967 .6177826 .30599977 .6397705 .3600006 .6397705 .40699769 .6397705 .44699098 .6227875 .48298646 .59280398 .5399933 .54486086 .57398989 .450943 .57398989 .33703614M.6879883 .33103944C.6879883 .5288696 .5569916 .67578127 .36099244 .67578127 .1659851 .67578127 .033996583 .53686526 .033996583 .3340454 .033996583 .1262207 .16699219-.013671875 .36099244-.013671875 .5529938-.013671875 .6879883 .12522888 .6879883 .33103944Z"/>
<path id="font_5_83" d="M.1599884 .45794679 .15499878 .45996095C.101989749 .43894959 .06599426 .42495729 .0069885256 .40596009V.3899536C.020996094 .3929596 .02999878 .39396668 .041992189 .39396668 .066986087 .39396668 .07598877 .3779602 .07598877 .33396913V.083984378C.07598877 .033996583 .068984989 .026992798 .004989624 .01499939V0H.24499512V.01499939C.1769867 .017990113 .1599884 .032989503 .1599884 .08998108V.31497193C.1599884 .3469696 .20199585 .3969574 .22999573 .3969574 .23599243 .3969574 .24499512 .3919525 .2559967 .381958 .27198792 .36695863 .2829895 .361969 .29599 .361969 .31999208 .361969 .33499146 .3789673 .33499146 .4069519 .33499146 .43995667 .31399537 .45996095 .27999879 .45996095 .23799134 .45996095 .20999146 .43795777 .1599884 .3659668V.45794679Z"/>
</defs>
<path transform="matrix(1,0,0,-1,48.991,163.58402)" stroke-width=".3985" stroke-linecap="butt" stroke-miterlimit="10" stroke-linejoin="miter" fill="none" stroke="#b0b0b0" d="M8.83064 0V161.39438M52.98177 0V161.39438M97.13625 0V161.39438M141.28961 0V161.39438M185.44297 0V161.39438"/>
<path transform="matrix(1,0,0,-1,48.991,163.58402)" stroke-width=".3985" stroke-linecap="butt" stroke-miterlimit="10" stroke-linejoin="miter" fill="none" stroke="#b0b0b0" d="M0 11.95514H194.27433M0 71.73083H194.27433M0 131.50653H194.27433"/>
<path transform="matrix(1,0,0,-1,48.991,163.58402)" stroke-width=".19925" stroke-linecap="butt" stroke-miterlimit="10" stroke-linejoin="miter" fill="none" stroke="#000000" d="M8.83064-4.25195V0M52.98177-4.25195V0M97.13625-4.25195V0M141.28961-4.25195V0M185.44297-4.25195V0"/>
<path transform="matrix(1,0,0,-1,48.991,163.58402)" stroke-width=".19925" stroke-linecap="butt" stroke-miterlimit="10" stroke-linejoin="miter" fill="none" stroke="#000000" d="M-4.25243 11.95514H0M-4.25243 71.73083H0M-4.25243 131.50653H0"/>
<path transform="matrix(1,0,0,-1,48.991,163.58402)" stroke-width=".3985" stroke-linecap="butt" stroke-miterlimit="10" stroke-linejoin="miter" fill="none" stroke="#000000" d="M0 0V161.39438H194.27433V0H0Z"/>
<use data-text="0" xlink:href="#font_1_49" transform="matrix(9.96264,0,0,-9.96264,55.331,178.09102)"/>
<use data-text="&#x1d70b;" xlink:href="#font_1_3177" transform="matrix(9.96264,0,0,-9.96264,95.068,178.09102)"/>
<use data-text="/" xlink:href="#font_1_48" transform="matrix(9.96264,0,0,-9.96264,101.12528,178.09102)"/>
<use data-text="8" xlink:href="#font_1_57" transform="matrix(9.96264,0,0,-9.96264,103.8949,178.09102)"/>
<use data-text="&#x1d70b;" xlink:href="#font_1_3177" transform="matrix(9.96264,0,0,-9.96264,139.222,178.09102)"/>
<use data-text="/" xlink:href="#font_1_48" transform="matrix(9.96264,0,0,-9.96264,145.2793,178.09102)"/>
<use data-text="4" xlink:href="#font_1_53" transform="matrix(9.96264,0,0,-9.96264,148.0489,178.09102)"/>
<use data-text="3" xlink:href="#font_1_52" transform="matrix(9.96264,0,0,-9.96264,180.884,178.09102)"/>
<use data-text="&#x1d70b;" xlink:href="#font_1_3177" transform="matrix(9.96264,0,0,-9.96264,185.86533,178.09102)"/>
<use data-text="/" xlink:href="#font_1_48" transform="matrix(9.96264,0,0,-9.96264,191.92263,178.09102)"/>
<use data-text="8" xlink:href="#font_1_57" transform="matrix(9.96264,0,0,-9.96264,194.69223,178.09102)"/>
<use data-text="&#x1d70b;" xlink:href="#font_1_3177" transform="matrix(9.96264,0,0,-9.96264,227.527,178.09102)"/>
<use data-text="/" xlink:href="#font_1_48" transform="matrix(9.96264,0,0,-9.96264,233.58429,178.09102)"/>
<use data-text="2" xlink:href="#font_1_51" transform="matrix(9.96264,0,0,-9.96264,236.3539,178.09102)"/>
<use data-text="0" xlink:href="#font_2_17" transform="matrix(9.96264,0,0,-9.96264,23.784,154.92702)"/>
<use data-text="." xlink:href="#font_2_15" transform="matrix(9.96264,0,0,-9.96264,28.76532,154.92702)"/>
<use data-text="0" xlink:href="#font_2_17" transform="matrix(9.96264,0,0,-9.96264,31.25598,154.92702)"/>
<use data-text="8" xlink:href="#font_2_25" transform="matrix(9.96264,0,0,-9.96264,36.2373,154.92702)"/>
<use data-text="0" xlink:href="#font_2_17" transform="matrix(9.96264,0,0,-9.96264,23.784,95.11202)"/>
<use data-text="." xlink:href="#font_2_15" transform="matrix(9.96264,0,0,-9.96264,28.76532,95.11202)"/>
<use data-text="0" xlink:href="#font_2_17" transform="matrix(9.96264,0,0,-9.96264,31.25598,95.11202)"/>
<use data-text="9" xlink:href="#font_2_26" transform="matrix(9.96264,0,0,-9.96264,36.2373,95.11202)"/>
<use data-text="0" xlink:href="#font_2_17" transform="matrix(9.96264,0,0,-9.96264,28.765002,35.377016)"/>
<use data-text="." xlink:href="#font_2_15" transform="matrix(9.96264,0,0,-9.96264,33.746324,35.377016)"/>
<use data-text="1" xlink:href="#font_2_18" transform="matrix(9.96264,0,0,-9.96264,36.236986,35.377016)"/>
<g clip-path="url(#clip_3)">
<path transform="matrix(1,0,0,-1,48.991,163.58402)" stroke-width=".59776" stroke-linecap="butt" stroke-miterlimit="10" stroke-linejoin="miter" fill="none" stroke="#0000ff" d="M8.83069 14.08289 12.36298 14.19052 15.89525 14.50941 19.4275 15.0399 22.9598 15.78009 26.49207 16.72748 30.02434 17.87903 33.55663 19.23103 37.0889 20.7792 40.62117 22.51886 44.15344 24.4448 47.68573 26.55136 51.218 28.83264 54.75027 31.28238 58.28255 33.89409 61.81482 36.66101 65.34709 39.57613 68.87938 42.63226 72.41165 45.8221 75.94392 49.13902 79.4762 52.57153 83.00848 56.11432 86.54076 59.75931 90.07303 63.49762 93.6053 67.3181 97.13757 71.21167 100.66985 75.1678 104.20213 79.17528 107.7344 83.22203 111.26668 87.29515 114.79895 91.3807 118.33124 95.4638 121.86351 99.52834 125.39578 103.55707 128.92806 107.53156 132.46033 111.43216 135.9926 115.23813 139.52489 118.92757 143.05716 122.47783 146.58943 125.86511 150.1217 129.06526 153.65399 132.05467 157.18627 134.80852 160.71854 137.30416 164.25083 139.51865 167.78308 141.43164 171.31536 143.02439 174.84764 144.2808 178.37992 145.18796 181.91219 145.73613 185.44446 145.9195"/>
<path transform="matrix(1,0,0,-1,48.991,163.58402)" stroke-width=".59776" stroke-linecap="butt" stroke-miterlimit="10" stroke-linejoin="miter" fill="none" stroke="#ff0000" d="M8.83069 17.86531H12.36298 15.89525 19.4275 22.9598 26.49207 30.02434 33.55663 37.0889 40.62117 44.15344 47.68573 51.218 54.75027 58.28255 61.81482 65.34709 68.87938 72.41165 75.94392 79.4762 83.00848 86.54076 90.07303 93.6053 97.13757 100.66985 104.20213 107.7344 111.26668 114.79895 118.33124 121.86351 125.39578 128.92806 132.46033 135.9926 139.52489 143.05716 146.58943 150.1217 153.65399 157.18627 160.71854 164.25083 167.78308 171.31536 174.84764 178.37992 181.91219 185.44446"/>
<path transform="matrix(1,0,0,-1,48.991,163.58402)" stroke-width=".59776" stroke-linecap="butt" stroke-miterlimit="10" stroke-linejoin="miter" fill="none" stroke="#00bfbf" d="M8.83069 14.08391H12.36298 15.89525 19.4275 22.9598 26.49207 30.02434 33.55663 37.0889 40.62117 44.15344 47.68573 51.218 54.75027 58.28255 61.81482 65.34709 68.87938 72.41165 75.94392 79.4762 83.00848 86.54076 90.07303 93.6053 97.13757 100.66985 104.20213 107.7344 111.26668 114.79895 118.33124 121.86351 125.39578 128.92806 132.46033 135.9926 139.52489 143.05716 146.58943 150.1217 153.65399 157.18627 160.71854 164.25083 167.78308 171.31536 174.84764 178.37992 181.91219 185.44446"/>
<path transform="matrix(1,0,0,-1,48.991,163.58402)" stroke-width=".59776" stroke-linecap="butt" stroke-miterlimit="10" stroke-linejoin="miter" fill="none" stroke="#bf00bf" d="M8.83069 26.63606 12.36298 26.73616 15.89525 27.03622 19.4275 27.5355 22.9598 28.23276 26.49207 29.12625 30.02434 30.21378 33.55663 31.49254 37.0889 32.95927 40.62117 34.6102 44.15344 36.44096 47.68573 38.44666 51.218 40.62186 54.75027 42.96051 58.28255 45.45602 61.81482 48.10118 65.34709 50.88818 68.87938 53.80864 72.41165 56.8535 75.94392 60.01314 79.4762 63.27728 83.00848 66.63509 86.54076 70.07506 90.07303 73.58516 93.6053 77.15276 97.13757 80.76466 100.66985 84.40723 104.20213 88.06628 107.7344 91.7272 111.26668 95.37505 114.79895 98.99452 118.33124 102.57005 121.86351 106.08595 125.39578 109.52638 128.92806 112.87553 132.46033 116.11765 135.9926 119.23718 139.52489 122.21889 143.05716 125.04791 146.58943 127.7099 150.1217 130.19113 153.65399 132.47864 157.18627 134.56027 160.71854 136.42487 164.25083 138.0623 167.78308 139.46356 171.31536 140.62091 174.84764 141.52788 178.37992 142.17938 181.91219 142.57178 185.44446 142.70282"/>
<path transform="matrix(1,0,0,-1,48.991,163.58402)" stroke-width=".59776" stroke-linecap="butt" stroke-miterlimit="10" stroke-linejoin="miter" fill="none" stroke="#008000" d="M8.83069 14.08391 12.36298 14.18687 15.89525 14.49669 19.4275 15.01604 22.9598 15.7492 26.49207 16.70175 30.02434 17.88004 33.55663 19.29083 37.0889 20.94052 40.62117 22.83458 44.15344 24.97682 47.68573 27.36868 51.218 30.00856 54.75027 32.89128 58.28255 36.00764 61.81482 39.34412 65.34709 42.88287 68.87938 46.60194 72.41165 50.47566 75.94392 54.47543 79.4762 58.57057 83.00848 62.72946 86.54076 66.92079 90.07303 71.11464 93.6053 75.28387 97.13757 79.40508 100.66985 83.45946 104.20213 87.4335 107.7344 91.3192 111.26668 95.11409 114.79895 98.82074 118.33124 102.4461 121.86351 106.0004 125.39578 109.49554 128.92806 112.94377 132.46033 116.3556 135.9926 119.73814 139.52489 123.09328 143.05716 126.41615 146.58943 129.69396 150.1217 132.90535 153.65399 136.02034 157.18627 139.0008 160.71854 141.80196 164.25083 144.37424 167.78308 146.66579 171.31536 148.62548 174.84764 150.2059 178.37992 151.36643 181.91219 152.07584 185.44446 152.31455"/>
</g>
<path transform="matrix(1,0,0,-1,48.991,163.58402)" stroke-width=".59776" stroke-linecap="butt" stroke-miterlimit="10" stroke-linejoin="miter" fill="none" stroke="#0000ff" d="M5.84186 14.08289H11.81952M8.83069 17.07172V11.09406"/>
<path transform="matrix(1,0,0,-1,48.991,163.58402)" stroke-width=".59776" stroke-linecap="butt" stroke-miterlimit="10" stroke-linejoin="miter" fill="none" stroke="#0000ff" d="M94.14874 71.21167H100.1264M97.13757 74.2005V68.22284"/>
<path transform="matrix(1,0,0,-1,48.991,163.58402)" stroke-width=".59776" stroke-linecap="butt" stroke-miterlimit="10" stroke-linejoin="miter" fill="none" stroke="#0000ff" d="M182.45563 145.9195H188.43329M185.44446 148.90833V142.93067"/>
<path transform="matrix(1,0,0,-1,48.991,163.58402)" stroke-width=".59776" stroke-linecap="butt" stroke-miterlimit="10" stroke-linejoin="miter" fill="none" stroke="#0000ff" d=""/>
<path transform="matrix(1,0,0,-1,48.991,163.58402)" d="M11.81952 17.86531C11.81952 19.51602 10.48138 20.85414 8.83069 20.85414 7.17998 20.85414 5.84186 19.51602 5.84186 17.86531 5.84186 16.2146 7.17998 14.87648 8.83069 14.87648 10.48138 14.87648 11.81952 16.2146 11.81952 17.86531ZM8.83069 17.86531" fill="#ff0000"/>
<path transform="matrix(1,0,0,-1,48.991,163.58402)" stroke-width=".59776" stroke-linecap="butt" stroke-miterlimit="10" stroke-linejoin="miter" fill="none" stroke="#ff0000" d="M11.81952 17.86531C11.81952 19.51602 10.48138 20.85414 8.83069 20.85414 7.17998 20.85414 5.84186 19.51602 5.84186 17.86531 5.84186 16.2146 7.17998 14.87648 8.83069 14.87648 10.48138 14.87648 11.81952 16.2146 11.81952 17.86531ZM8.83069 17.86531"/>
<path transform="matrix(1,0,0,-1,48.991,163.58402)" d="M100.1264 17.86531C100.1264 19.51602 98.78828 20.85414 97.13757 20.85414 95.48688 20.85414 94.14874 19.51602 94.14874 17.86531 94.14874 16.2146 95.48688 14.87648 97.13757 14.87648 98.78828 14.87648 100.1264 16.2146 100.1264 17.86531ZM97.13757 17.86531" fill="#ff0000"/>
<path transform="matrix(1,0,0,-1,48.991,163.58402)" stroke-width=".59776" stroke-linecap="butt" stroke-miterlimit="10" stroke-linejoin="miter" fill="none" stroke="#ff0000" d="M100.1264 17.86531C100.1264 19.51602 98.78828 20.85414 97.13757 20.85414 95.48688 20.85414 94.14874 19.51602 94.14874 17.86531 94.14874 16.2146 95.48688 14.87648 97.13757 14.87648 98.78828 14.87648 100.1264 16.2146 100.1264 17.86531ZM97.13757 17.86531"/>
<path transform="matrix(1,0,0,-1,48.991,163.58402)" d="M188.43329 17.86531C188.43329 19.51602 187.09517 20.85414 185.44446 20.85414 183.79375 20.85414 182.45563 19.51602 182.45563 17.86531 182.45563 16.2146 183.79375 14.87648 185.44446 14.87648 187.09517 14.87648 188.43329 16.2146 188.43329 17.86531ZM185.44446 17.86531" fill="#ff0000"/>
<path transform="matrix(1,0,0,-1,48.991,163.58402)" stroke-width=".59776" stroke-linecap="butt" stroke-miterlimit="10" stroke-linejoin="miter" fill="none" stroke="#ff0000" d="M188.43329 17.86531C188.43329 19.51602 187.09517 20.85414 185.44446 20.85414 183.79375 20.85414 182.45563 19.51602 182.45563 17.86531 182.45563 16.2146 183.79375 14.87648 185.44446 14.87648 187.09517 14.87648 188.43329 16.2146 188.43329 17.86531ZM185.44446 17.86531"/>
<path transform="matrix(1,0,0,-1,48.991,163.58402)" stroke-width=".59776" stroke-linecap="butt" stroke-miterlimit="10" stroke-linejoin="miter" fill="none" stroke="#ff0000" d=""/>
<path transform="matrix(1,0,0,-1,48.991,163.58402)" stroke-width=".59776" stroke-linecap="butt" stroke-miterlimit="10" stroke-linejoin="miter" fill="none" stroke="#00bfbf" d="M8.83069 11.09508V17.07274M11.4191 15.57832 6.24228 12.5895M11.4191 12.5895 6.24228 15.57832"/>
<path transform="matrix(1,0,0,-1,48.991,163.58402)" stroke-width=".59776" stroke-linecap="butt" stroke-miterlimit="10" stroke-linejoin="miter" fill="none" stroke="#00bfbf" d="M97.13757 11.09508V17.07274M99.72598 15.57832 94.54916 12.5895M99.72598 12.5895 94.54916 15.57832"/>
<path transform="matrix(1,0,0,-1,48.991,163.58402)" stroke-width=".59776" stroke-linecap="butt" stroke-miterlimit="10" stroke-linejoin="miter" fill="none" stroke="#00bfbf" d="M185.44446 11.09508V17.07274M188.03287 15.57832 182.85605 12.5895M188.03287 12.5895 182.85605 15.57832"/>
<path transform="matrix(1,0,0,-1,48.991,163.58402)" stroke-width=".59776" stroke-linecap="butt" stroke-miterlimit="10" stroke-linejoin="miter" fill="none" stroke="#00bfbf" d=""/>
<path transform="matrix(1,0,0,-1,48.991,163.58402)" stroke-width=".59776" stroke-linecap="butt" stroke-miterlimit="10" stroke-linejoin="miter" fill="none" stroke="#bf00bf" d="M6.71725 24.52264 10.9441 28.74948M6.71725 28.74948 10.9441 24.52264"/>
<path transform="matrix(1,0,0,-1,48.991,163.58402)" stroke-width=".59776" stroke-linecap="butt" stroke-miterlimit="10" stroke-linejoin="miter" fill="none" stroke="#bf00bf" d="M95.02415 78.65125 99.251 82.8781M95.02415 82.8781 99.251 78.65125"/>
<path transform="matrix(1,0,0,-1,48.991,163.58402)" stroke-width=".59776" stroke-linecap="butt" stroke-miterlimit="10" stroke-linejoin="miter" fill="none" stroke="#bf00bf" d="M183.33104 140.58939 187.55788 144.81624M183.33104 144.81624 187.55788 140.58939"/>
<path transform="matrix(1,0,0,-1,48.991,163.58402)" stroke-width=".59776" stroke-linecap="butt" stroke-miterlimit="10" stroke-linejoin="miter" fill="none" stroke="#bf00bf" d=""/>
<path transform="matrix(1,0,0,-1,48.991,163.58402)" d="M8.83069 17.07274 11.07231 14.08391 8.83069 11.09508 6.58907 14.08391Z" fill="#008000"/>
<path transform="matrix(1,0,0,-1,48.991,163.58402)" stroke-width=".59776" stroke-linecap="butt" stroke-miterlimit="10" stroke-linejoin="miter" fill="none" stroke="#008000" d="M8.83069 17.07274 11.07231 14.08391 8.83069 11.09508 6.58907 14.08391Z"/>
<path transform="matrix(1,0,0,-1,48.991,163.58402)" d="M97.13757 82.3939 99.3792 79.40508 97.13757 76.41624 94.89595 79.40508Z" fill="#008000"/>
<path transform="matrix(1,0,0,-1,48.991,163.58402)" stroke-width=".59776" stroke-linecap="butt" stroke-miterlimit="10" stroke-linejoin="miter" fill="none" stroke="#008000" d="M97.13757 82.3939 99.3792 79.40508 97.13757 76.41624 94.89595 79.40508Z"/>
<path transform="matrix(1,0,0,-1,48.991,163.58402)" d="M185.44446 155.30338 187.68608 152.31455 185.44446 149.32572 183.20284 152.31455Z" fill="#008000"/>
<path transform="matrix(1,0,0,-1,48.991,163.58402)" stroke-width=".59776" stroke-linecap="butt" stroke-miterlimit="10" stroke-linejoin="miter" fill="none" stroke="#008000" d="M185.44446 155.30338 187.68608 152.31455 185.44446 149.32572 183.20284 152.31455Z"/>
<path transform="matrix(1,0,0,-1,48.991,163.58402)" stroke-width=".59776" stroke-linecap="butt" stroke-miterlimit="10" stroke-linejoin="miter" fill="none" stroke="#008000" d=""/>
<use data-text="&#x1d71b;" xlink:href="#font_1_3193" transform="matrix(9.96264,0,0,-9.96264,141.564,189.33402)"/>
<use data-text="&#x1d435;" xlink:href="#font_1_2477" transform="matrix(0,-9.96264,-9.96264,-0,14.349007,108.16101)"/>
<use data-text="3" xlink:href="#font_4_52" transform="matrix(0,-7.47198,-7.47198,-0,16.840004,101.227008)"/>
<use data-text="3" xlink:href="#font_4_52" transform="matrix(0,-7.47198,-7.47198,-0,16.840004,97.49102)"/>
<use data-text="[" xlink:href="#font_1_92" transform="matrix(0,-9.96264,-9.96264,-0,14.349007,90.57901)"/>
<use data-text="G" xlink:href="#font_5_40" transform="matrix(0,-9.96264,-9.96264,-0,14.349007,87.26101)"/>
<use data-text="P" xlink:href="#font_5_49" transform="matrix(0,-9.96264,-9.96264,-0,14.349007,80.06798)"/>
<use data-text="a" xlink:href="#font_5_66" transform="matrix(0,-9.96264,-9.96264,-0,14.349007,74.618419)"/>
<use data-text="&#x2212;" xlink:href="#font_4_1155" transform="matrix(0,-7.47198,-7.47198,-0,10.364006,70.19501)"/>
<use data-text="1" xlink:href="#font_4_50" transform="matrix(0,-7.47198,-7.47198,-0,10.364006,65.076709)"/>
<use data-text="]" xlink:href="#font_1_94" transform="matrix(0,-9.96264,-9.96264,-0,14.349007,60.93301)"/>
<path transform="matrix(1,0,0,-1,48.991,163.58402)" d="M6.02722 82.45499H58.567689V156.35347H6.02722Z" fill="#ffffff" fill-opacity=".8"/>
<path transform="matrix(1,0,0,-1,48.991,163.58402)" stroke-width=".3985" stroke-linecap="butt" stroke-miterlimit="10" stroke-linejoin="miter" fill="none" stroke="#cccccc" d="M6.02722 82.45499H58.567689V156.35347H6.02722Z"/>
<path transform="matrix(1,0,0,-1,58.306,15.218014)" stroke-width=".59776" stroke-linecap="butt" stroke-miterlimit="10" stroke-linejoin="miter" fill="none" stroke="#0000ff" d="M0 0H8.50412 17.00826"/>
<path transform="matrix(1,0,0,-1,58.306,15.218014)" stroke-width=".59776" stroke-linecap="butt" stroke-miterlimit="10" stroke-linejoin="miter" fill="none" stroke="#0000ff" d="M5.51529 0H11.49295M8.50412 2.98883V-2.98883"/>
<use data-text="&#x1d435;" xlink:href="#font_1_2477" transform="matrix(9.96264,0,0,-9.96264,77.605,17.723023)"/>
<use data-text="3" xlink:href="#font_4_52" transform="matrix(7.47198,0,0,-7.47198,84.539,20.21402)"/>
<use data-text="3" xlink:href="#font_4_52" transform="matrix(7.47198,0,0,-7.47198,88.274997,20.21402)"/>
<path transform="matrix(1,0,0,-1,58.306,28.416014)" stroke-width=".59776" stroke-linecap="butt" stroke-miterlimit="10" stroke-linejoin="miter" fill="none" stroke="#ff0000" d="M0 0H8.50412 17.00826"/>
<path transform="matrix(1,0,0,-1,58.306,28.416014)" d="M11.49295 0C11.49295 1.6507 10.15482 2.98883 8.50412 2.98883 6.85341 2.98883 5.51529 1.6507 5.51529 0 5.51529-1.6507 6.85341-2.98883 8.50412-2.98883 10.15482-2.98883 11.49295-1.6507 11.49295 0ZM8.50412 0" fill="#ff0000" fill-opacity=".8"/>
<path transform="matrix(1,0,0,-1,58.306,28.416014)" stroke-width=".59776" stroke-linecap="butt" stroke-miterlimit="10" stroke-linejoin="miter" fill="none" stroke="#ff0000" d="M11.49295 0C11.49295 1.6507 10.15482 2.98883 8.50412 2.98883 6.85341 2.98883 5.51529 1.6507 5.51529 0 5.51529-1.6507 6.85341-2.98883 8.50412-2.98883 10.15482-2.98883 11.49295-1.6507 11.49295 0ZM8.50412 0"/>
<use data-text="&#x1d435;" xlink:href="#font_1_2477" transform="matrix(9.96264,0,0,-9.96264,77.605,32.134019)"/>
<use data-text="E" xlink:href="#font_5_38" transform="matrix(7.47198,0,0,-7.47198,84.938,28.149018)"/>
<use data-text="T" xlink:href="#font_5_53" transform="matrix(7.47198,0,0,-7.47198,89.50338,28.149018)"/>
<use data-text="I" xlink:href="#font_5_42" transform="matrix(7.47198,0,0,-7.47198,94.068759,28.149018)"/>
<use data-text="3" xlink:href="#font_4_52" transform="matrix(7.47198,0,0,-7.47198,84.539,35.830018)"/>
<use data-text="3" xlink:href="#font_4_52" transform="matrix(7.47198,0,0,-7.47198,88.274997,35.830018)"/>
<path transform="matrix(1,0,0,-1,58.306,42.827016)" stroke-width=".59776" stroke-linecap="butt" stroke-miterlimit="10" stroke-linejoin="miter" fill="none" stroke="#00bfbf" d="M0 0H8.50412 17.00826"/>
<path transform="matrix(1,0,0,-1,58.306,42.827016)" stroke-width=".59776" stroke-linecap="butt" stroke-miterlimit="10" stroke-linejoin="miter" fill="none" stroke="#00bfbf" d="M8.50412-2.98883V2.98883M11.09253 1.49442 5.91571-1.49442M11.09253-1.49442 5.91571 1.49442"/>
<use data-text="&#x1d435;" xlink:href="#font_1_2477" transform="matrix(9.96264,0,0,-9.96264,77.605,46.545015)"/>
<use data-text="T" xlink:href="#font_5_53" transform="matrix(7.47198,0,0,-7.47198,84.938,42.560014)"/>
<use data-text="I" xlink:href="#font_5_42" transform="matrix(7.47198,0,0,-7.47198,89.50338,42.560014)"/>
<use data-text="3" xlink:href="#font_4_52" transform="matrix(7.47198,0,0,-7.47198,84.539,50.241014)"/>
<use data-text="3" xlink:href="#font_4_52" transform="matrix(7.47198,0,0,-7.47198,88.274997,50.241014)"/>
<path transform="matrix(1,0,0,-1,58.306,57.342016)" stroke-width=".59776" stroke-linecap="butt" stroke-miterlimit="10" stroke-linejoin="miter" fill="none" stroke="#bf00bf" d="M0 0H8.50412 17.00826"/>
<path transform="matrix(1,0,0,-1,58.306,57.342016)" stroke-width=".59776" stroke-linecap="butt" stroke-miterlimit="10" stroke-linejoin="miter" fill="none" stroke="#bf00bf" d="M6.39069-2.11342 10.61754 2.11342M6.39069 2.11342 10.61754-2.11342"/>
<use data-text="&#x1d435;" xlink:href="#font_1_2477" transform="matrix(9.96264,0,0,-9.96264,77.605,61.165025)"/>
<use data-text="E" xlink:href="#font_5_38" transform="matrix(7.47198,0,0,-7.47198,84.938,57.07602)"/>
<use data-text="O" xlink:href="#font_5_48" transform="matrix(7.47198,0,0,-7.47198,89.50338,57.07602)"/>
<use data-text="3" xlink:href="#font_4_52" transform="matrix(7.47198,0,0,-7.47198,84.539,64.86102)"/>
<use data-text="3" xlink:href="#font_4_52" transform="matrix(7.47198,0,0,-7.47198,88.274997,64.86102)"/>
<path transform="matrix(1,0,0,-1,58.306,71.89501)" stroke-width=".59776" stroke-linecap="butt" stroke-miterlimit="10" stroke-linejoin="miter" fill="none" stroke="#008000" d="M0 0H8.50412 17.00826"/>
<path transform="matrix(1,0,0,-1,58.306,71.89501)" d="M8.50412 2.98883 10.74574 0 8.50412-2.98883 6.2625 0Z" fill="#008000" fill-opacity=".8"/>
<path transform="matrix(1,0,0,-1,58.306,71.89501)" stroke-width=".59776" stroke-linecap="butt" stroke-miterlimit="10" stroke-linejoin="miter" fill="none" stroke="#008000" d="M8.50412 2.98883 10.74574 0 8.50412-2.98883 6.2625 0Z"/>
<use data-text="&#x1d435;" xlink:href="#font_1_2477" transform="matrix(9.96264,0,0,-9.96264,77.605,75.65102)"/>
<use data-text="T" xlink:href="#font_5_53" transform="matrix(7.47198,0,0,-7.47198,84.938,71.59102)"/>
<use data-text="r" xlink:href="#font_5_83" transform="matrix(7.47198,0,0,-7.47198,89.32405,71.59102)"/>
<use data-text="a" xlink:href="#font_5_66" transform="matrix(7.47198,0,0,-7.47198,91.79727,71.59102)"/>
<use data-text="T" xlink:href="#font_5_53" transform="matrix(7.47198,0,0,-7.47198,95.11483,71.59102)"/>
<use data-text="I" xlink:href="#font_5_42" transform="matrix(7.47198,0,0,-7.47198,99.68021,71.59102)"/>
<use data-text="3" xlink:href="#font_4_52" transform="matrix(7.47198,0,0,-7.47198,84.539,79.347019)"/>
<use data-text="3" xlink:href="#font_4_52" transform="matrix(7.47198,0,0,-7.47198,88.274997,79.347019)"/>
</svg>
