<svg xmlns="http://www.w3.org/2000/svg" xmlns:xlink="http://www.w3.org/1999/xlink" xmlns:inkscape="http://www.inkscape.org/namespaces/inkscape" version="1.1" width="244.405" height="195.397" viewBox="0 0 244.405 195.397">
<defs>
<path id="font_1_49" d="M.37998963 .32505799C.37998963 .12722779 .33499146 .012313843 .25 .012313843 .1639862 .012313843 .11999512 .1262207 .11999512 .32904054 .11999512 .5318756 .16499329 .6497803 .24798584 .6497803 .33599855 .6497803 .37998963 .53286746 .37998963 .32505799M.47599793 .3300476C.47599793 .53486636 .3849945 .67578127 .2539978 .67578127 .09298706 .67578127 .023986817 .5128937 .023986817 .3360443 .023986817 .17218018 .07899475-.013671875 .25-.013671875 .41299439-.013671875 .47599793 .15818787 .47599793 .3300476Z"/>
<path id="font_1_3177" d="M.56799319 .4284668H.28599549C.18199158 .4284668 .117996219 .38246156 .07398987 .3024292H.08999634C.13398743 .35546876 .17098999 .35546876 .22898865 .35546876L.13999939 .14936829C.1269989 .12034607 .10899353 .09133911 .06599426 .079330448 .039993287 .07232666 .034988405 .046310426 .034988405 .031311037 .034988405 .007293701 .05999756-.0126953129 .085998538-.0126953129 .09799194-.0126953129 .11299133-.010696411 .12399292-.0017089844 .20799256 .061325075 .23899842 .23339844 .2849884 .35546876H.3789978C.35398866 .27142335 .32398988 .2013855 .30099488 .13035584 .29499818 .111343387 .2919922 .09133911 .2919922 .06832886 .2919922 .029159546 .30899049-.0068359377 .34899903-.0068359377 .4189911-.0068359377 .47200013 .06315613 .49299623 .13522339H.47698976C.45298768 .08117676 .4249878 .06915283 .4039917 .06915283 .38198854 .06915283 .3659973 .094177249 .3659973 .11720276 .3659973 .1842804 .4189911 .31240846 .43299867 .35546876H.54499819L.56799319 .4284668Z"/>
<path id="font_1_48" d="M.2869873 .67578127H.21998596L-.009002686-.013671875H.05899048L.2869873 .67578127Z"/>
<path id="font_1_57" d="M.2709961 .27209474C.33898927 .22613526 .36898805 .18617249 .36898805 .1242218 .36898805 .059280397 .32398988 .014328003 .25898744 .014328003 .18299866 .014328003 .13198853 .06626892 .13198853 .15820313 .13198853 .22314453 .15299988 .26409913 .21199036 .3120575L.2709961 .27209474M.35499574 .53286746C.35499574 .470932 .32899476 .42897035 .26098634 .3889923 .17298889 .4409485 .13598633 .48690797 .13598633 .54885867 .13598633 .6108093 .1789856 .6477661 .24598694 .6477661 .31399537 .6477661 .35499574 .60180667 .35499574 .53286746M.44499208 .15519715C.44499208 .23512268 .41299439 .28907777 .2899933 .37101747 .3889923 .42396546 .42399598 .45793153 .42399598 .53286746 .42399598 .6108093 .35499574 .67578127 .2559967 .67578127 .14498902 .67578127 .06199646 .61579897 .06199646 .5198822 .06199646 .4549408 .08299255 .41697694 .18598938 .3320465 .07899475 .2571106 .055999757 .21813965 .055999757 .14920044 .055999757 .055282594 .1349945-.013671875 .24798584-.013671875 .36799623-.013671875 .44499208 .05229187 .44499208 .15519715Z"/>
<path id="font_1_53" d="M.2919922 .23098755H.051986696L.2919922 .573822V.23098755M.47299195 .16699219V.23098755H.36999513V.67578127H.32598878L.011993408 .23098755V.16699219H.2919922V0H.36999513V.16699219H.47299195Z"/>
<path id="font_1_52" d="M.06098938 .50987246C.101989749 .58380129 .147995 .61576846 .20999146 .61576846 .27598573 .61576846 .31799317 .58180239 .31799317 .51387026 .31799317 .45292665 .28599549 .40795899 .23699951 .37998963 .21699524 .36799623 .19099427 .3570099 .15299988 .34402467V.33003236C.20999146 .33003236 .23298645 .32704164 .25498963 .3200531 .32398988 .3000641 .35899354 .2511139 .35899354 .17518616 .35899354 .09025574 .30299378 .022323609 .22898865 .022323609 .20098877 .022323609 .17999268 .027313233 .14299011 .05329895 .114990238 .073272708 .09899902 .07926941 .08198547 .07926941 .05899048 .07926941 .040985109 .06428528 .040985109 .043304445 .040985109 .0073242189 .07998657-.013671875 .15299988-.013671875 .24198914-.013671875 .33699037 .015319824 .3849945 .07926941 .4139862 .11723328 .43099977 .16618347 .43099977 .21913147 .43099977 .27108766 .4149933 .31704713 .3869934 .34802247 .3659973 .36999513 .34799195 .38198854 .3039856 .40097047 .37098695 .44093324 .39698792 .4908905 .39698792 .5388489 .39698792 .6207733 .33399964 .67578127 .24099732 .67578127 .13699341 .67578127 .07398987 .6087799 .04499817 .51387026L.06098938 .50987246Z"/>
<path id="font_1_51" d="M.47399903 .13696289 .45999146 .1429596C.4269867 .08699036 .4059906 .07598877 .3639984 .07598877H.12998963L.29499818 .2519226C.38398744 .34588624 .4229889 .42085267 .4229889 .4998169 .4229889 .59877017 .35099793 .67578127 .23799134 .67578127 .114990238 .67578127 .050994874 .5937805 .02999878 .4768219L.050994874 .47183229C.09098816 .5697937 .12599182 .6017761 .19799805 .6017761 .2829895 .6017761 .33699037 .55178835 .33699037 .4608307 .33699037 .37586976 .30099488 .29989625 .20698548 .200943L.0289917 .011993408V0H.41999818L.47399903 .13696289Z"/>
<path id="font_2_17" d="M.37998963 .32505799C.37998963 .12722779 .33499146 .012313843 .25 .012313843 .1639862 .012313843 .11999512 .1262207 .11999512 .32904054 .11999512 .5318756 .16499329 .6497803 .24798584 .6497803 .33599855 .6497803 .37998963 .53286746 .37998963 .32505799M.47599793 .3300476C.47599793 .53486636 .3849945 .67578127 .2539978 .67578127 .09298706 .67578127 .023986817 .5128937 .023986817 .3360443 .023986817 .17218018 .07899475-.013671875 .25-.013671875 .41299439-.013671875 .47599793 .15818787 .47599793 .3300476Z"/>
<path id="font_2_15" d="M.18099976 .04324341C.18099976 .07325745 .15499878 .100250247 .12599182 .100250247 .09498596 .100250247 .069992069 .07525635 .069992069 .04425049 .069992069 .013244629 .09399414-.0107421879 .125-.0107421879 .15499878-.0107421879 .18099976 .014251709 .18099976 .04324341Z"/>
<path id="font_2_22" d="M.43798829 .68110659 .42900086 .6880951C.41299439 .667099 .4039917 .6621094 .3809967 .6621094H.17399597L.06498718 .4251709C.06498718 .4251709 .06399536 .42216493 .06399536 .42016603 .06399536 .4141693 .066986087 .4121704 .07598877 .4121704 .17199707 .4121704 .24198914 .380188 .2889862 .3421936 .33399964 .30621339 .35598756 .2562256 .35598756 .19226074 .35598756 .106292728 .29100038 .02331543 .22099304 .02331543 .20098877 .02331543 .17799378 .032318117 .1499939 .05531311 .117996219 .08129883 .09899902 .08630371 .07598877 .08630371 .04798889 .08630371 .0309906 .07330322 .0309906 .048309328 .0309906 .010314941 .08299255-.013671875 .1579895-.013671875 .22599793-.013671875 .2809906 .0013275147 .32798768 .035308839 .3959961 .08529663 .42599488 .14727783 .42599488 .24324036 .42599488 .29621888 .4169922 .334198 .3909912 .37019349 .33399964 .4491577 .28399659 .47114564 .14099121 .49813844L.18099976 .58309939H.375C.3909912 .58309939 .39898683 .58909609 .4019928 .59609988L.43798829 .68110659Z"/>
<path id="font_2_18" d="M.3939972 0V.01499939C.31900025 .01499939 .29899598 .032989503 .29899598 .07597351V.67277529L.2899933 .67578127 .11099243 .5847931V.5708008L.13798523 .5807953C.1559906 .5877991 .17298889 .59280398 .18299866 .59280398 .20399475 .59280398 .21299744 .57780459 .21299744 .543808V.0949707C.21299744 .039978029 .19198609 .018997193 .117996219 .01499939V0H.3939972Z"/>
<path id="font_2_19" d="M.47399903 .13696289 .45999146 .1429596C.4269867 .08699036 .4059906 .07598877 .3639984 .07598877H.12998963L.29499818 .2519226C.38398744 .34588624 .4229889 .42085267 .4229889 .4998169 .4229889 .59877017 .35099793 .67578127 .23799134 .67578127 .114990238 .67578127 .050994874 .5937805 .02999878 .4768219L.050994874 .47183229C.09098816 .5697937 .12599182 .6017761 .19799805 .6017761 .2829895 .6017761 .33699037 .55178835 .33699037 .4608307 .33699037 .37586976 .30099488 .29989625 .20698548 .200943L.0289917 .011993408V0H.41999818L.47399903 .13696289Z"/>
<clipPath id="clip_3">
<path transform="matrix(1,0,0,-1,46.747,164.224)" d="M0 0H194.27433V161.39438H0Z"/>
</clipPath>
<path id="font_1_3193" d="M.6899872 .35546876C.69799807 .3364563 .70199587 .31443788 .70199587 .28442384 .70199587 .19836426 .625 .019256592 .5369873 .019256592 .48399354 .019256592 .46699525 .06628418 .46699525 .11631775 .5029907 .16835022 .522995 .21037293 .522995 .26541139 .522995 .3024292 .5059967 .32144166 .48298646 .32144166 .4189911 .32144166 .4139862 .22537232 .4139862 .17234802 .4139862 .15834046 .41600038 .13632202 .41799928 .12130737 .40499879 .075286868 .34899903 .019256592 .29100038 .019256592 .24598694 .019256592 .22299195 .0632782 .22299195 .109313968 .22299195 .20936585 .2599945 .2984314 .31900025 .35546876H.6899872M.8659973 .4284668H.23699951C.13999939 .4284668 .056991579 .3464508 .02999878 .2684021H.04598999C.07899475 .31744386 .1269989 .35546876 .18099976 .35546876H.23098755C.17399597 .30142213 .14099121 .23239136 .14099121 .14732361 .14099121 .07829285 .1769867-.0107421879 .2789917-.0107421879 .34498597-.0107421879 .3919983 .025253296 .43299867 .075286868 .43699647 .024246216 .47799684-.0107421879 .5369873-.0107421879 .6409912-.0107421879 .7819977 .10229492 .7819977 .27241517 .7819977 .306427 .776001 .33244325 .7639923 .35546876H.84399417L.8659973 .4284668Z"/>
<path id="font_1_125" d="M.19299317-.18901062V.6899872H.1269989V-.18901062H.19299317Z"/>
<path id="font_4_1442" d="M.37298585 .32395936H.4039917C.47299195 .32395936 .526001 .29696656 .526001 .22097779 .526001 .11299133 .44799806 .04498291 .36099244 .04498291 .34298707 .04498291 .32798768 .04598999 .30899049 .049987794L.37298585 .32395936M.43998719 .62394717H.4889984C.5529938 .62394717 .5629883 .5599518 .5629883 .5249481 .5629883 .45095826 .5279999 .3909607 .45399476 .37495423 .44198609 .3719635 .42799378 .37095643 .4139862 .37095643 .40299989 .37095643 .3939972 .37095643 .38198854 .37295533L.43998719 .62394717M.19699097 .6689453 .19400025 .64593508H.23098755C.27598573 .64593508 .2849884 .6329346 .2869873 .60894778 .2869873 .6029358 .2869873 .5949402 .2849884 .5869446L.16899109 .084991458C.1599884 .04598999 .1459961 .022994996 .085998538 .022994996H.04598999L.041992189 0H.38198854C.59199526 0 .68099978 .08699036 .68099978 .21298218 .68099978 .28596498 .60899356 .33496095 .5509949 .34596253 .57199099 .35195924 .5970001 .3609619 .61499026 .3699646 .6719971 .3969574 .71499636 .44296266 .71499636 .5169525 .71499636 .64694216 .58599856 .6689453 .46199037 .6689453H.19699097Z"/>
<path id="font_5_1160" d="M.45700074 .3371582C.45700074 .35816957 .44198609 .37916566 .42099 .37916566 .4139862 .37916566 .40699769 .37716676 .39898683 .37316896 .37199403 .35716249 .34498597 .3041687 .272995 .26615907 .272995 .3351593 .3019867 .40016175 .3019867 .4311676 .3019867 .4521637 .28199769 .4711609 .2639923 .4711609 .24499512 .4711609 .22599793 .4521637 .22599793 .4311676 .22599793 .40016175 .25498963 .33416749 .25498963 .26516725 .19799805 .29516603 .1539917 .35617066 .125 .37316896 .116989139 .37716676 .10998535 .37916566 .102996829 .37916566 .08198547 .37916566 .066986087 .35816957 .066986087 .3371582 .066986087 .32615663 .07398987 .3151703 .08699036 .30715943 .114990238 .29016114 .19198609 .28016664 .24398804 .25016786 .19198609 .22016907 .117996219 .2101593 .09098816 .19515991 .07598877 .18615723 .069992069 .17016602 .069992069 .15615845 .069992069 .13916016 .08299255 .12416077 .10699463 .12416077 .115997318 .12416077 .125 .12716675 .13398743 .13215637 .1559906 .14416504 .20298767 .20716858 .25498963 .23716736 .25498963 .16816712 .22599793 .106170658 .22599793 .075164798 .22599793 .0541687 .24499512 .03315735 .2639923 .03315735 .28199769 .03315735 .3019867 .0541687 .3019867 .075164798 .3019867 .106170658 .272995 .16816712 .272995 .23716736 .34999085 .19316101 .375 .123168949 .41600038 .123168949 .44099427 .123168949 .45498658 .14216614 .45498658 .16217041 .45498658 .17416382 .44799806 .18615723 .43399049 .19416809 .40699769 .2101593 .34298707 .21316529 .27999879 .25016786 .35198976 .2911682 .4099884 .2911682 .43499757 .3061676 .44898988 .3141632 .45700074 .32615663 .45700074 .3371582Z"/>
<path id="font_1_1155" d="M.62098696 .22012329V.2861328H.06399536V.22012329H.62098696Z"/>
<path id="font_6_38" d="M.5970001 .16905213H.56900027C.5239868 .06300354 .48098756 .036987306 .33799745 .036987306H.3019867C.22799683 .036987306 .20098877 .041992189 .20098877 .08401489V.32714845H.35198976C.43798829 .32714845 .45298768 .3141327 .46499635 .23008728H.48799134V.4641266H.46499635C.45298768 .38513185 .43798829 .36813355 .35198976 .36813355H.20098877V.58810427C.20098877 .6201019 .20799256 .62409976 .23599243 .62409976H.36698915C.48298646 .62409976 .5059967 .60910037 .5209961 .51911929H.54599L.5419922 .6621094H.011993408V.6430969C.08699036 .6390991 .09899902 .62409976 .09899902 .55010989V.11402893C.09899902 .036987306 .08898926 .023986817 .011993408 .018997193V0H.5509949L.5970001 .16905213Z"/>
<path id="font_6_53" d="M.59298709 .4920807 .58599856 .6621094H.023986817L.016998291 .4920807H.040985109C.06098938 .60209658 .08799744 .6201019 .19400025 .6201019H.2539978V.12301636C.2539978 .034988405 .24299622 .023986817 .1599884 .018997193V0H.45199586V.018997193C.36999513 .022994996 .35598756 .034988405 .35598756 .11100769V.6201019H.4149933C.5209961 .6201019 .5469971 .60209658 .56900027 .4920807H.59298709Z"/>
<path id="font_6_42" d="M.31498719 0V.018997193C.23298645 .021987915 .21699524 .037002565 .21699524 .11201477V.5510864C.21699524 .6271057 .23098755 .6390991 .31498719 .6430969V.6621094H.017990113V.6430969C.102996829 .6381073 .114990238 .63009646 .114990238 .5510864V.11201477C.114990238 .033996583 .101989749 .021987915 .017990113 .018997193V0H.31498719Z"/>
<path id="font_6_48" d="M.57398989 .33703614C.57398989 .21714783 .54599 .12322998 .4909973 .07028198 .45599366 .03730774 .4119873 .022323609 .3619995 .022323609 .31599427 .022323609 .27198792 .03630066 .23799134 .067276 .1769867 .12322998 .147995 .21315003 .147995 .3320465 .147995 .42695619 .17399597 .52388 .21699524 .5728302 .2559967 .6177826 .30599977 .6397705 .3600006 .6397705 .40699769 .6397705 .44699098 .6227875 .48298646 .59280398 .5399933 .54486086 .57398989 .450943 .57398989 .33703614M.6879883 .33103944C.6879883 .5288696 .5569916 .67578127 .36099244 .67578127 .1659851 .67578127 .033996583 .53686526 .033996583 .3340454 .033996583 .1262207 .16699219-.013671875 .36099244-.013671875 .5529938-.013671875 .6879883 .12522888 .6879883 .33103944Z"/>
<path id="font_6_83" d="M.1599884 .45794679 .15499878 .45996095C.101989749 .43894959 .06599426 .42495729 .0069885256 .40596009V.3899536C.020996094 .3929596 .02999878 .39396668 .041992189 .39396668 .066986087 .39396668 .07598877 .3779602 .07598877 .33396913V.083984378C.07598877 .033996583 .068984989 .026992798 .004989624 .01499939V0H.24499512V.01499939C.1769867 .017990113 .1599884 .032989503 .1599884 .08998108V.31497193C.1599884 .3469696 .20199585 .3969574 .22999573 .3969574 .23599243 .3969574 .24499512 .3919525 .2559967 .381958 .27198792 .36695863 .2829895 .361969 .29599 .361969 .31999208 .361969 .33499146 .3789673 .33499146 .4069519 .33499146 .43995667 .31399537 .45996095 .27999879 .45996095 .23799134 .45996095 .20999146 .43795777 .1599884 .3659668V.45794679Z"/>
<path id="font_6_66" d="M.2869873 .12716675C.2869873 .09819031 .2809906 .084198 .2519989 .064208988 .23498535 .053222658 .21398926 .048233034 .19400025 .048233034 .15499878 .048233034 .125 .07220459 .125 .12516785 .125 .15615845 .1349945 .18013 .15899658 .20211792 .18399048 .22509766 .22499085 .24609375 .2869873 .2680664V.12716675M.44198609 .066207889C.4249878 .052230836 .4149933 .047225954 .39898683 .047225954 .3809967 .047225954 .36799623 .067214969 .36799623 .11317444V.30404664C.36799623 .3650055 .3639984 .38598634 .33999635 .41496278 .31599427 .44395448 .27799989 .45996095 .22200012 .45996095 .1769867 .45996095 .1349945 .44795228 .10699463 .42996217 .07199097 .40797425 .055999757 .37599183 .055999757 .35002137 .055999757 .32302857 .07798767 .30404664 .09899902 .30404664 .125 .30404664 .14498902 .32603456 .14498902 .34501649 .14498902 .3659973 .13899231 .3690033 .13899231 .3869934 .13899231 .41397096 .16899109 .43595887 .20899964 .43595887 .2539978 .43595887 .2869873 .40797425 .2869873 .34602357V.29205323C.17399597 .25009156 .13699341 .23109436 .10699463 .21110535 .067993167 .18513489 .036987306 .14616394 .036987306 .094192508 .036987306 .02822876 .07998657-.009765625 .14199829-.009765625 .18499756-.009765625 .23399353 .0032196046 .2869873 .06321716H.28799439C.29299928 .010223389 .31498719-.009765625 .35198976-.009765625 .38598634-.009765625 .4119873 .00022888184 .44198609 .038223268V.066207889Z"/>
</defs>
<path transform="matrix(1,0,0,-1,46.747,164.224)" stroke-width=".3985" stroke-linecap="butt" stroke-miterlimit="10" stroke-linejoin="miter" fill="none" stroke="#b0b0b0" d="M8.83064 0V161.39438M52.98177 0V161.39438M97.13625 0V161.39438M141.28961 0V161.39438M185.44297 0V161.39438"/>
<path transform="matrix(1,0,0,-1,46.747,164.224)" stroke-width=".3985" stroke-linecap="butt" stroke-miterlimit="10" stroke-linejoin="miter" fill="none" stroke="#b0b0b0" d="M0 5.97757H194.27433M0 35.86542H194.27433M0 65.75327H194.27433M0 95.64111H194.27433M0 125.52896H194.27433M0 155.41681H194.27433"/>
<path transform="matrix(1,0,0,-1,46.747,164.224)" stroke-width=".19925" stroke-linecap="butt" stroke-miterlimit="10" stroke-linejoin="miter" fill="none" stroke="#000000" d="M8.83064-4.25195V0M52.98177-4.25195V0M97.13625-4.25195V0M141.28961-4.25195V0M185.44297-4.25195V0"/>
<path transform="matrix(1,0,0,-1,46.747,164.224)" stroke-width=".19925" stroke-linecap="butt" stroke-miterlimit="10" stroke-linejoin="miter" fill="none" stroke="#000000" d="M-4.25243 5.97757H0M-4.25243 35.86542H0M-4.25243 65.75327H0M-4.25243 95.64111H0M-4.25243 125.52896H0M-4.25243 155.41681H0"/>
<path transform="matrix(1,0,0,-1,46.747,164.224)" stroke-width=".3985" stroke-linecap="butt" stroke-miterlimit="10" stroke-linejoin="miter" fill="none" stroke="#000000" d="M0 0V161.39438H194.27433V0H0Z"/>
<use data-text="0" xlink:href="#font_1_49" transform="matrix(9.96264,0,0,-9.96264,53.087,178.731)"/>
<use data-text="&#x1d70b;" xlink:href="#font_1_3177" transform="matrix(9.96264,0,0,-9.96264,92.824008,178.731)"/>
<use data-text="/" xlink:href="#font_1_48" transform="matrix(9.96264,0,0,-9.96264,98.88129,178.731)"/>
<use data-text="8" xlink:href="#font_1_57" transform="matrix(9.96264,0,0,-9.96264,101.6509,178.731)"/>
<use data-text="&#x1d70b;" xlink:href="#font_1_3177" transform="matrix(9.96264,0,0,-9.96264,136.978,178.731)"/>
<use data-text="/" xlink:href="#font_1_48" transform="matrix(9.96264,0,0,-9.96264,143.0353,178.731)"/>
<use data-text="4" xlink:href="#font_1_53" transform="matrix(9.96264,0,0,-9.96264,145.8049,178.731)"/>
<use data-text="3" xlink:href="#font_1_52" transform="matrix(9.96264,0,0,-9.96264,178.64002,178.731)"/>
<use data-text="&#x1d70b;" xlink:href="#font_1_3177" transform="matrix(9.96264,0,0,-9.96264,183.62134,178.731)"/>
<use data-text="/" xlink:href="#font_1_48" transform="matrix(9.96264,0,0,-9.96264,189.67864,178.731)"/>
<use data-text="8" xlink:href="#font_1_57" transform="matrix(9.96264,0,0,-9.96264,192.44824,178.731)"/>
<use data-text="&#x1d70b;" xlink:href="#font_1_3177" transform="matrix(9.96264,0,0,-9.96264,225.28299,178.731)"/>
<use data-text="/" xlink:href="#font_1_48" transform="matrix(9.96264,0,0,-9.96264,231.34029,178.731)"/>
<use data-text="2" xlink:href="#font_1_51" transform="matrix(9.96264,0,0,-9.96264,234.1099,178.731)"/>
<use data-text="0" xlink:href="#font_2_17" transform="matrix(9.96264,0,0,-9.96264,33.993005,161.544)"/>
<use data-text="0" xlink:href="#font_2_17" transform="matrix(9.96264,0,0,-9.96264,21.54,131.71701)"/>
<use data-text="." xlink:href="#font_2_15" transform="matrix(9.96264,0,0,-9.96264,26.52132,131.71701)"/>
<use data-text="0" xlink:href="#font_2_17" transform="matrix(9.96264,0,0,-9.96264,29.01198,131.71701)"/>
<use data-text="5" xlink:href="#font_2_22" transform="matrix(9.96264,0,0,-9.96264,33.9933,131.71701)"/>
<use data-text="0" xlink:href="#font_2_17" transform="matrix(9.96264,0,0,-9.96264,26.521002,101.769008)"/>
<use data-text="." xlink:href="#font_2_15" transform="matrix(9.96264,0,0,-9.96264,31.502322,101.769008)"/>
<use data-text="1" xlink:href="#font_2_18" transform="matrix(9.96264,0,0,-9.96264,33.99298,101.769008)"/>
<use data-text="0" xlink:href="#font_2_17" transform="matrix(9.96264,0,0,-9.96264,21.54,71.942)"/>
<use data-text="." xlink:href="#font_2_15" transform="matrix(9.96264,0,0,-9.96264,26.52132,71.942)"/>
<use data-text="1" xlink:href="#font_2_18" transform="matrix(9.96264,0,0,-9.96264,29.01198,71.942)"/>
<use data-text="5" xlink:href="#font_2_22" transform="matrix(9.96264,0,0,-9.96264,33.9933,71.942)"/>
<use data-text="0" xlink:href="#font_2_17" transform="matrix(9.96264,0,0,-9.96264,26.521002,41.99501)"/>
<use data-text="." xlink:href="#font_2_15" transform="matrix(9.96264,0,0,-9.96264,31.502322,41.99501)"/>
<use data-text="2" xlink:href="#font_2_19" transform="matrix(9.96264,0,0,-9.96264,33.99298,41.99501)"/>
<use data-text="0" xlink:href="#font_2_17" transform="matrix(9.96264,0,0,-9.96264,21.54,12.166992)"/>
<use data-text="." xlink:href="#font_2_15" transform="matrix(9.96264,0,0,-9.96264,26.52132,12.166992)"/>
<use data-text="2" xlink:href="#font_2_19" transform="matrix(9.96264,0,0,-9.96264,29.01198,12.166992)"/>
<use data-text="5" xlink:href="#font_2_22" transform="matrix(9.96264,0,0,-9.96264,33.9933,12.166992)"/>
<g clip-path="url(#clip_3)">
<path transform="matrix(1,0,0,-1,46.747,164.224)" stroke-width=".59776" stroke-linecap="butt" stroke-miterlimit="10" stroke-linejoin="miter" fill="none" stroke="#ff0000" d="M8.83069 76.82433 12.36298 76.70108 15.89525 76.33417 19.4275 75.73186 22.9598 74.90762 26.49207 73.87964 30.02434 72.67036 33.55663 71.30573 37.0889 69.8148 40.62117 68.22925 44.15344 66.58305 47.68573 64.91196 51.218 63.25386 54.75027 61.64815 58.28255 60.13591 61.81482 58.75931 65.34709 57.5608 68.87938 56.58224 72.41165 55.86389 75.94392 55.43901 79.4762 55.33733 83.00848 55.58043 86.54076 56.17761 90.07303 57.12984 93.6053 58.42784 97.13757 60.05394 100.66985 61.9838 104.20213 64.1886 107.7344 66.63657 111.26668 69.2949 114.79895 72.13004 118.33124 75.11005 121.86351 78.2027 125.39578 81.3762 128.92806 84.60039 132.46033 87.84528 135.9926 91.08127 139.52489 94.27885 143.05716 97.40857 146.58943 100.44086 150.1217 103.34633 153.65399 106.09415 157.18627 108.65567 160.71854 111.00143 164.25083 113.10303 167.78308 114.9344 171.31536 116.46986 174.84764 117.68866 178.37992 118.5728 181.91219 119.10875 185.44446 119.2882"/>
<path transform="matrix(1,0,0,-1,46.747,164.224)" stroke-width=".59776" stroke-linecap="butt" stroke-miterlimit="10" stroke-linejoin="miter" fill="none" stroke="#00bfbf" d="M8.83069 5.97778 12.36298 7.2175 15.89525 8.54102 19.4275 10.01872 22.9598 11.7005 26.49207 13.61475 30.02434 15.77194 33.55663 18.16899 37.0889 20.79407 40.62117 23.63002 44.15344 26.65671 47.68573 29.85364 51.218 33.20041 54.75027 36.676 58.28255 40.26314 61.81482 43.94453 65.34709 47.70479 68.87938 51.53001 72.41165 55.40816 75.94392 59.32706 79.4762 63.27736 83.00848 67.25073 86.54076 71.23727 90.07303 75.22871 93.6053 79.21942 97.13757 83.20154 100.66985 87.16817 104.20213 91.11253 107.7344 95.02693 111.26668 98.90471 114.79895 102.73734 118.33124 106.51785 121.86351 110.23718 125.39578 113.88477 128.92806 117.4506 132.46033 120.92326 135.9926 124.29018 139.52489 127.5377 143.05716 130.65097 146.58943 133.61402 150.1217 136.41025 153.65399 139.02017 157.18627 141.42649 160.71854 143.60962 164.25083 145.55013 167.78308 147.23082 171.31536 148.63225 174.84764 149.74034 178.37992 150.54184 181.91219 151.02677 185.44446 151.18889"/>
<path transform="matrix(1,0,0,-1,46.747,164.224)" stroke-width=".59776" stroke-linecap="butt" stroke-miterlimit="10" stroke-linejoin="miter" fill="none" stroke="#bf00bf" d="M8.83069 74.40396 12.36298 74.31401 15.89525 74.04333 19.4275 73.6003 22.9598 72.99643 26.49207 72.24678 30.02434 71.36879 33.55663 70.38142 37.0889 69.30394 40.62117 68.15503 44.15344 66.95203 47.68573 65.70993 51.218 64.44135 54.75027 63.15706 58.28255 61.86398 61.81482 60.56738 65.34709 59.27026 68.87938 57.97392 72.41165 56.67873 75.94392 55.3839 79.4762 54.08888 83.00848 52.7943 86.54076 51.5016 90.07303 50.21533 93.6053 48.93948 97.13757 47.68361 100.66985 46.45998 104.20213 45.28429 107.7344 44.17726 111.26668 43.16164 114.79895 42.26425 118.33124 41.51381 121.86351 40.93889 125.39578 40.5655 128.92806 40.41466 132.46033 40.49925 135.9926 40.82181 139.52489 41.37332 143.05716 42.13326 146.58943 43.07098 150.1217 44.14758 153.65399 45.31906 157.18627 46.53749 160.71854 47.75449 164.25083 48.92284 167.78308 49.99715 171.31536 50.93744 174.84764 51.70796 178.37992 52.27997 181.91219 52.63191 185.44446 52.7507"/>
<path transform="matrix(1,0,0,-1,46.747,164.224)" stroke-width=".59776" stroke-linecap="butt" stroke-miterlimit="10" stroke-linejoin="miter" fill="none" stroke="#008000" d="M8.83069 5.97778 12.36298 6.47752 15.89525 7.86476 19.4275 10.14626 22.9598 13.27602 26.49207 17.1828 30.02434 21.76485 33.55663 26.883 37.0889 32.3554 40.62117 37.9572 44.15344 43.42984 47.68573 48.50188 51.218 52.9213 54.75027 56.48839 58.28255 59.07834 61.81482 60.64818 65.34709 61.22707 68.87938 60.89781 72.41165 59.77824 75.94392 58.00606 79.4762 55.73138 83.00848 53.11212 86.54076 50.3124 90.07303 47.5015 93.6053 44.84808 97.13757 42.51585 100.66985 40.64627 104.20213 39.33754 107.7344 38.62369 111.26668 38.46245 114.79895 38.74515 118.33124 39.32219 121.86351 40.03288 125.39578 40.7307 128.92806 41.30019 132.46033 41.6649 135.9926 41.79105 139.52489 41.68727 143.05716 41.40063 146.58943 41.00871 150.1217 40.60628 153.65399 40.28905 157.18627 40.13365 160.71854 40.18283 164.25083 40.43661 167.78308 40.85297 171.31536 41.36154 174.84764 41.87633 178.37992 42.31415 181.91219 42.60648 185.44446 42.70901"/>
</g>
<path transform="matrix(1,0,0,-1,46.747,164.224)" d="M11.81952 76.82433C11.81952 78.47504 10.48138 79.81316 8.83069 79.81316 7.17998 79.81316 5.84186 78.47504 5.84186 76.82433 5.84186 75.17363 7.17998 73.8355 8.83069 73.8355 10.48138 73.8355 11.81952 75.17363 11.81952 76.82433ZM8.83069 76.82433" fill="#ff0000"/>
<path transform="matrix(1,0,0,-1,46.747,164.224)" stroke-width=".59776" stroke-linecap="butt" stroke-miterlimit="10" stroke-linejoin="miter" fill="none" stroke="#ff0000" d="M11.81952 76.82433C11.81952 78.47504 10.48138 79.81316 8.83069 79.81316 7.17998 79.81316 5.84186 78.47504 5.84186 76.82433 5.84186 75.17363 7.17998 73.8355 8.83069 73.8355 10.48138 73.8355 11.81952 75.17363 11.81952 76.82433ZM8.83069 76.82433"/>
<path transform="matrix(1,0,0,-1,46.747,164.224)" d="M100.1264 60.05394C100.1264 61.70464 98.78828 63.04277 97.13757 63.04277 95.48688 63.04277 94.14874 61.70464 94.14874 60.05394 94.14874 58.40323 95.48688 57.06511 97.13757 57.06511 98.78828 57.06511 100.1264 58.40323 100.1264 60.05394ZM97.13757 60.05394" fill="#ff0000"/>
<path transform="matrix(1,0,0,-1,46.747,164.224)" stroke-width=".59776" stroke-linecap="butt" stroke-miterlimit="10" stroke-linejoin="miter" fill="none" stroke="#ff0000" d="M100.1264 60.05394C100.1264 61.70464 98.78828 63.04277 97.13757 63.04277 95.48688 63.04277 94.14874 61.70464 94.14874 60.05394 94.14874 58.40323 95.48688 57.06511 97.13757 57.06511 98.78828 57.06511 100.1264 58.40323 100.1264 60.05394ZM97.13757 60.05394"/>
<path transform="matrix(1,0,0,-1,46.747,164.224)" d="M188.43329 119.2882C188.43329 120.9389 187.09517 122.27702 185.44446 122.27702 183.79375 122.27702 182.45563 120.9389 182.45563 119.2882 182.45563 117.6375 183.79375 116.29936 185.44446 116.29936 187.09517 116.29936 188.43329 117.6375 188.43329 119.2882ZM185.44446 119.2882" fill="#ff0000"/>
<path transform="matrix(1,0,0,-1,46.747,164.224)" stroke-width=".59776" stroke-linecap="butt" stroke-miterlimit="10" stroke-linejoin="miter" fill="none" stroke="#ff0000" d="M188.43329 119.2882C188.43329 120.9389 187.09517 122.27702 185.44446 122.27702 183.79375 122.27702 182.45563 120.9389 182.45563 119.2882 182.45563 117.6375 183.79375 116.29936 185.44446 116.29936 187.09517 116.29936 188.43329 117.6375 188.43329 119.2882ZM185.44446 119.2882"/>
<path transform="matrix(1,0,0,-1,46.747,164.224)" stroke-width=".59776" stroke-linecap="butt" stroke-miterlimit="10" stroke-linejoin="miter" fill="none" stroke="#ff0000" d=""/>
<path transform="matrix(1,0,0,-1,46.747,164.224)" stroke-width=".59776" stroke-linecap="butt" stroke-miterlimit="10" stroke-linejoin="miter" fill="none" stroke="#00bfbf" d="M8.83069 2.98895V8.96661M11.4191 7.4722 6.24228 4.48337M11.4191 4.48337 6.24228 7.4722"/>
<path transform="matrix(1,0,0,-1,46.747,164.224)" stroke-width=".59776" stroke-linecap="butt" stroke-miterlimit="10" stroke-linejoin="miter" fill="none" stroke="#00bfbf" d="M97.13757 80.2127V86.19037M99.72598 84.69595 94.54916 81.70712M99.72598 81.70712 94.54916 84.69595"/>
<path transform="matrix(1,0,0,-1,46.747,164.224)" stroke-width=".59776" stroke-linecap="butt" stroke-miterlimit="10" stroke-linejoin="miter" fill="none" stroke="#00bfbf" d="M185.44446 148.20006V154.17772M188.03287 152.6833 182.85605 149.69448M188.03287 149.69448 182.85605 152.6833"/>
<path transform="matrix(1,0,0,-1,46.747,164.224)" stroke-width=".59776" stroke-linecap="butt" stroke-miterlimit="10" stroke-linejoin="miter" fill="none" stroke="#00bfbf" d=""/>
<path transform="matrix(1,0,0,-1,46.747,164.224)" stroke-width=".59776" stroke-linecap="butt" stroke-miterlimit="10" stroke-linejoin="miter" fill="none" stroke="#bf00bf" d="M6.71725 72.29054 10.9441 76.51738M6.71725 76.51738 10.9441 72.29054"/>
<path transform="matrix(1,0,0,-1,46.747,164.224)" stroke-width=".59776" stroke-linecap="butt" stroke-miterlimit="10" stroke-linejoin="miter" fill="none" stroke="#bf00bf" d="M95.02415 45.57019 99.251 49.79704M95.02415 49.79704 99.251 45.57019"/>
<path transform="matrix(1,0,0,-1,46.747,164.224)" stroke-width=".59776" stroke-linecap="butt" stroke-miterlimit="10" stroke-linejoin="miter" fill="none" stroke="#bf00bf" d="M183.33104 50.63728 187.55788 54.86414M183.33104 54.86414 187.55788 50.63728"/>
<path transform="matrix(1,0,0,-1,46.747,164.224)" stroke-width=".59776" stroke-linecap="butt" stroke-miterlimit="10" stroke-linejoin="miter" fill="none" stroke="#bf00bf" d=""/>
<path transform="matrix(1,0,0,-1,46.747,164.224)" d="M8.83069 8.96661 11.07231 5.97778 8.83069 2.98895 6.58907 5.97778Z" fill="#008000"/>
<path transform="matrix(1,0,0,-1,46.747,164.224)" stroke-width=".59776" stroke-linecap="butt" stroke-miterlimit="10" stroke-linejoin="miter" fill="none" stroke="#008000" d="M8.83069 8.96661 11.07231 5.97778 8.83069 2.98895 6.58907 5.97778Z"/>
<path transform="matrix(1,0,0,-1,46.747,164.224)" d="M97.13757 45.50468 99.3792 42.51585 97.13757 39.52702 94.89595 42.51585Z" fill="#008000"/>
<path transform="matrix(1,0,0,-1,46.747,164.224)" stroke-width=".59776" stroke-linecap="butt" stroke-miterlimit="10" stroke-linejoin="miter" fill="none" stroke="#008000" d="M97.13757 45.50468 99.3792 42.51585 97.13757 39.52702 94.89595 42.51585Z"/>
<path transform="matrix(1,0,0,-1,46.747,164.224)" d="M185.44446 45.69785 187.68608 42.70901 185.44446 39.72018 183.20284 42.70901Z" fill="#008000"/>
<path transform="matrix(1,0,0,-1,46.747,164.224)" stroke-width=".59776" stroke-linecap="butt" stroke-miterlimit="10" stroke-linejoin="miter" fill="none" stroke="#008000" d="M185.44446 45.69785 187.68608 42.70901 185.44446 39.72018 183.20284 42.70901Z"/>
<path transform="matrix(1,0,0,-1,46.747,164.224)" stroke-width=".59776" stroke-linecap="butt" stroke-miterlimit="10" stroke-linejoin="miter" fill="none" stroke="#008000" d=""/>
<use data-text="&#x1d71b;" xlink:href="#font_1_3193" transform="matrix(9.96264,0,0,-9.96264,139.619,189.974)"/>
<use data-text="|" xlink:href="#font_1_125" transform="matrix(0,-9.96264,-9.96264,-0,12.817001,116.298999)"/>
<use data-text="|" xlink:href="#font_1_125" transform="matrix(0,-9.96264,-9.96264,-0,12.817001,113.110958)"/>
<use data-text="&#x1d435;" xlink:href="#font_4_1442" transform="matrix(0,-9.96264,-9.96264,-0,12.817001,109.923)"/>
<use data-text="&#x2217;" xlink:href="#font_5_1160" transform="matrix(0,-7.47198,-7.47198,-0,8.832001,102.689998)"/>
<use data-text="&#x2212;" xlink:href="#font_1_1155" transform="matrix(0,-9.96264,-9.96264,-0,12.817001,96.159)"/>
<use data-text="&#x1d435;" xlink:href="#font_4_1442" transform="matrix(0,-9.96264,-9.96264,-0,12.817001,87.121)"/>
<use data-text="|" xlink:href="#font_1_125" transform="matrix(0,-9.96264,-9.96264,-0,12.817001,79.888)"/>
<use data-text="|" xlink:href="#font_1_125" transform="matrix(0,-9.96264,-9.96264,-0,12.817001,76.69995)"/>
<use data-text="/" xlink:href="#font_1_48" transform="matrix(0,-9.96264,-9.96264,-0,12.817001,73.5119)"/>
<use data-text="|" xlink:href="#font_1_125" transform="matrix(0,-9.96264,-9.96264,-0,12.817001,70.742298)"/>
<use data-text="|" xlink:href="#font_1_125" transform="matrix(0,-9.96264,-9.96264,-0,12.817001,67.554248)"/>
<use data-text="&#x1d435;" xlink:href="#font_4_1442" transform="matrix(0,-9.96264,-9.96264,-0,12.817001,64.367)"/>
<use data-text="|" xlink:href="#font_1_125" transform="matrix(0,-9.96264,-9.96264,-0,12.817001,57.133996)"/>
<use data-text="|" xlink:href="#font_1_125" transform="matrix(0,-9.96264,-9.96264,-0,12.817001,53.945955)"/>
<path transform="matrix(1,0,0,-1,46.747,164.224)" d="M6.02722 94.61943H112.46058V156.35347H6.02722Z" fill="#ffffff" fill-opacity=".8"/>
<path transform="matrix(1,0,0,-1,46.747,164.224)" stroke-width=".3985" stroke-linecap="butt" stroke-miterlimit="10" stroke-linejoin="miter" fill="none" stroke="#cccccc" d="M6.02722 94.61943H112.46058V156.35347H6.02722Z"/>
<path transform="matrix(1,0,0,-1,56.062,17.070996)" stroke-width=".59776" stroke-linecap="butt" stroke-miterlimit="10" stroke-linejoin="miter" fill="none" stroke="#ff0000" d="M0 0H8.50412 17.00826"/>
<path transform="matrix(1,0,0,-1,56.062,17.070996)" d="M11.49295 0C11.49295 1.6507 10.15482 2.98883 8.50412 2.98883 6.85341 2.98883 5.51529 1.6507 5.51529 0 5.51529-1.6507 6.85341-2.98883 8.50412-2.98883 10.15482-2.98883 11.49295-1.6507 11.49295 0ZM8.50412 0" fill="#ff0000" fill-opacity=".8"/>
<path transform="matrix(1,0,0,-1,56.062,17.070996)" stroke-width=".59776" stroke-linecap="butt" stroke-miterlimit="10" stroke-linejoin="miter" fill="none" stroke="#ff0000" d="M11.49295 0C11.49295 1.6507 10.15482 2.98883 8.50412 2.98883 6.85341 2.98883 5.51529 1.6507 5.51529 0 5.51529-1.6507 6.85341-2.98883 8.50412-2.98883 10.15482-2.98883 11.49295-1.6507 11.49295 0ZM8.50412 0"/>
<use data-text="|" xlink:href="#font_1_125" transform="matrix(9.96264,0,0,-9.96264,75.361,20.789002)"/>
<use data-text="|" xlink:href="#font_1_125" transform="matrix(9.96264,0,0,-9.96264,78.54904,20.789002)"/>
<use data-text="&#x1d435;" xlink:href="#font_4_1442" transform="matrix(9.96264,0,0,-9.96264,81.737,20.789002)"/>
<use data-text="E" xlink:href="#font_6_38" transform="matrix(7.47198,0,0,-7.47198,88.97,16.804)"/>
<use data-text="T" xlink:href="#font_6_53" transform="matrix(7.47198,0,0,-7.47198,93.53538,16.804)"/>
<use data-text="I" xlink:href="#font_6_42" transform="matrix(7.47198,0,0,-7.47198,98.10075,16.804)"/>
<use data-text="&#x2212;" xlink:href="#font_1_1155" transform="matrix(9.96264,0,0,-9.96264,103.211,20.789002)"/>
<use data-text="&#x1d435;" xlink:href="#font_4_1442" transform="matrix(9.96264,0,0,-9.96264,112.25,20.789002)"/>
<use data-text="|" xlink:href="#font_1_125" transform="matrix(9.96264,0,0,-9.96264,119.482,20.789002)"/>
<use data-text="|" xlink:href="#font_1_125" transform="matrix(9.96264,0,0,-9.96264,122.670047,20.789002)"/>
<use data-text="/" xlink:href="#font_1_48" transform="matrix(9.96264,0,0,-9.96264,125.858089,20.789002)"/>
<use data-text="|" xlink:href="#font_1_125" transform="matrix(9.96264,0,0,-9.96264,128.6277,20.789002)"/>
<use data-text="|" xlink:href="#font_1_125" transform="matrix(9.96264,0,0,-9.96264,131.81575,20.789002)"/>
<use data-text="&#x1d435;" xlink:href="#font_4_1442" transform="matrix(9.96264,0,0,-9.96264,135.004,20.789002)"/>
<use data-text="|" xlink:href="#font_1_125" transform="matrix(9.96264,0,0,-9.96264,142.237,20.789002)"/>
<use data-text="|" xlink:href="#font_1_125" transform="matrix(9.96264,0,0,-9.96264,145.42505,20.789002)"/>
<path transform="matrix(1,0,0,-1,56.061998,31.481995)" stroke-width=".59776" stroke-linecap="butt" stroke-miterlimit="10" stroke-linejoin="miter" fill="none" stroke="#00bfbf" d="M0 0H8.50412 17.00826"/>
<path transform="matrix(1,0,0,-1,56.061998,31.481995)" stroke-width=".59776" stroke-linecap="butt" stroke-miterlimit="10" stroke-linejoin="miter" fill="none" stroke="#00bfbf" d="M8.50412-2.98883V2.98883M11.09253 1.49442 5.91571-1.49442M11.09253-1.49442 5.91571 1.49442"/>
<use data-text="|" xlink:href="#font_1_125" transform="matrix(9.96264,0,0,-9.96264,75.361,35.199998)"/>
<use data-text="|" xlink:href="#font_1_125" transform="matrix(9.96264,0,0,-9.96264,78.54904,35.199998)"/>
<use data-text="&#x1d435;" xlink:href="#font_4_1442" transform="matrix(9.96264,0,0,-9.96264,81.737,35.199998)"/>
<use data-text="T" xlink:href="#font_6_53" transform="matrix(7.47198,0,0,-7.47198,88.97,31.214997)"/>
<use data-text="I" xlink:href="#font_6_42" transform="matrix(7.47198,0,0,-7.47198,93.53538,31.214997)"/>
<use data-text="&#x2212;" xlink:href="#font_1_1155" transform="matrix(9.96264,0,0,-9.96264,98.646,35.199998)"/>
<use data-text="&#x1d435;" xlink:href="#font_4_1442" transform="matrix(9.96264,0,0,-9.96264,107.684,35.199998)"/>
<use data-text="|" xlink:href="#font_1_125" transform="matrix(9.96264,0,0,-9.96264,114.917,35.199998)"/>
<use data-text="|" xlink:href="#font_1_125" transform="matrix(9.96264,0,0,-9.96264,118.10504,35.199998)"/>
<use data-text="/" xlink:href="#font_1_48" transform="matrix(9.96264,0,0,-9.96264,121.29308,35.199998)"/>
<use data-text="|" xlink:href="#font_1_125" transform="matrix(9.96264,0,0,-9.96264,124.0627,35.199998)"/>
<use data-text="|" xlink:href="#font_1_125" transform="matrix(9.96264,0,0,-9.96264,127.25074,35.199998)"/>
<use data-text="&#x1d435;" xlink:href="#font_4_1442" transform="matrix(9.96264,0,0,-9.96264,130.439,35.199998)"/>
<use data-text="|" xlink:href="#font_1_125" transform="matrix(9.96264,0,0,-9.96264,137.672,35.199998)"/>
<use data-text="|" xlink:href="#font_1_125" transform="matrix(9.96264,0,0,-9.96264,140.86005,35.199998)"/>
<path transform="matrix(1,0,0,-1,56.061998,45.944997)" stroke-width=".59776" stroke-linecap="butt" stroke-miterlimit="10" stroke-linejoin="miter" fill="none" stroke="#bf00bf" d="M0 0H8.50412 17.00826"/>
<path transform="matrix(1,0,0,-1,56.061998,45.944997)" stroke-width=".59776" stroke-linecap="butt" stroke-miterlimit="10" stroke-linejoin="miter" fill="none" stroke="#bf00bf" d="M6.39069-2.11342 10.61754 2.11342M6.39069 2.11342 10.61754-2.11342"/>
<use data-text="|" xlink:href="#font_1_125" transform="matrix(9.96264,0,0,-9.96264,75.361,49.716005)"/>
<use data-text="|" xlink:href="#font_1_125" transform="matrix(9.96264,0,0,-9.96264,78.54904,49.716005)"/>
<use data-text="&#x1d435;" xlink:href="#font_4_1442" transform="matrix(9.96264,0,0,-9.96264,81.737,49.716005)"/>
<use data-text="E" xlink:href="#font_6_38" transform="matrix(7.47198,0,0,-7.47198,88.97,45.731004)"/>
<use data-text="O" xlink:href="#font_6_48" transform="matrix(7.47198,0,0,-7.47198,93.53538,45.731004)"/>
<use data-text="&#x2212;" xlink:href="#font_1_1155" transform="matrix(9.96264,0,0,-9.96264,101.553,49.716005)"/>
<use data-text="&#x1d435;" xlink:href="#font_4_1442" transform="matrix(9.96264,0,0,-9.96264,110.591,49.716005)"/>
<use data-text="|" xlink:href="#font_1_125" transform="matrix(9.96264,0,0,-9.96264,117.824,49.716005)"/>
<use data-text="|" xlink:href="#font_1_125" transform="matrix(9.96264,0,0,-9.96264,121.01204,49.716005)"/>
<use data-text="/" xlink:href="#font_1_48" transform="matrix(9.96264,0,0,-9.96264,124.20008,49.716005)"/>
<use data-text="|" xlink:href="#font_1_125" transform="matrix(9.96264,0,0,-9.96264,126.969699,49.716005)"/>
<use data-text="|" xlink:href="#font_1_125" transform="matrix(9.96264,0,0,-9.96264,130.15775,49.716005)"/>
<use data-text="&#x1d435;" xlink:href="#font_4_1442" transform="matrix(9.96264,0,0,-9.96264,133.345,49.716005)"/>
<use data-text="|" xlink:href="#font_1_125" transform="matrix(9.96264,0,0,-9.96264,140.578,49.716005)"/>
<use data-text="|" xlink:href="#font_1_125" transform="matrix(9.96264,0,0,-9.96264,143.76605,49.716005)"/>
<path transform="matrix(1,0,0,-1,56.061998,60.407999)" stroke-width=".59776" stroke-linecap="butt" stroke-miterlimit="10" stroke-linejoin="miter" fill="none" stroke="#008000" d="M0 0H8.50412 17.00826"/>
<path transform="matrix(1,0,0,-1,56.061998,60.407999)" d="M8.50412 2.98883 10.74574 0 8.50412-2.98883 6.2625 0Z" fill="#008000" fill-opacity=".8"/>
<path transform="matrix(1,0,0,-1,56.061998,60.407999)" stroke-width=".59776" stroke-linecap="butt" stroke-miterlimit="10" stroke-linejoin="miter" fill="none" stroke="#008000" d="M8.50412 2.98883 10.74574 0 8.50412-2.98883 6.2625 0Z"/>
<use data-text="|" xlink:href="#font_1_125" transform="matrix(9.96264,0,0,-9.96264,75.361,64.127)"/>
<use data-text="|" xlink:href="#font_1_125" transform="matrix(9.96264,0,0,-9.96264,78.54904,64.127)"/>
<use data-text="&#x1d435;" xlink:href="#font_4_1442" transform="matrix(9.96264,0,0,-9.96264,81.737,64.127)"/>
<use data-text="T" xlink:href="#font_6_53" transform="matrix(7.47198,0,0,-7.47198,88.97,60.142)"/>
<use data-text="r" xlink:href="#font_6_83" transform="matrix(7.47198,0,0,-7.47198,93.35605,60.142)"/>
<use data-text="a" xlink:href="#font_6_66" transform="matrix(7.47198,0,0,-7.47198,95.82927,60.142)"/>
<use data-text="T" xlink:href="#font_6_53" transform="matrix(7.47198,0,0,-7.47198,99.14683,60.142)"/>
<use data-text="I" xlink:href="#font_6_42" transform="matrix(7.47198,0,0,-7.47198,103.712207,60.142)"/>
<use data-text="&#x2212;" xlink:href="#font_1_1155" transform="matrix(9.96264,0,0,-9.96264,108.823,64.127)"/>
<use data-text="&#x1d435;" xlink:href="#font_4_1442" transform="matrix(9.96264,0,0,-9.96264,117.861,64.127)"/>
<use data-text="|" xlink:href="#font_1_125" transform="matrix(9.96264,0,0,-9.96264,125.094,64.127)"/>
<use data-text="|" xlink:href="#font_1_125" transform="matrix(9.96264,0,0,-9.96264,128.28205,64.127)"/>
<use data-text="/" xlink:href="#font_1_48" transform="matrix(9.96264,0,0,-9.96264,131.4701,64.127)"/>
<use data-text="|" xlink:href="#font_1_125" transform="matrix(9.96264,0,0,-9.96264,134.2397,64.127)"/>
<use data-text="|" xlink:href="#font_1_125" transform="matrix(9.96264,0,0,-9.96264,137.42775,64.127)"/>
<use data-text="&#x1d435;" xlink:href="#font_4_1442" transform="matrix(9.96264,0,0,-9.96264,140.616,64.127)"/>
<use data-text="|" xlink:href="#font_1_125" transform="matrix(9.96264,0,0,-9.96264,147.849,64.127)"/>
<use data-text="|" xlink:href="#font_1_125" transform="matrix(9.96264,0,0,-9.96264,151.03705,64.127)"/>
</svg>
