<svg xmlns="http://www.w3.org/2000/svg" xmlns:xlink="http://www.w3.org/1999/xlink" xmlns:inkscape="http://www.inkscape.org/namespaces/inkscape" version="1.1" width="244.405" height="194.757" viewBox="0 0 244.405 194.757">
<defs>
<path id="font_1_49" d="M.37998963 .32505799C.37998963 .12722779 .33499146 .012313843 .25 .012313843 .1639862 .012313843 .11999512 .1262207 .11999512 .32904054 .11999512 .5318756 .16499329 .6497803 .24798584 .6497803 .33599855 .6497803 .37998963 .53286746 .37998963 .32505799M.47599793 .3300476C.47599793 .53486636 .3849945 .67578127 .2539978 .67578127 .09298706 .67578127 .023986817 .5128937 .023986817 .3360443 .023986817 .17218018 .07899475-.013671875 .25-.013671875 .41299439-.013671875 .47599793 .15818787 .47599793 .3300476Z"/>
<path id="font_1_3177" d="M.56799319 .4284668H.28599549C.18199158 .4284668 .117996219 .38246156 .07398987 .3024292H.08999634C.13398743 .35546876 .17098999 .35546876 .22898865 .35546876L.13999939 .14936829C.1269989 .12034607 .10899353 .09133911 .06599426 .079330448 .039993287 .07232666 .034988405 .046310426 .034988405 .031311037 .034988405 .007293701 .05999756-.0126953129 .085998538-.0126953129 .09799194-.0126953129 .11299133-.010696411 .12399292-.0017089844 .20799256 .061325075 .23899842 .23339844 .2849884 .35546876H.3789978C.35398866 .27142335 .32398988 .2013855 .30099488 .13035584 .29499818 .111343387 .2919922 .09133911 .2919922 .06832886 .2919922 .029159546 .30899049-.0068359377 .34899903-.0068359377 .4189911-.0068359377 .47200013 .06315613 .49299623 .13522339H.47698976C.45298768 .08117676 .4249878 .06915283 .4039917 .06915283 .38198854 .06915283 .3659973 .094177249 .3659973 .11720276 .3659973 .1842804 .4189911 .31240846 .43299867 .35546876H.54499819L.56799319 .4284668Z"/>
<path id="font_1_48" d="M.2869873 .67578127H.21998596L-.009002686-.013671875H.05899048L.2869873 .67578127Z"/>
<path id="font_1_57" d="M.2709961 .27209474C.33898927 .22613526 .36898805 .18617249 .36898805 .1242218 .36898805 .059280397 .32398988 .014328003 .25898744 .014328003 .18299866 .014328003 .13198853 .06626892 .13198853 .15820313 .13198853 .22314453 .15299988 .26409913 .21199036 .3120575L.2709961 .27209474M.35499574 .53286746C.35499574 .470932 .32899476 .42897035 .26098634 .3889923 .17298889 .4409485 .13598633 .48690797 .13598633 .54885867 .13598633 .6108093 .1789856 .6477661 .24598694 .6477661 .31399537 .6477661 .35499574 .60180667 .35499574 .53286746M.44499208 .15519715C.44499208 .23512268 .41299439 .28907777 .2899933 .37101747 .3889923 .42396546 .42399598 .45793153 .42399598 .53286746 .42399598 .6108093 .35499574 .67578127 .2559967 .67578127 .14498902 .67578127 .06199646 .61579897 .06199646 .5198822 .06199646 .4549408 .08299255 .41697694 .18598938 .3320465 .07899475 .2571106 .055999757 .21813965 .055999757 .14920044 .055999757 .055282594 .1349945-.013671875 .24798584-.013671875 .36799623-.013671875 .44499208 .05229187 .44499208 .15519715Z"/>
<path id="font_1_53" d="M.2919922 .23098755H.051986696L.2919922 .573822V.23098755M.47299195 .16699219V.23098755H.36999513V.67578127H.32598878L.011993408 .23098755V.16699219H.2919922V0H.36999513V.16699219H.47299195Z"/>
<path id="font_1_52" d="M.06098938 .50987246C.101989749 .58380129 .147995 .61576846 .20999146 .61576846 .27598573 .61576846 .31799317 .58180239 .31799317 .51387026 .31799317 .45292665 .28599549 .40795899 .23699951 .37998963 .21699524 .36799623 .19099427 .3570099 .15299988 .34402467V.33003236C.20999146 .33003236 .23298645 .32704164 .25498963 .3200531 .32398988 .3000641 .35899354 .2511139 .35899354 .17518616 .35899354 .09025574 .30299378 .022323609 .22898865 .022323609 .20098877 .022323609 .17999268 .027313233 .14299011 .05329895 .114990238 .073272708 .09899902 .07926941 .08198547 .07926941 .05899048 .07926941 .040985109 .06428528 .040985109 .043304445 .040985109 .0073242189 .07998657-.013671875 .15299988-.013671875 .24198914-.013671875 .33699037 .015319824 .3849945 .07926941 .4139862 .11723328 .43099977 .16618347 .43099977 .21913147 .43099977 .27108766 .4149933 .31704713 .3869934 .34802247 .3659973 .36999513 .34799195 .38198854 .3039856 .40097047 .37098695 .44093324 .39698792 .4908905 .39698792 .5388489 .39698792 .6207733 .33399964 .67578127 .24099732 .67578127 .13699341 .67578127 .07398987 .6087799 .04499817 .51387026L.06098938 .50987246Z"/>
<path id="font_1_51" d="M.47399903 .13696289 .45999146 .1429596C.4269867 .08699036 .4059906 .07598877 .3639984 .07598877H.12998963L.29499818 .2519226C.38398744 .34588624 .4229889 .42085267 .4229889 .4998169 .4229889 .59877017 .35099793 .67578127 .23799134 .67578127 .114990238 .67578127 .050994874 .5937805 .02999878 .4768219L.050994874 .47183229C.09098816 .5697937 .12599182 .6017761 .19799805 .6017761 .2829895 .6017761 .33699037 .55178835 .33699037 .4608307 .33699037 .37586976 .30099488 .29989625 .20698548 .200943L.0289917 .011993408V0H.41999818L.47399903 .13696289Z"/>
<path id="font_2_17" d="M.37998963 .32505799C.37998963 .12722779 .33499146 .012313843 .25 .012313843 .1639862 .012313843 .11999512 .1262207 .11999512 .32904054 .11999512 .5318756 .16499329 .6497803 .24798584 .6497803 .33599855 .6497803 .37998963 .53286746 .37998963 .32505799M.47599793 .3300476C.47599793 .53486636 .3849945 .67578127 .2539978 .67578127 .09298706 .67578127 .023986817 .5128937 .023986817 .3360443 .023986817 .17218018 .07899475-.013671875 .25-.013671875 .41299439-.013671875 .47599793 .15818787 .47599793 .3300476Z"/>
<path id="font_2_15" d="M.18099976 .04324341C.18099976 .07325745 .15499878 .100250247 .12599182 .100250247 .09498596 .100250247 .069992069 .07525635 .069992069 .04425049 .069992069 .013244629 .09399414-.0107421879 .125-.0107421879 .15499878-.0107421879 .18099976 .014251709 .18099976 .04324341Z"/>
<path id="font_2_22" d="M.43798829 .68110659 .42900086 .6880951C.41299439 .667099 .4039917 .6621094 .3809967 .6621094H.17399597L.06498718 .4251709C.06498718 .4251709 .06399536 .42216493 .06399536 .42016603 .06399536 .4141693 .066986087 .4121704 .07598877 .4121704 .17199707 .4121704 .24198914 .380188 .2889862 .3421936 .33399964 .30621339 .35598756 .2562256 .35598756 .19226074 .35598756 .106292728 .29100038 .02331543 .22099304 .02331543 .20098877 .02331543 .17799378 .032318117 .1499939 .05531311 .117996219 .08129883 .09899902 .08630371 .07598877 .08630371 .04798889 .08630371 .0309906 .07330322 .0309906 .048309328 .0309906 .010314941 .08299255-.013671875 .1579895-.013671875 .22599793-.013671875 .2809906 .0013275147 .32798768 .035308839 .3959961 .08529663 .42599488 .14727783 .42599488 .24324036 .42599488 .29621888 .4169922 .334198 .3909912 .37019349 .33399964 .4491577 .28399659 .47114564 .14099121 .49813844L.18099976 .58309939H.375C.3909912 .58309939 .39898683 .58909609 .4019928 .59609988L.43798829 .68110659Z"/>
<path id="font_2_18" d="M.3939972 0V.01499939C.31900025 .01499939 .29899598 .032989503 .29899598 .07597351V.67277529L.2899933 .67578127 .11099243 .5847931V.5708008L.13798523 .5807953C.1559906 .5877991 .17298889 .59280398 .18299866 .59280398 .20399475 .59280398 .21299744 .57780459 .21299744 .543808V.0949707C.21299744 .039978029 .19198609 .018997193 .117996219 .01499939V0H.3939972Z"/>
<clipPath id="clip_3">
<path transform="matrix(1,0,0,-1,46.747,163.58402)" d="M0 0H194.27433V161.39438H0Z"/>
</clipPath>
<path id="font_1_3193" d="M.6899872 .35546876C.69799807 .3364563 .70199587 .31443788 .70199587 .28442384 .70199587 .19836426 .625 .019256592 .5369873 .019256592 .48399354 .019256592 .46699525 .06628418 .46699525 .11631775 .5029907 .16835022 .522995 .21037293 .522995 .26541139 .522995 .3024292 .5059967 .32144166 .48298646 .32144166 .4189911 .32144166 .4139862 .22537232 .4139862 .17234802 .4139862 .15834046 .41600038 .13632202 .41799928 .12130737 .40499879 .075286868 .34899903 .019256592 .29100038 .019256592 .24598694 .019256592 .22299195 .0632782 .22299195 .109313968 .22299195 .20936585 .2599945 .2984314 .31900025 .35546876H.6899872M.8659973 .4284668H.23699951C.13999939 .4284668 .056991579 .3464508 .02999878 .2684021H.04598999C.07899475 .31744386 .1269989 .35546876 .18099976 .35546876H.23098755C.17399597 .30142213 .14099121 .23239136 .14099121 .14732361 .14099121 .07829285 .1769867-.0107421879 .2789917-.0107421879 .34498597-.0107421879 .3919983 .025253296 .43299867 .075286868 .43699647 .024246216 .47799684-.0107421879 .5369873-.0107421879 .6409912-.0107421879 .7819977 .10229492 .7819977 .27241517 .7819977 .306427 .776001 .33244325 .7639923 .35546876H.84399417L.8659973 .4284668Z"/>
<path id="font_1_125" d="M.19299317-.18901062V.6899872H.1269989V-.18901062H.19299317Z"/>
<path id="font_1_962" d="M.16899109 .11824036C.1599884 .12522888 .1539917 .13522339 .147995 .1452179 .11099243 .20117188 .08898926 .26411439 .08898926 .3320465 .08898926 .41596986 .12199402 .48989869 .16899109 .55784609V.11824036M.6319885 .1592102C.55400088 .07827759 .49598695 .030319214 .37799073 .030319214 .33099366 .030319214 .25 .050308229 .21299744 .08027649V.5828247C.2579956 .6137848 .32499696 .6317749 .3789978 .6317749 .49798585 .6317749 .5519867 .5838165 .6299896 .50289919L.6609955 .53385928C.58399966 .6267853 .49699403 .67578127 .375 .67578127 .17298889 .67578127 .04499817 .5288696 .04499817 .3320465 .04499817 .14022827 .17599488-.013671875 .37399293-.013671875 .49598695-.013671875 .58599856 .035308839 .6629944 .12823487L.6319885 .1592102Z"/>
<path id="font_4_1160" d="M.45700074 .3371582C.45700074 .35816957 .44198609 .37916566 .42099 .37916566 .4139862 .37916566 .40699769 .37716676 .39898683 .37316896 .37199403 .35716249 .34498597 .3041687 .272995 .26615907 .272995 .3351593 .3019867 .40016175 .3019867 .4311676 .3019867 .4521637 .28199769 .4711609 .2639923 .4711609 .24499512 .4711609 .22599793 .4521637 .22599793 .4311676 .22599793 .40016175 .25498963 .33416749 .25498963 .26516725 .19799805 .29516603 .1539917 .35617066 .125 .37316896 .116989139 .37716676 .10998535 .37916566 .102996829 .37916566 .08198547 .37916566 .066986087 .35816957 .066986087 .3371582 .066986087 .32615663 .07398987 .3151703 .08699036 .30715943 .114990238 .29016114 .19198609 .28016664 .24398804 .25016786 .19198609 .22016907 .117996219 .2101593 .09098816 .19515991 .07598877 .18615723 .069992069 .17016602 .069992069 .15615845 .069992069 .13916016 .08299255 .12416077 .10699463 .12416077 .115997318 .12416077 .125 .12716675 .13398743 .13215637 .1559906 .14416504 .20298767 .20716858 .25498963 .23716736 .25498963 .16816712 .22599793 .106170658 .22599793 .075164798 .22599793 .0541687 .24499512 .03315735 .2639923 .03315735 .28199769 .03315735 .3019867 .0541687 .3019867 .075164798 .3019867 .106170658 .272995 .16816712 .272995 .23716736 .34999085 .19316101 .375 .123168949 .41600038 .123168949 .44099427 .123168949 .45498658 .14216614 .45498658 .16217041 .45498658 .17416382 .44799806 .18615723 .43399049 .19416809 .40699769 .2101593 .34298707 .21316529 .27999879 .25016786 .35198976 .2911682 .4099884 .2911682 .43499757 .3061676 .44898988 .3141632 .45700074 .32615663 .45700074 .3371582Z"/>
<path id="font_1_1155" d="M.62098696 .22012329V.2861328H.06399536V.22012329H.62098696Z"/>
<path id="font_5_38" d="M.5970001 .16905213H.56900027C.5239868 .06300354 .48098756 .036987306 .33799745 .036987306H.3019867C.22799683 .036987306 .20098877 .041992189 .20098877 .08401489V.32714845H.35198976C.43798829 .32714845 .45298768 .3141327 .46499635 .23008728H.48799134V.4641266H.46499635C.45298768 .38513185 .43798829 .36813355 .35198976 .36813355H.20098877V.58810427C.20098877 .6201019 .20799256 .62409976 .23599243 .62409976H.36698915C.48298646 .62409976 .5059967 .60910037 .5209961 .51911929H.54599L.5419922 .6621094H.011993408V.6430969C.08699036 .6390991 .09899902 .62409976 .09899902 .55010989V.11402893C.09899902 .036987306 .08898926 .023986817 .011993408 .018997193V0H.5509949L.5970001 .16905213Z"/>
<path id="font_5_53" d="M.59298709 .4920807 .58599856 .6621094H.023986817L.016998291 .4920807H.040985109C.06098938 .60209658 .08799744 .6201019 .19400025 .6201019H.2539978V.12301636C.2539978 .034988405 .24299622 .023986817 .1599884 .018997193V0H.45199586V.018997193C.36999513 .022994996 .35598756 .034988405 .35598756 .11100769V.6201019H.4149933C.5209961 .6201019 .5469971 .60209658 .56900027 .4920807H.59298709Z"/>
<path id="font_5_42" d="M.31498719 0V.018997193C.23298645 .021987915 .21699524 .037002565 .21699524 .11201477V.5510864C.21699524 .6271057 .23098755 .6390991 .31498719 .6430969V.6621094H.017990113V.6430969C.102996829 .6381073 .114990238 .63009646 .114990238 .5510864V.11201477C.114990238 .033996583 .101989749 .021987915 .017990113 .018997193V0H.31498719Z"/>
<path id="font_5_48" d="M.57398989 .33703614C.57398989 .21714783 .54599 .12322998 .4909973 .07028198 .45599366 .03730774 .4119873 .022323609 .3619995 .022323609 .31599427 .022323609 .27198792 .03630066 .23799134 .067276 .1769867 .12322998 .147995 .21315003 .147995 .3320465 .147995 .42695619 .17399597 .52388 .21699524 .5728302 .2559967 .6177826 .30599977 .6397705 .3600006 .6397705 .40699769 .6397705 .44699098 .6227875 .48298646 .59280398 .5399933 .54486086 .57398989 .450943 .57398989 .33703614M.6879883 .33103944C.6879883 .5288696 .5569916 .67578127 .36099244 .67578127 .1659851 .67578127 .033996583 .53686526 .033996583 .3340454 .033996583 .1262207 .16699219-.013671875 .36099244-.013671875 .5529938-.013671875 .6879883 .12522888 .6879883 .33103944Z"/>
<path id="font_5_83" d="M.1599884 .45794679 .15499878 .45996095C.101989749 .43894959 .06599426 .42495729 .0069885256 .40596009V.3899536C.020996094 .3929596 .02999878 .39396668 .041992189 .39396668 .066986087 .39396668 .07598877 .3779602 .07598877 .33396913V.083984378C.07598877 .033996583 .068984989 .026992798 .004989624 .01499939V0H.24499512V.01499939C.1769867 .017990113 .1599884 .032989503 .1599884 .08998108V.31497193C.1599884 .3469696 .20199585 .3969574 .22999573 .3969574 .23599243 .3969574 .24499512 .3919525 .2559967 .381958 .27198792 .36695863 .2829895 .361969 .29599 .361969 .31999208 .361969 .33499146 .3789673 .33499146 .4069519 .33499146 .43995667 .31399537 .45996095 .27999879 .45996095 .23799134 .45996095 .20999146 .43795777 .1599884 .3659668V.45794679Z"/>
<path id="font_5_66" d="M.2869873 .12716675C.2869873 .09819031 .2809906 .084198 .2519989 .064208988 .23498535 .053222658 .21398926 .048233034 .19400025 .048233034 .15499878 .048233034 .125 .07220459 .125 .12516785 .125 .15615845 .1349945 .18013 .15899658 .20211792 .18399048 .22509766 .22499085 .24609375 .2869873 .2680664V.12716675M.44198609 .066207889C.4249878 .052230836 .4149933 .047225954 .39898683 .047225954 .3809967 .047225954 .36799623 .067214969 .36799623 .11317444V.30404664C.36799623 .3650055 .3639984 .38598634 .33999635 .41496278 .31599427 .44395448 .27799989 .45996095 .22200012 .45996095 .1769867 .45996095 .1349945 .44795228 .10699463 .42996217 .07199097 .40797425 .055999757 .37599183 .055999757 .35002137 .055999757 .32302857 .07798767 .30404664 .09899902 .30404664 .125 .30404664 .14498902 .32603456 .14498902 .34501649 .14498902 .3659973 .13899231 .3690033 .13899231 .3869934 .13899231 .41397096 .16899109 .43595887 .20899964 .43595887 .2539978 .43595887 .2869873 .40797425 .2869873 .34602357V.29205323C.17399597 .25009156 .13699341 .23109436 .10699463 .21110535 .067993167 .18513489 .036987306 .14616394 .036987306 .094192508 .036987306 .02822876 .07998657-.009765625 .14199829-.009765625 .18499756-.009765625 .23399353 .0032196046 .2869873 .06321716H.28799439C.29299928 .010223389 .31498719-.009765625 .35198976-.009765625 .38598634-.009765625 .4119873 .00022888184 .44198609 .038223268V.066207889Z"/>
</defs>
<path transform="matrix(1,0,0,-1,46.747,163.58402)" stroke-width=".3985" stroke-linecap="butt" stroke-miterlimit="10" stroke-linejoin="miter" fill="none" stroke="#b0b0b0" d="M8.83064 0V161.39438M52.98177 0V161.39438M97.13625 0V161.39438M141.28961 0V161.39438M185.44297 0V161.39438"/>
<path transform="matrix(1,0,0,-1,46.747,163.58402)" stroke-width=".3985" stroke-linecap="butt" stroke-miterlimit="10" stroke-linejoin="miter" fill="none" stroke="#b0b0b0" d="M0 9.49377H194.27433M0 56.96272H194.27433M0 104.43166H194.27433M0 151.90059H194.27433"/>
<path transform="matrix(1,0,0,-1,46.747,163.58402)" stroke-width=".19925" stroke-linecap="butt" stroke-miterlimit="10" stroke-linejoin="miter" fill="none" stroke="#000000" d="M8.83064-4.25142V0M52.98177-4.25142V0M97.13625-4.25142V0M141.28961-4.25142V0M185.44297-4.25142V0"/>
<path transform="matrix(1,0,0,-1,46.747,163.58402)" stroke-width=".19925" stroke-linecap="butt" stroke-miterlimit="10" stroke-linejoin="miter" fill="none" stroke="#000000" d="M-4.25243 9.49377H0M-4.25243 56.96272H0M-4.25243 104.43166H0M-4.25243 151.90059H0"/>
<path transform="matrix(1,0,0,-1,46.747,163.58402)" stroke-width=".3985" stroke-linecap="butt" stroke-miterlimit="10" stroke-linejoin="miter" fill="none" stroke="#000000" d="M0 0V161.39438H194.27433V0H0Z"/>
<use data-text="0" xlink:href="#font_1_49" transform="matrix(9.96264,0,0,-9.96264,53.087,178.09003)"/>
<use data-text="&#x1d70b;" xlink:href="#font_1_3177" transform="matrix(9.96264,0,0,-9.96264,92.824008,178.09003)"/>
<use data-text="/" xlink:href="#font_1_48" transform="matrix(9.96264,0,0,-9.96264,98.88129,178.09003)"/>
<use data-text="8" xlink:href="#font_1_57" transform="matrix(9.96264,0,0,-9.96264,101.6509,178.09003)"/>
<use data-text="&#x1d70b;" xlink:href="#font_1_3177" transform="matrix(9.96264,0,0,-9.96264,136.978,178.09003)"/>
<use data-text="/" xlink:href="#font_1_48" transform="matrix(9.96264,0,0,-9.96264,143.0353,178.09003)"/>
<use data-text="4" xlink:href="#font_1_53" transform="matrix(9.96264,0,0,-9.96264,145.8049,178.09003)"/>
<use data-text="3" xlink:href="#font_1_52" transform="matrix(9.96264,0,0,-9.96264,178.64002,178.09003)"/>
<use data-text="&#x1d70b;" xlink:href="#font_1_3177" transform="matrix(9.96264,0,0,-9.96264,183.62134,178.09003)"/>
<use data-text="/" xlink:href="#font_1_48" transform="matrix(9.96264,0,0,-9.96264,189.67864,178.09003)"/>
<use data-text="8" xlink:href="#font_1_57" transform="matrix(9.96264,0,0,-9.96264,192.44824,178.09003)"/>
<use data-text="&#x1d70b;" xlink:href="#font_1_3177" transform="matrix(9.96264,0,0,-9.96264,225.28299,178.09003)"/>
<use data-text="/" xlink:href="#font_1_48" transform="matrix(9.96264,0,0,-9.96264,231.34029,178.09003)"/>
<use data-text="2" xlink:href="#font_1_51" transform="matrix(9.96264,0,0,-9.96264,234.1099,178.09003)"/>
<use data-text="0" xlink:href="#font_2_17" transform="matrix(9.96264,0,0,-9.96264,33.993005,157.38802)"/>
<use data-text="0" xlink:href="#font_2_17" transform="matrix(9.96264,0,0,-9.96264,21.54,109.98002)"/>
<use data-text="." xlink:href="#font_2_15" transform="matrix(9.96264,0,0,-9.96264,26.52132,109.98002)"/>
<use data-text="0" xlink:href="#font_2_17" transform="matrix(9.96264,0,0,-9.96264,29.01198,109.98002)"/>
<use data-text="5" xlink:href="#font_2_22" transform="matrix(9.96264,0,0,-9.96264,33.9933,109.98002)"/>
<use data-text="0" xlink:href="#font_2_17" transform="matrix(9.96264,0,0,-9.96264,26.521002,62.45201)"/>
<use data-text="." xlink:href="#font_2_15" transform="matrix(9.96264,0,0,-9.96264,31.502322,62.45201)"/>
<use data-text="1" xlink:href="#font_2_18" transform="matrix(9.96264,0,0,-9.96264,33.99298,62.45201)"/>
<use data-text="0" xlink:href="#font_2_17" transform="matrix(9.96264,0,0,-9.96264,21.54,15.043015)"/>
<use data-text="." xlink:href="#font_2_15" transform="matrix(9.96264,0,0,-9.96264,26.52132,15.043015)"/>
<use data-text="1" xlink:href="#font_2_18" transform="matrix(9.96264,0,0,-9.96264,29.01198,15.043015)"/>
<use data-text="5" xlink:href="#font_2_22" transform="matrix(9.96264,0,0,-9.96264,33.9933,15.043015)"/>
<g clip-path="url(#clip_3)">
<path transform="matrix(1,0,0,-1,46.747,163.58402)" stroke-width=".59776" stroke-linecap="butt" stroke-miterlimit="10" stroke-linejoin="miter" fill="none" stroke="#ff0000" d="M8.83069 69.03687H12.36298 15.89525 19.4275 22.9598 26.49207 30.02434 33.55663 37.0889 40.62117 44.15344 47.68573 51.218 54.75027 58.28255 61.81482 65.34709 68.87938 72.41165 75.94392 79.4762 83.00848 86.54076 90.07303 93.6053 97.13757 100.66985 104.20213 107.7344 111.26668 114.79895 118.33124 121.86351 125.39578 128.92806 132.46033 135.9926 139.52489 143.05716 146.58943 150.1217 153.65399 157.18627 160.71854 164.25083 167.78308 171.31536 174.84764 178.37992 181.91219 185.44446"/>
<path transform="matrix(1,0,0,-1,46.747,163.58402)" stroke-width=".59776" stroke-linecap="butt" stroke-miterlimit="10" stroke-linejoin="miter" fill="none" stroke="#bf00bf" d="M8.83069 72.82054H12.36298 15.89525 19.4275 22.9598 26.49207 30.02434 33.55663 37.0889 40.62117 44.15344 47.68573 51.218 54.75027 58.28255 61.81482 65.34709 68.87938 72.41165 75.94392 79.4762 83.00848 86.54076 90.07303 93.6053 97.13757 100.66985 104.20213 107.7344 111.26668 114.79895 118.33124 121.86351 125.39578 128.92806 132.46033 135.9926 139.52489 143.05716 146.58943 150.1217 153.65399 157.18627 160.71854 164.25083 167.78308 171.31536 174.84764 178.37992 181.91219 185.44446"/>
<path transform="matrix(1,0,0,-1,46.747,163.58402)" stroke-width=".59776" stroke-linecap="butt" stroke-miterlimit="10" stroke-linejoin="miter" fill="none" stroke="#008000" d="M8.83069 9.4938 12.36298 14.46318 15.89525 19.39613 19.4275 24.2565 22.9598 29.00873 26.49207 33.61815 30.02434 38.05135 33.55663 42.27643 37.0889 46.26353 40.62117 49.98514 44.15344 53.41655 47.68573 56.53653 51.218 59.32773 54.75027 61.77731 58.28255 63.87762 61.81482 65.62679 65.34709 67.02936 68.87938 68.09682 72.41165 68.84805 75.94392 69.30956 79.4762 69.51547 83.00848 69.50713 86.54076 69.33224 90.07303 69.04341 93.6053 68.69609 97.13757 68.34576 100.66985 68.0446 104.20213 67.83768 107.7344 67.75952 111.26668 67.83086 114.79895 68.05684 118.33124 68.42664 121.86351 68.91473 125.39578 69.4836 128.92806 70.0874 132.46033 70.67625 135.9926 71.2004 139.52489 71.6142 143.05716 71.8796 146.58943 71.96895 150.1217 71.86726 153.65399 71.5738 157.18627 71.10292 160.71854 70.48402 164.25083 69.76057 167.78308 68.98772 171.31536 68.22853 174.84764 67.54878 178.37992 67.01051 181.91219 66.66487 185.44446 66.54573"/>
</g>
<path transform="matrix(1,0,0,-1,46.747,163.58402)" d="M11.81952 69.03687C11.81952 70.68756 10.48138 72.0257 8.83069 72.0257 7.17998 72.0257 5.84186 70.68756 5.84186 69.03687 5.84186 67.38615 7.17998 66.04803 8.83069 66.04803 10.48138 66.04803 11.81952 67.38615 11.81952 69.03687ZM8.83069 69.03687" fill="#ff0000"/>
<path transform="matrix(1,0,0,-1,46.747,163.58402)" stroke-width=".59776" stroke-linecap="butt" stroke-miterlimit="10" stroke-linejoin="miter" fill="none" stroke="#ff0000" d="M11.81952 69.03687C11.81952 70.68756 10.48138 72.0257 8.83069 72.0257 7.17998 72.0257 5.84186 70.68756 5.84186 69.03687 5.84186 67.38615 7.17998 66.04803 8.83069 66.04803 10.48138 66.04803 11.81952 67.38615 11.81952 69.03687ZM8.83069 69.03687"/>
<path transform="matrix(1,0,0,-1,46.747,163.58402)" d="M100.1264 69.03687C100.1264 70.68756 98.78828 72.0257 97.13757 72.0257 95.48688 72.0257 94.14874 70.68756 94.14874 69.03687 94.14874 67.38615 95.48688 66.04803 97.13757 66.04803 98.78828 66.04803 100.1264 67.38615 100.1264 69.03687ZM97.13757 69.03687" fill="#ff0000"/>
<path transform="matrix(1,0,0,-1,46.747,163.58402)" stroke-width=".59776" stroke-linecap="butt" stroke-miterlimit="10" stroke-linejoin="miter" fill="none" stroke="#ff0000" d="M100.1264 69.03687C100.1264 70.68756 98.78828 72.0257 97.13757 72.0257 95.48688 72.0257 94.14874 70.68756 94.14874 69.03687 94.14874 67.38615 95.48688 66.04803 97.13757 66.04803 98.78828 66.04803 100.1264 67.38615 100.1264 69.03687ZM97.13757 69.03687"/>
<path transform="matrix(1,0,0,-1,46.747,163.58402)" d="M188.43329 69.03687C188.43329 70.68756 187.09517 72.0257 185.44446 72.0257 183.79375 72.0257 182.45563 70.68756 182.45563 69.03687 182.45563 67.38615 183.79375 66.04803 185.44446 66.04803 187.09517 66.04803 188.43329 67.38615 188.43329 69.03687ZM185.44446 69.03687" fill="#ff0000"/>
<path transform="matrix(1,0,0,-1,46.747,163.58402)" stroke-width=".59776" stroke-linecap="butt" stroke-miterlimit="10" stroke-linejoin="miter" fill="none" stroke="#ff0000" d="M188.43329 69.03687C188.43329 70.68756 187.09517 72.0257 185.44446 72.0257 183.79375 72.0257 182.45563 70.68756 182.45563 69.03687 182.45563 67.38615 183.79375 66.04803 185.44446 66.04803 187.09517 66.04803 188.43329 67.38615 188.43329 69.03687ZM185.44446 69.03687"/>
<path transform="matrix(1,0,0,-1,46.747,163.58402)" stroke-width=".59776" stroke-linecap="butt" stroke-miterlimit="10" stroke-linejoin="miter" fill="none" stroke="#ff0000" d=""/>
<path transform="matrix(1,0,0,-1,46.747,163.58402)" stroke-width=".59776" stroke-linecap="butt" stroke-miterlimit="10" stroke-linejoin="miter" fill="none" stroke="#bf00bf" d="M6.71725 70.7071 10.9441 74.93396M6.71725 74.93396 10.9441 70.7071"/>
<path transform="matrix(1,0,0,-1,46.747,163.58402)" stroke-width=".59776" stroke-linecap="butt" stroke-miterlimit="10" stroke-linejoin="miter" fill="none" stroke="#bf00bf" d="M95.02415 70.7071 99.251 74.93396M95.02415 74.93396 99.251 70.7071"/>
<path transform="matrix(1,0,0,-1,46.747,163.58402)" stroke-width=".59776" stroke-linecap="butt" stroke-miterlimit="10" stroke-linejoin="miter" fill="none" stroke="#bf00bf" d="M183.33104 70.7071 187.55788 74.93396M183.33104 74.93396 187.55788 70.7071"/>
<path transform="matrix(1,0,0,-1,46.747,163.58402)" stroke-width=".59776" stroke-linecap="butt" stroke-miterlimit="10" stroke-linejoin="miter" fill="none" stroke="#bf00bf" d=""/>
<path transform="matrix(1,0,0,-1,46.747,163.58402)" d="M8.83069 12.48264 11.07231 9.4938 8.83069 6.50497 6.58907 9.4938Z" fill="#008000"/>
<path transform="matrix(1,0,0,-1,46.747,163.58402)" stroke-width=".59776" stroke-linecap="butt" stroke-miterlimit="10" stroke-linejoin="miter" fill="none" stroke="#008000" d="M8.83069 12.48264 11.07231 9.4938 8.83069 6.50497 6.58907 9.4938Z"/>
<path transform="matrix(1,0,0,-1,46.747,163.58402)" d="M97.13757 71.3346 99.3792 68.34576 97.13757 65.35693 94.89595 68.34576Z" fill="#008000"/>
<path transform="matrix(1,0,0,-1,46.747,163.58402)" stroke-width=".59776" stroke-linecap="butt" stroke-miterlimit="10" stroke-linejoin="miter" fill="none" stroke="#008000" d="M97.13757 71.3346 99.3792 68.34576 97.13757 65.35693 94.89595 68.34576Z"/>
<path transform="matrix(1,0,0,-1,46.747,163.58402)" d="M185.44446 69.53456 187.68608 66.54573 185.44446 63.5569 183.20284 66.54573Z" fill="#008000"/>
<path transform="matrix(1,0,0,-1,46.747,163.58402)" stroke-width=".59776" stroke-linecap="butt" stroke-miterlimit="10" stroke-linejoin="miter" fill="none" stroke="#008000" d="M185.44446 69.53456 187.68608 66.54573 185.44446 63.5569 183.20284 66.54573Z"/>
<path transform="matrix(1,0,0,-1,46.747,163.58402)" stroke-width=".59776" stroke-linecap="butt" stroke-miterlimit="10" stroke-linejoin="miter" fill="none" stroke="#008000" d=""/>
<use data-text="&#x1d71b;" xlink:href="#font_1_3193" transform="matrix(9.96264,0,0,-9.96264,139.619,189.33402)"/>
<use data-text="|" xlink:href="#font_1_125" transform="matrix(0,-9.96264,-9.96264,-0,12.817001,115.34502)"/>
<use data-text="|" xlink:href="#font_1_125" transform="matrix(0,-9.96264,-9.96264,-0,12.817001,112.156978)"/>
<use data-text="&#x2102;" xlink:href="#font_1_962" transform="matrix(0,-9.96264,-9.96264,-0,12.817001,108.968929)"/>
<use data-text="&#x2217;" xlink:href="#font_4_1160" transform="matrix(0,-7.47198,-7.47198,-0,8.832001,101.94502)"/>
<use data-text="&#x2212;" xlink:href="#font_1_1155" transform="matrix(0,-9.96264,-9.96264,-0,12.817001,95.415019)"/>
<use data-text="&#x2102;" xlink:href="#font_1_962" transform="matrix(0,-9.96264,-9.96264,-0,12.817001,86.3789)"/>
<use data-text="|" xlink:href="#font_1_125" transform="matrix(0,-9.96264,-9.96264,-0,12.817001,79.35524)"/>
<use data-text="|" xlink:href="#font_1_125" transform="matrix(0,-9.96264,-9.96264,-0,12.817001,76.16719)"/>
<use data-text="/" xlink:href="#font_1_48" transform="matrix(0,-9.96264,-9.96264,-0,12.817001,72.97914)"/>
<use data-text="|" xlink:href="#font_1_125" transform="matrix(0,-9.96264,-9.96264,-0,12.817001,70.20953)"/>
<use data-text="|" xlink:href="#font_1_125" transform="matrix(0,-9.96264,-9.96264,-0,12.817001,67.021488)"/>
<use data-text="&#x2102;" xlink:href="#font_1_962" transform="matrix(0,-9.96264,-9.96264,-0,12.817001,63.833444)"/>
<use data-text="|" xlink:href="#font_1_125" transform="matrix(0,-9.96264,-9.96264,-0,12.817001,56.809785)"/>
<use data-text="|" xlink:href="#font_1_125" transform="matrix(0,-9.96264,-9.96264,-0,12.817001,53.621744)"/>
<path transform="matrix(1,0,0,-1,46.747,163.58402)" d="M82.44135 109.03052H188.24709V156.35349H82.44135Z" fill="#ffffff" fill-opacity=".8"/>
<path transform="matrix(1,0,0,-1,46.747,163.58402)" stroke-width=".3985" stroke-linecap="butt" stroke-miterlimit="10" stroke-linejoin="miter" fill="none" stroke="#cccccc" d="M82.44135 109.03052H188.24709V156.35349H82.44135Z"/>
<path transform="matrix(1,0,0,-1,132.47499,16.431017)" stroke-width=".59776" stroke-linecap="butt" stroke-miterlimit="10" stroke-linejoin="miter" fill="none" stroke="#ff0000" d="M0 0H8.50412 17.00826"/>
<path transform="matrix(1,0,0,-1,132.47499,16.431017)" d="M11.49295 0C11.49295 1.6507 10.15482 2.98883 8.50412 2.98883 6.85341 2.98883 5.51529 1.6507 5.51529 0 5.51529-1.6507 6.85341-2.98883 8.50412-2.98883 10.15482-2.98883 11.49295-1.6507 11.49295 0ZM8.50412 0" fill="#ff0000" fill-opacity=".8"/>
<path transform="matrix(1,0,0,-1,132.47499,16.431017)" stroke-width=".59776" stroke-linecap="butt" stroke-miterlimit="10" stroke-linejoin="miter" fill="none" stroke="#ff0000" d="M11.49295 0C11.49295 1.6507 10.15482 2.98883 8.50412 2.98883 6.85341 2.98883 5.51529 1.6507 5.51529 0 5.51529-1.6507 6.85341-2.98883 8.50412-2.98883 10.15482-2.98883 11.49295-1.6507 11.49295 0ZM8.50412 0"/>
<use data-text="|" xlink:href="#font_1_125" transform="matrix(9.96264,0,0,-9.96264,151.77399,20.149018)"/>
<use data-text="|" xlink:href="#font_1_125" transform="matrix(9.96264,0,0,-9.96264,154.96204,20.149018)"/>
<use data-text="&#x2102;" xlink:href="#font_1_962" transform="matrix(9.96264,0,0,-9.96264,158.15009,20.149018)"/>
<use data-text="E" xlink:href="#font_5_38" transform="matrix(7.47198,0,0,-7.47198,165.17398,16.164017)"/>
<use data-text="T" xlink:href="#font_5_53" transform="matrix(7.47198,0,0,-7.47198,169.73937,16.164017)"/>
<use data-text="I" xlink:href="#font_5_42" transform="matrix(7.47198,0,0,-7.47198,174.30475,16.164017)"/>
<use data-text="&#x2212;" xlink:href="#font_1_1155" transform="matrix(9.96264,0,0,-9.96264,179.41498,20.149018)"/>
<use data-text="&#x2102;" xlink:href="#font_1_962" transform="matrix(9.96264,0,0,-9.96264,188.45108,20.149018)"/>
<use data-text="|" xlink:href="#font_1_125" transform="matrix(9.96264,0,0,-9.96264,195.47475,20.149018)"/>
<use data-text="|" xlink:href="#font_1_125" transform="matrix(9.96264,0,0,-9.96264,198.6628,20.149018)"/>
<use data-text="/" xlink:href="#font_1_48" transform="matrix(9.96264,0,0,-9.96264,201.85085,20.149018)"/>
<use data-text="|" xlink:href="#font_1_125" transform="matrix(9.96264,0,0,-9.96264,204.62046,20.149018)"/>
<use data-text="|" xlink:href="#font_1_125" transform="matrix(9.96264,0,0,-9.96264,207.8085,20.149018)"/>
<use data-text="&#x2102;" xlink:href="#font_1_962" transform="matrix(9.96264,0,0,-9.96264,210.99655,20.149018)"/>
<use data-text="|" xlink:href="#font_1_125" transform="matrix(9.96264,0,0,-9.96264,218.02022,20.149018)"/>
<use data-text="|" xlink:href="#font_1_125" transform="matrix(9.96264,0,0,-9.96264,221.20827,20.149018)"/>
<path transform="matrix(1,0,0,-1,132.47499,30.894017)" stroke-width=".59776" stroke-linecap="butt" stroke-miterlimit="10" stroke-linejoin="miter" fill="none" stroke="#bf00bf" d="M0 0H8.50412 17.00826"/>
<path transform="matrix(1,0,0,-1,132.47499,30.894017)" stroke-width=".59776" stroke-linecap="butt" stroke-miterlimit="10" stroke-linejoin="miter" fill="none" stroke="#bf00bf" d="M6.39069-2.11342 10.61754 2.11342M6.39069 2.11342 10.61754-2.11342"/>
<use data-text="|" xlink:href="#font_1_125" transform="matrix(9.96264,0,0,-9.96264,151.77399,34.665025)"/>
<use data-text="|" xlink:href="#font_1_125" transform="matrix(9.96264,0,0,-9.96264,154.96204,34.665025)"/>
<use data-text="&#x2102;" xlink:href="#font_1_962" transform="matrix(9.96264,0,0,-9.96264,158.15009,34.665025)"/>
<use data-text="E" xlink:href="#font_5_38" transform="matrix(7.47198,0,0,-7.47198,165.17398,30.680024)"/>
<use data-text="O" xlink:href="#font_5_48" transform="matrix(7.47198,0,0,-7.47198,169.73937,30.680024)"/>
<use data-text="&#x2212;" xlink:href="#font_1_1155" transform="matrix(9.96264,0,0,-9.96264,177.75598,34.665025)"/>
<use data-text="&#x2102;" xlink:href="#font_1_962" transform="matrix(9.96264,0,0,-9.96264,186.79209,34.665025)"/>
<use data-text="|" xlink:href="#font_1_125" transform="matrix(9.96264,0,0,-9.96264,193.81575,34.665025)"/>
<use data-text="|" xlink:href="#font_1_125" transform="matrix(9.96264,0,0,-9.96264,197.0038,34.665025)"/>
<use data-text="/" xlink:href="#font_1_48" transform="matrix(9.96264,0,0,-9.96264,200.19185,34.665025)"/>
<use data-text="|" xlink:href="#font_1_125" transform="matrix(9.96264,0,0,-9.96264,202.96146,34.665025)"/>
<use data-text="|" xlink:href="#font_1_125" transform="matrix(9.96264,0,0,-9.96264,206.1495,34.665025)"/>
<use data-text="&#x2102;" xlink:href="#font_1_962" transform="matrix(9.96264,0,0,-9.96264,209.33756,34.665025)"/>
<use data-text="|" xlink:href="#font_1_125" transform="matrix(9.96264,0,0,-9.96264,216.36122,34.665025)"/>
<use data-text="|" xlink:href="#font_1_125" transform="matrix(9.96264,0,0,-9.96264,219.54927,34.665025)"/>
<path transform="matrix(1,0,0,-1,132.47499,45.357019)" stroke-width=".59776" stroke-linecap="butt" stroke-miterlimit="10" stroke-linejoin="miter" fill="none" stroke="#008000" d="M0 0H8.50412 17.00826"/>
<path transform="matrix(1,0,0,-1,132.47499,45.357019)" d="M8.50412 2.98883 10.74574 0 8.50412-2.98883 6.2625 0Z" fill="#008000" fill-opacity=".8"/>
<path transform="matrix(1,0,0,-1,132.47499,45.357019)" stroke-width=".59776" stroke-linecap="butt" stroke-miterlimit="10" stroke-linejoin="miter" fill="none" stroke="#008000" d="M8.50412 2.98883 10.74574 0 8.50412-2.98883 6.2625 0Z"/>
<use data-text="|" xlink:href="#font_1_125" transform="matrix(9.96264,0,0,-9.96264,151.77399,49.07602)"/>
<use data-text="|" xlink:href="#font_1_125" transform="matrix(9.96264,0,0,-9.96264,154.96204,49.07602)"/>
<use data-text="&#x2102;" xlink:href="#font_1_962" transform="matrix(9.96264,0,0,-9.96264,158.15009,49.07602)"/>
<use data-text="T" xlink:href="#font_5_53" transform="matrix(7.47198,0,0,-7.47198,165.17398,45.09102)"/>
<use data-text="r" xlink:href="#font_5_83" transform="matrix(7.47198,0,0,-7.47198,169.56005,45.09102)"/>
<use data-text="a" xlink:href="#font_5_66" transform="matrix(7.47198,0,0,-7.47198,172.03328,45.09102)"/>
<use data-text="T" xlink:href="#font_5_53" transform="matrix(7.47198,0,0,-7.47198,175.35085,45.09102)"/>
<use data-text="I" xlink:href="#font_5_42" transform="matrix(7.47198,0,0,-7.47198,179.91623,45.09102)"/>
<use data-text="&#x2212;" xlink:href="#font_1_1155" transform="matrix(9.96264,0,0,-9.96264,185.02698,49.07602)"/>
<use data-text="&#x2102;" xlink:href="#font_1_962" transform="matrix(9.96264,0,0,-9.96264,194.06308,49.07602)"/>
<use data-text="|" xlink:href="#font_1_125" transform="matrix(9.96264,0,0,-9.96264,201.08675,49.07602)"/>
<use data-text="|" xlink:href="#font_1_125" transform="matrix(9.96264,0,0,-9.96264,204.2748,49.07602)"/>
<use data-text="/" xlink:href="#font_1_48" transform="matrix(9.96264,0,0,-9.96264,207.46285,49.07602)"/>
<use data-text="|" xlink:href="#font_1_125" transform="matrix(9.96264,0,0,-9.96264,210.23246,49.07602)"/>
<use data-text="|" xlink:href="#font_1_125" transform="matrix(9.96264,0,0,-9.96264,213.4205,49.07602)"/>
<use data-text="&#x2102;" xlink:href="#font_1_962" transform="matrix(9.96264,0,0,-9.96264,216.60855,49.07602)"/>
<use data-text="|" xlink:href="#font_1_125" transform="matrix(9.96264,0,0,-9.96264,223.63222,49.07602)"/>
<use data-text="|" xlink:href="#font_1_125" transform="matrix(9.96264,0,0,-9.96264,226.82027,49.07602)"/>
</svg>
