<svg xmlns="http://www.w3.org/2000/svg" xmlns:xlink="http://www.w3.org/1999/xlink" xmlns:inkscape="http://www.inkscape.org/namespaces/inkscape" version="1.1" width="246.544" height="194.758" viewBox="0 0 246.544 194.758">
<defs>
<path id="font_1_49" d="M.37998963 .32505799C.37998963 .12722779 .33499146 .012313843 .25 .012313843 .1639862 .012313843 .11999512 .1262207 .11999512 .32904054 .11999512 .5318756 .16499329 .6497803 .24798584 .6497803 .33599855 .6497803 .37998963 .53286746 .37998963 .32505799M.47599793 .3300476C.47599793 .53486636 .3849945 .67578127 .2539978 .67578127 .09298706 .67578127 .023986817 .5128937 .023986817 .3360443 .023986817 .17218018 .07899475-.013671875 .25-.013671875 .41299439-.013671875 .47599793 .15818787 .47599793 .3300476Z"/>
<path id="font_1_3177" d="M.56799319 .4284668H.28599549C.18199158 .4284668 .117996219 .38246156 .07398987 .3024292H.08999634C.13398743 .35546876 .17098999 .35546876 .22898865 .35546876L.13999939 .14936829C.1269989 .12034607 .10899353 .09133911 .06599426 .079330448 .039993287 .07232666 .034988405 .046310426 .034988405 .031311037 .034988405 .007293701 .05999756-.0126953129 .085998538-.0126953129 .09799194-.0126953129 .11299133-.010696411 .12399292-.0017089844 .20799256 .061325075 .23899842 .23339844 .2849884 .35546876H.3789978C.35398866 .27142335 .32398988 .2013855 .30099488 .13035584 .29499818 .111343387 .2919922 .09133911 .2919922 .06832886 .2919922 .029159546 .30899049-.0068359377 .34899903-.0068359377 .4189911-.0068359377 .47200013 .06315613 .49299623 .13522339H.47698976C.45298768 .08117676 .4249878 .06915283 .4039917 .06915283 .38198854 .06915283 .3659973 .094177249 .3659973 .11720276 .3659973 .1842804 .4189911 .31240846 .43299867 .35546876H.54499819L.56799319 .4284668Z"/>
<path id="font_1_48" d="M.2869873 .67578127H.21998596L-.009002686-.013671875H.05899048L.2869873 .67578127Z"/>
<path id="font_1_57" d="M.2709961 .27209474C.33898927 .22613526 .36898805 .18617249 .36898805 .1242218 .36898805 .059280397 .32398988 .014328003 .25898744 .014328003 .18299866 .014328003 .13198853 .06626892 .13198853 .15820313 .13198853 .22314453 .15299988 .26409913 .21199036 .3120575L.2709961 .27209474M.35499574 .53286746C.35499574 .470932 .32899476 .42897035 .26098634 .3889923 .17298889 .4409485 .13598633 .48690797 .13598633 .54885867 .13598633 .6108093 .1789856 .6477661 .24598694 .6477661 .31399537 .6477661 .35499574 .60180667 .35499574 .53286746M.44499208 .15519715C.44499208 .23512268 .41299439 .28907777 .2899933 .37101747 .3889923 .42396546 .42399598 .45793153 .42399598 .53286746 .42399598 .6108093 .35499574 .67578127 .2559967 .67578127 .14498902 .67578127 .06199646 .61579897 .06199646 .5198822 .06199646 .4549408 .08299255 .41697694 .18598938 .3320465 .07899475 .2571106 .055999757 .21813965 .055999757 .14920044 .055999757 .055282594 .1349945-.013671875 .24798584-.013671875 .36799623-.013671875 .44499208 .05229187 .44499208 .15519715Z"/>
<path id="font_1_53" d="M.2919922 .23098755H.051986696L.2919922 .573822V.23098755M.47299195 .16699219V.23098755H.36999513V.67578127H.32598878L.011993408 .23098755V.16699219H.2919922V0H.36999513V.16699219H.47299195Z"/>
<path id="font_1_52" d="M.06098938 .50987246C.101989749 .58380129 .147995 .61576846 .20999146 .61576846 .27598573 .61576846 .31799317 .58180239 .31799317 .51387026 .31799317 .45292665 .28599549 .40795899 .23699951 .37998963 .21699524 .36799623 .19099427 .3570099 .15299988 .34402467V.33003236C.20999146 .33003236 .23298645 .32704164 .25498963 .3200531 .32398988 .3000641 .35899354 .2511139 .35899354 .17518616 .35899354 .09025574 .30299378 .022323609 .22898865 .022323609 .20098877 .022323609 .17999268 .027313233 .14299011 .05329895 .114990238 .073272708 .09899902 .07926941 .08198547 .07926941 .05899048 .07926941 .040985109 .06428528 .040985109 .043304445 .040985109 .0073242189 .07998657-.013671875 .15299988-.013671875 .24198914-.013671875 .33699037 .015319824 .3849945 .07926941 .4139862 .11723328 .43099977 .16618347 .43099977 .21913147 .43099977 .27108766 .4149933 .31704713 .3869934 .34802247 .3659973 .36999513 .34799195 .38198854 .3039856 .40097047 .37098695 .44093324 .39698792 .4908905 .39698792 .5388489 .39698792 .6207733 .33399964 .67578127 .24099732 .67578127 .13699341 .67578127 .07398987 .6087799 .04499817 .51387026L.06098938 .50987246Z"/>
<path id="font_1_51" d="M.47399903 .13696289 .45999146 .1429596C.4269867 .08699036 .4059906 .07598877 .3639984 .07598877H.12998963L.29499818 .2519226C.38398744 .34588624 .4229889 .42085267 .4229889 .4998169 .4229889 .59877017 .35099793 .67578127 .23799134 .67578127 .114990238 .67578127 .050994874 .5937805 .02999878 .4768219L.050994874 .47183229C.09098816 .5697937 .12599182 .6017761 .19799805 .6017761 .2829895 .6017761 .33699037 .55178835 .33699037 .4608307 .33699037 .37586976 .30099488 .29989625 .20698548 .200943L.0289917 .011993408V0H.41999818L.47399903 .13696289Z"/>
<path id="font_2_17" d="M.37998963 .32505799C.37998963 .12722779 .33499146 .012313843 .25 .012313843 .1639862 .012313843 .11999512 .1262207 .11999512 .32904054 .11999512 .5318756 .16499329 .6497803 .24798584 .6497803 .33599855 .6497803 .37998963 .53286746 .37998963 .32505799M.47599793 .3300476C.47599793 .53486636 .3849945 .67578127 .2539978 .67578127 .09298706 .67578127 .023986817 .5128937 .023986817 .3360443 .023986817 .17218018 .07899475-.013671875 .25-.013671875 .41299439-.013671875 .47599793 .15818787 .47599793 .3300476Z"/>
<path id="font_2_15" d="M.18099976 .04324341C.18099976 .07325745 .15499878 .100250247 .12599182 .100250247 .09498596 .100250247 .069992069 .07525635 .069992069 .04425049 .069992069 .013244629 .09399414-.0107421879 .125-.0107421879 .15499878-.0107421879 .18099976 .014251709 .18099976 .04324341Z"/>
<path id="font_2_18" d="M.3939972 0V.01499939C.31900025 .01499939 .29899598 .032989503 .29899598 .07597351V.67277529L.2899933 .67578127 .11099243 .5847931V.5708008L.13798523 .5807953C.1559906 .5877991 .17298889 .59280398 .18299866 .59280398 .20399475 .59280398 .21299744 .57780459 .21299744 .543808V.0949707C.21299744 .039978029 .19198609 .018997193 .117996219 .01499939V0H.3939972Z"/>
<path id="font_2_19" d="M.47399903 .13696289 .45999146 .1429596C.4269867 .08699036 .4059906 .07598877 .3639984 .07598877H.12998963L.29499818 .2519226C.38398744 .34588624 .4229889 .42085267 .4229889 .4998169 .4229889 .59877017 .35099793 .67578127 .23799134 .67578127 .114990238 .67578127 .050994874 .5937805 .02999878 .4768219L.050994874 .47183229C.09098816 .5697937 .12599182 .6017761 .19799805 .6017761 .2829895 .6017761 .33699037 .55178835 .33699037 .4608307 .33699037 .37586976 .30099488 .29989625 .20698548 .200943L.0289917 .011993408V0H.41999818L.47399903 .13696289Z"/>
<clipPath id="clip_3">
<path transform="matrix(1,0,0,-1,48.886,163.58499)" d="M0 0H194.27433V161.39575H0Z"/>
</clipPath>
<path id="font_1_3193" d="M.6899872 .35546876C.69799807 .3364563 .70199587 .31443788 .70199587 .28442384 .70199587 .19836426 .625 .019256592 .5369873 .019256592 .48399354 .019256592 .46699525 .06628418 .46699525 .11631775 .5029907 .16835022 .522995 .21037293 .522995 .26541139 .522995 .3024292 .5059967 .32144166 .48298646 .32144166 .4189911 .32144166 .4139862 .22537232 .4139862 .17234802 .4139862 .15834046 .41600038 .13632202 .41799928 .12130737 .40499879 .075286868 .34899903 .019256592 .29100038 .019256592 .24598694 .019256592 .22299195 .0632782 .22299195 .109313968 .22299195 .20936585 .2599945 .2984314 .31900025 .35546876H.6899872M.8659973 .4284668H.23699951C.13999939 .4284668 .056991579 .3464508 .02999878 .2684021H.04598999C.07899475 .31744386 .1269989 .35546876 .18099976 .35546876H.23098755C.17399597 .30142213 .14099121 .23239136 .14099121 .14732361 .14099121 .07829285 .1769867-.0107421879 .2789917-.0107421879 .34498597-.0107421879 .3919983 .025253296 .43299867 .075286868 .43699647 .024246216 .47799684-.0107421879 .5369873-.0107421879 .6409912-.0107421879 .7819977 .10229492 .7819977 .27241517 .7819977 .306427 .776001 .33244325 .7639923 .35546876H.84399417L.8659973 .4284668Z"/>
<path id="font_1_2477" d="M.33799745 .3143463C.35299684 .31835938 .37298585 .31835938 .3889923 .31835938 .46699525 .31835938 .5309906 .28330995 .5309906 .21022034 .5309906 .08004761 .43499757 .037994386 .34098817 .037994386 .31498719 .037994386 .29499818 .039993287 .269989 .04699707L.33799745 .3143463M.4059906 .61125186C.4189911 .61325076 .43399049 .6142578 .44898988 .6142578 .5029907 .6142578 .56799319 .5932617 .56799319 .5162964 .56799319 .41932679 .5119934 .35334779 .3999939 .35334779 .3849945 .35334779 .36698915 .35534669 .34700013 .35934449L.4059906 .61125186M.19799805 .653244 .19299317 .6372528H.21199036C.2709961 .6372528 .2899933 .62124636 .2899933 .5952606 .2899933 .5892639 .2889862 .5792694 .28799439 .5742645L.16499329 .07904053C.15699768 .04499817 .13798523 .015991211 .06199646 .015991211H.041992189L.037994386 0H.3619995C.56900027 0 .651001 .094070438 .651001 .19319153 .651001 .27830506 .58399966 .32035829 .5239868 .3313446L.5209961 .33535768C.54100039 .3403473 .56999209 .34835816 .59498599 .36134339 .6429901 .38534547 .6859894 .43032838 .6859894 .5082855 .6859894 .6442566 .5339966 .653244 .44999696 .653244H.19799805Z"/>
<path id="font_4_50" d="M.3939972 0V.01499939C.31900025 .01499939 .29899598 .032989503 .29899598 .07597351V.67277529L.2899933 .67578127 .11099243 .5847931V.5708008L.13798523 .5807953C.1559906 .5877991 .17298889 .59280398 .18299866 .59280398 .20399475 .59280398 .21299744 .57780459 .21299744 .543808V.0949707C.21299744 .039978029 .19198609 .018997193 .117996219 .01499939V0H.3939972Z"/>
<path id="font_1_92" d="M.29899598-.15586853V-.13085938H.21598816C.18299866-.13085938 .1639862-.116867069 .1639862-.07687378V.58909609C.1639862 .6251068 .18199158 .6371002 .21598816 .6371002H.29899598V.6621094H.08799744V-.15586853H.29899598Z"/>
<path id="font_5_40" d="M.70899966 .35403443H.45298768V.3360443C.5319977 .3300476 .5419922 .322052 .5419922 .24412537V.087265018C.5419922 .05429077 .48599244 .026321412 .40899659 .026321412 .2519989 .026321412 .1459961 .13821411 .1459961 .3240509 .1459961 .42297364 .16999817 .5138855 .22299195 .5668335 .2659912 .61079409 .32099916 .6357727 .3899994 .6357727 .44599916 .6357727 .49798585 .6167908 .5359955 .5808258 .56599429 .55184939 .58200076 .5258789 .6069946 .4649353H.6299896L.621994 .67578127H.59999087C.59399417 .6567688 .57598879 .6427765 .5549927 .6427765 .54499819 .6427765 .5299988 .6457672 .5109863 .652771 .46598817 .6677704 .43199159 .67578127 .37799073 .67578127 .2809906 .67578127 .19898987 .6447754 .13899231 .58981326 .07199097 .5288696 .03199768 .43695069 .03199768 .32705689 .03199768 .22914124 .05899048 .15220642 .114990238 .09326172 .18099976 .02432251 .2829895-.013671875 .3849945-.013671875 .48799134-.013671875 .58399966 .0113220219 .6389923 .056289674V.25611878C.6389923 .32106019 .651001 .3310547 .70899966 .3360443V.35403443Z"/>
<path id="font_5_49" d="M.20199585 .58909609C.20199585 .6161041 .20799256 .6251068 .23699951 .6251068 .37298585 .6251068 .43299867 .58509829 .43299867 .4750824 .43299867 .38508607 .37298585 .32807923 .2630005 .32807923 .24299622 .32807923 .22499085 .32907105 .20199585 .3310852V.58909609M.015991211 .6621094V.6430969C.08999634 .6371002 .099990848 .6251068 .099990848 .5511017V.122024539C.099990848 .035995485 .09399414 .024993897 .015991211 .018997193V0H.29599V.018997193C.21499634 .022994996 .20199585 .035995485 .20199585 .11201477V.29107667C.22898865 .28907777 .24499512 .28808595 .2709961 .28808595 .37799073 .28808595 .4269867 .29707337 .4850006 .34907533 .5219879 .38208009 .5419922 .4270935 .5419922 .48008729 .5419922 .53009036 .5249939 .5710907 .49198915 .59910586 .44699098 .6371002 .375 .6621094 .2749939 .6621094H.015991211Z"/>
<path id="font_5_66" d="M.2869873 .12716675C.2869873 .09819031 .2809906 .084198 .2519989 .064208988 .23498535 .053222658 .21398926 .048233034 .19400025 .048233034 .15499878 .048233034 .125 .07220459 .125 .12516785 .125 .15615845 .1349945 .18013 .15899658 .20211792 .18399048 .22509766 .22499085 .24609375 .2869873 .2680664V.12716675M.44198609 .066207889C.4249878 .052230836 .4149933 .047225954 .39898683 .047225954 .3809967 .047225954 .36799623 .067214969 .36799623 .11317444V.30404664C.36799623 .3650055 .3639984 .38598634 .33999635 .41496278 .31599427 .44395448 .27799989 .45996095 .22200012 .45996095 .1769867 .45996095 .1349945 .44795228 .10699463 .42996217 .07199097 .40797425 .055999757 .37599183 .055999757 .35002137 .055999757 .32302857 .07798767 .30404664 .09899902 .30404664 .125 .30404664 .14498902 .32603456 .14498902 .34501649 .14498902 .3659973 .13899231 .3690033 .13899231 .3869934 .13899231 .41397096 .16899109 .43595887 .20899964 .43595887 .2539978 .43595887 .2869873 .40797425 .2869873 .34602357V.29205323C.17399597 .25009156 .13699341 .23109436 .10699463 .21110535 .067993167 .18513489 .036987306 .14616394 .036987306 .094192508 .036987306 .02822876 .07998657-.009765625 .14199829-.009765625 .18499756-.009765625 .23399353 .0032196046 .2869873 .06321716H.28799439C.29299928 .010223389 .31498719-.009765625 .35198976-.009765625 .38598634-.009765625 .4119873 .00022888184 .44198609 .038223268V.066207889Z"/>
<path id="font_4_1155" d="M.62098696 .22012329V.2861328H.06399536V.22012329H.62098696Z"/>
<path id="font_1_94" d="M.24499512-.15586853V.6621094H.033996583V.6371002H.117996219C.1559906 .6371002 .16899109 .618103 .16899109 .58309939V-.084869388C.16899109-.115875247 .15699768-.13085938 .12199402-.13085938H.033996583V-.15586853H.24499512Z"/>
<path id="font_5_38" d="M.5970001 .16905213H.56900027C.5239868 .06300354 .48098756 .036987306 .33799745 .036987306H.3019867C.22799683 .036987306 .20098877 .041992189 .20098877 .08401489V.32714845H.35198976C.43798829 .32714845 .45298768 .3141327 .46499635 .23008728H.48799134V.4641266H.46499635C.45298768 .38513185 .43798829 .36813355 .35198976 .36813355H.20098877V.58810427C.20098877 .6201019 .20799256 .62409976 .23599243 .62409976H.36698915C.48298646 .62409976 .5059967 .60910037 .5209961 .51911929H.54599L.5419922 .6621094H.011993408V.6430969C.08699036 .6390991 .09899902 .62409976 .09899902 .55010989V.11402893C.09899902 .036987306 .08898926 .023986817 .011993408 .018997193V0H.5509949L.5970001 .16905213Z"/>
<path id="font_5_53" d="M.59298709 .4920807 .58599856 .6621094H.023986817L.016998291 .4920807H.040985109C.06098938 .60209658 .08799744 .6201019 .19400025 .6201019H.2539978V.12301636C.2539978 .034988405 .24299622 .023986817 .1599884 .018997193V0H.45199586V.018997193C.36999513 .022994996 .35598756 .034988405 .35598756 .11100769V.6201019H.4149933C.5209961 .6201019 .5469971 .60209658 .56900027 .4920807H.59298709Z"/>
<path id="font_5_42" d="M.31498719 0V.018997193C.23298645 .021987915 .21699524 .037002565 .21699524 .11201477V.5510864C.21699524 .6271057 .23098755 .6390991 .31498719 .6430969V.6621094H.017990113V.6430969C.102996829 .6381073 .114990238 .63009646 .114990238 .5510864V.11201477C.114990238 .033996583 .101989749 .021987915 .017990113 .018997193V0H.31498719Z"/>
<path id="font_5_48" d="M.57398989 .33703614C.57398989 .21714783 .54599 .12322998 .4909973 .07028198 .45599366 .03730774 .4119873 .022323609 .3619995 .022323609 .31599427 .022323609 .27198792 .03630066 .23799134 .067276 .1769867 .12322998 .147995 .21315003 .147995 .3320465 .147995 .42695619 .17399597 .52388 .21699524 .5728302 .2559967 .6177826 .30599977 .6397705 .3600006 .6397705 .40699769 .6397705 .44699098 .6227875 .48298646 .59280398 .5399933 .54486086 .57398989 .450943 .57398989 .33703614M.6879883 .33103944C.6879883 .5288696 .5569916 .67578127 .36099244 .67578127 .1659851 .67578127 .033996583 .53686526 .033996583 .3340454 .033996583 .1262207 .16699219-.013671875 .36099244-.013671875 .5529938-.013671875 .6879883 .12522888 .6879883 .33103944Z"/>
<path id="font_5_83" d="M.1599884 .45794679 .15499878 .45996095C.101989749 .43894959 .06599426 .42495729 .0069885256 .40596009V.3899536C.020996094 .3929596 .02999878 .39396668 .041992189 .39396668 .066986087 .39396668 .07598877 .3779602 .07598877 .33396913V.083984378C.07598877 .033996583 .068984989 .026992798 .004989624 .01499939V0H.24499512V.01499939C.1769867 .017990113 .1599884 .032989503 .1599884 .08998108V.31497193C.1599884 .3469696 .20199585 .3969574 .22999573 .3969574 .23599243 .3969574 .24499512 .3919525 .2559967 .381958 .27198792 .36695863 .2829895 .361969 .29599 .361969 .31999208 .361969 .33499146 .3789673 .33499146 .4069519 .33499146 .43995667 .31399537 .45996095 .27999879 .45996095 .23799134 .45996095 .20999146 .43795777 .1599884 .3659668V.45794679Z"/>
</defs>
<path transform="matrix(1,0,0,-1,48.886,163.58499)" stroke-width=".3985" stroke-linecap="butt" stroke-miterlimit="10" stroke-linejoin="miter" fill="none" stroke="#b0b0b0" d="M8.83064 0V161.39575M52.98177 0V161.39575M97.13625 0V161.39575M141.28961 0V161.39575M185.44297 0V161.39575"/>
<path transform="matrix(1,0,0,-1,48.886,163.58499)" stroke-width=".3985" stroke-linecap="butt" stroke-miterlimit="10" stroke-linejoin="miter" fill="none" stroke="#b0b0b0" d="M0 53.79858H194.27433M0 130.6537H194.27433"/>
<path transform="matrix(1,0,0,-1,48.886,163.58499)" stroke-width=".19925" stroke-linecap="butt" stroke-miterlimit="10" stroke-linejoin="miter" fill="none" stroke="#000000" d="M8.83064-4.25198V0M52.98177-4.25198V0M97.13625-4.25198V0M141.28961-4.25198V0M185.44297-4.25198V0"/>
<path transform="matrix(1,0,0,-1,48.886,163.58499)" stroke-width=".19925" stroke-linecap="butt" stroke-miterlimit="10" stroke-linejoin="miter" fill="none" stroke="#000000" d="M-4.25243 53.79858H0M-4.25243 130.6537H0"/>
<path transform="matrix(1,0,0,-1,48.886,163.58499)" stroke-width=".3985" stroke-linecap="butt" stroke-miterlimit="10" stroke-linejoin="miter" fill="none" stroke="#000000" d="M0 0V161.39575H194.27433V0H0Z"/>
<use data-text="0" xlink:href="#font_1_49" transform="matrix(9.96264,0,0,-9.96264,55.226,178.092)"/>
<use data-text="&#x1d70b;" xlink:href="#font_1_3177" transform="matrix(9.96264,0,0,-9.96264,94.963,178.092)"/>
<use data-text="/" xlink:href="#font_1_48" transform="matrix(9.96264,0,0,-9.96264,101.02028,178.092)"/>
<use data-text="8" xlink:href="#font_1_57" transform="matrix(9.96264,0,0,-9.96264,103.789897,178.092)"/>
<use data-text="&#x1d70b;" xlink:href="#font_1_3177" transform="matrix(9.96264,0,0,-9.96264,139.117,178.092)"/>
<use data-text="/" xlink:href="#font_1_48" transform="matrix(9.96264,0,0,-9.96264,145.1743,178.092)"/>
<use data-text="4" xlink:href="#font_1_53" transform="matrix(9.96264,0,0,-9.96264,147.94391,178.092)"/>
<use data-text="3" xlink:href="#font_1_52" transform="matrix(9.96264,0,0,-9.96264,180.779,178.092)"/>
<use data-text="&#x1d70b;" xlink:href="#font_1_3177" transform="matrix(9.96264,0,0,-9.96264,185.76033,178.092)"/>
<use data-text="/" xlink:href="#font_1_48" transform="matrix(9.96264,0,0,-9.96264,191.81763,178.092)"/>
<use data-text="8" xlink:href="#font_1_57" transform="matrix(9.96264,0,0,-9.96264,194.58724,178.092)"/>
<use data-text="&#x1d70b;" xlink:href="#font_1_3177" transform="matrix(9.96264,0,0,-9.96264,227.423,178.092)"/>
<use data-text="/" xlink:href="#font_1_48" transform="matrix(9.96264,0,0,-9.96264,233.4803,178.092)"/>
<use data-text="2" xlink:href="#font_1_51" transform="matrix(9.96264,0,0,-9.96264,236.24991,178.092)"/>
<use data-text="0" xlink:href="#font_2_17" transform="matrix(9.96264,0,0,-9.96264,23.680003,113.085)"/>
<use data-text="." xlink:href="#font_2_15" transform="matrix(9.96264,0,0,-9.96264,28.661322,113.085)"/>
<use data-text="1" xlink:href="#font_2_18" transform="matrix(9.96264,0,0,-9.96264,31.151982,113.085)"/>
<use data-text="1" xlink:href="#font_2_18" transform="matrix(9.96264,0,0,-9.96264,36.1333,113.085)"/>
<use data-text="0" xlink:href="#font_2_17" transform="matrix(9.96264,0,0,-9.96264,23.680003,36.231004)"/>
<use data-text="." xlink:href="#font_2_15" transform="matrix(9.96264,0,0,-9.96264,28.661322,36.231004)"/>
<use data-text="1" xlink:href="#font_2_18" transform="matrix(9.96264,0,0,-9.96264,31.151982,36.231004)"/>
<use data-text="2" xlink:href="#font_2_19" transform="matrix(9.96264,0,0,-9.96264,36.1333,36.231004)"/>
<g clip-path="url(#clip_3)">
<path transform="matrix(1,0,0,-1,48.886,163.58499)" stroke-width=".59776" stroke-linecap="butt" stroke-miterlimit="10" stroke-linejoin="miter" fill="none" stroke="#0000ff" d="M8.83069 143.05709 12.36298 142.91109 15.89525 142.47435 19.4275 141.75019 22.9598 140.74405 26.49207 139.46352 30.02434 137.91814 33.55663 136.11911 37.0889 134.07933 40.62117 131.81299 44.15344 129.33544 47.68573 126.66306 51.218 123.81288 54.75027 120.80234 58.28255 117.64926 61.81482 114.37149 65.34709 110.98674 68.87938 107.51247 72.41165 103.96567 75.94392 100.36206 79.4762 96.72025 83.00848 93.05295 86.54076 89.37466 90.07303 85.69894 93.6053 82.03958 97.13757 78.40811 100.66985 74.81586 104.20213 71.27339 107.7344 67.79063 111.26668 64.37697 114.79895 61.0413 118.33124 57.79214 121.86351 54.6377 125.39578 51.58598 128.92806 48.64493 132.46033 45.82237 135.9926 43.12628 139.52489 40.56468 143.05716 38.1456 146.58943 35.87794 150.1217 33.76889 153.65399 31.8277 157.18627 30.06287 160.71854 28.48218 164.25083 27.09372 167.78308 25.90479 171.31536 24.92204 174.84764 24.15128 178.37992 23.59743 181.91219 23.26337 185.44446 23.1518"/>
<path transform="matrix(1,0,0,-1,48.886,163.58499)" stroke-width=".59776" stroke-linecap="butt" stroke-miterlimit="10" stroke-linejoin="miter" fill="none" stroke="#ff0000" d="M8.83069 124.88658H12.36298 15.89525 19.4275 22.9598 26.49207 30.02434 33.55663 37.0889 40.62117 44.15344 47.68573 51.218 54.75027 58.28255 61.81482 65.34709 68.87938 72.41165 75.94392 79.4762 83.00848 86.54076 90.07303 93.6053 97.13757 100.66985 104.20213 107.7344 111.26668 114.79895 118.33124 121.86351 125.39578 128.92806 132.46033 135.9926 139.52489 143.05716 146.58943 150.1217 153.65399 157.18627 160.71854 164.25083 167.78308 171.31536 174.84764 178.37992 181.91219 185.44446"/>
<path transform="matrix(1,0,0,-1,48.886,163.58499)" stroke-width=".59776" stroke-linecap="butt" stroke-miterlimit="10" stroke-linejoin="miter" fill="none" stroke="#00bfbf" d="M8.83069 143.05707H12.36298 15.89525 19.4275 22.9598 26.49207 30.02434 33.55663 37.0889 40.62117 44.15344 47.68573 51.218 54.75027 58.28255 61.81482 65.34709 68.87938 72.41165 75.94392 79.4762 83.00848 86.54076 90.07303 93.6053 97.13757 100.66985 104.20213 107.7344 111.26668 114.79895 118.33124 121.86351 125.39578 128.92806 132.46033 135.9926 139.52489 143.05716 146.58943 150.1217 153.65399 157.18627 160.71854 164.25083 167.78308 171.31536 174.84764 178.37992 181.91219 185.44446"/>
<path transform="matrix(1,0,0,-1,48.886,163.58499)" stroke-width=".59776" stroke-linecap="butt" stroke-miterlimit="10" stroke-linejoin="miter" fill="none" stroke="#bf00bf" d="M8.83069 125.92847 12.36298 125.8343 15.89525 125.5489 19.4275 125.0739 22.9598 124.41023 26.49207 123.5593 30.02434 122.52286 33.55663 121.30312 37.0889 119.9027 40.62117 118.32466 44.15344 116.5726 47.68573 114.65051 51.218 112.56296 54.75027 110.31502 58.28255 107.9123 61.81482 105.36098 65.34709 102.66791 68.87938 99.84044 72.41165 96.88664 75.94392 93.8152 79.4762 90.63547 83.00848 87.35745 86.54076 83.99184 90.07303 80.54999 93.6053 77.04393 97.13757 73.48631 100.66985 69.89044 104.20213 66.2702 107.7344 62.64003 111.26668 59.01488 114.79895 55.41013 118.33124 51.84154 121.86351 48.32521 125.39578 44.8774 128.92806 41.51454 132.46033 38.25304 135.9926 35.10919 139.52489 32.09912 143.05716 29.23859 146.58943 26.54285 150.1217 24.02661 153.65399 21.70383 157.18627 19.58757 160.71854 17.68996 164.25083 16.02197 167.78308 14.59338 171.31536 13.4127 174.84764 12.48691 178.37992 11.82161 181.91219 11.42079 185.44446 11.28693"/>
<path transform="matrix(1,0,0,-1,48.886,163.58499)" stroke-width=".59776" stroke-linecap="butt" stroke-miterlimit="10" stroke-linejoin="miter" fill="none" stroke="#008000" d="M8.83069 143.10684 12.36298 142.89752 15.89525 142.41785 19.4275 141.61516 22.9598 140.48516 26.49207 139.02286 30.02434 137.22365 33.55663 135.08444 37.0889 132.60503 40.62117 129.78949 44.15344 126.64746 47.68573 123.19542 51.218 119.45743 54.75027 115.46571 58.28255 111.26059 61.81482 106.88998 65.34709 102.40802 68.87938 97.87344 72.41165 93.34732 75.94392 88.89023 79.4762 84.55966 83.00848 80.407 86.54076 76.475 90.07303 72.79564 93.6053 69.38837 97.13757 66.2594 100.66985 63.40135 104.20213 60.79407 107.7344 58.40599 111.26668 56.19635 114.79895 54.11781 118.33124 52.11987 121.86351 50.15215 125.39578 48.16815 128.92806 46.12854 132.46033 44.00421 135.9926 41.77856 139.52489 39.44896 143.05716 37.02708 146.58943 34.53838 150.1217 32.02023 153.65399 29.51947 157.18627 27.08908 160.71854 24.78491 164.25083 22.6622 167.78308 20.77269 171.31536 19.16226 174.84764 17.86949 178.37992 16.92453 181.91219 16.34898 185.44446 16.15573"/>
</g>
<path transform="matrix(1,0,0,-1,48.886,163.58499)" stroke-width=".59776" stroke-linecap="butt" stroke-miterlimit="10" stroke-linejoin="miter" fill="none" stroke="#0000ff" d="M5.84186 143.05709H11.81952M8.83069 146.04592V140.06826"/>
<path transform="matrix(1,0,0,-1,48.886,163.58499)" stroke-width=".59776" stroke-linecap="butt" stroke-miterlimit="10" stroke-linejoin="miter" fill="none" stroke="#0000ff" d="M94.14874 78.40811H100.1264M97.13757 81.39694V75.41928"/>
<path transform="matrix(1,0,0,-1,48.886,163.58499)" stroke-width=".59776" stroke-linecap="butt" stroke-miterlimit="10" stroke-linejoin="miter" fill="none" stroke="#0000ff" d="M182.45563 23.1518H188.43329M185.44446 26.14063V20.16296"/>
<path transform="matrix(1,0,0,-1,48.886,163.58499)" stroke-width=".59776" stroke-linecap="butt" stroke-miterlimit="10" stroke-linejoin="miter" fill="none" stroke="#0000ff" d=""/>
<path transform="matrix(1,0,0,-1,48.886,163.58499)" d="M11.81952 124.88658C11.81952 126.5373 10.48138 127.87541 8.83069 127.87541 7.17998 127.87541 5.84186 126.5373 5.84186 124.88658 5.84186 123.23589 7.17998 121.89775 8.83069 121.89775 10.48138 121.89775 11.81952 123.23589 11.81952 124.88658ZM8.83069 124.88658" fill="#ff0000"/>
<path transform="matrix(1,0,0,-1,48.886,163.58499)" stroke-width=".59776" stroke-linecap="butt" stroke-miterlimit="10" stroke-linejoin="miter" fill="none" stroke="#ff0000" d="M11.81952 124.88658C11.81952 126.5373 10.48138 127.87541 8.83069 127.87541 7.17998 127.87541 5.84186 126.5373 5.84186 124.88658 5.84186 123.23589 7.17998 121.89775 8.83069 121.89775 10.48138 121.89775 11.81952 123.23589 11.81952 124.88658ZM8.83069 124.88658"/>
<path transform="matrix(1,0,0,-1,48.886,163.58499)" d="M100.1264 124.88658C100.1264 126.5373 98.78828 127.87541 97.13757 127.87541 95.48688 127.87541 94.14874 126.5373 94.14874 124.88658 94.14874 123.23589 95.48688 121.89775 97.13757 121.89775 98.78828 121.89775 100.1264 123.23589 100.1264 124.88658ZM97.13757 124.88658" fill="#ff0000"/>
<path transform="matrix(1,0,0,-1,48.886,163.58499)" stroke-width=".59776" stroke-linecap="butt" stroke-miterlimit="10" stroke-linejoin="miter" fill="none" stroke="#ff0000" d="M100.1264 124.88658C100.1264 126.5373 98.78828 127.87541 97.13757 127.87541 95.48688 127.87541 94.14874 126.5373 94.14874 124.88658 94.14874 123.23589 95.48688 121.89775 97.13757 121.89775 98.78828 121.89775 100.1264 123.23589 100.1264 124.88658ZM97.13757 124.88658"/>
<path transform="matrix(1,0,0,-1,48.886,163.58499)" d="M188.43329 124.88658C188.43329 126.5373 187.09517 127.87541 185.44446 127.87541 183.79375 127.87541 182.45563 126.5373 182.45563 124.88658 182.45563 123.23589 183.79375 121.89775 185.44446 121.89775 187.09517 121.89775 188.43329 123.23589 188.43329 124.88658ZM185.44446 124.88658" fill="#ff0000"/>
<path transform="matrix(1,0,0,-1,48.886,163.58499)" stroke-width=".59776" stroke-linecap="butt" stroke-miterlimit="10" stroke-linejoin="miter" fill="none" stroke="#ff0000" d="M188.43329 124.88658C188.43329 126.5373 187.09517 127.87541 185.44446 127.87541 183.79375 127.87541 182.45563 126.5373 182.45563 124.88658 182.45563 123.23589 183.79375 121.89775 185.44446 121.89775 187.09517 121.89775 188.43329 123.23589 188.43329 124.88658ZM185.44446 124.88658"/>
<path transform="matrix(1,0,0,-1,48.886,163.58499)" stroke-width=".59776" stroke-linecap="butt" stroke-miterlimit="10" stroke-linejoin="miter" fill="none" stroke="#ff0000" d=""/>
<path transform="matrix(1,0,0,-1,48.886,163.58499)" stroke-width=".59776" stroke-linecap="butt" stroke-miterlimit="10" stroke-linejoin="miter" fill="none" stroke="#00bfbf" d="M8.83069 140.06824V146.0459M11.4191 144.55149 6.24228 141.56266M11.4191 141.56266 6.24228 144.55149"/>
<path transform="matrix(1,0,0,-1,48.886,163.58499)" stroke-width=".59776" stroke-linecap="butt" stroke-miterlimit="10" stroke-linejoin="miter" fill="none" stroke="#00bfbf" d="M97.13757 140.06824V146.0459M99.72598 144.55149 94.54916 141.56266M99.72598 141.56266 94.54916 144.55149"/>
<path transform="matrix(1,0,0,-1,48.886,163.58499)" stroke-width=".59776" stroke-linecap="butt" stroke-miterlimit="10" stroke-linejoin="miter" fill="none" stroke="#00bfbf" d="M185.44446 140.06824V146.0459M188.03287 144.55149 182.85605 141.56266M188.03287 141.56266 182.85605 144.55149"/>
<path transform="matrix(1,0,0,-1,48.886,163.58499)" stroke-width=".59776" stroke-linecap="butt" stroke-miterlimit="10" stroke-linejoin="miter" fill="none" stroke="#00bfbf" d=""/>
<path transform="matrix(1,0,0,-1,48.886,163.58499)" stroke-width=".59776" stroke-linecap="butt" stroke-miterlimit="10" stroke-linejoin="miter" fill="none" stroke="#bf00bf" d="M6.71725 123.81505 10.9441 128.0419M6.71725 128.0419 10.9441 123.81505"/>
<path transform="matrix(1,0,0,-1,48.886,163.58499)" stroke-width=".59776" stroke-linecap="butt" stroke-miterlimit="10" stroke-linejoin="miter" fill="none" stroke="#bf00bf" d="M95.02415 71.37288 99.251 75.59973M95.02415 75.59973 99.251 71.37288"/>
<path transform="matrix(1,0,0,-1,48.886,163.58499)" stroke-width=".59776" stroke-linecap="butt" stroke-miterlimit="10" stroke-linejoin="miter" fill="none" stroke="#bf00bf" d="M183.33104 9.17351 187.55788 13.40036M183.33104 13.40036 187.55788 9.17351"/>
<path transform="matrix(1,0,0,-1,48.886,163.58499)" stroke-width=".59776" stroke-linecap="butt" stroke-miterlimit="10" stroke-linejoin="miter" fill="none" stroke="#bf00bf" d=""/>
<path transform="matrix(1,0,0,-1,48.886,163.58499)" d="M8.83069 146.09568 11.07231 143.10684 8.83069 140.11801 6.58907 143.10684Z" fill="#008000"/>
<path transform="matrix(1,0,0,-1,48.886,163.58499)" stroke-width=".59776" stroke-linecap="butt" stroke-miterlimit="10" stroke-linejoin="miter" fill="none" stroke="#008000" d="M8.83069 146.09568 11.07231 143.10684 8.83069 140.11801 6.58907 143.10684Z"/>
<path transform="matrix(1,0,0,-1,48.886,163.58499)" d="M97.13757 69.24823 99.3792 66.2594 97.13757 63.27057 94.89595 66.2594Z" fill="#008000"/>
<path transform="matrix(1,0,0,-1,48.886,163.58499)" stroke-width=".59776" stroke-linecap="butt" stroke-miterlimit="10" stroke-linejoin="miter" fill="none" stroke="#008000" d="M97.13757 69.24823 99.3792 66.2594 97.13757 63.27057 94.89595 66.2594Z"/>
<path transform="matrix(1,0,0,-1,48.886,163.58499)" d="M185.44446 19.14456 187.68608 16.15573 185.44446 13.1669 183.20284 16.15573Z" fill="#008000"/>
<path transform="matrix(1,0,0,-1,48.886,163.58499)" stroke-width=".59776" stroke-linecap="butt" stroke-miterlimit="10" stroke-linejoin="miter" fill="none" stroke="#008000" d="M185.44446 19.14456 187.68608 16.15573 185.44446 13.1669 183.20284 16.15573Z"/>
<path transform="matrix(1,0,0,-1,48.886,163.58499)" stroke-width=".59776" stroke-linecap="butt" stroke-miterlimit="10" stroke-linejoin="miter" fill="none" stroke="#008000" d=""/>
<use data-text="&#x1d71b;" xlink:href="#font_1_3193" transform="matrix(9.96264,0,0,-9.96264,141.758,189.33499)"/>
<use data-text="&#x1d435;" xlink:href="#font_1_2477" transform="matrix(0,-9.96264,-9.96264,-0,14.348999,108.160999)"/>
<use data-text="1" xlink:href="#font_4_50" transform="matrix(0,-7.47198,-7.47198,-0,16.839997,101.22699)"/>
<use data-text="1" xlink:href="#font_4_50" transform="matrix(0,-7.47198,-7.47198,-0,16.839997,97.491008)"/>
<use data-text="[" xlink:href="#font_1_92" transform="matrix(0,-9.96264,-9.96264,-0,14.348999,90.578998)"/>
<use data-text="G" xlink:href="#font_5_40" transform="matrix(0,-9.96264,-9.96264,-0,14.348999,87.260997)"/>
<use data-text="P" xlink:href="#font_5_49" transform="matrix(0,-9.96264,-9.96264,-0,14.348999,80.06796)"/>
<use data-text="a" xlink:href="#font_5_66" transform="matrix(0,-9.96264,-9.96264,-0,14.348999,74.6184)"/>
<use data-text="&#x2212;" xlink:href="#font_4_1155" transform="matrix(0,-7.47198,-7.47198,-0,10.363998,70.19499)"/>
<use data-text="1" xlink:href="#font_4_50" transform="matrix(0,-7.47198,-7.47198,-0,10.363998,65.07669)"/>
<use data-text="]" xlink:href="#font_1_94" transform="matrix(0,-9.96264,-9.96264,-0,14.348999,60.932996)"/>
<path transform="matrix(1,0,0,-1,48.886,163.58499)" d="M6.02722 5.04091H58.567689V78.93939H6.02722Z" fill="#ffffff" fill-opacity=".8"/>
<path transform="matrix(1,0,0,-1,48.886,163.58499)" stroke-width=".3985" stroke-linecap="butt" stroke-miterlimit="10" stroke-linejoin="miter" fill="none" stroke="#cccccc" d="M6.02722 5.04091H58.567689V78.93939H6.02722Z"/>
<path transform="matrix(1,0,0,-1,58.201,92.63199)" stroke-width=".59776" stroke-linecap="butt" stroke-miterlimit="10" stroke-linejoin="miter" fill="none" stroke="#0000ff" d="M0 0H8.50412 17.00826"/>
<path transform="matrix(1,0,0,-1,58.201,92.63199)" stroke-width=".59776" stroke-linecap="butt" stroke-miterlimit="10" stroke-linejoin="miter" fill="none" stroke="#0000ff" d="M5.51529 0H11.49295M8.50412 2.98883V-2.98883"/>
<use data-text="&#x1d435;" xlink:href="#font_1_2477" transform="matrix(9.96264,0,0,-9.96264,77.501,95.13799)"/>
<use data-text="1" xlink:href="#font_4_50" transform="matrix(7.47198,0,0,-7.47198,84.435,97.628)"/>
<use data-text="1" xlink:href="#font_4_50" transform="matrix(7.47198,0,0,-7.47198,88.17099,97.628)"/>
<path transform="matrix(1,0,0,-1,58.200998,105.82999)" stroke-width=".59776" stroke-linecap="butt" stroke-miterlimit="10" stroke-linejoin="miter" fill="none" stroke="#ff0000" d="M0 0H8.50412 17.00826"/>
<path transform="matrix(1,0,0,-1,58.200998,105.82999)" d="M11.49295 0C11.49295 1.6507 10.15482 2.98883 8.50412 2.98883 6.85341 2.98883 5.51529 1.6507 5.51529 0 5.51529-1.6507 6.85341-2.98883 8.50412-2.98883 10.15482-2.98883 11.49295-1.6507 11.49295 0ZM8.50412 0" fill="#ff0000" fill-opacity=".8"/>
<path transform="matrix(1,0,0,-1,58.200998,105.82999)" stroke-width=".59776" stroke-linecap="butt" stroke-miterlimit="10" stroke-linejoin="miter" fill="none" stroke="#ff0000" d="M11.49295 0C11.49295 1.6507 10.15482 2.98883 8.50412 2.98883 6.85341 2.98883 5.51529 1.6507 5.51529 0 5.51529-1.6507 6.85341-2.98883 8.50412-2.98883 10.15482-2.98883 11.49295-1.6507 11.49295 0ZM8.50412 0"/>
<use data-text="&#x1d435;" xlink:href="#font_1_2477" transform="matrix(9.96264,0,0,-9.96264,77.501,109.548)"/>
<use data-text="E" xlink:href="#font_5_38" transform="matrix(7.47198,0,0,-7.47198,84.833,105.562999)"/>
<use data-text="T" xlink:href="#font_5_53" transform="matrix(7.47198,0,0,-7.47198,89.39838,105.562999)"/>
<use data-text="I" xlink:href="#font_5_42" transform="matrix(7.47198,0,0,-7.47198,93.96375,105.562999)"/>
<use data-text="1" xlink:href="#font_4_50" transform="matrix(7.47198,0,0,-7.47198,84.435,113.244998)"/>
<use data-text="1" xlink:href="#font_4_50" transform="matrix(7.47198,0,0,-7.47198,88.17099,113.244998)"/>
<path transform="matrix(1,0,0,-1,58.200998,120.24099)" stroke-width=".59776" stroke-linecap="butt" stroke-miterlimit="10" stroke-linejoin="miter" fill="none" stroke="#00bfbf" d="M0 0H8.50412 17.00826"/>
<path transform="matrix(1,0,0,-1,58.200998,120.24099)" stroke-width=".59776" stroke-linecap="butt" stroke-miterlimit="10" stroke-linejoin="miter" fill="none" stroke="#00bfbf" d="M8.50412-2.98883V2.98883M11.09253 1.49442 5.91571-1.49442M11.09253-1.49442 5.91571 1.49442"/>
<use data-text="&#x1d435;" xlink:href="#font_1_2477" transform="matrix(9.96264,0,0,-9.96264,77.501,123.95899)"/>
<use data-text="T" xlink:href="#font_5_53" transform="matrix(7.47198,0,0,-7.47198,84.833,119.974)"/>
<use data-text="I" xlink:href="#font_5_42" transform="matrix(7.47198,0,0,-7.47198,89.39838,119.974)"/>
<use data-text="1" xlink:href="#font_4_50" transform="matrix(7.47198,0,0,-7.47198,84.435,127.655)"/>
<use data-text="1" xlink:href="#font_4_50" transform="matrix(7.47198,0,0,-7.47198,88.17099,127.655)"/>
<path transform="matrix(1,0,0,-1,58.200998,134.756)" stroke-width=".59776" stroke-linecap="butt" stroke-miterlimit="10" stroke-linejoin="miter" fill="none" stroke="#bf00bf" d="M0 0H8.50412 17.00826"/>
<path transform="matrix(1,0,0,-1,58.200998,134.756)" stroke-width=".59776" stroke-linecap="butt" stroke-miterlimit="10" stroke-linejoin="miter" fill="none" stroke="#bf00bf" d="M6.39069-2.11342 10.61754 2.11342M6.39069 2.11342 10.61754-2.11342"/>
<use data-text="&#x1d435;" xlink:href="#font_1_2477" transform="matrix(9.96264,0,0,-9.96264,77.501,138.579)"/>
<use data-text="E" xlink:href="#font_5_38" transform="matrix(7.47198,0,0,-7.47198,84.833,134.48999)"/>
<use data-text="O" xlink:href="#font_5_48" transform="matrix(7.47198,0,0,-7.47198,89.39838,134.48999)"/>
<use data-text="1" xlink:href="#font_4_50" transform="matrix(7.47198,0,0,-7.47198,84.435,142.276)"/>
<use data-text="1" xlink:href="#font_4_50" transform="matrix(7.47198,0,0,-7.47198,88.17099,142.276)"/>
<path transform="matrix(1,0,0,-1,58.200998,149.30899)" stroke-width=".59776" stroke-linecap="butt" stroke-miterlimit="10" stroke-linejoin="miter" fill="none" stroke="#008000" d="M0 0H8.50412 17.00826"/>
<path transform="matrix(1,0,0,-1,58.200998,149.30899)" d="M8.50412 2.98883 10.74574 0 8.50412-2.98883 6.2625 0Z" fill="#008000" fill-opacity=".8"/>
<path transform="matrix(1,0,0,-1,58.200998,149.30899)" stroke-width=".59776" stroke-linecap="butt" stroke-miterlimit="10" stroke-linejoin="miter" fill="none" stroke="#008000" d="M8.50412 2.98883 10.74574 0 8.50412-2.98883 6.2625 0Z"/>
<use data-text="&#x1d435;" xlink:href="#font_1_2477" transform="matrix(9.96264,0,0,-9.96264,77.501,153.065)"/>
<use data-text="T" xlink:href="#font_5_53" transform="matrix(7.47198,0,0,-7.47198,84.833,149.005)"/>
<use data-text="r" xlink:href="#font_5_83" transform="matrix(7.47198,0,0,-7.47198,89.21905,149.005)"/>
<use data-text="a" xlink:href="#font_5_66" transform="matrix(7.47198,0,0,-7.47198,91.69227,149.005)"/>
<use data-text="T" xlink:href="#font_5_53" transform="matrix(7.47198,0,0,-7.47198,95.00983,149.005)"/>
<use data-text="I" xlink:href="#font_5_42" transform="matrix(7.47198,0,0,-7.47198,99.5752,149.005)"/>
<use data-text="1" xlink:href="#font_4_50" transform="matrix(7.47198,0,0,-7.47198,84.435,156.76099)"/>
<use data-text="1" xlink:href="#font_4_50" transform="matrix(7.47198,0,0,-7.47198,88.17099,156.76099)"/>
</svg>
