<svg xmlns="http://www.w3.org/2000/svg" xmlns:xlink="http://www.w3.org/1999/xlink" xmlns:inkscape="http://www.inkscape.org/namespaces/inkscape" version="1.1" width="239.412" height="177.663" viewBox="0 0 239.412 177.663">
<defs>
<path id="font_1_2506" d="M.12399292 .2111969C.15299988 .2961731 .21299744 .4111328 .2869873 .4111328 .31199647 .4111328 .33099366 .39312745 .33099366 .3681488 .33099366 .28016664 .23699951 .2111969 .1329956 .2111969H.12399292M.36299134 .11222839C.32699586 .0662384 .2789917 .04824829 .23699951 .04824829 .17599488 .04824829 .12399292 .0912323 .12399292 .1552124V.18319702C.24299622 .18920899 .4099884 .2381897 .4099884 .36514283 .4099884 .42712403 .34999085 .4411316 .30799867 .4411316 .18099976 .4411316 .070999149 .3161621 .04598999 .2052002 .040985109 .1822052 .039993287 .16821289 .039993287 .1452179 .039993287 .07324219 .07899475-.0107421879 .1769867-.0107421879 .23899842-.0107421879 .30699159 .013244629 .3769989 .099227908L.36299134 .11222839Z"/>
<path id="font_2_50" d="M.3939972 0V.01499939C.31900025 .01499939 .29899598 .032989503 .29899598 .07597351V.67277529L.2899933 .67578127 .11099243 .5847931V.5708008L.13798523 .5807953C.1559906 .5877991 .17298889 .59280398 .18299866 .59280398 .20399475 .59280398 .21299744 .57780459 .21299744 .543808V.0949707C.21299744 .039978029 .19198609 .018997193 .117996219 .01499939V0H.3939972Z"/>
<path id="font_2_51" d="M.47399903 .13696289 .45999146 .1429596C.4269867 .08699036 .4059906 .07598877 .3639984 .07598877H.12998963L.29499818 .2519226C.38398744 .34588624 .4229889 .42085267 .4229889 .4998169 .4229889 .59877017 .35099793 .67578127 .23799134 .67578127 .114990238 .67578127 .050994874 .5937805 .02999878 .4768219L.050994874 .47183229C.09098816 .5697937 .12599182 .6017761 .19799805 .6017761 .2829895 .6017761 .33699037 .55178835 .33699037 .4608307 .33699037 .37586976 .30099488 .29989625 .20698548 .200943L.0289917 .011993408V0H.41999818L.47399903 .13696289Z"/>
<path id="font_2_52" d="M.06098938 .50987246C.101989749 .58380129 .147995 .61576846 .20999146 .61576846 .27598573 .61576846 .31799317 .58180239 .31799317 .51387026 .31799317 .45292665 .28599549 .40795899 .23699951 .37998963 .21699524 .36799623 .19099427 .3570099 .15299988 .34402467V.33003236C.20999146 .33003236 .23298645 .32704164 .25498963 .3200531 .32398988 .3000641 .35899354 .2511139 .35899354 .17518616 .35899354 .09025574 .30299378 .022323609 .22898865 .022323609 .20098877 .022323609 .17999268 .027313233 .14299011 .05329895 .114990238 .073272708 .09899902 .07926941 .08198547 .07926941 .05899048 .07926941 .040985109 .06428528 .040985109 .043304445 .040985109 .0073242189 .07998657-.013671875 .15299988-.013671875 .24198914-.013671875 .33699037 .015319824 .3849945 .07926941 .4139862 .11723328 .43099977 .16618347 .43099977 .21913147 .43099977 .27108766 .4149933 .31704713 .3869934 .34802247 .3659973 .36999513 .34799195 .38198854 .3039856 .40097047 .37098695 .44093324 .39698792 .4908905 .39698792 .5388489 .39698792 .6207733 .33399964 .67578127 .24099732 .67578127 .13699341 .67578127 .07398987 .6087799 .04499817 .51387026L.06098938 .50987246Z"/>
<path id="font_3_9" d="M.3039856-.16122437C.1639862-.04423523 .13398743 .06877136 .13398743 .254776 .13398743 .44776917 .16499329 .5407715 .3039856 .6597748L.29499818 .67578127C.1349945 .58078 .04798889 .43676759 .04798889 .25177003 .04798889 .08177185 .13398743-.0872345 .2919922-.17723084L.3039856-.16122437Z"/>
<path id="font_3_66" d="M.2869873 .12716675C.2869873 .09819031 .2809906 .084198 .2519989 .064208988 .23498535 .053222658 .21398926 .048233034 .19400025 .048233034 .15499878 .048233034 .125 .07220459 .125 .12516785 .125 .15615845 .1349945 .18013 .15899658 .20211792 .18399048 .22509766 .22499085 .24609375 .2869873 .2680664V.12716675M.44198609 .066207889C.4249878 .052230836 .4149933 .047225954 .39898683 .047225954 .3809967 .047225954 .36799623 .067214969 .36799623 .11317444V.30404664C.36799623 .3650055 .3639984 .38598634 .33999635 .41496278 .31599427 .44395448 .27799989 .45996095 .22200012 .45996095 .1769867 .45996095 .1349945 .44795228 .10699463 .42996217 .07199097 .40797425 .055999757 .37599183 .055999757 .35002137 .055999757 .32302857 .07798767 .30404664 .09899902 .30404664 .125 .30404664 .14498902 .32603456 .14498902 .34501649 .14498902 .3659973 .13899231 .3690033 .13899231 .3869934 .13899231 .41397096 .16899109 .43595887 .20899964 .43595887 .2539978 .43595887 .2869873 .40797425 .2869873 .34602357V.29205323C.17399597 .25009156 .13699341 .23109436 .10699463 .21110535 .067993167 .18513489 .036987306 .14616394 .036987306 .094192508 .036987306 .02822876 .07998657-.009765625 .14199829-.009765625 .18499756-.009765625 .23399353 .0032196046 .2869873 .06321716H.28799439C.29299928 .010223389 .31498719-.009765625 .35198976-.009765625 .38598634-.009765625 .4119873 .00022888184 .44198609 .038223268V.066207889Z"/>
<path id="font_3_89" d="M.47898866 0V.01499939C.44799806 .01499939 .4249878 .03199768 .39698792 .07501221L.2689972 .27111817 .35198976 .39117433C.37098695 .41818238 .40098573 .43418885 .43299867 .43518067V.4501953H.2749939V.43518067C.30499269 .43318177 .31498719 .42718507 .31498719 .4131775 .31498719 .40116883 .2999878 .38316346 .27799989 .34814454 .2679901 .33314515 .2579956 .31713868 .24798584 .30412293 .24398804 .3111267 .23899842 .31713868 .23399353 .32414247 .20498657 .36715699 .18798828 .400177 .18798828 .4131775 .18798828 .42819215 .20098877 .43418885 .23098755 .43518067V.4501953H.023986817V.43518067H.032989503C.06298828 .43518067 .07899475 .42218019 .10998535 .37516786L.20399475 .23109436 .08999634 .06600952C.06199646 .024993897 .049987794 .017990113 .016998291 .01499939V0H.1619873V.01499939C.1329956 .01499939 .12199402 .019989014 .12199402 .03300476 .12199402 .040008546 .12799073 .052001954 .14199829 .074020389L.22099304 .19708252 .31199647 .057006837C.31599427 .05101013 .31799317 .04600525 .31799317 .039001466 .31799317 .020996094 .31098939 .016998291 .27799989 .01499939V0H.47898866Z"/>
<path id="font_3_74" d="M.25299073 0V.01499939C.18699646 .019989014 .1789856 .0309906 .1789856 .10499573V.45603944L.1749878 .46003724 .019989014 .4050293V.38902284C.037994386 .3940277 .052993776 .3940277 .06199646 .3940277 .08699036 .3940277 .09498596 .37802125 .09498596 .33102418V.104003909C.09498596 .027999878 .084991458 .018997193 .015991211 .01499939V0H.25299073M.17999268 .63204959C.17999268 .66004946 .1579895 .68304446 .1289978 .68304446 .100997928 .68304446 .07798767 .66004946 .07798767 .63204959 .07798767 .6030426 .099990848 .5810547 .12799073 .5810547 .1579895 .5810547 .17999268 .6030426 .17999268 .63204959Z"/>
<path id="font_3_84" d="M.1559906 .3010559C.12799073 .31803895 .11299133 .34703065 .11299133 .36901856 .11299133 .4159851 .14498902 .4369812 .18798828 .4369812 .24798584 .4369812 .27799989 .4039917 .30099488 .31404115H.31599427L.31098939 .4499817H.2999878C.2919922 .440979 .28799439 .43997193 .28399659 .43997193 .2769928 .43997193 .2669983 .4429779 .2559967 .4479828 .23498535 .4579773 .21299744 .45898438 .18899536 .45898438 .10699463 .45898438 .050994874 .4149933 .050994874 .33602906 .050994874 .2850647 .08799744 .23709107 .17098999 .19111634L.22499085 .16113281C.2579956 .1431427 .27799989 .11715698 .27799989 .08618164 .27799989 .045211793 .24598694 .01222229 .19499207 .01222229 .12599182 .01222229 .08898926 .05619812 .067993167 .1531372H.051986696V-.003768921H.06498718C.070999149 .006225586 .07699585 .008224487 .08898926 .008224487 .099990848 .008224487 .11099243 .007232666 .1349945-.00077819827 .1579895-.008773804 .18699646-.009765625 .20799256-.009765625 .28399659-.009765625 .34799195 .048202516 .34799195 .11515808 .34799195 .1721344 .32398988 .19911194 .2599945 .23809815L.1559906 .3010559Z"/>
<path id="font_3_80" d="M.37998963 .20410156C.37998963 .08818054 .33599855 .018234253 .2619934 .018234253 .22599793 .018234253 .19400025 .036209108 .17199707 .06819153 .1349945 .122161868 .11898804 .19410706 .11898804 .27305604 .11898804 .3730011 .1659851 .4319458 .23498535 .4319458 .27799989 .4319458 .30599977 .41197206 .32998658 .38198854 .3619995 .34101869 .37998963 .2720642 .37998963 .20410156M.46998597 .23109436C.46998597 .3690033 .37599183 .45996095 .2539978 .45996095 .11898804 .45996095 .0289917 .3670044 .0289917 .22808838 .0289917 .08918762 .12399292-.009765625 .24499512-.009765625 .37998963-.009765625 .46998597 .092178348 .46998597 .23109436Z"/>
<path id="font_3_71" d="M.020996094 .4501953V.41818238H.102996829V.104034427C.102996829 .0309906 .09199524 .018997193 .019989014 .01499939V0H.27999879V.01499939C.19799805 .017990113 .18699646 .0289917 .18699646 .104034427V.41818238H.30899049V.4501953H.18699646V.5662384C.18699646 .6252594 .20498657 .65527346 .24299622 .65527346 .2649994 .65527346 .27799989 .6452637 .29599 .6162567 .31199647 .5892334 .32398988 .5802307 .34098817 .5802307 .36499024 .5802307 .3829956 .5982361 .3829956 .62124636 .3829956 .65727236 .33898927 .6832733 .2789917 .6832733 .21598816 .6832733 .1639862 .65626528 .13798523 .61125186 .11199951 .5662384 .10398865 .5302124 .102996829 .4501953H.020996094Z"/>
<path id="font_3_53" d="M.59298709 .4920807 .58599856 .6621094H.023986817L.016998291 .4920807H.040985109C.06098938 .60209658 .08799744 .6201019 .19400025 .6201019H.2539978V.12301636C.2539978 .034988405 .24299622 .023986817 .1599884 .018997193V0H.45199586V.018997193C.36999513 .022994996 .35598756 .034988405 .35598756 .11100769V.6201019H.4149933C.5209961 .6201019 .5469971 .60209658 .56900027 .4920807H.59298709Z"/>
<path id="font_3_42" d="M.31498719 0V.018997193C.23298645 .021987915 .21699524 .037002565 .21699524 .11201477V.5510864C.21699524 .6271057 .23098755 .6390991 .31498719 .6430969V.6621094H.017990113V.6430969C.102996829 .6381073 .114990238 .63009646 .114990238 .5510864V.11201477C.114990238 .033996583 .101989749 .021987915 .017990113 .018997193V0H.31498719Z"/>
<path id="font_3_78" d="M.7749939 0V.01499939L.7489929 .016998291C.71899417 .018997193 .70599368 .03199768 .70599368 .07698059V.27996827C.70599368 .39794923 .67099 .45996095 .58999636 .45996095 .5319977 .45996095 .48098756 .43395997 .4269867 .3759613 .40899659 .43295289 .375 .45996095 .32099916 .45996095 .27598573 .45996095 .23399353 .45095826 .16799927 .38294984H.1659851V.45695497L.1579895 .45996095C.10699463 .4409485 .07398987 .4299469 .018997193 .4149475V.39794923C.03199768 .4009552 .039993287 .40194703 .050994874 .40194703 .07699585 .40194703 .085998538 .38494874 .085998538 .33595277V.08798218C.085998538 .02999878 .07199097 .015991211 .015991211 .01499939V0H.23799134V.01499939C.18499756 .016998291 .16999817 .026992798 .16999817 .069992069V.34796144C.16999817 .34996034 .17599488 .3569641 .18299866 .36495973 .20298767 .3889618 .2519989 .40795899 .2889862 .40795899 .33198548 .40795899 .35398866 .36595155 .35398866 .29696656V.08598328C.35398866 .024993897 .34298707 .018997193 .28599549 .01499939V0H.5099945V.01499939C.45298768 .015991211 .43798829 .02999878 .43798829 .09498596V.34695436C.46798707 .3899536 .49798585 .40795899 .54499819 .40795899 .60198977 .40795899 .621994 .37495423 .621994 .29595948V.08998108C.621994 .03199768 .61299136 .020996094 .5569916 .01499939V0H.7749939Z"/>
<path id="font_3_85" d="M.2659912 .07722473C.24398804 .051223756 .22799683 .04222107 .20599365 .04222107 .16899109 .04222107 .1539917 .068222049 .1539917 .1322174V.41818238H.25498963V.4501953H.1539917V.5661926C.1539917 .57618716 .1519928 .5791931 .14698792 .5791931 .14099121 .56918337 .1329956 .56018069 .1269989 .55119326 .08898926 .4961853 .055999757 .45918275 .02999878 .44418336 .018997193 .43719483 .0129852299 .43118287 .0129852299 .42518617 .0129852299 .42218019 .01399231 .42018128 .016998291 .41818238H.069992069V.11721802C.069992069 .033233644 .099990848-.009765625 .1579895-.009765625 .20799256-.009765625 .24598694 .014221191 .2789917 .066223148L.2659912 .07722473Z"/>
<path id="font_3_83" d="M.1599884 .45794679 .15499878 .45996095C.101989749 .43894959 .06599426 .42495729 .0069885256 .40596009V.3899536C.020996094 .3929596 .02999878 .39396668 .041992189 .39396668 .066986087 .39396668 .07598877 .3779602 .07598877 .33396913V.083984378C.07598877 .033996583 .068984989 .026992798 .004989624 .01499939V0H.24499512V.01499939C.1769867 .017990113 .1599884 .032989503 .1599884 .08998108V.31497193C.1599884 .3469696 .20199585 .3969574 .22999573 .3969574 .23599243 .3969574 .24499512 .3919525 .2559967 .381958 .27198792 .36695863 .2829895 .361969 .29599 .361969 .31999208 .361969 .33499146 .3789673 .33499146 .4069519 .33499146 .43995667 .31399537 .45996095 .27999879 .45996095 .23799134 .45996095 .20999146 .43795777 .1599884 .3659668V.45794679Z"/>
<path id="font_3_10" d="M.0289917 .6597748C.17399597 .54577639 .19898987 .43077088 .19898987 .24377442 .19898987 .04977417 .17098999-.04423523 .0289917-.16122437L.037994386-.17723084C.19699097-.08023071 .2849884 .061767579 .2849884 .24676514 .2849884 .41677857 .19400025 .58377078 .040985109 .67578127L.0289917 .6597748Z"/>
<path id="font_1_3193" d="M.6899872 .35546876C.69799807 .3364563 .70199587 .31443788 .70199587 .28442384 .70199587 .19836426 .625 .019256592 .5369873 .019256592 .48399354 .019256592 .46699525 .06628418 .46699525 .11631775 .5029907 .16835022 .522995 .21037293 .522995 .26541139 .522995 .3024292 .5059967 .32144166 .48298646 .32144166 .4189911 .32144166 .4139862 .22537232 .4139862 .17234802 .4139862 .15834046 .41600038 .13632202 .41799928 .12130737 .40499879 .075286868 .34899903 .019256592 .29100038 .019256592 .24598694 .019256592 .22299195 .0632782 .22299195 .109313968 .22299195 .20936585 .2599945 .2984314 .31900025 .35546876H.6899872M.8659973 .4284668H.23699951C.13999939 .4284668 .056991579 .3464508 .02999878 .2684021H.04598999C.07899475 .31744386 .1269989 .35546876 .18099976 .35546876H.23098755C.17399597 .30142213 .14099121 .23239136 .14099121 .14732361 .14099121 .07829285 .1769867-.0107421879 .2789917-.0107421879 .34498597-.0107421879 .3919983 .025253296 .43299867 .075286868 .43699647 .024246216 .47799684-.0107421879 .5369873-.0107421879 .6409912-.0107421879 .7819977 .10229492 .7819977 .27241517 .7819977 .306427 .776001 .33244325 .7639923 .35546876H.84399417L.8659973 .4284668Z"/>
<path id="font_1_2514" d="M.46699525 .096206668 .45399476 .10720825C.43998719 .09020996 .41600038 .05418396 .3919983 .05418396 .3809967 .05418396 .37799073 .062179567 .3769989 .06819153 .3769989 .07319641 .3769989 .07620239 .37799073 .078201297L.43699647 .3093567C.44198609 .32936097 .44799806 .35438539 .44799806 .37939454 .44799806 .4123993 .43598939 .44140626 .3919983 .44140626 .33198548 .44140626 .27198792 .37539674 .23199463 .32536317 .22999573 .32235719 .18099976 .25231935 .17599488 .25231935H.17298889L.22399903 .44140626 .06498718 .418396 .066986087 .4033966C.07398987 .4044037 .084991458 .4064026 .09498596 .4064026 .12199402 .4064026 .125 .39239503 .125 .37438966L.02999878 0H.10699463L.13999939 .12411499C.1459961 .1451416 .17199707 .19218445 .20799256 .24624634 .23899842 .29330445 .3019867 .37939454 .33999635 .37939454 .35798646 .37939454 .3639984 .36038209 .3639984 .34135438 .3639984 .3273468 .35899354 .307312 .35699464 .2993164L.2999878 .078063968C.29699708 .06704712 .29299928 .05102539 .29299928 .038009645 .29299928 .015182495 .3019867-.0078125 .33399964-.0078125 .38598634-.0078125 .43399049 .05618286 .46199037 .09020996L.46699525 .096206668Z"/>
</defs>
<path transform="matrix(1,0,0,-1,145.249,112.660999)" stroke-width=".79701" stroke-linecap="butt" stroke-miterlimit="10" stroke-linejoin="miter" fill="none" stroke="#000000" d="M0 0-39.29446-3.46428"/>
<path transform="matrix(-.99611,.0878,.0878,.99611,105.95453,116.125278)" d="M2.59026 0-1.55415 2.0722 0 0-1.55415-2.0722"/>
<use data-text="&#x1d452;" xlink:href="#font_1_2506" transform="matrix(9.96264,0,0,-9.96264,99.086,108.73799)"/>
<path transform="matrix(1,0,0,-1,99.086,111.148998)" stroke-width=".658" stroke-linecap="butt" stroke-miterlimit="10" stroke-linejoin="miter" fill="none" stroke="#000000" d="M0 0H4.433"/>
<use data-text="1" xlink:href="#font_2_50" transform="matrix(7.47198,0,0,-7.47198,103.519,112.633998)"/>
<path transform="matrix(1,0,0,-1,145.249,112.660999)" stroke-width=".79701" stroke-linecap="butt" stroke-miterlimit="10" stroke-linejoin="miter" fill="none" stroke="#000000" d="M0 0 6.52199-18.49432"/>
<path transform="matrix(.33257,.94302,.94302,-.33257,151.77097,131.15532)" d="M2.59026 0-1.55415 2.0722 0 0-1.55415-2.0722"/>
<use data-text="&#x1d452;" xlink:href="#font_1_2506" transform="matrix(9.96264,0,0,-9.96264,156.351,133.84699)"/>
<path transform="matrix(1,0,0,-1,156.351,136.258)" stroke-width=".658" stroke-linecap="butt" stroke-miterlimit="10" stroke-linejoin="miter" fill="none" stroke="#000000" d="M0 0H4.433"/>
<use data-text="2" xlink:href="#font_2_51" transform="matrix(7.47198,0,0,-7.47198,160.784,137.74199)"/>
<path transform="matrix(1,0,0,-1,145.249,112.660999)" stroke-width=".79701" stroke-linecap="butt" stroke-miterlimit="10" stroke-linejoin="miter" fill="none" stroke="#000000" d="M0 0V34.23341"/>
<path transform="matrix(0,-1,-1,-0,145.249,78.42758)" d="M2.59026 0-1.55415 2.0722 0 0-1.55415-2.0722"/>
<use data-text="&#x1d452;" xlink:href="#font_1_2506" transform="matrix(9.96264,0,0,-9.96264,148.96799,77.24)"/>
<path transform="matrix(1,0,0,-1,148.96799,79.65099)" stroke-width=".658" stroke-linecap="butt" stroke-miterlimit="10" stroke-linejoin="miter" fill="none" stroke="#000000" d="M0 0H4.433"/>
<use data-text="3" xlink:href="#font_2_52" transform="matrix(7.47198,0,0,-7.47198,153.40099,81.134998)"/>
<use data-text="(" xlink:href="#font_3_9" transform="matrix(9.96264,0,0,-9.96264,160.03598,77.24)"/>
<use data-text="a" xlink:href="#font_3_66" transform="matrix(9.96264,0,0,-9.96264,163.35355,77.24)"/>
<use data-text="x" xlink:href="#font_3_89" transform="matrix(9.96264,0,0,-9.96264,167.77696,77.24)"/>
<use data-text="i" xlink:href="#font_3_74" transform="matrix(9.96264,0,0,-9.96264,172.75829,77.24)"/>
<use data-text="s" xlink:href="#font_3_84" transform="matrix(9.96264,0,0,-9.96264,175.5279,77.24)"/>
<use data-text="o" xlink:href="#font_3_80" transform="matrix(9.96264,0,0,-9.96264,181.89403,77.24)"/>
<use data-text="f" xlink:href="#font_3_71" transform="matrix(9.96264,0,0,-9.96264,186.87535,77.24)"/>
<use data-text="T" xlink:href="#font_3_53" transform="matrix(9.96264,0,0,-9.96264,192.68358,77.24)"/>
<use data-text="I" xlink:href="#font_3_42" transform="matrix(9.96264,0,0,-9.96264,198.77075,77.24)"/>
<use data-text="m" xlink:href="#font_3_78" transform="matrix(9.96264,0,0,-9.96264,204.57898,77.24)"/>
<use data-text="a" xlink:href="#font_3_66" transform="matrix(9.96264,0,0,-9.96264,212.32991,77.24)"/>
<use data-text="t" xlink:href="#font_3_85" transform="matrix(9.96264,0,0,-9.96264,216.75333,77.24)"/>
<use data-text="r" xlink:href="#font_3_83" transform="matrix(9.96264,0,0,-9.96264,219.52294,77.24)"/>
<use data-text="i" xlink:href="#font_3_74" transform="matrix(9.96264,0,0,-9.96264,223.02979,77.24)"/>
<use data-text="x" xlink:href="#font_3_89" transform="matrix(9.96264,0,0,-9.96264,225.7994,77.24)"/>
<use data-text=")" xlink:href="#font_3_10" transform="matrix(9.96264,0,0,-9.96264,230.78072,77.24)"/>
<path transform="matrix(1,0,0,-1,145.249,112.660999)" stroke-width=".3985" stroke-linecap="butt" stroke-dasharray=".3985,1.99255" stroke-miterlimit="10" stroke-linejoin="miter" fill="none" stroke="#000000" d="M0 0-125.62398-11.07512"/>
<path transform="matrix(1,0,0,-1,145.249,112.660999)" stroke-width=".3985" stroke-linecap="butt" stroke-dasharray=".3985,1.99255" stroke-miterlimit="10" stroke-linejoin="miter" fill="none" stroke="#000000" d="M0 0 22.15025-62.81099"/>
<path transform="matrix(1,0,0,-1,145.249,112.660999)" stroke-width=".3985" stroke-linecap="butt" stroke-dasharray=".3985,1.99255" stroke-miterlimit="10" stroke-linejoin="miter" fill="none" stroke="#000000" d="M0 0V110.47107"/>
<path transform="matrix(1,0,0,-1,145.249,112.660999)" stroke-width=".3985" stroke-linecap="butt" stroke-dasharray="2.98883,2.98883" stroke-miterlimit="10" stroke-linejoin="miter" fill="none" stroke="#000000" d="M0 0-51.2105 73.48569"/>
<path transform="matrix(-.57173,-.8204,-.8204,.57173,94.0385,39.17531)" d="M1.99252 0-1.19551 1.59401 0 0-1.19551-1.59401"/>
<path transform="matrix(1,0,0,-1,145.249,112.660999)" d="M-12.56252-1.1075-12.39594-1.50325-12.18062-1.89339-11.91592-2.27586-11.60312-2.6492-11.24333-3.01176-10.83849-3.36215-10.39023-3.69911-9.90045-4.02127-9.37021-4.32732-8.80212-4.61551-8.19894-4.8855-7.56256-5.13573-6.89598-5.36519-6.20204-5.57315-5.48184-5.75835-4.74077-5.92064-3.97975-6.05911-3.20296-6.1731-2.41386-6.2623-1.61458-6.32623-.8085-6.36455 0-6.3779 .80951-6.36453 1.61491-6.32613 2.41327-6.26234 3.20267-6.173 3.97943-6.05907 4.74037-5.92082 5.48164-5.75862 6.2016-5.57327 6.89575-5.36517 7.56259-5.13574 8.19908-4.88562 8.80162-4.61574 9.36987-4.32715 9.89983-4.0215 10.38968-3.69933 10.8381-3.36235 11.24359-3.01201 11.60255-2.6493 11.91501-2.2762 12.17993-1.89348 12.3956-1.50357 12.5616-1.10745 12.67653-.70667 12.7412-.30338 12.75397 .10126 12.7148 .50563 12.62567 .90787 12.4853 1.30592 12.29391 1.69913 12.05424 2.08548 11.76543 2.46355 11.4287 2.83177 11.04716 3.18883 10.61972 3.53226 10.15025 3.8621 9.64015 4.17651 9.09067 4.47363 8.50533 4.75273 7.88521 5.013 7.2327 5.2529 6.55263 5.47194 5.84494 5.66846 5.1142 5.84254 4.36276 5.99307 3.59364 6.11894 2.80995 6.22083 2.01534 6.29767 1.21213 6.3484 .40446 6.37437-.40446 6.3742-1.21234 6.34845-2.01523 6.29741-2.80911 6.22087-3.5928 6.11917-4.36208 5.99336-5.1133 5.8425-5.84457 5.66864-6.55193 5.4719-7.23242 5.25313-7.88435 5.01318-8.50478 4.7529-9.09013 4.47368-9.63959 4.17656-10.1501 3.86243-10.61954 3.5328-11.04636 3.18883-11.42848 2.832-11.76451 2.46408-12.05351 2.08615-12.29396 1.69928-12.48468 1.30597-12.62546 .9075-12.71489 .50531-12.75412 .10097-12.74066-.30333-12.6768-.70683-12.56187-1.10744" fill="#7f807f" fill-opacity=".1"/>
<path transform="matrix(1,0,0,-1,145.249,112.660999)" stroke-width=".3985" stroke-linecap="butt" stroke-miterlimit="10" stroke-linejoin="miter" fill="none" stroke="#7f807f" d="M-12.56252-1.1075-12.39594-1.50325-12.18062-1.89339-11.91592-2.27586-11.60312-2.6492-11.24333-3.01176-10.83849-3.36215-10.39023-3.69911-9.90045-4.02127-9.37021-4.32732-8.80212-4.61551-8.19894-4.8855-7.56256-5.13573-6.89598-5.36519-6.20204-5.57315-5.48184-5.75835-4.74077-5.92064-3.97975-6.05911-3.20296-6.1731-2.41386-6.2623-1.61458-6.32623-.8085-6.36455 0-6.3779 .80951-6.36453 1.61491-6.32613 2.41327-6.26234 3.20267-6.173 3.97943-6.05907 4.74037-5.92082 5.48164-5.75862 6.2016-5.57327 6.89575-5.36517 7.56259-5.13574 8.19908-4.88562 8.80162-4.61574 9.36987-4.32715 9.89983-4.0215 10.38968-3.69933 10.8381-3.36235 11.24359-3.01201 11.60255-2.6493 11.91501-2.2762 12.17993-1.89348 12.3956-1.50357 12.5616-1.10745 12.67653-.70667 12.7412-.30338 12.75397 .10126 12.7148 .50563 12.62567 .90787 12.4853 1.30592 12.29391 1.69913 12.05424 2.08548 11.76543 2.46355 11.4287 2.83177 11.04716 3.18883 10.61972 3.53226 10.15025 3.8621 9.64015 4.17651 9.09067 4.47363 8.50533 4.75273 7.88521 5.013 7.2327 5.2529 6.55263 5.47194 5.84494 5.66846 5.1142 5.84254 4.36276 5.99307 3.59364 6.11894 2.80995 6.22083 2.01534 6.29767 1.21213 6.3484 .40446 6.37437-.40446 6.3742-1.21234 6.34845-2.01523 6.29741-2.80911 6.22087-3.5928 6.11917-4.36208 5.99336-5.1133 5.8425-5.84457 5.66864-6.55193 5.4719-7.23242 5.25313-7.88435 5.01318-8.50478 4.7529-9.09013 4.47368-9.63959 4.17656-10.1501 3.86243-10.61954 3.5328-11.04636 3.18883-11.42848 2.832-11.76451 2.46408-12.05351 2.08615-12.29396 1.69928-12.48468 1.30597-12.62546 .9075-12.71489 .50531-12.75412 .10097-12.74066-.30333-12.6768-.70683-12.56187-1.10744"/>
<use data-text="&#x1d71b;" xlink:href="#font_1_3193" transform="matrix(9.96264,0,0,-9.96264,126.895999,75.646999)" fill="#008000"/>
<path transform="matrix(1,0,0,-1,145.249,112.660999)" stroke-width=".79701" stroke-linecap="butt" stroke-miterlimit="10" stroke-linejoin="miter" fill="none" stroke="#008000" d="M0 47.8709C-9.55324 47.02869-18.94536 43.98737-27.21857 39.05792"/>
<path transform="matrix(1,0,0,-1,145.249,112.660999)" stroke-width=".79701" stroke-linecap="butt" stroke-miterlimit="10" stroke-linejoin="miter" fill="none" stroke="#0000ff" d="M-52.34967 75.12036-71.80579 103.03955"/>
<path transform="matrix(-.57172,-.82042,-.82042,.57172,73.44322,9.621445)" d="M2.59026 0-1.55415 2.0722 0 0-1.55415-2.0722" fill="#0000ff"/>
<use data-text="&#x1d45b;" xlink:href="#font_1_2514" transform="matrix(9.96264,0,0,-9.96264,63.29299,15.610001)" fill="#0000ff"/>
<path transform="matrix(1,0,0,-1,63.29299,17.990998)" stroke-width=".658" stroke-linecap="butt" stroke-miterlimit="10" stroke-linejoin="miter" fill="none" stroke="#0000ff" d="M0 0H4.951"/>
<path transform="matrix(1,0,0,-1,145.249,112.660999)" d="M-88.6141 53.51184-88.07118 52.22864-87.38684 51.03625-86.5607 49.94109-85.59622 48.94737-84.49873 48.05878-83.2711 47.27979-81.91888 46.61255-80.4487 46.05893-78.8643 45.62398-77.17322 45.30792-75.38313 45.10997-73.49908 45.03488-71.53087 45.07994-69.48549 45.246-67.36964 45.53326-65.19492 45.93839-62.96739 46.4615-60.69777 47.10062-58.39449 47.85136-56.06674 48.71301-53.72342 49.68054-51.37561 50.74936-49.0311 51.91866-46.70029 53.17992-44.39247 54.52914-42.11694 55.96236-39.88177 57.47205-37.69658 59.05325-35.57103 60.69907-33.51192 62.40227-31.53075 64.15764-29.63202 65.9567-27.82393 67.7926-26.11664 69.65808-24.51364 71.54575-23.02228 73.44806-21.65149 75.35625-20.4017 77.26384-19.28098 79.16336-18.29427 81.04602-17.44434 82.90442-16.73499 84.73242-16.16974 86.5209-15.74791 88.26419-15.476 89.95406-15.35135 91.5848-15.37529 93.14902-15.55006 94.63962-15.87044 96.05313-16.33862 97.38086-16.9528 98.61931-17.70804 99.76402-18.6042 100.80891-19.63602 101.75058-20.79785 102.58614-22.08922 103.30858-23.5011 103.91902-25.02838 104.41425-26.6674 104.78957-28.4087 105.04674-30.24677 105.18324-32.17447 105.19789-34.1813 105.09349-36.26349 104.86646-38.40988 104.51962-40.61157 104.05629-42.86166 103.47371-45.14969 102.77844-47.46631 101.97253-49.80302 101.05647-52.14932 100.03844-54.4965 98.91858-56.83534 97.70279-59.15646 96.39703-61.44862 95.00537-63.70511 93.53322-65.9169 91.9876-68.0728 90.37282-70.16637 88.69699-72.18794 86.96704-74.12888 85.18883-75.98215 83.3709-77.74165 81.5187-79.3972 79.6415-80.94511 77.74568-82.37741 75.83913-83.68835 73.93027-84.87433 72.02591-85.92815 70.13416-86.84698 68.26218-87.6277 66.41832-88.26523 64.60878-88.75899 62.84163-89.10623 61.12424-89.30403 59.46346-89.35515 57.86531-89.25555 56.33727-89.00772 54.88441-88.61362 53.5125" fill="#ff0000" fill-opacity=".1"/>
<path transform="matrix(1,0,0,-1,145.249,112.660999)" stroke-width=".3985" stroke-linecap="butt" stroke-miterlimit="10" stroke-linejoin="miter" fill="none" stroke="#ff0000" d="M-88.6141 53.51184-88.07118 52.22864-87.38684 51.03625-86.5607 49.94109-85.59622 48.94737-84.49873 48.05878-83.2711 47.27979-81.91888 46.61255-80.4487 46.05893-78.8643 45.62398-77.17322 45.30792-75.38313 45.10997-73.49908 45.03488-71.53087 45.07994-69.48549 45.246-67.36964 45.53326-65.19492 45.93839-62.96739 46.4615-60.69777 47.10062-58.39449 47.85136-56.06674 48.71301-53.72342 49.68054-51.37561 50.74936-49.0311 51.91866-46.70029 53.17992-44.39247 54.52914-42.11694 55.96236-39.88177 57.47205-37.69658 59.05325-35.57103 60.69907-33.51192 62.40227-31.53075 64.15764-29.63202 65.9567-27.82393 67.7926-26.11664 69.65808-24.51364 71.54575-23.02228 73.44806-21.65149 75.35625-20.4017 77.26384-19.28098 79.16336-18.29427 81.04602-17.44434 82.90442-16.73499 84.73242-16.16974 86.5209-15.74791 88.26419-15.476 89.95406-15.35135 91.5848-15.37529 93.14902-15.55006 94.63962-15.87044 96.05313-16.33862 97.38086-16.9528 98.61931-17.70804 99.76402-18.6042 100.80891-19.63602 101.75058-20.79785 102.58614-22.08922 103.30858-23.5011 103.91902-25.02838 104.41425-26.6674 104.78957-28.4087 105.04674-30.24677 105.18324-32.17447 105.19789-34.1813 105.09349-36.26349 104.86646-38.40988 104.51962-40.61157 104.05629-42.86166 103.47371-45.14969 102.77844-47.46631 101.97253-49.80302 101.05647-52.14932 100.03844-54.4965 98.91858-56.83534 97.70279-59.15646 96.39703-61.44862 95.00537-63.70511 93.53322-65.9169 91.9876-68.0728 90.37282-70.16637 88.69699-72.18794 86.96704-74.12888 85.18883-75.98215 83.3709-77.74165 81.5187-79.3972 79.6415-80.94511 77.74568-82.37741 75.83913-83.68835 73.93027-84.87433 72.02591-85.92815 70.13416-86.84698 68.26218-87.6277 66.41832-88.26523 64.60878-88.75899 62.84163-89.10623 61.12424-89.30403 59.46346-89.35515 57.86531-89.25555 56.33727-89.00772 54.88441-88.61362 53.5125"/>
</svg>
