<svg xmlns="http://www.w3.org/2000/svg" xmlns:xlink="http://www.w3.org/1999/xlink" xmlns:inkscape="http://www.inkscape.org/namespaces/inkscape" version="1.1" width="233.253" height="197.23" viewBox="0 0 233.253 197.23">
<defs>
<path id="font_1_49" d="M.37998963 .32505799C.37998963 .12722779 .33499146 .012313843 .25 .012313843 .1639862 .012313843 .11999512 .1262207 .11999512 .32904054 .11999512 .5318756 .16499329 .6497803 .24798584 .6497803 .33599855 .6497803 .37998963 .53286746 .37998963 .32505799M.47599793 .3300476C.47599793 .53486636 .3849945 .67578127 .2539978 .67578127 .09298706 .67578127 .023986817 .5128937 .023986817 .3360443 .023986817 .17218018 .07899475-.013671875 .25-.013671875 .41299439-.013671875 .47599793 .15818787 .47599793 .3300476Z"/>
<path id="font_1_3177" d="M.56799319 .4284668H.28599549C.18199158 .4284668 .117996219 .38246156 .07398987 .3024292H.08999634C.13398743 .35546876 .17098999 .35546876 .22898865 .35546876L.13999939 .14936829C.1269989 .12034607 .10899353 .09133911 .06599426 .079330448 .039993287 .07232666 .034988405 .046310426 .034988405 .031311037 .034988405 .007293701 .05999756-.0126953129 .085998538-.0126953129 .09799194-.0126953129 .11299133-.010696411 .12399292-.0017089844 .20799256 .061325075 .23899842 .23339844 .2849884 .35546876H.3789978C.35398866 .27142335 .32398988 .2013855 .30099488 .13035584 .29499818 .111343387 .2919922 .09133911 .2919922 .06832886 .2919922 .029159546 .30899049-.0068359377 .34899903-.0068359377 .4189911-.0068359377 .47200013 .06315613 .49299623 .13522339H.47698976C.45298768 .08117676 .4249878 .06915283 .4039917 .06915283 .38198854 .06915283 .3659973 .094177249 .3659973 .11720276 .3659973 .1842804 .4189911 .31240846 .43299867 .35546876H.54499819L.56799319 .4284668Z"/>
<path id="font_1_48" d="M.2869873 .67578127H.21998596L-.009002686-.013671875H.05899048L.2869873 .67578127Z"/>
<path id="font_1_50" d="M.3939972 0V.01499939C.31900025 .01499939 .29899598 .032989503 .29899598 .07597351V.67277529L.2899933 .67578127 .11099243 .5847931V.5708008L.13798523 .5807953C.1559906 .5877991 .17298889 .59280398 .18299866 .59280398 .20399475 .59280398 .21299744 .57780459 .21299744 .543808V.0949707C.21299744 .039978029 .19198609 .018997193 .117996219 .01499939V0H.3939972Z"/>
<path id="font_1_55" d="M.37799073 .18850708C.37799073 .08639526 .34098817 .014328003 .2689972 .014328003 .1749878 .014328003 .1269989 .11442566 .1269989 .2665863 .1269989 .3586731 .18598938 .3827057 .24299622 .3827057 .33599855 .3827057 .37799073 .31663514 .37799073 .18850708M.44599916 .68470767C.30799867 .66970828 .22898865 .6457062 .14299011 .55570986 .07199097 .48269654 .033996583 .38771058 .033996583 .27960206 .033996583 .20951844 .052993776 .138443 .08099365 .087402347 .115997318 .023330689 .1789856-.013671875 .2579956-.013671875 .32398988-.013671875 .37998963 .013320923 .4169922 .05937195 .44999696 .09941101 .46798707 .1554718 .46798707 .2195282 .46798707 .34866334 .3959961 .42871095 .2789917 .42871095 .23498535 .42871095 .20098877 .42170716 .1519928 .3836975 .1789856 .5346985 .29100038 .6427002 .44799806 .6687012L.44599916 .68470767Z"/>
<path id="font_1_57" d="M.2709961 .27209474C.33898927 .22613526 .36898805 .18617249 .36898805 .1242218 .36898805 .059280397 .32398988 .014328003 .25898744 .014328003 .18299866 .014328003 .13198853 .06626892 .13198853 .15820313 .13198853 .22314453 .15299988 .26409913 .21199036 .3120575L.2709961 .27209474M.35499574 .53286746C.35499574 .470932 .32899476 .42897035 .26098634 .3889923 .17298889 .4409485 .13598633 .48690797 .13598633 .54885867 .13598633 .6108093 .1789856 .6477661 .24598694 .6477661 .31399537 .6477661 .35499574 .60180667 .35499574 .53286746M.44499208 .15519715C.44499208 .23512268 .41299439 .28907777 .2899933 .37101747 .3889923 .42396546 .42399598 .45793153 .42399598 .53286746 .42399598 .6108093 .35499574 .67578127 .2559967 .67578127 .14498902 .67578127 .06199646 .61579897 .06199646 .5198822 .06199646 .4549408 .08299255 .41697694 .18598938 .3320465 .07899475 .2571106 .055999757 .21813965 .055999757 .14920044 .055999757 .055282594 .1349945-.013671875 .24798584-.013671875 .36799623-.013671875 .44499208 .05229187 .44499208 .15519715Z"/>
<path id="font_1_52" d="M.06098938 .50987246C.101989749 .58380129 .147995 .61576846 .20999146 .61576846 .27598573 .61576846 .31799317 .58180239 .31799317 .51387026 .31799317 .45292665 .28599549 .40795899 .23699951 .37998963 .21699524 .36799623 .19099427 .3570099 .15299988 .34402467V.33003236C.20999146 .33003236 .23298645 .32704164 .25498963 .3200531 .32398988 .3000641 .35899354 .2511139 .35899354 .17518616 .35899354 .09025574 .30299378 .022323609 .22898865 .022323609 .20098877 .022323609 .17999268 .027313233 .14299011 .05329895 .114990238 .073272708 .09899902 .07926941 .08198547 .07926941 .05899048 .07926941 .040985109 .06428528 .040985109 .043304445 .040985109 .0073242189 .07998657-.013671875 .15299988-.013671875 .24198914-.013671875 .33699037 .015319824 .3849945 .07926941 .4139862 .11723328 .43099977 .16618347 .43099977 .21913147 .43099977 .27108766 .4149933 .31704713 .3869934 .34802247 .3659973 .36999513 .34799195 .38198854 .3039856 .40097047 .37098695 .44093324 .39698792 .4908905 .39698792 .5388489 .39698792 .6207733 .33399964 .67578127 .24099732 .67578127 .13699341 .67578127 .07398987 .6087799 .04499817 .51387026L.06098938 .50987246Z"/>
<path id="font_1_53" d="M.2919922 .23098755H.051986696L.2919922 .573822V.23098755M.47299195 .16699219V.23098755H.36999513V.67578127H.32598878L.011993408 .23098755V.16699219H.2919922V0H.36999513V.16699219H.47299195Z"/>
<path id="font_1_51" d="M.47399903 .13696289 .45999146 .1429596C.4269867 .08699036 .4059906 .07598877 .3639984 .07598877H.12998963L.29499818 .2519226C.38398744 .34588624 .4229889 .42085267 .4229889 .4998169 .4229889 .59877017 .35099793 .67578127 .23799134 .67578127 .114990238 .67578127 .050994874 .5937805 .02999878 .4768219L.050994874 .47183229C.09098816 .5697937 .12599182 .6017761 .19799805 .6017761 .2829895 .6017761 .33699037 .55178835 .33699037 .4608307 .33699037 .37586976 .30099488 .29989625 .20698548 .200943L.0289917 .011993408V0H.41999818L.47399903 .13696289Z"/>
<clipPath id="clip_2">
<path transform="matrix(1,0,0,-1,35.599,163.58699)" d="M0 0H194.2717V161.39727H0Z"/>
</clipPath>
<path id="font_1_3169" d="M.35598756 .30773927C.35299684 .29875184 .34700013 .270813 .33999635 .24784851 .30899049 .14901734 .24899292 .018249512 .18199158 .018249512 .13899231 .018249512 .12399292 .074157718 .12399292 .14303589 .12399292 .19094849 .1329956 .25782777 .14898682 .30773927H.35598756M.15899658 .34375C.18499756 .4628296 .2669983 .6389618 .33898927 .6389618 .37998963 .6389618 .3899994 .58291628 .3899994 .50987246 .3899994 .46884156 .37998963 .41378785 .36499024 .34375H.15899658M.47399903 .47183229C.47399903 .6049347 .4189911 .66796877 .34599305 .66796877 .1559906 .66796877 .039993287 .34173585 .039993287 .16798401 .039993287 .048202516 .08198547-.0107421879 .1769867-.0107421879 .33099366-.0107421879 .47399903 .2758026 .47399903 .47183229Z"/>
<path id="font_3_79" d="M.4850006 0V.01499939C.43598939 .019989014 .42399598 .0309906 .42399598 .084991458V.30596925C.42399598 .404953 .38198854 .45996095 .30599977 .45996095 .2599945 .45996095 .21398926 .43795777 .1619873 .37895204H.16099549V.45695497L.15299988 .45996095C.10398865 .44195558 .070999149 .43095399 .015991211 .4149475V.39794923C.022994996 .4009552 .033996583 .40194703 .04499817 .40194703 .07299805 .40194703 .07998657 .3859558 .07998657 .33695985V.09397888C.07998657 .034988405 .068984989 .018997193 .017990113 .01499939V0H.22898865V.01499939C.17799378 .018997193 .1639862 .032989503 .1639862 .07199097V.34796144C.20999146 .3929596 .23399353 .404953 .2669983 .404953 .31599427 .404953 .33999635 .37495423 .33999635 .30397035V.10498047C.33999635 .038986207 .32798768 .018997193 .27799989 .01499939L.2769928 0H.4850006Z"/>
<path id="font_3_80" d="M.37998963 .20410156C.37998963 .08818054 .33599855 .018234253 .2619934 .018234253 .22599793 .018234253 .19400025 .036209108 .17199707 .06819153 .1349945 .122161868 .11898804 .19410706 .11898804 .27305604 .11898804 .3730011 .1659851 .4319458 .23498535 .4319458 .27799989 .4319458 .30599977 .41197206 .32998658 .38198854 .3619995 .34101869 .37998963 .2720642 .37998963 .20410156M.46998597 .23109436C.46998597 .3690033 .37599183 .45996095 .2539978 .45996095 .11898804 .45996095 .0289917 .3670044 .0289917 .22808838 .0289917 .08918762 .12399292-.009765625 .24499512-.009765625 .37998963-.009765625 .46998597 .092178348 .46998597 .23109436Z"/>
<path id="font_3_83" d="M.1599884 .45794679 .15499878 .45996095C.101989749 .43894959 .06599426 .42495729 .0069885256 .40596009V.3899536C.020996094 .3929596 .02999878 .39396668 .041992189 .39396668 .066986087 .39396668 .07598877 .3779602 .07598877 .33396913V.083984378C.07598877 .033996583 .068984989 .026992798 .004989624 .01499939V0H.24499512V.01499939C.1769867 .017990113 .1599884 .032989503 .1599884 .08998108V.31497193C.1599884 .3469696 .20199585 .3969574 .22999573 .3969574 .23599243 .3969574 .24499512 .3919525 .2559967 .381958 .27198792 .36695863 .2829895 .361969 .29599 .361969 .31999208 .361969 .33499146 .3789673 .33499146 .4069519 .33499146 .43995667 .31399537 .45996095 .27999879 .45996095 .23799134 .45996095 .20999146 .43795777 .1599884 .3659668V.45794679Z"/>
<path id="font_3_78" d="M.7749939 0V.01499939L.7489929 .016998291C.71899417 .018997193 .70599368 .03199768 .70599368 .07698059V.27996827C.70599368 .39794923 .67099 .45996095 .58999636 .45996095 .5319977 .45996095 .48098756 .43395997 .4269867 .3759613 .40899659 .43295289 .375 .45996095 .32099916 .45996095 .27598573 .45996095 .23399353 .45095826 .16799927 .38294984H.1659851V.45695497L.1579895 .45996095C.10699463 .4409485 .07398987 .4299469 .018997193 .4149475V.39794923C.03199768 .4009552 .039993287 .40194703 .050994874 .40194703 .07699585 .40194703 .085998538 .38494874 .085998538 .33595277V.08798218C.085998538 .02999878 .07199097 .015991211 .015991211 .01499939V0H.23799134V.01499939C.18499756 .016998291 .16999817 .026992798 .16999817 .069992069V.34796144C.16999817 .34996034 .17599488 .3569641 .18299866 .36495973 .20298767 .3889618 .2519989 .40795899 .2889862 .40795899 .33198548 .40795899 .35398866 .36595155 .35398866 .29696656V.08598328C.35398866 .024993897 .34298707 .018997193 .28599549 .01499939V0H.5099945V.01499939C.45298768 .015991211 .43798829 .02999878 .43798829 .09498596V.34695436C.46798707 .3899536 .49798585 .40795899 .54499819 .40795899 .60198977 .40795899 .621994 .37495423 .621994 .29595948V.08998108C.621994 .03199768 .61299136 .020996094 .5569916 .01499939V0H.7749939Z"/>
<path id="font_3_66" d="M.2869873 .12716675C.2869873 .09819031 .2809906 .084198 .2519989 .064208988 .23498535 .053222658 .21398926 .048233034 .19400025 .048233034 .15499878 .048233034 .125 .07220459 .125 .12516785 .125 .15615845 .1349945 .18013 .15899658 .20211792 .18399048 .22509766 .22499085 .24609375 .2869873 .2680664V.12716675M.44198609 .066207889C.4249878 .052230836 .4149933 .047225954 .39898683 .047225954 .3809967 .047225954 .36799623 .067214969 .36799623 .11317444V.30404664C.36799623 .3650055 .3639984 .38598634 .33999635 .41496278 .31599427 .44395448 .27799989 .45996095 .22200012 .45996095 .1769867 .45996095 .1349945 .44795228 .10699463 .42996217 .07199097 .40797425 .055999757 .37599183 .055999757 .35002137 .055999757 .32302857 .07798767 .30404664 .09899902 .30404664 .125 .30404664 .14498902 .32603456 .14498902 .34501649 .14498902 .3659973 .13899231 .3690033 .13899231 .3869934 .13899231 .41397096 .16899109 .43595887 .20899964 .43595887 .2539978 .43595887 .2869873 .40797425 .2869873 .34602357V.29205323C.17399597 .25009156 .13699341 .23109436 .10699463 .21110535 .067993167 .18513489 .036987306 .14616394 .036987306 .094192508 .036987306 .02822876 .07998657-.009765625 .14199829-.009765625 .18499756-.009765625 .23399353 .0032196046 .2869873 .06321716H.28799439C.29299928 .010223389 .31498719-.009765625 .35198976-.009765625 .38598634-.009765625 .4119873 .00022888184 .44198609 .038223268V.066207889Z"/>
<path id="font_3_77" d="M.25698854 0V.01499939C.19299317 .018997193 .18199158 .03199768 .18199158 .08699036V.67900088L.1769867 .68299868C.125 .66600039 .08799744 .6559906 .018997193 .6389923V.6230011C.034988405 .625 .04798889 .625 .055999757 .625 .08799744 .625 .09799194 .60899356 .09799194 .5609894V.09199524C.09799194 .036987306 .083999637 .019989014 .020996094 .01499939V0H.25698854Z"/>
<path id="font_3_74" d="M.25299073 0V.01499939C.18699646 .019989014 .1789856 .0309906 .1789856 .10499573V.45603944L.1749878 .46003724 .019989014 .4050293V.38902284C.037994386 .3940277 .052993776 .3940277 .06199646 .3940277 .08699036 .3940277 .09498596 .37802125 .09498596 .33102418V.104003909C.09498596 .027999878 .084991458 .018997193 .015991211 .01499939V0H.25299073M.17999268 .63204959C.17999268 .66004946 .1579895 .68304446 .1289978 .68304446 .100997928 .68304446 .07798767 .66004946 .07798767 .63204959 .07798767 .6030426 .099990848 .5810547 .12799073 .5810547 .1579895 .5810547 .17999268 .6030426 .17999268 .63204959Z"/>
<path id="font_3_91" d="M.41799928 .13604737 .3999939 .14004517C.3899994 .090026859 .3869934 .074020389 .37298585 .057006837 .35899354 .039993287 .32499696 .02999878 .2669983 .02999878H.13398743L.40299989 .43518067V.4501953H.056991579L.052993776 .33213807H.070999149C.07998657 .40518189 .09498596 .42018128 .1579895 .42018128H.29299928L.026992798 .01499939V0H.40299989L.41799928 .13604737Z"/>
<path id="font_3_70" d="M.09899902 .30934144C.10998535 .38407899 .14898682 .4239502 .20498657 .4239502 .2709961 .4239502 .2919922 .39006043 .30299378 .30934144H.09899902M.4079895 .16427613C.35899354 .09024048 .32099916 .05921936 .2539978 .05921936 .20799256 .05921936 .17098999 .07723999 .14299011 .11425781 .10699463 .16227722 .101989749 .20129395 .09700012 .27734376H.40499879C.40098573 .3312683 .3909912 .36315919 .37098695 .3910675 .33898927 .43595887 .2939911 .45996095 .23199463 .45996095 .10598755 .45996095 .024993897 .35816957 .024993897 .21730042 .024993897 .07923889 .09700012-.009765625 .21499634-.009765625 .31498719-.009765625 .3849945 .048233034 .42399598 .15727234L.4079895 .16427613Z"/>
<path id="font_3_69" d="M.33999635 .10218811C.33999635 .095184329 .33399964 .084198 .32499696 .07420349 .30699159 .053222658 .28199769 .04222107 .25099183 .04222107 .16699219 .04222107 .11299133 .122177127 .11299133 .24508667 .11299133 .3580017 .1619873 .4319458 .23799134 .4319458 .2919922 .4319458 .33999635 .3849945 .33999635 .33203126V.10218811M.4909973 .04222107V.05821228C.47399903 .05722046 .47299195 .05722046 .46798707 .05722046 .43199159 .05722046 .42399598 .06820679 .42399598 .11418152V.680954L.4189911 .6829529C.37098695 .6659546 .33599855 .6559601 .27198792 .63894656V.6229553C.27999879 .62394717 .28599549 .62394717 .2939911 .62394717 .33099366 .62394717 .33999635 .61395266 .33999635 .5729523V.41696168C.3019867 .44895936 .2749939 .45996095 .23498535 .45996095 .11999512 .45996095 .026992798 .34701539 .026992798 .20510865 .026992798 .07720947 .100997928-.009765625 .21199036-.009765625 .2679901-.009765625 .30599977 .010223389 .33999635 .05722046V-.0067749025L.34399415-.009765625 .4909973 .04222107Z"/>
<path id="font_1_2477" d="M.33799745 .3143463C.35299684 .31835938 .37298585 .31835938 .3889923 .31835938 .46699525 .31835938 .5309906 .28330995 .5309906 .21022034 .5309906 .08004761 .43499757 .037994386 .34098817 .037994386 .31498719 .037994386 .29499818 .039993287 .269989 .04699707L.33799745 .3143463M.4059906 .61125186C.4189911 .61325076 .43399049 .6142578 .44898988 .6142578 .5029907 .6142578 .56799319 .5932617 .56799319 .5162964 .56799319 .41932679 .5119934 .35334779 .3999939 .35334779 .3849945 .35334779 .36698915 .35534669 .34700013 .35934449L.4059906 .61125186M.19799805 .653244 .19299317 .6372528H.21199036C.2709961 .6372528 .2899933 .62124636 .2899933 .5952606 .2899933 .5892639 .2889862 .5792694 .28799439 .5742645L.16499329 .07904053C.15699768 .04499817 .13798523 .015991211 .06199646 .015991211H.041992189L.037994386 0H.3619995C.56900027 0 .651001 .094070438 .651001 .19319153 .651001 .27830506 .58399966 .32035829 .5239868 .3313446L.5209961 .33535768C.54100039 .3403473 .56999209 .34835816 .59498599 .36134339 .6429901 .38534547 .6859894 .43032838 .6859894 .5082855 .6859894 .6442566 .5339966 .653244 .44999696 .653244H.19799805Z"/>
<path id="font_4_2509" d="M.22698975 .4412079 .068984989 .41921998 .07199097 .4032135C.07899475 .4052124 .09098816 .4072113 .099990848 .4072113 .12298584 .4072113 .1309967 .40222169 .1309967 .3852234 .1309967 .3822174 .12998963 .37521363 .1289978 .37321473 .049987794 .0662384 .049987794 .04724121 .049987794 .035247804 .049987794 .008255005 .06199646-.0107421879 .08999634-.0107421879 .13899231-.0107421879 .18899536 .049240114 .22399903 .09423828L.21099854 .10424805C.1749878 .06524658 .16899109 .053253175 .14698792 .053253175 .13999939 .053253175 .13398743 .056243898 .13398743 .06324768 .13398743 .06724548 .13398743 .071243289 .1349945 .07723999L.22698975 .4412079M.25698854 .5662079C.25698854 .5912018 .23498535 .61621096 .20899964 .61621096 .17999268 .61621096 .16099549 .5912018 .16099549 .5662079 .16099549 .5402069 .17999268 .52020266 .20899964 .52020266 .23498535 .52020266 .25698854 .5402069 .25698854 .5662079Z"/>
<path id="font_4_2510" d="M.35099793 .44114686 .19299317 .4131317 .19599915 .39611817C.20298767 .39912416 .21499634 .40112306 .22299195 .40112306 .24499512 .40112306 .25498963 .39111329 .25498963 .3791046L.16299439 .015853882C.13899231-.080200199 .10598755-.15625 .05999756-.15625 .054992677-.15625 .049987794-.1502533 .049987794-.1462555 .049987794-.13023377 .06599426-.12724304 .06599426-.11222839 .06599426-.08921814 .049987794-.07420349 .0309906-.07420349-.0040130617-.07420349-.01600647-.10421753-.01600647-.12623596-.01600647-.1542511 .0039978029-.18725586 .056991579-.18725586 .16499329-.18725586 .22099304-.07220459 .24299622 .015853882L.35099793 .44114686M.37199403 .5662079C.37199403 .5912018 .34999085 .61621096 .32398988 .61621096 .29499818 .61621096 .27598573 .5912018 .27598573 .5662079 .27598573 .5402069 .29499818 .52020266 .32398988 .52020266 .34999085 .52020266 .37199403 .5402069 .37199403 .5662079Z"/>
<path id="font_4_50" d="M.3939972 0V.01499939C.31900025 .01499939 .29899598 .032989503 .29899598 .07597351V.67277529L.2899933 .67578127 .11099243 .5847931V.5708008L.13798523 .5807953C.1559906 .5877991 .17298889 .59280398 .18299866 .59280398 .20399475 .59280398 .21299744 .57780459 .21299744 .543808V.0949707C.21299744 .039978029 .19198609 .018997193 .117996219 .01499939V0H.3939972Z"/>
<path id="font_1_183" d="M.5970001 .021987915 .36698915 .2519989 .5970001 .48399354 .5509949 .5289917 .31999208 .29899598 .08999634 .5289917 .042999269 .48298646 .272995 .2519989 .042999269 .020996094 .08898926-.025009156 .31999208 .20498657 .5509949-.025009156 .5970001 .021987915Z"/>
<path id="font_1_549" d="M-.0940094 .63790896C-.11100769 .6009064-.12400818 .58691409-.14700318 .58691409-.16700745 .58691409-.18101502 .59291079-.22401428 .61491397-.2480011 .627121-.27200318 .6331177-.29400636 .6331177-.3440094 .63290408-.38000489 .59690859-.39500428 .5319061H-.36601258C-.355011 .56311038-.3380127 .578125-.31500245 .578125-.29701234 .578125-.28900147 .57411196-.25100709 .5561218-.21000672 .53590396-.19500733 .5319061-.17001343 .5319061-.11500549 .5319061-.086013797 .5619049-.06500244 .63790896H-.0940094Z"/>
<path id="font_1_2480" d="M.73399356 .653183H.19999695L.19599915 .6371765H.21499634C.27398683 .6371765 .2899933 .6261749 .2899933 .60217288 .2899933 .59516909 .2889862 .5841522 .2849884 .56614688L.16499329 .07798767C.15699768 .04399109 .13398743 .015991211 .06098938 .015991211H.041992189L.037994386 0H.60899356L.6749878 .19799805H.6589966C.6159973 .084991458 .55999758 .037994386 .4019928 .037994386H.33499146C.28799439 .037994386 .27198792 .04899597 .27198792 .06498718 .27198792 .067993167 .272995 .070999149 .27398683 .07499695L.33999635 .3330078H.42999269C.46099855 .3330078 .5019989 .32899476 .5019989 .28199769 .5019989 .2649994 .49699403 .23500061 .49598695 .22200012H.5130005L.57099917 .46406556H.5549927C.5329895 .38200379 .4889984 .3690033 .42900086 .3690033H.34899903L.40899659 .6171875H.56900027C.6199951 .6171875 .6749878 .60417178 .6779938 .53012087 .6779938 .519104 .6769867 .5081024 .6759949 .49508668H.69200137L.73399356 .653183Z"/>
<path id="font_4_52" d="M.06098938 .50987246C.101989749 .58380129 .147995 .61576846 .20999146 .61576846 .27598573 .61576846 .31799317 .58180239 .31799317 .51387026 .31799317 .45292665 .28599549 .40795899 .23699951 .37998963 .21699524 .36799623 .19099427 .3570099 .15299988 .34402467V.33003236C.20999146 .33003236 .23298645 .32704164 .25498963 .3200531 .32398988 .3000641 .35899354 .2511139 .35899354 .17518616 .35899354 .09025574 .30299378 .022323609 .22898865 .022323609 .20098877 .022323609 .17999268 .027313233 .14299011 .05329895 .114990238 .073272708 .09899902 .07926941 .08198547 .07926941 .05899048 .07926941 .040985109 .06428528 .040985109 .043304445 .040985109 .0073242189 .07998657-.013671875 .15299988-.013671875 .24198914-.013671875 .33699037 .015319824 .3849945 .07926941 .4139862 .11723328 .43099977 .16618347 .43099977 .21913147 .43099977 .27108766 .4149933 .31704713 .3869934 .34802247 .3659973 .36999513 .34799195 .38198854 .3039856 .40097047 .37098695 .44093324 .39698792 .4908905 .39698792 .5388489 .39698792 .6207733 .33399964 .67578127 .24099732 .67578127 .13699341 .67578127 .07398987 .6087799 .04499817 .51387026L.06098938 .50987246Z"/>
<path id="font_4_51" d="M.47399903 .13696289 .45999146 .1429596C.4269867 .08699036 .4059906 .07598877 .3639984 .07598877H.12998963L.29499818 .2519226C.38398744 .34588624 .4229889 .42085267 .4229889 .4998169 .4229889 .59877017 .35099793 .67578127 .23799134 .67578127 .114990238 .67578127 .050994874 .5937805 .02999878 .4768219L.050994874 .47183229C.09098816 .5697937 .12599182 .6017761 .19799805 .6017761 .2829895 .6017761 .33699037 .55178835 .33699037 .4608307 .33699037 .37586976 .30099488 .29989625 .20698548 .200943L.0289917 .011993408V0H.41999818L.47399903 .13696289Z"/>
</defs>
<path transform="matrix(1,0,0,-1,35.599,163.58699)" stroke-width=".3985" stroke-linecap="butt" stroke-miterlimit="10" stroke-linejoin="miter" fill="none" stroke="#b0b0b0" d="M8.83052 0V161.39727M52.98305 0V161.39727M97.13156 0V161.39727M141.28813 0V161.39727M185.43933 0V161.39727"/>
<path transform="matrix(1,0,0,-1,35.599,163.58699)" stroke-width=".3985" stroke-linecap="butt" stroke-miterlimit="10" stroke-linejoin="miter" fill="none" stroke="#b0b0b0" d="M0 38.70313H194.2717M0 86.0892H194.2717M0 133.4753H194.2717"/>
<path transform="matrix(1,0,0,-1,35.599,163.58699)" stroke-width=".19925" stroke-linecap="butt" stroke-miterlimit="10" stroke-linejoin="miter" fill="none" stroke="#000000" d="M8.83052-4.25172V0M52.98305-4.25172V0M97.13156-4.25172V0M141.28813-4.25172V0M185.43933-4.25172V0"/>
<path transform="matrix(1,0,0,-1,35.599,163.58699)" stroke-width=".19925" stroke-linecap="butt" stroke-miterlimit="10" stroke-linejoin="miter" fill="none" stroke="#000000" d="M-4.25182 38.70313H0M-4.25182 86.0892H0M-4.25182 133.4753H0"/>
<path transform="matrix(1,0,0,-1,35.599,163.58699)" stroke-width=".3985" stroke-linecap="butt" stroke-miterlimit="10" stroke-linejoin="miter" fill="none" stroke="#000000" d="M0 0V161.39727H194.2717V0H0Z"/>
<use data-text="0" xlink:href="#font_1_49" transform="matrix(9.96264,0,0,-9.96264,41.938,178.09299)"/>
<use data-text="&#x1d70b;" xlink:href="#font_1_3177" transform="matrix(9.96264,0,0,-9.96264,79.186008,178.172)"/>
<use data-text="/" xlink:href="#font_1_48" transform="matrix(9.96264,0,0,-9.96264,85.243289,178.172)"/>
<use data-text="1" xlink:href="#font_1_50" transform="matrix(9.96264,0,0,-9.96264,88.0129,178.172)"/>
<use data-text="6" xlink:href="#font_1_55" transform="matrix(9.96264,0,0,-9.96264,92.994228,178.172)"/>
<use data-text="&#x1d70b;" xlink:href="#font_1_3177" transform="matrix(9.96264,0,0,-9.96264,125.825,178.09299)"/>
<use data-text="/" xlink:href="#font_1_48" transform="matrix(9.96264,0,0,-9.96264,131.8823,178.09299)"/>
<use data-text="8" xlink:href="#font_1_57" transform="matrix(9.96264,0,0,-9.96264,134.6519,178.09299)"/>
<use data-text="3" xlink:href="#font_1_52" transform="matrix(9.96264,0,0,-9.96264,165,178.172)"/>
<use data-text="&#x1d70b;" xlink:href="#font_1_3177" transform="matrix(9.96264,0,0,-9.96264,169.98133,178.172)"/>
<use data-text="/" xlink:href="#font_1_48" transform="matrix(9.96264,0,0,-9.96264,176.03862,178.172)"/>
<use data-text="1" xlink:href="#font_1_50" transform="matrix(9.96264,0,0,-9.96264,178.80823,178.172)"/>
<use data-text="6" xlink:href="#font_1_55" transform="matrix(9.96264,0,0,-9.96264,183.78955,178.172)"/>
<use data-text="&#x1d70b;" xlink:href="#font_1_3177" transform="matrix(9.96264,0,0,-9.96264,214.131,178.09299)"/>
<use data-text="/" xlink:href="#font_1_48" transform="matrix(9.96264,0,0,-9.96264,220.1883,178.09299)"/>
<use data-text="4" xlink:href="#font_1_53" transform="matrix(9.96264,0,0,-9.96264,222.9579,178.09299)"/>
<use data-text="0" xlink:href="#font_1_49" transform="matrix(9.96264,0,0,-9.96264,22.845999,128.18198)"/>
<use data-text="1" xlink:href="#font_1_50" transform="matrix(9.96264,0,0,-9.96264,22.845999,80.86598)"/>
<use data-text="2" xlink:href="#font_1_51" transform="matrix(9.96264,0,0,-9.96264,22.845999,33.479997)"/>
<g clip-path="url(#clip_2)">
<path transform="matrix(1,0,0,-1,35.599,163.58699)" stroke-width=".59776" stroke-linecap="butt" stroke-miterlimit="10" stroke-linejoin="miter" fill="none" stroke="#0000ff" d="M8.83061 60.88266 10.59673 60.88333 12.36285 60.88539 14.12897 60.88881 15.8951 60.8936 17.66121 60.89977 19.42734 60.90732 21.19347 60.91621 22.95958 60.92651 24.72571 60.93819 26.49182 60.95125 28.25795 60.96568 30.02406 60.98152 31.79019 60.99876 33.5563 61.01743 35.32243 61.03748 37.08856 61.05893 38.85469 61.08183 40.6208 61.10616 42.38692 61.13193 44.15305 61.15913 45.91916 61.18779 47.68529 61.21793 49.4514 61.24953 51.21754 61.28261 52.98366 61.31718 54.74979 61.35326 56.5159 61.39087 58.28203 61.43001 60.04814 61.47067 61.81425 61.5129 63.58038 61.5567 65.34651 61.60207 67.11264 61.64905 68.87875 61.69765 70.64488 61.74788 72.411 61.79974 74.17712 61.85329 75.94324 61.9085 77.70937 61.96542 79.47548 62.02406 81.24161 62.08446 83.00774 62.1466 84.77385 62.21054 86.53998 62.27629 88.30609 62.34387 90.07222 62.4133 91.83833 62.4846 93.60446 62.55782 95.37059 62.63298 97.13672 62.71008 98.90283 62.78918 100.66895 62.87032 102.43507 62.95346 104.20119 63.03873 105.96732 63.12608 107.73343 63.21559 109.49957 63.30728 111.26569 63.4012 113.03181 63.49734 114.79793 63.59581 116.56406 63.6966 118.33017 63.79976 120.09628 63.90533 121.86241 64.01338 123.62854 64.12393 125.39467 64.23701 127.16078 64.35272 128.92691 64.47107 130.69303 64.59212 132.45915 64.71591 134.22527 64.84253 135.9914 64.972 137.75753 65.10442 139.52365 65.23979 141.28977 65.37825 143.05588 65.5198 144.822 65.66454 146.58812 65.81253 148.35425 65.96385 150.12036 66.11856 151.88649 66.27676 153.65262 66.4385 155.41875 66.60388 157.18486 66.77301 158.95099 66.94594 160.7171 67.12277 162.48322 67.30362 164.24935 67.48857 166.01546 67.6777 167.7816 67.87119 169.54772 68.06908 171.31385 68.2715 173.07996 68.47858 174.84609 68.69046 176.6122 68.90724 178.37833 69.12907 180.14444 69.3561 181.91057 69.58846 183.6767 69.8263 185.44281 70.06978"/>
<path transform="matrix(1,0,0,-1,35.599,163.58699)" stroke-width=".59776" stroke-linecap="butt" stroke-miterlimit="10" stroke-linejoin="miter" fill="none" stroke="#ff0000" d="M8.83061 60.88266 10.59673 60.88333 12.36285 60.88539 14.12897 60.88881 15.8951 60.8936 17.66121 60.89977 19.42734 60.90732 21.19347 60.91621 22.95958 60.92651 24.72571 60.93819 26.49182 60.95125 28.25795 60.96568 30.02406 60.98152 31.79019 60.99876 33.5563 61.01743 35.32243 61.03748 37.08856 61.05893 38.85469 61.08183 40.6208 61.10616 42.38692 61.13193 44.15305 61.15913 45.91916 61.18779 47.68529 61.21793 49.4514 61.24953 51.21754 61.28261 52.98366 61.31718 54.74979 61.35326 56.5159 61.39087 58.28203 61.43001 60.04814 61.47067 61.81425 61.5129 63.58038 61.5567 65.34651 61.60207 67.11264 61.64905 68.87875 61.69765 70.64488 61.74788 72.411 61.79974 74.17712 61.85329 75.94324 61.9085 77.70937 61.96542 79.47548 62.02406 81.24161 62.08446 83.00774 62.1466 84.77385 62.21054 86.53998 62.27629 88.30609 62.34387 90.07222 62.4133 91.83833 62.4846 93.60446 62.55782 95.37059 62.63298 97.13672 62.71008 98.90283 62.78918 100.66895 62.87032 102.43507 62.95346 104.20119 63.03873 105.96732 63.12608 107.73343 63.21559 109.49957 63.30728 111.26569 63.4012 113.03181 63.49734 114.79793 63.59581 116.56406 63.6966 118.33017 63.79976 120.09628 63.90533 121.86241 64.01338 123.62854 64.12393 125.39467 64.23701 127.16078 64.35272 128.92691 64.47107 130.69303 64.59212 132.45915 64.71591 134.22527 64.84253 135.9914 64.972 137.75753 65.10442 139.52365 65.23979 141.28977 65.37825 143.05588 65.5198 144.822 65.66454 146.58812 65.81253 148.35425 65.96385 150.12036 66.11856 151.88649 66.27676 153.65262 66.4385 155.41875 66.60388 157.18486 66.77301 158.95099 66.94594 160.7171 67.12277 162.48322 67.30362 164.24935 67.48857 166.01546 67.6777 167.7816 67.87119 169.54772 68.06908 171.31385 68.2715 173.07996 68.47858 174.84609 68.69046 176.6122 68.90724 178.37833 69.12907 180.14444 69.3561 181.91057 69.58846 183.6767 69.8263 185.44281 70.06978"/>
<path transform="matrix(1,0,0,-1,35.599,163.58699)" stroke-width=".59776" stroke-linecap="butt" stroke-miterlimit="10" stroke-linejoin="miter" fill="none" stroke="#008000" d="M8.83061 68.3982 10.59673 68.40231 12.36285 68.41466 14.12897 68.43526 15.8951 68.46411 17.66121 68.50125 19.42734 68.54669 21.19347 68.60046 22.95958 68.66264 24.72571 68.73325 26.49182 68.81233 28.25795 68.89993 30.02406 68.99617 31.79019 69.10106 33.5563 69.21472 35.32243 69.33722 37.08856 69.46866 38.85469 69.60913 40.6208 69.75876 42.38692 69.91763 44.15305 70.08589 45.91916 70.26364 47.68529 70.45105 49.4514 70.64825 51.21754 70.8554 52.98366 71.07265 54.74979 71.30019 56.5159 71.5382 58.28203 71.78683 60.04814 72.04633 61.81425 72.3169 63.58038 72.59874 65.34651 72.89209 67.11264 73.1972 68.87875 73.51431 70.64488 73.84369 72.411 74.18562 74.17712 74.54039 75.94324 74.9083 77.70937 75.28964 79.47548 75.68478 81.24161 76.09406 83.00774 76.51782 84.77385 76.95645 86.53998 77.41035 88.30609 77.87991 90.07222 78.36559 91.83833 78.8678 93.60446 79.38702 95.37059 79.92374 97.13672 80.47847 98.90283 81.05176 100.66895 81.64413 102.43507 82.25618 104.20119 82.8885 105.96732 83.54173 107.73343 84.21654 109.49957 84.91359 111.26569 85.63364 113.03181 86.37741 114.79793 87.14568 116.56406 87.9393 118.33017 88.7591 120.09628 89.606 121.86241 90.48093 123.62854 91.38486 125.39467 92.31885 127.16078 93.28392 128.92691 94.28125 130.69303 95.31198 132.45915 96.37738 134.22527 97.47871 135.9914 98.61736 137.75753 99.79472 139.52365 101.01228 141.28977 102.27164 143.05588 103.5744 144.822 104.9223 146.58812 106.31714 148.35425 107.76085 150.12036 109.25539 151.88649 110.80286 153.65262 112.40547 155.41875 114.06557 157.18486 115.78558 158.95099 117.5681 160.7171 119.41579 162.48322 121.33154 164.24935 123.31836 166.01546 125.37943 167.7816 127.51808 169.54772 129.73786 171.31385 132.04251 173.07996 134.43599 174.84609 136.92246 176.6122 139.50634 178.37833 142.19229 180.14444 144.98528 181.91057 147.89054 183.6767 150.91365 185.44281 154.06049"/>
<path transform="matrix(1,0,0,-1,35.599,163.58699)" stroke-width=".59776" stroke-linecap="butt" stroke-miterlimit="10" stroke-linejoin="miter" fill="none" stroke="#bf00bf" d="M8.83061 38.70299 10.59673 38.52878 12.36285 38.35452 14.12897 38.18016 15.8951 38.00562 17.66121 37.83087 19.42734 37.65585 21.19347 37.48051 22.95958 37.30481 24.72571 37.12865 26.49182 36.95203 28.25795 36.77483 30.02406 36.59705 31.79019 36.41861 33.5563 36.23946 35.32243 36.05952 37.08856 35.87877 38.85469 35.69714 40.6208 35.51456 42.38692 35.33096 44.15305 35.14629 45.91916 34.9605 47.68529 34.7735 49.4514 34.58527 51.21754 34.3957 52.98366 34.20474 54.74979 34.01233 56.5159 33.81842 58.28203 33.62291 60.04814 33.42572 61.81425 33.22682 63.58038 33.0261 65.34651 32.82352 67.11264 32.61896 68.87875 32.41235 70.64488 32.20366 72.411 31.99277 74.17712 31.77959 75.94324 31.56404 77.70937 31.34604 79.47548 31.1255 81.24161 30.90234 83.00774 30.67644 84.77385 30.44771 86.53998 30.21608 88.30609 29.98141 90.07222 29.7436 91.83833 29.50258 93.60446 29.2582 95.37059 29.01036 97.13672 28.75893 98.90283 28.50381 100.66895 28.24486 102.43507 27.98195 104.20119 27.71498 105.96732 27.44379 107.73343 27.16824 109.49957 26.88817 111.26569 26.60347 113.03181 26.31395 114.79793 26.01947 116.56406 25.71985 118.33017 25.41493 120.09628 25.10454 121.86241 24.7885 123.62854 24.46657 125.39467 24.13864 127.16078 23.80444 128.92691 23.46379 130.69303 23.11647 132.45915 22.76225 134.22527 22.4009 135.9914 22.03217 137.75753 21.6558 139.52365 21.27156 141.28977 20.87915 143.05588 20.4783 144.822 20.06871 146.58812 19.65009 148.35425 19.22209 150.12036 18.78441 151.88649 18.3367 153.65262 17.87857 155.41875 17.4097 157.18486 16.92964 158.95099 16.43805 160.7171 15.93445 162.48322 15.41841 164.24935 14.8895 166.01546 14.3472 167.7816 13.791 169.54772 13.22041 171.31385 12.63484 173.07996 12.03374 174.84609 11.41649 176.6122 10.78247 178.37833 10.13098 180.14444 9.46136 181.91057 8.77289 183.6767 8.06476 185.44281 7.33621"/>
</g>
<path transform="matrix(1,0,0,-1,35.599,163.58699)" stroke-width=".59776" stroke-linecap="butt" stroke-miterlimit="10" stroke-linejoin="miter" fill="none" stroke="#0000ff" d="M5.84178 60.88266H11.81944M8.83061 63.87149V57.89383"/>
<path transform="matrix(1,0,0,-1,35.599,163.58699)" stroke-width=".59776" stroke-linecap="butt" stroke-miterlimit="10" stroke-linejoin="miter" fill="none" stroke="#0000ff" d="M41.16422 61.15913H47.14188M44.15305 64.14796V58.1703"/>
<path transform="matrix(1,0,0,-1,35.599,163.58699)" stroke-width=".59776" stroke-linecap="butt" stroke-miterlimit="10" stroke-linejoin="miter" fill="none" stroke="#0000ff" d="M76.48665 62.02406H82.46431M79.47548 65.0129V59.03523"/>
<path transform="matrix(1,0,0,-1,35.599,163.58699)" stroke-width=".59776" stroke-linecap="butt" stroke-miterlimit="10" stroke-linejoin="miter" fill="none" stroke="#0000ff" d="M111.8091 63.59581H117.78676M114.79793 66.58464V60.60698"/>
<path transform="matrix(1,0,0,-1,35.599,163.58699)" stroke-width=".59776" stroke-linecap="butt" stroke-miterlimit="10" stroke-linejoin="miter" fill="none" stroke="#0000ff" d="M147.13153 66.11856H153.10919M150.12036 69.10739V63.12973"/>
<path transform="matrix(1,0,0,-1,35.599,163.58699)" stroke-width=".59776" stroke-linecap="butt" stroke-miterlimit="10" stroke-linejoin="miter" fill="none" stroke="#0000ff" d="M182.45398 70.06978H188.43164M185.44281 73.05861V67.08095"/>
<path transform="matrix(1,0,0,-1,35.599,163.58699)" stroke-width=".59776" stroke-linecap="butt" stroke-miterlimit="10" stroke-linejoin="miter" fill="none" stroke="#0000ff" d=""/>
<path transform="matrix(1,0,0,-1,35.599,163.58699)" d="M8.83061 63.87149 11.07224 60.88266 8.83061 57.89383 6.58899 60.88266Z" fill="#ff0000"/>
<path transform="matrix(1,0,0,-1,35.599,163.58699)" stroke-width=".59776" stroke-linecap="butt" stroke-miterlimit="10" stroke-linejoin="miter" fill="none" stroke="#ff0000" d="M8.83061 63.87149 11.07224 60.88266 8.83061 57.89383 6.58899 60.88266Z"/>
<path transform="matrix(1,0,0,-1,35.599,163.58699)" d="M52.98366 64.30602 55.22528 61.31718 52.98366 58.32835 50.74203 61.31718Z" fill="#ff0000"/>
<path transform="matrix(1,0,0,-1,35.599,163.58699)" stroke-width=".59776" stroke-linecap="butt" stroke-miterlimit="10" stroke-linejoin="miter" fill="none" stroke="#ff0000" d="M52.98366 64.30602 55.22528 61.31718 52.98366 58.32835 50.74203 61.31718Z"/>
<path transform="matrix(1,0,0,-1,35.599,163.58699)" d="M97.13672 65.69891 99.37834 62.71008 97.13672 59.72125 94.8951 62.71008Z" fill="#ff0000"/>
<path transform="matrix(1,0,0,-1,35.599,163.58699)" stroke-width=".59776" stroke-linecap="butt" stroke-miterlimit="10" stroke-linejoin="miter" fill="none" stroke="#ff0000" d="M97.13672 65.69891 99.37834 62.71008 97.13672 59.72125 94.8951 62.71008Z"/>
<path transform="matrix(1,0,0,-1,35.599,163.58699)" d="M141.28977 68.36708 143.53139 65.37825 141.28977 62.38942 139.04814 65.37825Z" fill="#ff0000"/>
<path transform="matrix(1,0,0,-1,35.599,163.58699)" stroke-width=".59776" stroke-linecap="butt" stroke-miterlimit="10" stroke-linejoin="miter" fill="none" stroke="#ff0000" d="M141.28977 68.36708 143.53139 65.37825 141.28977 62.38942 139.04814 65.37825Z"/>
<path transform="matrix(1,0,0,-1,35.599,163.58699)" d="M185.44281 73.05861 187.68444 70.06978 185.44281 67.08095 183.20119 70.06978Z" fill="#ff0000"/>
<path transform="matrix(1,0,0,-1,35.599,163.58699)" stroke-width=".59776" stroke-linecap="butt" stroke-miterlimit="10" stroke-linejoin="miter" fill="none" stroke="#ff0000" d="M185.44281 73.05861 187.68444 70.06978 185.44281 67.08095 183.20119 70.06978Z"/>
<path transform="matrix(1,0,0,-1,35.599,163.58699)" stroke-width=".59776" stroke-linecap="butt" stroke-miterlimit="10" stroke-linejoin="miter" fill="none" stroke="#ff0000" d=""/>
<path transform="matrix(1,0,0,-1,35.599,163.58699)" d="M11.81944 68.3982C11.81944 70.0489 10.48131 71.38702 8.83061 71.38702 7.1799 71.38702 5.84178 70.0489 5.84178 68.3982 5.84178 66.74748 7.1799 65.40936 8.83061 65.40936 10.48131 65.40936 11.81944 66.74748 11.81944 68.3982ZM8.83061 68.3982" fill="#008000"/>
<path transform="matrix(1,0,0,-1,35.599,163.58699)" stroke-width=".59776" stroke-linecap="butt" stroke-miterlimit="10" stroke-linejoin="miter" fill="none" stroke="#008000" d="M11.81944 68.3982C11.81944 70.0489 10.48131 71.38702 8.83061 71.38702 7.1799 71.38702 5.84178 70.0489 5.84178 68.3982 5.84178 66.74748 7.1799 65.40936 8.83061 65.40936 10.48131 65.40936 11.81944 66.74748 11.81944 68.3982ZM8.83061 68.3982"/>
<path transform="matrix(1,0,0,-1,35.599,163.58699)" d="M55.97249 71.07265C55.97249 72.72336 54.63437 74.06148 52.98366 74.06148 51.33295 74.06148 49.99483 72.72336 49.99483 71.07265 49.99483 69.42194 51.33295 68.08382 52.98366 68.08382 54.63437 68.08382 55.97249 69.42194 55.97249 71.07265ZM52.98366 71.07265" fill="#008000"/>
<path transform="matrix(1,0,0,-1,35.599,163.58699)" stroke-width=".59776" stroke-linecap="butt" stroke-miterlimit="10" stroke-linejoin="miter" fill="none" stroke="#008000" d="M55.97249 71.07265C55.97249 72.72336 54.63437 74.06148 52.98366 74.06148 51.33295 74.06148 49.99483 72.72336 49.99483 71.07265 49.99483 69.42194 51.33295 68.08382 52.98366 68.08382 54.63437 68.08382 55.97249 69.42194 55.97249 71.07265ZM52.98366 71.07265"/>
<path transform="matrix(1,0,0,-1,35.599,163.58699)" d="M100.12555 80.47847C100.12555 82.12918 98.78741 83.4673 97.13672 83.4673 95.48601 83.4673 94.14789 82.12918 94.14789 80.47847 94.14789 78.82777 95.48601 77.48964 97.13672 77.48964 98.78741 77.48964 100.12555 78.82777 100.12555 80.47847ZM97.13672 80.47847" fill="#008000"/>
<path transform="matrix(1,0,0,-1,35.599,163.58699)" stroke-width=".59776" stroke-linecap="butt" stroke-miterlimit="10" stroke-linejoin="miter" fill="none" stroke="#008000" d="M100.12555 80.47847C100.12555 82.12918 98.78741 83.4673 97.13672 83.4673 95.48601 83.4673 94.14789 82.12918 94.14789 80.47847 94.14789 78.82777 95.48601 77.48964 97.13672 77.48964 98.78741 77.48964 100.12555 78.82777 100.12555 80.47847ZM97.13672 80.47847"/>
<path transform="matrix(1,0,0,-1,35.599,163.58699)" d="M144.2786 102.27164C144.2786 103.92235 142.94048 105.26047 141.28977 105.26047 139.63906 105.26047 138.30094 103.92235 138.30094 102.27164 138.30094 100.62093 139.63906 99.2828 141.28977 99.2828 142.94048 99.2828 144.2786 100.62093 144.2786 102.27164ZM141.28977 102.27164" fill="#008000"/>
<path transform="matrix(1,0,0,-1,35.599,163.58699)" stroke-width=".59776" stroke-linecap="butt" stroke-miterlimit="10" stroke-linejoin="miter" fill="none" stroke="#008000" d="M144.2786 102.27164C144.2786 103.92235 142.94048 105.26047 141.28977 105.26047 139.63906 105.26047 138.30094 103.92235 138.30094 102.27164 138.30094 100.62093 139.63906 99.2828 141.28977 99.2828 142.94048 99.2828 144.2786 100.62093 144.2786 102.27164ZM141.28977 102.27164"/>
<path transform="matrix(1,0,0,-1,35.599,163.58699)" d="M188.43164 154.06049C188.43164 155.7112 187.09352 157.04932 185.44281 157.04932 183.79212 157.04932 182.45398 155.7112 182.45398 154.06049 182.45398 152.40979 183.79212 151.07166 185.44281 151.07166 187.09352 151.07166 188.43164 152.40979 188.43164 154.06049ZM185.44281 154.06049" fill="#008000"/>
<path transform="matrix(1,0,0,-1,35.599,163.58699)" stroke-width=".59776" stroke-linecap="butt" stroke-miterlimit="10" stroke-linejoin="miter" fill="none" stroke="#008000" d="M188.43164 154.06049C188.43164 155.7112 187.09352 157.04932 185.44281 157.04932 183.79212 157.04932 182.45398 155.7112 182.45398 154.06049 182.45398 152.40979 183.79212 151.07166 185.44281 151.07166 187.09352 151.07166 188.43164 152.40979 188.43164 154.06049ZM185.44281 154.06049"/>
<path transform="matrix(1,0,0,-1,35.599,163.58699)" stroke-width=".59776" stroke-linecap="butt" stroke-miterlimit="10" stroke-linejoin="miter" fill="none" stroke="#008000" d=""/>
<path transform="matrix(1,0,0,-1,35.599,163.58699)" d="M11.81944 38.70299C11.81944 40.35368 10.48131 41.69182 8.83061 41.69182 7.1799 41.69182 5.84178 40.35368 5.84178 38.70299 5.84178 37.05228 7.1799 35.71416 8.83061 35.71416 10.48131 35.71416 11.81944 37.05228 11.81944 38.70299ZM8.83061 38.70299" fill="#bf00bf"/>
<path transform="matrix(1,0,0,-1,35.599,163.58699)" stroke-width=".59776" stroke-linecap="butt" stroke-miterlimit="10" stroke-linejoin="miter" fill="none" stroke="#bf00bf" d="M11.81944 38.70299C11.81944 40.35368 10.48131 41.69182 8.83061 41.69182 7.1799 41.69182 5.84178 40.35368 5.84178 38.70299 5.84178 37.05228 7.1799 35.71416 8.83061 35.71416 10.48131 35.71416 11.81944 37.05228 11.81944 38.70299ZM8.83061 38.70299"/>
<path transform="matrix(1,0,0,-1,35.599,163.58699)" d="M55.97249 34.20474C55.97249 35.85545 54.63437 37.19357 52.98366 37.19357 51.33295 37.19357 49.99483 35.85545 49.99483 34.20474 49.99483 32.55405 51.33295 31.21591 52.98366 31.21591 54.63437 31.21591 55.97249 32.55405 55.97249 34.20474ZM52.98366 34.20474" fill="#bf00bf"/>
<path transform="matrix(1,0,0,-1,35.599,163.58699)" stroke-width=".59776" stroke-linecap="butt" stroke-miterlimit="10" stroke-linejoin="miter" fill="none" stroke="#bf00bf" d="M55.97249 34.20474C55.97249 35.85545 54.63437 37.19357 52.98366 37.19357 51.33295 37.19357 49.99483 35.85545 49.99483 34.20474 49.99483 32.55405 51.33295 31.21591 52.98366 31.21591 54.63437 31.21591 55.97249 32.55405 55.97249 34.20474ZM52.98366 34.20474"/>
<path transform="matrix(1,0,0,-1,35.599,163.58699)" d="M100.12555 28.75893C100.12555 30.40964 98.78741 31.74776 97.13672 31.74776 95.48601 31.74776 94.14789 30.40964 94.14789 28.75893 94.14789 27.10822 95.48601 25.7701 97.13672 25.7701 98.78741 25.7701 100.12555 27.10822 100.12555 28.75893ZM97.13672 28.75893" fill="#bf00bf"/>
<path transform="matrix(1,0,0,-1,35.599,163.58699)" stroke-width=".59776" stroke-linecap="butt" stroke-miterlimit="10" stroke-linejoin="miter" fill="none" stroke="#bf00bf" d="M100.12555 28.75893C100.12555 30.40964 98.78741 31.74776 97.13672 31.74776 95.48601 31.74776 94.14789 30.40964 94.14789 28.75893 94.14789 27.10822 95.48601 25.7701 97.13672 25.7701 98.78741 25.7701 100.12555 27.10822 100.12555 28.75893ZM97.13672 28.75893"/>
<path transform="matrix(1,0,0,-1,35.599,163.58699)" d="M144.2786 20.87915C144.2786 22.52986 142.94048 23.86798 141.28977 23.86798 139.63906 23.86798 138.30094 22.52986 138.30094 20.87915 138.30094 19.22844 139.63906 17.89032 141.28977 17.89032 142.94048 17.89032 144.2786 19.22844 144.2786 20.87915ZM141.28977 20.87915" fill="#bf00bf"/>
<path transform="matrix(1,0,0,-1,35.599,163.58699)" stroke-width=".59776" stroke-linecap="butt" stroke-miterlimit="10" stroke-linejoin="miter" fill="none" stroke="#bf00bf" d="M144.2786 20.87915C144.2786 22.52986 142.94048 23.86798 141.28977 23.86798 139.63906 23.86798 138.30094 22.52986 138.30094 20.87915 138.30094 19.22844 139.63906 17.89032 141.28977 17.89032 142.94048 17.89032 144.2786 19.22844 144.2786 20.87915ZM141.28977 20.87915"/>
<path transform="matrix(1,0,0,-1,35.599,163.58699)" d="M188.43164 7.33621C188.43164 8.98691 187.09352 10.32504 185.44281 10.32504 183.79212 10.32504 182.45398 8.98691 182.45398 7.33621 182.45398 5.6855 183.79212 4.34738 185.44281 4.34738 187.09352 4.34738 188.43164 5.6855 188.43164 7.33621ZM185.44281 7.33621" fill="#bf00bf"/>
<path transform="matrix(1,0,0,-1,35.599,163.58699)" stroke-width=".59776" stroke-linecap="butt" stroke-miterlimit="10" stroke-linejoin="miter" fill="none" stroke="#bf00bf" d="M188.43164 7.33621C188.43164 8.98691 187.09352 10.32504 185.44281 10.32504 183.79212 10.32504 182.45398 8.98691 182.45398 7.33621 182.45398 5.6855 183.79212 4.34738 185.44281 4.34738 187.09352 4.34738 188.43164 5.6855 188.43164 7.33621ZM185.44281 7.33621"/>
<path transform="matrix(1,0,0,-1,35.599,163.58699)" stroke-width=".59776" stroke-linecap="butt" stroke-miterlimit="10" stroke-linejoin="miter" fill="none" stroke="#bf00bf" d=""/>
<use data-text="&#x1d703;" xlink:href="#font_1_3169" transform="matrix(9.96264,0,0,-9.96264,130.123,191.80699)"/>
<use data-text="n" xlink:href="#font_3_79" transform="matrix(0,-9.96264,-9.96264,-0,12.117996,113.155)"/>
<use data-text="o" xlink:href="#font_3_80" transform="matrix(0,-9.96264,-9.96264,-0,12.117996,108.173679)"/>
<use data-text="r" xlink:href="#font_3_83" transform="matrix(0,-9.96264,-9.96264,-0,12.117996,103.19235)"/>
<use data-text="m" xlink:href="#font_3_78" transform="matrix(0,-9.96264,-9.96264,-0,12.117996,99.675548)"/>
<use data-text="a" xlink:href="#font_3_66" transform="matrix(0,-9.96264,-9.96264,-0,12.117996,91.92461)"/>
<use data-text="l" xlink:href="#font_3_77" transform="matrix(0,-9.96264,-9.96264,-0,12.117996,87.5012)"/>
<use data-text="i" xlink:href="#font_3_74" transform="matrix(0,-9.96264,-9.96264,-0,12.117996,84.73158)"/>
<use data-text="z" xlink:href="#font_3_91" transform="matrix(0,-9.96264,-9.96264,-0,12.117996,81.96197)"/>
<use data-text="e" xlink:href="#font_3_70" transform="matrix(0,-9.96264,-9.96264,-0,12.117996,77.53856)"/>
<use data-text="d" xlink:href="#font_3_69" transform="matrix(0,-9.96264,-9.96264,-0,12.117996,73.11514)"/>
<use data-text="&#x1d435;" xlink:href="#font_1_2477" transform="matrix(0,-9.96264,-9.96264,-0,12.117996,65.644)"/>
<use data-text="&#x1d456;" xlink:href="#font_4_2509" transform="matrix(0,-7.47198,-7.47198,-0,14.608994,58.70999)"/>
<use data-text="&#x1d457;" xlink:href="#font_4_2510" transform="matrix(0,-7.47198,-7.47198,-0,14.608994,56.386209)"/>
<path transform="matrix(1,0,0,-1,35.599,163.58699)" d="M6.02715 96.93857H70.472469V156.35628H6.02715Z" fill="#ffffff" fill-opacity=".8"/>
<path transform="matrix(1,0,0,-1,35.599,163.58699)" stroke-width=".3985" stroke-linecap="butt" stroke-miterlimit="10" stroke-linejoin="miter" fill="none" stroke="#cccccc" d="M6.02715 96.93857H70.472469V156.35628H6.02715Z"/>
<path transform="matrix(1,0,0,-1,44.913,16.153988)" stroke-width=".59776" stroke-linecap="butt" stroke-miterlimit="10" stroke-linejoin="miter" fill="none" stroke="#0000ff" d="M0 0H8.50412 17.00826"/>
<path transform="matrix(1,0,0,-1,44.913,16.153988)" stroke-width=".59776" stroke-linecap="butt" stroke-miterlimit="10" stroke-linejoin="miter" fill="none" stroke="#0000ff" d="M5.51529 0H11.49295M8.50412 2.98883V-2.98883"/>
<use data-text="&#x1d435;" xlink:href="#font_1_2477" transform="matrix(9.96264,0,0,-9.96264,64.213,19.595993)"/>
<use data-text="1" xlink:href="#font_4_50" transform="matrix(7.47198,0,0,-7.47198,71.147,22.08699)"/>
<use data-text="1" xlink:href="#font_4_50" transform="matrix(7.47198,0,0,-7.47198,74.882999,22.08699)"/>
<use data-text="&#x00d7;" xlink:href="#font_1_183" transform="matrix(9.96264,0,0,-9.96264,81.241,19.595993)"/>
<use data-text="&#x0303;" xlink:href="#font_1_549" transform="matrix(9.96264,0,0,-9.96264,97.004,17.572999)"/>
<use data-text="&#x1d438;" xlink:href="#font_1_2480" transform="matrix(9.96264,0,0,-9.96264,89.831,19.595993)"/>
<use data-text="3" xlink:href="#font_4_52" transform="matrix(7.47198,0,0,-7.47198,96.944,22.08699)"/>
<path transform="matrix(1,0,0,-1,44.912996,30.011988)" stroke-width=".59776" stroke-linecap="butt" stroke-miterlimit="10" stroke-linejoin="miter" fill="none" stroke="#ff0000" d="M0 0H8.50412 17.00826"/>
<path transform="matrix(1,0,0,-1,44.912996,30.011988)" d="M8.50412 2.98883 10.74574 0 8.50412-2.98883 6.2625 0Z" fill="#ff0000" fill-opacity=".8"/>
<path transform="matrix(1,0,0,-1,44.912996,30.011988)" stroke-width=".59776" stroke-linecap="butt" stroke-miterlimit="10" stroke-linejoin="miter" fill="none" stroke="#ff0000" d="M8.50412 2.98883 10.74574 0 8.50412-2.98883 6.2625 0Z"/>
<use data-text="&#x1d435;" xlink:href="#font_1_2477" transform="matrix(9.96264,0,0,-9.96264,64.213,33.45398)"/>
<use data-text="2" xlink:href="#font_4_51" transform="matrix(7.47198,0,0,-7.47198,71.147,35.944978)"/>
<use data-text="2" xlink:href="#font_4_51" transform="matrix(7.47198,0,0,-7.47198,74.882999,35.944978)"/>
<use data-text="&#x00d7;" xlink:href="#font_1_183" transform="matrix(9.96264,0,0,-9.96264,81.241,33.45398)"/>
<use data-text="&#x0303;" xlink:href="#font_1_549" transform="matrix(9.96264,0,0,-9.96264,97.004,31.430985)"/>
<use data-text="&#x1d438;" xlink:href="#font_1_2480" transform="matrix(9.96264,0,0,-9.96264,89.831,33.45398)"/>
<use data-text="3" xlink:href="#font_4_52" transform="matrix(7.47198,0,0,-7.47198,96.944,35.944978)"/>
<path transform="matrix(1,0,0,-1,44.912996,43.869989)" stroke-width=".59776" stroke-linecap="butt" stroke-miterlimit="10" stroke-linejoin="miter" fill="none" stroke="#008000" d="M0 0H8.50412 17.00826"/>
<path transform="matrix(1,0,0,-1,44.912996,43.869989)" d="M11.49295 0C11.49295 1.6507 10.15482 2.98883 8.50412 2.98883 6.85341 2.98883 5.51529 1.6507 5.51529 0 5.51529-1.6507 6.85341-2.98883 8.50412-2.98883 10.15482-2.98883 11.49295-1.6507 11.49295 0ZM8.50412 0" fill="#008000" fill-opacity=".8"/>
<path transform="matrix(1,0,0,-1,44.912996,43.869989)" stroke-width=".59776" stroke-linecap="butt" stroke-miterlimit="10" stroke-linejoin="miter" fill="none" stroke="#008000" d="M11.49295 0C11.49295 1.6507 10.15482 2.98883 8.50412 2.98883 6.85341 2.98883 5.51529 1.6507 5.51529 0 5.51529-1.6507 6.85341-2.98883 8.50412-2.98883 10.15482-2.98883 11.49295-1.6507 11.49295 0ZM8.50412 0"/>
<use data-text="&#x1d435;" xlink:href="#font_1_2477" transform="matrix(9.96264,0,0,-9.96264,64.213,47.31198)"/>
<use data-text="3" xlink:href="#font_4_52" transform="matrix(7.47198,0,0,-7.47198,71.147,49.80298)"/>
<use data-text="3" xlink:href="#font_4_52" transform="matrix(7.47198,0,0,-7.47198,74.882999,49.80298)"/>
<use data-text="&#x00d7;" xlink:href="#font_1_183" transform="matrix(9.96264,0,0,-9.96264,81.241,47.31198)"/>
<use data-text="&#x0303;" xlink:href="#font_1_549" transform="matrix(9.96264,0,0,-9.96264,97.004,45.288988)"/>
<use data-text="&#x1d438;" xlink:href="#font_1_2480" transform="matrix(9.96264,0,0,-9.96264,89.831,47.31198)"/>
<use data-text="3" xlink:href="#font_4_52" transform="matrix(7.47198,0,0,-7.47198,96.944,49.80298)"/>
<path transform="matrix(1,0,0,-1,44.912996,57.72799)" stroke-width=".59776" stroke-linecap="butt" stroke-miterlimit="10" stroke-linejoin="miter" fill="none" stroke="#bf00bf" d="M0 0H8.50412 17.00826"/>
<path transform="matrix(1,0,0,-1,44.912996,57.72799)" d="M11.49295 0C11.49295 1.6507 10.15482 2.98883 8.50412 2.98883 6.85341 2.98883 5.51529 1.6507 5.51529 0 5.51529-1.6507 6.85341-2.98883 8.50412-2.98883 10.15482-2.98883 11.49295-1.6507 11.49295 0ZM8.50412 0" fill="#bf00bf" fill-opacity=".8"/>
<path transform="matrix(1,0,0,-1,44.912996,57.72799)" stroke-width=".59776" stroke-linecap="butt" stroke-miterlimit="10" stroke-linejoin="miter" fill="none" stroke="#bf00bf" d="M11.49295 0C11.49295 1.6507 10.15482 2.98883 8.50412 2.98883 6.85341 2.98883 5.51529 1.6507 5.51529 0 5.51529-1.6507 6.85341-2.98883 8.50412-2.98883 10.15482-2.98883 11.49295-1.6507 11.49295 0ZM8.50412 0"/>
<use data-text="&#x1d435;" xlink:href="#font_1_2477" transform="matrix(9.96264,0,0,-9.96264,64.213,61.169984)"/>
<use data-text="1" xlink:href="#font_4_50" transform="matrix(7.47198,0,0,-7.47198,71.147,63.659975)"/>
<use data-text="3" xlink:href="#font_4_52" transform="matrix(7.47198,0,0,-7.47198,74.882999,63.659975)"/>
<use data-text="&#x00d7;" xlink:href="#font_1_183" transform="matrix(9.96264,0,0,-9.96264,81.241,61.169984)"/>
<use data-text="&#x0303;" xlink:href="#font_1_549" transform="matrix(9.96264,0,0,-9.96264,97.004,59.146989)"/>
<use data-text="&#x1d438;" xlink:href="#font_1_2480" transform="matrix(9.96264,0,0,-9.96264,89.831,61.169984)"/>
<use data-text="3" xlink:href="#font_4_52" transform="matrix(7.47198,0,0,-7.47198,96.944,63.659975)"/>
</svg>
