<svg xmlns="http://www.w3.org/2000/svg" xmlns:xlink="http://www.w3.org/1999/xlink" xmlns:inkscape="http://www.inkscape.org/namespaces/inkscape" version="1.1" width="233.256" height="197.148" viewBox="0 0 233.256 197.148">
<defs>
<path id="font_1_49" d="M.37998963 .32505799C.37998963 .12722779 .33499146 .012313843 .25 .012313843 .1639862 .012313843 .11999512 .1262207 .11999512 .32904054 .11999512 .5318756 .16499329 .6497803 .24798584 .6497803 .33599855 .6497803 .37998963 .53286746 .37998963 .32505799M.47599793 .3300476C.47599793 .53486636 .3849945 .67578127 .2539978 .67578127 .09298706 .67578127 .023986817 .5128937 .023986817 .3360443 .023986817 .17218018 .07899475-.013671875 .25-.013671875 .41299439-.013671875 .47599793 .15818787 .47599793 .3300476Z"/>
<path id="font_1_3177" d="M.56799319 .4284668H.28599549C.18199158 .4284668 .117996219 .38246156 .07398987 .3024292H.08999634C.13398743 .35546876 .17098999 .35546876 .22898865 .35546876L.13999939 .14936829C.1269989 .12034607 .10899353 .09133911 .06599426 .079330448 .039993287 .07232666 .034988405 .046310426 .034988405 .031311037 .034988405 .007293701 .05999756-.0126953129 .085998538-.0126953129 .09799194-.0126953129 .11299133-.010696411 .12399292-.0017089844 .20799256 .061325075 .23899842 .23339844 .2849884 .35546876H.3789978C.35398866 .27142335 .32398988 .2013855 .30099488 .13035584 .29499818 .111343387 .2919922 .09133911 .2919922 .06832886 .2919922 .029159546 .30899049-.0068359377 .34899903-.0068359377 .4189911-.0068359377 .47200013 .06315613 .49299623 .13522339H.47698976C.45298768 .08117676 .4249878 .06915283 .4039917 .06915283 .38198854 .06915283 .3659973 .094177249 .3659973 .11720276 .3659973 .1842804 .4189911 .31240846 .43299867 .35546876H.54499819L.56799319 .4284668Z"/>
<path id="font_1_48" d="M.2869873 .67578127H.21998596L-.009002686-.013671875H.05899048L.2869873 .67578127Z"/>
<path id="font_1_57" d="M.2709961 .27209474C.33898927 .22613526 .36898805 .18617249 .36898805 .1242218 .36898805 .059280397 .32398988 .014328003 .25898744 .014328003 .18299866 .014328003 .13198853 .06626892 .13198853 .15820313 .13198853 .22314453 .15299988 .26409913 .21199036 .3120575L.2709961 .27209474M.35499574 .53286746C.35499574 .470932 .32899476 .42897035 .26098634 .3889923 .17298889 .4409485 .13598633 .48690797 .13598633 .54885867 .13598633 .6108093 .1789856 .6477661 .24598694 .6477661 .31399537 .6477661 .35499574 .60180667 .35499574 .53286746M.44499208 .15519715C.44499208 .23512268 .41299439 .28907777 .2899933 .37101747 .3889923 .42396546 .42399598 .45793153 .42399598 .53286746 .42399598 .6108093 .35499574 .67578127 .2559967 .67578127 .14498902 .67578127 .06199646 .61579897 .06199646 .5198822 .06199646 .4549408 .08299255 .41697694 .18598938 .3320465 .07899475 .2571106 .055999757 .21813965 .055999757 .14920044 .055999757 .055282594 .1349945-.013671875 .24798584-.013671875 .36799623-.013671875 .44499208 .05229187 .44499208 .15519715Z"/>
<path id="font_1_53" d="M.2919922 .23098755H.051986696L.2919922 .573822V.23098755M.47299195 .16699219V.23098755H.36999513V.67578127H.32598878L.011993408 .23098755V.16699219H.2919922V0H.36999513V.16699219H.47299195Z"/>
<path id="font_1_52" d="M.06098938 .50987246C.101989749 .58380129 .147995 .61576846 .20999146 .61576846 .27598573 .61576846 .31799317 .58180239 .31799317 .51387026 .31799317 .45292665 .28599549 .40795899 .23699951 .37998963 .21699524 .36799623 .19099427 .3570099 .15299988 .34402467V.33003236C.20999146 .33003236 .23298645 .32704164 .25498963 .3200531 .32398988 .3000641 .35899354 .2511139 .35899354 .17518616 .35899354 .09025574 .30299378 .022323609 .22898865 .022323609 .20098877 .022323609 .17999268 .027313233 .14299011 .05329895 .114990238 .073272708 .09899902 .07926941 .08198547 .07926941 .05899048 .07926941 .040985109 .06428528 .040985109 .043304445 .040985109 .0073242189 .07998657-.013671875 .15299988-.013671875 .24198914-.013671875 .33699037 .015319824 .3849945 .07926941 .4139862 .11723328 .43099977 .16618347 .43099977 .21913147 .43099977 .27108766 .4149933 .31704713 .3869934 .34802247 .3659973 .36999513 .34799195 .38198854 .3039856 .40097047 .37098695 .44093324 .39698792 .4908905 .39698792 .5388489 .39698792 .6207733 .33399964 .67578127 .24099732 .67578127 .13699341 .67578127 .07398987 .6087799 .04499817 .51387026L.06098938 .50987246Z"/>
<path id="font_1_51" d="M.47399903 .13696289 .45999146 .1429596C.4269867 .08699036 .4059906 .07598877 .3639984 .07598877H.12998963L.29499818 .2519226C.38398744 .34588624 .4229889 .42085267 .4229889 .4998169 .4229889 .59877017 .35099793 .67578127 .23799134 .67578127 .114990238 .67578127 .050994874 .5937805 .02999878 .4768219L.050994874 .47183229C.09098816 .5697937 .12599182 .6017761 .19799805 .6017761 .2829895 .6017761 .33699037 .55178835 .33699037 .4608307 .33699037 .37586976 .30099488 .29989625 .20698548 .200943L.0289917 .011993408V0H.41999818L.47399903 .13696289Z"/>
<path id="font_1_50" d="M.3939972 0V.01499939C.31900025 .01499939 .29899598 .032989503 .29899598 .07597351V.67277529L.2899933 .67578127 .11099243 .5847931V.5708008L.13798523 .5807953C.1559906 .5877991 .17298889 .59280398 .18299866 .59280398 .20399475 .59280398 .21299744 .57780459 .21299744 .543808V.0949707C.21299744 .039978029 .19198609 .018997193 .117996219 .01499939V0H.3939972Z"/>
<clipPath id="clip_2">
<path transform="matrix(1,0,0,-1,35.599,163.584)" d="M0 0H194.27433V161.39464H0Z"/>
</clipPath>
<path id="font_1_3169" d="M.35598756 .30773927C.35299684 .29875184 .34700013 .270813 .33999635 .24784851 .30899049 .14901734 .24899292 .018249512 .18199158 .018249512 .13899231 .018249512 .12399292 .074157718 .12399292 .14303589 .12399292 .19094849 .1329956 .25782777 .14898682 .30773927H.35598756M.15899658 .34375C.18499756 .4628296 .2669983 .6389618 .33898927 .6389618 .37998963 .6389618 .3899994 .58291628 .3899994 .50987246 .3899994 .46884156 .37998963 .41378785 .36499024 .34375H.15899658M.47399903 .47183229C.47399903 .6049347 .4189911 .66796877 .34599305 .66796877 .1559906 .66796877 .039993287 .34173585 .039993287 .16798401 .039993287 .048202516 .08198547-.0107421879 .1769867-.0107421879 .33099366-.0107421879 .47399903 .2758026 .47399903 .47183229Z"/>
<path id="font_3_79" d="M.4850006 0V.01499939C.43598939 .019989014 .42399598 .0309906 .42399598 .084991458V.30596925C.42399598 .404953 .38198854 .45996095 .30599977 .45996095 .2599945 .45996095 .21398926 .43795777 .1619873 .37895204H.16099549V.45695497L.15299988 .45996095C.10398865 .44195558 .070999149 .43095399 .015991211 .4149475V.39794923C.022994996 .4009552 .033996583 .40194703 .04499817 .40194703 .07299805 .40194703 .07998657 .3859558 .07998657 .33695985V.09397888C.07998657 .034988405 .068984989 .018997193 .017990113 .01499939V0H.22898865V.01499939C.17799378 .018997193 .1639862 .032989503 .1639862 .07199097V.34796144C.20999146 .3929596 .23399353 .404953 .2669983 .404953 .31599427 .404953 .33999635 .37495423 .33999635 .30397035V.10498047C.33999635 .038986207 .32798768 .018997193 .27799989 .01499939L.2769928 0H.4850006Z"/>
<path id="font_3_80" d="M.37998963 .20410156C.37998963 .08818054 .33599855 .018234253 .2619934 .018234253 .22599793 .018234253 .19400025 .036209108 .17199707 .06819153 .1349945 .122161868 .11898804 .19410706 .11898804 .27305604 .11898804 .3730011 .1659851 .4319458 .23498535 .4319458 .27799989 .4319458 .30599977 .41197206 .32998658 .38198854 .3619995 .34101869 .37998963 .2720642 .37998963 .20410156M.46998597 .23109436C.46998597 .3690033 .37599183 .45996095 .2539978 .45996095 .11898804 .45996095 .0289917 .3670044 .0289917 .22808838 .0289917 .08918762 .12399292-.009765625 .24499512-.009765625 .37998963-.009765625 .46998597 .092178348 .46998597 .23109436Z"/>
<path id="font_3_83" d="M.1599884 .45794679 .15499878 .45996095C.101989749 .43894959 .06599426 .42495729 .0069885256 .40596009V.3899536C.020996094 .3929596 .02999878 .39396668 .041992189 .39396668 .066986087 .39396668 .07598877 .3779602 .07598877 .33396913V.083984378C.07598877 .033996583 .068984989 .026992798 .004989624 .01499939V0H.24499512V.01499939C.1769867 .017990113 .1599884 .032989503 .1599884 .08998108V.31497193C.1599884 .3469696 .20199585 .3969574 .22999573 .3969574 .23599243 .3969574 .24499512 .3919525 .2559967 .381958 .27198792 .36695863 .2829895 .361969 .29599 .361969 .31999208 .361969 .33499146 .3789673 .33499146 .4069519 .33499146 .43995667 .31399537 .45996095 .27999879 .45996095 .23799134 .45996095 .20999146 .43795777 .1599884 .3659668V.45794679Z"/>
<path id="font_3_78" d="M.7749939 0V.01499939L.7489929 .016998291C.71899417 .018997193 .70599368 .03199768 .70599368 .07698059V.27996827C.70599368 .39794923 .67099 .45996095 .58999636 .45996095 .5319977 .45996095 .48098756 .43395997 .4269867 .3759613 .40899659 .43295289 .375 .45996095 .32099916 .45996095 .27598573 .45996095 .23399353 .45095826 .16799927 .38294984H.1659851V.45695497L.1579895 .45996095C.10699463 .4409485 .07398987 .4299469 .018997193 .4149475V.39794923C.03199768 .4009552 .039993287 .40194703 .050994874 .40194703 .07699585 .40194703 .085998538 .38494874 .085998538 .33595277V.08798218C.085998538 .02999878 .07199097 .015991211 .015991211 .01499939V0H.23799134V.01499939C.18499756 .016998291 .16999817 .026992798 .16999817 .069992069V.34796144C.16999817 .34996034 .17599488 .3569641 .18299866 .36495973 .20298767 .3889618 .2519989 .40795899 .2889862 .40795899 .33198548 .40795899 .35398866 .36595155 .35398866 .29696656V.08598328C.35398866 .024993897 .34298707 .018997193 .28599549 .01499939V0H.5099945V.01499939C.45298768 .015991211 .43798829 .02999878 .43798829 .09498596V.34695436C.46798707 .3899536 .49798585 .40795899 .54499819 .40795899 .60198977 .40795899 .621994 .37495423 .621994 .29595948V.08998108C.621994 .03199768 .61299136 .020996094 .5569916 .01499939V0H.7749939Z"/>
<path id="font_3_66" d="M.2869873 .12716675C.2869873 .09819031 .2809906 .084198 .2519989 .064208988 .23498535 .053222658 .21398926 .048233034 .19400025 .048233034 .15499878 .048233034 .125 .07220459 .125 .12516785 .125 .15615845 .1349945 .18013 .15899658 .20211792 .18399048 .22509766 .22499085 .24609375 .2869873 .2680664V.12716675M.44198609 .066207889C.4249878 .052230836 .4149933 .047225954 .39898683 .047225954 .3809967 .047225954 .36799623 .067214969 .36799623 .11317444V.30404664C.36799623 .3650055 .3639984 .38598634 .33999635 .41496278 .31599427 .44395448 .27799989 .45996095 .22200012 .45996095 .1769867 .45996095 .1349945 .44795228 .10699463 .42996217 .07199097 .40797425 .055999757 .37599183 .055999757 .35002137 .055999757 .32302857 .07798767 .30404664 .09899902 .30404664 .125 .30404664 .14498902 .32603456 .14498902 .34501649 .14498902 .3659973 .13899231 .3690033 .13899231 .3869934 .13899231 .41397096 .16899109 .43595887 .20899964 .43595887 .2539978 .43595887 .2869873 .40797425 .2869873 .34602357V.29205323C.17399597 .25009156 .13699341 .23109436 .10699463 .21110535 .067993167 .18513489 .036987306 .14616394 .036987306 .094192508 .036987306 .02822876 .07998657-.009765625 .14199829-.009765625 .18499756-.009765625 .23399353 .0032196046 .2869873 .06321716H.28799439C.29299928 .010223389 .31498719-.009765625 .35198976-.009765625 .38598634-.009765625 .4119873 .00022888184 .44198609 .038223268V.066207889Z"/>
<path id="font_3_77" d="M.25698854 0V.01499939C.19299317 .018997193 .18199158 .03199768 .18199158 .08699036V.67900088L.1769867 .68299868C.125 .66600039 .08799744 .6559906 .018997193 .6389923V.6230011C.034988405 .625 .04798889 .625 .055999757 .625 .08799744 .625 .09799194 .60899356 .09799194 .5609894V.09199524C.09799194 .036987306 .083999637 .019989014 .020996094 .01499939V0H.25698854Z"/>
<path id="font_3_74" d="M.25299073 0V.01499939C.18699646 .019989014 .1789856 .0309906 .1789856 .10499573V.45603944L.1749878 .46003724 .019989014 .4050293V.38902284C.037994386 .3940277 .052993776 .3940277 .06199646 .3940277 .08699036 .3940277 .09498596 .37802125 .09498596 .33102418V.104003909C.09498596 .027999878 .084991458 .018997193 .015991211 .01499939V0H.25299073M.17999268 .63204959C.17999268 .66004946 .1579895 .68304446 .1289978 .68304446 .100997928 .68304446 .07798767 .66004946 .07798767 .63204959 .07798767 .6030426 .099990848 .5810547 .12799073 .5810547 .1579895 .5810547 .17999268 .6030426 .17999268 .63204959Z"/>
<path id="font_3_91" d="M.41799928 .13604737 .3999939 .14004517C.3899994 .090026859 .3869934 .074020389 .37298585 .057006837 .35899354 .039993287 .32499696 .02999878 .2669983 .02999878H.13398743L.40299989 .43518067V.4501953H.056991579L.052993776 .33213807H.070999149C.07998657 .40518189 .09498596 .42018128 .1579895 .42018128H.29299928L.026992798 .01499939V0H.40299989L.41799928 .13604737Z"/>
<path id="font_3_70" d="M.09899902 .30934144C.10998535 .38407899 .14898682 .4239502 .20498657 .4239502 .2709961 .4239502 .2919922 .39006043 .30299378 .30934144H.09899902M.4079895 .16427613C.35899354 .09024048 .32099916 .05921936 .2539978 .05921936 .20799256 .05921936 .17098999 .07723999 .14299011 .11425781 .10699463 .16227722 .101989749 .20129395 .09700012 .27734376H.40499879C.40098573 .3312683 .3909912 .36315919 .37098695 .3910675 .33898927 .43595887 .2939911 .45996095 .23199463 .45996095 .10598755 .45996095 .024993897 .35816957 .024993897 .21730042 .024993897 .07923889 .09700012-.009765625 .21499634-.009765625 .31498719-.009765625 .3849945 .048233034 .42399598 .15727234L.4079895 .16427613Z"/>
<path id="font_3_69" d="M.33999635 .10218811C.33999635 .095184329 .33399964 .084198 .32499696 .07420349 .30699159 .053222658 .28199769 .04222107 .25099183 .04222107 .16699219 .04222107 .11299133 .122177127 .11299133 .24508667 .11299133 .3580017 .1619873 .4319458 .23799134 .4319458 .2919922 .4319458 .33999635 .3849945 .33999635 .33203126V.10218811M.4909973 .04222107V.05821228C.47399903 .05722046 .47299195 .05722046 .46798707 .05722046 .43199159 .05722046 .42399598 .06820679 .42399598 .11418152V.680954L.4189911 .6829529C.37098695 .6659546 .33599855 .6559601 .27198792 .63894656V.6229553C.27999879 .62394717 .28599549 .62394717 .2939911 .62394717 .33099366 .62394717 .33999635 .61395266 .33999635 .5729523V.41696168C.3019867 .44895936 .2749939 .45996095 .23498535 .45996095 .11999512 .45996095 .026992798 .34701539 .026992798 .20510865 .026992798 .07720947 .100997928-.009765625 .21199036-.009765625 .2679901-.009765625 .30599977 .010223389 .33999635 .05722046V-.0067749025L.34399415-.009765625 .4909973 .04222107Z"/>
<path id="font_1_2477" d="M.33799745 .3143463C.35299684 .31835938 .37298585 .31835938 .3889923 .31835938 .46699525 .31835938 .5309906 .28330995 .5309906 .21022034 .5309906 .08004761 .43499757 .037994386 .34098817 .037994386 .31498719 .037994386 .29499818 .039993287 .269989 .04699707L.33799745 .3143463M.4059906 .61125186C.4189911 .61325076 .43399049 .6142578 .44898988 .6142578 .5029907 .6142578 .56799319 .5932617 .56799319 .5162964 .56799319 .41932679 .5119934 .35334779 .3999939 .35334779 .3849945 .35334779 .36698915 .35534669 .34700013 .35934449L.4059906 .61125186M.19799805 .653244 .19299317 .6372528H.21199036C.2709961 .6372528 .2899933 .62124636 .2899933 .5952606 .2899933 .5892639 .2889862 .5792694 .28799439 .5742645L.16499329 .07904053C.15699768 .04499817 .13798523 .015991211 .06199646 .015991211H.041992189L.037994386 0H.3619995C.56900027 0 .651001 .094070438 .651001 .19319153 .651001 .27830506 .58399966 .32035829 .5239868 .3313446L.5209961 .33535768C.54100039 .3403473 .56999209 .34835816 .59498599 .36134339 .6429901 .38534547 .6859894 .43032838 .6859894 .5082855 .6859894 .6442566 .5339966 .653244 .44999696 .653244H.19799805Z"/>
<path id="font_4_2509" d="M.22698975 .4412079 .068984989 .41921998 .07199097 .4032135C.07899475 .4052124 .09098816 .4072113 .099990848 .4072113 .12298584 .4072113 .1309967 .40222169 .1309967 .3852234 .1309967 .3822174 .12998963 .37521363 .1289978 .37321473 .049987794 .0662384 .049987794 .04724121 .049987794 .035247804 .049987794 .008255005 .06199646-.0107421879 .08999634-.0107421879 .13899231-.0107421879 .18899536 .049240114 .22399903 .09423828L.21099854 .10424805C.1749878 .06524658 .16899109 .053253175 .14698792 .053253175 .13999939 .053253175 .13398743 .056243898 .13398743 .06324768 .13398743 .06724548 .13398743 .071243289 .1349945 .07723999L.22698975 .4412079M.25698854 .5662079C.25698854 .5912018 .23498535 .61621096 .20899964 .61621096 .17999268 .61621096 .16099549 .5912018 .16099549 .5662079 .16099549 .5402069 .17999268 .52020266 .20899964 .52020266 .23498535 .52020266 .25698854 .5402069 .25698854 .5662079Z"/>
<path id="font_4_2510" d="M.35099793 .44114686 .19299317 .4131317 .19599915 .39611817C.20298767 .39912416 .21499634 .40112306 .22299195 .40112306 .24499512 .40112306 .25498963 .39111329 .25498963 .3791046L.16299439 .015853882C.13899231-.080200199 .10598755-.15625 .05999756-.15625 .054992677-.15625 .049987794-.1502533 .049987794-.1462555 .049987794-.13023377 .06599426-.12724304 .06599426-.11222839 .06599426-.08921814 .049987794-.07420349 .0309906-.07420349-.0040130617-.07420349-.01600647-.10421753-.01600647-.12623596-.01600647-.1542511 .0039978029-.18725586 .056991579-.18725586 .16499329-.18725586 .22099304-.07220459 .24299622 .015853882L.35099793 .44114686M.37199403 .5662079C.37199403 .5912018 .34999085 .61621096 .32398988 .61621096 .29499818 .61621096 .27598573 .5912018 .27598573 .5662079 .27598573 .5402069 .29499818 .52020266 .32398988 .52020266 .34999085 .52020266 .37199403 .5402069 .37199403 .5662079Z"/>
<path id="font_4_50" d="M.3939972 0V.01499939C.31900025 .01499939 .29899598 .032989503 .29899598 .07597351V.67277529L.2899933 .67578127 .11099243 .5847931V.5708008L.13798523 .5807953C.1559906 .5877991 .17298889 .59280398 .18299866 .59280398 .20399475 .59280398 .21299744 .57780459 .21299744 .543808V.0949707C.21299744 .039978029 .19198609 .018997193 .117996219 .01499939V0H.3939972Z"/>
<path id="font_1_2494" d="M.6799927 .66796877H.6639862C.6609955 .6529541 .6469879 .6309662 .6269989 .6309662 .58399966 .6309662 .5269928 .66796877 .44400025 .66796877 .28599549 .66796877 .22099304 .57398989 .22099304 .49302674 .22099304 .44404603 .2659912 .39006043 .2939911 .3620758 .32998658 .3270874 .37799073 .29110719 .4079895 .26011659 .43598939 .23213196 .45399476 .19915772 .45399476 .16416931 .45399476 .09919739 .4249878 .02822876 .2979889 .02822876 .16699219 .02822876 .12998963 .11618042 .1269989 .19515991 .1269989 .20515442 .12599182 .21614075 .12599182 .22613526H.10998535L.049987794-.009765625H.06599426C.08198547 .017227173 .09599304 .02822876 .12098694 .02822876 .19699097 .02822876 .22799683-.009765625 .32199098-.009765625 .47898866-.009765625 .56599429 .0821991 .56599429 .18115235 .56599429 .26812745 .5069885 .32609559 .44799806 .3750763 .3919983 .42304994 .33099366 .46502687 .33099366 .5339966 .33099366 .6049652 .40899659 .6309662 .45199586 .6309662 .56399539 .6309662 .6119995 .5549927 .6119995 .47102357 .6119995 .46302796 .6119995 .45503236 .61099246 .44703675H.6269989L.6799927 .66796877Z"/>
<path id="font_4_52" d="M.06098938 .50987246C.101989749 .58380129 .147995 .61576846 .20999146 .61576846 .27598573 .61576846 .31799317 .58180239 .31799317 .51387026 .31799317 .45292665 .28599549 .40795899 .23699951 .37998963 .21699524 .36799623 .19099427 .3570099 .15299988 .34402467V.33003236C.20999146 .33003236 .23298645 .32704164 .25498963 .3200531 .32398988 .3000641 .35899354 .2511139 .35899354 .17518616 .35899354 .09025574 .30299378 .022323609 .22898865 .022323609 .20098877 .022323609 .17999268 .027313233 .14299011 .05329895 .114990238 .073272708 .09899902 .07926941 .08198547 .07926941 .05899048 .07926941 .040985109 .06428528 .040985109 .043304445 .040985109 .0073242189 .07998657-.013671875 .15299988-.013671875 .24198914-.013671875 .33699037 .015319824 .3849945 .07926941 .4139862 .11723328 .43099977 .16618347 .43099977 .21913147 .43099977 .27108766 .4149933 .31704713 .3869934 .34802247 .3659973 .36999513 .34799195 .38198854 .3039856 .40097047 .37098695 .44093324 .39698792 .4908905 .39698792 .5388489 .39698792 .6207733 .33399964 .67578127 .24099732 .67578127 .13699341 .67578127 .07398987 .6087799 .04499817 .51387026L.06098938 .50987246Z"/>
<path id="font_4_51" d="M.47399903 .13696289 .45999146 .1429596C.4269867 .08699036 .4059906 .07598877 .3639984 .07598877H.12998963L.29499818 .2519226C.38398744 .34588624 .4229889 .42085267 .4229889 .4998169 .4229889 .59877017 .35099793 .67578127 .23799134 .67578127 .114990238 .67578127 .050994874 .5937805 .02999878 .4768219L.050994874 .47183229C.09098816 .5697937 .12599182 .6017761 .19799805 .6017761 .2829895 .6017761 .33699037 .55178835 .33699037 .4608307 .33699037 .37586976 .30099488 .29989625 .20698548 .200943L.0289917 .011993408V0H.41999818L.47399903 .13696289Z"/>
</defs>
<path transform="matrix(1,0,0,-1,35.599,163.584)" stroke-width=".3985" stroke-linecap="butt" stroke-miterlimit="10" stroke-linejoin="miter" fill="none" stroke="#b0b0b0" d="M8.83064 0V161.39464M52.98177 0V161.39464M97.13625 0V161.39464M141.28961 0V161.39464M185.44297 0V161.39464"/>
<path transform="matrix(1,0,0,-1,35.599,163.584)" stroke-width=".3985" stroke-linecap="butt" stroke-miterlimit="10" stroke-linejoin="miter" fill="none" stroke="#b0b0b0" d="M0 14.05382H194.27433M0 51.44307H194.27433M0 88.83234H194.27433M0 126.2216H194.27433"/>
<path transform="matrix(1,0,0,-1,35.599,163.584)" stroke-width=".19925" stroke-linecap="butt" stroke-miterlimit="10" stroke-linejoin="miter" fill="none" stroke="#000000" d="M8.83064-4.25204V0M52.98177-4.25204V0M97.13625-4.25204V0M141.28961-4.25204V0M185.44297-4.25204V0"/>
<path transform="matrix(1,0,0,-1,35.599,163.584)" stroke-width=".19925" stroke-linecap="butt" stroke-miterlimit="10" stroke-linejoin="miter" fill="none" stroke="#000000" d="M-4.25243 14.05382H0M-4.25243 51.44307H0M-4.25243 88.83234H0M-4.25243 126.2216H0"/>
<path transform="matrix(1,0,0,-1,35.599,163.584)" stroke-width=".3985" stroke-linecap="butt" stroke-miterlimit="10" stroke-linejoin="miter" fill="none" stroke="#000000" d="M0 0V161.39464H194.27433V0H0Z"/>
<use data-text="0" xlink:href="#font_1_49" transform="matrix(9.96264,0,0,-9.96264,41.938,178.091)"/>
<use data-text="&#x1d70b;" xlink:href="#font_1_3177" transform="matrix(9.96264,0,0,-9.96264,81.675998,178.091)"/>
<use data-text="/" xlink:href="#font_1_48" transform="matrix(9.96264,0,0,-9.96264,87.73328,178.091)"/>
<use data-text="8" xlink:href="#font_1_57" transform="matrix(9.96264,0,0,-9.96264,90.50289,178.091)"/>
<use data-text="&#x1d70b;" xlink:href="#font_1_3177" transform="matrix(9.96264,0,0,-9.96264,125.83,178.091)"/>
<use data-text="/" xlink:href="#font_1_48" transform="matrix(9.96264,0,0,-9.96264,131.8873,178.091)"/>
<use data-text="4" xlink:href="#font_1_53" transform="matrix(9.96264,0,0,-9.96264,134.6569,178.091)"/>
<use data-text="3" xlink:href="#font_1_52" transform="matrix(9.96264,0,0,-9.96264,167.492,178.091)"/>
<use data-text="&#x1d70b;" xlink:href="#font_1_3177" transform="matrix(9.96264,0,0,-9.96264,172.47333,178.091)"/>
<use data-text="/" xlink:href="#font_1_48" transform="matrix(9.96264,0,0,-9.96264,178.53063,178.091)"/>
<use data-text="8" xlink:href="#font_1_57" transform="matrix(9.96264,0,0,-9.96264,181.30023,178.091)"/>
<use data-text="&#x1d70b;" xlink:href="#font_1_3177" transform="matrix(9.96264,0,0,-9.96264,214.135,178.091)"/>
<use data-text="/" xlink:href="#font_1_48" transform="matrix(9.96264,0,0,-9.96264,220.19229,178.091)"/>
<use data-text="2" xlink:href="#font_1_51" transform="matrix(9.96264,0,0,-9.96264,222.9619,178.091)"/>
<use data-text="0" xlink:href="#font_1_49" transform="matrix(9.96264,0,0,-9.96264,22.845,152.828)"/>
<use data-text="1" xlink:href="#font_1_50" transform="matrix(9.96264,0,0,-9.96264,22.845,115.50901)"/>
<use data-text="2" xlink:href="#font_1_51" transform="matrix(9.96264,0,0,-9.96264,22.845,78.12001)"/>
<use data-text="3" xlink:href="#font_1_52" transform="matrix(9.96264,0,0,-9.96264,22.845,40.662004)"/>
<g clip-path="url(#clip_2)">
<path transform="matrix(1,0,0,-1,35.599,163.584)" stroke-width=".59776" stroke-linecap="butt" stroke-miterlimit="10" stroke-linejoin="miter" fill="none" stroke="#0000ff" d="M8.83069 154.05857 10.59683 153.94927 12.36298 153.62229 14.1291 153.08046 15.89525 152.3285 17.66138 151.37282 19.4275 150.22136 21.19365 148.88355 22.9598 147.37009 24.72594 145.69264 26.49207 143.86374 28.25821 141.89652 30.02434 139.80449 31.79048 137.60137 33.55663 135.30088 35.32277 132.91655 37.0889 130.46158 38.85503 127.94873 40.62117 125.3902 42.3873 122.79752 44.15344 120.18147 45.91959 117.55212 47.68573 114.91872 49.45186 112.28967 51.218 109.67265 52.98413 107.07451 54.75027 104.50127 56.5164 101.95833 58.28255 99.45029 60.04869 96.98116 61.81482 94.5543 63.58096 92.17255 65.34709 89.83817 67.11324 87.55298 68.87938 85.31834 70.64552 83.1353 72.41165 81.00447 74.17778 78.92621 75.94392 76.90059 77.71005 74.92744 79.4762 73.0064 81.24234 71.1369 83.00848 69.31828 84.77461 67.54967 86.54076 65.83014 88.30688 64.15865 90.07303 62.53412 91.83916 60.95538 93.6053 59.42122 95.37144 57.9304 97.13757 56.48166 98.90372 55.07373 100.66985 53.70532 102.43599 52.37517 104.20213 51.08195 105.96828 49.82445 107.7344 48.60136 109.50055 47.41151 111.26668 46.25362 113.0328 45.12653 114.79895 44.02907 116.5651 42.96008 118.33124 41.91844 120.09737 40.90309 121.86351 39.91293 123.62964 38.94695 125.39578 38.00412 127.16191 37.08347 128.92806 36.18405 130.6942 35.30492 132.46033 34.44518 134.22647 33.60396 135.9926 32.78043 137.75875 31.97372 139.52489 31.18306 141.29103 30.40765 143.05716 29.64676 144.8233 28.89961 146.58943 28.1655 148.35556 27.44374 150.1217 26.73364 151.88785 26.03453 153.65399 25.34578 155.42012 24.66673 157.18627 23.9968 158.9524 23.33534 160.71854 22.68181 162.48467 22.03558 164.25083 21.3961 166.01696 20.76283 167.78308 20.13521 169.54923 19.5127 171.31536 18.89474 173.0815 18.28084 174.84764 17.67047 176.61379 17.06311 178.37992 16.45825 180.14606 15.8554 181.91219 15.25404 183.67833 14.65369 185.44446 14.05383"/>
<path transform="matrix(1,0,0,-1,35.599,163.584)" stroke-width=".59776" stroke-linecap="butt" stroke-miterlimit="10" stroke-linejoin="miter" fill="none" stroke="#ff0000" d="M8.83069 154.05857 10.59683 153.98604 12.36298 153.76892 14.1291 153.40837 15.89525 152.90639 17.66138 152.26569 19.4275 151.48973 21.19365 150.58263 22.9598 149.54912 24.72594 148.39449 26.49207 147.12451 28.25821 145.74539 30.02434 144.26367 31.79048 142.68613 33.55663 141.0198 35.32277 139.27185 37.0889 137.44948 38.85503 135.55988 40.62117 133.61022 42.3873 131.60752 44.15344 129.55867 45.91959 127.47035 47.68573 125.34898 49.45186 123.20073 51.218 121.03148 52.98413 118.84682 54.75027 116.65192 56.5164 114.45174 58.28255 112.25081 60.04869 110.05334 61.81482 107.86327 63.58096 105.68407 65.34709 103.51903 67.11324 101.37105 68.87938 99.24272 70.64552 97.1364 72.41165 95.05411 74.17778 92.99765 75.94392 90.96858 77.71005 88.96822 79.4762 86.99767 81.24234 85.05785 83.00848 83.14946 84.77461 81.2731 86.54076 79.42915 88.30688 77.61789 90.07303 75.83946 91.83916 74.09386 93.6053 72.38104 95.37144 70.70079 97.13757 69.05289 98.90372 67.43695 100.66985 65.85263 102.43599 64.29944 104.20213 62.77689 105.96828 61.28438 107.7344 59.82138 109.50055 58.38722 111.26668 56.98126 113.0328 55.60284 114.79895 54.25125 116.5651 52.92578 118.33124 51.62573 120.09737 50.35034 121.86351 49.09889 123.62964 47.87064 125.39578 46.66484 127.16191 45.48076 128.92806 44.31764 130.6942 43.17474 132.46033 42.05138 134.22647 40.94675 135.9926 39.86017 137.75875 38.79092 139.52489 37.73831 141.29103 36.70158 143.05716 35.68008 144.8233 34.67313 146.58943 33.68001 148.35556 32.70006 150.1217 31.73264 151.88785 30.77708 153.65399 29.83272 155.42012 28.89894 157.18627 27.9751 158.9524 27.06058 160.71854 26.15475 162.48467 25.25702 164.25083 24.36676 166.01696 23.48338 167.78308 22.6063 169.54923 21.73491 171.31536 20.86865 173.0815 20.00691 174.84764 19.14914 176.61379 18.29475 178.37992 17.44318 180.14606 16.59387 181.91219 15.74625 183.67833 14.89975 185.44446 14.05383"/>
<path transform="matrix(1,0,0,-1,35.599,163.584)" stroke-width=".59776" stroke-linecap="butt" stroke-miterlimit="10" stroke-linejoin="miter" fill="none" stroke="#008000" d="M8.83069 37.48445 10.59683 37.48647 12.36298 37.49245 14.1291 37.5024 15.89525 37.5162 17.66138 37.53378 19.4275 37.55498 21.19365 37.5796 22.9598 37.6075 24.72594 37.6384 26.49207 37.67206 28.25821 37.70819 30.02434 37.74648 31.79048 37.78656 33.55663 37.8281 35.32277 37.87067 37.0889 37.91383 38.85503 37.95717 40.62117 38.00023 42.3873 38.04248 44.15344 38.08347 45.91959 38.12262 47.68573 38.15942 49.45186 38.19331 51.218 38.22372 52.98413 38.25009 54.75027 38.27182 56.5164 38.28836 58.28255 38.29912 60.04869 38.30351 61.81482 38.30093 63.58096 38.29088 65.34709 38.27274 67.11324 38.246 68.87938 38.21013 70.64552 38.16466 72.41165 38.10904 74.17778 38.04288 75.94392 37.96571 77.71005 37.87717 79.4762 37.77687 81.24234 37.66452 83.00848 37.5398 84.77461 37.40244 86.54076 37.25227 88.30688 37.0891 90.07303 36.9128 91.83916 36.7233 93.6053 36.5205 95.37144 36.30443 97.13757 36.07512 98.90372 35.83266 100.66985 35.5771 102.43599 35.30865 104.20213 35.02745 105.96828 34.73373 107.7344 34.42773 109.50055 34.10971 111.26668 33.77995 113.0328 33.43881 114.79895 33.08661 116.5651 32.7237 118.33124 32.35045 120.09737 31.96725 121.86351 31.57452 123.62964 31.1726 125.39578 30.76196 127.16191 30.34294 128.92806 29.91603 130.6942 29.48157 132.46033 29.03998 134.22647 28.59167 135.9926 28.13704 137.75875 27.67645 139.52489 27.21028 141.29103 26.73889 143.05716 26.26263 144.8233 25.78186 146.58943 25.29688 148.35556 24.80801 150.1217 24.31554 151.88785 23.81976 153.65399 23.32094 155.42012 22.81934 157.18627 22.31517 158.9524 21.80872 160.71854 21.30014 162.48467 20.78969 164.25083 20.2775 166.01696 19.7638 167.78308 19.24873 169.54923 18.73247 171.31536 18.21513 173.0815 17.69688 174.84764 17.17786 176.61379 16.65817 178.37992 16.13792 180.14606 15.61728 181.91219 15.0963 183.67833 14.57512 185.44446 14.05383"/>
<path transform="matrix(1,0,0,-1,35.599,163.584)" stroke-width=".59776" stroke-linecap="butt" stroke-miterlimit="10" stroke-linejoin="miter" fill="none" stroke="#bf00bf" d="M8.83069 14.05383 10.59683 13.77899 12.36298 13.50461 14.1291 13.23108 15.89525 12.95886 17.66138 12.68837 19.4275 12.42006 21.19365 12.15434 22.9598 11.89165 24.72594 11.63243 26.49207 11.3771 28.25821 11.1261 30.02434 10.87984 31.79048 10.63875 33.55663 10.40324 35.32277 10.17374 37.0889 9.95062 38.85503 9.73433 40.62117 9.52525 42.3873 9.32375 44.15344 9.1302 45.91959 8.945 47.68573 8.76846 49.45186 8.60095 51.218 8.44278 52.98413 8.29424 54.75027 8.15562 56.5164 8.0272 58.28255 7.9092 60.04869 7.80185 61.81482 7.7053 63.58096 7.61977 65.34709 7.54538 67.11324 7.4822 68.87938 7.43031 70.64552 7.38979 72.41165 7.3606 74.17778 7.34273 75.94392 7.33612 77.71005 7.34067 79.4762 7.35625 81.24234 7.38269 83.00848 7.41978 84.77461 7.46733 86.54076 7.52504 88.30688 7.59259 90.07303 7.6697 91.83916 7.75598 93.6053 7.85107 95.37144 7.95456 97.13757 8.06602 98.90372 8.185 100.66985 8.31104 102.43599 8.44365 104.20213 8.58234 105.96828 8.72658 107.7344 8.87592 109.50055 9.02977 111.26668 9.18765 113.0328 9.34906 114.79895 9.51343 116.5651 9.68027 118.33124 9.84903 120.09737 10.01929 121.86351 10.19046 123.62964 10.36212 125.39578 10.53378 127.16191 10.70497 128.92806 10.87527 130.6942 11.04424 132.46033 11.21146 134.22647 11.37653 135.9926 11.5391 137.75875 11.69879 139.52489 11.85526 141.29103 12.0082 143.05716 12.15726 144.8233 12.3022 146.58943 12.4427 148.35556 12.57855 150.1217 12.70947 151.88785 12.83528 153.65399 12.95573 155.42012 13.07066 157.18627 13.17989 158.9524 13.28322 160.71854 13.38052 162.48467 13.4717 164.25083 13.55656 166.01696 13.63504 167.78308 13.707 169.54923 13.77237 171.31536 13.83109 173.0815 13.88304 174.84764 13.92819 176.61379 13.96649 178.37992 13.99788 180.14606 14.02234 181.91219 14.03983 183.67833 14.05031 185.44446 14.05383"/>
</g>
<path transform="matrix(1,0,0,-1,35.599,163.584)" stroke-width=".59776" stroke-linecap="butt" stroke-miterlimit="10" stroke-linejoin="miter" fill="none" stroke="#0000ff" d="M5.84186 154.05857H11.81952M8.83069 157.0474V151.06974"/>
<path transform="matrix(1,0,0,-1,35.599,163.584)" stroke-width=".59776" stroke-linecap="butt" stroke-miterlimit="10" stroke-linejoin="miter" fill="none" stroke="#0000ff" d="M41.16461 120.18147H47.14227M44.15344 123.1703V117.19264"/>
<path transform="matrix(1,0,0,-1,35.599,163.584)" stroke-width=".59776" stroke-linecap="butt" stroke-miterlimit="10" stroke-linejoin="miter" fill="none" stroke="#0000ff" d="M76.48737 73.0064H82.46503M79.4762 75.99522V70.01756"/>
<path transform="matrix(1,0,0,-1,35.599,163.584)" stroke-width=".59776" stroke-linecap="butt" stroke-miterlimit="10" stroke-linejoin="miter" fill="none" stroke="#0000ff" d="M111.81012 44.02907H117.78778M114.79895 47.0179V41.04024"/>
<path transform="matrix(1,0,0,-1,35.599,163.584)" stroke-width=".59776" stroke-linecap="butt" stroke-miterlimit="10" stroke-linejoin="miter" fill="none" stroke="#0000ff" d="M147.13288 26.73364H153.11054M150.1217 29.72247V23.74481"/>
<path transform="matrix(1,0,0,-1,35.599,163.584)" stroke-width=".59776" stroke-linecap="butt" stroke-miterlimit="10" stroke-linejoin="miter" fill="none" stroke="#0000ff" d="M182.45563 14.05383H188.43329M185.44446 17.04266V11.065"/>
<path transform="matrix(1,0,0,-1,35.599,163.584)" stroke-width=".59776" stroke-linecap="butt" stroke-miterlimit="10" stroke-linejoin="miter" fill="none" stroke="#0000ff" d=""/>
<path transform="matrix(1,0,0,-1,35.599,163.584)" d="M8.83069 157.0474 11.07231 154.05857 8.83069 151.06974 6.58907 154.05857Z" fill="#ff0000"/>
<path transform="matrix(1,0,0,-1,35.599,163.584)" stroke-width=".59776" stroke-linecap="butt" stroke-miterlimit="10" stroke-linejoin="miter" fill="none" stroke="#ff0000" d="M8.83069 157.0474 11.07231 154.05857 8.83069 151.06974 6.58907 154.05857Z"/>
<path transform="matrix(1,0,0,-1,35.599,163.584)" d="M52.98413 121.83565 55.22575 118.84682 52.98413 115.85799 50.74251 118.84682Z" fill="#ff0000"/>
<path transform="matrix(1,0,0,-1,35.599,163.584)" stroke-width=".59776" stroke-linecap="butt" stroke-miterlimit="10" stroke-linejoin="miter" fill="none" stroke="#ff0000" d="M52.98413 121.83565 55.22575 118.84682 52.98413 115.85799 50.74251 118.84682Z"/>
<path transform="matrix(1,0,0,-1,35.599,163.584)" d="M97.13757 72.04172 99.3792 69.05289 97.13757 66.06406 94.89595 69.05289Z" fill="#ff0000"/>
<path transform="matrix(1,0,0,-1,35.599,163.584)" stroke-width=".59776" stroke-linecap="butt" stroke-miterlimit="10" stroke-linejoin="miter" fill="none" stroke="#ff0000" d="M97.13757 72.04172 99.3792 69.05289 97.13757 66.06406 94.89595 69.05289Z"/>
<path transform="matrix(1,0,0,-1,35.599,163.584)" d="M141.29103 39.69041 143.53266 36.70158 141.29103 33.71275 139.04941 36.70158Z" fill="#ff0000"/>
<path transform="matrix(1,0,0,-1,35.599,163.584)" stroke-width=".59776" stroke-linecap="butt" stroke-miterlimit="10" stroke-linejoin="miter" fill="none" stroke="#ff0000" d="M141.29103 39.69041 143.53266 36.70158 141.29103 33.71275 139.04941 36.70158Z"/>
<path transform="matrix(1,0,0,-1,35.599,163.584)" d="M185.44446 17.04266 187.68608 14.05383 185.44446 11.065 183.20284 14.05383Z" fill="#ff0000"/>
<path transform="matrix(1,0,0,-1,35.599,163.584)" stroke-width=".59776" stroke-linecap="butt" stroke-miterlimit="10" stroke-linejoin="miter" fill="none" stroke="#ff0000" d="M185.44446 17.04266 187.68608 14.05383 185.44446 11.065 183.20284 14.05383Z"/>
<path transform="matrix(1,0,0,-1,35.599,163.584)" stroke-width=".59776" stroke-linecap="butt" stroke-miterlimit="10" stroke-linejoin="miter" fill="none" stroke="#ff0000" d=""/>
<path transform="matrix(1,0,0,-1,35.599,163.584)" d="M11.81952 37.48445C11.81952 39.13516 10.48138 40.47328 8.83069 40.47328 7.17998 40.47328 5.84186 39.13516 5.84186 37.48445 5.84186 35.83374 7.17998 34.49562 8.83069 34.49562 10.48138 34.49562 11.81952 35.83374 11.81952 37.48445ZM8.83069 37.48445" fill="#008000"/>
<path transform="matrix(1,0,0,-1,35.599,163.584)" stroke-width=".59776" stroke-linecap="butt" stroke-miterlimit="10" stroke-linejoin="miter" fill="none" stroke="#008000" d="M11.81952 37.48445C11.81952 39.13516 10.48138 40.47328 8.83069 40.47328 7.17998 40.47328 5.84186 39.13516 5.84186 37.48445 5.84186 35.83374 7.17998 34.49562 8.83069 34.49562 10.48138 34.49562 11.81952 35.83374 11.81952 37.48445ZM8.83069 37.48445"/>
<path transform="matrix(1,0,0,-1,35.599,163.584)" d="M55.97296 38.25009C55.97296 39.90079 54.63484 41.23892 52.98413 41.23892 51.33342 41.23892 49.9953 39.90079 49.9953 38.25009 49.9953 36.59938 51.33342 35.26126 52.98413 35.26126 54.63484 35.26126 55.97296 36.59938 55.97296 38.25009ZM52.98413 38.25009" fill="#008000"/>
<path transform="matrix(1,0,0,-1,35.599,163.584)" stroke-width=".59776" stroke-linecap="butt" stroke-miterlimit="10" stroke-linejoin="miter" fill="none" stroke="#008000" d="M55.97296 38.25009C55.97296 39.90079 54.63484 41.23892 52.98413 41.23892 51.33342 41.23892 49.9953 39.90079 49.9953 38.25009 49.9953 36.59938 51.33342 35.26126 52.98413 35.26126 54.63484 35.26126 55.97296 36.59938 55.97296 38.25009ZM52.98413 38.25009"/>
<path transform="matrix(1,0,0,-1,35.599,163.584)" d="M100.1264 36.07512C100.1264 37.72583 98.78828 39.06395 97.13757 39.06395 95.48688 39.06395 94.14874 37.72583 94.14874 36.07512 94.14874 34.42442 95.48688 33.08629 97.13757 33.08629 98.78828 33.08629 100.1264 34.42442 100.1264 36.07512ZM97.13757 36.07512" fill="#008000"/>
<path transform="matrix(1,0,0,-1,35.599,163.584)" stroke-width=".59776" stroke-linecap="butt" stroke-miterlimit="10" stroke-linejoin="miter" fill="none" stroke="#008000" d="M100.1264 36.07512C100.1264 37.72583 98.78828 39.06395 97.13757 39.06395 95.48688 39.06395 94.14874 37.72583 94.14874 36.07512 94.14874 34.42442 95.48688 33.08629 97.13757 33.08629 98.78828 33.08629 100.1264 34.42442 100.1264 36.07512ZM97.13757 36.07512"/>
<path transform="matrix(1,0,0,-1,35.599,163.584)" d="M144.27986 26.73889C144.27986 28.3896 142.94173 29.72772 141.29103 29.72772 139.64032 29.72772 138.3022 28.3896 138.3022 26.73889 138.3022 25.08818 139.64032 23.75006 141.29103 23.75006 142.94173 23.75006 144.27986 25.08818 144.27986 26.73889ZM141.29103 26.73889" fill="#008000"/>
<path transform="matrix(1,0,0,-1,35.599,163.584)" stroke-width=".59776" stroke-linecap="butt" stroke-miterlimit="10" stroke-linejoin="miter" fill="none" stroke="#008000" d="M144.27986 26.73889C144.27986 28.3896 142.94173 29.72772 141.29103 29.72772 139.64032 29.72772 138.3022 28.3896 138.3022 26.73889 138.3022 25.08818 139.64032 23.75006 141.29103 23.75006 142.94173 23.75006 144.27986 25.08818 144.27986 26.73889ZM141.29103 26.73889"/>
<path transform="matrix(1,0,0,-1,35.599,163.584)" d="M188.43329 14.05383C188.43329 15.70453 187.09517 17.04266 185.44446 17.04266 183.79375 17.04266 182.45563 15.70453 182.45563 14.05383 182.45563 12.40312 183.79375 11.065 185.44446 11.065 187.09517 11.065 188.43329 12.40312 188.43329 14.05383ZM185.44446 14.05383" fill="#008000"/>
<path transform="matrix(1,0,0,-1,35.599,163.584)" stroke-width=".59776" stroke-linecap="butt" stroke-miterlimit="10" stroke-linejoin="miter" fill="none" stroke="#008000" d="M188.43329 14.05383C188.43329 15.70453 187.09517 17.04266 185.44446 17.04266 183.79375 17.04266 182.45563 15.70453 182.45563 14.05383 182.45563 12.40312 183.79375 11.065 185.44446 11.065 187.09517 11.065 188.43329 12.40312 188.43329 14.05383ZM185.44446 14.05383"/>
<path transform="matrix(1,0,0,-1,35.599,163.584)" stroke-width=".59776" stroke-linecap="butt" stroke-miterlimit="10" stroke-linejoin="miter" fill="none" stroke="#008000" d=""/>
<path transform="matrix(1,0,0,-1,35.599,163.584)" d="M11.81952 14.05383C11.81952 15.70453 10.48138 17.04266 8.83069 17.04266 7.17998 17.04266 5.84186 15.70453 5.84186 14.05383 5.84186 12.40312 7.17998 11.065 8.83069 11.065 10.48138 11.065 11.81952 12.40312 11.81952 14.05383ZM8.83069 14.05383" fill="#bf00bf"/>
<path transform="matrix(1,0,0,-1,35.599,163.584)" stroke-width=".59776" stroke-linecap="butt" stroke-miterlimit="10" stroke-linejoin="miter" fill="none" stroke="#bf00bf" d="M11.81952 14.05383C11.81952 15.70453 10.48138 17.04266 8.83069 17.04266 7.17998 17.04266 5.84186 15.70453 5.84186 14.05383 5.84186 12.40312 7.17998 11.065 8.83069 11.065 10.48138 11.065 11.81952 12.40312 11.81952 14.05383ZM8.83069 14.05383"/>
<path transform="matrix(1,0,0,-1,35.599,163.584)" d="M55.97296 8.29424C55.97296 9.94495 54.63484 11.28307 52.98413 11.28307 51.33342 11.28307 49.9953 9.94495 49.9953 8.29424 49.9953 6.64352 51.33342 5.3054 52.98413 5.3054 54.63484 5.3054 55.97296 6.64352 55.97296 8.29424ZM52.98413 8.29424" fill="#bf00bf"/>
<path transform="matrix(1,0,0,-1,35.599,163.584)" stroke-width=".59776" stroke-linecap="butt" stroke-miterlimit="10" stroke-linejoin="miter" fill="none" stroke="#bf00bf" d="M55.97296 8.29424C55.97296 9.94495 54.63484 11.28307 52.98413 11.28307 51.33342 11.28307 49.9953 9.94495 49.9953 8.29424 49.9953 6.64352 51.33342 5.3054 52.98413 5.3054 54.63484 5.3054 55.97296 6.64352 55.97296 8.29424ZM52.98413 8.29424"/>
<path transform="matrix(1,0,0,-1,35.599,163.584)" d="M100.1264 8.06602C100.1264 9.71674 98.78828 11.05486 97.13757 11.05486 95.48688 11.05486 94.14874 9.71674 94.14874 8.06602 94.14874 6.41531 95.48688 5.0772 97.13757 5.0772 98.78828 5.0772 100.1264 6.41531 100.1264 8.06602ZM97.13757 8.06602" fill="#bf00bf"/>
<path transform="matrix(1,0,0,-1,35.599,163.584)" stroke-width=".59776" stroke-linecap="butt" stroke-miterlimit="10" stroke-linejoin="miter" fill="none" stroke="#bf00bf" d="M100.1264 8.06602C100.1264 9.71674 98.78828 11.05486 97.13757 11.05486 95.48688 11.05486 94.14874 9.71674 94.14874 8.06602 94.14874 6.41531 95.48688 5.0772 97.13757 5.0772 98.78828 5.0772 100.1264 6.41531 100.1264 8.06602ZM97.13757 8.06602"/>
<path transform="matrix(1,0,0,-1,35.599,163.584)" d="M144.27986 12.0082C144.27986 13.65889 142.94173 14.99702 141.29103 14.99702 139.64032 14.99702 138.3022 13.65889 138.3022 12.0082 138.3022 10.35748 139.64032 9.01936 141.29103 9.01936 142.94173 9.01936 144.27986 10.35748 144.27986 12.0082ZM141.29103 12.0082" fill="#bf00bf"/>
<path transform="matrix(1,0,0,-1,35.599,163.584)" stroke-width=".59776" stroke-linecap="butt" stroke-miterlimit="10" stroke-linejoin="miter" fill="none" stroke="#bf00bf" d="M144.27986 12.0082C144.27986 13.65889 142.94173 14.99702 141.29103 14.99702 139.64032 14.99702 138.3022 13.65889 138.3022 12.0082 138.3022 10.35748 139.64032 9.01936 141.29103 9.01936 142.94173 9.01936 144.27986 10.35748 144.27986 12.0082ZM141.29103 12.0082"/>
<path transform="matrix(1,0,0,-1,35.599,163.584)" d="M188.43329 14.05383C188.43329 15.70453 187.09517 17.04266 185.44446 17.04266 183.79375 17.04266 182.45563 15.70453 182.45563 14.05383 182.45563 12.40312 183.79375 11.065 185.44446 11.065 187.09517 11.065 188.43329 12.40312 188.43329 14.05383ZM185.44446 14.05383" fill="#bf00bf"/>
<path transform="matrix(1,0,0,-1,35.599,163.584)" stroke-width=".59776" stroke-linecap="butt" stroke-miterlimit="10" stroke-linejoin="miter" fill="none" stroke="#bf00bf" d="M188.43329 14.05383C188.43329 15.70453 187.09517 17.04266 185.44446 17.04266 183.79375 17.04266 182.45563 15.70453 182.45563 14.05383 182.45563 12.40312 183.79375 11.065 185.44446 11.065 187.09517 11.065 188.43329 12.40312 188.43329 14.05383ZM185.44446 14.05383"/>
<path transform="matrix(1,0,0,-1,35.599,163.584)" stroke-width=".59776" stroke-linecap="butt" stroke-miterlimit="10" stroke-linejoin="miter" fill="none" stroke="#bf00bf" d=""/>
<use data-text="&#x1d703;" xlink:href="#font_1_3169" transform="matrix(9.96264,0,0,-9.96264,130.324,191.725)"/>
<use data-text="n" xlink:href="#font_3_79" transform="matrix(0,-9.96264,-9.96264,-0,12.117996,112.93001)"/>
<use data-text="o" xlink:href="#font_3_80" transform="matrix(0,-9.96264,-9.96264,-0,12.117996,107.948688)"/>
<use data-text="r" xlink:href="#font_3_83" transform="matrix(0,-9.96264,-9.96264,-0,12.117996,102.96736)"/>
<use data-text="m" xlink:href="#font_3_78" transform="matrix(0,-9.96264,-9.96264,-0,12.117996,99.450557)"/>
<use data-text="a" xlink:href="#font_3_66" transform="matrix(0,-9.96264,-9.96264,-0,12.117996,91.699619)"/>
<use data-text="l" xlink:href="#font_3_77" transform="matrix(0,-9.96264,-9.96264,-0,12.117996,87.27621)"/>
<use data-text="i" xlink:href="#font_3_74" transform="matrix(0,-9.96264,-9.96264,-0,12.117996,84.50659)"/>
<use data-text="z" xlink:href="#font_3_91" transform="matrix(0,-9.96264,-9.96264,-0,12.117996,81.73698)"/>
<use data-text="e" xlink:href="#font_3_70" transform="matrix(0,-9.96264,-9.96264,-0,12.117996,77.31357)"/>
<use data-text="d" xlink:href="#font_3_69" transform="matrix(0,-9.96264,-9.96264,-0,12.117996,72.89015)"/>
<use data-text="&#x1d435;" xlink:href="#font_1_2477" transform="matrix(0,-9.96264,-9.96264,-0,12.117996,65.41901)"/>
<use data-text="&#x1d456;" xlink:href="#font_4_2509" transform="matrix(0,-7.47198,-7.47198,-0,14.609001,58.485)"/>
<use data-text="&#x1d457;" xlink:href="#font_4_2510" transform="matrix(0,-7.47198,-7.47198,-0,14.609001,56.161218)"/>
<path transform="matrix(1,0,0,-1,35.599,163.584)" d="M123.20726 105.12459H190.18875V157.9668H123.20726Z" fill="#ffffff" fill-opacity=".8"/>
<path transform="matrix(1,0,0,-1,35.599,163.584)" stroke-width=".3985" stroke-linecap="butt" stroke-miterlimit="10" stroke-linejoin="miter" fill="none" stroke="#cccccc" d="M123.20726 105.12459H190.18875V157.9668H123.20726Z"/>
<path transform="matrix(1,0,0,-1,162.092,13.719002)" stroke-width=".59776" stroke-linecap="butt" stroke-miterlimit="10" stroke-linejoin="miter" fill="none" stroke="#0000ff" d="M0 0H8.50412 17.00826"/>
<path transform="matrix(1,0,0,-1,162.092,13.719002)" stroke-width=".59776" stroke-linecap="butt" stroke-miterlimit="10" stroke-linejoin="miter" fill="none" stroke="#0000ff" d="M5.51529 0H11.49295M8.50412 2.98883V-2.98883"/>
<use data-text="&#x1d435;" xlink:href="#font_1_2477" transform="matrix(9.96264,0,0,-9.96264,181.39099,16.339005)"/>
<use data-text="1" xlink:href="#font_4_50" transform="matrix(7.47198,0,0,-7.47198,188.32498,18.830018)"/>
<use data-text="1" xlink:href="#font_4_50" transform="matrix(7.47198,0,0,-7.47198,192.06098,18.830018)"/>
<use data-text="/" xlink:href="#font_1_48" transform="matrix(9.96264,0,0,-9.96264,196.20598,16.339005)"/>
<use data-text="&#x1d446;" xlink:href="#font_1_2494" transform="matrix(9.96264,0,0,-9.96264,198.97559,16.339005)"/>
<use data-text="3" xlink:href="#font_4_52" transform="matrix(7.47198,0,0,-7.47198,205.45099,18.830018)"/>
<use data-text="1" xlink:href="#font_4_50" transform="matrix(7.47198,0,0,-7.47198,209.18698,18.830018)"/>
<use data-text="3" xlink:href="#font_4_52" transform="matrix(7.47198,0,0,-7.47198,212.92298,18.830018)"/>
<use data-text="1" xlink:href="#font_4_50" transform="matrix(7.47198,0,0,-7.47198,216.65897,18.830018)"/>
<path transform="matrix(1,0,0,-1,162.092,25.933003)" stroke-width=".59776" stroke-linecap="butt" stroke-miterlimit="10" stroke-linejoin="miter" fill="none" stroke="#ff0000" d="M0 0H8.50412 17.00826"/>
<path transform="matrix(1,0,0,-1,162.092,25.933003)" d="M8.50412 2.98883 10.74574 0 8.50412-2.98883 6.2625 0Z" fill="#ff0000" fill-opacity=".8"/>
<path transform="matrix(1,0,0,-1,162.092,25.933003)" stroke-width=".59776" stroke-linecap="butt" stroke-miterlimit="10" stroke-linejoin="miter" fill="none" stroke="#ff0000" d="M8.50412 2.98883 10.74574 0 8.50412-2.98883 6.2625 0Z"/>
<use data-text="&#x1d435;" xlink:href="#font_1_2477" transform="matrix(9.96264,0,0,-9.96264,181.39099,28.553009)"/>
<use data-text="2" xlink:href="#font_4_51" transform="matrix(7.47198,0,0,-7.47198,188.32498,31.044007)"/>
<use data-text="2" xlink:href="#font_4_51" transform="matrix(7.47198,0,0,-7.47198,192.06098,31.044007)"/>
<use data-text="/" xlink:href="#font_1_48" transform="matrix(9.96264,0,0,-9.96264,196.20598,28.553009)"/>
<use data-text="&#x1d446;" xlink:href="#font_1_2494" transform="matrix(9.96264,0,0,-9.96264,198.97559,28.553009)"/>
<use data-text="2" xlink:href="#font_4_51" transform="matrix(7.47198,0,0,-7.47198,205.45099,31.044007)"/>
<use data-text="3" xlink:href="#font_4_52" transform="matrix(7.47198,0,0,-7.47198,209.18698,31.044007)"/>
<use data-text="2" xlink:href="#font_4_51" transform="matrix(7.47198,0,0,-7.47198,212.92298,31.044007)"/>
<use data-text="3" xlink:href="#font_4_52" transform="matrix(7.47198,0,0,-7.47198,216.65897,31.044007)"/>
<path transform="matrix(1,0,0,-1,162.092,38.147005)" stroke-width=".59776" stroke-linecap="butt" stroke-miterlimit="10" stroke-linejoin="miter" fill="none" stroke="#008000" d="M0 0H8.50412 17.00826"/>
<path transform="matrix(1,0,0,-1,162.092,38.147005)" d="M11.49295 0C11.49295 1.6507 10.15482 2.98883 8.50412 2.98883 6.85341 2.98883 5.51529 1.6507 5.51529 0 5.51529-1.6507 6.85341-2.98883 8.50412-2.98883 10.15482-2.98883 11.49295-1.6507 11.49295 0ZM8.50412 0" fill="#008000" fill-opacity=".8"/>
<path transform="matrix(1,0,0,-1,162.092,38.147005)" stroke-width=".59776" stroke-linecap="butt" stroke-miterlimit="10" stroke-linejoin="miter" fill="none" stroke="#008000" d="M11.49295 0C11.49295 1.6507 10.15482 2.98883 8.50412 2.98883 6.85341 2.98883 5.51529 1.6507 5.51529 0 5.51529-1.6507 6.85341-2.98883 8.50412-2.98883 10.15482-2.98883 11.49295-1.6507 11.49295 0ZM8.50412 0"/>
<use data-text="&#x1d435;" xlink:href="#font_1_2477" transform="matrix(9.96264,0,0,-9.96264,181.39099,40.767)"/>
<use data-text="3" xlink:href="#font_4_52" transform="matrix(7.47198,0,0,-7.47198,188.32498,43.257997)"/>
<use data-text="3" xlink:href="#font_4_52" transform="matrix(7.47198,0,0,-7.47198,192.06098,43.257997)"/>
<use data-text="/" xlink:href="#font_1_48" transform="matrix(9.96264,0,0,-9.96264,196.20598,40.767)"/>
<use data-text="&#x1d446;" xlink:href="#font_1_2494" transform="matrix(9.96264,0,0,-9.96264,198.97559,40.767)"/>
<use data-text="3" xlink:href="#font_4_52" transform="matrix(7.47198,0,0,-7.47198,205.45099,43.257997)"/>
<use data-text="3" xlink:href="#font_4_52" transform="matrix(7.47198,0,0,-7.47198,209.18698,43.257997)"/>
<use data-text="3" xlink:href="#font_4_52" transform="matrix(7.47198,0,0,-7.47198,212.92298,43.257997)"/>
<use data-text="3" xlink:href="#font_4_52" transform="matrix(7.47198,0,0,-7.47198,216.65897,43.257997)"/>
<path transform="matrix(1,0,0,-1,162.092,50.361005)" stroke-width=".59776" stroke-linecap="butt" stroke-miterlimit="10" stroke-linejoin="miter" fill="none" stroke="#bf00bf" d="M0 0H8.50412 17.00826"/>
<path transform="matrix(1,0,0,-1,162.092,50.361005)" d="M11.49295 0C11.49295 1.6507 10.15482 2.98883 8.50412 2.98883 6.85341 2.98883 5.51529 1.6507 5.51529 0 5.51529-1.6507 6.85341-2.98883 8.50412-2.98883 10.15482-2.98883 11.49295-1.6507 11.49295 0ZM8.50412 0" fill="#bf00bf" fill-opacity=".8"/>
<path transform="matrix(1,0,0,-1,162.092,50.361005)" stroke-width=".59776" stroke-linecap="butt" stroke-miterlimit="10" stroke-linejoin="miter" fill="none" stroke="#bf00bf" d="M11.49295 0C11.49295 1.6507 10.15482 2.98883 8.50412 2.98883 6.85341 2.98883 5.51529 1.6507 5.51529 0 5.51529-1.6507 6.85341-2.98883 8.50412-2.98883 10.15482-2.98883 11.49295-1.6507 11.49295 0ZM8.50412 0"/>
<use data-text="&#x1d435;" xlink:href="#font_1_2477" transform="matrix(9.96264,0,0,-9.96264,181.39099,52.98201)"/>
<use data-text="1" xlink:href="#font_4_50" transform="matrix(7.47198,0,0,-7.47198,188.32498,55.472017)"/>
<use data-text="3" xlink:href="#font_4_52" transform="matrix(7.47198,0,0,-7.47198,192.06098,55.472017)"/>
<use data-text="/" xlink:href="#font_1_48" transform="matrix(9.96264,0,0,-9.96264,196.20598,52.98201)"/>
<use data-text="&#x1d446;" xlink:href="#font_1_2494" transform="matrix(9.96264,0,0,-9.96264,198.97559,52.98201)"/>
<use data-text="3" xlink:href="#font_4_52" transform="matrix(7.47198,0,0,-7.47198,205.45099,55.472017)"/>
<use data-text="3" xlink:href="#font_4_52" transform="matrix(7.47198,0,0,-7.47198,209.18698,55.472017)"/>
<use data-text="3" xlink:href="#font_4_52" transform="matrix(7.47198,0,0,-7.47198,212.92298,55.472017)"/>
<use data-text="3" xlink:href="#font_4_52" transform="matrix(7.47198,0,0,-7.47198,216.65897,55.472017)"/>
</svg>
