<svg xmlns="http://www.w3.org/2000/svg" xmlns:xlink="http://www.w3.org/1999/xlink" xmlns:inkscape="http://www.inkscape.org/namespaces/inkscape" version="1.1" width="239.562" height="218.509" viewBox="0 0 239.562 218.509">
<defs>
<path id="font_1_50" d="M.3939972 0V.01499939C.31900025 .01499939 .29899598 .032989503 .29899598 .07597351V.67277529L.2899933 .67578127 .11099243 .5847931V.5708008L.13798523 .5807953C.1559906 .5877991 .17298889 .59280398 .18299866 .59280398 .20399475 .59280398 .21299744 .57780459 .21299744 .543808V.0949707C.21299744 .039978029 .19198609 .018997193 .117996219 .01499939V0H.3939972Z"/>
<path id="font_1_49" d="M.37998963 .32505799C.37998963 .12722779 .33499146 .012313843 .25 .012313843 .1639862 .012313843 .11999512 .1262207 .11999512 .32904054 .11999512 .5318756 .16499329 .6497803 .24798584 .6497803 .33599855 .6497803 .37998963 .53286746 .37998963 .32505799M.47599793 .3300476C.47599793 .53486636 .3849945 .67578127 .2539978 .67578127 .09298706 .67578127 .023986817 .5128937 .023986817 .3360443 .023986817 .17218018 .07899475-.013671875 .25-.013671875 .41299439-.013671875 .47599793 .15818787 .47599793 .3300476Z"/>
<path id="font_2_1155" d="M.62098696 .22012329V.2861328H.06399536V.22012329H.62098696Z"/>
<path id="font_2_51" d="M.47399903 .13696289 .45999146 .1429596C.4269867 .08699036 .4059906 .07598877 .3639984 .07598877H.12998963L.29499818 .2519226C.38398744 .34588624 .4229889 .42085267 .4229889 .4998169 .4229889 .59877017 .35099793 .67578127 .23799134 .67578127 .114990238 .67578127 .050994874 .5937805 .02999878 .4768219L.050994874 .47183229C.09098816 .5697937 .12599182 .6017761 .19799805 .6017761 .2829895 .6017761 .33699037 .55178835 .33699037 .4608307 .33699037 .37586976 .30099488 .29989625 .20698548 .200943L.0289917 .011993408V0H.41999818L.47399903 .13696289Z"/>
<path id="font_2_50" d="M.3939972 0V.01499939C.31900025 .01499939 .29899598 .032989503 .29899598 .07597351V.67277529L.2899933 .67578127 .11099243 .5847931V.5708008L.13798523 .5807953C.1559906 .5877991 .17298889 .59280398 .18299866 .59280398 .20399475 .59280398 .21299744 .57780459 .21299744 .543808V.0949707C.21299744 .039978029 .19198609 .018997193 .117996219 .01499939V0H.3939972Z"/>
<path id="font_2_49" d="M.37998963 .32505799C.37998963 .12722779 .33499146 .012313843 .25 .012313843 .1639862 .012313843 .11999512 .1262207 .11999512 .32904054 .11999512 .5318756 .16499329 .6497803 .24798584 .6497803 .33599855 .6497803 .37998963 .53286746 .37998963 .32505799M.47599793 .3300476C.47599793 .53486636 .3849945 .67578127 .2539978 .67578127 .09298706 .67578127 .023986817 .5128937 .023986817 .3360443 .023986817 .17218018 .07899475-.013671875 .25-.013671875 .41299439-.013671875 .47599793 .15818787 .47599793 .3300476Z"/>
<path id="font_1_47" d="M.18099976 .04324341C.18099976 .07325745 .15499878 .100250247 .12599182 .100250247 .09498596 .100250247 .069992069 .07525635 .069992069 .04425049 .069992069 .013244629 .09399414-.0107421879 .125-.0107421879 .15499878-.0107421879 .18099976 .014251709 .18099976 .04324341Z"/>
<path id="font_1_53" d="M.2919922 .23098755H.051986696L.2919922 .573822V.23098755M.47299195 .16699219V.23098755H.36999513V.67578127H.32598878L.011993408 .23098755V.16699219H.2919922V0H.36999513V.16699219H.47299195Z"/>
<path id="font_1_55" d="M.37799073 .18850708C.37799073 .08639526 .34098817 .014328003 .2689972 .014328003 .1749878 .014328003 .1269989 .11442566 .1269989 .2665863 .1269989 .3586731 .18598938 .3827057 .24299622 .3827057 .33599855 .3827057 .37799073 .31663514 .37799073 .18850708M.44599916 .68470767C.30799867 .66970828 .22898865 .6457062 .14299011 .55570986 .07199097 .48269654 .033996583 .38771058 .033996583 .27960206 .033996583 .20951844 .052993776 .138443 .08099365 .087402347 .115997318 .023330689 .1789856-.013671875 .2579956-.013671875 .32398988-.013671875 .37998963 .013320923 .4169922 .05937195 .44999696 .09941101 .46798707 .1554718 .46798707 .2195282 .46798707 .34866334 .3959961 .42871095 .2789917 .42871095 .23498535 .42871095 .20098877 .42170716 .1519928 .3836975 .1789856 .5346985 .29100038 .6427002 .44799806 .6687012L.44599916 .68470767Z"/>
<path id="font_1_57" d="M.2709961 .27209474C.33898927 .22613526 .36898805 .18617249 .36898805 .1242218 .36898805 .059280397 .32398988 .014328003 .25898744 .014328003 .18299866 .014328003 .13198853 .06626892 .13198853 .15820313 .13198853 .22314453 .15299988 .26409913 .21199036 .3120575L.2709961 .27209474M.35499574 .53286746C.35499574 .470932 .32899476 .42897035 .26098634 .3889923 .17298889 .4409485 .13598633 .48690797 .13598633 .54885867 .13598633 .6108093 .1789856 .6477661 .24598694 .6477661 .31399537 .6477661 .35499574 .60180667 .35499574 .53286746M.44499208 .15519715C.44499208 .23512268 .41299439 .28907777 .2899933 .37101747 .3889923 .42396546 .42399598 .45793153 .42399598 .53286746 .42399598 .6108093 .35499574 .67578127 .2559967 .67578127 .14498902 .67578127 .06199646 .61579897 .06199646 .5198822 .06199646 .4549408 .08299255 .41697694 .18598938 .3320465 .07899475 .2571106 .055999757 .21813965 .055999757 .14920044 .055999757 .055282594 .1349945-.013671875 .24798584-.013671875 .36799623-.013671875 .44499208 .05229187 .44499208 .15519715Z"/>
<path id="font_1_51" d="M.47399903 .13696289 .45999146 .1429596C.4269867 .08699036 .4059906 .07598877 .3639984 .07598877H.12998963L.29499818 .2519226C.38398744 .34588624 .4229889 .42085267 .4229889 .4998169 .4229889 .59877017 .35099793 .67578127 .23799134 .67578127 .114990238 .67578127 .050994874 .5937805 .02999878 .4768219L.050994874 .47183229C.09098816 .5697937 .12599182 .6017761 .19799805 .6017761 .2829895 .6017761 .33699037 .55178835 .33699037 .4608307 .33699037 .37586976 .30099488 .29989625 .20698548 .200943L.0289917 .011993408V0H.41999818L.47399903 .13696289Z"/>
<clipPath id="clip_3">
<path transform="matrix(1,0,0,-1,138.89099,163.585)" d="M-97.13643 0H97.13576V161.39588H-97.13643Z"/>
</clipPath>
<path id="font_1_3184" d="M.644989 .427948H.54499819L.35398866 .1999054 .35798646 .27192689C.35899354 .2819214 .35899354 .29292298 .35899354 .30293275 .35899354 .40293885 .33898927 .4409485 .30299378 .4409485 .24299622 .4409485 .21798706 .37194825 .20098877 .31092835H.21699524C.23699951 .36494447 .2599945 .37695313 .27398683 .37695313 .31199647 .37695313 .32598878 .3359375 .32598878 .24391175V.16590882L.02999878-.18315125H.1309967L.31599427 .03488159C.31298829-.004135132 .30899049-.045135499 .30899049-.090148929 .30899049-.15016175 .31900025-.20214844 .3639984-.20214844 .41600038-.20214844 .44599916-.14816284 .46598817-.071136478H.44999696C.42999269-.12416077 .4099884-.13815308 .3959961-.13815308 .3659973-.13815308 .35499574-.09313965 .35499574 .08488464L.644989 .427948Z"/>
<path id="font_1_62" d="M.6369934 .12011719V.18611145H.04798889V.12011719H.6369934M.6369934 .31973268V.3857422H.04798889V.31973268H.6369934Z"/>
<path id="font_1_2480" d="M.73399356 .653183H.19999695L.19599915 .6371765H.21499634C.27398683 .6371765 .2899933 .6261749 .2899933 .60217288 .2899933 .59516909 .2889862 .5841522 .2849884 .56614688L.16499329 .07798767C.15699768 .04399109 .13398743 .015991211 .06098938 .015991211H.041992189L.037994386 0H.60899356L.6749878 .19799805H.6589966C.6159973 .084991458 .55999758 .037994386 .4019928 .037994386H.33499146C.28799439 .037994386 .27198792 .04899597 .27198792 .06498718 .27198792 .067993167 .272995 .070999149 .27398683 .07499695L.33999635 .3330078H.42999269C.46099855 .3330078 .5019989 .32899476 .5019989 .28199769 .5019989 .2649994 .49699403 .23500061 .49598695 .22200012H.5130005L.57099917 .46406556H.5549927C.5329895 .38200379 .4889984 .3690033 .42900086 .3690033H.34899903L.40899659 .6171875H.56900027C.6199951 .6171875 .6749878 .60417178 .6779938 .53012087 .6779938 .519104 .6769867 .5081024 .6759949 .49508668H.69200137L.73399356 .653183Z"/>
<path id="font_2_52" d="M.06098938 .50987246C.101989749 .58380129 .147995 .61576846 .20999146 .61576846 .27598573 .61576846 .31799317 .58180239 .31799317 .51387026 .31799317 .45292665 .28599549 .40795899 .23699951 .37998963 .21699524 .36799623 .19099427 .3570099 .15299988 .34402467V.33003236C.20999146 .33003236 .23298645 .32704164 .25498963 .3200531 .32398988 .3000641 .35899354 .2511139 .35899354 .17518616 .35899354 .09025574 .30299378 .022323609 .22898865 .022323609 .20098877 .022323609 .17999268 .027313233 .14299011 .05329895 .114990238 .073272708 .09899902 .07926941 .08198547 .07926941 .05899048 .07926941 .040985109 .06428528 .040985109 .043304445 .040985109 .0073242189 .07998657-.013671875 .15299988-.013671875 .24198914-.013671875 .33699037 .015319824 .3849945 .07926941 .4139862 .11723328 .43099977 .16618347 .43099977 .21913147 .43099977 .27108766 .4149933 .31704713 .3869934 .34802247 .3659973 .36999513 .34799195 .38198854 .3039856 .40097047 .37098695 .44093324 .39698792 .4908905 .39698792 .5388489 .39698792 .6207733 .33399964 .67578127 .24099732 .67578127 .13699341 .67578127 .07398987 .6087799 .04499817 .51387026L.06098938 .50987246Z"/>
<path id="font_1_3733" d="M.6669922-.3460083C.4889984-.12600708 .2919922 .22299195 .2919922 .83599856 .2919922 1.4420014 .4889984 1.8379974 .6669922 2.0220032V2.0659943C.3829956 1.8379974 .18199158 1.3739929 .18199158 .83599856 .18199158 .29499818 .3829956-.12701416 .6669922-.39401246V-.3460083Z"/>
<path id="font_1_2482" d="M.73399356 .32911683H.42099L.4169922 .3131256H.43598939C.49699403 .3131256 .5109863 .29812623 .5109863 .2761383 .5109863 .26914979 .5099945 .25915528 .5079956 .25115968L.45098878 .05026245C.42399598 .03326416 .394989 .025268555 .35398866 .025268555 .20698548 .025268555 .17298889 .1222229 .17298889 .20417786 .17298889 .38308717 .2619934 .6309662 .4909973 .6309662 .60398867 .6309662 .651001 .55000308 .651001 .47703553 .651001 .4660492 .6499939 .4550476 .6489868 .4450531H.6649933L.70999148 .66796877H.69400027C.69099429 .6519623 .6729889 .6309662 .651001 .6309662 .6289978 .6309662 .6100006 .6459656 .58799746 .6519623 .56599429 .65896609 .5339966 .66796877 .4850006 .66796877 .23199463 .66796877 .049987794 .45205689 .049987794 .24215698 .049987794 .06324768 .18499756-.01171875 .34199525-.01171875 .40499879-.01171875 .47999574-.01171875 .5589905 .03526306L.62098696 .25115968C.6309967 .2871399 .6489868 .3131256 .73399356 .3131256V.32911683Z"/>
<path id="font_1_3734" d="M.08299255 2.01799C.26098634 1.8009949 .45799256 1.449997 .45799256 .83599856 .45799256 .22999573 .26098634-.16600037 .08299255-.3500061V-.39401246C.36698915-.16600037 .56799319 .3019867 .56799319 .83599856 .56799319 1.3809967 .36698915 1.798996 .08299255 2.0659943V2.01799Z"/>
<path id="font_4_79" d="M.4850006 0V.01499939C.43598939 .019989014 .42399598 .0309906 .42399598 .084991458V.30596925C.42399598 .404953 .38198854 .45996095 .30599977 .45996095 .2599945 .45996095 .21398926 .43795777 .1619873 .37895204H.16099549V.45695497L.15299988 .45996095C.10398865 .44195558 .070999149 .43095399 .015991211 .4149475V.39794923C.022994996 .4009552 .033996583 .40194703 .04499817 .40194703 .07299805 .40194703 .07998657 .3859558 .07998657 .33695985V.09397888C.07998657 .034988405 .068984989 .018997193 .017990113 .01499939V0H.22898865V.01499939C.17799378 .018997193 .1639862 .032989503 .1639862 .07199097V.34796144C.20999146 .3929596 .23399353 .404953 .2669983 .404953 .31599427 .404953 .33999635 .37495423 .33999635 .30397035V.10498047C.33999635 .038986207 .32798768 .018997193 .27799989 .01499939L.2769928 0H.4850006Z"/>
<path id="font_4_80" d="M.37998963 .20410156C.37998963 .08818054 .33599855 .018234253 .2619934 .018234253 .22599793 .018234253 .19400025 .036209108 .17199707 .06819153 .1349945 .122161868 .11898804 .19410706 .11898804 .27305604 .11898804 .3730011 .1659851 .4319458 .23498535 .4319458 .27799989 .4319458 .30599977 .41197206 .32998658 .38198854 .3619995 .34101869 .37998963 .2720642 .37998963 .20410156M.46998597 .23109436C.46998597 .3690033 .37599183 .45996095 .2539978 .45996095 .11898804 .45996095 .0289917 .3670044 .0289917 .22808838 .0289917 .08918762 .12399292-.009765625 .24499512-.009765625 .37998963-.009765625 .46998597 .092178348 .46998597 .23109436Z"/>
<path id="font_4_83" d="M.1599884 .45794679 .15499878 .45996095C.101989749 .43894959 .06599426 .42495729 .0069885256 .40596009V.3899536C.020996094 .3929596 .02999878 .39396668 .041992189 .39396668 .066986087 .39396668 .07598877 .3779602 .07598877 .33396913V.083984378C.07598877 .033996583 .068984989 .026992798 .004989624 .01499939V0H.24499512V.01499939C.1769867 .017990113 .1599884 .032989503 .1599884 .08998108V.31497193C.1599884 .3469696 .20199585 .3969574 .22999573 .3969574 .23599243 .3969574 .24499512 .3919525 .2559967 .381958 .27198792 .36695863 .2829895 .361969 .29599 .361969 .31999208 .361969 .33499146 .3789673 .33499146 .4069519 .33499146 .43995667 .31399537 .45996095 .27999879 .45996095 .23799134 .45996095 .20999146 .43795777 .1599884 .3659668V.45794679Z"/>
<path id="font_4_78" d="M.7749939 0V.01499939L.7489929 .016998291C.71899417 .018997193 .70599368 .03199768 .70599368 .07698059V.27996827C.70599368 .39794923 .67099 .45996095 .58999636 .45996095 .5319977 .45996095 .48098756 .43395997 .4269867 .3759613 .40899659 .43295289 .375 .45996095 .32099916 .45996095 .27598573 .45996095 .23399353 .45095826 .16799927 .38294984H.1659851V.45695497L.1579895 .45996095C.10699463 .4409485 .07398987 .4299469 .018997193 .4149475V.39794923C.03199768 .4009552 .039993287 .40194703 .050994874 .40194703 .07699585 .40194703 .085998538 .38494874 .085998538 .33595277V.08798218C.085998538 .02999878 .07199097 .015991211 .015991211 .01499939V0H.23799134V.01499939C.18499756 .016998291 .16999817 .026992798 .16999817 .069992069V.34796144C.16999817 .34996034 .17599488 .3569641 .18299866 .36495973 .20298767 .3889618 .2519989 .40795899 .2889862 .40795899 .33198548 .40795899 .35398866 .36595155 .35398866 .29696656V.08598328C.35398866 .024993897 .34298707 .018997193 .28599549 .01499939V0H.5099945V.01499939C.45298768 .015991211 .43798829 .02999878 .43798829 .09498596V.34695436C.46798707 .3899536 .49798585 .40795899 .54499819 .40795899 .60198977 .40795899 .621994 .37495423 .621994 .29595948V.08998108C.621994 .03199768 .61299136 .020996094 .5569916 .01499939V0H.7749939Z"/>
<path id="font_4_66" d="M.2869873 .12716675C.2869873 .09819031 .2809906 .084198 .2519989 .064208988 .23498535 .053222658 .21398926 .048233034 .19400025 .048233034 .15499878 .048233034 .125 .07220459 .125 .12516785 .125 .15615845 .1349945 .18013 .15899658 .20211792 .18399048 .22509766 .22499085 .24609375 .2869873 .2680664V.12716675M.44198609 .066207889C.4249878 .052230836 .4149933 .047225954 .39898683 .047225954 .3809967 .047225954 .36799623 .067214969 .36799623 .11317444V.30404664C.36799623 .3650055 .3639984 .38598634 .33999635 .41496278 .31599427 .44395448 .27799989 .45996095 .22200012 .45996095 .1769867 .45996095 .1349945 .44795228 .10699463 .42996217 .07199097 .40797425 .055999757 .37599183 .055999757 .35002137 .055999757 .32302857 .07798767 .30404664 .09899902 .30404664 .125 .30404664 .14498902 .32603456 .14498902 .34501649 .14498902 .3659973 .13899231 .3690033 .13899231 .3869934 .13899231 .41397096 .16899109 .43595887 .20899964 .43595887 .2539978 .43595887 .2869873 .40797425 .2869873 .34602357V.29205323C.17399597 .25009156 .13699341 .23109436 .10699463 .21110535 .067993167 .18513489 .036987306 .14616394 .036987306 .094192508 .036987306 .02822876 .07998657-.009765625 .14199829-.009765625 .18499756-.009765625 .23399353 .0032196046 .2869873 .06321716H.28799439C.29299928 .010223389 .31498719-.009765625 .35198976-.009765625 .38598634-.009765625 .4119873 .00022888184 .44198609 .038223268V.066207889Z"/>
<path id="font_4_77" d="M.25698854 0V.01499939C.19299317 .018997193 .18199158 .03199768 .18199158 .08699036V.67900088L.1769867 .68299868C.125 .66600039 .08799744 .6559906 .018997193 .6389923V.6230011C.034988405 .625 .04798889 .625 .055999757 .625 .08799744 .625 .09799194 .60899356 .09799194 .5609894V.09199524C.09799194 .036987306 .083999637 .019989014 .020996094 .01499939V0H.25698854Z"/>
<path id="font_4_74" d="M.25299073 0V.01499939C.18699646 .019989014 .1789856 .0309906 .1789856 .10499573V.45603944L.1749878 .46003724 .019989014 .4050293V.38902284C.037994386 .3940277 .052993776 .3940277 .06199646 .3940277 .08699036 .3940277 .09498596 .37802125 .09498596 .33102418V.104003909C.09498596 .027999878 .084991458 .018997193 .015991211 .01499939V0H.25299073M.17999268 .63204959C.17999268 .66004946 .1579895 .68304446 .1289978 .68304446 .100997928 .68304446 .07798767 .66004946 .07798767 .63204959 .07798767 .6030426 .099990848 .5810547 .12799073 .5810547 .1579895 .5810547 .17999268 .6030426 .17999268 .63204959Z"/>
<path id="font_4_91" d="M.41799928 .13604737 .3999939 .14004517C.3899994 .090026859 .3869934 .074020389 .37298585 .057006837 .35899354 .039993287 .32499696 .02999878 .2669983 .02999878H.13398743L.40299989 .43518067V.4501953H.056991579L.052993776 .33213807H.070999149C.07998657 .40518189 .09498596 .42018128 .1579895 .42018128H.29299928L.026992798 .01499939V0H.40299989L.41799928 .13604737Z"/>
<path id="font_4_70" d="M.09899902 .30934144C.10998535 .38407899 .14898682 .4239502 .20498657 .4239502 .2709961 .4239502 .2919922 .39006043 .30299378 .30934144H.09899902M.4079895 .16427613C.35899354 .09024048 .32099916 .05921936 .2539978 .05921936 .20799256 .05921936 .17098999 .07723999 .14299011 .11425781 .10699463 .16227722 .101989749 .20129395 .09700012 .27734376H.40499879C.40098573 .3312683 .3909912 .36315919 .37098695 .3910675 .33898927 .43595887 .2939911 .45996095 .23199463 .45996095 .10598755 .45996095 .024993897 .35816957 .024993897 .21730042 .024993897 .07923889 .09700012-.009765625 .21499634-.009765625 .31498719-.009765625 .3849945 .048233034 .42399598 .15727234L.4079895 .16427613Z"/>
<path id="font_4_69" d="M.33999635 .10218811C.33999635 .095184329 .33399964 .084198 .32499696 .07420349 .30699159 .053222658 .28199769 .04222107 .25099183 .04222107 .16699219 .04222107 .11299133 .122177127 .11299133 .24508667 .11299133 .3580017 .1619873 .4319458 .23799134 .4319458 .2919922 .4319458 .33999635 .3849945 .33999635 .33203126V.10218811M.4909973 .04222107V.05821228C.47399903 .05722046 .47299195 .05722046 .46798707 .05722046 .43199159 .05722046 .42399598 .06820679 .42399598 .11418152V.680954L.4189911 .6829529C.37098695 .6659546 .33599855 .6559601 .27198792 .63894656V.6229553C.27999879 .62394717 .28599549 .62394717 .2939911 .62394717 .33099366 .62394717 .33999635 .61395266 .33999635 .5729523V.41696168C.3019867 .44895936 .2749939 .45996095 .23498535 .45996095 .11999512 .45996095 .026992798 .34701539 .026992798 .20510865 .026992798 .07720947 .100997928-.009765625 .21199036-.009765625 .2679901-.009765625 .30599977 .010223389 .33999635 .05722046V-.0067749025L.34399415-.009765625 .4909973 .04222107Z"/>
<path id="font_1_2477" d="M.33799745 .3143463C.35299684 .31835938 .37298585 .31835938 .3889923 .31835938 .46699525 .31835938 .5309906 .28330995 .5309906 .21022034 .5309906 .08004761 .43499757 .037994386 .34098817 .037994386 .31498719 .037994386 .29499818 .039993287 .269989 .04699707L.33799745 .3143463M.4059906 .61125186C.4189911 .61325076 .43399049 .6142578 .44898988 .6142578 .5029907 .6142578 .56799319 .5932617 .56799319 .5162964 .56799319 .41932679 .5119934 .35334779 .3999939 .35334779 .3849945 .35334779 .36698915 .35534669 .34700013 .35934449L.4059906 .61125186M.19799805 .653244 .19299317 .6372528H.21199036C.2709961 .6372528 .2899933 .62124636 .2899933 .5952606 .2899933 .5892639 .2889862 .5792694 .28799439 .5742645L.16499329 .07904053C.15699768 .04499817 .13798523 .015991211 .06199646 .015991211H.041992189L.037994386 0H.3619995C.56900027 0 .651001 .094070438 .651001 .19319153 .651001 .27830506 .58399966 .32035829 .5239868 .3313446L.5209961 .33535768C.54100039 .3403473 .56999209 .34835816 .59498599 .36134339 .6429901 .38534547 .6859894 .43032838 .6859894 .5082855 .6859894 .6442566 .5339966 .653244 .44999696 .653244H.19799805Z"/>
<path id="font_2_2509" d="M.22698975 .4412079 .068984989 .41921998 .07199097 .4032135C.07899475 .4052124 .09098816 .4072113 .099990848 .4072113 .12298584 .4072113 .1309967 .40222169 .1309967 .3852234 .1309967 .3822174 .12998963 .37521363 .1289978 .37321473 .049987794 .0662384 .049987794 .04724121 .049987794 .035247804 .049987794 .008255005 .06199646-.0107421879 .08999634-.0107421879 .13899231-.0107421879 .18899536 .049240114 .22399903 .09423828L.21099854 .10424805C.1749878 .06524658 .16899109 .053253175 .14698792 .053253175 .13999939 .053253175 .13398743 .056243898 .13398743 .06324768 .13398743 .06724548 .13398743 .071243289 .1349945 .07723999L.22698975 .4412079M.25698854 .5662079C.25698854 .5912018 .23498535 .61621096 .20899964 .61621096 .17999268 .61621096 .16099549 .5912018 .16099549 .5662079 .16099549 .5402069 .17999268 .52020266 .20899964 .52020266 .23498535 .52020266 .25698854 .5402069 .25698854 .5662079Z"/>
<path id="font_1_183" d="M.5970001 .021987915 .36698915 .2519989 .5970001 .48399354 .5509949 .5289917 .31999208 .29899598 .08999634 .5289917 .042999269 .48298646 .272995 .2519989 .042999269 .020996094 .08898926-.025009156 .31999208 .20498657 .5509949-.025009156 .5970001 .021987915Z"/>
</defs>
<path transform="matrix(1,0,0,-1,138.89099,163.585)" stroke-width=".3985" stroke-linecap="butt" stroke-miterlimit="10" stroke-linejoin="miter" fill="none" stroke="#b0b0b0" d="M-95.14558 0V161.39588M-92.58543 0V161.39588M-90.32645 0V161.39588M-88.30597 0V161.39588M-75.01479 0V161.39588M-67.24005 0V161.39588M-61.72363 0V161.39588M-57.44482 0V161.39588M-53.94821 0V161.39588M-50.9926 0V161.39588M-48.43245 0V161.39588M-46.17346 0V161.39588M-44.15298 0V161.39588M-30.8618 0V161.39588M-23.08705 0V161.39588M-17.57063 0V161.39588M-13.29182 0V161.39588M-9.79523 0V161.39588M-6.8396 0V161.39588M-4.27945 0V161.39588M-2.02048 0V161.39588M0 0V161.39588M13.29115 0V161.39588M21.0659 0V161.39588M26.58232 0V161.39588M30.86113 0V161.39588M34.35774 0V161.39588M37.31335 0V161.39588M39.8735 0V161.39588M42.13249 0V161.39588M44.15298 0V161.39588M57.44415 0V161.39588M65.2189 0V161.39588M70.73532 0V161.39588M75.01413 0V161.39588M78.51073 0V161.39588M81.46634 0V161.39588M84.02649 0V161.39588M86.28548 0V161.39588"/>
<path transform="matrix(1,0,0,-1,138.89099,163.585)" stroke-width=".3985" stroke-linecap="butt" stroke-miterlimit="10" stroke-linejoin="miter" fill="none" stroke="#b0b0b0" d="M-88.30597 0V161.39588M-44.15298 0V161.39588M0 0V161.39588M44.15298 0V161.39588M88.30597 0V161.39588"/>
<path transform="matrix(1,0,0,-1,138.89099,163.585)" stroke-width=".3985" stroke-linecap="butt" stroke-miterlimit="10" stroke-linejoin="miter" fill="none" stroke="#b0b0b0" d="M-97.13643 22.02397H97.13576M-97.13643 46.86856H97.13576M-97.13643 71.71315H97.13576M-97.13643 96.55774H97.13576M-97.13643 121.40234H97.13576M-97.13643 146.24694H97.13576"/>
<path transform="matrix(1,0,0,-1,138.89099,163.585)" stroke-width=".19925" stroke-linecap="butt" stroke-miterlimit="10" stroke-linejoin="miter" fill="none" stroke="#000000" d="M-95.14558-2.83545V0M-92.58543-2.83545V0M-90.32645-2.83545V0M-88.30597-2.83545V0M-75.01479-2.83545V0M-67.24005-2.83545V0M-61.72363-2.83545V0M-57.44482-2.83545V0M-53.94821-2.83545V0M-50.9926-2.83545V0M-48.43245-2.83545V0M-46.17346-2.83545V0M-44.15298-2.83545V0M-30.8618-2.83545V0M-23.08705-2.83545V0M-17.57063-2.83545V0M-13.29182-2.83545V0M-9.79523-2.83545V0M-6.8396-2.83545V0M-4.27945-2.83545V0M-2.02048-2.83545V0M0-2.83545V0M13.29115-2.83545V0M21.0659-2.83545V0M26.58232-2.83545V0M30.86113-2.83545V0M34.35774-2.83545V0M37.31335-2.83545V0M39.8735-2.83545V0M42.13249-2.83545V0M44.15298-2.83545V0M57.44415-2.83545V0M65.2189-2.83545V0M70.73532-2.83545V0M75.01413-2.83545V0M78.51073-2.83545V0M81.46634-2.83545V0M84.02649-2.83545V0M86.28548-2.83545V0"/>
<path transform="matrix(1,0,0,-1,138.89099,163.585)" stroke-width=".19925" stroke-linecap="butt" stroke-miterlimit="10" stroke-linejoin="miter" fill="none" stroke="#000000" d="M-88.30597-4.25276V0M-44.15298-4.25276V0M0-4.25276V0M44.15298-4.25276V0M88.30597-4.25276V0"/>
<path transform="matrix(1,0,0,-1,138.89099,163.585)" stroke-width=".19925" stroke-linecap="butt" stroke-miterlimit="10" stroke-linejoin="miter" fill="none" stroke="#000000" d="M-101.37415 22.02397H-97.13643M-101.37415 46.86856H-97.13643M-101.37415 71.71315H-97.13643M-101.37415 96.55774H-97.13643M-101.37415 121.40234H-97.13643M-101.37415 146.24694H-97.13643"/>
<path transform="matrix(1,0,0,-1,138.89099,163.585)" stroke-width=".3985" stroke-linecap="butt" stroke-miterlimit="10" stroke-linejoin="miter" fill="none" stroke="#000000" d="M-97.13643 0V161.39588H97.13576V0H-97.13643Z"/>
<use data-text="1" xlink:href="#font_1_50" transform="matrix(9.96264,0,0,-9.96264,40.972993,180.39402)"/>
<use data-text="0" xlink:href="#font_1_49" transform="matrix(9.96264,0,0,-9.96264,45.95431,180.39402)"/>
<use data-text="&#x2212;" xlink:href="#font_2_1155" transform="matrix(7.47198,0,0,-7.47198,50.935995,176.40903)"/>
<use data-text="2" xlink:href="#font_2_51" transform="matrix(7.47198,0,0,-7.47198,56.0543,176.40903)"/>
<use data-text="1" xlink:href="#font_1_50" transform="matrix(9.96264,0,0,-9.96264,85.12599,180.39402)"/>
<use data-text="0" xlink:href="#font_1_49" transform="matrix(9.96264,0,0,-9.96264,90.107318,180.39402)"/>
<use data-text="&#x2212;" xlink:href="#font_2_1155" transform="matrix(7.47198,0,0,-7.47198,95.08799,176.40903)"/>
<use data-text="1" xlink:href="#font_2_50" transform="matrix(7.47198,0,0,-7.47198,100.2063,176.40903)"/>
<use data-text="1" xlink:href="#font_1_50" transform="matrix(9.96264,0,0,-9.96264,131.83699,180.39402)"/>
<use data-text="0" xlink:href="#font_1_49" transform="matrix(9.96264,0,0,-9.96264,136.81832,180.39402)"/>
<use data-text="0" xlink:href="#font_2_49" transform="matrix(7.47198,0,0,-7.47198,141.79999,176.40903)"/>
<use data-text="1" xlink:href="#font_1_50" transform="matrix(9.96264,0,0,-9.96264,175.98999,180.39402)"/>
<use data-text="0" xlink:href="#font_1_49" transform="matrix(9.96264,0,0,-9.96264,180.97132,180.39402)"/>
<use data-text="1" xlink:href="#font_2_50" transform="matrix(7.47198,0,0,-7.47198,185.95198,176.40903)"/>
<use data-text="1" xlink:href="#font_1_50" transform="matrix(9.96264,0,0,-9.96264,220.142,180.39402)"/>
<use data-text="0" xlink:href="#font_1_49" transform="matrix(9.96264,0,0,-9.96264,225.12332,180.39402)"/>
<use data-text="2" xlink:href="#font_2_51" transform="matrix(7.47198,0,0,-7.47198,230.105,176.40903)"/>
<use data-text="0" xlink:href="#font_1_49" transform="matrix(9.96264,0,0,-9.96264,21.54499,144.85901)"/>
<use data-text="." xlink:href="#font_1_47" transform="matrix(9.96264,0,0,-9.96264,26.52631,144.85901)"/>
<use data-text="4" xlink:href="#font_1_53" transform="matrix(9.96264,0,0,-9.96264,29.01697,144.85901)"/>
<use data-text="0" xlink:href="#font_1_49" transform="matrix(9.96264,0,0,-9.96264,21.54499,120.055)"/>
<use data-text="." xlink:href="#font_1_47" transform="matrix(9.96264,0,0,-9.96264,26.52631,120.055)"/>
<use data-text="6" xlink:href="#font_1_55" transform="matrix(9.96264,0,0,-9.96264,29.01697,120.055)"/>
<use data-text="0" xlink:href="#font_1_49" transform="matrix(9.96264,0,0,-9.96264,21.54499,95.171009)"/>
<use data-text="." xlink:href="#font_1_47" transform="matrix(9.96264,0,0,-9.96264,26.52631,95.171009)"/>
<use data-text="8" xlink:href="#font_1_57" transform="matrix(9.96264,0,0,-9.96264,29.01697,95.171009)"/>
<use data-text="1" xlink:href="#font_1_50" transform="matrix(9.96264,0,0,-9.96264,29.01699,70.395999)"/>
<use data-text="1" xlink:href="#font_1_50" transform="matrix(9.96264,0,0,-9.96264,21.54499,45.49701)"/>
<use data-text="." xlink:href="#font_1_47" transform="matrix(9.96264,0,0,-9.96264,26.52631,45.49701)"/>
<use data-text="2" xlink:href="#font_1_51" transform="matrix(9.96264,0,0,-9.96264,29.01697,45.49701)"/>
<use data-text="1" xlink:href="#font_1_50" transform="matrix(9.96264,0,0,-9.96264,21.54499,20.653)"/>
<use data-text="." xlink:href="#font_1_47" transform="matrix(9.96264,0,0,-9.96264,26.52631,20.653)"/>
<use data-text="4" xlink:href="#font_1_53" transform="matrix(9.96264,0,0,-9.96264,29.01697,20.653)"/>
<g clip-path="url(#clip_3)">
<path transform="matrix(1,0,0,-1,138.89099,163.585)" stroke-width=".59776" stroke-linecap="butt" stroke-miterlimit="10" stroke-linejoin="miter" fill="none" stroke="#0000ff" d="M-88.30597 154.05968-86.54015 153.1983-84.77364 152.31664-83.0085 151.4145-81.24199 150.49178-79.47551 149.54837-77.70967 148.58422-75.9452 147.59922-74.17737 146.59333-72.41153 145.56656-70.64505 144.51886-68.87921 143.45032-67.11272 142.36095-65.3469 141.25083-63.58308 140.12004-61.8166 138.96872-60.04875 137.79705-58.28224 136.60515-56.51576 135.39325-54.75128 134.1616-52.98343 132.91045-51.2203 131.64005-49.45247 130.35076-47.68597 129.04288-45.91946 127.7168-44.15298 126.37291-42.38715 125.01166-40.62065 123.63345-38.8555 122.23878-37.089 120.82814-35.32253 119.4021-33.55669 117.9611-31.7922 116.50584-30.02437 115.03685-28.25854 113.55473-26.49136 112.06015-24.72623 110.55373-22.95972 109.03616-21.19391 107.50815-19.4301 105.97038-17.66293 104.42358-15.8951 102.86847-14.12926 101.3058-12.36278 99.7363-10.5983 98.16077-8.83044 96.57993-7.06665 94.99457-5.29881 93.40549-3.53297 91.81343-1.76648 90.2192 0 88.62352 1.76514 87.0272 3.53163 85.431 5.29678 83.8357 7.06328 82.24203 8.82977 80.65076 10.59561 79.06262 12.36006 77.47832 14.12791 75.89857 15.89374 74.3241 17.6609 72.75555 19.42607 71.19362 21.19255 69.63896 22.95839 68.09221 24.72218 66.55396 26.48935 65.0248 28.2572 63.50536 30.02303 61.99617 31.78952 60.49774 33.55467 59.01059 35.32184 57.53525 37.08565 56.07217 38.85349 54.62177 40.61931 53.18451 42.3858 51.76077 44.15298 50.35095 45.91814 48.9554 47.68462 47.57443 49.44978 46.20839 51.21626 44.85751 52.98276 43.52214 54.7486 42.2025 56.51306 40.89876 58.28091 39.61116 60.04672 38.33992 61.8139 37.08513 63.57906 35.84698 65.34555 34.6256 67.11137 33.42105 68.87517 32.23347 70.64233 31.0629 72.41019 29.90938 74.17601 28.77296 75.9425 27.6537 77.70766 26.55153 79.47482 25.46648 81.23863 24.39854 83.00647 23.34764 84.77298 22.31378 86.53879 21.29683 88.30597 20.29677"/>
<path transform="matrix(1,0,0,-1,138.89099,163.585)" stroke-width=".59776" stroke-linecap="butt" stroke-miterlimit="10" stroke-linejoin="miter" fill="none" stroke="#ff0000" d="M-88.30597 124.00388-86.54015 123.64198-84.77364 123.2689-83.0085 122.88443-81.24199 122.48831-79.47551 122.08028-77.70967 121.6601-75.9452 121.22754-74.17737 120.78235-72.41153 120.3243-70.64505 119.85312-68.87921 119.36862-67.11272 118.87054-65.3469 118.3587-63.58308 117.83284-61.8166 117.29274-60.04875 116.73827-58.28224 116.16913-56.51576 115.58522-54.75128 114.98631-52.98343 114.37224-51.2203 113.74287-49.45247 113.09802-47.68597 112.43756-45.91946 111.76137-44.15298 111.0693-42.38715 110.36134-40.62065 109.63731-38.8555 108.89719-37.089 108.14091-35.32253 107.36842-33.55669 106.57973-31.7922 105.77481-30.02437 104.95366-28.25854 104.11636-26.49136 103.26292-24.72623 102.39343-22.95972 101.50798-21.19391 100.60667-19.4301 99.68964-17.66293 98.75703-15.8951 97.80904-14.12926 96.84586-12.36278 95.86766-10.5983 94.87473-8.83044 93.86732-7.06665 92.84569-5.29881 91.81017-3.53297 90.76108-1.76648 89.69872 0 88.62352 1.76514 87.5358 3.53163 86.436 5.29678 85.32454 7.06328 84.20184 8.82977 83.06839 10.59561 81.92462 12.36006 80.77107 14.12791 79.60822 15.89374 78.43654 17.6609 77.25665 19.42607 76.06903 21.19255 74.87427 22.95839 73.67293 24.72218 72.46556 26.48935 71.25276 28.2572 70.03511 30.02303 68.8132 31.78952 67.58765 33.55467 66.35904 35.32184 65.12798 37.08565 63.89505 38.85349 62.66087 40.61931 61.42604 42.3858 60.19115 44.15298 58.9568 45.91814 57.72356 47.68462 56.49202 49.44978 55.26273 51.21626 54.0363 52.98276 52.81325 54.7486 51.59413 56.51306 50.37947 58.28091 49.1698 60.04672 47.96562 61.8139 46.76744 63.57906 45.5757 65.34555 44.39091 67.11137 43.21349 68.87517 42.04387 70.64233 40.8825 72.41019 39.72977 74.17601 38.58604 75.9425 37.45169 77.70766 36.3271 79.47482 35.21255 81.23863 34.10838 83.00647 33.01491 84.77298 31.93237 86.53879 30.86107 88.30597 29.80125"/>
<path transform="matrix(1,0,0,-1,138.89099,163.585)" stroke-width=".59776" stroke-linecap="butt" stroke-miterlimit="10" stroke-linejoin="miter" fill="none" stroke="#008000" d="M-88.30597 83.01883-86.54015 82.63605-84.77364 82.24287-83.0085 81.83916-81.24199 81.42477-79.47551 80.99951-77.70967 80.56331-75.9452 80.11597-74.17737 79.65738-72.41153 79.18747-70.64505 78.70604-68.87921 78.21306-67.11272 77.70842-65.3469 77.192-63.58308 76.66377-61.8166 76.12363-60.04875 75.57152-58.28224 75.00743-56.51576 74.4313-54.75128 73.84314-52.98343 73.2429-51.2203 72.63063-49.45247 72.00632-47.68597 71.37-45.91946 70.72173-44.15298 70.06157-42.38715 69.38959-40.62065 68.70587-38.8555 68.01054-37.089 67.30371-35.32253 66.58553-33.55669 65.85616-31.7922 65.1157-30.02437 64.36441-28.25854 63.60245-26.49136 62.83005-24.72623 62.04744-22.95972 61.25485-21.19391 60.45256-19.4301 59.64082-17.66293 58.81996-15.8951 57.99025-14.12926 57.15201-12.36278 56.30559-10.5983 55.4513-8.83044 54.58951-7.06665 53.72058-5.29881 52.8449-3.53297 51.96284-1.76648 51.07484 0 50.18124 1.76514 49.2825 3.53163 48.37901 5.29678 47.47119 7.06328 46.55952 8.82977 45.64438 10.59561 44.72623 12.36006 43.80553 14.12791 42.88269 15.89374 41.95816 17.6609 41.0324 19.42607 40.10585 21.19255 39.17896 22.95839 38.25214 24.72218 37.32587 26.48935 36.40053 28.2572 35.47658 30.02303 34.55444 31.78952 33.63452 33.55467 32.71724 35.32184 31.803 37.08565 30.89217 38.85349 29.98514 40.61931 29.08229 42.3858 28.184 44.15298 27.2906 45.91814 26.40242 47.68462 25.51984 49.44978 24.64314 51.21626 23.77266 52.98276 22.90866 54.7486 22.05142 56.51306 21.20125 58.28091 20.35838 60.04672 19.52307 61.8139 18.69557 63.57906 17.87602 65.34555 17.06471 67.11137 16.26183 68.87517 15.4675 70.64233 14.68196 72.41019 13.9053 74.17601 13.1377 75.9425 12.3793 77.70766 11.63019 79.47482 10.89049 81.23863 10.1603 83.00647 9.43971 84.77298 8.72879 86.53879 8.02757 88.30597 7.33615"/>
</g>
<path transform="matrix(1,0,0,-1,138.89099,163.585)" stroke-width=".59776" stroke-linecap="butt" stroke-miterlimit="10" stroke-linejoin="miter" fill="none" stroke="#0000ff" d="M-91.2948 154.05968H-85.31714M-88.30597 157.04851V151.07085"/>
<path transform="matrix(1,0,0,-1,138.89099,163.585)" stroke-width=".59776" stroke-linecap="butt" stroke-miterlimit="10" stroke-linejoin="miter" fill="none" stroke="#0000ff" d="M-47.14182 126.37291H-41.16415M-44.15298 129.36174V123.38408"/>
<path transform="matrix(1,0,0,-1,138.89099,163.585)" stroke-width=".59776" stroke-linecap="butt" stroke-miterlimit="10" stroke-linejoin="miter" fill="none" stroke="#0000ff" d="M-2.98883 88.62352H2.98883M0 91.61235V85.63469"/>
<path transform="matrix(1,0,0,-1,138.89099,163.585)" stroke-width=".59776" stroke-linecap="butt" stroke-miterlimit="10" stroke-linejoin="miter" fill="none" stroke="#0000ff" d="M41.16415 50.35095H47.14182M44.15298 53.33978V47.36212"/>
<path transform="matrix(1,0,0,-1,138.89099,163.585)" stroke-width=".59776" stroke-linecap="butt" stroke-miterlimit="10" stroke-linejoin="miter" fill="none" stroke="#0000ff" d="M85.31714 20.29677H91.2948M88.30597 23.2856V17.30794"/>
<path transform="matrix(1,0,0,-1,138.89099,163.585)" stroke-width=".59776" stroke-linecap="butt" stroke-miterlimit="10" stroke-linejoin="miter" fill="none" stroke="#0000ff" d=""/>
<path transform="matrix(1,0,0,-1,138.89099,163.585)" d="M-88.30597 126.9927-86.06435 124.00388-88.30597 121.01505-90.54759 124.00388Z" fill="#ff0000"/>
<path transform="matrix(1,0,0,-1,138.89099,163.585)" stroke-width=".59776" stroke-linecap="butt" stroke-miterlimit="10" stroke-linejoin="miter" fill="none" stroke="#ff0000" d="M-88.30597 126.9927-86.06435 124.00388-88.30597 121.01505-90.54759 124.00388Z"/>
<path transform="matrix(1,0,0,-1,138.89099,163.585)" d="M-44.15298 114.05814-41.91136 111.0693-44.15298 108.08047-46.3946 111.0693Z" fill="#ff0000"/>
<path transform="matrix(1,0,0,-1,138.89099,163.585)" stroke-width=".59776" stroke-linecap="butt" stroke-miterlimit="10" stroke-linejoin="miter" fill="none" stroke="#ff0000" d="M-44.15298 114.05814-41.91136 111.0693-44.15298 108.08047-46.3946 111.0693Z"/>
<path transform="matrix(1,0,0,-1,138.89099,163.585)" d="M0 91.61235 2.24162 88.62352 0 85.63469-2.24162 88.62352Z" fill="#ff0000"/>
<path transform="matrix(1,0,0,-1,138.89099,163.585)" stroke-width=".59776" stroke-linecap="butt" stroke-miterlimit="10" stroke-linejoin="miter" fill="none" stroke="#ff0000" d="M0 91.61235 2.24162 88.62352 0 85.63469-2.24162 88.62352Z"/>
<path transform="matrix(1,0,0,-1,138.89099,163.585)" d="M44.15298 61.94563 46.3946 58.9568 44.15298 55.96797 41.91136 58.9568Z" fill="#ff0000"/>
<path transform="matrix(1,0,0,-1,138.89099,163.585)" stroke-width=".59776" stroke-linecap="butt" stroke-miterlimit="10" stroke-linejoin="miter" fill="none" stroke="#ff0000" d="M44.15298 61.94563 46.3946 58.9568 44.15298 55.96797 41.91136 58.9568Z"/>
<path transform="matrix(1,0,0,-1,138.89099,163.585)" d="M88.30597 32.79008 90.54759 29.80125 88.30597 26.81242 86.06435 29.80125Z" fill="#ff0000"/>
<path transform="matrix(1,0,0,-1,138.89099,163.585)" stroke-width=".59776" stroke-linecap="butt" stroke-miterlimit="10" stroke-linejoin="miter" fill="none" stroke="#ff0000" d="M88.30597 32.79008 90.54759 29.80125 88.30597 26.81242 86.06435 29.80125Z"/>
<path transform="matrix(1,0,0,-1,138.89099,163.585)" stroke-width=".59776" stroke-linecap="butt" stroke-miterlimit="10" stroke-linejoin="miter" fill="none" stroke="#ff0000" d=""/>
<path transform="matrix(1,0,0,-1,138.89099,163.585)" d="M-85.31714 83.01883C-85.31714 84.66954-86.65527 86.00766-88.30597 86.00766-89.95668 86.00766-91.2948 84.66954-91.2948 83.01883-91.2948 81.36812-89.95668 80.03-88.30597 80.03-86.65527 80.03-85.31714 81.36812-85.31714 83.01883ZM-88.30597 83.01883" fill="#008000"/>
<path transform="matrix(1,0,0,-1,138.89099,163.585)" stroke-width=".59776" stroke-linecap="butt" stroke-miterlimit="10" stroke-linejoin="miter" fill="none" stroke="#008000" d="M-85.31714 83.01883C-85.31714 84.66954-86.65527 86.00766-88.30597 86.00766-89.95668 86.00766-91.2948 84.66954-91.2948 83.01883-91.2948 81.36812-89.95668 80.03-88.30597 80.03-86.65527 80.03-85.31714 81.36812-85.31714 83.01883ZM-88.30597 83.01883"/>
<path transform="matrix(1,0,0,-1,138.89099,163.585)" d="M-41.16415 70.06157C-41.16415 71.71227-42.50227 73.0504-44.15298 73.0504-45.8037 73.0504-47.14182 71.71227-47.14182 70.06157-47.14182 68.41086-45.8037 67.07274-44.15298 67.07274-42.50227 67.07274-41.16415 68.41086-41.16415 70.06157ZM-44.15298 70.06157" fill="#008000"/>
<path transform="matrix(1,0,0,-1,138.89099,163.585)" stroke-width=".59776" stroke-linecap="butt" stroke-miterlimit="10" stroke-linejoin="miter" fill="none" stroke="#008000" d="M-41.16415 70.06157C-41.16415 71.71227-42.50227 73.0504-44.15298 73.0504-45.8037 73.0504-47.14182 71.71227-47.14182 70.06157-47.14182 68.41086-45.8037 67.07274-44.15298 67.07274-42.50227 67.07274-41.16415 68.41086-41.16415 70.06157ZM-44.15298 70.06157"/>
<path transform="matrix(1,0,0,-1,138.89099,163.585)" d="M2.98883 50.18124C2.98883 51.83194 1.6507 53.17007 0 53.17007-1.6507 53.17007-2.98883 51.83194-2.98883 50.18124-2.98883 48.53053-1.6507 47.19241 0 47.19241 1.6507 47.19241 2.98883 48.53053 2.98883 50.18124ZM0 50.18124" fill="#008000"/>
<path transform="matrix(1,0,0,-1,138.89099,163.585)" stroke-width=".59776" stroke-linecap="butt" stroke-miterlimit="10" stroke-linejoin="miter" fill="none" stroke="#008000" d="M2.98883 50.18124C2.98883 51.83194 1.6507 53.17007 0 53.17007-1.6507 53.17007-2.98883 51.83194-2.98883 50.18124-2.98883 48.53053-1.6507 47.19241 0 47.19241 1.6507 47.19241 2.98883 48.53053 2.98883 50.18124ZM0 50.18124"/>
<path transform="matrix(1,0,0,-1,138.89099,163.585)" d="M47.14182 27.2906C47.14182 28.9413 45.8037 30.27943 44.15298 30.27943 42.50227 30.27943 41.16415 28.9413 41.16415 27.2906 41.16415 25.6399 42.50227 24.30177 44.15298 24.30177 45.8037 24.30177 47.14182 25.6399 47.14182 27.2906ZM44.15298 27.2906" fill="#008000"/>
<path transform="matrix(1,0,0,-1,138.89099,163.585)" stroke-width=".59776" stroke-linecap="butt" stroke-miterlimit="10" stroke-linejoin="miter" fill="none" stroke="#008000" d="M47.14182 27.2906C47.14182 28.9413 45.8037 30.27943 44.15298 30.27943 42.50227 30.27943 41.16415 28.9413 41.16415 27.2906 41.16415 25.6399 42.50227 24.30177 44.15298 24.30177 45.8037 24.30177 47.14182 25.6399 47.14182 27.2906ZM44.15298 27.2906"/>
<path transform="matrix(1,0,0,-1,138.89099,163.585)" d="M91.2948 7.33615C91.2948 8.98686 89.95668 10.32498 88.30597 10.32498 86.65527 10.32498 85.31714 8.98686 85.31714 7.33615 85.31714 5.68544 86.65527 4.34732 88.30597 4.34732 89.95668 4.34732 91.2948 5.68544 91.2948 7.33615ZM88.30597 7.33615" fill="#008000"/>
<path transform="matrix(1,0,0,-1,138.89099,163.585)" stroke-width=".59776" stroke-linecap="butt" stroke-miterlimit="10" stroke-linejoin="miter" fill="none" stroke="#008000" d="M91.2948 7.33615C91.2948 8.98686 89.95668 10.32498 88.30597 10.32498 86.65527 10.32498 85.31714 8.98686 85.31714 7.33615 85.31714 5.68544 86.65527 4.34732 88.30597 4.34732 89.95668 4.34732 91.2948 5.68544 91.2948 7.33615ZM88.30597 7.33615"/>
<path transform="matrix(1,0,0,-1,138.89099,163.585)" stroke-width=".59776" stroke-linecap="butt" stroke-miterlimit="10" stroke-linejoin="miter" fill="none" stroke="#008000" d=""/>
<use data-text="&#x1d712;" xlink:href="#font_1_3184" transform="matrix(9.96264,0,0,-9.96264,84.953998,203.43302)"/>
<use data-text="=" xlink:href="#font_1_62" transform="matrix(9.96264,0,0,-9.96264,94.538059,203.43302)"/>
<use data-text="&#x1d438;" xlink:href="#font_1_2480" transform="matrix(9.96264,0,0,-9.96264,105.33299,196.15003)"/>
<use data-text="1" xlink:href="#font_2_50" transform="matrix(7.47198,0,0,-7.47198,112.44699,198.64102)"/>
<path transform="matrix(1,0,0,-1,105.33299,200.94202)" stroke-width=".658" stroke-linecap="butt" stroke-miterlimit="10" stroke-linejoin="miter" fill="none" stroke="#000000" d="M0 0H11.258"/>
<use data-text="&#x1d438;" xlink:href="#font_1_2480" transform="matrix(9.96264,0,0,-9.96264,105.33299,210.40602)"/>
<use data-text="2" xlink:href="#font_2_51" transform="matrix(7.47198,0,0,-7.47198,112.44699,212.89702)"/>
<use data-text="=" xlink:href="#font_1_62" transform="matrix(9.96264,0,0,-9.96264,120.55399,203.43302)"/>
<use data-text="&#x1d438;" xlink:href="#font_1_2480" transform="matrix(9.96264,0,0,-9.96264,131.341,196.15003)"/>
<use data-text="1" xlink:href="#font_2_50" transform="matrix(7.47198,0,0,-7.47198,138.45398,198.64102)"/>
<path transform="matrix(1,0,0,-1,131.341,200.94202)" stroke-width=".658" stroke-linecap="butt" stroke-miterlimit="10" stroke-linejoin="miter" fill="none" stroke="#000000" d="M0 0H11.258"/>
<use data-text="&#x1d438;" xlink:href="#font_1_2480" transform="matrix(9.96264,0,0,-9.96264,131.341,210.40602)"/>
<use data-text="3" xlink:href="#font_2_52" transform="matrix(7.47198,0,0,-7.47198,138.45398,212.89702)"/>
<use data-text="=" xlink:href="#font_1_62" transform="matrix(9.96264,0,0,-9.96264,146.56198,203.43302)"/>
<use data-text="(" xlink:href="#font_1_3733" transform="matrix(9.96264,0,0,-9.96264,156.15299,209.27101)"/>
<use data-text="&#x1d43a;" xlink:href="#font_1_2482" transform="matrix(9.96264,0,0,-9.96264,164.82099,196.04502)"/>
<use data-text="3" xlink:href="#font_2_52" transform="matrix(7.47198,0,0,-7.47198,172.134,198.53601)"/>
<use data-text="1" xlink:href="#font_2_50" transform="matrix(7.47198,0,0,-7.47198,175.87,198.53601)"/>
<path transform="matrix(1,0,0,-1,164.82099,200.94202)" stroke-width=".658" stroke-linecap="butt" stroke-miterlimit="10" stroke-linejoin="miter" fill="none" stroke="#000000" d="M0 0H15.193"/>
<use data-text="&#x1d43a;" xlink:href="#font_1_2482" transform="matrix(9.96264,0,0,-9.96264,164.82099,210.40602)"/>
<use data-text="2" xlink:href="#font_2_51" transform="matrix(7.47198,0,0,-7.47198,172.134,212.89702)"/>
<use data-text="3" xlink:href="#font_2_52" transform="matrix(7.47198,0,0,-7.47198,175.87,212.89702)"/>
<use data-text=")" xlink:href="#font_1_3734" transform="matrix(9.96264,0,0,-9.96264,181.20899,209.27101)"/>
<use data-text="2" xlink:href="#font_2_51" transform="matrix(7.47198,0,0,-7.47198,188.681,192.42401)"/>
<use data-text="n" xlink:href="#font_4_79" transform="matrix(0,-9.96264,-9.96264,-0,12.117989,112.63901)"/>
<use data-text="o" xlink:href="#font_4_80" transform="matrix(0,-9.96264,-9.96264,-0,12.117989,107.657688)"/>
<use data-text="r" xlink:href="#font_4_83" transform="matrix(0,-9.96264,-9.96264,-0,12.117989,102.67636)"/>
<use data-text="m" xlink:href="#font_4_78" transform="matrix(0,-9.96264,-9.96264,-0,12.117989,99.15955)"/>
<use data-text="a" xlink:href="#font_4_66" transform="matrix(0,-9.96264,-9.96264,-0,12.117989,91.408618)"/>
<use data-text="l" xlink:href="#font_4_77" transform="matrix(0,-9.96264,-9.96264,-0,12.117989,86.98521)"/>
<use data-text="i" xlink:href="#font_4_74" transform="matrix(0,-9.96264,-9.96264,-0,12.117989,84.21559)"/>
<use data-text="z" xlink:href="#font_4_91" transform="matrix(0,-9.96264,-9.96264,-0,12.117989,81.44598)"/>
<use data-text="e" xlink:href="#font_4_70" transform="matrix(0,-9.96264,-9.96264,-0,12.117989,77.02257)"/>
<use data-text="d" xlink:href="#font_4_69" transform="matrix(0,-9.96264,-9.96264,-0,12.117989,72.59915)"/>
<use data-text="&#x1d435;" xlink:href="#font_1_2477" transform="matrix(0,-9.96264,-9.96264,-0,12.117989,65.128009)"/>
<use data-text="&#x1d456;" xlink:href="#font_2_2509" transform="matrix(0,-7.47198,-7.47198,-0,14.608994,58.194)"/>
<use data-text="&#x1d456;" xlink:href="#font_2_2509" transform="matrix(0,-7.47198,-7.47198,-0,14.608994,55.870218)"/>
<path transform="matrix(1,0,0,-1,138.89099,163.585)" d="M24.66963 117.72858H93.05021V157.96799H24.66963Z" fill="#ffffff" fill-opacity=".8"/>
<path transform="matrix(1,0,0,-1,138.89099,163.585)" stroke-width=".3985" stroke-linecap="butt" stroke-miterlimit="10" stroke-linejoin="miter" fill="none" stroke="#cccccc" d="M24.66963 117.72858H93.05021V157.96799H24.66963Z"/>
<path transform="matrix(1,0,0,-1,166.84799,13.6790089)" stroke-width=".59776" stroke-linecap="butt" stroke-miterlimit="10" stroke-linejoin="miter" fill="none" stroke="#0000ff" d="M0 0H8.50412 17.00826"/>
<path transform="matrix(1,0,0,-1,166.84799,13.6790089)" stroke-width=".59776" stroke-linecap="butt" stroke-miterlimit="10" stroke-linejoin="miter" fill="none" stroke="#0000ff" d="M5.51529 0H11.49295M8.50412 2.98883V-2.98883"/>
<use data-text="&#x1d435;" xlink:href="#font_1_2477" transform="matrix(9.96264,0,0,-9.96264,186.14699,16.259003)"/>
<use data-text="1" xlink:href="#font_2_50" transform="matrix(7.47198,0,0,-7.47198,193.08098,18.75)"/>
<use data-text="1" xlink:href="#font_2_50" transform="matrix(7.47198,0,0,-7.47198,196.81697,18.75)"/>
<use data-text="&#x00d7;" xlink:href="#font_1_183" transform="matrix(9.96264,0,0,-9.96264,203.17499,16.259003)"/>
<use data-text="&#x1d43a;" xlink:href="#font_1_2482" transform="matrix(9.96264,0,0,-9.96264,211.76277,16.259003)"/>
<use data-text="3" xlink:href="#font_2_52" transform="matrix(7.47198,0,0,-7.47198,219.07799,18.75)"/>
<use data-text="1" xlink:href="#font_2_50" transform="matrix(7.47198,0,0,-7.47198,222.81398,18.75)"/>
<path transform="matrix(1,0,0,-1,166.84799,25.814009)" stroke-width=".59776" stroke-linecap="butt" stroke-miterlimit="10" stroke-linejoin="miter" fill="none" stroke="#ff0000" d="M0 0H8.50412 17.00826"/>
<path transform="matrix(1,0,0,-1,166.84799,25.814009)" d="M8.50412 2.98883 10.74574 0 8.50412-2.98883 6.2625 0Z" fill="#ff0000" fill-opacity=".8"/>
<path transform="matrix(1,0,0,-1,166.84799,25.814009)" stroke-width=".59776" stroke-linecap="butt" stroke-miterlimit="10" stroke-linejoin="miter" fill="none" stroke="#ff0000" d="M8.50412 2.98883 10.74574 0 8.50412-2.98883 6.2625 0Z"/>
<use data-text="&#x1d435;" xlink:href="#font_1_2477" transform="matrix(9.96264,0,0,-9.96264,186.14699,28.394013)"/>
<use data-text="2" xlink:href="#font_2_51" transform="matrix(7.47198,0,0,-7.47198,193.08098,30.885025)"/>
<use data-text="2" xlink:href="#font_2_51" transform="matrix(7.47198,0,0,-7.47198,196.81697,30.885025)"/>
<use data-text="&#x00d7;" xlink:href="#font_1_183" transform="matrix(9.96264,0,0,-9.96264,203.17499,28.394013)"/>
<use data-text="&#x1d43a;" xlink:href="#font_1_2482" transform="matrix(9.96264,0,0,-9.96264,211.76277,28.394013)"/>
<use data-text="2" xlink:href="#font_2_51" transform="matrix(7.47198,0,0,-7.47198,219.07799,30.885025)"/>
<use data-text="3" xlink:href="#font_2_52" transform="matrix(7.47198,0,0,-7.47198,222.81398,30.885025)"/>
<path transform="matrix(1,0,0,-1,166.84799,37.87301)" stroke-width=".59776" stroke-linecap="butt" stroke-miterlimit="10" stroke-linejoin="miter" fill="none" stroke="#008000" d="M0 0H8.50412 17.00826"/>
<path transform="matrix(1,0,0,-1,166.84799,37.87301)" d="M11.49295 0C11.49295 1.6507 10.15482 2.98883 8.50412 2.98883 6.85341 2.98883 5.51529 1.6507 5.51529 0 5.51529-1.6507 6.85341-2.98883 8.50412-2.98883 10.15482-2.98883 11.49295-1.6507 11.49295 0ZM8.50412 0" fill="#008000" fill-opacity=".8"/>
<path transform="matrix(1,0,0,-1,166.84799,37.87301)" stroke-width=".59776" stroke-linecap="butt" stroke-miterlimit="10" stroke-linejoin="miter" fill="none" stroke="#008000" d="M11.49295 0C11.49295 1.6507 10.15482 2.98883 8.50412 2.98883 6.85341 2.98883 5.51529 1.6507 5.51529 0 5.51529-1.6507 6.85341-2.98883 8.50412-2.98883 10.15482-2.98883 11.49295-1.6507 11.49295 0ZM8.50412 0"/>
<use data-text="&#x1d435;" xlink:href="#font_1_2477" transform="matrix(9.96264,0,0,-9.96264,186.14699,40.379014)"/>
<use data-text="3" xlink:href="#font_2_52" transform="matrix(7.47198,0,0,-7.47198,193.08098,42.87001)"/>
<use data-text="3" xlink:href="#font_2_52" transform="matrix(7.47198,0,0,-7.47198,196.81697,42.87001)"/>
<use data-text="&#x00d7;" xlink:href="#font_1_183" transform="matrix(9.96264,0,0,-9.96264,203.17499,40.379014)"/>
<use data-text="&#x1d438;" xlink:href="#font_1_2480" transform="matrix(9.96264,0,0,-9.96264,211.76277,40.379014)"/>
<use data-text="3" xlink:href="#font_2_52" transform="matrix(7.47198,0,0,-7.47198,218.87899,42.87001)"/>
</svg>
