<svg xmlns="http://www.w3.org/2000/svg" xmlns:xlink="http://www.w3.org/1999/xlink" xmlns:inkscape="http://www.inkscape.org/namespaces/inkscape" version="1.1" width="266.302" height="165.321" viewBox="0 0 266.302 165.321">
<defs>
<path id="font_1_51" d="M.47399903 .13696289 .45999146 .1429596C.4269867 .08699036 .4059906 .07598877 .3639984 .07598877H.12998963L.29499818 .2519226C.38398744 .34588624 .4229889 .42085267 .4229889 .4998169 .4229889 .59877017 .35099793 .67578127 .23799134 .67578127 .114990238 .67578127 .050994874 .5937805 .02999878 .4768219L.050994874 .47183229C.09098816 .5697937 .12599182 .6017761 .19799805 .6017761 .2829895 .6017761 .33699037 .55178835 .33699037 .4608307 .33699037 .37586976 .30099488 .29989625 .20698548 .200943L.0289917 .011993408V0H.41999818L.47399903 .13696289Z"/>
<path id="font_1_53" d="M.2919922 .23098755H.051986696L.2919922 .573822V.23098755M.47299195 .16699219V.23098755H.36999513V.67578127H.32598878L.011993408 .23098755V.16699219H.2919922V0H.36999513V.16699219H.47299195Z"/>
<path id="font_1_55" d="M.37799073 .18850708C.37799073 .08639526 .34098817 .014328003 .2689972 .014328003 .1749878 .014328003 .1269989 .11442566 .1269989 .2665863 .1269989 .3586731 .18598938 .3827057 .24299622 .3827057 .33599855 .3827057 .37799073 .31663514 .37799073 .18850708M.44599916 .68470767C.30799867 .66970828 .22898865 .6457062 .14299011 .55570986 .07199097 .48269654 .033996583 .38771058 .033996583 .27960206 .033996583 .20951844 .052993776 .138443 .08099365 .087402347 .115997318 .023330689 .1789856-.013671875 .2579956-.013671875 .32398988-.013671875 .37998963 .013320923 .4169922 .05937195 .44999696 .09941101 .46798707 .1554718 .46798707 .2195282 .46798707 .34866334 .3959961 .42871095 .2789917 .42871095 .23498535 .42871095 .20098877 .42170716 .1519928 .3836975 .1789856 .5346985 .29100038 .6427002 .44799806 .6687012L.44599916 .68470767Z"/>
<path id="font_1_57" d="M.2709961 .27209474C.33898927 .22613526 .36898805 .18617249 .36898805 .1242218 .36898805 .059280397 .32398988 .014328003 .25898744 .014328003 .18299866 .014328003 .13198853 .06626892 .13198853 .15820313 .13198853 .22314453 .15299988 .26409913 .21199036 .3120575L.2709961 .27209474M.35499574 .53286746C.35499574 .470932 .32899476 .42897035 .26098634 .3889923 .17298889 .4409485 .13598633 .48690797 .13598633 .54885867 .13598633 .6108093 .1789856 .6477661 .24598694 .6477661 .31399537 .6477661 .35499574 .60180667 .35499574 .53286746M.44499208 .15519715C.44499208 .23512268 .41299439 .28907777 .2899933 .37101747 .3889923 .42396546 .42399598 .45793153 .42399598 .53286746 .42399598 .6108093 .35499574 .67578127 .2559967 .67578127 .14498902 .67578127 .06199646 .61579897 .06199646 .5198822 .06199646 .4549408 .08299255 .41697694 .18598938 .3320465 .07899475 .2571106 .055999757 .21813965 .055999757 .14920044 .055999757 .055282594 .1349945-.013671875 .24798584-.013671875 .36799623-.013671875 .44499208 .05229187 .44499208 .15519715Z"/>
<path id="font_1_50" d="M.3939972 0V.01499939C.31900025 .01499939 .29899598 .032989503 .29899598 .07597351V.67277529L.2899933 .67578127 .11099243 .5847931V.5708008L.13798523 .5807953C.1559906 .5877991 .17298889 .59280398 .18299866 .59280398 .20399475 .59280398 .21299744 .57780459 .21299744 .543808V.0949707C.21299744 .039978029 .19198609 .018997193 .117996219 .01499939V0H.3939972Z"/>
<path id="font_1_49" d="M.37998963 .32505799C.37998963 .12722779 .33499146 .012313843 .25 .012313843 .1639862 .012313843 .11999512 .1262207 .11999512 .32904054 .11999512 .5318756 .16499329 .6497803 .24798584 .6497803 .33599855 .6497803 .37998963 .53286746 .37998963 .32505799M.47599793 .3300476C.47599793 .53486636 .3849945 .67578127 .2539978 .67578127 .09298706 .67578127 .023986817 .5128937 .023986817 .3360443 .023986817 .17218018 .07899475-.013671875 .25-.013671875 .41299439-.013671875 .47599793 .15818787 .47599793 .3300476Z"/>
<path id="font_1_52" d="M.06098938 .50987246C.101989749 .58380129 .147995 .61576846 .20999146 .61576846 .27598573 .61576846 .31799317 .58180239 .31799317 .51387026 .31799317 .45292665 .28599549 .40795899 .23699951 .37998963 .21699524 .36799623 .19099427 .3570099 .15299988 .34402467V.33003236C.20999146 .33003236 .23298645 .32704164 .25498963 .3200531 .32398988 .3000641 .35899354 .2511139 .35899354 .17518616 .35899354 .09025574 .30299378 .022323609 .22898865 .022323609 .20098877 .022323609 .17999268 .027313233 .14299011 .05329895 .114990238 .073272708 .09899902 .07926941 .08198547 .07926941 .05899048 .07926941 .040985109 .06428528 .040985109 .043304445 .040985109 .0073242189 .07998657-.013671875 .15299988-.013671875 .24198914-.013671875 .33699037 .015319824 .3849945 .07926941 .4139862 .11723328 .43099977 .16618347 .43099977 .21913147 .43099977 .27108766 .4149933 .31704713 .3869934 .34802247 .3659973 .36999513 .34799195 .38198854 .3039856 .40097047 .37098695 .44093324 .39698792 .4908905 .39698792 .5388489 .39698792 .6207733 .33399964 .67578127 .24099732 .67578127 .13699341 .67578127 .07398987 .6087799 .04499817 .51387026L.06098938 .50987246Z"/>
<clipPath id="clip_2">
<path transform="matrix(1,0,0,-1,33.985,129.21701)" d="M0 0H230.1289V127.02647H0Z"/>
</clipPath>
<path id="font_1_2480" d="M.73399356 .653183H.19999695L.19599915 .6371765H.21499634C.27398683 .6371765 .2899933 .6261749 .2899933 .60217288 .2899933 .59516909 .2889862 .5841522 .2849884 .56614688L.16499329 .07798767C.15699768 .04399109 .13398743 .015991211 .06098938 .015991211H.041992189L.037994386 0H.60899356L.6749878 .19799805H.6589966C.6159973 .084991458 .55999758 .037994386 .4019928 .037994386H.33499146C.28799439 .037994386 .27198792 .04899597 .27198792 .06498718 .27198792 .067993167 .272995 .070999149 .27398683 .07499695L.33999635 .3330078H.42999269C.46099855 .3330078 .5019989 .32899476 .5019989 .28199769 .5019989 .2649994 .49699403 .23500061 .49598695 .22200012H.5130005L.57099917 .46406556H.5549927C.5329895 .38200379 .4889984 .3690033 .42900086 .3690033H.34899903L.40899659 .6171875H.56900027C.6199951 .6171875 .6749878 .60417178 .6779938 .53012087 .6779938 .519104 .6769867 .5081024 .6759949 .49508668H.69200137L.73399356 .653183Z"/>
<path id="font_3_51" d="M.47399903 .13696289 .45999146 .1429596C.4269867 .08699036 .4059906 .07598877 .3639984 .07598877H.12998963L.29499818 .2519226C.38398744 .34588624 .4229889 .42085267 .4229889 .4998169 .4229889 .59877017 .35099793 .67578127 .23799134 .67578127 .114990238 .67578127 .050994874 .5937805 .02999878 .4768219L.050994874 .47183229C.09098816 .5697937 .12599182 .6017761 .19799805 .6017761 .2829895 .6017761 .33699037 .55178835 .33699037 .4608307 .33699037 .37586976 .30099488 .29989625 .20698548 .200943L.0289917 .011993408V0H.41999818L.47399903 .13696289Z"/>
<path id="font_1_48" d="M.2869873 .67578127H.21998596L-.009002686-.013671875H.05899048L.2869873 .67578127Z"/>
<path id="font_3_50" d="M.3939972 0V.01499939C.31900025 .01499939 .29899598 .032989503 .29899598 .07597351V.67277529L.2899933 .67578127 .11099243 .5847931V.5708008L.13798523 .5807953C.1559906 .5877991 .17298889 .59280398 .18299866 .59280398 .20399475 .59280398 .21299744 .57780459 .21299744 .543808V.0949707C.21299744 .039978029 .19198609 .018997193 .117996219 .01499939V0H.3939972Z"/>
<path id="font_1_62" d="M.6369934 .12011719V.18611145H.04798889V.12011719H.6369934M.6369934 .31973268V.3857422H.04798889V.31973268H.6369934Z"/>
<path id="font_1_3165" d="M.35099793 .26913453C.35099793 .17417908 .27799989 .018249512 .18798828 .018249512 .14498902 .018249512 .117996219 .06523132 .117996219 .12020874 .117996219 .20915222 .21099854 .3690796 .29699708 .3690796 .33599855 .3690796 .35099793 .31311036 .35099793 .26913453M.45098878 .6079712C.45098878 .6519623 .3919983 .66796877 .34199525 .66796877 .27598573 .66796877 .1749878 .6259613 .1749878 .53001406 .1749878 .47602845 .23298645 .4450531 .2789917 .3990631 .13899231 .3850708 .039993287 .2531433 .039993287 .13420105 .039993287 .054229738 .08898926-.0107421879 .18598938-.0107421879 .30099488-.0107421879 .38198854 .069229129 .4169922 .15518189 .42999269 .18817139 .43499757 .23414612 .43499757 .26713563 .43499757 .4080658 .21099854 .4650421 .21099854 .55999758 .21099854 .5979767 .2630005 .6269684 .30099488 .6269684 .3919983 .6269684 .33799745 .56199648 .40499879 .56199648 .43598939 .56199648 .45098878 .5869751 .45098878 .6079712Z"/>
<path id="font_1_183" d="M.5970001 .021987915 .36698915 .2519989 .5970001 .48399354 .5509949 .5289917 .31999208 .29899598 .08999634 .5289917 .042999269 .48298646 .272995 .2519989 .042999269 .020996094 .08898926-.025009156 .31999208 .20498657 .5509949-.025009156 .5970001 .021987915Z"/>
<path id="font_1_2477" d="M.33799745 .3143463C.35299684 .31835938 .37298585 .31835938 .3889923 .31835938 .46699525 .31835938 .5309906 .28330995 .5309906 .21022034 .5309906 .08004761 .43499757 .037994386 .34098817 .037994386 .31498719 .037994386 .29499818 .039993287 .269989 .04699707L.33799745 .3143463M.4059906 .61125186C.4189911 .61325076 .43399049 .6142578 .44898988 .6142578 .5029907 .6142578 .56799319 .5932617 .56799319 .5162964 .56799319 .41932679 .5119934 .35334779 .3999939 .35334779 .3849945 .35334779 .36698915 .35534669 .34700013 .35934449L.4059906 .61125186M.19799805 .653244 .19299317 .6372528H.21199036C.2709961 .6372528 .2899933 .62124636 .2899933 .5952606 .2899933 .5892639 .2889862 .5792694 .28799439 .5742645L.16499329 .07904053C.15699768 .04499817 .13798523 .015991211 .06199646 .015991211H.041992189L.037994386 0H.3619995C.56900027 0 .651001 .094070438 .651001 .19319153 .651001 .27830506 .58399966 .32035829 .5239868 .3313446L.5209961 .33535768C.54100039 .3403473 .56999209 .34835816 .59498599 .36134339 .6429901 .38534547 .6859894 .43032838 .6859894 .5082855 .6859894 .6442566 .5339966 .653244 .44999696 .653244H.19799805Z"/>
<path id="font_3_2509" d="M.22698975 .4412079 .068984989 .41921998 .07199097 .4032135C.07899475 .4052124 .09098816 .4072113 .099990848 .4072113 .12298584 .4072113 .1309967 .40222169 .1309967 .3852234 .1309967 .3822174 .12998963 .37521363 .1289978 .37321473 .049987794 .0662384 .049987794 .04724121 .049987794 .035247804 .049987794 .008255005 .06199646-.0107421879 .08999634-.0107421879 .13899231-.0107421879 .18899536 .049240114 .22399903 .09423828L.21099854 .10424805C.1749878 .06524658 .16899109 .053253175 .14698792 .053253175 .13999939 .053253175 .13398743 .056243898 .13398743 .06324768 .13398743 .06724548 .13398743 .071243289 .1349945 .07723999L.22698975 .4412079M.25698854 .5662079C.25698854 .5912018 .23498535 .61621096 .20899964 .61621096 .17999268 .61621096 .16099549 .5912018 .16099549 .5662079 .16099549 .5402069 .17999268 .52020266 .20899964 .52020266 .23498535 .52020266 .25698854 .5402069 .25698854 .5662079Z"/>
<path id="font_4_52" d="M.06098938 .50987246C.101989749 .58380129 .147995 .61576846 .20999146 .61576846 .27598573 .61576846 .31799317 .58180239 .31799317 .51387026 .31799317 .45292665 .28599549 .40795899 .23699951 .37998963 .21699524 .36799623 .19099427 .3570099 .15299988 .34402467V.33003236C.20999146 .33003236 .23298645 .32704164 .25498963 .3200531 .32398988 .3000641 .35899354 .2511139 .35899354 .17518616 .35899354 .09025574 .30299378 .022323609 .22898865 .022323609 .20098877 .022323609 .17999268 .027313233 .14299011 .05329895 .114990238 .073272708 .09899902 .07926941 .08198547 .07926941 .05899048 .07926941 .040985109 .06428528 .040985109 .043304445 .040985109 .0073242189 .07998657-.013671875 .15299988-.013671875 .24198914-.013671875 .33699037 .015319824 .3849945 .07926941 .4139862 .11723328 .43099977 .16618347 .43099977 .21913147 .43099977 .27108766 .4149933 .31704713 .3869934 .34802247 .3659973 .36999513 .34799195 .38198854 .3039856 .40097047 .37098695 .44093324 .39698792 .4908905 .39698792 .5388489 .39698792 .6207733 .33399964 .67578127 .24099732 .67578127 .13699341 .67578127 .07398987 .6087799 .04499817 .51387026L.06098938 .50987246Z"/>
<path id="font_1_41" d="M.3039856-.16122437C.1639862-.04423523 .13398743 .06877136 .13398743 .254776 .13398743 .44776917 .16499329 .5407715 .3039856 .6597748L.29499818 .67578127C.1349945 .58078 .04798889 .43676759 .04798889 .25177003 .04798889 .08177185 .13398743-.0872345 .2919922-.17723084L.3039856-.16122437Z"/>
<path id="font_1_3174" d="M.44400025 .4461975C.4099884 .3242035 .34700013 .1742096 .23799134 .09120178L.17799378 .4412079C.13999939 .4302063 .12098694 .4212036 .049987794 .41819764V.40220643H.06599426C.08999634 .40220643 .10499573 .39219667 .10998535 .36019898L.17199707-.0087890629H.19299317C.34899903 .09820557 .44400025 .26519776 .46199037 .4412079L.44400025 .4461975Z"/>
<path id="font_1_47" d="M.18099976 .04324341C.18099976 .07325745 .15499878 .100250247 .12599182 .100250247 .09498596 .100250247 .069992069 .07525635 .069992069 .04425049 .069992069 .013244629 .09399414-.0107421879 .125-.0107421879 .15499878-.0107421879 .18099976 .014251709 .18099976 .04324341Z"/>
<path id="font_1_42" d="M.0289917 .6597748C.17399597 .54577639 .19898987 .43077088 .19898987 .24377442 .19898987 .04977417 .17098999-.04423523 .0289917-.16122437L.037994386-.17723084C.19699097-.08023071 .2849884 .061767579 .2849884 .24676514 .2849884 .41677857 .19400025 .58377078 .040985109 .67578127L.0289917 .6597748Z"/>
<path id="font_4_51" d="M.47399903 .13696289 .45999146 .1429596C.4269867 .08699036 .4059906 .07598877 .3639984 .07598877H.12998963L.29499818 .2519226C.38398744 .34588624 .4229889 .42085267 .4229889 .4998169 .4229889 .59877017 .35099793 .67578127 .23799134 .67578127 .114990238 .67578127 .050994874 .5937805 .02999878 .4768219L.050994874 .47183229C.09098816 .5697937 .12599182 .6017761 .19799805 .6017761 .2829895 .6017761 .33699037 .55178835 .33699037 .4608307 .33699037 .37586976 .30099488 .29989625 .20698548 .200943L.0289917 .011993408V0H.41999818L.47399903 .13696289Z"/>
<path id="font_4_50" d="M.3939972 0V.01499939C.31900025 .01499939 .29899598 .032989503 .29899598 .07597351V.67277529L.2899933 .67578127 .11099243 .5847931V.5708008L.13798523 .5807953C.1559906 .5877991 .17298889 .59280398 .18299866 .59280398 .20399475 .59280398 .21299744 .57780459 .21299744 .543808V.0949707C.21299744 .039978029 .19198609 .018997193 .117996219 .01499939V0H.3939972Z"/>
<path id="font_1_54" d="M.43798829 .68110659 .42900086 .6880951C.41299439 .667099 .4039917 .6621094 .3809967 .6621094H.17399597L.06498718 .4251709C.06498718 .4251709 .06399536 .42216493 .06399536 .42016603 .06399536 .4141693 .066986087 .4121704 .07598877 .4121704 .17199707 .4121704 .24198914 .380188 .2889862 .3421936 .33399964 .30621339 .35598756 .2562256 .35598756 .19226074 .35598756 .106292728 .29100038 .02331543 .22099304 .02331543 .20098877 .02331543 .17799378 .032318117 .1499939 .05531311 .117996219 .08129883 .09899902 .08630371 .07598877 .08630371 .04798889 .08630371 .0309906 .07330322 .0309906 .048309328 .0309906 .010314941 .08299255-.013671875 .1579895-.013671875 .22599793-.013671875 .2809906 .0013275147 .32798768 .035308839 .3959961 .08529663 .42599488 .14727783 .42599488 .24324036 .42599488 .29621888 .4169922 .334198 .3909912 .37019349 .33399964 .4491577 .28399659 .47114564 .14099121 .49813844L.18099976 .58309939H.375C.3909912 .58309939 .39898683 .58909609 .4019928 .59609988L.43798829 .68110659Z"/>
</defs>
<path transform="matrix(1,0,0,-1,33.985,129.21701)" stroke-width=".3985" stroke-linecap="butt" stroke-miterlimit="10" stroke-linejoin="miter" fill="none" stroke="#b0b0b0" d="M33.70575 0V127.02647M80.19643 0V127.02647M126.68712 0V127.02647M173.17781 0V127.02647M219.6685 0V127.02647"/>
<path transform="matrix(1,0,0,-1,33.985,129.21701)" stroke-width=".3985" stroke-linecap="butt" stroke-miterlimit="10" stroke-linejoin="miter" fill="none" stroke="#b0b0b0" d="M0 15.42896H230.1289M0 61.65361H230.1289M0 107.87827H230.1289"/>
<path transform="matrix(1,0,0,-1,33.985,129.21701)" stroke-width=".19925" stroke-linecap="butt" stroke-miterlimit="10" stroke-linejoin="miter" fill="none" stroke="#000000" d="M33.70575-4.2519V0M80.19643-4.2519V0M126.68712-4.2519V0M173.17781-4.2519V0M219.6685-4.2519V0"/>
<path transform="matrix(1,0,0,-1,33.985,129.21701)" stroke-width=".19925" stroke-linecap="butt" stroke-miterlimit="10" stroke-linejoin="miter" fill="none" stroke="#000000" d="M-4.25186 15.42896H0M-4.25186 61.65361H0M-4.25186 107.87827H0"/>
<path transform="matrix(1,0,0,-1,33.985,129.21701)" stroke-width=".3985" stroke-linecap="butt" stroke-miterlimit="10" stroke-linejoin="miter" fill="none" stroke="#000000" d="M0 0V127.02647H230.1289V0H0Z"/>
<use data-text="2" xlink:href="#font_1_51" transform="matrix(9.96264,0,0,-9.96264,65.199008,143.72303)"/>
<use data-text="4" xlink:href="#font_1_53" transform="matrix(9.96264,0,0,-9.96264,111.689,143.72303)"/>
<use data-text="6" xlink:href="#font_1_55" transform="matrix(9.96264,0,0,-9.96264,158.18,143.80301)"/>
<use data-text="8" xlink:href="#font_1_57" transform="matrix(9.96264,0,0,-9.96264,204.67,143.72303)"/>
<use data-text="1" xlink:href="#font_1_50" transform="matrix(9.96264,0,0,-9.96264,248.669,143.72303)"/>
<use data-text="0" xlink:href="#font_1_49" transform="matrix(9.96264,0,0,-9.96264,253.65033,143.72303)"/>
<use data-text="1" xlink:href="#font_1_50" transform="matrix(9.96264,0,0,-9.96264,21.232,117.155017)"/>
<use data-text="2" xlink:href="#font_1_51" transform="matrix(9.96264,0,0,-9.96264,21.232,70.931018)"/>
<use data-text="3" xlink:href="#font_1_52" transform="matrix(9.96264,0,0,-9.96264,21.232,24.638016)"/>
<g clip-path="url(#clip_2)">
<path transform="matrix(1,0,0,-1,33.985,129.21701)" stroke-width=".59776" stroke-linecap="butt" stroke-miterlimit="10" stroke-linejoin="miter" fill="none" stroke="#ff0000" d="M219.66649 43.07889 217.55329 43.11325 215.44011 43.1478 213.3269 43.18259 211.21372 43.21756 209.10051 43.25276 206.98732 43.28821 204.87413 43.32385 202.76094 43.35973 200.64774 43.39581 198.53455 43.43214 196.42136 43.46872 194.30815 43.50552 192.19498 43.54256 190.08177 43.57985 187.96858 43.61739 185.85538 43.65517 183.74219 43.6932 181.629 43.73149 179.51581 43.77005 177.4026 43.80885 175.28942 43.84795 173.17623 43.88728 171.06304 43.92691 168.94985 43.96681 166.83664 44.00699 164.72345 44.04745 162.61025 44.08821 160.49706 44.12924 158.38387 44.1706 156.27068 44.21222 154.15749 44.25417 152.04428 44.29642 149.93109 44.33897 147.8179 44.38187 145.70471 44.42506 143.5915 44.4686 141.47832 44.51245 139.36511 44.55664 137.25194 44.60117 135.13874 44.64604 133.02555 44.69127 130.91236 44.73685 128.79915 44.78278 126.68596 44.82906 124.57277 44.87573 122.45958 44.92274 120.34637 44.97017 118.23318 45.01794 116.11998 45.06612 114.0068 45.11467 111.8936 45.16364 109.78041 45.21298 107.66722 45.26274 105.55402 45.31291 103.44083 45.36348 101.32764 45.41447 99.21445 45.46588 97.10124 45.51773 94.98805 45.56998 92.87485 45.62267 90.76167 45.67578 88.64847 45.72932 86.53528 45.78331 84.42209 45.8377 82.30888 45.89256 80.19571 45.94783 78.0825 46.00356 75.96931 46.05968 73.85611 46.11624 71.74292 46.1732 69.62971 46.23058 67.51654 46.28833 65.40334 46.34648 63.29015 46.40498 61.17696 46.46384 59.06375 46.52298 56.95058 46.58244 54.83737 46.64214 52.72418 46.70206 50.61098 46.76212 48.49779 46.82227 46.38458 46.88245 44.27141 46.94258 42.1582 47.00253 40.04501 47.0622 37.93182 47.12144 35.81862 47.18008 33.70544 47.23788 31.59224 47.29462 29.47905 47.34996 27.36584 47.40355 25.25266 47.45488 23.13947 47.5034 21.02628 47.5484 18.91307 47.58893 16.79988 47.62386 14.68669 47.65166 12.57349 47.67033 10.46031 47.6773"/>
<path transform="matrix(1,0,0,-1,33.985,129.21701)" stroke-width=".59776" stroke-linecap="butt" stroke-dasharray="2.98883,2.98883" stroke-miterlimit="10" stroke-linejoin="miter" fill="none" stroke="#ff0000" d="M219.66649 10.74715 217.55329 10.86147 215.44011 10.97708 213.3269 11.09404 211.21372 11.21234 209.10051 11.33203 206.98732 11.45314 204.87413 11.5757 202.76094 11.69972 200.64774 11.82526 198.53455 11.95235 196.42136 12.08101 194.30815 12.21127 192.19498 12.34319 190.08177 12.47678 187.96858 12.6121 185.85538 12.74918 183.74219 12.88808 181.629 13.02882 179.51581 13.17145 177.4026 13.31601 175.28942 13.46257 173.17623 13.61118 171.06304 13.76186 168.94985 13.9147 166.83664 14.06972 164.72345 14.22699 162.61025 14.38658 160.49706 14.54854 158.38387 14.71294 156.27068 14.87985 154.15749 15.04935 152.04428 15.22147 149.93109 15.39632 147.8179 15.57396 145.70471 15.7545 143.5915 15.938 141.47832 16.12456 139.36511 16.31425 137.25194 16.50722 135.13874 16.7035 133.02555 16.90324 130.91236 17.10655 128.79915 17.31354 126.68596 17.52432 124.57277 17.73903 122.45958 17.9578 120.34637 18.18077 118.23318 18.40808 116.11998 18.6399 114.0068 18.87637 111.8936 19.11769 109.78041 19.36403 107.66722 19.61557 105.55402 19.87253 103.44083 20.1351 101.32764 20.40353 99.21445 20.67804 97.10124 20.9589 94.98805 21.24637 92.87485 21.54073 90.76167 21.84229 88.64847 22.15137 86.53528 22.46834 84.42209 22.79353 82.30888 23.12737 80.19571 23.47026 78.0825 23.82266 75.96931 24.18506 73.85611 24.55798 71.74292 24.942 69.62971 25.3377 67.51654 25.74579 65.40334 26.16695 63.29015 26.60196 61.17696 27.05168 59.06375 27.51703 56.95058 27.99904 54.83737 28.4988 52.72418 29.01753 50.61098 29.55661 48.49779 30.1175 46.38458 30.70187 44.27141 31.31158 42.1582 31.9487 40.04501 32.61554 37.93182 33.31473 35.81862 34.04926 33.70544 34.82251 31.59224 35.63835 29.47905 36.50131 27.36584 37.41658 25.25266 38.39023 23.13947 39.4295 21.02628 40.54291 18.91307 41.74078 16.79988 43.03563 14.68669 44.4429 12.57349 45.98192 10.46031 47.6773"/>
<path transform="matrix(1,0,0,-1,33.985,129.21701)" stroke-width=".59776" stroke-linecap="butt" stroke-dasharray=".59776,1.99255" stroke-miterlimit="10" stroke-linejoin="miter" fill="none" stroke="#ff0000" d="M219.66649 100.57375 217.55329 100.3351 215.44011 100.09448 213.3269 99.85187 211.21372 99.6072 209.10051 99.36041 206.98732 99.11153 204.87413 98.86047 202.76094 98.60722 200.64774 98.35173 198.53455 98.09396 196.42136 97.83386 194.30815 97.57138 192.19498 97.30649 190.08177 97.03912 187.96858 96.76927 185.85538 96.49683 183.74219 96.22179 181.629 95.94408 179.51581 95.66364 177.4026 95.38043 175.28942 95.09438 173.17623 94.80544 171.06304 94.51352 168.94985 94.21858 166.83664 93.92056 164.72345 93.6194 162.61025 93.315 160.49706 93.00728 158.38387 92.6962 156.27068 92.38165 154.15749 92.06357 152.04428 91.74187 149.93109 91.41646 147.8179 91.08723 145.70471 90.75412 143.5915 90.417 141.47832 90.0758 139.36511 89.73041 137.25194 89.38069 135.13874 89.02657 133.02555 88.66788 130.91236 88.30453 128.79915 87.93639 126.68596 87.5633 124.57277 87.18515 122.45958 86.80179 120.34637 86.41304 118.23318 86.01875 116.11998 85.61877 114.0068 85.21292 111.8936 84.80101 109.78041 84.38283 107.66722 83.9582 105.55402 83.52692 103.44083 83.08871 101.32764 82.64339 99.21445 82.19069 97.10124 81.73036 94.98805 81.26208 92.87485 80.78563 90.76167 80.30066 88.64847 79.80685 86.53528 79.30385 84.42209 78.7913 82.30888 78.26881 80.19571 77.73595 78.0825 77.19229 75.96931 76.63737 73.85611 76.07068 71.74292 75.49168 69.62971 74.8998 67.51654 74.29439 65.40334 73.67482 63.29015 73.04036 61.17696 72.39023 59.06375 71.72362 56.95058 71.03958 54.83737 70.33714 52.72418 69.61523 50.61098 68.87268 48.49779 68.10817 46.38458 67.32033 44.27141 66.50755 42.1582 65.66817 40.04501 64.8002 37.93182 63.90155 35.81862 62.96983 33.70544 62.00233 31.59224 60.99605 29.47905 59.9475 27.36584 58.8527 25.25266 57.70717 23.13947 56.50562 21.02628 55.24184 18.91307 53.90862 16.79988 52.49722 14.68669 50.99725 12.57349 49.3959 10.46031 47.6773"/>
<path transform="matrix(1,0,0,-1,33.985,129.21701)" stroke-width=".59776" stroke-linecap="butt" stroke-miterlimit="10" stroke-linejoin="miter" fill="none" stroke="#0000ff" d="M219.66649 40.12392 217.55329 40.1569 215.44011 40.19006 213.3269 40.22345 211.21372 40.25705 209.10051 40.29085 206.98732 40.32484 204.87413 40.35907 202.76094 40.39352 200.64774 40.42818 198.53455 40.46306 196.42136 40.49815 194.30815 40.53348 192.19498 40.56906 190.08177 40.60484 187.96858 40.64087 185.85538 40.67714 183.74219 40.71365 181.629 40.75041 179.51581 40.78743 177.4026 40.82469 175.28942 40.8622 173.17623 40.89998 171.06304 40.938 168.94985 40.97632 166.83664 41.01488 164.72345 41.05374 162.61025 41.09285 160.49706 41.13226 158.38387 41.17194 156.27068 41.21191 154.15749 41.25218 152.04428 41.29274 149.93109 41.3336 147.8179 41.37477 145.70471 41.41624 143.5915 41.45804 141.47832 41.50014 139.36511 41.54256 137.25194 41.58531 135.13874 41.62839 133.02555 41.67181 130.91236 41.71555 128.79915 41.75964 126.68596 41.80408 124.57277 41.84888 122.45958 41.89403 120.34637 41.93953 118.23318 41.98541 116.11998 42.03165 114.0068 42.07828 111.8936 42.12527 109.78041 42.17265 107.66722 42.22041 105.55402 42.26857 103.44083 42.31714 101.32764 42.36609 99.21445 42.41542 97.10124 42.4652 94.98805 42.51537 92.87485 42.56595 90.76167 42.61693 88.64847 42.66833 86.53528 42.72015 84.42209 42.77238 82.30888 42.82504 80.19571 42.87811 78.0825 42.9316 75.96931 42.98547 73.85611 43.03978 71.74292 43.09445 69.62971 43.14954 67.51654 43.20499 65.40334 43.2608 63.29015 43.31697 61.17696 43.37346 59.06375 43.43025 56.95058 43.48734 54.83737 43.54463 52.72418 43.60216 50.61098 43.65982 48.49779 43.71758 46.38458 43.77533 44.27141 43.83305 42.1582 43.89061 40.04501 43.9479 37.93182 44.00476 35.81862 44.06105 33.70544 44.11656 31.59224 44.171 29.47905 44.22414 27.36584 44.27559 25.25266 44.32487 23.13947 44.37146 21.02628 44.41466 18.91307 44.45357 16.79988 44.48709 14.68669 44.51378 12.57349 44.53171 10.46031 44.5384"/>
<path transform="matrix(1,0,0,-1,33.985,129.21701)" stroke-width=".59776" stroke-linecap="butt" stroke-dasharray="2.98883,2.98883" stroke-miterlimit="10" stroke-linejoin="miter" fill="none" stroke="#0000ff" d="M219.66649 11.59502 217.55329 11.71819 215.44011 11.84279 213.3269 11.96886 211.21372 12.09644 209.10051 12.22552 206.98732 12.35619 204.87413 12.48845 202.76094 12.62234 200.64774 12.7579 198.53455 12.89516 196.42136 13.03415 194.30815 13.17494 192.19498 13.31755 190.08177 13.46202 187.96858 13.60841 185.85538 13.75673 183.74219 13.90706 181.629 14.05945 179.51581 14.21394 177.4026 14.37057 175.28942 14.52942 173.17623 14.69052 171.06304 14.85394 168.94985 15.01974 166.83664 15.18799 164.72345 15.35872 162.61025 15.53204 160.49706 15.708 158.38387 15.88667 156.27068 16.06813 154.15749 16.25246 152.04428 16.43974 149.93109 16.63005 147.8179 16.82349 145.70471 17.02014 143.5915 17.2201 141.47832 17.42346 139.36511 17.63037 137.25194 17.84088 135.13874 18.05515 133.02555 18.27325 130.91236 18.49536 128.79915 18.72157 126.68596 18.95206 124.57277 19.18694 122.45958 19.42638 120.34637 19.67052 118.23318 19.91954 116.11998 20.17361 114.0068 20.43294 111.8936 20.6977 109.78041 20.9681 107.66722 21.24437 105.55402 21.52672 103.44083 21.81541 101.32764 22.11069 99.21445 22.41286 97.10124 22.72218 94.98805 23.03896 92.87485 23.36353 90.76167 23.69626 88.64847 24.03749 86.53528 24.38765 84.42209 24.74713 82.30888 25.11641 80.19571 25.49597 78.0825 25.88634 75.96931 26.28807 73.85611 26.70177 71.74292 27.1281 69.62971 27.56775 67.51654 28.0215 65.40334 28.49017 63.29015 28.97467 61.17696 29.47598 59.06375 29.9952 56.95058 30.53345 54.83737 31.09209 52.72418 31.67249 50.61098 32.27625 48.49779 32.9051 46.38458 33.56097 44.27141 34.24606 42.1582 34.96277 40.04501 35.71379 37.93182 36.50226 35.81862 37.33162 33.70544 38.20587 31.59224 39.12962 29.47905 40.10815 27.36584 41.14757 25.25266 42.25513 23.13947 43.43933 21.02628 44.7103 18.91307 46.08032 16.79988 47.56424 14.68669 49.18054 12.57349 50.95224 10.46031 52.90883"/>
<path transform="matrix(1,0,0,-1,33.985,129.21701)" stroke-width=".59776" stroke-linecap="butt" stroke-dasharray=".59776,1.99255" stroke-miterlimit="10" stroke-linejoin="miter" fill="none" stroke="#0000ff" d="M219.66649 115.98557 217.55329 115.69434 215.44011 115.40073 213.3269 115.10472 211.21372 114.80624 209.10051 114.5053 206.98732 114.20177 204.87413 113.89568 202.76094 113.58696 200.64774 113.27554 198.53455 112.9614 196.42136 112.64447 194.30815 112.3247 192.19498 112.00204 190.08177 111.67645 187.96858 111.34784 185.85538 111.01619 183.74219 110.6814 181.629 110.34344 179.51581 110.00223 177.4026 109.6577 175.28942 109.30978 173.17623 108.95842 171.06304 108.60352 168.94985 108.24503 166.83664 107.88286 164.72345 107.5169 162.61025 107.14714 160.49706 106.77342 158.38387 106.3957 156.27068 106.01385 154.15749 105.6278 152.04428 105.23747 149.93109 104.8427 147.8179 104.44342 145.70471 104.03952 143.5915 103.63089 141.47832 103.21738 139.36511 102.7989 137.25194 102.37532 135.13874 101.94649 133.02555 101.51227 130.91236 101.07254 128.79915 100.62712 126.68596 100.17586 124.57277 99.71861 122.45958 99.2552 120.34637 98.78543 118.23318 98.30911 116.11998 97.8261 114.0068 97.33614 111.8936 96.83902 109.78041 96.33453 107.66722 95.82245 105.55402 95.3025 103.44083 94.77444 101.32764 94.238 99.21445 93.6929 97.10124 93.13882 94.98805 92.57544 92.87485 92.00243 90.76167 91.41943 88.64847 90.82608 86.53528 90.22195 84.42209 89.60667 82.30888 88.97974 80.19571 88.3407 78.0825 87.68906 75.96931 87.02425 73.85611 86.34572 71.74292 85.65283 69.62971 84.94495 67.51654 84.22134 65.40334 83.48125 63.29015 82.72386 61.17696 81.94829 59.06375 81.1536 56.95058 80.33873 54.83737 79.50255 52.72418 78.64386 50.61098 77.76132 48.49779 76.85345 46.38458 75.91869 44.27141 74.95523 42.1582 73.96117 40.04501 72.9343 37.93182 71.87222 35.81862 70.77228 33.70544 69.63142 31.59224 68.44624 29.47905 67.21289 27.36584 65.92694 25.25266 64.58331 23.13947 63.17613 21.02628 61.69856 18.91307 60.14252 16.79988 58.49843 14.68669 56.75471 12.57349 54.89731 10.46031 52.90883"/>
<path transform="matrix(1,0,0,-1,33.985,129.21701)" stroke-width=".59776" stroke-linecap="butt" stroke-miterlimit="10" stroke-linejoin="miter" fill="none" stroke="#008000" d="M219.66649 24.6103 217.55329 24.63608 215.44011 24.66199 213.3269 24.68808 211.21372 24.71432 209.10051 24.74072 206.98732 24.7673 204.87413 24.79402 202.76094 24.82094 200.64774 24.848 198.53455 24.87526 196.42136 24.9027 194.30815 24.9303 192.19498 24.95807 190.08177 24.98604 187.96858 25.01418 185.85538 25.04251 183.74219 25.07104 181.629 25.09976 179.51581 25.12868 177.4026 25.15779 175.28942 25.1871 173.17623 25.21661 171.06304 25.24632 168.94985 25.27625 166.83664 25.30638 164.72345 25.33673 162.61025 25.3673 160.49706 25.39807 158.38387 25.4291 156.27068 25.46031 154.15749 25.49176 152.04428 25.52347 149.93109 25.55539 147.8179 25.58754 145.70471 25.61995 143.5915 25.65259 141.47832 25.68549 139.36511 25.71863 137.25194 25.75203 135.13874 25.78568 133.02555 25.8196 130.91236 25.85378 128.79915 25.88821 126.68596 25.92294 124.57277 25.95793 122.45958 25.9932 120.34637 26.02876 118.23318 26.0646 116.11998 26.10072 114.0068 26.13715 111.8936 26.17386 109.78041 26.21088 107.66722 26.2482 105.55402 26.28583 103.44083 26.32375 101.32764 26.362 99.21445 26.40056 97.10124 26.43942 94.98805 26.47864 92.87485 26.51814 90.76167 26.55797 88.64847 26.59813 86.53528 26.63861 84.42209 26.67943 82.30888 26.72057 80.19571 26.76202 78.0825 26.8038 75.96931 26.84592 73.85611 26.88832 71.74292 26.93105 69.62971 26.97408 67.51654 27.0174 65.40334 27.061 63.29015 27.10487 61.17696 27.149 59.06375 27.19339 56.95058 27.23798 54.83737 27.28276 52.72418 27.32768 50.61098 27.37273 48.49779 27.41785 46.38458 27.46298 44.27141 27.50807 42.1582 27.55304 40.04501 27.5978 37.93182 27.64223 35.81862 27.6862 33.70544 27.72955 31.59224 27.77211 29.47905 27.81361 27.36584 27.8538 25.25266 27.8923 23.13947 27.9287 21.02628 27.96245 18.91307 27.99286 16.79988 28.01903 14.68669 28.03987 12.57349 28.05391 10.46031 28.05911"/>
<path transform="matrix(1,0,0,-1,33.985,129.21701)" stroke-width=".59776" stroke-linecap="butt" stroke-dasharray="2.98883,2.98883" stroke-miterlimit="10" stroke-linejoin="miter" fill="none" stroke="#008000" d="M219.66649 5.77386 217.55329 5.89003 215.44011 6.0076 213.3269 6.12662 211.21372 6.24712 209.10051 6.3691 206.98732 6.49261 204.87413 6.61772 202.76094 6.74443 200.64774 6.87277 198.53455 7.0028 196.42136 7.13455 194.30815 7.26807 192.19498 7.40338 190.08177 7.54054 187.96858 7.6796 185.85538 7.82057 183.74219 7.96353 181.629 8.10854 179.51581 8.25562 177.4026 8.40482 175.28942 8.55623 173.17623 8.70988 171.06304 8.86584 168.94985 9.02417 166.83664 9.18494 164.72345 9.34819 162.61025 9.514 160.49706 9.68246 158.38387 9.85364 156.27068 10.02762 154.15749 10.20444 152.04428 10.38422 149.93109 10.56706 147.8179 10.75302 145.70471 10.94221 143.5915 11.1347 141.47832 11.33066 139.36511 11.53015 137.25194 11.73329 135.13874 11.94019 133.02555 12.15102 130.91236 12.36583 128.79915 12.58482 126.68596 12.80814 124.57277 13.03589 122.45958 13.26826 120.34637 13.50542 118.23318 13.74754 116.11998 13.99478 114.0068 14.24738 111.8936 14.50551 109.78041 14.7694 107.66722 15.03926 105.55402 15.31538 103.44083 15.59796 101.32764 15.88731 99.21445 16.1837 97.10124 16.48746 94.98805 16.79887 92.87485 17.11833 90.76167 17.44618 88.64847 17.78282 86.53528 18.12868 84.42209 18.48419 82.30888 18.84987 80.19571 19.22623 78.0825 19.6138 75.96931 20.0132 73.85611 20.4251 71.74292 20.85017 69.62971 21.28922 67.51654 21.743 65.40334 22.21246 63.29015 22.69858 61.17696 23.2024 59.06375 23.7251 56.95058 24.26796 54.83737 24.83238 52.72418 25.41994 50.61098 26.03235 48.49779 26.6715 46.38458 27.33957 44.27141 28.03888 42.1582 28.77217 40.04501 29.54242 37.93182 30.35307 35.81862 31.208 33.70544 32.11166 31.59224 33.0692 29.47905 34.08655 27.36584 35.17067 25.25266 36.32967 23.13947 37.57326 21.02628 38.91298 18.91307 40.36285 16.79988 41.94002 14.68669 43.6657 12.57349 45.56668 10.46031 47.6773"/>
<path transform="matrix(1,0,0,-1,33.985,129.21701)" stroke-width=".59776" stroke-linecap="butt" stroke-dasharray=".59776,1.99255" stroke-miterlimit="10" stroke-linejoin="miter" fill="none" stroke="#008000" d="M219.66649 121.25151 217.55329 120.89088 215.44011 120.5275 213.3269 120.16129 211.21372 119.79219 209.10051 119.42018 206.98732 119.04521 204.87413 118.66722 202.76094 118.28616 200.64774 117.90198 198.53455 117.5146 196.42136 117.12398 194.30815 116.73009 192.19498 116.33281 190.08177 115.93213 187.96858 115.52797 185.85538 115.12025 183.74219 114.70892 181.629 114.2939 179.51581 113.8751 177.4026 113.45251 175.28942 113.02597 173.17623 112.59547 171.06304 112.16089 168.94985 111.72215 166.83664 111.27919 164.72345 110.83188 162.61025 110.38016 160.49706 109.92392 158.38387 109.46307 156.27068 108.9975 154.15749 108.52711 152.04428 108.05177 149.93109 107.57141 147.8179 107.08589 145.70471 106.59508 143.5915 106.09886 141.47832 105.5971 139.36511 105.08968 137.25194 104.57642 135.13874 104.05722 133.02555 103.53189 130.91236 103.0003 128.79915 102.46227 126.68596 101.91763 124.57277 101.36621 122.45958 100.80782 120.34637 100.24226 118.23318 99.66934 116.11998 99.08884 114.0068 98.50055 111.8936 97.90422 109.78041 97.29962 107.66722 96.68648 105.55402 96.06454 103.44083 95.43356 101.32764 94.79321 99.21445 94.14317 97.10124 93.48314 94.98805 92.81279 92.87485 92.13171 90.76167 91.43958 88.64847 90.73596 86.53528 90.02045 84.42209 89.29259 82.30888 88.5519 80.19571 87.79788 78.0825 87.03 75.96931 86.24768 73.85611 85.45033 71.74292 84.63727 69.62971 83.80783 67.51654 82.96126 65.40334 82.09677 63.29015 81.2135 61.17696 80.31053 59.06375 79.38687 56.95058 78.44144 54.83737 77.47308 52.72418 76.48055 50.61098 75.46242 48.49779 74.41722 46.38458 73.34332 44.27141 72.23889 42.1582 71.10197 40.04501 69.93034 37.93182 68.72156 35.81862 67.47292 33.70544 66.18134 31.59224 64.84343 29.47905 63.45528 27.36584 62.0125 25.25266 60.51003 23.13947 58.94202 21.02628 57.30174 18.91307 55.5812 16.79988 53.77104 14.68669 51.85997 12.57349 49.83434 10.46031 47.6773"/>
</g>
<path transform="matrix(1,0,0,-1,33.985,129.21701)" stroke-width=".59776" stroke-linecap="butt" stroke-miterlimit="10" stroke-linejoin="miter" fill="none" stroke="#0000ff" d="M217.55306 38.01048 221.7799 42.23734M217.55306 42.23734 221.7799 38.01048"/>
<path transform="matrix(1,0,0,-1,33.985,129.21701)" stroke-width=".59776" stroke-linecap="butt" stroke-miterlimit="10" stroke-linejoin="miter" fill="none" stroke="#0000ff" d="M196.42113 38.34962 200.64797 42.57648M196.42113 42.57648 200.64797 38.34962"/>
<path transform="matrix(1,0,0,-1,33.985,129.21701)" stroke-width=".59776" stroke-linecap="butt" stroke-miterlimit="10" stroke-linejoin="miter" fill="none" stroke="#0000ff" d="M175.28919 38.71127 179.51604 42.93811M175.28919 42.93811 179.51604 38.71127"/>
<path transform="matrix(1,0,0,-1,33.985,129.21701)" stroke-width=".59776" stroke-linecap="butt" stroke-miterlimit="10" stroke-linejoin="miter" fill="none" stroke="#0000ff" d="M154.15726 39.0985 158.3841 43.32535M154.15726 43.32535 158.3841 39.0985"/>
<path transform="matrix(1,0,0,-1,33.985,129.21701)" stroke-width=".59776" stroke-linecap="butt" stroke-miterlimit="10" stroke-linejoin="miter" fill="none" stroke="#0000ff" d="M133.02532 39.51497 137.25217 43.74182M133.02532 43.74182 137.25217 39.51497"/>
<path transform="matrix(1,0,0,-1,33.985,129.21701)" stroke-width=".59776" stroke-linecap="butt" stroke-miterlimit="10" stroke-linejoin="miter" fill="none" stroke="#0000ff" d="M111.89337 39.96486 116.12022 44.1917M111.89337 44.1917 116.12022 39.96486"/>
<path transform="matrix(1,0,0,-1,33.985,129.21701)" stroke-width=".59776" stroke-linecap="butt" stroke-miterlimit="10" stroke-linejoin="miter" fill="none" stroke="#0000ff" d="M90.76143 40.45251 94.98828 44.67937M90.76143 44.67937 94.98828 40.45251"/>
<path transform="matrix(1,0,0,-1,33.985,129.21701)" stroke-width=".59776" stroke-linecap="butt" stroke-miterlimit="10" stroke-linejoin="miter" fill="none" stroke="#0000ff" d="M69.62949 40.98103 73.85634 45.20789M69.62949 45.20789 73.85634 40.98103"/>
<path transform="matrix(1,0,0,-1,33.985,129.21701)" stroke-width=".59776" stroke-linecap="butt" stroke-miterlimit="10" stroke-linejoin="miter" fill="none" stroke="#0000ff" d="M48.49756 41.54639 52.72441 45.77324M48.49756 45.77324 52.72441 41.54639"/>
<path transform="matrix(1,0,0,-1,33.985,129.21701)" stroke-width=".59776" stroke-linecap="butt" stroke-miterlimit="10" stroke-linejoin="miter" fill="none" stroke="#0000ff" d="M27.36562 42.11072 31.59247 46.33757M27.36562 46.33757 31.59247 42.11072"/>
<path transform="matrix(1,0,0,-1,33.985,129.21701)" stroke-width=".59776" stroke-linecap="butt" stroke-miterlimit="10" stroke-linejoin="miter" fill="none" stroke="#0000ff" d=""/>
<path transform="matrix(1,0,0,-1,33.985,129.21701)" stroke-width=".59776" stroke-linecap="butt" stroke-miterlimit="10" stroke-linejoin="miter" fill="none" stroke="#0000ff" d="M217.55306 9.48158 221.7799 13.70844M217.55306 13.70844 221.7799 9.48158"/>
<path transform="matrix(1,0,0,-1,33.985,129.21701)" stroke-width=".59776" stroke-linecap="butt" stroke-miterlimit="10" stroke-linejoin="miter" fill="none" stroke="#0000ff" d="M196.42113 10.78174 200.64797 15.00859M196.42113 15.00859 200.64797 10.78174"/>
<path transform="matrix(1,0,0,-1,33.985,129.21701)" stroke-width=".59776" stroke-linecap="butt" stroke-miterlimit="10" stroke-linejoin="miter" fill="none" stroke="#0000ff" d="M175.28919 12.25716 179.51604 16.484M175.28919 16.484 179.51604 12.25716"/>
<path transform="matrix(1,0,0,-1,33.985,129.21701)" stroke-width=".59776" stroke-linecap="butt" stroke-miterlimit="10" stroke-linejoin="miter" fill="none" stroke="#0000ff" d="M154.15726 13.95471 158.3841 18.18156M154.15726 18.18156 158.3841 13.95471"/>
<path transform="matrix(1,0,0,-1,33.985,129.21701)" stroke-width=".59776" stroke-linecap="butt" stroke-miterlimit="10" stroke-linejoin="miter" fill="none" stroke="#0000ff" d="M133.02532 15.94171 137.25217 20.16856M133.02532 20.16856 137.25217 15.94171"/>
<path transform="matrix(1,0,0,-1,33.985,129.21701)" stroke-width=".59776" stroke-linecap="butt" stroke-miterlimit="10" stroke-linejoin="miter" fill="none" stroke="#0000ff" d="M111.89337 18.31952 116.12022 22.54637M111.89337 22.54637 116.12022 18.31952"/>
<path transform="matrix(1,0,0,-1,33.985,129.21701)" stroke-width=".59776" stroke-linecap="butt" stroke-miterlimit="10" stroke-linejoin="miter" fill="none" stroke="#0000ff" d="M90.76143 21.2501 94.98828 25.47696M90.76143 25.47696 94.98828 21.2501"/>
<path transform="matrix(1,0,0,-1,33.985,129.21701)" stroke-width=".59776" stroke-linecap="butt" stroke-miterlimit="10" stroke-linejoin="miter" fill="none" stroke="#0000ff" d="M69.62949 25.01466 73.85634 29.24152M69.62949 29.24152 73.85634 25.01466"/>
<path transform="matrix(1,0,0,-1,33.985,129.21701)" stroke-width=".59776" stroke-linecap="butt" stroke-miterlimit="10" stroke-linejoin="miter" fill="none" stroke="#0000ff" d="M48.49756 30.16281 52.72441 34.38966M48.49756 34.38966 52.72441 30.16281"/>
<path transform="matrix(1,0,0,-1,33.985,129.21701)" stroke-width=".59776" stroke-linecap="butt" stroke-miterlimit="10" stroke-linejoin="miter" fill="none" stroke="#0000ff" d="M27.36562 37.99472 31.59247 42.22157M27.36562 42.22157 31.59247 37.99472"/>
<path transform="matrix(1,0,0,-1,33.985,129.21701)" stroke-width=".59776" stroke-linecap="butt" stroke-miterlimit="10" stroke-linejoin="miter" fill="none" stroke="#0000ff" d=""/>
<path transform="matrix(1,0,0,-1,33.985,129.21701)" stroke-width=".59776" stroke-linecap="butt" stroke-miterlimit="10" stroke-linejoin="miter" fill="none" stroke="#0000ff" d="M217.55306 113.87215 221.7799 118.099M217.55306 118.099 221.7799 113.87215"/>
<path transform="matrix(1,0,0,-1,33.985,129.21701)" stroke-width=".59776" stroke-linecap="butt" stroke-miterlimit="10" stroke-linejoin="miter" fill="none" stroke="#0000ff" d="M196.42113 110.84798 200.64797 115.07481M196.42113 115.07481 200.64797 110.84798"/>
<path transform="matrix(1,0,0,-1,33.985,129.21701)" stroke-width=".59776" stroke-linecap="butt" stroke-miterlimit="10" stroke-linejoin="miter" fill="none" stroke="#0000ff" d="M175.28919 107.54428 179.51604 111.77112M175.28919 111.77112 179.51604 107.54428"/>
<path transform="matrix(1,0,0,-1,33.985,129.21701)" stroke-width=".59776" stroke-linecap="butt" stroke-miterlimit="10" stroke-linejoin="miter" fill="none" stroke="#0000ff" d="M154.15726 103.90044 158.3841 108.12729M154.15726 108.12729 158.3841 103.90044"/>
<path transform="matrix(1,0,0,-1,33.985,129.21701)" stroke-width=".59776" stroke-linecap="butt" stroke-miterlimit="10" stroke-linejoin="miter" fill="none" stroke="#0000ff" d="M133.02532 99.83305 137.25217 104.0599M133.02532 104.0599 137.25217 99.83305"/>
<path transform="matrix(1,0,0,-1,33.985,129.21701)" stroke-width=".59776" stroke-linecap="butt" stroke-miterlimit="10" stroke-linejoin="miter" fill="none" stroke="#0000ff" d="M111.89337 95.2227 116.12022 99.44955M111.89337 99.44955 116.12022 95.2227"/>
<path transform="matrix(1,0,0,-1,33.985,129.21701)" stroke-width=".59776" stroke-linecap="butt" stroke-miterlimit="10" stroke-linejoin="miter" fill="none" stroke="#0000ff" d="M90.76143 89.889 94.98828 94.11584M90.76143 94.11584 94.98828 89.889"/>
<path transform="matrix(1,0,0,-1,33.985,129.21701)" stroke-width=".59776" stroke-linecap="butt" stroke-miterlimit="10" stroke-linejoin="miter" fill="none" stroke="#0000ff" d="M69.62949 83.53941 73.85634 87.76627M69.62949 87.76627 73.85634 83.53941"/>
<path transform="matrix(1,0,0,-1,33.985,129.21701)" stroke-width=".59776" stroke-linecap="butt" stroke-miterlimit="10" stroke-linejoin="miter" fill="none" stroke="#0000ff" d="M48.49756 75.64789 52.72441 79.87474M48.49756 79.87474 52.72441 75.64789"/>
<path transform="matrix(1,0,0,-1,33.985,129.21701)" stroke-width=".59776" stroke-linecap="butt" stroke-miterlimit="10" stroke-linejoin="miter" fill="none" stroke="#0000ff" d="M27.36562 65.09947 31.59247 69.32632M27.36562 69.32632 31.59247 65.09947"/>
<path transform="matrix(1,0,0,-1,33.985,129.21701)" stroke-width=".59776" stroke-linecap="butt" stroke-miterlimit="10" stroke-linejoin="miter" fill="none" stroke="#0000ff" d=""/>
<path transform="matrix(1,0,0,-1,33.985,129.21701)" stroke-width=".59776" stroke-linecap="butt" stroke-miterlimit="10" stroke-linejoin="miter" fill="none" stroke="#008000" d="M216.67766 24.6103H222.65532M219.66649 27.59914V21.62148"/>
<path transform="matrix(1,0,0,-1,33.985,129.21701)" stroke-width=".59776" stroke-linecap="butt" stroke-miterlimit="10" stroke-linejoin="miter" fill="none" stroke="#008000" d="M195.54572 24.87526H201.52338M198.53455 27.86409V21.88643"/>
<path transform="matrix(1,0,0,-1,33.985,129.21701)" stroke-width=".59776" stroke-linecap="butt" stroke-miterlimit="10" stroke-linejoin="miter" fill="none" stroke="#008000" d="M174.41378 25.15779H180.39144M177.4026 28.14662V22.16896"/>
<path transform="matrix(1,0,0,-1,33.985,129.21701)" stroke-width=".59776" stroke-linecap="butt" stroke-miterlimit="10" stroke-linejoin="miter" fill="none" stroke="#008000" d="M153.28185 25.46031H159.2595M156.27068 28.44914V22.47148"/>
<path transform="matrix(1,0,0,-1,33.985,129.21701)" stroke-width=".59776" stroke-linecap="butt" stroke-miterlimit="10" stroke-linejoin="miter" fill="none" stroke="#008000" d="M132.1499 25.78568H138.12757M135.13874 28.7745V22.79684"/>
<path transform="matrix(1,0,0,-1,33.985,129.21701)" stroke-width=".59776" stroke-linecap="butt" stroke-miterlimit="10" stroke-linejoin="miter" fill="none" stroke="#008000" d="M111.01797 26.13715H116.99564M114.0068 29.12598V23.14832"/>
<path transform="matrix(1,0,0,-1,33.985,129.21701)" stroke-width=".59776" stroke-linecap="butt" stroke-miterlimit="10" stroke-linejoin="miter" fill="none" stroke="#008000" d="M89.88602 26.51814H95.86368M92.87485 29.50697V23.52931"/>
<path transform="matrix(1,0,0,-1,33.985,129.21701)" stroke-width=".59776" stroke-linecap="butt" stroke-miterlimit="10" stroke-linejoin="miter" fill="none" stroke="#008000" d="M68.75409 26.93105H74.73175M71.74292 29.91988V23.94221"/>
<path transform="matrix(1,0,0,-1,33.985,129.21701)" stroke-width=".59776" stroke-linecap="butt" stroke-miterlimit="10" stroke-linejoin="miter" fill="none" stroke="#008000" d="M47.62215 27.37273H53.59981M50.61098 30.36156V24.3839"/>
<path transform="matrix(1,0,0,-1,33.985,129.21701)" stroke-width=".59776" stroke-linecap="butt" stroke-miterlimit="10" stroke-linejoin="miter" fill="none" stroke="#008000" d="M26.49022 27.81361H32.46788M29.47905 30.80244V24.82478"/>
<path transform="matrix(1,0,0,-1,33.985,129.21701)" stroke-width=".59776" stroke-linecap="butt" stroke-miterlimit="10" stroke-linejoin="miter" fill="none" stroke="#008000" d=""/>
<path transform="matrix(1,0,0,-1,33.985,129.21701)" stroke-width=".59776" stroke-linecap="butt" stroke-miterlimit="10" stroke-linejoin="miter" fill="none" stroke="#008000" d="M216.67766 5.77386H222.65532M219.66649 8.7627V2.78503"/>
<path transform="matrix(1,0,0,-1,33.985,129.21701)" stroke-width=".59776" stroke-linecap="butt" stroke-miterlimit="10" stroke-linejoin="miter" fill="none" stroke="#008000" d="M195.54572 7.0028H201.52338M198.53455 9.99164V4.01398"/>
<path transform="matrix(1,0,0,-1,33.985,129.21701)" stroke-width=".59776" stroke-linecap="butt" stroke-miterlimit="10" stroke-linejoin="miter" fill="none" stroke="#008000" d="M174.41378 8.40482H180.39144M177.4026 11.39365V5.41599"/>
<path transform="matrix(1,0,0,-1,33.985,129.21701)" stroke-width=".59776" stroke-linecap="butt" stroke-miterlimit="10" stroke-linejoin="miter" fill="none" stroke="#008000" d="M153.28185 10.02762H159.2595M156.27068 13.01645V7.03879"/>
<path transform="matrix(1,0,0,-1,33.985,129.21701)" stroke-width=".59776" stroke-linecap="butt" stroke-miterlimit="10" stroke-linejoin="miter" fill="none" stroke="#008000" d="M132.1499 11.94019H138.12757M135.13874 14.92902V8.95135"/>
<path transform="matrix(1,0,0,-1,33.985,129.21701)" stroke-width=".59776" stroke-linecap="butt" stroke-miterlimit="10" stroke-linejoin="miter" fill="none" stroke="#008000" d="M111.01797 14.24738H116.99564M114.0068 17.2362V11.25854"/>
<path transform="matrix(1,0,0,-1,33.985,129.21701)" stroke-width=".59776" stroke-linecap="butt" stroke-miterlimit="10" stroke-linejoin="miter" fill="none" stroke="#008000" d="M89.88602 17.11833H95.86368M92.87485 20.10716V14.1295"/>
<path transform="matrix(1,0,0,-1,33.985,129.21701)" stroke-width=".59776" stroke-linecap="butt" stroke-miterlimit="10" stroke-linejoin="miter" fill="none" stroke="#008000" d="M68.75409 20.85017H74.73175M71.74292 23.839V17.86134"/>
<path transform="matrix(1,0,0,-1,33.985,129.21701)" stroke-width=".59776" stroke-linecap="butt" stroke-miterlimit="10" stroke-linejoin="miter" fill="none" stroke="#008000" d="M47.62215 26.03235H53.59981M50.61098 29.02118V23.04352"/>
<path transform="matrix(1,0,0,-1,33.985,129.21701)" stroke-width=".59776" stroke-linecap="butt" stroke-miterlimit="10" stroke-linejoin="miter" fill="none" stroke="#008000" d="M26.49022 34.08655H32.46788M29.47905 37.07538V31.09772"/>
<path transform="matrix(1,0,0,-1,33.985,129.21701)" stroke-width=".59776" stroke-linecap="butt" stroke-miterlimit="10" stroke-linejoin="miter" fill="none" stroke="#008000" d=""/>
<path transform="matrix(1,0,0,-1,33.985,129.21701)" stroke-width=".59776" stroke-linecap="butt" stroke-miterlimit="10" stroke-linejoin="miter" fill="none" stroke="#008000" d="M216.67766 121.25151H222.65532M219.66649 124.24034V118.26268"/>
<path transform="matrix(1,0,0,-1,33.985,129.21701)" stroke-width=".59776" stroke-linecap="butt" stroke-miterlimit="10" stroke-linejoin="miter" fill="none" stroke="#008000" d="M195.54572 117.5146H201.52338M198.53455 120.50343V114.52577"/>
<path transform="matrix(1,0,0,-1,33.985,129.21701)" stroke-width=".59776" stroke-linecap="butt" stroke-miterlimit="10" stroke-linejoin="miter" fill="none" stroke="#008000" d="M174.41378 113.45251H180.39144M177.4026 116.44135V110.46368"/>
<path transform="matrix(1,0,0,-1,33.985,129.21701)" stroke-width=".59776" stroke-linecap="butt" stroke-miterlimit="10" stroke-linejoin="miter" fill="none" stroke="#008000" d="M153.28185 108.9975H159.2595M156.27068 111.98633V106.00867"/>
<path transform="matrix(1,0,0,-1,33.985,129.21701)" stroke-width=".59776" stroke-linecap="butt" stroke-miterlimit="10" stroke-linejoin="miter" fill="none" stroke="#008000" d="M132.1499 104.05722H138.12757M135.13874 107.04605V101.06839"/>
<path transform="matrix(1,0,0,-1,33.985,129.21701)" stroke-width=".59776" stroke-linecap="butt" stroke-miterlimit="10" stroke-linejoin="miter" fill="none" stroke="#008000" d="M111.01797 98.50055H116.99564M114.0068 101.48938V95.51172"/>
<path transform="matrix(1,0,0,-1,33.985,129.21701)" stroke-width=".59776" stroke-linecap="butt" stroke-miterlimit="10" stroke-linejoin="miter" fill="none" stroke="#008000" d="M89.88602 92.13171H95.86368M92.87485 95.12054V89.14288"/>
<path transform="matrix(1,0,0,-1,33.985,129.21701)" stroke-width=".59776" stroke-linecap="butt" stroke-miterlimit="10" stroke-linejoin="miter" fill="none" stroke="#008000" d="M68.75409 84.63727H74.73175M71.74292 87.6261V81.64844"/>
<path transform="matrix(1,0,0,-1,33.985,129.21701)" stroke-width=".59776" stroke-linecap="butt" stroke-miterlimit="10" stroke-linejoin="miter" fill="none" stroke="#008000" d="M47.62215 75.46242H53.59981M50.61098 78.45125V72.47359"/>
<path transform="matrix(1,0,0,-1,33.985,129.21701)" stroke-width=".59776" stroke-linecap="butt" stroke-miterlimit="10" stroke-linejoin="miter" fill="none" stroke="#008000" d="M26.49022 63.45528H32.46788M29.47905 66.4441V60.46645"/>
<path transform="matrix(1,0,0,-1,33.985,129.21701)" stroke-width=".59776" stroke-linecap="butt" stroke-miterlimit="10" stroke-linejoin="miter" fill="none" stroke="#008000" d=""/>
<use data-text="&#x1d438;" xlink:href="#font_1_2480" transform="matrix(9.96264,0,0,-9.96264,127.72,157.51702)"/>
<use data-text="2" xlink:href="#font_3_51" transform="matrix(7.47198,0,0,-7.47198,134.833,160.00801)"/>
<use data-text="/" xlink:href="#font_1_48" transform="matrix(9.96264,0,0,-9.96264,138.978,157.51702)"/>
<use data-text="&#x1d438;" xlink:href="#font_1_2480" transform="matrix(9.96264,0,0,-9.96264,141.7476,157.51702)"/>
<use data-text="1" xlink:href="#font_3_50" transform="matrix(7.47198,0,0,-7.47198,148.861,160.00801)"/>
<use data-text="=" xlink:href="#font_1_62" transform="matrix(9.96264,0,0,-9.96264,155.772,157.51702)"/>
<use data-text="&#x1d6ff;" xlink:href="#font_1_3165" transform="matrix(9.96264,0,0,-9.96264,165.35605,157.51702)"/>
<use data-text="&#x1d438;" xlink:href="#font_1_2480" transform="matrix(0,-9.96264,-9.96264,-0,11.819,80.957019)"/>
<use data-text="&#x00d7;" xlink:href="#font_1_183" transform="matrix(0,-9.96264,-9.96264,-0,11.819,71.034229)"/>
<use data-text="&#x1d435;" xlink:href="#font_1_2477" transform="matrix(0,-9.96264,-9.96264,-0,11.819,62.446428)"/>
<use data-text="&#x1d456;" xlink:href="#font_3_2509" transform="matrix(0,-7.47198,-7.47198,-0,14.308998,55.508016)"/>
<use data-text="&#x1d456;" xlink:href="#font_3_2509" transform="matrix(0,-7.47198,-7.47198,-0,14.308998,53.184228)"/>
<path transform="matrix(1,0,0,-1,33.985,129.21701)" d="M147.8253 16.2941H223.02603V123.01657H147.8253Z" fill="#ffffff" fill-opacity=".8"/>
<path transform="matrix(1,0,0,-1,33.985,129.21701)" stroke-width=".3985" stroke-linecap="butt" stroke-miterlimit="10" stroke-linejoin="miter" fill="none" stroke="#cccccc" d="M147.8253 16.2941H223.02603V123.01657H147.8253Z"/>
<path transform="matrix(1,0,0,-1,185.096,13.965012)" stroke-width=".59776" stroke-linecap="butt" stroke-miterlimit="10" stroke-linejoin="miter" fill="none" stroke="#ff0000" d="M0 0H8.50412 17.00826"/>
<use data-text="&#x1d435;" xlink:href="#font_1_2477" transform="matrix(8.96638,0,0,-8.96638,204.39499,16.248017)"/>
<use data-text="3" xlink:href="#font_4_52" transform="matrix(5.97758,0,0,-5.97758,210.63599,18.49002)"/>
<use data-text="3" xlink:href="#font_4_52" transform="matrix(5.97758,0,0,-5.97758,213.62477,18.49002)"/>
<use data-text="(" xlink:href="#font_1_41" transform="matrix(8.96638,0,0,-8.96638,219.22299,16.248017)"/>
<use data-text="&#x1d708;" xlink:href="#font_1_3174" transform="matrix(8.96638,0,0,-8.96638,222.2088,16.248017)"/>
<use data-text="=" xlink:href="#font_1_62" transform="matrix(8.96638,0,0,-8.96638,229.19362,16.248017)"/>
<use data-text="0" xlink:href="#font_1_49" transform="matrix(8.96638,0,0,-8.96638,237.82825,16.248017)"/>
<use data-text="." xlink:href="#font_1_47" transform="matrix(8.96638,0,0,-8.96638,242.31143,16.248017)"/>
<use data-text="0" xlink:href="#font_1_49" transform="matrix(8.96638,0,0,-8.96638,244.55303,16.248017)"/>
<use data-text=")" xlink:href="#font_1_42" transform="matrix(8.96638,0,0,-8.96638,249.03621,16.248017)"/>
<path transform="matrix(1,0,0,-1,185.096,25.402012)" stroke-width=".59776" stroke-linecap="butt" stroke-dasharray="2.98883,2.98883" stroke-miterlimit="10" stroke-linejoin="miter" fill="none" stroke="#ff0000" d="M0 0H8.50412 17.00826"/>
<use data-text="&#x1d435;" xlink:href="#font_1_2477" transform="matrix(8.96638,0,0,-8.96638,204.39499,27.583008)"/>
<use data-text="2" xlink:href="#font_4_51" transform="matrix(5.97758,0,0,-5.97758,210.63599,29.82402)"/>
<use data-text="2" xlink:href="#font_4_51" transform="matrix(5.97758,0,0,-5.97758,213.62477,29.82402)"/>
<path transform="matrix(1,0,0,-1,185.096,36.73701)" stroke-width=".59776" stroke-linecap="butt" stroke-dasharray=".59776,1.99255" stroke-miterlimit="10" stroke-linejoin="miter" fill="none" stroke="#ff0000" d="M0 0H8.50412 17.00826"/>
<use data-text="&#x1d435;" xlink:href="#font_1_2477" transform="matrix(8.96638,0,0,-8.96638,204.39499,38.917016)"/>
<use data-text="1" xlink:href="#font_4_50" transform="matrix(5.97758,0,0,-5.97758,210.63599,41.15901)"/>
<use data-text="1" xlink:href="#font_4_50" transform="matrix(5.97758,0,0,-5.97758,213.62477,41.15901)"/>
<path transform="matrix(1,0,0,-1,185.096,48.17401)" stroke-width=".59776" stroke-linecap="butt" stroke-miterlimit="10" stroke-linejoin="miter" fill="none" stroke="#0000ff" d="M0 0H8.50412 17.00826"/>
<path transform="matrix(1,0,0,-1,185.096,48.17401)" stroke-width=".59776" stroke-linecap="butt" stroke-miterlimit="10" stroke-linejoin="miter" fill="none" stroke="#0000ff" d="M6.39069-2.11342 10.61754 2.11342M6.39069 2.11342 10.61754-2.11342"/>
<use data-text="&#x1d435;" xlink:href="#font_1_2477" transform="matrix(8.96638,0,0,-8.96638,204.39499,50.458017)"/>
<use data-text="3" xlink:href="#font_4_52" transform="matrix(5.97758,0,0,-5.97758,210.63599,52.699014)"/>
<use data-text="3" xlink:href="#font_4_52" transform="matrix(5.97758,0,0,-5.97758,213.62477,52.699014)"/>
<use data-text="(" xlink:href="#font_1_41" transform="matrix(8.96638,0,0,-8.96638,219.22299,50.458017)"/>
<use data-text="&#x1d708;" xlink:href="#font_1_3174" transform="matrix(8.96638,0,0,-8.96638,222.2088,50.458017)"/>
<use data-text="=" xlink:href="#font_1_62" transform="matrix(8.96638,0,0,-8.96638,229.19362,50.458017)"/>
<use data-text="0" xlink:href="#font_1_49" transform="matrix(8.96638,0,0,-8.96638,237.82825,50.458017)"/>
<use data-text="." xlink:href="#font_1_47" transform="matrix(8.96638,0,0,-8.96638,242.31143,50.458017)"/>
<use data-text="2" xlink:href="#font_1_51" transform="matrix(8.96638,0,0,-8.96638,244.55303,50.458017)"/>
<use data-text=")" xlink:href="#font_1_42" transform="matrix(8.96638,0,0,-8.96638,249.03621,50.458017)"/>
<path transform="matrix(1,0,0,-1,185.096,59.61201)" stroke-width=".59776" stroke-linecap="butt" stroke-dasharray="2.98883,2.98883" stroke-miterlimit="10" stroke-linejoin="miter" fill="none" stroke="#0000ff" d="M0 0H8.50412 17.00826"/>
<path transform="matrix(1,0,0,-1,185.096,59.61201)" stroke-width=".59776" stroke-linecap="butt" stroke-miterlimit="10" stroke-linejoin="miter" fill="none" stroke="#0000ff" d="M6.39069-2.11342 10.61754 2.11342M6.39069 2.11342 10.61754-2.11342"/>
<use data-text="&#x1d435;" xlink:href="#font_1_2477" transform="matrix(8.96638,0,0,-8.96638,204.39499,61.792016)"/>
<use data-text="2" xlink:href="#font_4_51" transform="matrix(5.97758,0,0,-5.97758,210.63599,64.03401)"/>
<use data-text="2" xlink:href="#font_4_51" transform="matrix(5.97758,0,0,-5.97758,213.62477,64.03401)"/>
<path transform="matrix(1,0,0,-1,185.096,70.946018)" stroke-width=".59776" stroke-linecap="butt" stroke-dasharray=".59776,1.99255" stroke-miterlimit="10" stroke-linejoin="miter" fill="none" stroke="#0000ff" d="M0 0H8.50412 17.00826"/>
<path transform="matrix(1,0,0,-1,185.096,70.946018)" stroke-width=".59776" stroke-linecap="butt" stroke-miterlimit="10" stroke-linejoin="miter" fill="none" stroke="#0000ff" d="M6.39069-2.11342 10.61754 2.11342M6.39069 2.11342 10.61754-2.11342"/>
<use data-text="&#x1d435;" xlink:href="#font_1_2477" transform="matrix(8.96638,0,0,-8.96638,204.39499,73.126018)"/>
<use data-text="1" xlink:href="#font_4_50" transform="matrix(5.97758,0,0,-5.97758,210.63599,75.36801)"/>
<use data-text="1" xlink:href="#font_4_50" transform="matrix(5.97758,0,0,-5.97758,213.62477,75.36801)"/>
<path transform="matrix(1,0,0,-1,185.096,82.43701)" stroke-width=".59776" stroke-linecap="butt" stroke-miterlimit="10" stroke-linejoin="miter" fill="none" stroke="#008000" d="M0 0H8.50412 17.00826"/>
<path transform="matrix(1,0,0,-1,185.096,82.43701)" stroke-width=".59776" stroke-linecap="butt" stroke-miterlimit="10" stroke-linejoin="miter" fill="none" stroke="#008000" d="M5.51529 0H11.49295M8.50412 2.98883V-2.98883"/>
<use data-text="&#x1d435;" xlink:href="#font_1_2477" transform="matrix(8.96638,0,0,-8.96638,204.39499,84.77502)"/>
<use data-text="3" xlink:href="#font_4_52" transform="matrix(5.97758,0,0,-5.97758,210.63599,87.016017)"/>
<use data-text="3" xlink:href="#font_4_52" transform="matrix(5.97758,0,0,-5.97758,213.62477,87.016017)"/>
<use data-text="(" xlink:href="#font_1_41" transform="matrix(8.96638,0,0,-8.96638,219.22299,84.77502)"/>
<use data-text="&#x1d708;" xlink:href="#font_1_3174" transform="matrix(8.96638,0,0,-8.96638,222.2088,84.77502)"/>
<use data-text="=" xlink:href="#font_1_62" transform="matrix(8.96638,0,0,-8.96638,229.19362,84.77502)"/>
<use data-text="0" xlink:href="#font_1_49" transform="matrix(8.96638,0,0,-8.96638,237.82825,84.77502)"/>
<use data-text="." xlink:href="#font_1_47" transform="matrix(8.96638,0,0,-8.96638,242.31143,84.77502)"/>
<use data-text="5" xlink:href="#font_1_54" transform="matrix(8.96638,0,0,-8.96638,244.55303,84.77502)"/>
<use data-text=")" xlink:href="#font_1_42" transform="matrix(8.96638,0,0,-8.96638,249.03621,84.77502)"/>
<path transform="matrix(1,0,0,-1,185.096,93.92901)" stroke-width=".59776" stroke-linecap="butt" stroke-dasharray="2.98883,2.98883" stroke-miterlimit="10" stroke-linejoin="miter" fill="none" stroke="#008000" d="M0 0H8.50412 17.00826"/>
<path transform="matrix(1,0,0,-1,185.096,93.92901)" stroke-width=".59776" stroke-linecap="butt" stroke-miterlimit="10" stroke-linejoin="miter" fill="none" stroke="#008000" d="M5.51529 0H11.49295M8.50412 2.98883V-2.98883"/>
<use data-text="&#x1d435;" xlink:href="#font_1_2477" transform="matrix(8.96638,0,0,-8.96638,204.39499,96.10902)"/>
<use data-text="2" xlink:href="#font_4_51" transform="matrix(5.97758,0,0,-5.97758,210.63599,98.35101)"/>
<use data-text="2" xlink:href="#font_4_51" transform="matrix(5.97758,0,0,-5.97758,213.62477,98.35101)"/>
<path transform="matrix(1,0,0,-1,185.096,105.26301)" stroke-width=".59776" stroke-linecap="butt" stroke-dasharray=".59776,1.99255" stroke-miterlimit="10" stroke-linejoin="miter" fill="none" stroke="#008000" d="M0 0H8.50412 17.00826"/>
<path transform="matrix(1,0,0,-1,185.096,105.26301)" stroke-width=".59776" stroke-linecap="butt" stroke-miterlimit="10" stroke-linejoin="miter" fill="none" stroke="#008000" d="M5.51529 0H11.49295M8.50412 2.98883V-2.98883"/>
<use data-text="&#x1d435;" xlink:href="#font_1_2477" transform="matrix(8.96638,0,0,-8.96638,204.39499,107.443019)"/>
<use data-text="1" xlink:href="#font_4_50" transform="matrix(5.97758,0,0,-5.97758,210.63599,109.68501)"/>
<use data-text="1" xlink:href="#font_4_50" transform="matrix(5.97758,0,0,-5.97758,213.62477,109.68501)"/>
</svg>
