<svg xmlns="http://www.w3.org/2000/svg" xmlns:xlink="http://www.w3.org/1999/xlink" xmlns:inkscape="http://www.inkscape.org/namespaces/inkscape" version="1.1" width="259.329" height="203.745" viewBox="0 0 259.329 203.745">
<defs>
<path id="font_1_49" d="M.37998963 .32505799C.37998963 .12722779 .33499146 .012313843 .25 .012313843 .1639862 .012313843 .11999512 .1262207 .11999512 .32904054 .11999512 .5318756 .16499329 .6497803 .24798584 .6497803 .33599855 .6497803 .37998963 .53286746 .37998963 .32505799M.47599793 .3300476C.47599793 .53486636 .3849945 .67578127 .2539978 .67578127 .09298706 .67578127 .023986817 .5128937 .023986817 .3360443 .023986817 .17218018 .07899475-.013671875 .25-.013671875 .41299439-.013671875 .47599793 .15818787 .47599793 .3300476Z"/>
<path id="font_1_3177" d="M.56799319 .4284668H.28599549C.18199158 .4284668 .117996219 .38246156 .07398987 .3024292H.08999634C.13398743 .35546876 .17098999 .35546876 .22898865 .35546876L.13999939 .14936829C.1269989 .12034607 .10899353 .09133911 .06599426 .079330448 .039993287 .07232666 .034988405 .046310426 .034988405 .031311037 .034988405 .007293701 .05999756-.0126953129 .085998538-.0126953129 .09799194-.0126953129 .11299133-.010696411 .12399292-.0017089844 .20799256 .061325075 .23899842 .23339844 .2849884 .35546876H.3789978C.35398866 .27142335 .32398988 .2013855 .30099488 .13035584 .29499818 .111343387 .2919922 .09133911 .2919922 .06832886 .2919922 .029159546 .30899049-.0068359377 .34899903-.0068359377 .4189911-.0068359377 .47200013 .06315613 .49299623 .13522339H.47698976C.45298768 .08117676 .4249878 .06915283 .4039917 .06915283 .38198854 .06915283 .3659973 .094177249 .3659973 .11720276 .3659973 .1842804 .4189911 .31240846 .43299867 .35546876H.54499819L.56799319 .4284668Z"/>
<path id="font_1_48" d="M.2869873 .67578127H.21998596L-.009002686-.013671875H.05899048L.2869873 .67578127Z"/>
<path id="font_1_57" d="M.2709961 .27209474C.33898927 .22613526 .36898805 .18617249 .36898805 .1242218 .36898805 .059280397 .32398988 .014328003 .25898744 .014328003 .18299866 .014328003 .13198853 .06626892 .13198853 .15820313 .13198853 .22314453 .15299988 .26409913 .21199036 .3120575L.2709961 .27209474M.35499574 .53286746C.35499574 .470932 .32899476 .42897035 .26098634 .3889923 .17298889 .4409485 .13598633 .48690797 .13598633 .54885867 .13598633 .6108093 .1789856 .6477661 .24598694 .6477661 .31399537 .6477661 .35499574 .60180667 .35499574 .53286746M.44499208 .15519715C.44499208 .23512268 .41299439 .28907777 .2899933 .37101747 .3889923 .42396546 .42399598 .45793153 .42399598 .53286746 .42399598 .6108093 .35499574 .67578127 .2559967 .67578127 .14498902 .67578127 .06199646 .61579897 .06199646 .5198822 .06199646 .4549408 .08299255 .41697694 .18598938 .3320465 .07899475 .2571106 .055999757 .21813965 .055999757 .14920044 .055999757 .055282594 .1349945-.013671875 .24798584-.013671875 .36799623-.013671875 .44499208 .05229187 .44499208 .15519715Z"/>
<path id="font_1_53" d="M.2919922 .23098755H.051986696L.2919922 .573822V.23098755M.47299195 .16699219V.23098755H.36999513V.67578127H.32598878L.011993408 .23098755V.16699219H.2919922V0H.36999513V.16699219H.47299195Z"/>
<path id="font_1_52" d="M.06098938 .50987246C.101989749 .58380129 .147995 .61576846 .20999146 .61576846 .27598573 .61576846 .31799317 .58180239 .31799317 .51387026 .31799317 .45292665 .28599549 .40795899 .23699951 .37998963 .21699524 .36799623 .19099427 .3570099 .15299988 .34402467V.33003236C.20999146 .33003236 .23298645 .32704164 .25498963 .3200531 .32398988 .3000641 .35899354 .2511139 .35899354 .17518616 .35899354 .09025574 .30299378 .022323609 .22898865 .022323609 .20098877 .022323609 .17999268 .027313233 .14299011 .05329895 .114990238 .073272708 .09899902 .07926941 .08198547 .07926941 .05899048 .07926941 .040985109 .06428528 .040985109 .043304445 .040985109 .0073242189 .07998657-.013671875 .15299988-.013671875 .24198914-.013671875 .33699037 .015319824 .3849945 .07926941 .4139862 .11723328 .43099977 .16618347 .43099977 .21913147 .43099977 .27108766 .4149933 .31704713 .3869934 .34802247 .3659973 .36999513 .34799195 .38198854 .3039856 .40097047 .37098695 .44093324 .39698792 .4908905 .39698792 .5388489 .39698792 .6207733 .33399964 .67578127 .24099732 .67578127 .13699341 .67578127 .07398987 .6087799 .04499817 .51387026L.06098938 .50987246Z"/>
<path id="font_1_51" d="M.47399903 .13696289 .45999146 .1429596C.4269867 .08699036 .4059906 .07598877 .3639984 .07598877H.12998963L.29499818 .2519226C.38398744 .34588624 .4229889 .42085267 .4229889 .4998169 .4229889 .59877017 .35099793 .67578127 .23799134 .67578127 .114990238 .67578127 .050994874 .5937805 .02999878 .4768219L.050994874 .47183229C.09098816 .5697937 .12599182 .6017761 .19799805 .6017761 .2829895 .6017761 .33699037 .55178835 .33699037 .4608307 .33699037 .37586976 .30099488 .29989625 .20698548 .200943L.0289917 .011993408V0H.41999818L.47399903 .13696289Z"/>
<path id="font_1_55" d="M.37799073 .18850708C.37799073 .08639526 .34098817 .014328003 .2689972 .014328003 .1749878 .014328003 .1269989 .11442566 .1269989 .2665863 .1269989 .3586731 .18598938 .3827057 .24299622 .3827057 .33599855 .3827057 .37799073 .31663514 .37799073 .18850708M.44599916 .68470767C.30799867 .66970828 .22898865 .6457062 .14299011 .55570986 .07199097 .48269654 .033996583 .38771058 .033996583 .27960206 .033996583 .20951844 .052993776 .138443 .08099365 .087402347 .115997318 .023330689 .1789856-.013671875 .2579956-.013671875 .32398988-.013671875 .37998963 .013320923 .4169922 .05937195 .44999696 .09941101 .46798707 .1554718 .46798707 .2195282 .46798707 .34866334 .3959961 .42871095 .2789917 .42871095 .23498535 .42871095 .20098877 .42170716 .1519928 .3836975 .1789856 .5346985 .29100038 .6427002 .44799806 .6687012L.44599916 .68470767Z"/>
<path id="font_1_50" d="M.3939972 0V.01499939C.31900025 .01499939 .29899598 .032989503 .29899598 .07597351V.67277529L.2899933 .67578127 .11099243 .5847931V.5708008L.13798523 .5807953C.1559906 .5877991 .17298889 .59280398 .18299866 .59280398 .20399475 .59280398 .21299744 .57780459 .21299744 .543808V.0949707C.21299744 .039978029 .19198609 .018997193 .117996219 .01499939V0H.3939972Z"/>
<clipPath id="clip_2">
<path transform="matrix(1,0,0,-1,52.841,170.181)" d="M0 0H194.27408V161.39362H0Z"/>
</clipPath>
<path id="font_1_3169" d="M.35598756 .30773927C.35299684 .29875184 .34700013 .270813 .33999635 .24784851 .30899049 .14901734 .24899292 .018249512 .18199158 .018249512 .13899231 .018249512 .12399292 .074157718 .12399292 .14303589 .12399292 .19094849 .1329956 .25782777 .14898682 .30773927H.35598756M.15899658 .34375C.18499756 .4628296 .2669983 .6389618 .33898927 .6389618 .37998963 .6389618 .3899994 .58291628 .3899994 .50987246 .3899994 .46884156 .37998963 .41378785 .36499024 .34375H.15899658M.47399903 .47183229C.47399903 .6049347 .4189911 .66796877 .34599305 .66796877 .1559906 .66796877 .039993287 .34173585 .039993287 .16798401 .039993287 .048202516 .08198547-.0107421879 .1769867-.0107421879 .33099366-.0107421879 .47399903 .2758026 .47399903 .47183229Z"/>
<path id="font_3_2477" d="M.33799745 .3143463C.35299684 .31835938 .37298585 .31835938 .3889923 .31835938 .46699525 .31835938 .5309906 .28330995 .5309906 .21022034 .5309906 .08004761 .43499757 .037994386 .34098817 .037994386 .31498719 .037994386 .29499818 .039993287 .269989 .04699707L.33799745 .3143463M.4059906 .61125186C.4189911 .61325076 .43399049 .6142578 .44898988 .6142578 .5029907 .6142578 .56799319 .5932617 .56799319 .5162964 .56799319 .41932679 .5119934 .35334779 .3999939 .35334779 .3849945 .35334779 .36698915 .35534669 .34700013 .35934449L.4059906 .61125186M.19799805 .653244 .19299317 .6372528H.21199036C.2709961 .6372528 .2899933 .62124636 .2899933 .5952606 .2899933 .5892639 .2889862 .5792694 .28799439 .5742645L.16499329 .07904053C.15699768 .04499817 .13798523 .015991211 .06199646 .015991211H.041992189L.037994386 0H.3619995C.56900027 0 .651001 .094070438 .651001 .19319153 .651001 .27830506 .58399966 .32035829 .5239868 .3313446L.5209961 .33535768C.54100039 .3403473 .56999209 .34835816 .59498599 .36134339 .6429901 .38534547 .6859894 .43032838 .6859894 .5082855 .6859894 .6442566 .5339966 .653244 .44999696 .653244H.19799805Z"/>
<path id="font_1_2505" d="M.36299134 .34014894C.36299134 .30915834 .35798646 .27018739 .34700013 .23519898 .31900025 .14323426 .25299073 .04927063 .18299866 .04927063 .15499878 .04927063 .1269989 .06626892 .1269989 .115249637 .1269989 .21121216 .20799256 .4111328 .30699159 .4111328 .34799195 .4111328 .36299134 .38713075 .36299134 .34014894M.5269928 .66796877 .37098695 .6439667 .375 .62898257C.38198854 .62997439 .3929901 .63197329 .4019928 .63197329 .42799378 .63197329 .43499757 .62498477 .43499757 .61198428 .43499757 .60798647 .43399049 .6040039 .43299867 .6000061L.37998963 .39112855H.37799073C.3769989 .41513063 .35398866 .4411316 .29699708 .4411316 .14299011 .4411316 .039993287 .21820069 .039993287 .115249637 .039993287 .06227112 .054992677-.01171875 .12799073-.01171875 .16499329-.01171875 .22499085 .0002746582 .29899598 .09326172H.3039856C.29599 .06326294 .2939911 .04927063 .2939911 .029266358 .2939911 .011276245 .3019867-.01171875 .33399964-.01171875 .3809967-.01171875 .43399049 .04827881 .46398927 .09326172L.45298768 .10525513C.43899537 .08425903 .41099549 .04927063 .3909912 .04927063 .3809967 .04927063 .37599183 .05227661 .37599183 .058273317 .37599183 .061264039 .3769989 .06726074 .37799073 .07026672L.5269928 .66796877Z"/>
<path id="font_3_50" d="M.3939972 0V.01499939C.31900025 .01499939 .29899598 .032989503 .29899598 .07597351V.67277529L.2899933 .67578127 .11099243 .5847931V.5708008L.13798523 .5807953C.1559906 .5877991 .17298889 .59280398 .18299866 .59280398 .20399475 .59280398 .21299744 .57780459 .21299744 .543808V.0949707C.21299744 .039978029 .19198609 .018997193 .117996219 .01499939V0H.3939972Z"/>
<path id="font_1_62" d="M.6369934 .12011719V.18611145H.04798889V.12011719H.6369934M.6369934 .31973268V.3857422H.04798889V.31973268H.6369934Z"/>
<path id="font_1_60" d="M.10699463-.14086914C.1769867-.10786438 .21899414-.049865724 .21899414 .013137817 .21899414 .067108158 .18399048 .10209656 .13899231 .10209656 .10598755 .10209656 .07998657 .07910156 .07998657 .04611206 .07998657 .013137817 .100997928-.005859375 .13798523-.005859375 .14698792-.0059661867 .1599884-.001953125 .1659851-.001953125 .17399597-.001953125 .17999268-.008956909 .17999268-.015960694 .17999268-.048965455 .1519928-.08596802 .09700012-.1219635L.10699463-.14086914M.19099427 .40296937C.19099427 .4329834 .1659851 .45898438 .13598633 .45898438 .10398865 .45898438 .07998657 .4349823 .07998657 .40296937 .07998657 .37297059 .10598755 .34797669 .13598633 .34797669 .1659851 .34797669 .19099427 .37297059 .19099427 .40296937Z"/>
<path id="font_3_51" d="M.47399903 .13696289 .45999146 .1429596C.4269867 .08699036 .4059906 .07598877 .3639984 .07598877H.12998963L.29499818 .2519226C.38398744 .34588624 .4229889 .42085267 .4229889 .4998169 .4229889 .59877017 .35099793 .67578127 .23799134 .67578127 .114990238 .67578127 .050994874 .5937805 .02999878 .4768219L.050994874 .47183229C.09098816 .5697937 .12599182 .6017761 .19799805 .6017761 .2829895 .6017761 .33699037 .55178835 .33699037 .4608307 .33699037 .37586976 .30099488 .29989625 .20698548 .200943L.0289917 .011993408V0H.41999818L.47399903 .13696289Z"/>
<path id="font_3_52" d="M.06098938 .50987246C.101989749 .58380129 .147995 .61576846 .20999146 .61576846 .27598573 .61576846 .31799317 .58180239 .31799317 .51387026 .31799317 .45292665 .28599549 .40795899 .23699951 .37998963 .21699524 .36799623 .19099427 .3570099 .15299988 .34402467V.33003236C.20999146 .33003236 .23298645 .32704164 .25498963 .3200531 .32398988 .3000641 .35899354 .2511139 .35899354 .17518616 .35899354 .09025574 .30299378 .022323609 .22898865 .022323609 .20098877 .022323609 .17999268 .027313233 .14299011 .05329895 .114990238 .073272708 .09899902 .07926941 .08198547 .07926941 .05899048 .07926941 .040985109 .06428528 .040985109 .043304445 .040985109 .0073242189 .07998657-.013671875 .15299988-.013671875 .24198914-.013671875 .33699037 .015319824 .3849945 .07926941 .4139862 .11723328 .43099977 .16618347 .43099977 .21913147 .43099977 .27108766 .4149933 .31704713 .3869934 .34802247 .3659973 .36999513 .34799195 .38198854 .3039856 .40097047 .37098695 .44093324 .39698792 .4908905 .39698792 .5388489 .39698792 .6207733 .33399964 .67578127 .24099732 .67578127 .13699341 .67578127 .07398987 .6087799 .04499817 .51387026L.06098938 .50987246Z"/>
</defs>
<path transform="matrix(1,0,0,-1,52.841,170.181)" stroke-width=".3985" stroke-linecap="butt" stroke-miterlimit="10" stroke-linejoin="miter" fill="none" stroke="#b0b0b0" d="M0 0V161.39362M48.56616 0V161.39362M97.13603 0V161.39362M145.70468 0V161.39362M194.2733 0V161.39362"/>
<path transform="matrix(1,0,0,-1,52.841,170.181)" stroke-width=".3985" stroke-linecap="butt" stroke-miterlimit="10" stroke-linejoin="miter" fill="none" stroke="#b0b0b0" d="M0 0H194.27408M0 40.34724H194.27408M0 80.69615H194.27408M0 121.04425H194.27408M0 161.39316H194.27408"/>
<path transform="matrix(1,0,0,-1,52.841,170.181)" stroke-width=".19925" stroke-linecap="butt" stroke-miterlimit="10" stroke-linejoin="miter" fill="none" stroke="#000000" d="M0-4.25174V0M48.56616-4.25174V0M97.13603-4.25174V0M145.70468-4.25174V0M194.2733-4.25174V0"/>
<path transform="matrix(1,0,0,-1,52.841,170.181)" stroke-width=".19925" stroke-linecap="butt" stroke-miterlimit="10" stroke-linejoin="miter" fill="none" stroke="#000000" d="M-4.25266 0H0M-4.25266 40.34724H0M-4.25266 80.69615H0M-4.25266 121.04425H0M-4.25266 161.39316H0"/>
<path transform="matrix(1,0,0,-1,52.841,170.181)" stroke-width=".3985" stroke-linecap="butt" stroke-miterlimit="10" stroke-linejoin="miter" fill="none" stroke="#000000" d="M0 0V161.39362H194.27408V0H0Z"/>
<use data-text="0" xlink:href="#font_1_49" transform="matrix(9.96264,0,0,-9.96264,50.350999,184.687)"/>
<use data-text="&#x1d70b;" xlink:href="#font_1_3177" transform="matrix(9.96264,0,0,-9.96264,94.503,184.687)"/>
<use data-text="/" xlink:href="#font_1_48" transform="matrix(9.96264,0,0,-9.96264,100.56028,184.687)"/>
<use data-text="8" xlink:href="#font_1_57" transform="matrix(9.96264,0,0,-9.96264,103.329898,184.687)"/>
<use data-text="&#x1d70b;" xlink:href="#font_1_3177" transform="matrix(9.96264,0,0,-9.96264,143.072,184.687)"/>
<use data-text="/" xlink:href="#font_1_48" transform="matrix(9.96264,0,0,-9.96264,149.1293,184.687)"/>
<use data-text="4" xlink:href="#font_1_53" transform="matrix(9.96264,0,0,-9.96264,151.89891,184.687)"/>
<use data-text="3" xlink:href="#font_1_52" transform="matrix(9.96264,0,0,-9.96264,189.149,184.687)"/>
<use data-text="&#x1d70b;" xlink:href="#font_1_3177" transform="matrix(9.96264,0,0,-9.96264,194.13033,184.687)"/>
<use data-text="/" xlink:href="#font_1_48" transform="matrix(9.96264,0,0,-9.96264,200.18762,184.687)"/>
<use data-text="8" xlink:href="#font_1_57" transform="matrix(9.96264,0,0,-9.96264,202.95723,184.687)"/>
<use data-text="&#x1d70b;" xlink:href="#font_1_3177" transform="matrix(9.96264,0,0,-9.96264,240.20801,184.687)"/>
<use data-text="/" xlink:href="#font_1_48" transform="matrix(9.96264,0,0,-9.96264,246.2653,184.687)"/>
<use data-text="2" xlink:href="#font_1_51" transform="matrix(9.96264,0,0,-9.96264,249.03491,184.687)"/>
<use data-text="0" xlink:href="#font_1_49" transform="matrix(9.96264,0,0,-9.96264,40.087999,173.479)"/>
<use data-text="&#x1d70b;" xlink:href="#font_1_3177" transform="matrix(9.96264,0,0,-9.96264,26.279999,133.172)"/>
<use data-text="/" xlink:href="#font_1_48" transform="matrix(9.96264,0,0,-9.96264,32.33728,133.172)"/>
<use data-text="6" xlink:href="#font_1_55" transform="matrix(9.96264,0,0,-9.96264,35.106897,133.172)"/>
<use data-text="4" xlink:href="#font_1_53" transform="matrix(9.96264,0,0,-9.96264,40.08822,133.172)"/>
<use data-text="&#x1d70b;" xlink:href="#font_1_3177" transform="matrix(9.96264,0,0,-9.96264,26.279999,92.784)"/>
<use data-text="/" xlink:href="#font_1_48" transform="matrix(9.96264,0,0,-9.96264,32.33728,92.784)"/>
<use data-text="3" xlink:href="#font_1_52" transform="matrix(9.96264,0,0,-9.96264,35.106897,92.784)"/>
<use data-text="2" xlink:href="#font_1_51" transform="matrix(9.96264,0,0,-9.96264,40.08822,92.784)"/>
<use data-text="3" xlink:href="#font_1_52" transform="matrix(9.96264,0,0,-9.96264,21.298,52.475999)"/>
<use data-text="&#x1d70b;" xlink:href="#font_1_3177" transform="matrix(9.96264,0,0,-9.96264,26.27932,52.475999)"/>
<use data-text="/" xlink:href="#font_1_48" transform="matrix(9.96264,0,0,-9.96264,32.336606,52.475999)"/>
<use data-text="6" xlink:href="#font_1_55" transform="matrix(9.96264,0,0,-9.96264,35.10622,52.475999)"/>
<use data-text="4" xlink:href="#font_1_53" transform="matrix(9.96264,0,0,-9.96264,40.08754,52.475999)"/>
<use data-text="&#x1d70b;" xlink:href="#font_1_3177" transform="matrix(9.96264,0,0,-9.96264,26.279999,12.128006)"/>
<use data-text="/" xlink:href="#font_1_48" transform="matrix(9.96264,0,0,-9.96264,32.33728,12.128006)"/>
<use data-text="1" xlink:href="#font_1_50" transform="matrix(9.96264,0,0,-9.96264,35.106897,12.128006)"/>
<use data-text="6" xlink:href="#font_1_55" transform="matrix(9.96264,0,0,-9.96264,40.08822,12.128006)"/>
<g clip-path="url(#clip_2)">
<path transform="matrix(1,0,0,-1,52.841,170.181)" stroke-width=".59776" stroke-linecap="butt" stroke-miterlimit="10" stroke-linejoin="miter" fill="none" stroke="#ff0000" d="M0 0 1.94273 1.42404 3.88548 2.84248 5.82822 4.2498 7.77095 5.64061 9.7137 7.0097 11.65645 8.35214 13.59918 9.66331 15.54193 10.93895 17.48466 12.17517 19.42741 13.36848 21.37016 14.51588 23.3129 15.61473 25.25565 16.6629 27.19838 17.65863 29.14111 18.60062 31.08388 19.48793 33.02661 20.32004 34.96935 21.09674 36.9121 21.81815 38.85483 22.48468 40.79758 23.09697 42.74033 23.65591 44.68306 24.1626 46.6258 24.61823 48.56854 25.02423 50.51129 25.38205 52.45403 25.69328 54.39677 25.95955 56.33951 26.18254 58.28224 26.36398 60.225 26.50558 62.16774 26.60909 64.11049 26.67618 66.05322 26.70859 67.99596 26.70795 69.93872 26.6759 71.88145 26.61403 73.82419 26.52386 75.76694 26.40689 77.70967 26.26457 79.65242 26.09825 81.59517 25.90927 83.5379 25.69891 85.48064 25.46838 87.42339 25.21884 89.36613 24.9514 91.30887 24.6671 93.25162 24.36697 95.19435 24.05193 97.13708 23.72289 99.07985 23.38072 101.02258 23.02623 102.96532 22.66016 104.90807 22.28323 106.8508 21.89616 108.79356 21.49957 110.7363 21.09407 112.67903 20.68024 114.62178 20.25859 116.56451 19.82967 118.50726 19.39394 120.45001 18.95183 122.39275 18.50378 124.33548 18.0502 126.27823 17.59145 128.22098 17.12788 130.16371 16.65982 132.10646 16.18758 134.0492 15.71144 135.99193 15.23167 137.9347 14.74855 139.87743 14.2623 141.82016 13.77315 143.76291 13.2813 145.70565 12.78694 147.64839 12.29027 149.59114 11.79147 151.53388 11.29066 153.47663 10.78806 155.41936 10.28375 157.3621 9.77788 159.30486 9.27057 161.24759 8.76196 163.19033 8.25214 165.13307 7.74121 167.07582 7.22928 169.01856 6.71643 170.9613 6.20274 172.90404 5.68832 174.84677 5.17325 176.78954 4.65755 178.73227 4.14131 180.675 3.62463 182.61775 3.10754 184.56049 2.59013 186.50324 2.07243 188.44599 1.55452 190.38872 1.03644 192.33147 .51825 194.2742 0"/>
<path transform="matrix(1,0,0,-1,52.841,170.181)" stroke-width=".59776" stroke-linecap="butt" stroke-miterlimit="10" stroke-linejoin="miter" fill="none" stroke="#0000ff" d="M0 0 1.94273 1.66405 3.88548 3.3279 5.82822 4.99136 7.77095 6.6542 9.7137 8.31622 11.65645 9.97722 13.59918 11.63695 15.54193 13.29523 17.48466 14.95178 19.42741 16.60638 21.37016 18.25879 23.3129 19.9087 25.25565 21.55585 27.19838 23.19997 29.14111 24.84071 31.08388 26.47775 33.02661 28.11076 34.96935 29.73935 36.9121 31.36313 38.85483 32.98169 40.79758 34.59459 42.74033 36.20132 44.68306 37.80142 46.6258 39.39435 48.56854 40.97952 50.51129 42.55634 52.45403 44.12415 54.39677 45.68225 56.33951 47.22993 58.28224 48.7664 60.225 50.29085 62.16774 51.80234 64.11049 53.29999 66.05322 54.78278 67.99596 56.2496 69.93872 57.69939 71.88145 59.13092 73.82419 60.54291 75.76694 61.93399 77.70967 63.30278 79.65242 64.6477 81.59517 65.96718 83.5379 67.25949 85.48064 68.52283 87.42339 69.7553 89.36613 70.95485 91.30887 72.11937 93.25162 73.24661 95.19435 74.33418 97.13708 75.37962 99.07985 76.38025 101.02258 77.33334 102.96532 78.23598 104.90807 79.0851 106.8508 79.87753 108.79356 80.60992 110.7363 81.27881 112.67903 81.88054 114.62178 82.41135 116.56451 82.86728 118.50726 83.24428 120.45001 83.53815 122.39275 83.74452 124.33548 83.85896 126.27823 83.87688 128.22098 83.7936 130.16371 83.60439 132.10646 83.30441 134.0492 82.88884 135.99193 82.35281 137.9347 81.6915 139.87743 80.90015 141.82016 79.97406 143.76291 78.90875 145.70565 77.69987 147.64839 76.34338 149.59114 74.83553 151.53388 73.17296 153.47663 71.35274 155.41936 69.37253 157.3621 67.23051 159.30486 64.92561 161.24759 62.45747 163.19033 59.82658 165.13307 57.03435 167.07582 54.08316 169.01856 50.9764 170.9613 47.71858 172.90404 44.31532 174.84677 40.77342 176.78954 37.1008 178.73227 33.30655 180.675 29.4009 182.61775 25.39508 184.56049 21.3014 186.50324 17.13298 188.44599 12.9038 190.38872 8.62845 192.33147 4.32204 194.2742 0"/>
<path transform="matrix(1,0,0,-1,52.841,170.181)" stroke-width=".59776" stroke-linecap="butt" stroke-miterlimit="10" stroke-linejoin="miter" fill="none" stroke="#008000" d="M0 0 1.94273 .89566 3.88548 1.79095 5.82822 2.68547 7.77095 3.57884 9.7137 4.47067 11.65645 5.36058 13.59918 6.24815 15.54193 7.13304 17.48466 8.0148 19.42741 8.89304 21.37016 9.76736 23.3129 10.63736 25.25565 11.5026 27.19838 12.36266 29.14111 13.21709 31.08388 14.06548 33.02661 14.90736 34.96935 15.74226 36.9121 16.56973 38.85483 17.3893 40.79758 18.20045 42.74033 19.00272 44.68306 19.79555 46.6258 20.57846 48.56854 21.35089 50.51129 22.11229 52.45403 22.8621 54.39677 23.59976 56.33951 24.32463 58.28224 25.03615 60.225 25.73367 62.16774 26.41655 64.11049 27.08414 66.05322 27.73578 67.99596 28.37073 69.93872 28.98834 71.88145 29.58786 73.82419 30.16855 75.76694 30.72963 77.70967 31.27037 79.65242 31.78992 81.59517 32.28749 83.5379 32.76227 85.48064 33.21335 87.42339 33.63994 89.36613 34.0411 91.30887 34.416 93.25162 34.76366 95.19435 35.0832 97.13708 35.3737 99.07985 35.63419 101.02258 35.86372 102.96532 36.06136 104.90807 36.22609 106.8508 36.35701 108.79356 36.45313 110.7363 36.51349 112.67903 36.53712 114.62178 36.52313 116.56451 36.47054 118.50726 36.37848 120.45001 36.24603 122.39275 36.07236 124.33548 35.85664 126.27823 35.59808 128.22098 35.29594 130.16371 34.94954 132.10646 34.55824 134.0492 34.12149 135.99193 33.63875 137.9347 33.10965 139.87743 32.53383 141.82016 31.91104 143.76291 31.24118 145.70565 30.52419 147.64839 29.76015 149.59114 28.94925 151.53388 28.09186 153.47663 27.18843 155.41936 26.23956 157.3621 25.246 159.30486 24.2087 161.24759 23.12866 163.19033 22.00714 165.13307 20.84549 167.07582 19.64525 169.01856 18.40813 170.9613 17.13597 172.90404 15.83076 174.84677 14.49469 176.78954 13.13002 178.73227 11.73921 180.675 10.32481 182.61775 8.8895 184.56049 7.43607 186.50324 5.96738 188.44599 4.48637 190.38872 2.9961 192.33147 1.4996 194.2742 0"/>
</g>
<path transform="matrix(1,0,0,-1,52.841,170.181)" stroke-width=".59776" stroke-linecap="butt" stroke-miterlimit="10" stroke-linejoin="miter" fill="none" stroke="#ff0000" d="M-1.99255 0H1.99255M0 1.99255V-1.99255"/>
<path transform="matrix(1,0,0,-1,52.841,170.181)" stroke-width=".59776" stroke-linecap="butt" stroke-miterlimit="10" stroke-linejoin="miter" fill="none" stroke="#ff0000" d="M46.57599 25.02423H50.5611M48.56854 27.01678V23.03168"/>
<path transform="matrix(1,0,0,-1,52.841,170.181)" stroke-width=".59776" stroke-linecap="butt" stroke-miterlimit="10" stroke-linejoin="miter" fill="none" stroke="#ff0000" d="M95.14453 23.72289H99.12964M97.13708 25.71544V21.73033"/>
<path transform="matrix(1,0,0,-1,52.841,170.181)" stroke-width=".59776" stroke-linecap="butt" stroke-miterlimit="10" stroke-linejoin="miter" fill="none" stroke="#ff0000" d="M143.71309 12.78694H147.6982M145.70565 14.7795V10.79439"/>
<path transform="matrix(1,0,0,-1,52.841,170.181)" stroke-width=".59776" stroke-linecap="butt" stroke-miterlimit="10" stroke-linejoin="miter" fill="none" stroke="#ff0000" d="M192.28165 0H196.26676M194.2742 1.99255V-1.99255"/>
<path transform="matrix(1,0,0,-1,52.841,170.181)" stroke-width=".59776" stroke-linecap="butt" stroke-miterlimit="10" stroke-linejoin="miter" fill="none" stroke="#ff0000" d=""/>
<path transform="matrix(1,0,0,-1,52.841,170.181)" stroke-width=".59776" stroke-linecap="butt" stroke-miterlimit="10" stroke-linejoin="miter" fill="none" stroke="#0000ff" d="M-1.40894-1.40894 1.40894 1.40894M-1.40894 1.40894 1.40894-1.40894"/>
<path transform="matrix(1,0,0,-1,52.841,170.181)" stroke-width=".59776" stroke-linecap="butt" stroke-miterlimit="10" stroke-linejoin="miter" fill="none" stroke="#0000ff" d="M47.1596 39.57057 49.9775 42.38847M47.1596 42.38847 49.9775 39.57057"/>
<path transform="matrix(1,0,0,-1,52.841,170.181)" stroke-width=".59776" stroke-linecap="butt" stroke-miterlimit="10" stroke-linejoin="miter" fill="none" stroke="#0000ff" d="M95.72815 73.97067 98.54604 76.78857M95.72815 76.78857 98.54604 73.97067"/>
<path transform="matrix(1,0,0,-1,52.841,170.181)" stroke-width=".59776" stroke-linecap="butt" stroke-miterlimit="10" stroke-linejoin="miter" fill="none" stroke="#0000ff" d="M144.2967 76.29092 147.1146 79.10883M144.2967 79.10883 147.1146 76.29092"/>
<path transform="matrix(1,0,0,-1,52.841,170.181)" stroke-width=".59776" stroke-linecap="butt" stroke-miterlimit="10" stroke-linejoin="miter" fill="none" stroke="#0000ff" d="M192.86527-1.40894 195.68315 1.40894M192.86527 1.40894 195.68315-1.40894"/>
<path transform="matrix(1,0,0,-1,52.841,170.181)" stroke-width=".59776" stroke-linecap="butt" stroke-miterlimit="10" stroke-linejoin="miter" fill="none" stroke="#0000ff" d=""/>
<path transform="matrix(1,0,0,-1,52.841,170.181)" d="M0 1.99255 1.49442 0 0-1.99255-1.49442 0Z" fill="#008000"/>
<path transform="matrix(1,0,0,-1,52.841,170.181)" stroke-width=".59776" stroke-linecap="butt" stroke-miterlimit="10" stroke-linejoin="miter" fill="none" stroke="#008000" d="M0 1.99255 1.49442 0 0-1.99255-1.49442 0Z"/>
<path transform="matrix(1,0,0,-1,52.841,170.181)" d="M48.56854 23.34344 50.06296 21.35089 48.56854 19.35834 47.07413 21.35089Z" fill="#008000"/>
<path transform="matrix(1,0,0,-1,52.841,170.181)" stroke-width=".59776" stroke-linecap="butt" stroke-miterlimit="10" stroke-linejoin="miter" fill="none" stroke="#008000" d="M48.56854 23.34344 50.06296 21.35089 48.56854 19.35834 47.07413 21.35089Z"/>
<path transform="matrix(1,0,0,-1,52.841,170.181)" d="M97.13708 37.36626 98.6315 35.3737 97.13708 33.38115 95.64267 35.3737Z" fill="#008000"/>
<path transform="matrix(1,0,0,-1,52.841,170.181)" stroke-width=".59776" stroke-linecap="butt" stroke-miterlimit="10" stroke-linejoin="miter" fill="none" stroke="#008000" d="M97.13708 37.36626 98.6315 35.3737 97.13708 33.38115 95.64267 35.3737Z"/>
<path transform="matrix(1,0,0,-1,52.841,170.181)" d="M145.70565 32.51674 147.20006 30.52419 145.70565 28.53163 144.21123 30.52419Z" fill="#008000"/>
<path transform="matrix(1,0,0,-1,52.841,170.181)" stroke-width=".59776" stroke-linecap="butt" stroke-miterlimit="10" stroke-linejoin="miter" fill="none" stroke="#008000" d="M145.70565 32.51674 147.20006 30.52419 145.70565 28.53163 144.21123 30.52419Z"/>
<path transform="matrix(1,0,0,-1,52.841,170.181)" d="M194.2742 1.99255 195.76862 0 194.2742-1.99255 192.77979 0Z" fill="#008000"/>
<path transform="matrix(1,0,0,-1,52.841,170.181)" stroke-width=".59776" stroke-linecap="butt" stroke-miterlimit="10" stroke-linejoin="miter" fill="none" stroke="#008000" d="M194.2742 1.99255 195.76862 0 194.2742-1.99255 192.77979 0Z"/>
<path transform="matrix(1,0,0,-1,52.841,170.181)" stroke-width=".59776" stroke-linecap="butt" stroke-miterlimit="10" stroke-linejoin="miter" fill="none" stroke="#008000" d=""/>
<use data-text="&#x1d703;" xlink:href="#font_1_3169" transform="matrix(9.96264,0,0,-9.96264,147.566,198.322)"/>
<use data-text="&#x1d703;" xlink:href="#font_1_3169" transform="matrix(0,-9.96264,-9.96264,-0,11.967995,94.701)"/>
<use data-text="&#x1d435;" xlink:href="#font_3_2477" transform="matrix(0,-7.47198,-7.47198,-0,14.458992,89.879)"/>
<path transform="matrix(1,0,0,-1,52.841,170.181)" d="M65.65253 117.33788H190.18848V157.96579H65.65253Z" fill="#ffffff" fill-opacity=".8"/>
<path transform="matrix(1,0,0,-1,52.841,170.181)" stroke-width=".3985" stroke-linecap="butt" stroke-miterlimit="10" stroke-linejoin="miter" fill="none" stroke="#cccccc" d="M65.65253 117.33788H190.18848V157.96579H65.65253Z"/>
<path transform="matrix(1,0,0,-1,121.781,20.317004)" stroke-width=".59776" stroke-linecap="butt" stroke-miterlimit="10" stroke-linejoin="miter" fill="none" stroke="#ff0000" d="M0 0H8.50412 17.00826"/>
<path transform="matrix(1,0,0,-1,121.781,20.317004)" stroke-width=".59776" stroke-linecap="butt" stroke-miterlimit="10" stroke-linejoin="miter" fill="none" stroke="#ff0000" d="M6.51157 0H10.49667M8.50412 1.99255V-1.99255"/>
<use data-text="&#x1d451;" xlink:href="#font_1_2505" transform="matrix(9.96264,0,0,-9.96264,141.08,22.936997)"/>
<use data-text="1" xlink:href="#font_3_50" transform="matrix(7.47198,0,0,-7.47198,146.38,25.427994)"/>
<use data-text="=" xlink:href="#font_1_62" transform="matrix(9.96264,0,0,-9.96264,153.292,22.936997)"/>
<use data-text="2" xlink:href="#font_1_51" transform="matrix(9.96264,0,0,-9.96264,162.87607,22.936997)"/>
<use data-text=";" xlink:href="#font_1_60" transform="matrix(9.96264,0,0,-9.96264,167.85739,22.936997)"/>
<use data-text="&#x1d451;" xlink:href="#font_1_2505" transform="matrix(9.96264,0,0,-9.96264,172.29076,22.936997)"/>
<use data-text="2" xlink:href="#font_3_51" transform="matrix(7.47198,0,0,-7.47198,177.595,25.427994)"/>
<use data-text="=" xlink:href="#font_1_62" transform="matrix(9.96264,0,0,-9.96264,184.507,22.936997)"/>
<use data-text="1" xlink:href="#font_1_50" transform="matrix(9.96264,0,0,-9.96264,194.09107,22.936997)"/>
<use data-text=";" xlink:href="#font_1_60" transform="matrix(9.96264,0,0,-9.96264,199.07239,22.936997)"/>
<use data-text="&#x1d451;" xlink:href="#font_1_2505" transform="matrix(9.96264,0,0,-9.96264,203.50576,22.936997)"/>
<use data-text="3" xlink:href="#font_3_52" transform="matrix(7.47198,0,0,-7.47198,208.81,25.427994)"/>
<use data-text="=" xlink:href="#font_1_62" transform="matrix(9.96264,0,0,-9.96264,215.722,22.936997)"/>
<use data-text="1" xlink:href="#font_1_50" transform="matrix(9.96264,0,0,-9.96264,225.30606,22.936997)"/>
<use data-text="/" xlink:href="#font_1_48" transform="matrix(9.96264,0,0,-9.96264,230.28739,22.936997)"/>
<use data-text="2" xlink:href="#font_1_51" transform="matrix(9.96264,0,0,-9.96264,233.05699,22.936997)"/>
<path transform="matrix(1,0,0,-1,121.781,32.531003)" stroke-width=".59776" stroke-linecap="butt" stroke-miterlimit="10" stroke-linejoin="miter" fill="none" stroke="#0000ff" d="M0 0H8.50412 17.00826"/>
<path transform="matrix(1,0,0,-1,121.781,32.531003)" stroke-width=".59776" stroke-linecap="butt" stroke-miterlimit="10" stroke-linejoin="miter" fill="none" stroke="#0000ff" d="M7.09517-1.40894 9.91307 1.40894M7.09517 1.40894 9.91307-1.40894"/>
<use data-text="&#x1d451;" xlink:href="#font_1_2505" transform="matrix(9.96264,0,0,-9.96264,141.08,35.151)"/>
<use data-text="1" xlink:href="#font_3_50" transform="matrix(7.47198,0,0,-7.47198,146.38,37.642)"/>
<use data-text="=" xlink:href="#font_1_62" transform="matrix(9.96264,0,0,-9.96264,153.292,35.151)"/>
<use data-text="1" xlink:href="#font_1_50" transform="matrix(9.96264,0,0,-9.96264,162.87607,35.151)"/>
<use data-text="/" xlink:href="#font_1_48" transform="matrix(9.96264,0,0,-9.96264,167.85739,35.151)"/>
<use data-text="2" xlink:href="#font_1_51" transform="matrix(9.96264,0,0,-9.96264,170.627,35.151)"/>
<use data-text=";" xlink:href="#font_1_60" transform="matrix(9.96264,0,0,-9.96264,175.60832,35.151)"/>
<use data-text="&#x1d451;" xlink:href="#font_1_2505" transform="matrix(9.96264,0,0,-9.96264,180.04169,35.151)"/>
<use data-text="2" xlink:href="#font_3_51" transform="matrix(7.47198,0,0,-7.47198,185.346,37.642)"/>
<use data-text="=" xlink:href="#font_1_62" transform="matrix(9.96264,0,0,-9.96264,192.258,35.151)"/>
<use data-text="2" xlink:href="#font_1_51" transform="matrix(9.96264,0,0,-9.96264,201.84204,35.151)"/>
<use data-text=";" xlink:href="#font_1_60" transform="matrix(9.96264,0,0,-9.96264,206.82337,35.151)"/>
<use data-text="&#x1d451;" xlink:href="#font_1_2505" transform="matrix(9.96264,0,0,-9.96264,211.25673,35.151)"/>
<use data-text="3" xlink:href="#font_3_52" transform="matrix(7.47198,0,0,-7.47198,216.561,37.642)"/>
<use data-text="=" xlink:href="#font_1_62" transform="matrix(9.96264,0,0,-9.96264,223.473,35.151)"/>
<use data-text="1" xlink:href="#font_1_50" transform="matrix(9.96264,0,0,-9.96264,233.05707,35.151)"/>
<path transform="matrix(1,0,0,-1,121.781,44.745004)" stroke-width=".59776" stroke-linecap="butt" stroke-miterlimit="10" stroke-linejoin="miter" fill="none" stroke="#008000" d="M0 0H8.50412 17.00826"/>
<path transform="matrix(1,0,0,-1,121.781,44.745004)" d="M8.50412 1.99255 9.99854 0 8.50412-1.99255 7.0097 0Z" fill="#008000" fill-opacity=".8"/>
<path transform="matrix(1,0,0,-1,121.781,44.745004)" stroke-width=".59776" stroke-linecap="butt" stroke-miterlimit="10" stroke-linejoin="miter" fill="none" stroke="#008000" d="M8.50412 1.99255 9.99854 0 8.50412-1.99255 7.0097 0Z"/>
<use data-text="&#x1d451;" xlink:href="#font_1_2505" transform="matrix(9.96264,0,0,-9.96264,141.08,47.365007)"/>
<use data-text="1" xlink:href="#font_3_50" transform="matrix(7.47198,0,0,-7.47198,146.38,49.856004)"/>
<use data-text="=" xlink:href="#font_1_62" transform="matrix(9.96264,0,0,-9.96264,153.292,47.365007)"/>
<use data-text="1" xlink:href="#font_1_50" transform="matrix(9.96264,0,0,-9.96264,162.87607,47.365007)"/>
<use data-text=";" xlink:href="#font_1_60" transform="matrix(9.96264,0,0,-9.96264,167.85739,47.365007)"/>
<use data-text="&#x1d451;" xlink:href="#font_1_2505" transform="matrix(9.96264,0,0,-9.96264,172.29076,47.365007)"/>
<use data-text="2" xlink:href="#font_3_51" transform="matrix(7.47198,0,0,-7.47198,177.595,49.856004)"/>
<use data-text="=" xlink:href="#font_1_62" transform="matrix(9.96264,0,0,-9.96264,184.507,47.365007)"/>
<use data-text="1" xlink:href="#font_1_50" transform="matrix(9.96264,0,0,-9.96264,194.09107,47.365007)"/>
<use data-text="/" xlink:href="#font_1_48" transform="matrix(9.96264,0,0,-9.96264,199.07239,47.365007)"/>
<use data-text="2" xlink:href="#font_1_51" transform="matrix(9.96264,0,0,-9.96264,201.842,47.365007)"/>
<use data-text=";" xlink:href="#font_1_60" transform="matrix(9.96264,0,0,-9.96264,206.82332,47.365007)"/>
<use data-text="&#x1d451;" xlink:href="#font_1_2505" transform="matrix(9.96264,0,0,-9.96264,211.25669,47.365007)"/>
<use data-text="3" xlink:href="#font_3_52" transform="matrix(7.47198,0,0,-7.47198,216.561,49.856004)"/>
<use data-text="=" xlink:href="#font_1_62" transform="matrix(9.96264,0,0,-9.96264,223.473,47.365007)"/>
<use data-text="2" xlink:href="#font_1_51" transform="matrix(9.96264,0,0,-9.96264,233.05707,47.365007)"/>
</svg>
