<svg xmlns="http://www.w3.org/2000/svg" xmlns:xlink="http://www.w3.org/1999/xlink" xmlns:inkscape="http://www.inkscape.org/namespaces/inkscape" version="1.1" width="247.991" height="91.878" viewBox="0 0 247.991 91.878">
<defs>
<path id="font_1_2487" d="M.66799929 .18998719H.6519928C.6469879 .17599488 .6419983 .1639862 .6349945 .15299988 .58898928 .05999756 .5379944 .037994386 .43598939 .037994386H.31399537C.3019867 .037994386 .27398683 .039993287 .27398683 .06199646 .27398683 .06399536 .2749939 .07798767 .2789917 .09298706L.40098573 .57398989C.4099884 .61099246 .43099977 .6369934 .5059967 .6369934H.5239868L.5279999 .6529999H.20098877L.19699097 .6369934H.21499634C.2769928 .6369934 .29100038 .61898806 .29100038 .59999087 .29100038 .59098818 .28799439 .57099917 .28399659 .5549927L.1659851 .07798767C.1579895 .04399109 .13398743 .015991211 .05899048 .015991211H.041992189L.037994386 0H.6069946L.66799929 .18998719Z"/>
<path id="font_1_1036" d="M.85598757 .25811769C.7599945 .29812623 .6839905 .37312318 .61898806 .44812013L.598999 .42912293C.62098696 .39611817 .6519928 .36112977 .68099978 .33312989 .69099429 .32312013 .69499209 .3171234 .69499209 .30812074 .69499209 .29812623 .67900088 .2861328 .6689911 .2861328H.069992069V.22012329H.66799929C.6859894 .22012329 .69400027 .21012879 .69400027 .20011902 .69400027 .19212342 .68899539 .18112183 .6799927 .17211914 .6499939 .14112854 .62098696 .10913086 .59799197 .0761261L.6179962 .057128908C.6839905 .13311768 .7599945 .2071228 .85598757 .24812317V.25811769Z"/>
<path id="font_1_1167" d="M.43299867 .18103028C.4059906 .14501953 .35798646 .083999637 .2689972 .083999637 .18099976 .083999637 .12998963 .1670227 .12998963 .25204469 .12998963 .31607057 .17399597 .37109376 .22999573 .37109376 .2979889 .37109376 .36099244 .30307008 .43299867 .184021V.18103028M.49899293 .2450409C.5279999 .28675843 .56599429 .34570313 .6549988 .34570313 .7429962 .34570313 .7939911 .2687683 .7939911 .1778717 .7939911 .11393738 .75 .05899048 .69400027 .05899048 .6259918 .05899048 .57099917 .122924808 .49899293 .24180603V.2450409M.85398867 .22181702C.85398867 .35569764 .7619934 .42970277 .6719971 .42970277 .57099917 .42970277 .5249939 .36569215 .47898866 .28276063 .38398744 .41108705 .33399964 .43008424 .26098634 .43008424 .20298767 .43008424 .069992069 .38407899 .069992069 .20002747 .069992069 .06199646 .1599884 0 .24598694 0 .34199525 0 .4099884 .053985597 .45498658 .14501953 .5169983 .052993776 .57398989 0 .6559906 0 .7819977 0 .85398867 .125 .85398867 .22203064V.22181702Z"/>
<path id="font_1_2503" d="M.1789856 .25234986C.18998719 .29736329 .22399903 .38639833 .29599 .38639833 .32899476 .38639833 .36698915 .36439515 .36698915 .2943573 .36698915 .19232178 .30099488 .018249512 .1789856 .018249512 .1559906 .018249512 .12399292 .030258179 .12399292 .037261964L.1789856 .25234986M.21398926 .3824005 .2869873 .66796877 .1289978 .6439667 .13198853 .628006C.13999939 .6309967 .1519928 .6319885 .1619873 .6319885 .1749878 .6319885 .18998719 .6240082 .19099427 .6110382 .19099427 .6080475 .18998719 .6040497 .18899536 .60006716L.04499817 .037261964C.08999634 .007247925 .1309967-.0107421879 .18399048-.0107421879 .34098817-.0107421879 .44999696 .16931153 .44999696 .2903595 .44999696 .37239076 .40899659 .44140626 .33898927 .44140626 .2899933 .44140626 .25099183 .4104004 .21798706 .3784027L.21398926 .3824005Z"/>
<path id="font_1_2504" d="M.36299134 .11128235C.32798768 .07727051 .28199769 .04425049 .22099304 .04425049 .17599488 .04425049 .1269989 .06625366 .1269989 .1532898 .1269989 .23332215 .18399048 .4123993 .30299378 .4123993 .32699586 .4123993 .33699037 .4033966 .33699037 .39138795 .33699037 .36938478 .30799867 .3573761 .30799867 .33337403 .30799867 .31636048 .31999208 .29534913 .34599305 .29534913 .38398744 .29534913 .3999939 .32736207 .3999939 .36538697 .3999939 .4143982 .35299684 .44140626 .30299378 .44140626 .16099549 .44140626 .039993287 .28434754 .039993287 .14428711 .039993287 .06726074 .07998657-.0107421879 .1769867-.0107421879 .2619934-.0107421879 .32398988 .038253786 .375 .0982666L.36299134 .11128235Z"/>
<path id="font_1_62" d="M.6369934 .12011719V.18611145H.04798889V.12011719H.6369934M.6369934 .31973268V.3857422H.04798889V.31973268H.6369934Z"/>
<path id="font_1_3178" d="M.21199036 .23834229C.23399353 .3323822 .28399659 .38539125 .33699037 .38539125 .3600006 .38539125 .3880005 .36538697 .3880005 .30236817 .3880005 .19033814 .31298829 .01727295 .21199036 .01727295 .19999695 .01727295 .17999268 .022277832 .1659851 .0382843L.21199036 .23834229M.02999878-.182724H.11299133L.15699768 .0062713625C.17599488-.0077209474 .19400025-.01171875 .21798706-.01171875 .3619995-.01171875 .47200013 .15731812 .47200013 .2863617 .47200013 .3874054 .43899537 .44140626 .37799073 .44140626 .34199525 .44140626 .31199647 .42840577 .27999879 .4123993 .21299744 .37939454 .15299988 .31037904 .11399841 .15332031L.02999878-.182724Z"/>
<path id="font_1_974" d="M.2679901 .3962555C.31999208 .4772644 .375 .5582733 .42399598 .60827639 .44898988 .63427737 .47799684 .65527346 .5059967 .65527346 .5289917 .65527346 .54100039 .6432648 .54100039 .6242676 .54100039 .5282593 .42599488 .43026734 .2689972 .39526368L.2679901 .3962555M.07699585 .38926698C.10398865 .37025453 .1349945 .3612671 .16499329 .36026 .15098572 .33825685 .13699341 .31625367 .125 .29426576 .07798767 .21224976 .04798889 .1312561 .04798889 .07624817 .04798889 .018249512 .08799744-.0107421879 .1349945-.0107421879 .19799805-.0107421879 .25698854 .04624939 .3619995 .16925049L.34098817 .18624878C.24398804 .07424927 .18899536 .019256592 .14199829 .019256592 .114990238 .019256592 .10598755 .038253786 .10598755 .06225586 .10598755 .1292572 .19699097 .27626039 .24899292 .36026 .4249878 .386261 .57099917 .5152588 .57099917 .6202698 .57099917 .66625979 .548996 .6872711 .5069885 .6872711 .4249878 .6872711 .2899933 .5452728 .18499756 .3902588 .15499878 .3902588 .12399292 .3922577 .09098816 .41526795L.07699585 .38926698Z"/>
<path id="font_1_2513" d="M.6669922 .10708618C.647995 .0700531 .621994 .054031373 .6049957 .054031373 .59599307 .054031373 .58999636 .058029176 .58999636 .06604004 .58999636 .06904602 .59098818 .07505798 .59199526 .078063968L.6529999 .30932618C.6589966 .3333435 .6599884 .35237123 .6599884 .37039186 .6599884 .41540528 .6419983 .44140626 .60598757 .44140626 .58599856 .44140626 .5669861 .43440248 .54499819 .41940309 .49598695 .38639833 .44400025 .32434083 .4149933 .27227784H.4099884L.41999818 .3083191C.42599488 .32833863 .42900086 .34335328 .42900086 .36038209 .42900086 .4044037 .41099549 .44140626 .37399293 .44140626 .33599855 .44140626 .27598573 .41540528 .18199158 .27227784H.17599488L.21998596 .44140626 .06298828 .41740418 .06498718 .4033966C.07299805 .4044037 .083999637 .4053955 .09199524 .4053955 .11898804 .4053955 .125 .39239503 .125 .37438966L.02999878 0H.10798645L.14299011 .13511658C.15899658 .19619751 .2689972 .37739564 .32099916 .37739564 .33898927 .37739564 .34399415 .359375 .34399415 .33935548 .34399415 .32434083 .34098817 .3083191 .33898927 .2993164L.2619934 0H.34098817L.375 .13511658C.3899994 .19619751 .5 .37739564 .55400088 .37739564 .57199099 .37739564 .5779877 .359375 .5779877 .33935548 .5779877 .32234193 .57598879 .31332398 .57199099 .2993164L.5159912 .078063968C.5109863 .058029176 .5099945 .04801941 .5099945 .041015626 .5099945 .0021820069 .5269928-.0078125 .548996-.0078125 .59599307-.0078125 .647995 .04219055 .6799927 .09623718L.6669922 .10708618Z"/>
<path id="font_1_2514" d="M.46699525 .096206668 .45399476 .10720825C.43998719 .09020996 .41600038 .05418396 .3919983 .05418396 .3809967 .05418396 .37799073 .062179567 .3769989 .06819153 .3769989 .07319641 .3769989 .07620239 .37799073 .078201297L.43699647 .3093567C.44198609 .32936097 .44799806 .35438539 .44799806 .37939454 .44799806 .4123993 .43598939 .44140626 .3919983 .44140626 .33198548 .44140626 .27198792 .37539674 .23199463 .32536317 .22999573 .32235719 .18099976 .25231935 .17599488 .25231935H.17298889L.22399903 .44140626 .06498718 .418396 .066986087 .4033966C.07398987 .4044037 .084991458 .4064026 .09498596 .4064026 .12199402 .4064026 .125 .39239503 .125 .37438966L.02999878 0H.10699463L.13999939 .12411499C.1459961 .1451416 .17199707 .19218445 .20799256 .24624634 .23899842 .29330445 .3019867 .37939454 .33999635 .37939454 .35798646 .37939454 .3639984 .36038209 .3639984 .34135438 .3639984 .3273468 .35899354 .307312 .35699464 .2993164L.2999878 .078063968C.29699708 .06704712 .29299928 .05102539 .29299928 .038009645 .29299928 .015182495 .3019867-.0078125 .33399964-.0078125 .38598634-.0078125 .43399049 .05618286 .46199037 .09020996L.46699525 .096206668Z"/>
</defs>
<path transform="matrix(1,0,0,-1,127.731,45.939)" stroke-width=".3985" stroke-linecap="butt" stroke-miterlimit="10" stroke-linejoin="miter" fill="none" stroke="#ff0000" d="M-81.71156 43.15051 118.06908 6.7946"/>
<path transform="matrix(1,0,0,-1,127.731,45.939)" stroke-width=".3985" stroke-linecap="butt" stroke-miterlimit="10" stroke-linejoin="miter" fill="none" stroke="#ff0000" d="M-118.06908-6.7946 81.71156-43.15051"/>
<path transform="matrix(1,0,0,-1,127.731,45.939)" stroke-width=".3985" stroke-linecap="butt" stroke-dasharray="2.98883,2.98883" stroke-miterlimit="10" stroke-linejoin="miter" fill="none" stroke="#ff0000" d="M81.71156-43.15051 118.06908 6.7946"/>
<path transform="matrix(1,0,0,-1,127.731,45.939)" stroke-width=".3985" stroke-linecap="butt" stroke-miterlimit="10" stroke-linejoin="miter" fill="none" stroke="#ff0000" d="M118.06557 6.79028 118.02806 7.08878 117.9188 7.28754 117.73663 7.38336 117.48228 7.37576 117.15756 7.26595 116.76288 7.05293 116.30028 6.73853 115.77225 6.32465 115.17964 5.81139 114.52536 5.20105 113.81294 4.49794 113.04362 3.70232 112.22183 2.81917 111.35045 1.8516 110.43227 .80232 109.47235-.32225 108.4734-1.51926 107.44008-2.78322 106.37656-4.10883 105.28665-5.4915 104.17476-6.92567 103.04636-8.40363 101.90453-9.92279 100.75504-11.47409 99.60225-13.05212 98.45042-14.65129 97.30428-16.26459 96.16832-17.88579 95.04755-19.508 93.94598-21.12521 92.86917-22.72978 91.81996-24.31662 90.80304-25.87907 89.8235-27.40955 88.88391-28.90369 87.98834-30.35475 87.14192-31.75543 86.34575-33.10281 85.60417-34.38983 84.92049-35.61133 84.29704-36.76245 83.73628-37.83925 83.24097-38.83598 82.81166-39.75104 82.45224-40.57793 82.16248-41.31505 81.94394-41.95934 81.79861-42.50673 81.72485-42.9578V-43.30777L81.79828-43.55658 81.94394-43.70396 82.16248-43.74785 82.45224-43.68912 82.81143-43.52882 83.24075-43.26405 83.73628-42.89987 84.2965-42.43674 84.92049-41.87418 85.60417-41.217 86.34541-40.46724 87.1417-39.62698 87.98811-38.70213 88.88358-37.69281 89.82318-36.6054 90.80272-35.4446 91.81975-34.2126 92.86884-32.9172 93.94598-31.56273 95.04755-30.1531 96.16798-28.6968 97.30371-27.19725 98.44987-25.66148 99.60191-24.09572 100.75449-22.50674 101.90396-20.89984 103.04579-19.2818 104.17455-17.65901 105.28632-16.03844 106.37624-14.42656 107.43985-12.83002 108.47285-11.25531 109.47214-9.70728 110.43193-8.19467 111.34991-6.72151 112.2216-5.29451 113.04329-3.91994 113.8126-2.60185 114.52536-1.34717 115.1793-.16032 115.77203 .95448 116.30028 1.99196 116.76288 2.94852 117.15756 3.81993 117.48206 4.60193 117.73663 5.29352 117.91858 5.88922 118.02806 6.38852 118.06523 6.78984"/>
<path transform="matrix(1,0,0,-1,127.731,45.939)" stroke-width=".3985" stroke-linecap="butt" stroke-miterlimit="10" stroke-linejoin="miter" fill="none" stroke="#ff0000" d="M-81.71509 43.14618-81.72485 43.30777-81.75258 43.44467-81.79861 43.55612-81.86186 43.64343-81.94394 43.70425-82.044 43.73926-82.16248 43.74785-82.29837 43.73166-82.45224 43.68912-82.62308 43.62184-82.81143 43.52882-83.01776 43.40883-83.24075 43.26405-83.48036 43.09442-83.73628 42.89987-84.0084 42.68054-84.29704 42.43597-84.60101 42.16728-84.92049 41.87418-85.25528 41.55695-85.60417 41.217-85.9677 40.85384-86.34575 40.46678-86.73703 40.05821-87.1417 39.62698-87.5588 39.17506-87.98834 38.70183-88.43019 38.20749-88.88358 37.69281-89.34837 37.15822-89.82318 36.6054-90.30829 36.03363-90.80272 35.4446-91.30724 34.83662-91.81975 34.21289-92.34056 33.57266-92.86884 32.9172-93.4041 32.24706-93.94598 31.56273-94.494 30.86438-95.04733 30.1537-95.60588 29.4302-96.16832 28.69633-96.73428 27.95226-97.30394 27.19724-97.87611 26.43309-98.45021 25.66103-99.0256 24.88179-99.60191 24.09572-100.1784 23.30376-100.7547 22.50644-101.33023 21.70459-101.90453 20.89908-102.47638 20.0913-103.04602 19.2815-103.61234 18.4701-104.17455 17.65901-104.7331 16.84789-105.28632 16.03844-105.83466 15.23067-106.37624 14.42656-106.91148 13.6261-107.43985 12.83002-107.9607 12.03926-108.4734 11.25455-108.97762 10.4768-109.47214 9.70728-109.95715 8.94633-110.43227 8.1942-110.89674 7.4522-111.35025 6.72105-111.7923 6.00113-112.22183 5.2942-112.63872 4.60045-113.04362 3.9195-113.43489 3.25307-113.81294 2.6014-114.17647 1.96605-114.52536 1.34717-114.86015 .74455-115.1793 .16032-115.4836-.40656-115.77203-.95476-116.04436-1.48335-116.30006-1.99165-116.53969-2.48009-116.76288-2.94852-116.96898-3.39514-117.15756-3.81993-117.3284-4.22203-117.48206-4.60193-117.61816-4.95915-117.73663-5.29352-117.8367-5.60344-117.91858-5.8895-117.98203-6.15083-118.02806-6.3888-118.05579-6.6019-118.06523-6.78984"/>
<path transform="matrix(1,0,0,-1,127.731,45.939)" stroke-width=".3985" stroke-linecap="butt" stroke-dasharray="2.98883,2.98883" stroke-miterlimit="10" stroke-linejoin="miter" fill="none" stroke="#ff0000" d="M18.17523 24.96823 18.16547 25.12982 18.13773 25.26672 18.0917 25.37817 18.02846 25.46548 17.94637 25.5263 17.84631 25.56131 17.72784 25.5699 17.59195 25.55371 17.43808 25.51117 17.26724 25.4439 17.07889 25.35088 16.87254 25.23088 16.64957 25.0861 16.40996 24.91647 16.15402 24.72192 15.88191 24.5026 15.59328 24.25803 15.2893 23.98933 14.96982 23.69623 14.63503 23.379 14.28615 23.03905 13.92262 22.67589 13.54456 22.28883 13.15329 21.88026 12.74861 21.44904 12.3315 20.99712 11.90198 20.52388 11.46013 20.02954 11.00674 19.51486 10.54195 18.98027 10.06714 18.42744 9.58203 17.85568 9.0876 17.26665 8.58307 16.65868 8.07057 16.03494 7.54974 15.39471 7.02148 14.73926 6.48622 14.0691 5.94434 13.38478 5.39632 12.68643 4.84297 11.97574 4.28442 11.25226 3.722 10.51839 3.15604 9.7743 2.58638 9.01929 2.01419 8.25514 1.44011 7.48308 .86472 6.70384 .2884 5.91777-.28807 5.12581-.86438 4.32849-1.4399 3.52664-2.01419 2.72113-2.58604 1.91335-3.1557 1.10355-3.722 .29214-4.28421-.51892-4.84276-1.33005-5.39598-2.1395-5.94434-2.94727-6.4859-3.75137-7.02115-4.55183-7.54953-5.34792-8.07036-6.13867-8.58307-6.92339-9.08728-7.70113-9.58182-8.47066-10.06682-9.2316-10.54195-9.98373-11.00641-10.72574-11.45992-11.45688-11.90198-12.1768-12.3315-12.88373-12.74838-13.57748-13.15329-14.25844-13.54456-14.92487-13.92262-15.57654-14.28615-16.21188-14.63503-16.83076-14.96982-17.43338-15.28897-18.01761-15.59328-18.5845-15.8817-19.1327-16.15402-19.6613-16.40974-20.1696-16.64935-20.65804-16.87254-21.12646-17.07866-21.57309-17.26724-21.99788-17.43808-22.39998-17.59172-22.77988-17.72784-23.1371-17.84631-23.47147-17.94637-23.78139-18.02824-24.06744-18.0917-24.32878-18.13773-24.56674-18.16547-24.77985-18.1749-24.96779"/>
<path transform="matrix(1,0,0,-1,127.731,45.939)" stroke-width=".3985" stroke-linecap="butt" stroke-dasharray="2.98883,2.98883" stroke-miterlimit="10" stroke-linejoin="miter" fill="none" stroke="#7f807f" d="M0 0 99.89032-18.17795"/>
<use data-text="&#x1d43f;" xlink:href="#font_1_2487" transform="matrix(9.96264,0,0,-9.96264,181.196,51.508)"/>
<use data-text="&#x2192;" xlink:href="#font_1_1036" transform="matrix(9.96264,0,0,-9.96264,191.00919,51.508)"/>
<use data-text="&#x221e;" xlink:href="#font_1_1167" transform="matrix(9.96264,0,0,-9.96264,203.0042,51.508)"/>
<path transform="matrix(1,0,0,-1,127.731,45.939)" stroke-width=".3985" stroke-linecap="butt" stroke-dasharray="2.98883,2.98883" stroke-miterlimit="10" stroke-linejoin="miter" fill="none" stroke="#7f807f" d="M0 0 18.17874 24.97256"/>
<use data-text="&#x1d44f;" xlink:href="#font_1_2503" transform="matrix(9.96264,0,0,-9.96264,149.43001,17.336998)"/>
<path transform="matrix(1,0,0,-1,127.731,45.939)" stroke-width=".3985" stroke-linecap="butt" stroke-dasharray="2.98883,2.98883" stroke-miterlimit="10" stroke-linejoin="miter" fill="none" stroke="#7f807f" d="M0 0V5.5236"/>
<use data-text="&#x1d450;" xlink:href="#font_1_2504" transform="matrix(9.96264,0,0,-9.96264,94.215007,42.830999)"/>
<use data-text="=" xlink:href="#font_1_62" transform="matrix(9.96264,0,0,-9.96264,101.607288,42.830999)"/>
<use data-text="&#x1d70c;" xlink:href="#font_1_3178" transform="matrix(9.96264,0,0,-9.96264,111.20131,42.830999)"/>
<use data-text="&#x1d44f;" xlink:href="#font_1_2503" transform="matrix(9.96264,0,0,-9.96264,117.86631,42.830999)"/>
<path transform="matrix(1,0,0,-1,127.731,45.939)" stroke-width=".3985" stroke-linecap="butt" stroke-miterlimit="10" stroke-linejoin="miter" fill="none" stroke="#000000" d="M0 0 18.01779-3.27888"/>
<path transform="matrix(.98381,.17902,.17902,-.98381,145.7488,49.21788)" d="M1.99252 0-1.19551 1.59401 0 0-1.19551-1.59401"/>
<use data-text="&#x2113;" xlink:href="#font_1_974" transform="matrix(9.96264,0,0,-9.96264,151.229,59.939)"/>
<path transform="matrix(1,0,0,-1,151.229,62.35)" stroke-width=".658" stroke-linecap="butt" stroke-miterlimit="10" stroke-linejoin="miter" fill="none" stroke="#000000" d="M0 0H5.768"/>
<path transform="matrix(1,0,0,-1,127.731,45.939)" stroke-width=".3985" stroke-linecap="butt" stroke-miterlimit="10" stroke-linejoin="miter" fill="none" stroke="#000000" d="M0 0 6.0989 8.37813"/>
<path transform="matrix(.5885,-.80847,-.80847,-.5885,133.8299,37.56089)" d="M1.99252 0-1.19551 1.59401 0 0-1.19551-1.59401"/>
<use data-text="&#x1d45a;" xlink:href="#font_1_2513" transform="matrix(9.96264,0,0,-9.96264,138.522,36.462999)"/>
<path transform="matrix(1,0,0,-1,138.522,38.843999)" stroke-width=".658" stroke-linecap="butt" stroke-miterlimit="10" stroke-linejoin="miter" fill="none" stroke="#000000" d="M0 0H7.073"/>
<path transform="matrix(1,0,0,-1,127.731,45.939)" stroke-width=".3985" stroke-linecap="butt" stroke-miterlimit="10" stroke-linejoin="miter" fill="none" stroke="#000000" d="M0 0V16.41931"/>
<path transform="matrix(0,-1,-1,-0,127.731,29.51969)" d="M1.99252 0-1.19551 1.59401 0 0-1.19551-1.59401"/>
<use data-text="&#x1d45b;" xlink:href="#font_1_2514" transform="matrix(9.96264,0,0,-9.96264,125.256008,20.64)"/>
<path transform="matrix(1,0,0,-1,125.256008,23.020997)" stroke-width=".658" stroke-linecap="butt" stroke-miterlimit="10" stroke-linejoin="miter" fill="none" stroke="#000000" d="M0 0H4.951"/>
</svg>
