<svg xmlns="http://www.w3.org/2000/svg" xmlns:xlink="http://www.w3.org/1999/xlink" xmlns:inkscape="http://www.inkscape.org/namespaces/inkscape" version="1.1" width="229.769" height="198.863" viewBox="0 0 229.769 198.863">
<defs>
<path id="font_1_49" d="M.37998963 .32505799C.37998963 .12722779 .33499146 .012313843 .25 .012313843 .1639862 .012313843 .11999512 .1262207 .11999512 .32904054 .11999512 .5318756 .16499329 .6497803 .24798584 .6497803 .33599855 .6497803 .37998963 .53286746 .37998963 .32505799M.47599793 .3300476C.47599793 .53486636 .3849945 .67578127 .2539978 .67578127 .09298706 .67578127 .023986817 .5128937 .023986817 .3360443 .023986817 .17218018 .07899475-.013671875 .25-.013671875 .41299439-.013671875 .47599793 .15818787 .47599793 .3300476Z"/>
<path id="font_1_3177" d="M.56799319 .4284668H.28599549C.18199158 .4284668 .117996219 .38246156 .07398987 .3024292H.08999634C.13398743 .35546876 .17098999 .35546876 .22898865 .35546876L.13999939 .14936829C.1269989 .12034607 .10899353 .09133911 .06599426 .079330448 .039993287 .07232666 .034988405 .046310426 .034988405 .031311037 .034988405 .007293701 .05999756-.0126953129 .085998538-.0126953129 .09799194-.0126953129 .11299133-.010696411 .12399292-.0017089844 .20799256 .061325075 .23899842 .23339844 .2849884 .35546876H.3789978C.35398866 .27142335 .32398988 .2013855 .30099488 .13035584 .29499818 .111343387 .2919922 .09133911 .2919922 .06832886 .2919922 .029159546 .30899049-.0068359377 .34899903-.0068359377 .4189911-.0068359377 .47200013 .06315613 .49299623 .13522339H.47698976C.45298768 .08117676 .4249878 .06915283 .4039917 .06915283 .38198854 .06915283 .3659973 .094177249 .3659973 .11720276 .3659973 .1842804 .4189911 .31240846 .43299867 .35546876H.54499819L.56799319 .4284668Z"/>
<path id="font_1_48" d="M.2869873 .67578127H.21998596L-.009002686-.013671875H.05899048L.2869873 .67578127Z"/>
<path id="font_1_57" d="M.2709961 .27209474C.33898927 .22613526 .36898805 .18617249 .36898805 .1242218 .36898805 .059280397 .32398988 .014328003 .25898744 .014328003 .18299866 .014328003 .13198853 .06626892 .13198853 .15820313 .13198853 .22314453 .15299988 .26409913 .21199036 .3120575L.2709961 .27209474M.35499574 .53286746C.35499574 .470932 .32899476 .42897035 .26098634 .3889923 .17298889 .4409485 .13598633 .48690797 .13598633 .54885867 .13598633 .6108093 .1789856 .6477661 .24598694 .6477661 .31399537 .6477661 .35499574 .60180667 .35499574 .53286746M.44499208 .15519715C.44499208 .23512268 .41299439 .28907777 .2899933 .37101747 .3889923 .42396546 .42399598 .45793153 .42399598 .53286746 .42399598 .6108093 .35499574 .67578127 .2559967 .67578127 .14498902 .67578127 .06199646 .61579897 .06199646 .5198822 .06199646 .4549408 .08299255 .41697694 .18598938 .3320465 .07899475 .2571106 .055999757 .21813965 .055999757 .14920044 .055999757 .055282594 .1349945-.013671875 .24798584-.013671875 .36799623-.013671875 .44499208 .05229187 .44499208 .15519715Z"/>
<path id="font_1_53" d="M.2919922 .23098755H.051986696L.2919922 .573822V.23098755M.47299195 .16699219V.23098755H.36999513V.67578127H.32598878L.011993408 .23098755V.16699219H.2919922V0H.36999513V.16699219H.47299195Z"/>
<path id="font_1_52" d="M.06098938 .50987246C.101989749 .58380129 .147995 .61576846 .20999146 .61576846 .27598573 .61576846 .31799317 .58180239 .31799317 .51387026 .31799317 .45292665 .28599549 .40795899 .23699951 .37998963 .21699524 .36799623 .19099427 .3570099 .15299988 .34402467V.33003236C.20999146 .33003236 .23298645 .32704164 .25498963 .3200531 .32398988 .3000641 .35899354 .2511139 .35899354 .17518616 .35899354 .09025574 .30299378 .022323609 .22898865 .022323609 .20098877 .022323609 .17999268 .027313233 .14299011 .05329895 .114990238 .073272708 .09899902 .07926941 .08198547 .07926941 .05899048 .07926941 .040985109 .06428528 .040985109 .043304445 .040985109 .0073242189 .07998657-.013671875 .15299988-.013671875 .24198914-.013671875 .33699037 .015319824 .3849945 .07926941 .4139862 .11723328 .43099977 .16618347 .43099977 .21913147 .43099977 .27108766 .4149933 .31704713 .3869934 .34802247 .3659973 .36999513 .34799195 .38198854 .3039856 .40097047 .37098695 .44093324 .39698792 .4908905 .39698792 .5388489 .39698792 .6207733 .33399964 .67578127 .24099732 .67578127 .13699341 .67578127 .07398987 .6087799 .04499817 .51387026L.06098938 .50987246Z"/>
<path id="font_1_51" d="M.47399903 .13696289 .45999146 .1429596C.4269867 .08699036 .4059906 .07598877 .3639984 .07598877H.12998963L.29499818 .2519226C.38398744 .34588624 .4229889 .42085267 .4229889 .4998169 .4229889 .59877017 .35099793 .67578127 .23799134 .67578127 .114990238 .67578127 .050994874 .5937805 .02999878 .4768219L.050994874 .47183229C.09098816 .5697937 .12599182 .6017761 .19799805 .6017761 .2829895 .6017761 .33699037 .55178835 .33699037 .4608307 .33699037 .37586976 .30099488 .29989625 .20698548 .200943L.0289917 .011993408V0H.41999818L.47399903 .13696289Z"/>
<path id="font_1_50" d="M.3939972 0V.01499939C.31900025 .01499939 .29899598 .032989503 .29899598 .07597351V.67277529L.2899933 .67578127 .11099243 .5847931V.5708008L.13798523 .5807953C.1559906 .5877991 .17298889 .59280398 .18299866 .59280398 .20399475 .59280398 .21299744 .57780459 .21299744 .543808V.0949707C.21299744 .039978029 .19198609 .018997193 .117996219 .01499939V0H.3939972Z"/>
<clipPath id="clip_2">
<path transform="matrix(1,0,0,-1,33.307,163.586)" d="M0 0H194.27245V161.39579H0Z"/>
</clipPath>
<path id="font_1_3191" d="M.23999024 .018966675C.16999817 .018966675 .12399292 .094955448 .12399292 .15795899 .12399292 .27696229 .20899964 .41096498 .33898927 .41096498L.23999024 .018966675M.41799928 .41096498C.5029907 .4119568 .5349884 .358963 .5349884 .279953 .5349884 .16996765 .44198609 .018966675 .32099916 .018966675L.41799928 .41096498M.47999574 .66796877H.397995C.38198854 .5919647 .3639984 .5159607 .34498597 .43995667H.32899476C.24899292 .43995667 .17999268 .41296388 .12399292 .35595704 .070999149 .30195619 .039993287 .23596192 .039993287 .15995789 .039993287 .044952394 .12298584-.011047363 .23098755-.011047363L.18499756-.18304444H.2659912L.31399537-.011047363C.40098573-.011047363 .47999574 .015960694 .5399933 .080963138 .59298709 .13795471 .6199951 .20695496 .6199951 .2849579 .6199951 .40196229 .5279999 .43995667 .4249878 .43995667L.47999574 .66796877Z"/>
<path id="font_1_2480" d="M.73399356 .653183H.19999695L.19599915 .6371765H.21499634C.27398683 .6371765 .2899933 .6261749 .2899933 .60217288 .2899933 .59516909 .2889862 .5841522 .2849884 .56614688L.16499329 .07798767C.15699768 .04399109 .13398743 .015991211 .06098938 .015991211H.041992189L.037994386 0H.60899356L.6749878 .19799805H.6589966C.6159973 .084991458 .55999758 .037994386 .4019928 .037994386H.33499146C.28799439 .037994386 .27198792 .04899597 .27198792 .06498718 .27198792 .067993167 .272995 .070999149 .27398683 .07499695L.33999635 .3330078H.42999269C.46099855 .3330078 .5019989 .32899476 .5019989 .28199769 .5019989 .2649994 .49699403 .23500061 .49598695 .22200012H.5130005L.57099917 .46406556H.5549927C.5329895 .38200379 .4889984 .3690033 .42900086 .3690033H.34899903L.40899659 .6171875H.56900027C.6199951 .6171875 .6749878 .60417178 .6779938 .53012087 .6779938 .519104 .6769867 .5081024 .6759949 .49508668H.69200137L.73399356 .653183Z"/>
<path id="font_1_183" d="M.5970001 .021987915 .36698915 .2519989 .5970001 .48399354 .5509949 .5289917 .31999208 .29899598 .08999634 .5289917 .042999269 .48298646 .272995 .2519989 .042999269 .020996094 .08898926-.025009156 .31999208 .20498657 .5509949-.025009156 .5970001 .021987915Z"/>
<path id="font_1_2477" d="M.33799745 .3143463C.35299684 .31835938 .37298585 .31835938 .3889923 .31835938 .46699525 .31835938 .5309906 .28330995 .5309906 .21022034 .5309906 .08004761 .43499757 .037994386 .34098817 .037994386 .31498719 .037994386 .29499818 .039993287 .269989 .04699707L.33799745 .3143463M.4059906 .61125186C.4189911 .61325076 .43399049 .6142578 .44898988 .6142578 .5029907 .6142578 .56799319 .5932617 .56799319 .5162964 .56799319 .41932679 .5119934 .35334779 .3999939 .35334779 .3849945 .35334779 .36698915 .35534669 .34700013 .35934449L.4059906 .61125186M.19799805 .653244 .19299317 .6372528H.21199036C.2709961 .6372528 .2899933 .62124636 .2899933 .5952606 .2899933 .5892639 .2889862 .5792694 .28799439 .5742645L.16499329 .07904053C.15699768 .04499817 .13798523 .015991211 .06199646 .015991211H.041992189L.037994386 0H.3619995C.56900027 0 .651001 .094070438 .651001 .19319153 .651001 .27830506 .58399966 .32035829 .5239868 .3313446L.5209961 .33535768C.54100039 .3403473 .56999209 .34835816 .59498599 .36134339 .6429901 .38534547 .6859894 .43032838 .6859894 .5082855 .6859894 .6442566 .5339966 .653244 .44999696 .653244H.19799805Z"/>
<path id="font_3_2509" d="M.22698975 .4412079 .068984989 .41921998 .07199097 .4032135C.07899475 .4052124 .09098816 .4072113 .099990848 .4072113 .12298584 .4072113 .1309967 .40222169 .1309967 .3852234 .1309967 .3822174 .12998963 .37521363 .1289978 .37321473 .049987794 .0662384 .049987794 .04724121 .049987794 .035247804 .049987794 .008255005 .06199646-.0107421879 .08999634-.0107421879 .13899231-.0107421879 .18899536 .049240114 .22399903 .09423828L.21099854 .10424805C.1749878 .06524658 .16899109 .053253175 .14698792 .053253175 .13999939 .053253175 .13398743 .056243898 .13398743 .06324768 .13398743 .06724548 .13398743 .071243289 .1349945 .07723999L.22698975 .4412079M.25698854 .5662079C.25698854 .5912018 .23498535 .61621096 .20899964 .61621096 .17999268 .61621096 .16099549 .5912018 .16099549 .5662079 .16099549 .5402069 .17999268 .52020266 .20899964 .52020266 .23498535 .52020266 .25698854 .5402069 .25698854 .5662079Z"/>
<path id="font_3_2510" d="M.35099793 .44114686 .19299317 .4131317 .19599915 .39611817C.20298767 .39912416 .21499634 .40112306 .22299195 .40112306 .24499512 .40112306 .25498963 .39111329 .25498963 .3791046L.16299439 .015853882C.13899231-.080200199 .10598755-.15625 .05999756-.15625 .054992677-.15625 .049987794-.1502533 .049987794-.1462555 .049987794-.13023377 .06599426-.12724304 .06599426-.11222839 .06599426-.08921814 .049987794-.07420349 .0309906-.07420349-.0040130617-.07420349-.01600647-.10421753-.01600647-.12623596-.01600647-.1542511 .0039978029-.18725586 .056991579-.18725586 .16499329-.18725586 .22099304-.07220459 .24299622 .015853882L.35099793 .44114686M.37199403 .5662079C.37199403 .5912018 .34999085 .61621096 .32398988 .61621096 .29499818 .61621096 .27598573 .5912018 .27598573 .5662079 .27598573 .5402069 .29499818 .52020266 .32398988 .52020266 .34999085 .52020266 .37199403 .5402069 .37199403 .5662079Z"/>
<path id="font_3_2477" d="M.33799745 .3143463C.35299684 .31835938 .37298585 .31835938 .3889923 .31835938 .46699525 .31835938 .5309906 .28330995 .5309906 .21022034 .5309906 .08004761 .43499757 .037994386 .34098817 .037994386 .31498719 .037994386 .29499818 .039993287 .269989 .04699707L.33799745 .3143463M.4059906 .61125186C.4189911 .61325076 .43399049 .6142578 .44898988 .6142578 .5029907 .6142578 .56799319 .5932617 .56799319 .5162964 .56799319 .41932679 .5119934 .35334779 .3999939 .35334779 .3849945 .35334779 .36698915 .35534669 .34700013 .35934449L.4059906 .61125186M.19799805 .653244 .19299317 .6372528H.21199036C.2709961 .6372528 .2899933 .62124636 .2899933 .5952606 .2899933 .5892639 .2889862 .5792694 .28799439 .5742645L.16499329 .07904053C.15699768 .04499817 .13798523 .015991211 .06199646 .015991211H.041992189L.037994386 0H.3619995C.56900027 0 .651001 .094070438 .651001 .19319153 .651001 .27830506 .58399966 .32035829 .5239868 .3313446L.5209961 .33535768C.54100039 .3403473 .56999209 .34835816 .59498599 .36134339 .6429901 .38534547 .6859894 .43032838 .6859894 .5082855 .6859894 .6442566 .5339966 .653244 .44999696 .653244H.19799805Z"/>
<path id="font_4_974" d="M.2679901 .3962555C.31999208 .4772644 .375 .5582733 .42399598 .60827639 .44898988 .63427737 .47799684 .65527346 .5059967 .65527346 .5289917 .65527346 .54100039 .6432648 .54100039 .6242676 .54100039 .5282593 .42599488 .43026734 .2689972 .39526368L.2679901 .3962555M.07699585 .38926698C.10398865 .37025453 .1349945 .3612671 .16499329 .36026 .15098572 .33825685 .13699341 .31625367 .125 .29426576 .07798767 .21224976 .04798889 .1312561 .04798889 .07624817 .04798889 .018249512 .08799744-.0107421879 .1349945-.0107421879 .19799805-.0107421879 .25698854 .04624939 .3619995 .16925049L.34098817 .18624878C.24398804 .07424927 .18899536 .019256592 .14199829 .019256592 .114990238 .019256592 .10598755 .038253786 .10598755 .06225586 .10598755 .1292572 .19699097 .27626039 .24899292 .36026 .4249878 .386261 .57099917 .5152588 .57099917 .6202698 .57099917 .66625979 .548996 .6872711 .5069885 .6872711 .4249878 .6872711 .2899933 .5452728 .18499756 .3902588 .15499878 .3902588 .12399292 .3922577 .09098816 .41526795L.07699585 .38926698Z"/>
<path id="font_4_2513" d="M.6669922 .10708618C.647995 .0700531 .621994 .054031373 .6049957 .054031373 .59599307 .054031373 .58999636 .058029176 .58999636 .06604004 .58999636 .06904602 .59098818 .07505798 .59199526 .078063968L.6529999 .30932618C.6589966 .3333435 .6599884 .35237123 .6599884 .37039186 .6599884 .41540528 .6419983 .44140626 .60598757 .44140626 .58599856 .44140626 .5669861 .43440248 .54499819 .41940309 .49598695 .38639833 .44400025 .32434083 .4149933 .27227784H.4099884L.41999818 .3083191C.42599488 .32833863 .42900086 .34335328 .42900086 .36038209 .42900086 .4044037 .41099549 .44140626 .37399293 .44140626 .33599855 .44140626 .27598573 .41540528 .18199158 .27227784H.17599488L.21998596 .44140626 .06298828 .41740418 .06498718 .4033966C.07299805 .4044037 .083999637 .4053955 .09199524 .4053955 .11898804 .4053955 .125 .39239503 .125 .37438966L.02999878 0H.10798645L.14299011 .13511658C.15899658 .19619751 .2689972 .37739564 .32099916 .37739564 .33898927 .37739564 .34399415 .359375 .34399415 .33935548 .34399415 .32434083 .34098817 .3083191 .33898927 .2993164L.2619934 0H.34098817L.375 .13511658C.3899994 .19619751 .5 .37739564 .55400088 .37739564 .57199099 .37739564 .5779877 .359375 .5779877 .33935548 .5779877 .32234193 .57598879 .31332398 .57199099 .2993164L.5159912 .078063968C.5109863 .058029176 .5099945 .04801941 .5099945 .041015626 .5099945 .0021820069 .5269928-.0078125 .548996-.0078125 .59599307-.0078125 .647995 .04219055 .6799927 .09623718L.6669922 .10708618Z"/>
<path id="font_4_2514" d="M.46699525 .096206668 .45399476 .10720825C.43998719 .09020996 .41600038 .05418396 .3919983 .05418396 .3809967 .05418396 .37799073 .062179567 .3769989 .06819153 .3769989 .07319641 .3769989 .07620239 .37799073 .078201297L.43699647 .3093567C.44198609 .32936097 .44799806 .35438539 .44799806 .37939454 .44799806 .4123993 .43598939 .44140626 .3919983 .44140626 .33198548 .44140626 .27198792 .37539674 .23199463 .32536317 .22999573 .32235719 .18099976 .25231935 .17599488 .25231935H.17298889L.22399903 .44140626 .06498718 .418396 .066986087 .4033966C.07398987 .4044037 .084991458 .4064026 .09498596 .4064026 .12199402 .4064026 .125 .39239503 .125 .37438966L.02999878 0H.10699463L.13999939 .12411499C.1459961 .1451416 .17199707 .19218445 .20799256 .24624634 .23899842 .29330445 .3019867 .37939454 .33999635 .37939454 .35798646 .37939454 .3639984 .36038209 .3639984 .34135438 .3639984 .3273468 .35899354 .307312 .35699464 .2993164L.2999878 .078063968C.29699708 .06704712 .29299928 .05102539 .29299928 .038009645 .29299928 .015182495 .3019867-.0078125 .33399964-.0078125 .38598634-.0078125 .43399049 .05618286 .46199037 .09020996L.46699525 .096206668Z"/>
<path id="font_4_50" d="M.3939972 0V.01499939C.31900025 .01499939 .29899598 .032989503 .29899598 .07597351V.67277529L.2899933 .67578127 .11099243 .5847931V.5708008L.13798523 .5807953C.1559906 .5877991 .17298889 .59280398 .18299866 .59280398 .20399475 .59280398 .21299744 .57780459 .21299744 .543808V.0949707C.21299744 .039978029 .19198609 .018997193 .117996219 .01499939V0H.3939972Z"/>
<path id="font_4_51" d="M.47399903 .13696289 .45999146 .1429596C.4269867 .08699036 .4059906 .07598877 .3639984 .07598877H.12998963L.29499818 .2519226C.38398744 .34588624 .4229889 .42085267 .4229889 .4998169 .4229889 .59877017 .35099793 .67578127 .23799134 .67578127 .114990238 .67578127 .050994874 .5937805 .02999878 .4768219L.050994874 .47183229C.09098816 .5697937 .12599182 .6017761 .19799805 .6017761 .2829895 .6017761 .33699037 .55178835 .33699037 .4608307 .33699037 .37586976 .30099488 .29989625 .20698548 .200943L.0289917 .011993408V0H.41999818L.47399903 .13696289Z"/>
<path id="font_4_52" d="M.06098938 .50987246C.101989749 .58380129 .147995 .61576846 .20999146 .61576846 .27598573 .61576846 .31799317 .58180239 .31799317 .51387026 .31799317 .45292665 .28599549 .40795899 .23699951 .37998963 .21699524 .36799623 .19099427 .3570099 .15299988 .34402467V.33003236C.20999146 .33003236 .23298645 .32704164 .25498963 .3200531 .32398988 .3000641 .35899354 .2511139 .35899354 .17518616 .35899354 .09025574 .30299378 .022323609 .22898865 .022323609 .20098877 .022323609 .17999268 .027313233 .14299011 .05329895 .114990238 .073272708 .09899902 .07926941 .08198547 .07926941 .05899048 .07926941 .040985109 .06428528 .040985109 .043304445 .040985109 .0073242189 .07998657-.013671875 .15299988-.013671875 .24198914-.013671875 .33699037 .015319824 .3849945 .07926941 .4139862 .11723328 .43099977 .16618347 .43099977 .21913147 .43099977 .27108766 .4149933 .31704713 .3869934 .34802247 .3659973 .36999513 .34799195 .38198854 .3039856 .40097047 .37098695 .44093324 .39698792 .4908905 .39698792 .5388489 .39698792 .6207733 .33399964 .67578127 .24099732 .67578127 .13699341 .67578127 .07398987 .6087799 .04499817 .51387026L.06098938 .50987246Z"/>
</defs>
<path transform="matrix(1,0,0,-1,33.307,163.586)" stroke-width=".3985" stroke-linecap="butt" stroke-miterlimit="10" stroke-linejoin="miter" fill="none" stroke="#b0b0b0" d="M6.4149 0V161.39579M38.4879 0V161.39579M70.56335 0V161.39579M102.63799 0V161.39579M134.71262 0V161.39579"/>
<path transform="matrix(1,0,0,-1,33.307,163.586)" stroke-width=".3985" stroke-linecap="butt" stroke-miterlimit="10" stroke-linejoin="miter" fill="none" stroke="#b0b0b0" d="M0 37.99135H194.27245M0 83.42094H194.27245M0 128.85053H194.27245"/>
<path transform="matrix(1,0,0,-1,33.307,163.586)" stroke-width=".19925" stroke-linecap="butt" stroke-miterlimit="10" stroke-linejoin="miter" fill="none" stroke="#000000" d="M6.4149-4.25166V0M38.4879-4.25166V0M70.56335-4.25166V0M102.63799-4.25166V0M134.71262-4.25166V0"/>
<path transform="matrix(1,0,0,-1,33.307,163.586)" stroke-width=".19925" stroke-linecap="butt" stroke-miterlimit="10" stroke-linejoin="miter" fill="none" stroke="#000000" d="M-4.25171 37.99135H0M-4.25171 83.42094H0M-4.25171 128.85053H0"/>
<path transform="matrix(1,0,0,-1,33.307,163.586)" stroke-width=".3985" stroke-linecap="butt" stroke-miterlimit="10" stroke-linejoin="miter" fill="none" stroke="#000000" d="M0 0V161.39579H194.27245V0H0Z"/>
<use data-text="0" xlink:href="#font_1_49" transform="matrix(9.96264,0,0,-9.96264,37.231,178.092)"/>
<use data-text="&#x1d70b;" xlink:href="#font_1_3177" transform="matrix(9.96264,0,0,-9.96264,64.891,178.092)"/>
<use data-text="/" xlink:href="#font_1_48" transform="matrix(9.96264,0,0,-9.96264,70.94828,178.092)"/>
<use data-text="8" xlink:href="#font_1_57" transform="matrix(9.96264,0,0,-9.96264,73.717899,178.092)"/>
<use data-text="&#x1d70b;" xlink:href="#font_1_3177" transform="matrix(9.96264,0,0,-9.96264,96.966,178.092)"/>
<use data-text="/" xlink:href="#font_1_48" transform="matrix(9.96264,0,0,-9.96264,103.023288,178.092)"/>
<use data-text="4" xlink:href="#font_1_53" transform="matrix(9.96264,0,0,-9.96264,105.7929,178.092)"/>
<use data-text="3" xlink:href="#font_1_52" transform="matrix(9.96264,0,0,-9.96264,126.548999,178.092)"/>
<use data-text="&#x1d70b;" xlink:href="#font_1_3177" transform="matrix(9.96264,0,0,-9.96264,131.5303,178.092)"/>
<use data-text="/" xlink:href="#font_1_48" transform="matrix(9.96264,0,0,-9.96264,137.58762,178.092)"/>
<use data-text="8" xlink:href="#font_1_57" transform="matrix(9.96264,0,0,-9.96264,140.35721,178.092)"/>
<use data-text="&#x1d70b;" xlink:href="#font_1_3177" transform="matrix(9.96264,0,0,-9.96264,161.114,178.092)"/>
<use data-text="/" xlink:href="#font_1_48" transform="matrix(9.96264,0,0,-9.96264,167.1713,178.092)"/>
<use data-text="2" xlink:href="#font_1_51" transform="matrix(9.96264,0,0,-9.96264,169.9409,178.092)"/>
<use data-text="0" xlink:href="#font_1_49" transform="matrix(9.96264,0,0,-9.96264,20.553999,128.892)"/>
<use data-text="1" xlink:href="#font_1_50" transform="matrix(9.96264,0,0,-9.96264,20.553999,83.533008)"/>
<use data-text="2" xlink:href="#font_1_51" transform="matrix(9.96264,0,0,-9.96264,20.553999,38.104005)"/>
<g clip-path="url(#clip_2)">
<path transform="matrix(1,0,0,-1,33.307,163.586)" stroke-width=".59776" stroke-linecap="butt" stroke-miterlimit="10" stroke-linejoin="miter" fill="none" stroke="#ff0000" d="M6.41487 81.87352 7.69785 81.3227 8.98083 80.79156 10.26381 80.28117 11.54678 79.79251 12.82976 79.32657 14.11273 78.88428 15.3957 78.4665 16.67868 78.07413 17.96165 77.70796 19.24463 77.36874 20.5276 77.05717 21.8106 76.7739 23.09357 76.51945 24.37653 76.29437 25.65952 76.09909 26.94249 75.93394 28.22546 75.79926 29.50845 75.6952 30.79141 75.62195 32.07439 75.57953 33.35738 75.56796 34.64035 75.58714 35.92331 75.63695 37.20628 75.7171 38.48927 75.82735 39.77225 75.96733 41.05522 76.13663 42.3382 76.33473 43.62117 76.56117 44.90414 76.81534 46.18713 77.09659 47.47011 77.40427 48.75307 77.73769 50.03606 78.09607 51.31903 78.47864 52.602 78.88461 53.88496 79.31316 55.16795 79.7634 56.45093 80.23451 57.7339 80.72559 59.01689 81.23573 60.29985 81.76405 61.58282 82.30963 62.86581 82.87157 64.14879 83.44897 65.43175 84.04091 66.71474 84.64648 67.99771 85.26477 69.28069 85.89491 70.56367 86.53601 71.84663 87.18718 73.12961 87.84758 74.41258 88.51633 75.69557 89.1926 76.97855 89.87556 78.2615 90.5644 79.5445 91.25835 80.82747 91.95657 82.11044 92.65834 83.39342 93.3629 84.67639 94.06949 85.95937 94.77739 87.24236 95.48595 88.52533 96.19443 89.80829 96.90218 91.09126 97.60854 92.37425 98.31288 93.65723 99.01457 94.9402 99.71301 96.22318 100.40761 97.50615 101.0978 98.78912 101.78304 100.07211 102.46274 101.35507 103.1364 102.63805 103.80351 103.92104 104.46358 105.20401 105.11609 106.48698 105.7606 107.76996 106.39668 109.05293 107.02383 110.3359 107.64166 111.61888 108.24974 112.90186 108.84766 114.18483 109.43506 115.4678 110.01154 116.7508 110.57674 118.03377 111.1303 119.31673 111.67189 120.59972 112.20117 121.88269 112.71785 123.16566 113.22159 124.44865 113.71211 125.73161 114.18912 127.01459 114.65236 128.29758 115.10155 129.58055 115.53644 130.86351 115.95679 132.14649 116.36237 133.42948 116.75296 134.71245 117.12833"/>
<path transform="matrix(1,0,0,-1,33.307,163.586)" stroke-width=".59776" stroke-linecap="butt" stroke-miterlimit="10" stroke-linejoin="miter" fill="none" stroke="#0000ff" d="M6.41487 101.48926 7.69785 102.3027 8.98083 103.10324 10.26381 103.88925 11.54678 104.65916 12.82976 105.41148 14.11273 106.14471 15.3957 106.85748 16.67868 107.54848 17.96165 108.21643 19.24463 108.86018 20.5276 109.47871 21.8106 110.07101 23.09357 110.63622 24.37653 111.17355 25.65952 111.68233 26.94249 112.162 28.22546 112.61208 29.50845 113.0322 30.79141 113.42206 32.07439 113.7815 33.35738 114.11041 34.64035 114.40877 35.92331 114.67668 37.20628 114.91428 38.48927 115.12175 39.77225 115.29941 41.05522 115.4476 42.3382 115.56671 43.62117 115.6572 44.90414 115.71951 46.18713 115.75426 47.47011 115.76195 48.75307 115.74321 50.03606 115.69864 51.31903 115.62888 52.602 115.53459 53.88496 115.41644 55.16795 115.27513 56.45093 115.11133 57.7339 114.92575 59.01689 114.71907 60.29985 114.49199 61.58282 114.2452 62.86581 113.97939 64.14879 113.69522 65.43175 113.3934 66.71474 113.07457 67.99771 112.7394 69.28069 112.38852 70.56367 112.02258 71.84663 111.6422 73.12961 111.24799 74.41258 110.84053 75.69557 110.42046 76.97855 109.9883 78.2615 109.54466 79.5445 109.09006 80.82747 108.62505 82.11044 108.15015 83.39342 107.6659 84.67639 107.17278 85.95937 106.67128 87.24236 106.1619 88.52533 105.6451 89.80829 105.12134 91.09126 104.59108 92.37425 104.05475 93.65723 103.51279 94.9402 102.96562 96.22318 102.41367 97.50615 101.8573 98.78912 101.29697 100.07211 100.73303 101.35507 100.16588 102.63805 99.59587 103.92104 99.0234 105.20401 98.44885 106.48698 97.87254 107.76996 97.29486 109.05293 96.71613 110.3359 96.13669 111.61888 95.55688 112.90186 94.97707 114.18483 94.39757 115.4678 93.8187 116.7508 93.24078 118.03377 92.66412 119.31673 92.08908 120.59972 91.51593 121.88269 90.945 123.16566 90.3766 124.44865 89.81105 125.73161 89.24863 127.01459 88.68964 128.29758 88.13441 129.58055 87.58322 130.86351 87.03636 132.14649 86.49416 133.42948 85.9569 134.71245 85.42484"/>
<path transform="matrix(1,0,0,-1,33.307,163.586)" stroke-width=".59776" stroke-linecap="butt" stroke-miterlimit="10" stroke-linejoin="miter" fill="none" stroke="#008000" d="M6.41487 134.92038 7.69785 135.14614 8.98083 135.32355 10.26381 135.45201 11.54678 135.53098 12.82976 135.56002 14.11273 135.5388 15.3957 135.46715 16.67868 135.34491 17.96165 135.1721 19.24463 134.94889 20.5276 134.67546 21.8106 134.3522 23.09357 133.97959 24.37653 133.5582 25.65952 133.0887 26.94249 132.5719 28.22546 132.00873 29.50845 131.40019 30.79141 130.74738 32.07439 130.0515 33.35738 129.31385 34.64035 128.5358 35.92331 127.71878 37.20628 126.86433 38.48927 125.97404 39.77225 125.04955 41.05522 124.09256 42.3382 123.1048 43.62117 122.08806 44.90414 121.04413 46.18713 119.97487 47.47011 118.88211 48.75307 117.76773 50.03606 116.63359 51.31903 115.48154 52.602 114.31345 53.88496 113.13113 55.16795 111.93648 56.45093 110.73122 57.7339 109.51717 59.01689 108.29607 60.29985 107.0696 61.58282 105.83943 62.86581 104.60724 64.14879 103.37456 65.43175 102.14294 66.71474 100.91391 67.99771 99.68889 69.28069 98.46924 70.56367 97.25635 71.84663 96.0515 73.12961 94.85594 74.41258 93.67085 75.69557 92.49739 76.97855 91.33662 78.2615 90.1896 79.5445 89.05733 80.82747 87.94075 82.11044 86.84074 83.39342 85.75818 84.67639 84.69386 85.95937 83.64854 87.24236 82.62294 88.52533 81.61775 89.80829 80.63362 91.09126 79.67113 92.37425 78.73085 93.65723 77.81331 94.9402 76.919 96.22318 76.04839 97.50615 75.20192 98.78912 74.37994 100.07211 73.58287 101.35507 72.81104 102.63805 72.06474 103.92104 71.34428 105.20401 70.64993 106.48698 69.98193 107.76996 69.34048 109.05293 68.72581 110.3359 68.13806 111.61888 67.5774 112.90186 67.04396 114.18483 66.53789 115.4678 66.05925 116.7508 65.60815 118.03377 65.1847 119.31673 64.78888 120.59972 64.42079 121.88269 64.08043 123.16566 63.76782 124.44865 63.48299 125.73161 63.22589 127.01459 62.9965 128.29758 62.79483 129.58055 62.6208 130.86351 62.47438 132.14649 62.3555 133.42948 62.26407 134.71245 62.20003"/>
<path transform="matrix(1,0,0,-1,33.307,163.586)" stroke-width=".59776" stroke-linecap="butt" stroke-miterlimit="10" stroke-linejoin="miter" fill="none" stroke="#000000" d="M6.41487 15.20836 7.69785 14.6016 8.98083 14.01375 10.26381 13.44582 11.54678 12.89873 12.82976 12.3734 14.11273 11.87064 15.3957 11.3913 16.67868 10.9361 17.96165 10.50577 19.24463 10.10094 20.5276 9.7222 21.8106 9.37012 23.09357 9.04512 24.37653 8.74767 25.65952 8.47809 26.94249 8.2367 28.22546 8.02371 29.50845 7.83934 30.79141 7.68367 32.07439 7.55678 33.35738 7.45868 34.64035 7.3893 35.92331 7.34856 37.20628 7.33627 38.48927 7.35223 39.77225 7.39621 41.05522 7.46788 42.3382 7.56688 43.62117 7.69283 44.90414 7.84528 46.18713 8.02376 47.47011 8.22777 48.75307 8.45676 50.03606 8.71014 51.31903 8.9873 52.602 9.28766 53.88496 9.6105 55.16795 9.95517 56.45093 10.32098 57.7339 10.7072 59.01689 11.11314 60.29985 11.53802 61.58282 11.98111 62.86581 12.44165 64.14879 12.91891 65.43175 13.41208 66.71474 13.9204 67.99771 14.44312 69.28069 14.97948 70.56367 15.52867 71.84663 16.09 73.12961 16.66266 74.41258 17.24593 75.69557 17.83905 76.97855 18.44128 78.2615 19.05193 79.5445 19.67026 80.82747 20.29558 82.11044 20.92719 83.39342 21.56439 84.67639 22.20654 85.95937 22.85298 87.24236 23.50304 88.52533 24.1561 89.80829 24.81154 91.09126 25.46877 92.37425 26.12715 93.65723 26.78613 94.9402 27.44514 96.22318 28.10362 97.50615 28.76102 98.78912 29.4168 100.07211 30.07045 101.35507 30.72147 102.63805 31.36937 103.92104 32.01364 105.20401 32.65382 106.48698 33.28946 107.76996 33.92009 109.05293 34.54529 110.3359 35.16463 111.61888 35.77768 112.90186 36.38406 114.18483 36.98334 115.4678 37.57515 116.7508 38.1591 118.03377 38.73485 119.31673 39.302 120.59972 39.86024 121.88269 40.40923 123.16566 40.9486 124.44865 41.47803 125.73161 41.99724 127.01459 42.50589 128.29758 43.0037 129.58055 43.49036 130.86351 43.9656 132.14649 44.42912 133.42948 44.88069 134.71245 45.31999"/>
<path transform="matrix(1,0,0,-1,33.307,163.586)" stroke-width=".59776" stroke-linecap="butt" stroke-miterlimit="10" stroke-linejoin="miter" fill="none" stroke="#bf00bf" d="M6.41487 52.06041 7.69785 50.9667 8.98083 49.85536 10.26381 48.72815 11.54678 47.5869 12.82976 46.43346 14.11273 45.26979 15.3957 44.09785 16.67868 42.9197 17.96165 41.73732 19.24463 40.5528 20.5276 39.36821 21.8106 38.18562 23.09357 37.00711 24.37653 35.83472 25.65952 34.67047 26.94249 33.51633 28.22546 32.37425 29.50845 31.24612 30.79141 30.13376 32.07439 29.03897 33.35738 27.9634 34.64035 26.90869 35.92331 25.8764 37.20628 24.86798 38.48927 23.8848 39.77225 22.92812 41.05522 21.99919 42.3382 21.09906 43.62117 20.22879 44.90414 19.38928 46.18713 18.58138 47.47011 17.80582 48.75307 17.06326 50.03606 16.3543 51.31903 15.6794 52.602 15.039 53.88496 14.43344 55.16795 13.86295 56.45093 13.32774 57.7339 12.82797 59.01689 12.36365 60.29985 11.93483 61.58282 11.54141 62.86581 11.18333 64.14879 10.86038 65.43175 10.57239 66.71474 10.3191 67.99771 10.10025 69.28069 9.91548 70.56367 9.76445 71.84663 9.64676 73.12961 9.562 74.41258 9.50969 75.69557 9.48941 76.97855 9.50066 78.2615 9.5429 79.5445 9.61563 80.82747 9.71829 82.11044 9.85034 83.39342 10.01122 84.67639 10.2003 85.95937 10.41704 87.24236 10.66086 88.52533 10.93109 89.80829 11.22719 91.09126 11.5485 92.37425 11.89442 93.65723 12.26437 94.9402 12.65767 96.22318 13.07375 97.50615 13.51193 98.78912 13.97165 100.07211 14.45224 101.35507 14.9531 102.63805 15.47363 103.92104 16.01318 105.20401 16.57115 106.48698 17.14693 107.76996 17.7399 109.05293 18.34946 110.3359 18.97499 111.61888 19.61589 112.90186 20.27159 114.18483 20.94147 115.4678 21.62491 116.7508 22.32138 118.03377 23.03024 119.31673 23.75093 120.59972 24.48286 121.88269 25.22546 123.16566 25.97818 124.44865 26.74039 125.73161 27.51158 127.01459 28.29115 128.29758 29.07855 129.58055 29.87321 130.86351 30.6746 132.14649 31.48215 133.42948 32.2953 134.71245 33.11353"/>
<path transform="matrix(1,0,0,-1,33.307,163.586)" stroke-width=".59776" stroke-linecap="butt" stroke-miterlimit="10" stroke-linejoin="miter" fill="none" stroke="#00bfbf" d="M6.41487 16.43184 7.69785 16.77713 8.98083 17.15607 10.26381 17.56828 11.54678 18.01332 12.82976 18.49059 14.11273 18.9994 15.3957 19.53902 16.67868 20.10857 17.96165 20.70706 19.24463 21.33348 20.5276 21.9867 21.8106 22.6655 23.09357 23.36865 24.37653 24.09479 25.65952 24.84254 26.94249 25.61046 28.22546 26.39708 29.50845 27.20088 30.79141 28.02031 32.07439 28.85384 33.35738 29.69989 34.64035 30.5569 35.92331 31.4233 37.20628 32.2975 38.48927 33.17802 39.77225 34.06331 41.05522 34.95187 42.3382 35.84227 43.62117 36.73308 44.90414 37.62291 46.18713 38.51042 47.47011 39.39432 48.75307 40.27336 50.03606 41.14636 51.31903 42.01218 52.602 42.86969 53.88496 43.7179 55.16795 44.55579 56.45093 45.38243 57.7339 46.19695 59.01689 46.99852 60.29985 47.78635 61.58282 48.55972 62.86581 49.31795 64.14879 50.06041 65.43175 50.7865 66.71474 51.4957 67.99771 52.18748 69.28069 52.86142 70.56367 53.51707 71.84663 54.15408 73.12961 54.77205 74.41258 55.37074 75.69557 55.94981 76.97855 56.50906 78.2615 57.04825 79.5445 57.5672 80.82747 58.06573 82.11044 58.54372 83.39342 59.00107 84.67639 59.43767 85.95937 59.85345 87.24236 60.24837 88.52533 60.62238 89.80829 60.9755 91.09126 61.3077 92.37425 61.619 93.65723 61.90945 94.9402 62.17911 96.22318 62.42802 97.50615 62.65625 98.78912 62.86389 100.07211 63.05106 101.35507 63.21782 102.63805 63.3643 103.92104 63.49063 105.20401 63.59694 106.48698 63.68338 107.76996 63.75006 109.05293 63.7972 110.3359 63.82489 111.61888 63.83334 112.90186 63.82272 114.18483 63.7932 115.4678 63.74496 116.7508 63.67819 118.03377 63.59311 119.31673 63.48988 120.59972 63.36874 121.88269 63.22989 123.16566 63.07352 124.44865 62.89989 125.73161 62.70915 127.01459 62.5016 128.29758 62.27745 129.58055 62.0369 130.86351 61.78021 132.14649 61.50761 133.42948 61.21935 134.71245 60.91568"/>
<path transform="matrix(1,0,0,-1,33.307,163.586)" stroke-width=".59776" stroke-linecap="butt" stroke-dasharray=".59776,1.99255" stroke-miterlimit="10" stroke-linejoin="miter" fill="none" stroke="#ff0000" d="M6.41487 153.18399 7.69785 153.34566 8.98083 153.49117 10.26381 153.62035 11.54678 153.7331 12.82976 153.82933 14.11273 153.90898 15.3957 153.97205 16.67868 154.01853 17.96165 154.0484 19.24463 154.06175 20.5276 154.05864 21.8106 154.03911 23.09357 154.00333 24.37653 153.95137 25.65952 153.88339 26.94249 153.79952 28.22546 153.69994 29.50845 153.58484 30.79141 153.45442 32.07439 153.3089 33.35738 153.14853 34.64035 152.97356 35.92331 152.78427 37.20628 152.58098 38.48927 152.36397 39.77225 152.1336 41.05522 151.89025 42.3382 151.63426 43.62117 151.36608 44.90414 151.08609 46.18713 150.79476 47.47011 150.49253 48.75307 150.17989 50.03606 149.85732 51.31903 149.52533 52.602 149.18444 53.88496 148.83518 55.16795 148.47808 56.45093 148.1137 57.7339 147.74259 59.01689 147.36527 60.29985 146.98235 61.58282 146.59435 62.86581 146.20183 64.14879 145.80535 65.43175 145.40544 66.71474 145.00266 67.99771 144.59752 69.28069 144.19057 70.56367 143.78229 71.84663 143.3732 73.12961 142.96379 74.41258 142.55452 75.69557 142.14586 76.97855 141.73828 78.2615 141.33219 79.5445 140.928 80.82747 140.52611 82.11044 140.12694 83.39342 139.73084 84.67639 139.33815 85.95937 138.94925 87.24236 138.56444 88.52533 138.18405 89.80829 137.80835 91.09126 137.43762 92.37425 137.07218 93.65723 136.71222 94.9402 136.358 96.22318 136.00977 97.50615 135.66771 98.78912 135.33205 100.07211 135.00296 101.35507 134.68064 102.63805 134.36524 103.92104 134.0569 105.20401 133.75583 106.48698 133.46212 107.76996 133.1759 109.05293 132.89731 110.3359 132.62647 111.61888 132.36345 112.90186 132.10839 114.18483 131.86135 115.4678 131.62242 116.7508 131.3917 118.03377 131.16924 119.31673 130.95511 120.59972 130.74939 121.88269 130.55214 123.16566 130.3634 124.44865 130.18321 125.73161 130.01166 127.01459 129.84874 128.29758 129.69454 129.58055 129.54903 130.86351 129.41233 132.14649 129.2844 133.42948 129.16529 134.71245 129.05506"/>
<path transform="matrix(1,0,0,-1,33.307,163.586)" stroke-width=".59776" stroke-linecap="butt" stroke-dasharray=".59776,1.99255" stroke-miterlimit="10" stroke-linejoin="miter" fill="none" stroke="#0000ff" d="M6.41487 68.10593 7.69785 68.22763 8.98083 68.33968 10.26381 68.44164 11.54678 68.53313 12.82976 68.61377 14.11273 68.6833 15.3957 68.74142 16.67868 68.78795 17.96165 68.82266 19.24463 68.8455 20.5276 68.85641 21.8106 68.85533 23.09357 68.84235 24.37653 68.81754 25.65952 68.78105 26.94249 68.7331 28.22546 68.67386 29.50845 68.6037 30.79141 68.52287 32.07439 68.43178 33.35738 68.33076 34.64035 68.2203 35.92331 68.10078 37.20628 67.9727 38.48927 67.83655 39.77225 67.69278 41.05522 67.54193 42.3382 67.38448 43.62117 67.22096 44.90414 67.0519 46.18713 66.87775 47.47011 66.69905 48.75307 66.5163 50.03606 66.32994 51.31903 66.14046 52.602 65.94829 53.88496 65.7539 55.16795 65.5577 56.45093 65.36008 57.7339 65.16142 59.01689 64.9621 60.29985 64.76244 61.58282 64.56279 62.86581 64.36345 64.14879 64.16472 65.43175 63.96684 66.71474 63.7701 67.99771 63.5747 69.28069 63.38089 70.56367 63.18884 71.84663 62.99873 73.12961 62.81078 74.41258 62.62509 75.69557 62.44183 76.97855 62.26112 78.2615 62.08308 79.5445 61.9078 80.82747 61.7354 82.11044 61.56592 83.39342 61.39948 84.67639 61.23613 85.95937 61.07591 87.24236 60.91888 88.52533 60.76509 89.80829 60.61456 91.09126 60.46733 92.37425 60.32343 93.65723 60.18285 94.9402 60.04564 96.22318 59.91176 97.50615 59.78127 98.78912 59.65414 100.07211 59.53038 101.35507 59.40999 102.63805 59.29295 103.92104 59.17926 105.20401 59.06891 106.48698 58.96188 107.76996 58.85817 109.05293 58.75777 110.3359 58.66064 111.61888 58.56679 112.90186 58.47617 114.18483 58.3888 115.4678 58.30463 116.7508 58.22366 118.03377 58.14589 119.31673 58.07126 120.59972 57.99979 121.88269 57.93141 123.16566 57.86617 124.44865 57.80402 125.73161 57.74492 127.01459 57.68889 128.29758 57.63591 129.58055 57.58594 130.86351 57.53899 132.14649 57.49503 133.42948 57.45406 134.71245 57.41608"/>
<path transform="matrix(1,0,0,-1,33.307,163.586)" stroke-width=".59776" stroke-linecap="butt" stroke-dasharray=".59776,1.99255" stroke-miterlimit="10" stroke-linejoin="miter" fill="none" stroke="#008000" d="M6.41487 96.99324 7.69785 97.19823 8.98083 97.38751 10.26381 97.56046 11.54678 97.71646 12.82976 97.85498 14.11273 97.97551 15.3957 98.07767 16.67868 98.16106 17.96165 98.22543 19.24463 98.27055 20.5276 98.29633 21.8106 98.30264 23.09357 98.28958 24.37653 98.25719 25.65952 98.20567 26.94249 98.13525 28.22546 98.04626 29.50845 97.93906 30.79141 97.81409 32.07439 97.67186 33.35738 97.51291 34.64035 97.33786 35.92331 97.14734 37.20628 96.94202 38.48927 96.72264 39.77225 96.48991 41.05522 96.2446 42.3382 95.9875 43.62117 95.71938 44.90414 95.44101 46.18713 95.1532 47.47011 94.85677 48.75307 94.55243 50.03606 94.24103 51.31903 93.92328 52.602 93.59991 53.88496 93.27167 55.16795 92.93924 56.45093 92.6033 57.7339 92.26451 59.01689 91.9235 60.29985 91.58084 61.58282 91.23714 62.86581 90.89291 64.14879 90.54869 65.43175 90.20497 66.71474 89.8622 67.99771 89.52081 69.28069 89.18123 70.56367 88.84383 71.84663 88.50894 73.12961 88.17694 74.41258 87.8481 75.69557 87.52274 76.97855 87.2011 78.2615 86.88344 79.5445 86.56995 80.82747 86.26088 82.11044 85.95639 83.39342 85.65665 84.67639 85.36183 85.95937 85.07205 87.24236 84.78746 88.52533 84.50815 89.80829 84.23424 91.09126 83.96577 92.37425 83.7029 93.65723 83.44562 94.9402 83.19402 96.22318 82.94815 97.50615 82.70804 98.78912 82.47375 100.07211 82.2453 101.35507 82.02269 102.63805 81.80595 103.92104 81.59512 105.20401 81.39017 106.48698 81.19112 107.76996 80.99794 109.05293 80.81068 110.3359 80.62929 111.61888 80.45378 112.90186 80.28415 114.18483 80.12038 115.4678 79.96243 116.7508 79.8103 118.03377 79.664 119.31673 79.52347 120.59972 79.38872 121.88269 79.25972 123.16566 79.13646 124.44865 79.01892 125.73161 78.90706 127.01459 78.80087 128.29758 78.70036 129.58055 78.6055 130.86351 78.51625 132.14649 78.4326 133.42948 78.35455 134.71245 78.28207"/>
<path transform="matrix(1,0,0,-1,33.307,163.586)" stroke-width=".59776" stroke-linecap="butt" stroke-dasharray=".59776,1.99255" stroke-miterlimit="10" stroke-linejoin="miter" fill="none" stroke="#000000" d="M6.41487 36.40799 7.69785 36.36807 8.98083 36.32922 10.26381 36.2916 11.54678 36.25534 12.82976 36.22057 14.11273 36.18742 15.3957 36.15602 16.67868 36.12651 17.96165 36.09895 19.24463 36.07349 20.5276 36.05016 21.8106 36.02908 23.09357 36.01028 24.37653 35.99384 25.65952 35.97977 26.94249 35.96806 28.22546 35.95879 29.50845 35.95186 30.79141 35.94734 32.07439 35.94513 33.35738 35.9452 34.64035 35.94754 35.92331 35.95201 37.20628 35.95859 38.48927 35.96718 39.77225 35.97769 41.05522 35.99002 42.3382 36.0041 43.62117 36.01979 44.90414 36.037 46.18713 36.05562 47.47011 36.07556 48.75307 36.0967 50.03606 36.11893 51.31903 36.14215 52.602 36.16624 53.88496 36.19115 55.16795 36.21674 56.45093 36.2429 57.7339 36.26962 59.01689 36.29674 60.29985 36.3242 61.58282 36.35193 62.86581 36.37988 64.14879 36.40796 65.43175 36.4361 66.71474 36.46425 67.99771 36.49236 69.28069 36.52039 70.56367 36.54826 71.84663 36.57599 73.12961 36.60349 74.41258 36.63074 75.69557 36.65771 76.97855 36.68439 78.2615 36.71074 79.5445 36.73672 80.82747 36.76236 82.11044 36.78761 83.39342 36.81248 84.67639 36.83693 85.95937 36.86098 87.24236 36.8846 88.52533 36.90779 89.80829 36.93056 91.09126 36.9529 92.37425 36.97481 93.65723 36.99629 94.9402 37.01733 96.22318 37.03795 97.50615 37.05817 98.78912 37.07794 100.07211 37.0973 101.35507 37.11626 102.63805 37.13483 103.92104 37.15298 105.20401 37.17078 106.48698 37.18817 107.76996 37.2052 109.05293 37.22185 110.3359 37.23816 111.61888 37.25414 112.90186 37.26976 114.18483 37.28505 115.4678 37.30002 116.7508 37.31468 118.03377 37.32904 119.31673 37.34311 120.59972 37.35689 121.88269 37.3704 123.16566 37.38365 124.44865 37.39664 125.73161 37.40938 127.01459 37.42188 128.29758 37.43416 129.58055 37.44621 130.86351 37.45807 132.14649 37.46971 133.42948 37.48116 134.71245 37.49242"/>
<path transform="matrix(1,0,0,-1,33.307,163.586)" stroke-width=".59776" stroke-linecap="butt" stroke-dasharray=".59776,1.99255" stroke-miterlimit="10" stroke-linejoin="miter" fill="none" stroke="#bf00bf" d="M6.41487 33.12375 7.69785 33.18204 8.98083 33.24673 10.26381 33.31784 11.54678 33.39526 12.82976 33.4789 14.11273 33.56862 15.3957 33.66426 16.67868 33.76555 17.96165 33.87228 19.24463 33.98416 20.5276 34.10088 21.8106 34.22206 23.09357 34.34738 24.37653 34.47646 25.65952 34.60886 26.94249 34.74417 28.22546 34.88199 29.50845 35.0219 30.79141 35.16344 32.07439 35.3062 33.35738 35.44975 34.64035 35.5937 35.92331 35.73766 37.20628 35.88123 38.48927 36.02405 39.77225 36.16579 41.05522 36.30612 42.3382 36.44476 43.62117 36.5814 44.90414 36.71584 46.18713 36.84782 47.47011 36.97716 48.75307 37.10367 50.03606 37.22722 51.31903 37.34766 52.602 37.46487 53.88496 37.5788 55.16795 37.68938 56.45093 37.79654 57.7339 37.90025 59.01689 38.00055 60.29985 38.09738 61.58282 38.1908 62.86581 38.2808 64.14879 38.36748 65.43175 38.45082 66.71474 38.53091 67.99771 38.60783 69.28069 38.68164 70.56367 38.75243 71.84663 38.82024 73.12961 38.8852 74.41258 38.94739 75.69557 39.0069 76.97855 39.06381 78.2615 39.11824 79.5445 39.17027 80.82747 39.22 82.11044 39.2675 83.39342 39.31291 84.67639 39.35631 85.95937 39.39775 87.24236 39.43736 88.52533 39.47522 89.80829 39.51141 91.09126 39.54602 92.37425 39.57913 93.65723 39.61082 94.9402 39.64117 96.22318 39.67024 97.50615 39.69814 98.78912 39.72488 100.07211 39.75058 101.35507 39.77528 102.63805 39.79906 103.92104 39.82198 105.20401 39.84406 106.48698 39.8654 107.76996 39.88605 109.05293 39.90604 110.3359 39.92543 111.61888 39.94429 112.90186 39.96263 114.18483 39.98051 115.4678 39.99799 116.7508 40.01508 118.03377 40.03185 119.31673 40.0483 120.59972 40.0645 121.88269 40.08047 123.16566 40.09627 124.44865 40.11191 125.73161 40.1274 127.01459 40.1428 128.29758 40.15814 129.58055 40.17345 130.86351 40.18872 132.14649 40.20401 133.42948 40.21935 134.71245 40.23476"/>
<path transform="matrix(1,0,0,-1,33.307,163.586)" stroke-width=".59776" stroke-linecap="butt" stroke-dasharray=".59776,1.99255" stroke-miterlimit="10" stroke-linejoin="miter" fill="none" stroke="#00bfbf" d="M6.41487 39.8208 7.69785 39.69374 8.98083 39.56145 10.26381 39.4243 11.54678 39.28273 12.82976 39.13713 14.11273 38.98804 15.3957 38.83592 16.67868 38.68134 17.96165 38.52481 19.24463 38.36691 20.5276 38.20822 21.8106 38.04932 23.09357 37.89075 24.37653 37.7331 25.65952 37.5769 26.94249 37.42273 28.22546 37.27106 29.50845 37.12242 30.79141 36.97723 32.07439 36.83595 33.35738 36.69894 34.64035 36.5666 35.92331 36.43922 37.20628 36.3171 38.48927 36.20045 39.77225 36.0895 41.05522 35.98439 42.3382 35.88527 43.62117 35.79222 44.90414 35.70529 46.18713 35.62451 47.47011 35.54988 48.75307 35.48134 50.03606 35.41884 51.31903 35.3623 52.602 35.31161 53.88496 35.26665 55.16795 35.22726 56.45093 35.19328 57.7339 35.16457 59.01689 35.14095 60.29985 35.1222 61.58282 35.10814 62.86581 35.09857 64.14879 35.09334 65.43175 35.09218 66.71474 35.09491 67.99771 35.10136 69.28069 35.11131 70.56367 35.12457 71.84663 35.14095 73.12961 35.16025 74.41258 35.18231 75.69557 35.20695 76.97855 35.234 78.2615 35.26329 79.5445 35.29466 80.82747 35.32799 82.11044 35.36311 83.39342 35.3999 84.67639 35.4382 85.95937 35.47792 87.24236 35.51892 88.52533 35.56111 89.80829 35.60439 91.09126 35.64862 92.37425 35.69376 93.65723 35.73969 94.9402 35.78635 96.22318 35.83363 97.50615 35.88153 98.78912 35.92992 100.07211 35.97876 101.35507 36.028 102.63805 36.07758 103.92104 36.12744 105.20401 36.17758 106.48698 36.22794 107.76996 36.27844 109.05293 36.32912 110.3359 36.37991 111.61888 36.43077 112.90186 36.48172 114.18483 36.53268 115.4678 36.5837 116.7508 36.63469 118.03377 36.6857 119.31673 36.73666 120.59972 36.78761 121.88269 36.83852 123.16566 36.88937 124.44865 36.94017 125.73161 36.99092 127.01459 37.04161 128.29758 37.09222 129.58055 37.14278 130.86351 37.19327 132.14649 37.24371 133.42948 37.2941 134.71245 37.3444"/>
<path transform="matrix(1,0,0,-1,33.307,163.586)" stroke-width=".3985" stroke-linecap="butt" stroke-miterlimit="10" stroke-linejoin="miter" fill="none" stroke="#000000" d="M0 37.99188H141.12734"/>
</g>
<path transform="matrix(1,0,0,-1,33.307,163.586)" d="M8.40742 81.87352C8.40742 82.97398 7.51535 83.86607 6.41487 83.86607 5.3144 83.86607 4.42232 82.97398 4.42232 81.87352 4.42232 80.77304 5.3144 79.88097 6.41487 79.88097 7.51535 79.88097 8.40742 80.77304 8.40742 81.87352ZM6.41487 81.87352" fill="#ff0000"/>
<path transform="matrix(1,0,0,-1,33.307,163.586)" stroke-width=".59776" stroke-linecap="butt" stroke-miterlimit="10" stroke-linejoin="miter" fill="none" stroke="#ff0000" d="M8.40742 81.87352C8.40742 82.97398 7.51535 83.86607 6.41487 83.86607 5.3144 83.86607 4.42232 82.97398 4.42232 81.87352 4.42232 80.77304 5.3144 79.88097 6.41487 79.88097 7.51535 79.88097 8.40742 80.77304 8.40742 81.87352ZM6.41487 81.87352"/>
<path transform="matrix(1,0,0,-1,33.307,163.586)" d="M40.48183 75.82735C40.48183 76.92783 39.58975 77.8199 38.48927 77.8199 37.38881 77.8199 36.49672 76.92783 36.49672 75.82735 36.49672 74.72688 37.38881 73.8348 38.48927 73.8348 39.58975 73.8348 40.48183 74.72688 40.48183 75.82735ZM38.48927 75.82735" fill="#ff0000"/>
<path transform="matrix(1,0,0,-1,33.307,163.586)" stroke-width=".59776" stroke-linecap="butt" stroke-miterlimit="10" stroke-linejoin="miter" fill="none" stroke="#ff0000" d="M40.48183 75.82735C40.48183 76.92783 39.58975 77.8199 38.48927 77.8199 37.38881 77.8199 36.49672 76.92783 36.49672 75.82735 36.49672 74.72688 37.38881 73.8348 38.48927 73.8348 39.58975 73.8348 40.48183 74.72688 40.48183 75.82735ZM38.48927 75.82735"/>
<path transform="matrix(1,0,0,-1,33.307,163.586)" d="M72.55623 86.53601C72.55623 87.63647 71.66414 88.52856 70.56367 88.52856 69.4632 88.52856 68.57112 87.63647 68.57112 86.53601 68.57112 85.43553 69.4632 84.54346 70.56367 84.54346 71.66414 84.54346 72.55623 85.43553 72.55623 86.53601ZM70.56367 86.53601" fill="#ff0000"/>
<path transform="matrix(1,0,0,-1,33.307,163.586)" stroke-width=".59776" stroke-linecap="butt" stroke-miterlimit="10" stroke-linejoin="miter" fill="none" stroke="#ff0000" d="M72.55623 86.53601C72.55623 87.63647 71.66414 88.52856 70.56367 88.52856 69.4632 88.52856 68.57112 87.63647 68.57112 86.53601 68.57112 85.43553 69.4632 84.54346 70.56367 84.54346 71.66414 84.54346 72.55623 85.43553 72.55623 86.53601ZM70.56367 86.53601"/>
<path transform="matrix(1,0,0,-1,33.307,163.586)" d="M104.6306 103.80351C104.6306 104.90398 103.73853 105.79607 102.63805 105.79607 101.53758 105.79607 100.6455 104.90398 100.6455 103.80351 100.6455 102.70303 101.53758 101.81096 102.63805 101.81096 103.73853 101.81096 104.6306 102.70303 104.6306 103.80351ZM102.63805 103.80351" fill="#ff0000"/>
<path transform="matrix(1,0,0,-1,33.307,163.586)" stroke-width=".59776" stroke-linecap="butt" stroke-miterlimit="10" stroke-linejoin="miter" fill="none" stroke="#ff0000" d="M104.6306 103.80351C104.6306 104.90398 103.73853 105.79607 102.63805 105.79607 101.53758 105.79607 100.6455 104.90398 100.6455 103.80351 100.6455 102.70303 101.53758 101.81096 102.63805 101.81096 103.73853 101.81096 104.6306 102.70303 104.6306 103.80351ZM102.63805 103.80351"/>
<path transform="matrix(1,0,0,-1,33.307,163.586)" d="M136.705 117.12833C136.705 118.2288 135.81291 119.12088 134.71245 119.12088 133.61197 119.12088 132.7199 118.2288 132.7199 117.12833 132.7199 116.02786 133.61197 115.13577 134.71245 115.13577 135.81291 115.13577 136.705 116.02786 136.705 117.12833ZM134.71245 117.12833" fill="#ff0000"/>
<path transform="matrix(1,0,0,-1,33.307,163.586)" stroke-width=".59776" stroke-linecap="butt" stroke-miterlimit="10" stroke-linejoin="miter" fill="none" stroke="#ff0000" d="M136.705 117.12833C136.705 118.2288 135.81291 119.12088 134.71245 119.12088 133.61197 119.12088 132.7199 118.2288 132.7199 117.12833 132.7199 116.02786 133.61197 115.13577 134.71245 115.13577 135.81291 115.13577 136.705 116.02786 136.705 117.12833ZM134.71245 117.12833"/>
<path transform="matrix(1,0,0,-1,33.307,163.586)" stroke-width=".59776" stroke-linecap="butt" stroke-miterlimit="10" stroke-linejoin="miter" fill="none" stroke="#ff0000" d=""/>
<path transform="matrix(1,0,0,-1,33.307,163.586)" stroke-width=".59776" stroke-linecap="butt" stroke-miterlimit="10" stroke-linejoin="miter" fill="none" stroke="#0000ff" d="M5.00592 100.0803 7.82382 102.89821M5.00592 102.89821 7.82382 100.0803"/>
<path transform="matrix(1,0,0,-1,33.307,163.586)" stroke-width=".59776" stroke-linecap="butt" stroke-miterlimit="10" stroke-linejoin="miter" fill="none" stroke="#0000ff" d="M37.08032 113.7128 39.89822 116.5307M37.08032 116.5307 39.89822 113.7128"/>
<path transform="matrix(1,0,0,-1,33.307,163.586)" stroke-width=".59776" stroke-linecap="butt" stroke-miterlimit="10" stroke-linejoin="miter" fill="none" stroke="#0000ff" d="M69.15472 110.61363 71.97263 113.43153M69.15472 113.43153 71.97263 110.61363"/>
<path transform="matrix(1,0,0,-1,33.307,163.586)" stroke-width=".59776" stroke-linecap="butt" stroke-miterlimit="10" stroke-linejoin="miter" fill="none" stroke="#0000ff" d="M101.2291 98.18692 104.047 101.00482M101.2291 101.00482 104.047 98.18692"/>
<path transform="matrix(1,0,0,-1,33.307,163.586)" stroke-width=".59776" stroke-linecap="butt" stroke-miterlimit="10" stroke-linejoin="miter" fill="none" stroke="#0000ff" d="M133.3035 84.01588 136.1214 86.83379M133.3035 86.83379 136.1214 84.01588"/>
<path transform="matrix(1,0,0,-1,33.307,163.586)" stroke-width=".59776" stroke-linecap="butt" stroke-miterlimit="10" stroke-linejoin="miter" fill="none" stroke="#0000ff" d=""/>
<path transform="matrix(1,0,0,-1,33.307,163.586)" d="M6.41487 136.91294 8.14049 133.9241H4.68927Z" fill="#008000"/>
<path transform="matrix(1,0,0,-1,33.307,163.586)" stroke-width=".59776" stroke-linecap="butt" stroke-miterlimit="10" stroke-linejoin="miter" fill="none" stroke="#008000" d="M6.41487 136.91294 8.14049 133.9241H4.68927Z"/>
<path transform="matrix(1,0,0,-1,33.307,163.586)" d="M38.48927 127.9666 40.21487 124.97777H36.76367Z" fill="#008000"/>
<path transform="matrix(1,0,0,-1,33.307,163.586)" stroke-width=".59776" stroke-linecap="butt" stroke-miterlimit="10" stroke-linejoin="miter" fill="none" stroke="#008000" d="M38.48927 127.9666 40.21487 124.97777H36.76367Z"/>
<path transform="matrix(1,0,0,-1,33.307,163.586)" d="M70.56367 99.2489 72.28928 96.26007H68.83806Z" fill="#008000"/>
<path transform="matrix(1,0,0,-1,33.307,163.586)" stroke-width=".59776" stroke-linecap="butt" stroke-miterlimit="10" stroke-linejoin="miter" fill="none" stroke="#008000" d="M70.56367 99.2489 72.28928 96.26007H68.83806Z"/>
<path transform="matrix(1,0,0,-1,33.307,163.586)" d="M102.63805 74.0573 104.36366 71.06847H100.91245Z" fill="#008000"/>
<path transform="matrix(1,0,0,-1,33.307,163.586)" stroke-width=".59776" stroke-linecap="butt" stroke-miterlimit="10" stroke-linejoin="miter" fill="none" stroke="#008000" d="M102.63805 74.0573 104.36366 71.06847H100.91245Z"/>
<path transform="matrix(1,0,0,-1,33.307,163.586)" d="M134.71245 64.19258 136.43805 61.20375H132.98683Z" fill="#008000"/>
<path transform="matrix(1,0,0,-1,33.307,163.586)" stroke-width=".59776" stroke-linecap="butt" stroke-miterlimit="10" stroke-linejoin="miter" fill="none" stroke="#008000" d="M134.71245 64.19258 136.43805 61.20375H132.98683Z"/>
<path transform="matrix(1,0,0,-1,33.307,163.586)" stroke-width=".59776" stroke-linecap="butt" stroke-miterlimit="10" stroke-linejoin="miter" fill="none" stroke="#008000" d=""/>
<path transform="matrix(1,0,0,-1,33.307,163.586)" d="M6.41487 13.2158 4.68927 16.20464H8.14049Z"/>
<path transform="matrix(1,0,0,-1,33.307,163.586)" stroke-width=".59776" stroke-linecap="butt" stroke-miterlimit="10" stroke-linejoin="miter" fill="none" stroke="#000000" d="M6.41487 13.2158 4.68927 16.20464H8.14049Z"/>
<path transform="matrix(1,0,0,-1,33.307,163.586)" d="M38.48927 5.35968 36.76367 8.34851H40.21487Z"/>
<path transform="matrix(1,0,0,-1,33.307,163.586)" stroke-width=".59776" stroke-linecap="butt" stroke-miterlimit="10" stroke-linejoin="miter" fill="none" stroke="#000000" d="M38.48927 5.35968 36.76367 8.34851H40.21487Z"/>
<path transform="matrix(1,0,0,-1,33.307,163.586)" d="M70.56367 13.53612 68.83806 16.52495H72.28928Z"/>
<path transform="matrix(1,0,0,-1,33.307,163.586)" stroke-width=".59776" stroke-linecap="butt" stroke-miterlimit="10" stroke-linejoin="miter" fill="none" stroke="#000000" d="M70.56367 13.53612 68.83806 16.52495H72.28928Z"/>
<path transform="matrix(1,0,0,-1,33.307,163.586)" d="M102.63805 29.37682 100.91245 32.36565H104.36366Z"/>
<path transform="matrix(1,0,0,-1,33.307,163.586)" stroke-width=".59776" stroke-linecap="butt" stroke-miterlimit="10" stroke-linejoin="miter" fill="none" stroke="#000000" d="M102.63805 29.37682 100.91245 32.36565H104.36366Z"/>
<path transform="matrix(1,0,0,-1,33.307,163.586)" d="M134.71245 43.32744 132.98683 46.31627H136.43805Z"/>
<path transform="matrix(1,0,0,-1,33.307,163.586)" stroke-width=".59776" stroke-linecap="butt" stroke-miterlimit="10" stroke-linejoin="miter" fill="none" stroke="#000000" d="M134.71245 43.32744 132.98683 46.31627H136.43805Z"/>
<path transform="matrix(1,0,0,-1,33.307,163.586)" stroke-width=".59776" stroke-linecap="butt" stroke-miterlimit="10" stroke-linejoin="miter" fill="none" stroke="#000000" d=""/>
<path transform="matrix(1,0,0,-1,33.307,163.586)" d="M6.41487 54.05296 7.90929 52.06041 6.41487 50.06786 4.92046 52.06041Z" fill="#bf00bf"/>
<path transform="matrix(1,0,0,-1,33.307,163.586)" stroke-width=".59776" stroke-linecap="butt" stroke-miterlimit="10" stroke-linejoin="miter" fill="none" stroke="#bf00bf" d="M6.41487 54.05296 7.90929 52.06041 6.41487 50.06786 4.92046 52.06041Z"/>
<path transform="matrix(1,0,0,-1,33.307,163.586)" d="M38.48927 25.87735 39.98369 23.8848 38.48927 21.89224 36.99486 23.8848Z" fill="#bf00bf"/>
<path transform="matrix(1,0,0,-1,33.307,163.586)" stroke-width=".59776" stroke-linecap="butt" stroke-miterlimit="10" stroke-linejoin="miter" fill="none" stroke="#bf00bf" d="M38.48927 25.87735 39.98369 23.8848 38.48927 21.89224 36.99486 23.8848Z"/>
<path transform="matrix(1,0,0,-1,33.307,163.586)" d="M70.56367 11.757 72.05809 9.76445 70.56367 7.7719 69.06926 9.76445Z" fill="#bf00bf"/>
<path transform="matrix(1,0,0,-1,33.307,163.586)" stroke-width=".59776" stroke-linecap="butt" stroke-miterlimit="10" stroke-linejoin="miter" fill="none" stroke="#bf00bf" d="M70.56367 11.757 72.05809 9.76445 70.56367 7.7719 69.06926 9.76445Z"/>
<path transform="matrix(1,0,0,-1,33.307,163.586)" d="M102.63805 17.46619 104.13246 15.47363 102.63805 13.48108 101.14363 15.47363Z" fill="#bf00bf"/>
<path transform="matrix(1,0,0,-1,33.307,163.586)" stroke-width=".59776" stroke-linecap="butt" stroke-miterlimit="10" stroke-linejoin="miter" fill="none" stroke="#bf00bf" d="M102.63805 17.46619 104.13246 15.47363 102.63805 13.48108 101.14363 15.47363Z"/>
<path transform="matrix(1,0,0,-1,33.307,163.586)" d="M134.71245 35.10608 136.20687 33.11353 134.71245 31.12097 133.21804 33.11353Z" fill="#bf00bf"/>
<path transform="matrix(1,0,0,-1,33.307,163.586)" stroke-width=".59776" stroke-linecap="butt" stroke-miterlimit="10" stroke-linejoin="miter" fill="none" stroke="#bf00bf" d="M134.71245 35.10608 136.20687 33.11353 134.71245 31.12097 133.21804 33.11353Z"/>
<path transform="matrix(1,0,0,-1,33.307,163.586)" stroke-width=".59776" stroke-linecap="butt" stroke-miterlimit="10" stroke-linejoin="miter" fill="none" stroke="#bf00bf" d=""/>
<path transform="matrix(1,0,0,-1,33.307,163.586)" d="M6.41487 18.4244 8.30992 17.04758 7.58607 14.81982H5.24368L4.51984 17.04758Z" fill="#00bfbf"/>
<path transform="matrix(1,0,0,-1,33.307,163.586)" stroke-width=".59776" stroke-linecap="butt" stroke-miterlimit="10" stroke-linejoin="miter" fill="none" stroke="#00bfbf" d="M6.41487 18.4244 8.30992 17.04758 7.58607 14.81982H5.24368L4.51984 17.04758Z"/>
<path transform="matrix(1,0,0,-1,33.307,163.586)" d="M38.48927 35.17058 40.38432 33.79376 39.66046 31.56601H37.31808L36.59422 33.79376Z" fill="#00bfbf"/>
<path transform="matrix(1,0,0,-1,33.307,163.586)" stroke-width=".59776" stroke-linecap="butt" stroke-miterlimit="10" stroke-linejoin="miter" fill="none" stroke="#00bfbf" d="M38.48927 35.17058 40.38432 33.79376 39.66046 31.56601H37.31808L36.59422 33.79376Z"/>
<path transform="matrix(1,0,0,-1,33.307,163.586)" d="M70.56367 55.50963 72.45872 54.13281 71.73486 51.90504H69.39247L68.66862 54.13281Z" fill="#00bfbf"/>
<path transform="matrix(1,0,0,-1,33.307,163.586)" stroke-width=".59776" stroke-linecap="butt" stroke-miterlimit="10" stroke-linejoin="miter" fill="none" stroke="#00bfbf" d="M70.56367 55.50963 72.45872 54.13281 71.73486 51.90504H69.39247L68.66862 54.13281Z"/>
<path transform="matrix(1,0,0,-1,33.307,163.586)" d="M102.63805 65.35686 104.5331 63.98004 103.80923 61.75229H101.46686L100.743 63.98004Z" fill="#00bfbf"/>
<path transform="matrix(1,0,0,-1,33.307,163.586)" stroke-width=".59776" stroke-linecap="butt" stroke-miterlimit="10" stroke-linejoin="miter" fill="none" stroke="#00bfbf" d="M102.63805 65.35686 104.5331 63.98004 103.80923 61.75229H101.46686L100.743 63.98004Z"/>
<path transform="matrix(1,0,0,-1,33.307,163.586)" d="M134.71245 62.90823 136.6075 61.53142 135.88364 59.30365H133.54126L132.8174 61.53142Z" fill="#00bfbf"/>
<path transform="matrix(1,0,0,-1,33.307,163.586)" stroke-width=".59776" stroke-linecap="butt" stroke-miterlimit="10" stroke-linejoin="miter" fill="none" stroke="#00bfbf" d="M134.71245 62.90823 136.6075 61.53142 135.88364 59.30365H133.54126L132.8174 61.53142Z"/>
<path transform="matrix(1,0,0,-1,33.307,163.586)" stroke-width=".59776" stroke-linecap="butt" stroke-miterlimit="10" stroke-linejoin="miter" fill="none" stroke="#00bfbf" d=""/>
<path transform="matrix(1,0,0,-1,33.307,163.586)" d="M8.40742 153.18399C8.40742 154.28446 7.51535 155.17655 6.41487 155.17655 5.3144 155.17655 4.42232 154.28446 4.42232 153.18399 4.42232 152.08351 5.3144 151.19144 6.41487 151.19144 7.51535 151.19144 8.40742 152.08351 8.40742 153.18399ZM6.41487 153.18399" fill="#ff0000"/>
<path transform="matrix(1,0,0,-1,33.307,163.586)" stroke-width=".59776" stroke-linecap="butt" stroke-miterlimit="10" stroke-linejoin="miter" fill="none" stroke="#ff0000" d="M8.40742 153.18399C8.40742 154.28446 7.51535 155.17655 6.41487 155.17655 5.3144 155.17655 4.42232 154.28446 4.42232 153.18399 4.42232 152.08351 5.3144 151.19144 6.41487 151.19144 7.51535 151.19144 8.40742 152.08351 8.40742 153.18399ZM6.41487 153.18399"/>
<path transform="matrix(1,0,0,-1,33.307,163.586)" d="M40.48183 152.36397C40.48183 153.46443 39.58975 154.35652 38.48927 154.35652 37.38881 154.35652 36.49672 153.46443 36.49672 152.36397 36.49672 151.26349 37.38881 150.37142 38.48927 150.37142 39.58975 150.37142 40.48183 151.26349 40.48183 152.36397ZM38.48927 152.36397" fill="#ff0000"/>
<path transform="matrix(1,0,0,-1,33.307,163.586)" stroke-width=".59776" stroke-linecap="butt" stroke-miterlimit="10" stroke-linejoin="miter" fill="none" stroke="#ff0000" d="M40.48183 152.36397C40.48183 153.46443 39.58975 154.35652 38.48927 154.35652 37.38881 154.35652 36.49672 153.46443 36.49672 152.36397 36.49672 151.26349 37.38881 150.37142 38.48927 150.37142 39.58975 150.37142 40.48183 151.26349 40.48183 152.36397ZM38.48927 152.36397"/>
<path transform="matrix(1,0,0,-1,33.307,163.586)" d="M72.55623 143.78229C72.55623 144.88275 71.66414 145.77484 70.56367 145.77484 69.4632 145.77484 68.57112 144.88275 68.57112 143.78229 68.57112 142.68181 69.4632 141.78974 70.56367 141.78974 71.66414 141.78974 72.55623 142.68181 72.55623 143.78229ZM70.56367 143.78229" fill="#ff0000"/>
<path transform="matrix(1,0,0,-1,33.307,163.586)" stroke-width=".59776" stroke-linecap="butt" stroke-miterlimit="10" stroke-linejoin="miter" fill="none" stroke="#ff0000" d="M72.55623 143.78229C72.55623 144.88275 71.66414 145.77484 70.56367 145.77484 69.4632 145.77484 68.57112 144.88275 68.57112 143.78229 68.57112 142.68181 69.4632 141.78974 70.56367 141.78974 71.66414 141.78974 72.55623 142.68181 72.55623 143.78229ZM70.56367 143.78229"/>
<path transform="matrix(1,0,0,-1,33.307,163.586)" d="M104.6306 134.36524C104.6306 135.4657 103.73853 136.35779 102.63805 136.35779 101.53758 136.35779 100.6455 135.4657 100.6455 134.36524 100.6455 133.26476 101.53758 132.37268 102.63805 132.37268 103.73853 132.37268 104.6306 133.26476 104.6306 134.36524ZM102.63805 134.36524" fill="#ff0000"/>
<path transform="matrix(1,0,0,-1,33.307,163.586)" stroke-width=".59776" stroke-linecap="butt" stroke-miterlimit="10" stroke-linejoin="miter" fill="none" stroke="#ff0000" d="M104.6306 134.36524C104.6306 135.4657 103.73853 136.35779 102.63805 136.35779 101.53758 136.35779 100.6455 135.4657 100.6455 134.36524 100.6455 133.26476 101.53758 132.37268 102.63805 132.37268 103.73853 132.37268 104.6306 133.26476 104.6306 134.36524ZM102.63805 134.36524"/>
<path transform="matrix(1,0,0,-1,33.307,163.586)" d="M136.705 129.05506C136.705 130.15554 135.81291 131.0476 134.71245 131.0476 133.61197 131.0476 132.7199 130.15554 132.7199 129.05506 132.7199 127.95459 133.61197 127.0625 134.71245 127.0625 135.81291 127.0625 136.705 127.95459 136.705 129.05506ZM134.71245 129.05506" fill="#ff0000"/>
<path transform="matrix(1,0,0,-1,33.307,163.586)" stroke-width=".59776" stroke-linecap="butt" stroke-miterlimit="10" stroke-linejoin="miter" fill="none" stroke="#ff0000" d="M136.705 129.05506C136.705 130.15554 135.81291 131.0476 134.71245 131.0476 133.61197 131.0476 132.7199 130.15554 132.7199 129.05506 132.7199 127.95459 133.61197 127.0625 134.71245 127.0625 135.81291 127.0625 136.705 127.95459 136.705 129.05506ZM134.71245 129.05506"/>
<path transform="matrix(1,0,0,-1,33.307,163.586)" stroke-width=".59776" stroke-linecap="butt" stroke-miterlimit="10" stroke-linejoin="miter" fill="none" stroke="#ff0000" d=""/>
<path transform="matrix(1,0,0,-1,33.307,163.586)" stroke-width=".59776" stroke-linecap="butt" stroke-miterlimit="10" stroke-linejoin="miter" fill="none" stroke="#0000ff" d="M5.00592 66.69698 7.82382 69.51486M5.00592 69.51486 7.82382 66.69698"/>
<path transform="matrix(1,0,0,-1,33.307,163.586)" stroke-width=".59776" stroke-linecap="butt" stroke-miterlimit="10" stroke-linejoin="miter" fill="none" stroke="#0000ff" d="M37.08032 66.4276 39.89822 69.24548M37.08032 69.24548 39.89822 66.4276"/>
<path transform="matrix(1,0,0,-1,33.307,163.586)" stroke-width=".59776" stroke-linecap="butt" stroke-miterlimit="10" stroke-linejoin="miter" fill="none" stroke="#0000ff" d="M69.15472 61.77989 71.97263 64.5978M69.15472 64.5978 71.97263 61.77989"/>
<path transform="matrix(1,0,0,-1,33.307,163.586)" stroke-width=".59776" stroke-linecap="butt" stroke-miterlimit="10" stroke-linejoin="miter" fill="none" stroke="#0000ff" d="M101.2291 57.884 104.047 60.7019M101.2291 60.7019 104.047 57.884"/>
<path transform="matrix(1,0,0,-1,33.307,163.586)" stroke-width=".59776" stroke-linecap="butt" stroke-miterlimit="10" stroke-linejoin="miter" fill="none" stroke="#0000ff" d="M133.3035 56.00713 136.1214 58.82503M133.3035 58.82503 136.1214 56.00713"/>
<path transform="matrix(1,0,0,-1,33.307,163.586)" stroke-width=".59776" stroke-linecap="butt" stroke-miterlimit="10" stroke-linejoin="miter" fill="none" stroke="#0000ff" d=""/>
<path transform="matrix(1,0,0,-1,33.307,163.586)" d="M6.41487 98.9858 8.14049 95.99696H4.68927Z" fill="#008000"/>
<path transform="matrix(1,0,0,-1,33.307,163.586)" stroke-width=".59776" stroke-linecap="butt" stroke-miterlimit="10" stroke-linejoin="miter" fill="none" stroke="#008000" d="M6.41487 98.9858 8.14049 95.99696H4.68927Z"/>
<path transform="matrix(1,0,0,-1,33.307,163.586)" d="M38.48927 98.7152 40.21487 95.72636H36.76367Z" fill="#008000"/>
<path transform="matrix(1,0,0,-1,33.307,163.586)" stroke-width=".59776" stroke-linecap="butt" stroke-miterlimit="10" stroke-linejoin="miter" fill="none" stroke="#008000" d="M38.48927 98.7152 40.21487 95.72636H36.76367Z"/>
<path transform="matrix(1,0,0,-1,33.307,163.586)" d="M70.56367 90.83638 72.28928 87.84755H68.83806Z" fill="#008000"/>
<path transform="matrix(1,0,0,-1,33.307,163.586)" stroke-width=".59776" stroke-linecap="butt" stroke-miterlimit="10" stroke-linejoin="miter" fill="none" stroke="#008000" d="M70.56367 90.83638 72.28928 87.84755H68.83806Z"/>
<path transform="matrix(1,0,0,-1,33.307,163.586)" d="M102.63805 83.79851 104.36366 80.80968H100.91245Z" fill="#008000"/>
<path transform="matrix(1,0,0,-1,33.307,163.586)" stroke-width=".59776" stroke-linecap="butt" stroke-miterlimit="10" stroke-linejoin="miter" fill="none" stroke="#008000" d="M102.63805 83.79851 104.36366 80.80968H100.91245Z"/>
<path transform="matrix(1,0,0,-1,33.307,163.586)" d="M134.71245 80.27463 136.43805 77.2858H132.98683Z" fill="#008000"/>
<path transform="matrix(1,0,0,-1,33.307,163.586)" stroke-width=".59776" stroke-linecap="butt" stroke-miterlimit="10" stroke-linejoin="miter" fill="none" stroke="#008000" d="M134.71245 80.27463 136.43805 77.2858H132.98683Z"/>
<path transform="matrix(1,0,0,-1,33.307,163.586)" stroke-width=".59776" stroke-linecap="butt" stroke-miterlimit="10" stroke-linejoin="miter" fill="none" stroke="#008000" d=""/>
<path transform="matrix(1,0,0,-1,33.307,163.586)" d="M6.41487 34.41544 4.68927 37.40427H8.14049Z"/>
<path transform="matrix(1,0,0,-1,33.307,163.586)" stroke-width=".59776" stroke-linecap="butt" stroke-miterlimit="10" stroke-linejoin="miter" fill="none" stroke="#000000" d="M6.41487 34.41544 4.68927 37.40427H8.14049Z"/>
<path transform="matrix(1,0,0,-1,33.307,163.586)" d="M38.48927 33.97462 36.76367 36.96346H40.21487Z"/>
<path transform="matrix(1,0,0,-1,33.307,163.586)" stroke-width=".59776" stroke-linecap="butt" stroke-miterlimit="10" stroke-linejoin="miter" fill="none" stroke="#000000" d="M38.48927 33.97462 36.76367 36.96346H40.21487Z"/>
<path transform="matrix(1,0,0,-1,33.307,163.586)" d="M70.56367 34.55571 68.83806 37.54454H72.28928Z"/>
<path transform="matrix(1,0,0,-1,33.307,163.586)" stroke-width=".59776" stroke-linecap="butt" stroke-miterlimit="10" stroke-linejoin="miter" fill="none" stroke="#000000" d="M70.56367 34.55571 68.83806 37.54454H72.28928Z"/>
<path transform="matrix(1,0,0,-1,33.307,163.586)" d="M102.63805 35.14227 100.91245 38.1311H104.36366Z"/>
<path transform="matrix(1,0,0,-1,33.307,163.586)" stroke-width=".59776" stroke-linecap="butt" stroke-miterlimit="10" stroke-linejoin="miter" fill="none" stroke="#000000" d="M102.63805 35.14227 100.91245 38.1311H104.36366Z"/>
<path transform="matrix(1,0,0,-1,33.307,163.586)" d="M134.71245 35.49986 132.98683 38.4887H136.43805Z"/>
<path transform="matrix(1,0,0,-1,33.307,163.586)" stroke-width=".59776" stroke-linecap="butt" stroke-miterlimit="10" stroke-linejoin="miter" fill="none" stroke="#000000" d="M134.71245 35.49986 132.98683 38.4887H136.43805Z"/>
<path transform="matrix(1,0,0,-1,33.307,163.586)" stroke-width=".59776" stroke-linecap="butt" stroke-miterlimit="10" stroke-linejoin="miter" fill="none" stroke="#000000" d=""/>
<path transform="matrix(1,0,0,-1,33.307,163.586)" d="M6.41487 35.1163 7.90929 33.12375 6.41487 31.1312 4.92046 33.12375Z" fill="#bf00bf"/>
<path transform="matrix(1,0,0,-1,33.307,163.586)" stroke-width=".59776" stroke-linecap="butt" stroke-miterlimit="10" stroke-linejoin="miter" fill="none" stroke="#bf00bf" d="M6.41487 35.1163 7.90929 33.12375 6.41487 31.1312 4.92046 33.12375Z"/>
<path transform="matrix(1,0,0,-1,33.307,163.586)" d="M38.48927 38.0166 39.98369 36.02405 38.48927 34.0315 36.99486 36.02405Z" fill="#bf00bf"/>
<path transform="matrix(1,0,0,-1,33.307,163.586)" stroke-width=".59776" stroke-linecap="butt" stroke-miterlimit="10" stroke-linejoin="miter" fill="none" stroke="#bf00bf" d="M38.48927 38.0166 39.98369 36.02405 38.48927 34.0315 36.99486 36.02405Z"/>
<path transform="matrix(1,0,0,-1,33.307,163.586)" d="M70.56367 40.74498 72.05809 38.75243 70.56367 36.75987 69.06926 38.75243Z" fill="#bf00bf"/>
<path transform="matrix(1,0,0,-1,33.307,163.586)" stroke-width=".59776" stroke-linecap="butt" stroke-miterlimit="10" stroke-linejoin="miter" fill="none" stroke="#bf00bf" d="M70.56367 40.74498 72.05809 38.75243 70.56367 36.75987 69.06926 38.75243Z"/>
<path transform="matrix(1,0,0,-1,33.307,163.586)" d="M102.63805 41.79161 104.13246 39.79906 102.63805 37.8065 101.14363 39.79906Z" fill="#bf00bf"/>
<path transform="matrix(1,0,0,-1,33.307,163.586)" stroke-width=".59776" stroke-linecap="butt" stroke-miterlimit="10" stroke-linejoin="miter" fill="none" stroke="#bf00bf" d="M102.63805 41.79161 104.13246 39.79906 102.63805 37.8065 101.14363 39.79906Z"/>
<path transform="matrix(1,0,0,-1,33.307,163.586)" d="M134.71245 42.22731 136.20687 40.23476 134.71245 38.2422 133.21804 40.23476Z" fill="#bf00bf"/>
<path transform="matrix(1,0,0,-1,33.307,163.586)" stroke-width=".59776" stroke-linecap="butt" stroke-miterlimit="10" stroke-linejoin="miter" fill="none" stroke="#bf00bf" d="M134.71245 42.22731 136.20687 40.23476 134.71245 38.2422 133.21804 40.23476Z"/>
<path transform="matrix(1,0,0,-1,33.307,163.586)" stroke-width=".59776" stroke-linecap="butt" stroke-miterlimit="10" stroke-linejoin="miter" fill="none" stroke="#bf00bf" d=""/>
<path transform="matrix(1,0,0,-1,33.307,163.586)" d="M6.41487 41.81335 8.30992 40.43654 7.58607 38.20879H5.24368L4.51984 40.43654Z" fill="#00bfbf"/>
<path transform="matrix(1,0,0,-1,33.307,163.586)" stroke-width=".59776" stroke-linecap="butt" stroke-miterlimit="10" stroke-linejoin="miter" fill="none" stroke="#00bfbf" d="M6.41487 41.81335 8.30992 40.43654 7.58607 38.20879H5.24368L4.51984 40.43654Z"/>
<path transform="matrix(1,0,0,-1,33.307,163.586)" d="M38.48927 38.19301 40.38432 36.8162 39.66046 34.58842H37.31808L36.59422 36.8162Z" fill="#00bfbf"/>
<path transform="matrix(1,0,0,-1,33.307,163.586)" stroke-width=".59776" stroke-linecap="butt" stroke-miterlimit="10" stroke-linejoin="miter" fill="none" stroke="#00bfbf" d="M38.48927 38.19301 40.38432 36.8162 39.66046 34.58842H37.31808L36.59422 36.8162Z"/>
<path transform="matrix(1,0,0,-1,33.307,163.586)" d="M70.56367 37.11713 72.45872 35.74031 71.73486 33.51256H69.39247L68.66862 35.74031Z" fill="#00bfbf"/>
<path transform="matrix(1,0,0,-1,33.307,163.586)" stroke-width=".59776" stroke-linecap="butt" stroke-miterlimit="10" stroke-linejoin="miter" fill="none" stroke="#00bfbf" d="M70.56367 37.11713 72.45872 35.74031 71.73486 33.51256H69.39247L68.66862 35.74031Z"/>
<path transform="matrix(1,0,0,-1,33.307,163.586)" d="M102.63805 38.07013 104.5331 36.69331 103.80923 34.46555H101.46686L100.743 36.69331Z" fill="#00bfbf"/>
<path transform="matrix(1,0,0,-1,33.307,163.586)" stroke-width=".59776" stroke-linecap="butt" stroke-miterlimit="10" stroke-linejoin="miter" fill="none" stroke="#00bfbf" d="M102.63805 38.07013 104.5331 36.69331 103.80923 34.46555H101.46686L100.743 36.69331Z"/>
<path transform="matrix(1,0,0,-1,33.307,163.586)" d="M134.71245 39.33696 136.6075 37.96016 135.88364 35.73239H133.54126L132.8174 37.96016Z" fill="#00bfbf"/>
<path transform="matrix(1,0,0,-1,33.307,163.586)" stroke-width=".59776" stroke-linecap="butt" stroke-miterlimit="10" stroke-linejoin="miter" fill="none" stroke="#00bfbf" d="M134.71245 39.33696 136.6075 37.96016 135.88364 35.73239H133.54126L132.8174 37.96016Z"/>
<path transform="matrix(1,0,0,-1,33.307,163.586)" stroke-width=".59776" stroke-linecap="butt" stroke-miterlimit="10" stroke-linejoin="miter" fill="none" stroke="#00bfbf" d=""/>
<use data-text="&#x1d719;" xlink:href="#font_1_3191" transform="matrix(9.96264,0,0,-9.96264,127.229,191.727)"/>
<use data-text="&#x1d438;" xlink:href="#font_1_2480" transform="matrix(0,-9.96264,-9.96264,-0,11.819,98.433)"/>
<use data-text="&#x00d7;" xlink:href="#font_1_183" transform="matrix(0,-9.96264,-9.96264,-0,11.819,88.51021)"/>
<use data-text="&#x1d435;" xlink:href="#font_1_2477" transform="matrix(0,-9.96264,-9.96264,-0,11.819,79.92241)"/>
<use data-text="&#x1d456;" xlink:href="#font_3_2509" transform="matrix(0,-7.47198,-7.47198,-0,14.308998,72.98399)"/>
<use data-text="&#x1d457;" xlink:href="#font_3_2510" transform="matrix(0,-7.47198,-7.47198,-0,14.308998,70.66021)"/>
<path transform="matrix(1,0,0,-1,33.307,163.586)" d="M148.4631 31.96861H188.24524V156.35485H148.4631Z" fill="#ffffff" fill-opacity=".8"/>
<path transform="matrix(1,0,0,-1,33.307,163.586)" stroke-width=".3985" stroke-linecap="butt" stroke-miterlimit="10" stroke-linejoin="miter" fill="none" stroke="#cccccc" d="M148.4631 31.96861H188.24524V156.35485H148.4631Z"/>
<path transform="matrix(1,0,0,-1,185.05599,14.242004)" stroke-width=".59776" stroke-linecap="butt" stroke-miterlimit="10" stroke-linejoin="miter" fill="none" stroke="#ff0000" d="M0 0H8.50412 17.00826"/>
<path transform="matrix(1,0,0,-1,185.05599,14.242004)" d="M10.49667 0C10.49667 1.10046 9.60458 1.99255 8.50412 1.99255 7.40364 1.99255 6.51157 1.10046 6.51157 0 6.51157-1.10046 7.40364-1.99255 8.50412-1.99255 9.60458-1.99255 10.49667-1.10046 10.49667 0ZM8.50412 0" fill="#ff0000" fill-opacity=".8"/>
<path transform="matrix(1,0,0,-1,185.05599,14.242004)" stroke-width=".59776" stroke-linecap="butt" stroke-miterlimit="10" stroke-linejoin="miter" fill="none" stroke="#ff0000" d="M10.49667 0C10.49667 1.10046 9.60458 1.99255 8.50412 1.99255 7.40364 1.99255 6.51157 1.10046 6.51157 0 6.51157-1.10046 7.40364-1.99255 8.50412-1.99255 9.60458-1.99255 10.49667-1.10046 10.49667 0ZM8.50412 0"/>
<use data-text="&#x1d435;" xlink:href="#font_3_2477" transform="matrix(6.97385,0,0,-6.97385,204.35599,15.772003)"/>
<use data-text="&#x2113;" xlink:href="#font_4_974" transform="matrix(4.98132,0,0,-4.98132,209.20899,17.515)"/>
<use data-text="&#x2113;" xlink:href="#font_4_974" transform="matrix(4.98132,0,0,-4.98132,212.09317,17.515)"/>
<path transform="matrix(1,0,0,-1,185.05599,24.275006)" stroke-width=".59776" stroke-linecap="butt" stroke-miterlimit="10" stroke-linejoin="miter" fill="none" stroke="#0000ff" d="M0 0H8.50412 17.00826"/>
<path transform="matrix(1,0,0,-1,185.05599,24.275006)" stroke-width=".59776" stroke-linecap="butt" stroke-miterlimit="10" stroke-linejoin="miter" fill="none" stroke="#0000ff" d="M7.09517-1.40894 9.91307 1.40894M7.09517 1.40894 9.91307-1.40894"/>
<use data-text="&#x1d435;" xlink:href="#font_3_2477" transform="matrix(6.97385,0,0,-6.97385,204.35599,25.805008)"/>
<use data-text="&#x1d45a;" xlink:href="#font_4_2513" transform="matrix(4.98132,0,0,-4.98132,209.20899,27.549012)"/>
<use data-text="&#x1d45a;" xlink:href="#font_4_2513" transform="matrix(4.98132,0,0,-4.98132,212.74573,27.549012)"/>
<path transform="matrix(1,0,0,-1,185.05599,34.309007)" stroke-width=".59776" stroke-linecap="butt" stroke-miterlimit="10" stroke-linejoin="miter" fill="none" stroke="#008000" d="M0 0H8.50412 17.00826"/>
<path transform="matrix(1,0,0,-1,185.05599,34.309007)" d="M8.50412 1.99255 10.22972-.99628H6.7785Z" fill="#008000" fill-opacity=".8"/>
<path transform="matrix(1,0,0,-1,185.05599,34.309007)" stroke-width=".59776" stroke-linecap="butt" stroke-miterlimit="10" stroke-linejoin="miter" fill="none" stroke="#008000" d="M8.50412 1.99255 10.22972-.99628H6.7785Z"/>
<use data-text="&#x1d435;" xlink:href="#font_3_2477" transform="matrix(6.97385,0,0,-6.97385,204.35599,35.838014)"/>
<use data-text="&#x1d45b;" xlink:href="#font_4_2514" transform="matrix(4.98132,0,0,-4.98132,209.20899,37.582)"/>
<use data-text="&#x1d45b;" xlink:href="#font_4_2514" transform="matrix(4.98132,0,0,-4.98132,211.68471,37.582)"/>
<path transform="matrix(1,0,0,-1,185.05599,44.342008)" stroke-width=".59776" stroke-linecap="butt" stroke-miterlimit="10" stroke-linejoin="miter" fill="none" stroke="#000000" d="M0 0H8.50412 17.00826"/>
<path transform="matrix(1,0,0,-1,185.05599,44.342008)" d="M8.50412-1.99255 6.7785 .99628H10.22972Z" fill-opacity=".8"/>
<path transform="matrix(1,0,0,-1,185.05599,44.342008)" stroke-width=".59776" stroke-linecap="butt" stroke-miterlimit="10" stroke-linejoin="miter" fill="none" stroke="#000000" d="M8.50412-1.99255 6.7785 .99628H10.22972Z"/>
<use data-text="&#x1d435;" xlink:href="#font_3_2477" transform="matrix(6.97385,0,0,-6.97385,204.35599,45.87201)"/>
<use data-text="&#x1d45a;" xlink:href="#font_4_2513" transform="matrix(4.98132,0,0,-4.98132,209.20899,47.615007)"/>
<use data-text="&#x1d45b;" xlink:href="#font_4_2514" transform="matrix(4.98132,0,0,-4.98132,212.74573,47.615007)"/>
<path transform="matrix(1,0,0,-1,185.05599,54.375009)" stroke-width=".59776" stroke-linecap="butt" stroke-miterlimit="10" stroke-linejoin="miter" fill="none" stroke="#bf00bf" d="M0 0H8.50412 17.00826"/>
<path transform="matrix(1,0,0,-1,185.05599,54.375009)" d="M8.50412 1.99255 9.99854 0 8.50412-1.99255 7.0097 0Z" fill="#bf00bf" fill-opacity=".8"/>
<path transform="matrix(1,0,0,-1,185.05599,54.375009)" stroke-width=".59776" stroke-linecap="butt" stroke-miterlimit="10" stroke-linejoin="miter" fill="none" stroke="#bf00bf" d="M8.50412 1.99255 9.99854 0 8.50412-1.99255 7.0097 0Z"/>
<use data-text="&#x1d435;" xlink:href="#font_3_2477" transform="matrix(6.97385,0,0,-6.97385,204.35599,55.905015)"/>
<use data-text="&#x1d45b;" xlink:href="#font_4_2514" transform="matrix(4.98132,0,0,-4.98132,209.20899,57.64801)"/>
<use data-text="&#x2113;" xlink:href="#font_4_974" transform="matrix(4.98132,0,0,-4.98132,211.68471,57.64801)"/>
<path transform="matrix(1,0,0,-1,185.05599,64.408008)" stroke-width=".59776" stroke-linecap="butt" stroke-miterlimit="10" stroke-linejoin="miter" fill="none" stroke="#00bfbf" d="M0 0H8.50412 17.00826"/>
<path transform="matrix(1,0,0,-1,185.05599,64.408008)" d="M8.50412 1.99255 10.39917 .61574 9.67531-1.61201H7.33293L6.60907 .61574Z" fill="#00bfbf" fill-opacity=".8"/>
<path transform="matrix(1,0,0,-1,185.05599,64.408008)" stroke-width=".59776" stroke-linecap="butt" stroke-miterlimit="10" stroke-linejoin="miter" fill="none" stroke="#00bfbf" d="M8.50412 1.99255 10.39917 .61574 9.67531-1.61201H7.33293L6.60907 .61574Z"/>
<use data-text="&#x1d435;" xlink:href="#font_3_2477" transform="matrix(6.97385,0,0,-6.97385,204.35599,65.938)"/>
<use data-text="&#x2113;" xlink:href="#font_4_974" transform="matrix(4.98132,0,0,-4.98132,209.20899,67.68201)"/>
<use data-text="&#x1d45a;" xlink:href="#font_4_2513" transform="matrix(4.98132,0,0,-4.98132,212.09317,67.68201)"/>
<path transform="matrix(1,0,0,-1,185.05599,74.442)" stroke-width=".59776" stroke-linecap="butt" stroke-dasharray=".59776,1.99255" stroke-miterlimit="10" stroke-linejoin="miter" fill="none" stroke="#ff0000" d="M0 0H8.50412 17.00826"/>
<path transform="matrix(1,0,0,-1,185.05599,74.442)" d="M10.49667 0C10.49667 1.10046 9.60458 1.99255 8.50412 1.99255 7.40364 1.99255 6.51157 1.10046 6.51157 0 6.51157-1.10046 7.40364-1.99255 8.50412-1.99255 9.60458-1.99255 10.49667-1.10046 10.49667 0ZM8.50412 0" fill="#ff0000" fill-opacity=".8"/>
<path transform="matrix(1,0,0,-1,185.05599,74.442)" stroke-width=".59776" stroke-linecap="butt" stroke-miterlimit="10" stroke-linejoin="miter" fill="none" stroke="#ff0000" d="M10.49667 0C10.49667 1.10046 9.60458 1.99255 8.50412 1.99255 7.40364 1.99255 6.51157 1.10046 6.51157 0 6.51157-1.10046 7.40364-1.99255 8.50412-1.99255 9.60458-1.99255 10.49667-1.10046 10.49667 0ZM8.50412 0"/>
<use data-text="&#x1d435;" xlink:href="#font_3_2477" transform="matrix(6.97385,0,0,-6.97385,204.35599,75.97201)"/>
<use data-text="1" xlink:href="#font_4_50" transform="matrix(4.98132,0,0,-4.98132,209.20899,77.715007)"/>
<use data-text="1" xlink:href="#font_4_50" transform="matrix(4.98132,0,0,-4.98132,211.69965,77.715007)"/>
<path transform="matrix(1,0,0,-1,185.05599,84.475)" stroke-width=".59776" stroke-linecap="butt" stroke-dasharray=".59776,1.99255" stroke-miterlimit="10" stroke-linejoin="miter" fill="none" stroke="#0000ff" d="M0 0H8.50412 17.00826"/>
<path transform="matrix(1,0,0,-1,185.05599,84.475)" stroke-width=".59776" stroke-linecap="butt" stroke-miterlimit="10" stroke-linejoin="miter" fill="none" stroke="#0000ff" d="M7.09517-1.40894 9.91307 1.40894M7.09517 1.40894 9.91307-1.40894"/>
<use data-text="&#x1d435;" xlink:href="#font_3_2477" transform="matrix(6.97385,0,0,-6.97385,204.35599,86.005008)"/>
<use data-text="2" xlink:href="#font_4_51" transform="matrix(4.98132,0,0,-4.98132,209.20899,87.74801)"/>
<use data-text="2" xlink:href="#font_4_51" transform="matrix(4.98132,0,0,-4.98132,211.69965,87.74801)"/>
<path transform="matrix(1,0,0,-1,185.05599,94.507999)" stroke-width=".59776" stroke-linecap="butt" stroke-dasharray=".59776,1.99255" stroke-miterlimit="10" stroke-linejoin="miter" fill="none" stroke="#008000" d="M0 0H8.50412 17.00826"/>
<path transform="matrix(1,0,0,-1,185.05599,94.507999)" d="M8.50412 1.99255 10.22972-.99628H6.7785Z" fill="#008000" fill-opacity=".8"/>
<path transform="matrix(1,0,0,-1,185.05599,94.507999)" stroke-width=".59776" stroke-linecap="butt" stroke-miterlimit="10" stroke-linejoin="miter" fill="none" stroke="#008000" d="M8.50412 1.99255 10.22972-.99628H6.7785Z"/>
<use data-text="&#x1d435;" xlink:href="#font_3_2477" transform="matrix(6.97385,0,0,-6.97385,204.35599,96.037998)"/>
<use data-text="3" xlink:href="#font_4_52" transform="matrix(4.98132,0,0,-4.98132,209.20899,97.78199)"/>
<use data-text="3" xlink:href="#font_4_52" transform="matrix(4.98132,0,0,-4.98132,211.69965,97.78199)"/>
<path transform="matrix(1,0,0,-1,185.05599,104.54199)" stroke-width=".59776" stroke-linecap="butt" stroke-dasharray=".59776,1.99255" stroke-miterlimit="10" stroke-linejoin="miter" fill="none" stroke="#000000" d="M0 0H8.50412 17.00826"/>
<path transform="matrix(1,0,0,-1,185.05599,104.54199)" d="M8.50412-1.99255 6.7785 .99628H10.22972Z" fill-opacity=".8"/>
<path transform="matrix(1,0,0,-1,185.05599,104.54199)" stroke-width=".59776" stroke-linecap="butt" stroke-miterlimit="10" stroke-linejoin="miter" fill="none" stroke="#000000" d="M8.50412-1.99255 6.7785 .99628H10.22972Z"/>
<use data-text="&#x1d435;" xlink:href="#font_3_2477" transform="matrix(6.97385,0,0,-6.97385,204.35599,106.07099)"/>
<use data-text="2" xlink:href="#font_4_51" transform="matrix(4.98132,0,0,-4.98132,209.20899,107.814998)"/>
<use data-text="3" xlink:href="#font_4_52" transform="matrix(4.98132,0,0,-4.98132,211.69965,107.814998)"/>
<path transform="matrix(1,0,0,-1,185.05599,114.57499)" stroke-width=".59776" stroke-linecap="butt" stroke-dasharray=".59776,1.99255" stroke-miterlimit="10" stroke-linejoin="miter" fill="none" stroke="#bf00bf" d="M0 0H8.50412 17.00826"/>
<path transform="matrix(1,0,0,-1,185.05599,114.57499)" d="M8.50412 1.99255 9.99854 0 8.50412-1.99255 7.0097 0Z" fill="#bf00bf" fill-opacity=".8"/>
<path transform="matrix(1,0,0,-1,185.05599,114.57499)" stroke-width=".59776" stroke-linecap="butt" stroke-miterlimit="10" stroke-linejoin="miter" fill="none" stroke="#bf00bf" d="M8.50412 1.99255 9.99854 0 8.50412-1.99255 7.0097 0Z"/>
<use data-text="&#x1d435;" xlink:href="#font_3_2477" transform="matrix(6.97385,0,0,-6.97385,204.35599,116.10499)"/>
<use data-text="3" xlink:href="#font_4_52" transform="matrix(4.98132,0,0,-4.98132,209.20899,117.84799)"/>
<use data-text="1" xlink:href="#font_4_50" transform="matrix(4.98132,0,0,-4.98132,211.69965,117.84799)"/>
<path transform="matrix(1,0,0,-1,185.05599,124.60799)" stroke-width=".59776" stroke-linecap="butt" stroke-dasharray=".59776,1.99255" stroke-miterlimit="10" stroke-linejoin="miter" fill="none" stroke="#00bfbf" d="M0 0H8.50412 17.00826"/>
<path transform="matrix(1,0,0,-1,185.05599,124.60799)" d="M8.50412 1.99255 10.39917 .61574 9.67531-1.61201H7.33293L6.60907 .61574Z" fill="#00bfbf" fill-opacity=".8"/>
<path transform="matrix(1,0,0,-1,185.05599,124.60799)" stroke-width=".59776" stroke-linecap="butt" stroke-miterlimit="10" stroke-linejoin="miter" fill="none" stroke="#00bfbf" d="M8.50412 1.99255 10.39917 .61574 9.67531-1.61201H7.33293L6.60907 .61574Z"/>
<use data-text="&#x1d435;" xlink:href="#font_3_2477" transform="matrix(6.97385,0,0,-6.97385,204.35599,126.13798)"/>
<use data-text="1" xlink:href="#font_4_50" transform="matrix(4.98132,0,0,-4.98132,209.20899,127.88197)"/>
<use data-text="2" xlink:href="#font_4_51" transform="matrix(4.98132,0,0,-4.98132,211.69965,127.88197)"/>
</svg>
