<svg xmlns="http://www.w3.org/2000/svg" xmlns:xlink="http://www.w3.org/1999/xlink" xmlns:inkscape="http://www.inkscape.org/namespaces/inkscape" version="1.1" width="228.623" height="198.865" viewBox="0 0 228.623 198.865">
<defs>
<path id="font_1_49" d="M.37998963 .32505799C.37998963 .12722779 .33499146 .012313843 .25 .012313843 .1639862 .012313843 .11999512 .1262207 .11999512 .32904054 .11999512 .5318756 .16499329 .6497803 .24798584 .6497803 .33599855 .6497803 .37998963 .53286746 .37998963 .32505799M.47599793 .3300476C.47599793 .53486636 .3849945 .67578127 .2539978 .67578127 .09298706 .67578127 .023986817 .5128937 .023986817 .3360443 .023986817 .17218018 .07899475-.013671875 .25-.013671875 .41299439-.013671875 .47599793 .15818787 .47599793 .3300476Z"/>
<path id="font_1_3177" d="M.56799319 .4284668H.28599549C.18199158 .4284668 .117996219 .38246156 .07398987 .3024292H.08999634C.13398743 .35546876 .17098999 .35546876 .22898865 .35546876L.13999939 .14936829C.1269989 .12034607 .10899353 .09133911 .06599426 .079330448 .039993287 .07232666 .034988405 .046310426 .034988405 .031311037 .034988405 .007293701 .05999756-.0126953129 .085998538-.0126953129 .09799194-.0126953129 .11299133-.010696411 .12399292-.0017089844 .20799256 .061325075 .23899842 .23339844 .2849884 .35546876H.3789978C.35398866 .27142335 .32398988 .2013855 .30099488 .13035584 .29499818 .111343387 .2919922 .09133911 .2919922 .06832886 .2919922 .029159546 .30899049-.0068359377 .34899903-.0068359377 .4189911-.0068359377 .47200013 .06315613 .49299623 .13522339H.47698976C.45298768 .08117676 .4249878 .06915283 .4039917 .06915283 .38198854 .06915283 .3659973 .094177249 .3659973 .11720276 .3659973 .1842804 .4189911 .31240846 .43299867 .35546876H.54499819L.56799319 .4284668Z"/>
<path id="font_1_48" d="M.2869873 .67578127H.21998596L-.009002686-.013671875H.05899048L.2869873 .67578127Z"/>
<path id="font_1_57" d="M.2709961 .27209474C.33898927 .22613526 .36898805 .18617249 .36898805 .1242218 .36898805 .059280397 .32398988 .014328003 .25898744 .014328003 .18299866 .014328003 .13198853 .06626892 .13198853 .15820313 .13198853 .22314453 .15299988 .26409913 .21199036 .3120575L.2709961 .27209474M.35499574 .53286746C.35499574 .470932 .32899476 .42897035 .26098634 .3889923 .17298889 .4409485 .13598633 .48690797 .13598633 .54885867 .13598633 .6108093 .1789856 .6477661 .24598694 .6477661 .31399537 .6477661 .35499574 .60180667 .35499574 .53286746M.44499208 .15519715C.44499208 .23512268 .41299439 .28907777 .2899933 .37101747 .3889923 .42396546 .42399598 .45793153 .42399598 .53286746 .42399598 .6108093 .35499574 .67578127 .2559967 .67578127 .14498902 .67578127 .06199646 .61579897 .06199646 .5198822 .06199646 .4549408 .08299255 .41697694 .18598938 .3320465 .07899475 .2571106 .055999757 .21813965 .055999757 .14920044 .055999757 .055282594 .1349945-.013671875 .24798584-.013671875 .36799623-.013671875 .44499208 .05229187 .44499208 .15519715Z"/>
<path id="font_1_53" d="M.2919922 .23098755H.051986696L.2919922 .573822V.23098755M.47299195 .16699219V.23098755H.36999513V.67578127H.32598878L.011993408 .23098755V.16699219H.2919922V0H.36999513V.16699219H.47299195Z"/>
<path id="font_1_52" d="M.06098938 .50987246C.101989749 .58380129 .147995 .61576846 .20999146 .61576846 .27598573 .61576846 .31799317 .58180239 .31799317 .51387026 .31799317 .45292665 .28599549 .40795899 .23699951 .37998963 .21699524 .36799623 .19099427 .3570099 .15299988 .34402467V.33003236C.20999146 .33003236 .23298645 .32704164 .25498963 .3200531 .32398988 .3000641 .35899354 .2511139 .35899354 .17518616 .35899354 .09025574 .30299378 .022323609 .22898865 .022323609 .20098877 .022323609 .17999268 .027313233 .14299011 .05329895 .114990238 .073272708 .09899902 .07926941 .08198547 .07926941 .05899048 .07926941 .040985109 .06428528 .040985109 .043304445 .040985109 .0073242189 .07998657-.013671875 .15299988-.013671875 .24198914-.013671875 .33699037 .015319824 .3849945 .07926941 .4139862 .11723328 .43099977 .16618347 .43099977 .21913147 .43099977 .27108766 .4149933 .31704713 .3869934 .34802247 .3659973 .36999513 .34799195 .38198854 .3039856 .40097047 .37098695 .44093324 .39698792 .4908905 .39698792 .5388489 .39698792 .6207733 .33399964 .67578127 .24099732 .67578127 .13699341 .67578127 .07398987 .6087799 .04499817 .51387026L.06098938 .50987246Z"/>
<path id="font_1_51" d="M.47399903 .13696289 .45999146 .1429596C.4269867 .08699036 .4059906 .07598877 .3639984 .07598877H.12998963L.29499818 .2519226C.38398744 .34588624 .4229889 .42085267 .4229889 .4998169 .4229889 .59877017 .35099793 .67578127 .23799134 .67578127 .114990238 .67578127 .050994874 .5937805 .02999878 .4768219L.050994874 .47183229C.09098816 .5697937 .12599182 .6017761 .19799805 .6017761 .2829895 .6017761 .33699037 .55178835 .33699037 .4608307 .33699037 .37586976 .30099488 .29989625 .20698548 .200943L.0289917 .011993408V0H.41999818L.47399903 .13696289Z"/>
<path id="font_1_1155" d="M.62098696 .22012329V.2861328H.06399536V.22012329H.62098696Z"/>
<path id="font_1_50" d="M.3939972 0V.01499939C.31900025 .01499939 .29899598 .032989503 .29899598 .07597351V.67277529L.2899933 .67578127 .11099243 .5847931V.5708008L.13798523 .5807953C.1559906 .5877991 .17298889 .59280398 .18299866 .59280398 .20399475 .59280398 .21299744 .57780459 .21299744 .543808V.0949707C.21299744 .039978029 .19198609 .018997193 .117996219 .01499939V0H.3939972Z"/>
<clipPath id="clip_2">
<path transform="matrix(1,0,0,-1,32.162,163.58802)" d="M0 0H194.27245V161.39817H0Z"/>
</clipPath>
<path id="font_1_3191" d="M.23999024 .018966675C.16999817 .018966675 .12399292 .094955448 .12399292 .15795899 .12399292 .27696229 .20899964 .41096498 .33898927 .41096498L.23999024 .018966675M.41799928 .41096498C.5029907 .4119568 .5349884 .358963 .5349884 .279953 .5349884 .16996765 .44198609 .018966675 .32099916 .018966675L.41799928 .41096498M.47999574 .66796877H.397995C.38198854 .5919647 .3639984 .5159607 .34498597 .43995667H.32899476C.24899292 .43995667 .17999268 .41296388 .12399292 .35595704 .070999149 .30195619 .039993287 .23596192 .039993287 .15995789 .039993287 .044952394 .12298584-.011047363 .23098755-.011047363L.18499756-.18304444H.2659912L.31399537-.011047363C.40098573-.011047363 .47999574 .015960694 .5399933 .080963138 .59298709 .13795471 .6199951 .20695496 .6199951 .2849579 .6199951 .40196229 .5279999 .43995667 .4249878 .43995667L.47999574 .66796877Z"/>
<path id="font_1_2480" d="M.73399356 .653183H.19999695L.19599915 .6371765H.21499634C.27398683 .6371765 .2899933 .6261749 .2899933 .60217288 .2899933 .59516909 .2889862 .5841522 .2849884 .56614688L.16499329 .07798767C.15699768 .04399109 .13398743 .015991211 .06098938 .015991211H.041992189L.037994386 0H.60899356L.6749878 .19799805H.6589966C.6159973 .084991458 .55999758 .037994386 .4019928 .037994386H.33499146C.28799439 .037994386 .27198792 .04899597 .27198792 .06498718 .27198792 .067993167 .272995 .070999149 .27398683 .07499695L.33999635 .3330078H.42999269C.46099855 .3330078 .5019989 .32899476 .5019989 .28199769 .5019989 .2649994 .49699403 .23500061 .49598695 .22200012H.5130005L.57099917 .46406556H.5549927C.5329895 .38200379 .4889984 .3690033 .42900086 .3690033H.34899903L.40899659 .6171875H.56900027C.6199951 .6171875 .6749878 .60417178 .6779938 .53012087 .6779938 .519104 .6769867 .5081024 .6759949 .49508668H.69200137L.73399356 .653183Z"/>
<path id="font_1_183" d="M.5970001 .021987915 .36698915 .2519989 .5970001 .48399354 .5509949 .5289917 .31999208 .29899598 .08999634 .5289917 .042999269 .48298646 .272995 .2519989 .042999269 .020996094 .08898926-.025009156 .31999208 .20498657 .5509949-.025009156 .5970001 .021987915Z"/>
<path id="font_1_2477" d="M.33799745 .3143463C.35299684 .31835938 .37298585 .31835938 .3889923 .31835938 .46699525 .31835938 .5309906 .28330995 .5309906 .21022034 .5309906 .08004761 .43499757 .037994386 .34098817 .037994386 .31498719 .037994386 .29499818 .039993287 .269989 .04699707L.33799745 .3143463M.4059906 .61125186C.4189911 .61325076 .43399049 .6142578 .44898988 .6142578 .5029907 .6142578 .56799319 .5932617 .56799319 .5162964 .56799319 .41932679 .5119934 .35334779 .3999939 .35334779 .3849945 .35334779 .36698915 .35534669 .34700013 .35934449L.4059906 .61125186M.19799805 .653244 .19299317 .6372528H.21199036C.2709961 .6372528 .2899933 .62124636 .2899933 .5952606 .2899933 .5892639 .2889862 .5792694 .28799439 .5742645L.16499329 .07904053C.15699768 .04499817 .13798523 .015991211 .06199646 .015991211H.041992189L.037994386 0H.3619995C.56900027 0 .651001 .094070438 .651001 .19319153 .651001 .27830506 .58399966 .32035829 .5239868 .3313446L.5209961 .33535768C.54100039 .3403473 .56999209 .34835816 .59498599 .36134339 .6429901 .38534547 .6859894 .43032838 .6859894 .5082855 .6859894 .6442566 .5339966 .653244 .44999696 .653244H.19799805Z"/>
<path id="font_3_2509" d="M.22698975 .4412079 .068984989 .41921998 .07199097 .4032135C.07899475 .4052124 .09098816 .4072113 .099990848 .4072113 .12298584 .4072113 .1309967 .40222169 .1309967 .3852234 .1309967 .3822174 .12998963 .37521363 .1289978 .37321473 .049987794 .0662384 .049987794 .04724121 .049987794 .035247804 .049987794 .008255005 .06199646-.0107421879 .08999634-.0107421879 .13899231-.0107421879 .18899536 .049240114 .22399903 .09423828L.21099854 .10424805C.1749878 .06524658 .16899109 .053253175 .14698792 .053253175 .13999939 .053253175 .13398743 .056243898 .13398743 .06324768 .13398743 .06724548 .13398743 .071243289 .1349945 .07723999L.22698975 .4412079M.25698854 .5662079C.25698854 .5912018 .23498535 .61621096 .20899964 .61621096 .17999268 .61621096 .16099549 .5912018 .16099549 .5662079 .16099549 .5402069 .17999268 .52020266 .20899964 .52020266 .23498535 .52020266 .25698854 .5402069 .25698854 .5662079Z"/>
<path id="font_3_2510" d="M.35099793 .44114686 .19299317 .4131317 .19599915 .39611817C.20298767 .39912416 .21499634 .40112306 .22299195 .40112306 .24499512 .40112306 .25498963 .39111329 .25498963 .3791046L.16299439 .015853882C.13899231-.080200199 .10598755-.15625 .05999756-.15625 .054992677-.15625 .049987794-.1502533 .049987794-.1462555 .049987794-.13023377 .06599426-.12724304 .06599426-.11222839 .06599426-.08921814 .049987794-.07420349 .0309906-.07420349-.0040130617-.07420349-.01600647-.10421753-.01600647-.12623596-.01600647-.1542511 .0039978029-.18725586 .056991579-.18725586 .16499329-.18725586 .22099304-.07220459 .24299622 .015853882L.35099793 .44114686M.37199403 .5662079C.37199403 .5912018 .34999085 .61621096 .32398988 .61621096 .29499818 .61621096 .27598573 .5912018 .27598573 .5662079 .27598573 .5402069 .29499818 .52020266 .32398988 .52020266 .34999085 .52020266 .37199403 .5402069 .37199403 .5662079Z"/>
<path id="font_3_2477" d="M.33799745 .3143463C.35299684 .31835938 .37298585 .31835938 .3889923 .31835938 .46699525 .31835938 .5309906 .28330995 .5309906 .21022034 .5309906 .08004761 .43499757 .037994386 .34098817 .037994386 .31498719 .037994386 .29499818 .039993287 .269989 .04699707L.33799745 .3143463M.4059906 .61125186C.4189911 .61325076 .43399049 .6142578 .44898988 .6142578 .5029907 .6142578 .56799319 .5932617 .56799319 .5162964 .56799319 .41932679 .5119934 .35334779 .3999939 .35334779 .3849945 .35334779 .36698915 .35534669 .34700013 .35934449L.4059906 .61125186M.19799805 .653244 .19299317 .6372528H.21199036C.2709961 .6372528 .2899933 .62124636 .2899933 .5952606 .2899933 .5892639 .2889862 .5792694 .28799439 .5742645L.16499329 .07904053C.15699768 .04499817 .13798523 .015991211 .06199646 .015991211H.041992189L.037994386 0H.3619995C.56900027 0 .651001 .094070438 .651001 .19319153 .651001 .27830506 .58399966 .32035829 .5239868 .3313446L.5209961 .33535768C.54100039 .3403473 .56999209 .34835816 .59498599 .36134339 .6429901 .38534547 .6859894 .43032838 .6859894 .5082855 .6859894 .6442566 .5339966 .653244 .44999696 .653244H.19799805Z"/>
<path id="font_4_974" d="M.2679901 .3962555C.31999208 .4772644 .375 .5582733 .42399598 .60827639 .44898988 .63427737 .47799684 .65527346 .5059967 .65527346 .5289917 .65527346 .54100039 .6432648 .54100039 .6242676 .54100039 .5282593 .42599488 .43026734 .2689972 .39526368L.2679901 .3962555M.07699585 .38926698C.10398865 .37025453 .1349945 .3612671 .16499329 .36026 .15098572 .33825685 .13699341 .31625367 .125 .29426576 .07798767 .21224976 .04798889 .1312561 .04798889 .07624817 .04798889 .018249512 .08799744-.0107421879 .1349945-.0107421879 .19799805-.0107421879 .25698854 .04624939 .3619995 .16925049L.34098817 .18624878C.24398804 .07424927 .18899536 .019256592 .14199829 .019256592 .114990238 .019256592 .10598755 .038253786 .10598755 .06225586 .10598755 .1292572 .19699097 .27626039 .24899292 .36026 .4249878 .386261 .57099917 .5152588 .57099917 .6202698 .57099917 .66625979 .548996 .6872711 .5069885 .6872711 .4249878 .6872711 .2899933 .5452728 .18499756 .3902588 .15499878 .3902588 .12399292 .3922577 .09098816 .41526795L.07699585 .38926698Z"/>
<path id="font_4_2513" d="M.6669922 .10708618C.647995 .0700531 .621994 .054031373 .6049957 .054031373 .59599307 .054031373 .58999636 .058029176 .58999636 .06604004 .58999636 .06904602 .59098818 .07505798 .59199526 .078063968L.6529999 .30932618C.6589966 .3333435 .6599884 .35237123 .6599884 .37039186 .6599884 .41540528 .6419983 .44140626 .60598757 .44140626 .58599856 .44140626 .5669861 .43440248 .54499819 .41940309 .49598695 .38639833 .44400025 .32434083 .4149933 .27227784H.4099884L.41999818 .3083191C.42599488 .32833863 .42900086 .34335328 .42900086 .36038209 .42900086 .4044037 .41099549 .44140626 .37399293 .44140626 .33599855 .44140626 .27598573 .41540528 .18199158 .27227784H.17599488L.21998596 .44140626 .06298828 .41740418 .06498718 .4033966C.07299805 .4044037 .083999637 .4053955 .09199524 .4053955 .11898804 .4053955 .125 .39239503 .125 .37438966L.02999878 0H.10798645L.14299011 .13511658C.15899658 .19619751 .2689972 .37739564 .32099916 .37739564 .33898927 .37739564 .34399415 .359375 .34399415 .33935548 .34399415 .32434083 .34098817 .3083191 .33898927 .2993164L.2619934 0H.34098817L.375 .13511658C.3899994 .19619751 .5 .37739564 .55400088 .37739564 .57199099 .37739564 .5779877 .359375 .5779877 .33935548 .5779877 .32234193 .57598879 .31332398 .57199099 .2993164L.5159912 .078063968C.5109863 .058029176 .5099945 .04801941 .5099945 .041015626 .5099945 .0021820069 .5269928-.0078125 .548996-.0078125 .59599307-.0078125 .647995 .04219055 .6799927 .09623718L.6669922 .10708618Z"/>
<path id="font_4_2514" d="M.46699525 .096206668 .45399476 .10720825C.43998719 .09020996 .41600038 .05418396 .3919983 .05418396 .3809967 .05418396 .37799073 .062179567 .3769989 .06819153 .3769989 .07319641 .3769989 .07620239 .37799073 .078201297L.43699647 .3093567C.44198609 .32936097 .44799806 .35438539 .44799806 .37939454 .44799806 .4123993 .43598939 .44140626 .3919983 .44140626 .33198548 .44140626 .27198792 .37539674 .23199463 .32536317 .22999573 .32235719 .18099976 .25231935 .17599488 .25231935H.17298889L.22399903 .44140626 .06498718 .418396 .066986087 .4033966C.07398987 .4044037 .084991458 .4064026 .09498596 .4064026 .12199402 .4064026 .125 .39239503 .125 .37438966L.02999878 0H.10699463L.13999939 .12411499C.1459961 .1451416 .17199707 .19218445 .20799256 .24624634 .23899842 .29330445 .3019867 .37939454 .33999635 .37939454 .35798646 .37939454 .3639984 .36038209 .3639984 .34135438 .3639984 .3273468 .35899354 .307312 .35699464 .2993164L.2999878 .078063968C.29699708 .06704712 .29299928 .05102539 .29299928 .038009645 .29299928 .015182495 .3019867-.0078125 .33399964-.0078125 .38598634-.0078125 .43399049 .05618286 .46199037 .09020996L.46699525 .096206668Z"/>
<path id="font_4_50" d="M.3939972 0V.01499939C.31900025 .01499939 .29899598 .032989503 .29899598 .07597351V.67277529L.2899933 .67578127 .11099243 .5847931V.5708008L.13798523 .5807953C.1559906 .5877991 .17298889 .59280398 .18299866 .59280398 .20399475 .59280398 .21299744 .57780459 .21299744 .543808V.0949707C.21299744 .039978029 .19198609 .018997193 .117996219 .01499939V0H.3939972Z"/>
<path id="font_4_51" d="M.47399903 .13696289 .45999146 .1429596C.4269867 .08699036 .4059906 .07598877 .3639984 .07598877H.12998963L.29499818 .2519226C.38398744 .34588624 .4229889 .42085267 .4229889 .4998169 .4229889 .59877017 .35099793 .67578127 .23799134 .67578127 .114990238 .67578127 .050994874 .5937805 .02999878 .4768219L.050994874 .47183229C.09098816 .5697937 .12599182 .6017761 .19799805 .6017761 .2829895 .6017761 .33699037 .55178835 .33699037 .4608307 .33699037 .37586976 .30099488 .29989625 .20698548 .200943L.0289917 .011993408V0H.41999818L.47399903 .13696289Z"/>
<path id="font_4_52" d="M.06098938 .50987246C.101989749 .58380129 .147995 .61576846 .20999146 .61576846 .27598573 .61576846 .31799317 .58180239 .31799317 .51387026 .31799317 .45292665 .28599549 .40795899 .23699951 .37998963 .21699524 .36799623 .19099427 .3570099 .15299988 .34402467V.33003236C.20999146 .33003236 .23298645 .32704164 .25498963 .3200531 .32398988 .3000641 .35899354 .2511139 .35899354 .17518616 .35899354 .09025574 .30299378 .022323609 .22898865 .022323609 .20098877 .022323609 .17999268 .027313233 .14299011 .05329895 .114990238 .073272708 .09899902 .07926941 .08198547 .07926941 .05899048 .07926941 .040985109 .06428528 .040985109 .043304445 .040985109 .0073242189 .07998657-.013671875 .15299988-.013671875 .24198914-.013671875 .33699037 .015319824 .3849945 .07926941 .4139862 .11723328 .43099977 .16618347 .43099977 .21913147 .43099977 .27108766 .4149933 .31704713 .3869934 .34802247 .3659973 .36999513 .34799195 .38198854 .3039856 .40097047 .37098695 .44093324 .39698792 .4908905 .39698792 .5388489 .39698792 .6207733 .33399964 .67578127 .24099732 .67578127 .13699341 .67578127 .07398987 .6087799 .04499817 .51387026L.06098938 .50987246Z"/>
</defs>
<path transform="matrix(1,0,0,-1,32.162,163.58802)" stroke-width=".3985" stroke-linecap="butt" stroke-miterlimit="10" stroke-linejoin="miter" fill="none" stroke="#b0b0b0" d="M6.4149 0V161.39817M38.4879 0V161.39817M70.56335 0V161.39817M102.63799 0V161.39817M134.71262 0V161.39817"/>
<path transform="matrix(1,0,0,-1,32.162,163.58802)" stroke-width=".3985" stroke-linecap="butt" stroke-miterlimit="10" stroke-linejoin="miter" fill="none" stroke="#b0b0b0" d="M0 7.47954H194.27245M0 38.3806H194.27245M0 69.28166H194.27245M0 100.18272H194.27245M0 131.08379H194.27245"/>
<path transform="matrix(1,0,0,-1,32.162,163.58802)" stroke-width=".19925" stroke-linecap="butt" stroke-miterlimit="10" stroke-linejoin="miter" fill="none" stroke="#000000" d="M6.4149-4.25177V0M38.4879-4.25177V0M70.56335-4.25177V0M102.63799-4.25177V0M134.71262-4.25177V0"/>
<path transform="matrix(1,0,0,-1,32.162,163.58802)" stroke-width=".19925" stroke-linecap="butt" stroke-miterlimit="10" stroke-linejoin="miter" fill="none" stroke="#000000" d="M-4.25171 7.47954H0M-4.25171 38.3806H0M-4.25171 69.28166H0M-4.25171 100.18272H0M-4.25171 131.08379H0"/>
<path transform="matrix(1,0,0,-1,32.162,163.58802)" stroke-width=".3985" stroke-linecap="butt" stroke-miterlimit="10" stroke-linejoin="miter" fill="none" stroke="#000000" d="M0 0V161.39817H194.27245V0H0Z"/>
<use data-text="0" xlink:href="#font_1_49" transform="matrix(9.96264,0,0,-9.96264,36.086,178.09401)"/>
<use data-text="&#x1d70b;" xlink:href="#font_1_3177" transform="matrix(9.96264,0,0,-9.96264,63.745,178.09401)"/>
<use data-text="/" xlink:href="#font_1_48" transform="matrix(9.96264,0,0,-9.96264,69.802288,178.09401)"/>
<use data-text="8" xlink:href="#font_1_57" transform="matrix(9.96264,0,0,-9.96264,72.5719,178.09401)"/>
<use data-text="&#x1d70b;" xlink:href="#font_1_3177" transform="matrix(9.96264,0,0,-9.96264,95.82,178.09401)"/>
<use data-text="/" xlink:href="#font_1_48" transform="matrix(9.96264,0,0,-9.96264,101.87728,178.09401)"/>
<use data-text="4" xlink:href="#font_1_53" transform="matrix(9.96264,0,0,-9.96264,104.6469,178.09401)"/>
<use data-text="3" xlink:href="#font_1_52" transform="matrix(9.96264,0,0,-9.96264,125.403,178.09401)"/>
<use data-text="&#x1d70b;" xlink:href="#font_1_3177" transform="matrix(9.96264,0,0,-9.96264,130.38433,178.09401)"/>
<use data-text="/" xlink:href="#font_1_48" transform="matrix(9.96264,0,0,-9.96264,136.44162,178.09401)"/>
<use data-text="8" xlink:href="#font_1_57" transform="matrix(9.96264,0,0,-9.96264,139.21123,178.09401)"/>
<use data-text="&#x1d70b;" xlink:href="#font_1_3177" transform="matrix(9.96264,0,0,-9.96264,159.968,178.09401)"/>
<use data-text="/" xlink:href="#font_1_48" transform="matrix(9.96264,0,0,-9.96264,166.0253,178.09401)"/>
<use data-text="2" xlink:href="#font_1_51" transform="matrix(9.96264,0,0,-9.96264,168.7949,178.09401)"/>
<use data-text="&#x2212;" xlink:href="#font_1_1155" transform="matrix(9.96264,0,0,-9.96264,12.584,159.47602)"/>
<use data-text="1" xlink:href="#font_1_50" transform="matrix(9.96264,0,0,-9.96264,19.40841,159.47602)"/>
<use data-text="0" xlink:href="#font_1_49" transform="matrix(9.96264,0,0,-9.96264,19.408999,128.505)"/>
<use data-text="1" xlink:href="#font_1_50" transform="matrix(9.96264,0,0,-9.96264,19.408999,97.67402)"/>
<use data-text="2" xlink:href="#font_1_51" transform="matrix(9.96264,0,0,-9.96264,19.408999,66.77402)"/>
<use data-text="3" xlink:href="#font_1_52" transform="matrix(9.96264,0,0,-9.96264,19.408999,35.80301)"/>
<g clip-path="url(#clip_2)">
<path transform="matrix(1,0,0,-1,32.162,163.58802)" stroke-width=".59776" stroke-linecap="butt" stroke-miterlimit="10" stroke-linejoin="miter" fill="none" stroke="#ff0000" d="M6.41487 79.92534 7.69785 79.26584 8.98083 78.63147 10.26381 78.0232 11.54678 77.4419 12.82976 76.88849 14.11273 76.36374 15.3957 75.86842 16.67868 75.40327 17.96165 74.9689 19.24463 74.56589 20.5276 74.19476 21.8106 73.85599 23.09357 73.54996 24.37653 73.27701 25.65952 73.0374 26.94249 72.83131 28.22546 72.65892 29.50845 72.52028 30.79141 72.41542 32.07439 72.3443 33.35738 72.30678 34.64035 72.30273 35.92331 72.33194 37.20628 72.3941 38.48927 72.48895 39.77225 72.61609 41.05522 72.7751 42.3382 72.96555 43.62117 73.18694 44.90414 73.43872 46.18713 73.72034 47.47011 74.03116 48.75307 74.37059 50.03606 74.73795 51.31903 75.13255 52.602 75.55368 53.88496 76.00058 55.16795 76.47253 56.45093 76.96877 57.7339 77.48848 59.01689 78.03085 60.29985 78.59512 61.58282 79.18042 62.86581 79.78595 64.14879 80.41086 65.43175 81.05429 66.71474 81.71544 67.99771 82.39342 69.28069 83.08739 70.56367 83.79651 71.84663 84.51991 73.12961 85.25674 74.41258 86.00618 75.69557 86.76735 76.97855 87.53944 78.2615 88.3216 79.5445 89.113 80.82747 89.91281 82.11044 90.72023 83.39342 91.53444 84.67639 92.35463 85.95937 93.18001 87.24236 94.00977 88.52533 94.84317 89.80829 95.67941 91.09126 96.51776 92.37425 97.35745 93.65723 98.19774 94.9402 99.03787 96.22318 99.87717 97.50615 100.71489 98.78912 101.55035 100.07211 102.38284 101.35507 103.2117 102.63805 104.03624 103.92104 104.8558 105.20401 105.66977 106.48698 106.47748 107.76996 107.2783 109.05293 108.07162 110.3359 108.85686 111.61888 109.63339 112.90186 110.40067 114.18483 111.15808 115.4678 111.9051 116.7508 112.64116 118.03377 113.36574 119.31673 114.0783 120.59972 114.77832 121.88269 115.46533 123.16566 116.1388 124.44865 116.79826 125.73161 117.44325 127.01459 118.07332 128.29758 118.688 129.58055 119.28688 130.86351 119.8695 132.14649 120.43547 133.42948 120.9844 134.71245 121.51588"/>
<path transform="matrix(1,0,0,-1,32.162,163.58802)" stroke-width=".59776" stroke-linecap="butt" stroke-miterlimit="10" stroke-linejoin="miter" fill="none" stroke="#0000ff" d="M6.41487 104.61513 7.69785 105.28134 8.98083 105.93585 10.26381 106.57767 11.54678 107.20592 12.82976 107.8197 14.11273 108.41823 15.3957 109.0007 16.67868 109.5664 17.96165 110.11472 19.24463 110.64497 20.5276 111.15666 21.8106 111.64926 23.09357 112.12233 24.37653 112.57549 25.65952 113.00836 26.94249 113.4207 28.22546 113.81224 29.50845 114.18279 30.79141 114.53217 32.07439 114.86032 33.35738 115.16714 34.64035 115.4526 35.92331 115.71672 37.20628 115.95955 38.48927 116.1811 39.77225 116.38153 41.05522 116.56094 42.3382 116.7195 43.62117 116.85735 44.90414 116.97469 46.18713 117.07173 47.47011 117.14871 48.75307 117.20586 50.03606 117.24344 51.31903 117.26173 52.602 117.26097 53.88496 117.24149 55.16795 117.20355 56.45093 117.14748 57.7339 117.07356 59.01689 116.98213 60.29985 116.87352 61.58282 116.74803 62.86581 116.60597 64.14879 116.4477 65.43175 116.27354 66.71474 116.08383 67.99771 115.8789 69.28069 115.65909 70.56367 115.42474 71.84663 115.17616 73.12961 114.91374 74.41258 114.63777 75.69557 114.34862 76.97855 114.04662 78.2615 113.7321 79.5445 113.40543 80.82747 113.06691 82.11044 112.7169 83.39342 112.35573 84.67639 111.98376 85.95937 111.60132 87.24236 111.20874 88.52533 110.80638 89.80829 110.39456 91.09126 109.97362 92.37425 109.54391 93.65723 109.10576 94.9402 108.65952 96.22318 108.20555 97.50615 107.74414 98.78912 107.27567 100.07211 106.80049 101.35507 106.31892 102.63805 105.8313 103.92104 105.338 105.20401 104.83934 106.48698 104.33566 107.76996 103.82735 109.05293 103.31471 110.3359 102.79813 111.61888 102.27792 112.90186 101.75447 114.18483 101.22809 115.4678 100.69914 116.7508 100.168 118.03377 99.63503 119.31673 99.10054 120.59972 98.56491 121.88269 98.02852 123.16566 97.4917 124.44865 96.95482 125.73161 96.41826 127.01459 95.88235 128.29758 95.34747 129.58055 94.814 130.86351 94.2823 132.14649 93.75272 133.42948 93.22565 134.71245 92.70146"/>
<path transform="matrix(1,0,0,-1,32.162,163.58802)" stroke-width=".59776" stroke-linecap="butt" stroke-miterlimit="10" stroke-linejoin="miter" fill="none" stroke="#008000" d="M6.41487 135.00067 7.69785 134.97907 8.98083 134.91423 10.26381 134.80635 11.54678 134.65558 12.82976 134.46219 14.11273 134.22657 15.3957 133.9491 16.67868 133.6303 17.96165 133.27072 19.24463 132.87104 20.5276 132.43192 21.8106 131.95417 23.09357 131.4386 24.37653 130.88608 25.65952 130.29758 26.94249 129.67407 28.22546 129.01662 29.50845 128.32628 30.79141 127.6042 32.07439 126.85152 33.35738 126.06944 34.64035 125.25919 35.92331 124.42201 37.20628 123.55916 38.48927 122.67195 39.77225 121.76166 41.05522 120.82959 42.3382 119.87709 43.62117 118.90547 44.90414 117.91606 46.18713 116.9102 47.47011 115.88918 48.75307 114.85434 50.03606 113.80699 51.31903 112.74841 52.602 111.6799 53.88496 110.60274 55.16795 109.51817 56.45093 108.42744 57.7339 107.33179 59.01689 106.23238 60.29985 105.13042 61.58282 104.02705 62.86581 102.92343 64.14879 101.82068 65.43175 100.71986 66.71474 99.62206 67.99771 98.5283 69.28069 97.43962 70.56367 96.35703 71.84663 95.28145 73.12961 94.21384 74.41258 93.15512 75.69557 92.1062 76.97855 91.06792 78.2615 90.04114 79.5445 89.02667 80.82747 88.0253 82.11044 87.0378 83.39342 86.06493 84.67639 85.10739 85.95937 84.16588 87.24236 83.24109 88.52533 82.33365 89.80829 81.44421 91.09126 80.57336 92.37425 79.7217 93.65723 78.88977 94.9402 78.07816 96.22318 77.28734 97.50615 76.51782 98.78912 75.77011 100.07211 75.04468 101.35507 74.34192 102.63805 73.6623 103.92104 73.00618 105.20401 72.374 106.48698 71.7661 107.76996 71.18283 109.05293 70.62453 110.3359 70.09149 111.61888 69.58406 112.90186 69.10246 114.18483 68.64702 115.4678 68.21794 116.7508 67.81548 118.03377 67.43983 119.31673 67.09122 120.59972 66.76982 121.88269 66.4758 123.16566 66.20932 124.44865 65.97052 125.73161 65.7595 127.01459 65.57643 128.29758 65.42134 129.58055 65.29436 130.86351 65.19551 132.14649 65.12488 133.42948 65.08247 134.71245 65.06834"/>
<path transform="matrix(1,0,0,-1,32.162,163.58802)" stroke-width=".59776" stroke-linecap="butt" stroke-miterlimit="10" stroke-linejoin="miter" fill="none" stroke="#000000" d="M6.41487 14.80751 7.69785 14.20685 8.98083 13.62746 10.26381 13.07011 11.54678 12.53558 12.82976 12.02458 14.11273 11.53772 15.3957 11.07562 16.67868 10.63885 17.96165 10.22792 19.24463 9.84322 20.5276 9.48515 21.8106 9.1541 23.09357 8.85028 24.37653 8.57396 25.65952 8.32529 26.94249 8.1044 28.22546 7.91138 29.50845 7.74623 30.79141 7.60895 32.07439 7.49947 33.35738 7.41765 34.64035 7.36334 35.92331 7.33638 37.20628 7.33652 38.48927 7.36346 39.77225 7.41695 41.05522 7.4966 42.3382 7.6021 43.62117 7.733 44.90414 7.88892 46.18713 8.06941 47.47011 8.27399 48.75307 8.50218 50.03606 8.7535 51.31903 9.02739 52.602 9.3233 53.88496 9.64072 55.16795 9.97906 56.45093 10.33775 57.7339 10.7162 59.01689 11.11382 60.29985 11.52998 61.58282 11.96411 62.86581 12.41557 64.14879 12.88376 65.43175 13.36804 66.71474 13.86778 67.99771 14.38237 69.28069 14.91116 70.56367 15.45355 71.84663 16.00888 73.12961 16.57654 74.41258 17.15588 75.69557 17.74629 76.97855 18.34717 78.2615 18.95784 79.5445 19.57776 80.82747 20.20624 82.11044 20.8427 83.39342 21.48653 84.67639 22.13713 85.95937 22.7939 87.24236 23.45624 88.52533 24.12355 89.80829 24.79527 91.09126 25.4708 92.37425 26.14957 93.65723 26.831 94.9402 27.51454 96.22318 28.19963 97.50615 28.8857 98.78912 29.57222 100.07211 30.25865 101.35507 30.94443 102.63805 31.62904 103.92104 32.31197 105.20401 32.99268 106.48698 33.67065 107.76996 34.34541 109.05293 35.01643 110.3359 35.68321 111.61888 36.34529 112.90186 37.00215 114.18483 37.65335 115.4678 38.29839 116.7508 38.93678 118.03377 39.56815 119.31673 40.19196 120.59972 40.80779 121.88269 41.4152 123.16566 42.01378 124.44865 42.60307 125.73161 43.18266 127.01459 43.75212 128.29758 44.31107 129.58055 44.85909 130.86351 45.39577 132.14649 45.92073 133.42948 46.43358 134.71245 46.93396"/>
<path transform="matrix(1,0,0,-1,32.162,163.58802)" stroke-width=".59776" stroke-linecap="butt" stroke-miterlimit="10" stroke-linejoin="miter" fill="none" stroke="#bf00bf" d="M6.41487 51.99142 7.69785 50.92749 8.98083 49.85329 10.26381 48.77032 11.54678 47.68016 12.82976 46.58434 14.11273 45.48444 15.3957 44.38197 16.67868 43.27853 17.96165 42.17566 19.24463 41.07487 20.5276 39.97768 21.8106 38.88559 23.09357 37.80008 24.37653 36.72256 25.65952 35.65443 26.94249 34.5971 28.22546 33.5519 29.50845 32.52007 30.79141 31.5029 32.07439 30.50159 33.35738 29.51727 34.64035 28.5511 35.92331 27.6041 37.20628 26.67728 38.48927 25.77162 39.77225 24.88802 41.05522 24.02733 42.3382 23.19038 43.62117 22.37793 44.90414 21.59067 46.18713 20.82925 47.47011 20.09433 48.75307 19.38643 50.03606 18.70607 51.31903 18.05374 52.602 17.42986 53.88496 16.83478 55.16795 16.26888 56.45093 15.73244 57.7339 15.22574 59.01689 14.74895 60.29985 14.3023 61.58282 13.88593 62.86581 13.49991 64.14879 13.14436 65.43175 12.81932 66.71474 12.5248 67.99771 12.26077 69.28069 12.02719 70.56367 11.82399 71.84663 11.65108 73.12961 11.50832 74.41258 11.39558 75.69557 11.31267 76.97855 11.2594 78.2615 11.23557 79.5445 11.2409 80.82747 11.2752 82.11044 11.33817 83.39342 11.42947 84.67639 11.54886 85.95937 11.69598 87.24236 11.8705 88.52533 12.07207 89.80829 12.3003 91.09126 12.55481 92.37425 12.8352 93.65723 13.1411 94.9402 13.47205 96.22318 13.82764 97.50615 14.2074 98.78912 14.6109 100.07211 15.03767 101.35507 15.48721 102.63805 15.9591 103.92104 16.4528 105.20401 16.96782 106.48698 17.50366 107.76996 18.05977 109.05293 18.63568 110.3359 19.23083 111.61888 19.84468 112.90186 20.4767 114.18483 21.12631 115.4678 21.79298 116.7508 22.47617 118.03377 23.17525 119.31673 23.88966 120.59972 24.61885 121.88269 25.36223 123.16566 26.11919 124.44865 26.88911 125.73161 27.67145 127.01459 28.46556 128.29758 29.27086 129.58055 30.0867 130.86351 30.91248 132.14649 31.74757 133.42948 32.59135 134.71245 33.4432"/>
<path transform="matrix(1,0,0,-1,32.162,163.58802)" stroke-width=".59776" stroke-linecap="butt" stroke-miterlimit="10" stroke-linejoin="miter" fill="none" stroke="#00bfbf" d="M6.41487 16.99918 7.69785 17.402 8.98083 17.83435 10.26381 18.29558 11.54678 18.78491 12.82976 19.30156 14.11273 19.84467 15.3957 20.41333 16.67868 21.00658 17.96165 21.62343 19.24463 22.26282 20.5276 22.92369 21.8106 23.60497 23.09357 24.30551 24.37653 25.02414 25.65952 25.75974 26.94249 26.51111 28.22546 27.27705 29.50845 28.0564 30.79141 28.84795 32.07439 29.65053 33.35738 30.46292 34.64035 31.284 35.92331 32.11256 37.20628 32.94746 38.48927 33.78761 39.77225 34.63187 41.05522 35.47911 42.3382 36.32832 43.62117 37.17842 44.90414 38.02841 46.18713 38.87727 47.47011 39.72406 48.75307 40.5678 50.03606 41.4076 51.31903 42.24258 52.602 43.07187 53.88496 43.89464 55.16795 44.7101 56.45093 45.51749 57.7339 46.31602 59.01689 47.10503 60.29985 47.8838 61.58282 48.65169 62.86581 49.40805 64.14879 50.15227 65.43175 50.88377 66.71474 51.60205 67.99771 52.30649 69.28069 52.99664 70.56367 53.67203 71.84663 54.33215 73.12961 54.97661 74.41258 55.60498 75.69557 56.21686 76.97855 56.8119 78.2615 57.38972 79.5445 57.95003 80.82747 58.49246 82.11044 59.01678 83.39342 59.52269 84.67639 60.0099 85.95937 60.47824 87.24236 60.92744 88.52533 61.35728 89.80829 61.76764 91.09126 62.15826 92.37425 62.52904 93.65723 62.8798 94.9402 63.21046 96.22318 63.52084 97.50615 63.81087 98.78912 64.08047 100.07211 64.32954 101.35507 64.55803 102.63805 64.76591 103.92104 64.9531 105.20401 65.11958 106.48698 65.26535 107.76996 65.39041 109.05293 65.49475 110.3359 65.57841 111.61888 65.64139 112.90186 65.68376 114.18483 65.70554 115.4678 65.70682 116.7508 65.68765 118.03377 65.6481 119.31673 65.5883 120.59972 65.50832 121.88269 65.40826 123.16566 65.2883 124.44865 65.14848 125.73161 64.989 127.01459 64.81 128.29758 64.6116 129.58055 64.39401 130.86351 64.1574 132.14649 63.90192 133.42948 63.62778 134.71245 63.33519"/>
<path transform="matrix(1,0,0,-1,32.162,163.58802)" stroke-width=".59776" stroke-linecap="butt" stroke-dasharray=".59776,1.99255" stroke-miterlimit="10" stroke-linejoin="miter" fill="none" stroke="#ff0000" d="M6.41487 154.06417 7.69785 154.05832 8.98083 154.04079 10.26381 154.0116 11.54678 153.9708 12.82976 153.91849 14.11273 153.85472 15.3957 153.77964 16.67868 153.69336 17.96165 153.59604 19.24463 153.48787 20.5276 153.369 21.8106 153.23966 23.09357 153.10009 24.37653 152.95052 25.65952 152.79122 26.94249 152.62245 28.22546 152.44452 29.50845 152.25774 30.79141 152.0624 32.07439 151.85884 33.35738 151.64742 34.64035 151.42848 35.92331 151.20238 37.20628 150.96949 38.48927 150.73017 39.77225 150.4848 41.05522 150.23377 42.3382 149.97747 43.62117 149.71628 44.90414 149.45058 46.18713 149.18076 47.47011 148.90721 48.75307 148.63033 50.03606 148.35048 51.31903 148.06801 52.602 147.78334 53.88496 147.4968 55.16795 147.20876 56.45093 146.91957 57.7339 146.62958 59.01689 146.33913 60.29985 146.04854 61.58282 145.75814 62.86581 145.46823 64.14879 145.17911 65.43175 144.8911 66.71474 144.60446 67.99771 144.31949 69.28069 144.03643 70.56367 143.75554 71.84663 143.47708 73.12961 143.20131 74.41258 142.9284 75.69557 142.65863 76.97855 142.39217 78.2615 142.12924 79.5445 141.87006 80.82747 141.61476 82.11044 141.36356 83.39342 141.11661 84.67639 140.87409 85.95937 140.63614 87.24236 140.40291 88.52533 140.17453 89.80829 139.95116 91.09126 139.7329 92.37425 139.51987 93.65723 139.3122 94.9402 139.11 96.22318 138.91335 97.50615 138.72237 98.78912 138.53713 100.07211 138.35771 101.35507 138.18424 102.63805 138.01674 103.92104 137.8553 105.20401 137.7 106.48698 137.5509 107.76996 137.40805 109.05293 137.2715 110.3359 137.14133 111.61888 137.01755 112.90186 136.90024 114.18483 136.78942 115.4678 136.68514 116.7508 136.58742 118.03377 136.49629 119.31673 136.41182 120.59972 136.334 121.88269 136.26287 123.16566 136.19846 124.44865 136.14075 125.73161 136.0898 127.01459 136.04561 128.29758 136.0082 129.58055 135.97759 130.86351 135.95375 132.14649 135.93674 133.42948 135.9265 134.71245 135.9231"/>
<path transform="matrix(1,0,0,-1,32.162,163.58802)" stroke-width=".59776" stroke-linecap="butt" stroke-dasharray=".59776,1.99255" stroke-miterlimit="10" stroke-linejoin="miter" fill="none" stroke="#0000ff" d="M6.41487 67.58044 7.69785 67.57713 8.98083 67.56718 10.26381 67.55069 11.54678 67.52763 12.82976 67.49814 14.11273 67.4623 15.3957 67.42021 16.67868 67.37204 17.96165 67.31795 19.24463 67.25807 20.5276 67.19264 21.8106 67.12184 23.09357 67.04585 24.37653 66.96495 25.65952 66.87936 26.94249 66.7893 28.22546 66.69504 29.50845 66.59682 30.79141 66.49489 32.07439 66.38953 33.35738 66.28096 34.64035 66.16946 35.92331 66.05528 37.20628 65.93867 38.48927 65.81989 39.77225 65.69916 41.05522 65.5767 42.3382 65.45279 43.62117 65.32762 44.90414 65.20142 46.18713 65.07439 47.47011 64.94672 48.75307 64.81863 50.03606 64.69028 51.31903 64.56186 52.602 64.43353 53.88496 64.30547 55.16795 64.17781 56.45093 64.0507 57.7339 63.9243 59.01689 63.79869 60.29985 63.67404 61.58282 63.55045 62.86581 63.42801 64.14879 63.30684 65.43175 63.18703 66.71474 63.06865 67.99771 62.95183 69.28069 62.8366 70.56367 62.72304 71.84663 62.6112 73.12961 62.50119 74.41258 62.39305 75.69557 62.28679 76.97855 62.1825 78.2615 62.08022 79.5445 61.97997 80.82747 61.88179 82.11044 61.78572 83.39342 61.6918 84.67639 61.60007 85.95937 61.5105 87.24236 61.42314 88.52533 61.33804 89.80829 61.25517 91.09126 61.17459 92.37425 61.09627 93.65723 61.02026 94.9402 60.94655 96.22318 60.87514 97.50615 60.80606 98.78912 60.73932 100.07211 60.67488 101.35507 60.61281 102.63805 60.55305 103.92104 60.49567 105.20401 60.44063 106.48698 60.38792 107.76996 60.33757 109.05293 60.28958 110.3359 60.24393 111.61888 60.20064 112.90186 60.15968 114.18483 60.12108 115.4678 60.08482 116.7508 60.05092 118.03377 60.01936 119.31673 59.99014 120.59972 59.96329 121.88269 59.93875 123.16566 59.91655 124.44865 59.89671 125.73161 59.8792 127.01459 59.86403 128.29758 59.85118 129.58055 59.84068 130.86351 59.83252 132.14649 59.82668 133.42948 59.82318 134.71245 59.822"/>
<path transform="matrix(1,0,0,-1,32.162,163.58802)" stroke-width=".59776" stroke-linecap="butt" stroke-dasharray=".59776,1.99255" stroke-miterlimit="10" stroke-linejoin="miter" fill="none" stroke="#008000" d="M6.41487 97.89651 7.69785 97.89078 8.98083 97.87357 10.26381 97.84492 11.54678 97.80495 12.82976 97.75375 14.11273 97.69151 15.3957 97.61838 16.67868 97.53456 17.96165 97.44034 19.24463 97.33597 20.5276 97.22173 21.8106 97.09793 23.09357 96.96495 24.37653 96.82309 25.65952 96.67276 26.94249 96.51434 28.22546 96.34822 29.50845 96.1748 30.79141 95.9945 32.07439 95.80775 33.35738 95.61497 34.64035 95.41658 35.92331 95.21301 37.20628 95.00465 38.48927 94.79196 39.77225 94.57533 41.05522 94.35518 42.3382 94.13188 43.62117 93.90587 44.90414 93.67749 46.18713 93.44711 47.47011 93.21512 48.75307 92.98184 50.03606 92.74763 51.31903 92.5128 52.602 92.27768 53.88496 92.04254 55.16795 91.8077 56.45093 91.57341 57.7339 91.33994 59.01689 91.10754 60.29985 90.87646 61.58282 90.64691 62.86581 90.41913 64.14879 90.19328 65.43175 89.96957 66.71474 89.7482 67.99771 89.52933 69.28069 89.31311 70.56367 89.09969 71.84663 88.8892 73.12961 88.68182 74.41258 88.47763 75.69557 88.27675 76.97855 88.07932 78.2615 87.88538 79.5445 87.69507 80.82747 87.50847 82.11044 87.32564 83.39342 87.14667 84.67639 86.97162 85.95937 86.80057 87.24236 86.63354 88.52533 86.47063 89.80829 86.31186 91.09126 86.15727 92.37425 86.0069 93.65723 85.86081 94.9402 85.71902 96.22318 85.58156 97.50615 85.44844 98.78912 85.31972 100.07211 85.19539 101.35507 85.0755 102.63805 84.96004 103.92104 84.84901 105.20401 84.74248 106.48698 84.64043 107.76996 84.54286 109.05293 84.4498 110.3359 84.36122 111.61888 84.27719 112.90186 84.19766 114.18483 84.12268 115.4678 84.05223 116.7508 83.9863 118.03377 83.92491 119.31673 83.86807 120.59972 83.81577 121.88269 83.76802 123.16566 83.7248 124.44865 83.68614 125.73161 83.65202 127.01459 83.62245 128.29758 83.59743 129.58055 83.57697 130.86351 83.56104 132.14649 83.54967 133.42948 83.54285 134.71245 83.54056"/>
<path transform="matrix(1,0,0,-1,32.162,163.58802)" stroke-width=".59776" stroke-linecap="butt" stroke-dasharray=".59776,1.99255" stroke-miterlimit="10" stroke-linejoin="miter" fill="none" stroke="#000000" d="M6.41487 38.38115 7.69785 38.35083 8.98083 38.32056 10.26381 38.29044 11.54678 38.2605 12.82976 38.23083 14.11273 38.20149 15.3957 38.17258 16.67868 38.14409 17.96165 38.11609 19.24463 38.08865 20.5276 38.06183 21.8106 38.03563 23.09357 38.01012 24.37653 37.98532 25.65952 37.96127 26.94249 37.938 28.22546 37.91551 29.50845 37.89383 30.79141 37.87296 32.07439 37.85292 33.35738 37.83372 34.64035 37.81534 35.92331 37.79779 37.20628 37.78105 38.48927 37.76515 39.77225 37.75006 41.05522 37.73575 42.3382 37.72221 43.62117 37.70943 44.90414 37.69739 46.18713 37.68608 47.47011 37.67545 48.75307 37.66551 50.03606 37.65622 51.31903 37.64757 52.602 37.63951 53.88496 37.63205 55.16795 37.62514 56.45093 37.61874 57.7339 37.61288 59.01689 37.6075 60.29985 37.60257 61.58282 37.59808 62.86581 37.59401 64.14879 37.59033 65.43175 37.58704 66.71474 37.58409 67.99771 37.58145 69.28069 37.57915 70.56367 37.57713 71.84663 37.5754 73.12961 37.5739 74.41258 37.57265 75.69557 37.57161 76.97855 37.57079 78.2615 37.57014 79.5445 37.56969 80.82747 37.56938 82.11044 37.56924 83.39342 37.56923 84.67639 37.56934 85.95937 37.56956 87.24236 37.56989 88.52533 37.5703 89.80829 37.5708 91.09126 37.57138 92.37425 37.572 93.65723 37.5727 94.9402 37.57343 96.22318 37.5742 97.50615 37.57501 98.78912 37.57585 100.07211 37.5767 101.35507 37.57756 102.63805 37.57843 103.92104 37.57932 105.20401 37.5802 106.48698 37.58105 107.76996 37.58191 109.05293 37.58275 110.3359 37.58357 111.61888 37.58438 112.90186 37.58514 114.18483 37.58589 115.4678 37.58661 116.7508 37.58728 118.03377 37.58792 119.31673 37.58853 120.59972 37.58908 121.88269 37.5896 123.16566 37.59007 124.44865 37.5905 125.73161 37.59088 127.01459 37.59122 128.29758 37.5915 129.58055 37.59174 130.86351 37.59192 132.14649 37.59204 133.42948 37.59212 134.71245 37.59215"/>
<path transform="matrix(1,0,0,-1,32.162,163.58802)" stroke-width=".59776" stroke-linecap="butt" stroke-dasharray=".59776,1.99255" stroke-miterlimit="10" stroke-linejoin="miter" fill="none" stroke="#bf00bf" d="M6.41487 32.58273 7.69785 32.58511 8.98083 32.59225 10.26381 32.60411 11.54678 32.62067 12.82976 32.64182 14.11273 32.6675 15.3957 32.69757 16.67868 32.73198 17.96165 32.77054 19.24463 32.81311 20.5276 32.85953 21.8106 32.90965 23.09357 32.96324 24.37653 33.02016 25.65952 33.08022 26.94249 33.14316 28.22546 33.20885 29.50845 33.27705 30.79141 33.34753 32.07439 33.42017 33.35738 33.49467 34.64035 33.5709 35.92331 33.64867 37.20628 33.72774 38.48927 33.80797 39.77225 33.88916 41.05522 33.97118 42.3382 34.05382 43.62117 34.13696 44.90414 34.22046 46.18713 34.30415 47.47011 34.38792 48.75307 34.47166 50.03606 34.55525 51.31903 34.63858 52.602 34.72156 53.88496 34.8041 55.16795 34.8861 56.45093 34.96753 57.7339 35.04828 59.01689 35.1283 60.29985 35.20755 61.58282 35.286 62.86581 35.36356 64.14879 35.4402 65.43175 35.51593 66.71474 35.5907 67.99771 35.66449 69.28069 35.73727 70.56367 35.80904 71.84663 35.8798 73.12961 35.94952 74.41258 36.01822 75.69557 36.0859 76.97855 36.15253 78.2615 36.21815 79.5445 36.28275 80.82747 36.34634 82.11044 36.40895 83.39342 36.47057 84.67639 36.53123 85.95937 36.59094 87.24236 36.64972 88.52533 36.70757 89.80829 36.76453 91.09126 36.82063 92.37425 36.87587 93.65723 36.93028 94.9402 36.98389 96.22318 37.03671 97.50615 37.08876 98.78912 37.14009 100.07211 37.1907 101.35507 37.24063 102.63805 37.2899 103.92104 37.33853 105.20401 37.38654 106.48698 37.43396 107.76996 37.48083 109.05293 37.52719 110.3359 37.573 111.61888 37.61835 112.90186 37.66324 114.18483 37.70769 115.4678 37.75175 116.7508 37.79541 118.03377 37.83873 119.31673 37.88173 120.59972 37.9244 121.88269 37.96681 123.16566 38.00897 124.44865 38.05089 125.73161 38.0926 127.01459 38.13416 128.29758 38.17557 129.58055 38.21683 130.86351 38.25801 132.14649 38.2991 133.42948 38.34015 134.71245 38.38115"/>
<path transform="matrix(1,0,0,-1,32.162,163.58802)" stroke-width=".59776" stroke-linecap="butt" stroke-dasharray=".59776,1.99255" stroke-miterlimit="10" stroke-linejoin="miter" fill="none" stroke="#00bfbf" d="M6.41487 38.38115 7.69785 38.29358 8.98083 38.20622 10.26381 38.11938 11.54678 38.03328 12.82976 37.94814 14.11273 37.86418 15.3957 37.78166 16.67868 37.70078 17.96165 37.6217 19.24463 37.54466 20.5276 37.46982 21.8106 37.39731 23.09357 37.3273 24.37653 37.25992 25.65952 37.19527 26.94249 37.13344 28.22546 37.07455 29.50845 37.01863 30.79141 36.96576 32.07439 36.91595 33.35738 36.86926 34.64035 36.82568 35.92331 36.78522 37.20628 36.74788 38.48927 36.7136 39.77225 36.68237 41.05522 36.65416 42.3382 36.62892 43.62117 36.60658 44.90414 36.5871 46.18713 36.57039 47.47011 36.5564 48.75307 36.54503 50.03606 36.53622 51.31903 36.5299 52.602 36.52596 53.88496 36.52432 55.16795 36.52492 56.45093 36.52763 57.7339 36.53241 59.01689 36.53915 60.29985 36.54776 61.58282 36.55817 62.86581 36.5703 64.14879 36.58406 65.43175 36.59937 66.71474 36.61615 67.99771 36.63432 69.28069 36.65385 70.56367 36.6746 71.84663 36.69658 73.12961 36.71965 74.41258 36.7438 75.69557 36.76894 76.97855 36.79503 78.2615 36.82199 79.5445 36.84981 80.82747 36.87839 82.11044 36.90768 83.39342 36.93768 84.67639 36.96832 85.95937 36.99954 87.24236 37.03133 88.52533 37.06363 89.80829 37.09642 91.09126 37.12967 92.37425 37.16333 93.65723 37.19737 94.9402 37.23178 96.22318 37.26651 97.50615 37.30156 98.78912 37.33688 100.07211 37.3725 101.35507 37.40833 102.63805 37.44437 103.92104 37.48062 105.20401 37.51706 106.48698 37.55368 107.76996 37.59044 109.05293 37.62735 110.3359 37.6644 111.61888 37.70155 112.90186 37.73882 114.18483 37.77618 115.4678 37.81361 116.7508 37.85115 118.03377 37.88875 119.31673 37.92642 120.59972 37.96414 121.88269 38.00189 123.16566 38.0397 124.44865 38.07756 125.73161 38.11545 127.01459 38.15335 128.29758 38.19128 129.58055 38.22923 130.86351 38.2672 132.14649 38.30518 133.42948 38.34317 134.71245 38.38115"/>
<path transform="matrix(1,0,0,-1,32.162,163.58802)" stroke-width=".3985" stroke-linecap="butt" stroke-miterlimit="10" stroke-linejoin="miter" fill="none" stroke="#000000" d="M0 38.38115H141.12734"/>
</g>
<path transform="matrix(1,0,0,-1,32.162,163.58802)" d="M8.40742 79.92534C8.40742 81.0258 7.51535 81.9179 6.41487 81.9179 5.3144 81.9179 4.42232 81.0258 4.42232 79.92534 4.42232 78.82486 5.3144 77.93279 6.41487 77.93279 7.51535 77.93279 8.40742 78.82486 8.40742 79.92534ZM6.41487 79.92534" fill="#ff0000"/>
<path transform="matrix(1,0,0,-1,32.162,163.58802)" stroke-width=".59776" stroke-linecap="butt" stroke-miterlimit="10" stroke-linejoin="miter" fill="none" stroke="#ff0000" d="M8.40742 79.92534C8.40742 81.0258 7.51535 81.9179 6.41487 81.9179 5.3144 81.9179 4.42232 81.0258 4.42232 79.92534 4.42232 78.82486 5.3144 77.93279 6.41487 77.93279 7.51535 77.93279 8.40742 78.82486 8.40742 79.92534ZM6.41487 79.92534"/>
<path transform="matrix(1,0,0,-1,32.162,163.58802)" d="M40.48183 72.48895C40.48183 73.58943 39.58975 74.4815 38.48927 74.4815 37.38881 74.4815 36.49672 73.58943 36.49672 72.48895 36.49672 71.38849 37.38881 70.4964 38.48927 70.4964 39.58975 70.4964 40.48183 71.38849 40.48183 72.48895ZM38.48927 72.48895" fill="#ff0000"/>
<path transform="matrix(1,0,0,-1,32.162,163.58802)" stroke-width=".59776" stroke-linecap="butt" stroke-miterlimit="10" stroke-linejoin="miter" fill="none" stroke="#ff0000" d="M40.48183 72.48895C40.48183 73.58943 39.58975 74.4815 38.48927 74.4815 37.38881 74.4815 36.49672 73.58943 36.49672 72.48895 36.49672 71.38849 37.38881 70.4964 38.48927 70.4964 39.58975 70.4964 40.48183 71.38849 40.48183 72.48895ZM38.48927 72.48895"/>
<path transform="matrix(1,0,0,-1,32.162,163.58802)" d="M72.55623 83.79651C72.55623 84.89697 71.66414 85.78906 70.56367 85.78906 69.4632 85.78906 68.57112 84.89697 68.57112 83.79651 68.57112 82.69603 69.4632 81.80396 70.56367 81.80396 71.66414 81.80396 72.55623 82.69603 72.55623 83.79651ZM70.56367 83.79651" fill="#ff0000"/>
<path transform="matrix(1,0,0,-1,32.162,163.58802)" stroke-width=".59776" stroke-linecap="butt" stroke-miterlimit="10" stroke-linejoin="miter" fill="none" stroke="#ff0000" d="M72.55623 83.79651C72.55623 84.89697 71.66414 85.78906 70.56367 85.78906 69.4632 85.78906 68.57112 84.89697 68.57112 83.79651 68.57112 82.69603 69.4632 81.80396 70.56367 81.80396 71.66414 81.80396 72.55623 82.69603 72.55623 83.79651ZM70.56367 83.79651"/>
<path transform="matrix(1,0,0,-1,32.162,163.58802)" d="M104.6306 104.03624C104.6306 105.1367 103.73853 106.0288 102.63805 106.0288 101.53758 106.0288 100.6455 105.1367 100.6455 104.03624 100.6455 102.93576 101.53758 102.04369 102.63805 102.04369 103.73853 102.04369 104.6306 102.93576 104.6306 104.03624ZM102.63805 104.03624" fill="#ff0000"/>
<path transform="matrix(1,0,0,-1,32.162,163.58802)" stroke-width=".59776" stroke-linecap="butt" stroke-miterlimit="10" stroke-linejoin="miter" fill="none" stroke="#ff0000" d="M104.6306 104.03624C104.6306 105.1367 103.73853 106.0288 102.63805 106.0288 101.53758 106.0288 100.6455 105.1367 100.6455 104.03624 100.6455 102.93576 101.53758 102.04369 102.63805 102.04369 103.73853 102.04369 104.6306 102.93576 104.6306 104.03624ZM102.63805 104.03624"/>
<path transform="matrix(1,0,0,-1,32.162,163.58802)" d="M136.705 121.51588C136.705 122.61635 135.81291 123.50844 134.71245 123.50844 133.61197 123.50844 132.7199 122.61635 132.7199 121.51588 132.7199 120.4154 133.61197 119.52333 134.71245 119.52333 135.81291 119.52333 136.705 120.4154 136.705 121.51588ZM134.71245 121.51588" fill="#ff0000"/>
<path transform="matrix(1,0,0,-1,32.162,163.58802)" stroke-width=".59776" stroke-linecap="butt" stroke-miterlimit="10" stroke-linejoin="miter" fill="none" stroke="#ff0000" d="M136.705 121.51588C136.705 122.61635 135.81291 123.50844 134.71245 123.50844 133.61197 123.50844 132.7199 122.61635 132.7199 121.51588 132.7199 120.4154 133.61197 119.52333 134.71245 119.52333 135.81291 119.52333 136.705 120.4154 136.705 121.51588ZM134.71245 121.51588"/>
<path transform="matrix(1,0,0,-1,32.162,163.58802)" stroke-width=".59776" stroke-linecap="butt" stroke-miterlimit="10" stroke-linejoin="miter" fill="none" stroke="#ff0000" d=""/>
<path transform="matrix(1,0,0,-1,32.162,163.58802)" stroke-width=".59776" stroke-linecap="butt" stroke-miterlimit="10" stroke-linejoin="miter" fill="none" stroke="#0000ff" d="M5.00592 103.20618 7.82382 106.02408M5.00592 106.02408 7.82382 103.20618"/>
<path transform="matrix(1,0,0,-1,32.162,163.58802)" stroke-width=".59776" stroke-linecap="butt" stroke-miterlimit="10" stroke-linejoin="miter" fill="none" stroke="#0000ff" d="M37.08032 114.77216 39.89822 117.59006M37.08032 117.59006 39.89822 114.77216"/>
<path transform="matrix(1,0,0,-1,32.162,163.58802)" stroke-width=".59776" stroke-linecap="butt" stroke-miterlimit="10" stroke-linejoin="miter" fill="none" stroke="#0000ff" d="M69.15472 114.0158 71.97263 116.8337M69.15472 116.8337 71.97263 114.0158"/>
<path transform="matrix(1,0,0,-1,32.162,163.58802)" stroke-width=".59776" stroke-linecap="butt" stroke-miterlimit="10" stroke-linejoin="miter" fill="none" stroke="#0000ff" d="M101.2291 104.42235 104.047 107.24025M101.2291 107.24025 104.047 104.42235"/>
<path transform="matrix(1,0,0,-1,32.162,163.58802)" stroke-width=".59776" stroke-linecap="butt" stroke-miterlimit="10" stroke-linejoin="miter" fill="none" stroke="#0000ff" d="M133.3035 91.29251 136.1214 94.11041M133.3035 94.11041 136.1214 91.29251"/>
<path transform="matrix(1,0,0,-1,32.162,163.58802)" stroke-width=".59776" stroke-linecap="butt" stroke-miterlimit="10" stroke-linejoin="miter" fill="none" stroke="#0000ff" d=""/>
<path transform="matrix(1,0,0,-1,32.162,163.58802)" d="M6.41487 136.99323 8.14049 134.0044H4.68927Z" fill="#008000"/>
<path transform="matrix(1,0,0,-1,32.162,163.58802)" stroke-width=".59776" stroke-linecap="butt" stroke-miterlimit="10" stroke-linejoin="miter" fill="none" stroke="#008000" d="M6.41487 136.99323 8.14049 134.0044H4.68927Z"/>
<path transform="matrix(1,0,0,-1,32.162,163.58802)" d="M38.48927 124.6645 40.21487 121.67567H36.76367Z" fill="#008000"/>
<path transform="matrix(1,0,0,-1,32.162,163.58802)" stroke-width=".59776" stroke-linecap="butt" stroke-miterlimit="10" stroke-linejoin="miter" fill="none" stroke="#008000" d="M38.48927 124.6645 40.21487 121.67567H36.76367Z"/>
<path transform="matrix(1,0,0,-1,32.162,163.58802)" d="M70.56367 98.34958 72.28928 95.36075H68.83806Z" fill="#008000"/>
<path transform="matrix(1,0,0,-1,32.162,163.58802)" stroke-width=".59776" stroke-linecap="butt" stroke-miterlimit="10" stroke-linejoin="miter" fill="none" stroke="#008000" d="M70.56367 98.34958 72.28928 95.36075H68.83806Z"/>
<path transform="matrix(1,0,0,-1,32.162,163.58802)" d="M102.63805 75.65485 104.36366 72.66602H100.91245Z" fill="#008000"/>
<path transform="matrix(1,0,0,-1,32.162,163.58802)" stroke-width=".59776" stroke-linecap="butt" stroke-miterlimit="10" stroke-linejoin="miter" fill="none" stroke="#008000" d="M102.63805 75.65485 104.36366 72.66602H100.91245Z"/>
<path transform="matrix(1,0,0,-1,32.162,163.58802)" d="M134.71245 67.0609 136.43805 64.07207H132.98683Z" fill="#008000"/>
<path transform="matrix(1,0,0,-1,32.162,163.58802)" stroke-width=".59776" stroke-linecap="butt" stroke-miterlimit="10" stroke-linejoin="miter" fill="none" stroke="#008000" d="M134.71245 67.0609 136.43805 64.07207H132.98683Z"/>
<path transform="matrix(1,0,0,-1,32.162,163.58802)" stroke-width=".59776" stroke-linecap="butt" stroke-miterlimit="10" stroke-linejoin="miter" fill="none" stroke="#008000" d=""/>
<path transform="matrix(1,0,0,-1,32.162,163.58802)" d="M6.41487 12.81496 4.68927 15.80379H8.14049Z"/>
<path transform="matrix(1,0,0,-1,32.162,163.58802)" stroke-width=".59776" stroke-linecap="butt" stroke-miterlimit="10" stroke-linejoin="miter" fill="none" stroke="#000000" d="M6.41487 12.81496 4.68927 15.80379H8.14049Z"/>
<path transform="matrix(1,0,0,-1,32.162,163.58802)" d="M38.48927 5.37091 36.76367 8.35974H40.21487Z"/>
<path transform="matrix(1,0,0,-1,32.162,163.58802)" stroke-width=".59776" stroke-linecap="butt" stroke-miterlimit="10" stroke-linejoin="miter" fill="none" stroke="#000000" d="M38.48927 5.37091 36.76367 8.35974H40.21487Z"/>
<path transform="matrix(1,0,0,-1,32.162,163.58802)" d="M70.56367 13.461 68.83806 16.44983H72.28928Z"/>
<path transform="matrix(1,0,0,-1,32.162,163.58802)" stroke-width=".59776" stroke-linecap="butt" stroke-miterlimit="10" stroke-linejoin="miter" fill="none" stroke="#000000" d="M70.56367 13.461 68.83806 16.44983H72.28928Z"/>
<path transform="matrix(1,0,0,-1,32.162,163.58802)" d="M102.63805 29.63649 100.91245 32.62532H104.36366Z"/>
<path transform="matrix(1,0,0,-1,32.162,163.58802)" stroke-width=".59776" stroke-linecap="butt" stroke-miterlimit="10" stroke-linejoin="miter" fill="none" stroke="#000000" d="M102.63805 29.63649 100.91245 32.62532H104.36366Z"/>
<path transform="matrix(1,0,0,-1,32.162,163.58802)" d="M134.71245 44.9414 132.98683 47.93024H136.43805Z"/>
<path transform="matrix(1,0,0,-1,32.162,163.58802)" stroke-width=".59776" stroke-linecap="butt" stroke-miterlimit="10" stroke-linejoin="miter" fill="none" stroke="#000000" d="M134.71245 44.9414 132.98683 47.93024H136.43805Z"/>
<path transform="matrix(1,0,0,-1,32.162,163.58802)" stroke-width=".59776" stroke-linecap="butt" stroke-miterlimit="10" stroke-linejoin="miter" fill="none" stroke="#000000" d=""/>
<path transform="matrix(1,0,0,-1,32.162,163.58802)" d="M6.41487 53.98398 7.90929 51.99142 6.41487 49.99887 4.92046 51.99142Z" fill="#bf00bf"/>
<path transform="matrix(1,0,0,-1,32.162,163.58802)" stroke-width=".59776" stroke-linecap="butt" stroke-miterlimit="10" stroke-linejoin="miter" fill="none" stroke="#bf00bf" d="M6.41487 53.98398 7.90929 51.99142 6.41487 49.99887 4.92046 51.99142Z"/>
<path transform="matrix(1,0,0,-1,32.162,163.58802)" d="M38.48927 27.76418 39.98369 25.77162 38.48927 23.77907 36.99486 25.77162Z" fill="#bf00bf"/>
<path transform="matrix(1,0,0,-1,32.162,163.58802)" stroke-width=".59776" stroke-linecap="butt" stroke-miterlimit="10" stroke-linejoin="miter" fill="none" stroke="#bf00bf" d="M38.48927 27.76418 39.98369 25.77162 38.48927 23.77907 36.99486 25.77162Z"/>
<path transform="matrix(1,0,0,-1,32.162,163.58802)" d="M70.56367 13.81654 72.05809 11.82399 70.56367 9.83144 69.06926 11.82399Z" fill="#bf00bf"/>
<path transform="matrix(1,0,0,-1,32.162,163.58802)" stroke-width=".59776" stroke-linecap="butt" stroke-miterlimit="10" stroke-linejoin="miter" fill="none" stroke="#bf00bf" d="M70.56367 13.81654 72.05809 11.82399 70.56367 9.83144 69.06926 11.82399Z"/>
<path transform="matrix(1,0,0,-1,32.162,163.58802)" d="M102.63805 17.95166 104.13246 15.9591 102.63805 13.96655 101.14363 15.9591Z" fill="#bf00bf"/>
<path transform="matrix(1,0,0,-1,32.162,163.58802)" stroke-width=".59776" stroke-linecap="butt" stroke-miterlimit="10" stroke-linejoin="miter" fill="none" stroke="#bf00bf" d="M102.63805 17.95166 104.13246 15.9591 102.63805 13.96655 101.14363 15.9591Z"/>
<path transform="matrix(1,0,0,-1,32.162,163.58802)" d="M134.71245 35.43576 136.20687 33.4432 134.71245 31.45065 133.21804 33.4432Z" fill="#bf00bf"/>
<path transform="matrix(1,0,0,-1,32.162,163.58802)" stroke-width=".59776" stroke-linecap="butt" stroke-miterlimit="10" stroke-linejoin="miter" fill="none" stroke="#bf00bf" d="M134.71245 35.43576 136.20687 33.4432 134.71245 31.45065 133.21804 33.4432Z"/>
<path transform="matrix(1,0,0,-1,32.162,163.58802)" stroke-width=".59776" stroke-linecap="butt" stroke-miterlimit="10" stroke-linejoin="miter" fill="none" stroke="#bf00bf" d=""/>
<path transform="matrix(1,0,0,-1,32.162,163.58802)" d="M6.41487 18.99173 8.30992 17.61491 7.58607 15.38716H5.24368L4.51984 17.61491Z" fill="#00bfbf"/>
<path transform="matrix(1,0,0,-1,32.162,163.58802)" stroke-width=".59776" stroke-linecap="butt" stroke-miterlimit="10" stroke-linejoin="miter" fill="none" stroke="#00bfbf" d="M6.41487 18.99173 8.30992 17.61491 7.58607 15.38716H5.24368L4.51984 17.61491Z"/>
<path transform="matrix(1,0,0,-1,32.162,163.58802)" d="M38.48927 35.78017 40.38432 34.40335 39.66046 32.17558H37.31808L36.59422 34.40335Z" fill="#00bfbf"/>
<path transform="matrix(1,0,0,-1,32.162,163.58802)" stroke-width=".59776" stroke-linecap="butt" stroke-miterlimit="10" stroke-linejoin="miter" fill="none" stroke="#00bfbf" d="M38.48927 35.78017 40.38432 34.40335 39.66046 32.17558H37.31808L36.59422 34.40335Z"/>
<path transform="matrix(1,0,0,-1,32.162,163.58802)" d="M70.56367 55.66458 72.45872 54.28777 71.73486 52.06H69.39247L68.66862 54.28777Z" fill="#00bfbf"/>
<path transform="matrix(1,0,0,-1,32.162,163.58802)" stroke-width=".59776" stroke-linecap="butt" stroke-miterlimit="10" stroke-linejoin="miter" fill="none" stroke="#00bfbf" d="M70.56367 55.66458 72.45872 54.28777 71.73486 52.06H69.39247L68.66862 54.28777Z"/>
<path transform="matrix(1,0,0,-1,32.162,163.58802)" d="M102.63805 66.75847 104.5331 65.38165 103.80923 63.15388H101.46686L100.743 65.38165Z" fill="#00bfbf"/>
<path transform="matrix(1,0,0,-1,32.162,163.58802)" stroke-width=".59776" stroke-linecap="butt" stroke-miterlimit="10" stroke-linejoin="miter" fill="none" stroke="#00bfbf" d="M102.63805 66.75847 104.5331 65.38165 103.80923 63.15388H101.46686L100.743 65.38165Z"/>
<path transform="matrix(1,0,0,-1,32.162,163.58802)" d="M134.71245 65.32774 136.6075 63.95093 135.88364 61.72318H133.54126L132.8174 63.95093Z" fill="#00bfbf"/>
<path transform="matrix(1,0,0,-1,32.162,163.58802)" stroke-width=".59776" stroke-linecap="butt" stroke-miterlimit="10" stroke-linejoin="miter" fill="none" stroke="#00bfbf" d="M134.71245 65.32774 136.6075 63.95093 135.88364 61.72318H133.54126L132.8174 63.95093Z"/>
<path transform="matrix(1,0,0,-1,32.162,163.58802)" stroke-width=".59776" stroke-linecap="butt" stroke-miterlimit="10" stroke-linejoin="miter" fill="none" stroke="#00bfbf" d=""/>
<path transform="matrix(1,0,0,-1,32.162,163.58802)" d="M8.40742 154.06417C8.40742 155.16464 7.51535 156.05672 6.41487 156.05672 5.3144 156.05672 4.42232 155.16464 4.42232 154.06417 4.42232 152.9637 5.3144 152.07161 6.41487 152.07161 7.51535 152.07161 8.40742 152.9637 8.40742 154.06417ZM6.41487 154.06417" fill="#ff0000"/>
<path transform="matrix(1,0,0,-1,32.162,163.58802)" stroke-width=".59776" stroke-linecap="butt" stroke-miterlimit="10" stroke-linejoin="miter" fill="none" stroke="#ff0000" d="M8.40742 154.06417C8.40742 155.16464 7.51535 156.05672 6.41487 156.05672 5.3144 156.05672 4.42232 155.16464 4.42232 154.06417 4.42232 152.9637 5.3144 152.07161 6.41487 152.07161 7.51535 152.07161 8.40742 152.9637 8.40742 154.06417ZM6.41487 154.06417"/>
<path transform="matrix(1,0,0,-1,32.162,163.58802)" d="M40.48183 150.73017C40.48183 151.83063 39.58975 152.72272 38.48927 152.72272 37.38881 152.72272 36.49672 151.83063 36.49672 150.73017 36.49672 149.62969 37.38881 148.73761 38.48927 148.73761 39.58975 148.73761 40.48183 149.62969 40.48183 150.73017ZM38.48927 150.73017" fill="#ff0000"/>
<path transform="matrix(1,0,0,-1,32.162,163.58802)" stroke-width=".59776" stroke-linecap="butt" stroke-miterlimit="10" stroke-linejoin="miter" fill="none" stroke="#ff0000" d="M40.48183 150.73017C40.48183 151.83063 39.58975 152.72272 38.48927 152.72272 37.38881 152.72272 36.49672 151.83063 36.49672 150.73017 36.49672 149.62969 37.38881 148.73761 38.48927 148.73761 39.58975 148.73761 40.48183 149.62969 40.48183 150.73017ZM38.48927 150.73017"/>
<path transform="matrix(1,0,0,-1,32.162,163.58802)" d="M72.55623 143.75554C72.55623 144.85602 71.66414 145.7481 70.56367 145.7481 69.4632 145.7481 68.57112 144.85602 68.57112 143.75554 68.57112 142.65508 69.4632 141.76299 70.56367 141.76299 71.66414 141.76299 72.55623 142.65508 72.55623 143.75554ZM70.56367 143.75554" fill="#ff0000"/>
<path transform="matrix(1,0,0,-1,32.162,163.58802)" stroke-width=".59776" stroke-linecap="butt" stroke-miterlimit="10" stroke-linejoin="miter" fill="none" stroke="#ff0000" d="M72.55623 143.75554C72.55623 144.85602 71.66414 145.7481 70.56367 145.7481 69.4632 145.7481 68.57112 144.85602 68.57112 143.75554 68.57112 142.65508 69.4632 141.76299 70.56367 141.76299 71.66414 141.76299 72.55623 142.65508 72.55623 143.75554ZM70.56367 143.75554"/>
<path transform="matrix(1,0,0,-1,32.162,163.58802)" d="M104.6306 138.01674C104.6306 139.1172 103.73853 140.0093 102.63805 140.0093 101.53758 140.0093 100.6455 139.1172 100.6455 138.01674 100.6455 136.91626 101.53758 136.02419 102.63805 136.02419 103.73853 136.02419 104.6306 136.91626 104.6306 138.01674ZM102.63805 138.01674" fill="#ff0000"/>
<path transform="matrix(1,0,0,-1,32.162,163.58802)" stroke-width=".59776" stroke-linecap="butt" stroke-miterlimit="10" stroke-linejoin="miter" fill="none" stroke="#ff0000" d="M104.6306 138.01674C104.6306 139.1172 103.73853 140.0093 102.63805 140.0093 101.53758 140.0093 100.6455 139.1172 100.6455 138.01674 100.6455 136.91626 101.53758 136.02419 102.63805 136.02419 103.73853 136.02419 104.6306 136.91626 104.6306 138.01674ZM102.63805 138.01674"/>
<path transform="matrix(1,0,0,-1,32.162,163.58802)" d="M136.705 135.9231C136.705 137.02358 135.81291 137.91565 134.71245 137.91565 133.61197 137.91565 132.7199 137.02358 132.7199 135.9231 132.7199 134.82263 133.61197 133.93054 134.71245 133.93054 135.81291 133.93054 136.705 134.82263 136.705 135.9231ZM134.71245 135.9231" fill="#ff0000"/>
<path transform="matrix(1,0,0,-1,32.162,163.58802)" stroke-width=".59776" stroke-linecap="butt" stroke-miterlimit="10" stroke-linejoin="miter" fill="none" stroke="#ff0000" d="M136.705 135.9231C136.705 137.02358 135.81291 137.91565 134.71245 137.91565 133.61197 137.91565 132.7199 137.02358 132.7199 135.9231 132.7199 134.82263 133.61197 133.93054 134.71245 133.93054 135.81291 133.93054 136.705 134.82263 136.705 135.9231ZM134.71245 135.9231"/>
<path transform="matrix(1,0,0,-1,32.162,163.58802)" stroke-width=".59776" stroke-linecap="butt" stroke-miterlimit="10" stroke-linejoin="miter" fill="none" stroke="#ff0000" d=""/>
<path transform="matrix(1,0,0,-1,32.162,163.58802)" stroke-width=".59776" stroke-linecap="butt" stroke-miterlimit="10" stroke-linejoin="miter" fill="none" stroke="#0000ff" d="M5.00592 66.1715 7.82382 68.9894M5.00592 68.9894 7.82382 66.1715"/>
<path transform="matrix(1,0,0,-1,32.162,163.58802)" stroke-width=".59776" stroke-linecap="butt" stroke-miterlimit="10" stroke-linejoin="miter" fill="none" stroke="#0000ff" d="M37.08032 64.41093 39.89822 67.22884M37.08032 67.22884 39.89822 64.41093"/>
<path transform="matrix(1,0,0,-1,32.162,163.58802)" stroke-width=".59776" stroke-linecap="butt" stroke-miterlimit="10" stroke-linejoin="miter" fill="none" stroke="#0000ff" d="M69.15472 61.31409 71.97263 64.13199M69.15472 64.13199 71.97263 61.31409"/>
<path transform="matrix(1,0,0,-1,32.162,163.58802)" stroke-width=".59776" stroke-linecap="butt" stroke-miterlimit="10" stroke-linejoin="miter" fill="none" stroke="#0000ff" d="M101.2291 59.1441 104.047 61.962M101.2291 61.962 104.047 59.1441"/>
<path transform="matrix(1,0,0,-1,32.162,163.58802)" stroke-width=".59776" stroke-linecap="butt" stroke-miterlimit="10" stroke-linejoin="miter" fill="none" stroke="#0000ff" d="M133.3035 58.41306 136.1214 61.23096M133.3035 61.23096 136.1214 58.41306"/>
<path transform="matrix(1,0,0,-1,32.162,163.58802)" stroke-width=".59776" stroke-linecap="butt" stroke-miterlimit="10" stroke-linejoin="miter" fill="none" stroke="#0000ff" d=""/>
<path transform="matrix(1,0,0,-1,32.162,163.58802)" d="M6.41487 99.88907 8.14049 96.90024H4.68927Z" fill="#008000"/>
<path transform="matrix(1,0,0,-1,32.162,163.58802)" stroke-width=".59776" stroke-linecap="butt" stroke-miterlimit="10" stroke-linejoin="miter" fill="none" stroke="#008000" d="M6.41487 99.88907 8.14049 96.90024H4.68927Z"/>
<path transform="matrix(1,0,0,-1,32.162,163.58802)" d="M38.48927 96.78452 40.21487 93.79568H36.76367Z" fill="#008000"/>
<path transform="matrix(1,0,0,-1,32.162,163.58802)" stroke-width=".59776" stroke-linecap="butt" stroke-miterlimit="10" stroke-linejoin="miter" fill="none" stroke="#008000" d="M38.48927 96.78452 40.21487 93.79568H36.76367Z"/>
<path transform="matrix(1,0,0,-1,32.162,163.58802)" d="M70.56367 91.09224 72.28928 88.10341H68.83806Z" fill="#008000"/>
<path transform="matrix(1,0,0,-1,32.162,163.58802)" stroke-width=".59776" stroke-linecap="butt" stroke-miterlimit="10" stroke-linejoin="miter" fill="none" stroke="#008000" d="M70.56367 91.09224 72.28928 88.10341H68.83806Z"/>
<path transform="matrix(1,0,0,-1,32.162,163.58802)" d="M102.63805 86.95259 104.36366 83.96376H100.91245Z" fill="#008000"/>
<path transform="matrix(1,0,0,-1,32.162,163.58802)" stroke-width=".59776" stroke-linecap="butt" stroke-miterlimit="10" stroke-linejoin="miter" fill="none" stroke="#008000" d="M102.63805 86.95259 104.36366 83.96376H100.91245Z"/>
<path transform="matrix(1,0,0,-1,32.162,163.58802)" d="M134.71245 85.53311 136.43805 82.54428H132.98683Z" fill="#008000"/>
<path transform="matrix(1,0,0,-1,32.162,163.58802)" stroke-width=".59776" stroke-linecap="butt" stroke-miterlimit="10" stroke-linejoin="miter" fill="none" stroke="#008000" d="M134.71245 85.53311 136.43805 82.54428H132.98683Z"/>
<path transform="matrix(1,0,0,-1,32.162,163.58802)" stroke-width=".59776" stroke-linecap="butt" stroke-miterlimit="10" stroke-linejoin="miter" fill="none" stroke="#008000" d=""/>
<path transform="matrix(1,0,0,-1,32.162,163.58802)" d="M6.41487 36.3886 4.68927 39.37743H8.14049Z"/>
<path transform="matrix(1,0,0,-1,32.162,163.58802)" stroke-width=".59776" stroke-linecap="butt" stroke-miterlimit="10" stroke-linejoin="miter" fill="none" stroke="#000000" d="M6.41487 36.3886 4.68927 39.37743H8.14049Z"/>
<path transform="matrix(1,0,0,-1,32.162,163.58802)" d="M38.48927 35.7726 36.76367 38.76143H40.21487Z"/>
<path transform="matrix(1,0,0,-1,32.162,163.58802)" stroke-width=".59776" stroke-linecap="butt" stroke-miterlimit="10" stroke-linejoin="miter" fill="none" stroke="#000000" d="M38.48927 35.7726 36.76367 38.76143H40.21487Z"/>
<path transform="matrix(1,0,0,-1,32.162,163.58802)" d="M70.56367 35.58458 68.83806 38.57341H72.28928Z"/>
<path transform="matrix(1,0,0,-1,32.162,163.58802)" stroke-width=".59776" stroke-linecap="butt" stroke-miterlimit="10" stroke-linejoin="miter" fill="none" stroke="#000000" d="M70.56367 35.58458 68.83806 38.57341H72.28928Z"/>
<path transform="matrix(1,0,0,-1,32.162,163.58802)" d="M102.63805 35.58588 100.91245 38.5747H104.36366Z"/>
<path transform="matrix(1,0,0,-1,32.162,163.58802)" stroke-width=".59776" stroke-linecap="butt" stroke-miterlimit="10" stroke-linejoin="miter" fill="none" stroke="#000000" d="M102.63805 35.58588 100.91245 38.5747H104.36366Z"/>
<path transform="matrix(1,0,0,-1,32.162,163.58802)" d="M134.71245 35.5996 132.98683 38.58842H136.43805Z"/>
<path transform="matrix(1,0,0,-1,32.162,163.58802)" stroke-width=".59776" stroke-linecap="butt" stroke-miterlimit="10" stroke-linejoin="miter" fill="none" stroke="#000000" d="M134.71245 35.5996 132.98683 38.58842H136.43805Z"/>
<path transform="matrix(1,0,0,-1,32.162,163.58802)" stroke-width=".59776" stroke-linecap="butt" stroke-miterlimit="10" stroke-linejoin="miter" fill="none" stroke="#000000" d=""/>
<path transform="matrix(1,0,0,-1,32.162,163.58802)" d="M6.41487 34.57529 7.90929 32.58273 6.41487 30.59018 4.92046 32.58273Z" fill="#bf00bf"/>
<path transform="matrix(1,0,0,-1,32.162,163.58802)" stroke-width=".59776" stroke-linecap="butt" stroke-miterlimit="10" stroke-linejoin="miter" fill="none" stroke="#bf00bf" d="M6.41487 34.57529 7.90929 32.58273 6.41487 30.59018 4.92046 32.58273Z"/>
<path transform="matrix(1,0,0,-1,32.162,163.58802)" d="M38.48927 35.80052 39.98369 33.80797 38.48927 31.81541 36.99486 33.80797Z" fill="#bf00bf"/>
<path transform="matrix(1,0,0,-1,32.162,163.58802)" stroke-width=".59776" stroke-linecap="butt" stroke-miterlimit="10" stroke-linejoin="miter" fill="none" stroke="#bf00bf" d="M38.48927 35.80052 39.98369 33.80797 38.48927 31.81541 36.99486 33.80797Z"/>
<path transform="matrix(1,0,0,-1,32.162,163.58802)" d="M70.56367 37.80159 72.05809 35.80904 70.56367 33.81648 69.06926 35.80904Z" fill="#bf00bf"/>
<path transform="matrix(1,0,0,-1,32.162,163.58802)" stroke-width=".59776" stroke-linecap="butt" stroke-miterlimit="10" stroke-linejoin="miter" fill="none" stroke="#bf00bf" d="M70.56367 37.80159 72.05809 35.80904 70.56367 33.81648 69.06926 35.80904Z"/>
<path transform="matrix(1,0,0,-1,32.162,163.58802)" d="M102.63805 39.28246 104.13246 37.2899 102.63805 35.29735 101.14363 37.2899Z" fill="#bf00bf"/>
<path transform="matrix(1,0,0,-1,32.162,163.58802)" stroke-width=".59776" stroke-linecap="butt" stroke-miterlimit="10" stroke-linejoin="miter" fill="none" stroke="#bf00bf" d="M102.63805 39.28246 104.13246 37.2899 102.63805 35.29735 101.14363 37.2899Z"/>
<path transform="matrix(1,0,0,-1,32.162,163.58802)" d="M134.71245 40.3737 136.20687 38.38115 134.71245 36.3886 133.21804 38.38115Z" fill="#bf00bf"/>
<path transform="matrix(1,0,0,-1,32.162,163.58802)" stroke-width=".59776" stroke-linecap="butt" stroke-miterlimit="10" stroke-linejoin="miter" fill="none" stroke="#bf00bf" d="M134.71245 40.3737 136.20687 38.38115 134.71245 36.3886 133.21804 38.38115Z"/>
<path transform="matrix(1,0,0,-1,32.162,163.58802)" stroke-width=".59776" stroke-linecap="butt" stroke-miterlimit="10" stroke-linejoin="miter" fill="none" stroke="#bf00bf" d=""/>
<path transform="matrix(1,0,0,-1,32.162,163.58802)" d="M6.41487 40.3737 8.30992 38.9969 7.58607 36.76913H5.24368L4.51984 38.9969Z" fill="#00bfbf"/>
<path transform="matrix(1,0,0,-1,32.162,163.58802)" stroke-width=".59776" stroke-linecap="butt" stroke-miterlimit="10" stroke-linejoin="miter" fill="none" stroke="#00bfbf" d="M6.41487 40.3737 8.30992 38.9969 7.58607 36.76913H5.24368L4.51984 38.9969Z"/>
<path transform="matrix(1,0,0,-1,32.162,163.58802)" d="M38.48927 38.70615 40.38432 37.32933 39.66046 35.10158H37.31808L36.59422 37.32933Z" fill="#00bfbf"/>
<path transform="matrix(1,0,0,-1,32.162,163.58802)" stroke-width=".59776" stroke-linecap="butt" stroke-miterlimit="10" stroke-linejoin="miter" fill="none" stroke="#00bfbf" d="M38.48927 38.70615 40.38432 37.32933 39.66046 35.10158H37.31808L36.59422 37.32933Z"/>
<path transform="matrix(1,0,0,-1,32.162,163.58802)" d="M70.56367 38.66716 72.45872 37.29036 71.73486 35.06259H69.39247L68.66862 37.29036Z" fill="#00bfbf"/>
<path transform="matrix(1,0,0,-1,32.162,163.58802)" stroke-width=".59776" stroke-linecap="butt" stroke-miterlimit="10" stroke-linejoin="miter" fill="none" stroke="#00bfbf" d="M70.56367 38.66716 72.45872 37.29036 71.73486 35.06259H69.39247L68.66862 37.29036Z"/>
<path transform="matrix(1,0,0,-1,32.162,163.58802)" d="M102.63805 39.43692 104.5331 38.0601 103.80923 35.83235H101.46686L100.743 38.0601Z" fill="#00bfbf"/>
<path transform="matrix(1,0,0,-1,32.162,163.58802)" stroke-width=".59776" stroke-linecap="butt" stroke-miterlimit="10" stroke-linejoin="miter" fill="none" stroke="#00bfbf" d="M102.63805 39.43692 104.5331 38.0601 103.80923 35.83235H101.46686L100.743 38.0601Z"/>
<path transform="matrix(1,0,0,-1,32.162,163.58802)" d="M134.71245 40.3737 136.6075 38.9969 135.88364 36.76913H133.54126L132.8174 38.9969Z" fill="#00bfbf"/>
<path transform="matrix(1,0,0,-1,32.162,163.58802)" stroke-width=".59776" stroke-linecap="butt" stroke-miterlimit="10" stroke-linejoin="miter" fill="none" stroke="#00bfbf" d="M134.71245 40.3737 136.6075 38.9969 135.88364 36.76913H133.54126L132.8174 38.9969Z"/>
<path transform="matrix(1,0,0,-1,32.162,163.58802)" stroke-width=".59776" stroke-linecap="butt" stroke-miterlimit="10" stroke-linejoin="miter" fill="none" stroke="#00bfbf" d=""/>
<use data-text="&#x1d719;" xlink:href="#font_1_3191" transform="matrix(9.96264,0,0,-9.96264,126.084,191.72902)"/>
<use data-text="&#x1d438;" xlink:href="#font_1_2480" transform="matrix(0,-9.96264,-9.96264,-0,11.819,98.43401)"/>
<use data-text="&#x00d7;" xlink:href="#font_1_183" transform="matrix(0,-9.96264,-9.96264,-0,11.819,88.51122)"/>
<use data-text="&#x1d435;" xlink:href="#font_1_2477" transform="matrix(0,-9.96264,-9.96264,-0,11.819,79.92342)"/>
<use data-text="&#x1d456;" xlink:href="#font_3_2509" transform="matrix(0,-7.47198,-7.47198,-0,14.308998,72.985019)"/>
<use data-text="&#x1d457;" xlink:href="#font_3_2510" transform="matrix(0,-7.47198,-7.47198,-0,14.308998,70.661228)"/>
<path transform="matrix(1,0,0,-1,32.162,163.58802)" d="M148.4631 31.97092H188.24524V156.35715H148.4631Z" fill="#ffffff" fill-opacity=".8"/>
<path transform="matrix(1,0,0,-1,32.162,163.58802)" stroke-width=".3985" stroke-linecap="butt" stroke-miterlimit="10" stroke-linejoin="miter" fill="none" stroke="#cccccc" d="M148.4631 31.97092H188.24524V156.35715H148.4631Z"/>
<path transform="matrix(1,0,0,-1,183.91,14.24202)" stroke-width=".59776" stroke-linecap="butt" stroke-miterlimit="10" stroke-linejoin="miter" fill="none" stroke="#ff0000" d="M0 0H8.50412 17.00826"/>
<path transform="matrix(1,0,0,-1,183.91,14.24202)" d="M10.49667 0C10.49667 1.10046 9.60458 1.99255 8.50412 1.99255 7.40364 1.99255 6.51157 1.10046 6.51157 0 6.51157-1.10046 7.40364-1.99255 8.50412-1.99255 9.60458-1.99255 10.49667-1.10046 10.49667 0ZM8.50412 0" fill="#ff0000" fill-opacity=".8"/>
<path transform="matrix(1,0,0,-1,183.91,14.24202)" stroke-width=".59776" stroke-linecap="butt" stroke-miterlimit="10" stroke-linejoin="miter" fill="none" stroke="#ff0000" d="M10.49667 0C10.49667 1.10046 9.60458 1.99255 8.50412 1.99255 7.40364 1.99255 6.51157 1.10046 6.51157 0 6.51157-1.10046 7.40364-1.99255 8.50412-1.99255 9.60458-1.99255 10.49667-1.10046 10.49667 0ZM8.50412 0"/>
<use data-text="&#x1d435;" xlink:href="#font_3_2477" transform="matrix(6.97385,0,0,-6.97385,203.21,15.771027)"/>
<use data-text="&#x2113;" xlink:href="#font_4_974" transform="matrix(4.98132,0,0,-4.98132,208.064,17.515015)"/>
<use data-text="&#x2113;" xlink:href="#font_4_974" transform="matrix(4.98132,0,0,-4.98132,210.94818,17.515015)"/>
<path transform="matrix(1,0,0,-1,183.91,24.27502)" stroke-width=".59776" stroke-linecap="butt" stroke-miterlimit="10" stroke-linejoin="miter" fill="none" stroke="#0000ff" d="M0 0H8.50412 17.00826"/>
<path transform="matrix(1,0,0,-1,183.91,24.27502)" stroke-width=".59776" stroke-linecap="butt" stroke-miterlimit="10" stroke-linejoin="miter" fill="none" stroke="#0000ff" d="M7.09517-1.40894 9.91307 1.40894M7.09517 1.40894 9.91307-1.40894"/>
<use data-text="&#x1d435;" xlink:href="#font_3_2477" transform="matrix(6.97385,0,0,-6.97385,203.21,25.805024)"/>
<use data-text="&#x1d45a;" xlink:href="#font_4_2513" transform="matrix(4.98132,0,0,-4.98132,208.064,27.54802)"/>
<use data-text="&#x1d45a;" xlink:href="#font_4_2513" transform="matrix(4.98132,0,0,-4.98132,211.60074,27.54802)"/>
<path transform="matrix(1,0,0,-1,183.91,34.30802)" stroke-width=".59776" stroke-linecap="butt" stroke-miterlimit="10" stroke-linejoin="miter" fill="none" stroke="#008000" d="M0 0H8.50412 17.00826"/>
<path transform="matrix(1,0,0,-1,183.91,34.30802)" d="M8.50412 1.99255 10.22972-.99628H6.7785Z" fill="#008000" fill-opacity=".8"/>
<path transform="matrix(1,0,0,-1,183.91,34.30802)" stroke-width=".59776" stroke-linecap="butt" stroke-miterlimit="10" stroke-linejoin="miter" fill="none" stroke="#008000" d="M8.50412 1.99255 10.22972-.99628H6.7785Z"/>
<use data-text="&#x1d435;" xlink:href="#font_3_2477" transform="matrix(6.97385,0,0,-6.97385,203.21,35.838029)"/>
<use data-text="&#x1d45b;" xlink:href="#font_4_2514" transform="matrix(4.98132,0,0,-4.98132,208.064,37.582017)"/>
<use data-text="&#x1d45b;" xlink:href="#font_4_2514" transform="matrix(4.98132,0,0,-4.98132,210.53972,37.582017)"/>
<path transform="matrix(1,0,0,-1,183.91,44.342023)" stroke-width=".59776" stroke-linecap="butt" stroke-miterlimit="10" stroke-linejoin="miter" fill="none" stroke="#000000" d="M0 0H8.50412 17.00826"/>
<path transform="matrix(1,0,0,-1,183.91,44.342023)" d="M8.50412-1.99255 6.7785 .99628H10.22972Z" fill-opacity=".8"/>
<path transform="matrix(1,0,0,-1,183.91,44.342023)" stroke-width=".59776" stroke-linecap="butt" stroke-miterlimit="10" stroke-linejoin="miter" fill="none" stroke="#000000" d="M8.50412-1.99255 6.7785 .99628H10.22972Z"/>
<use data-text="&#x1d435;" xlink:href="#font_3_2477" transform="matrix(6.97385,0,0,-6.97385,203.21,45.871019)"/>
<use data-text="&#x1d45a;" xlink:href="#font_4_2513" transform="matrix(4.98132,0,0,-4.98132,208.064,47.61502)"/>
<use data-text="&#x1d45b;" xlink:href="#font_4_2514" transform="matrix(4.98132,0,0,-4.98132,211.60074,47.61502)"/>
<path transform="matrix(1,0,0,-1,183.91,54.375024)" stroke-width=".59776" stroke-linecap="butt" stroke-miterlimit="10" stroke-linejoin="miter" fill="none" stroke="#bf00bf" d="M0 0H8.50412 17.00826"/>
<path transform="matrix(1,0,0,-1,183.91,54.375024)" d="M8.50412 1.99255 9.99854 0 8.50412-1.99255 7.0097 0Z" fill="#bf00bf" fill-opacity=".8"/>
<path transform="matrix(1,0,0,-1,183.91,54.375024)" stroke-width=".59776" stroke-linecap="butt" stroke-miterlimit="10" stroke-linejoin="miter" fill="none" stroke="#bf00bf" d="M8.50412 1.99255 9.99854 0 8.50412-1.99255 7.0097 0Z"/>
<use data-text="&#x1d435;" xlink:href="#font_3_2477" transform="matrix(6.97385,0,0,-6.97385,203.21,55.905015)"/>
<use data-text="&#x1d45b;" xlink:href="#font_4_2514" transform="matrix(4.98132,0,0,-4.98132,208.064,57.648027)"/>
<use data-text="&#x2113;" xlink:href="#font_4_974" transform="matrix(4.98132,0,0,-4.98132,210.53972,57.648027)"/>
<path transform="matrix(1,0,0,-1,183.91,64.40802)" stroke-width=".59776" stroke-linecap="butt" stroke-miterlimit="10" stroke-linejoin="miter" fill="none" stroke="#00bfbf" d="M0 0H8.50412 17.00826"/>
<path transform="matrix(1,0,0,-1,183.91,64.40802)" d="M8.50412 1.99255 10.39917 .61574 9.67531-1.61201H7.33293L6.60907 .61574Z" fill="#00bfbf" fill-opacity=".8"/>
<path transform="matrix(1,0,0,-1,183.91,64.40802)" stroke-width=".59776" stroke-linecap="butt" stroke-miterlimit="10" stroke-linejoin="miter" fill="none" stroke="#00bfbf" d="M8.50412 1.99255 10.39917 .61574 9.67531-1.61201H7.33293L6.60907 .61574Z"/>
<use data-text="&#x1d435;" xlink:href="#font_3_2477" transform="matrix(6.97385,0,0,-6.97385,203.21,65.93802)"/>
<use data-text="&#x2113;" xlink:href="#font_4_974" transform="matrix(4.98132,0,0,-4.98132,208.064,67.681018)"/>
<use data-text="&#x1d45a;" xlink:href="#font_4_2513" transform="matrix(4.98132,0,0,-4.98132,210.94818,67.681018)"/>
<path transform="matrix(1,0,0,-1,183.91,74.44102)" stroke-width=".59776" stroke-linecap="butt" stroke-dasharray=".59776,1.99255" stroke-miterlimit="10" stroke-linejoin="miter" fill="none" stroke="#ff0000" d="M0 0H8.50412 17.00826"/>
<path transform="matrix(1,0,0,-1,183.91,74.44102)" d="M10.49667 0C10.49667 1.10046 9.60458 1.99255 8.50412 1.99255 7.40364 1.99255 6.51157 1.10046 6.51157 0 6.51157-1.10046 7.40364-1.99255 8.50412-1.99255 9.60458-1.99255 10.49667-1.10046 10.49667 0ZM8.50412 0" fill="#ff0000" fill-opacity=".8"/>
<path transform="matrix(1,0,0,-1,183.91,74.44102)" stroke-width=".59776" stroke-linecap="butt" stroke-miterlimit="10" stroke-linejoin="miter" fill="none" stroke="#ff0000" d="M10.49667 0C10.49667 1.10046 9.60458 1.99255 8.50412 1.99255 7.40364 1.99255 6.51157 1.10046 6.51157 0 6.51157-1.10046 7.40364-1.99255 8.50412-1.99255 9.60458-1.99255 10.49667-1.10046 10.49667 0ZM8.50412 0"/>
<use data-text="&#x1d435;" xlink:href="#font_3_2477" transform="matrix(6.97385,0,0,-6.97385,203.21,75.97102)"/>
<use data-text="1" xlink:href="#font_4_50" transform="matrix(4.98132,0,0,-4.98132,208.064,77.71502)"/>
<use data-text="1" xlink:href="#font_4_50" transform="matrix(4.98132,0,0,-4.98132,210.55466,77.71502)"/>
<path transform="matrix(1,0,0,-1,183.91,84.47502)" stroke-width=".59776" stroke-linecap="butt" stroke-dasharray=".59776,1.99255" stroke-miterlimit="10" stroke-linejoin="miter" fill="none" stroke="#0000ff" d="M0 0H8.50412 17.00826"/>
<path transform="matrix(1,0,0,-1,183.91,84.47502)" stroke-width=".59776" stroke-linecap="butt" stroke-miterlimit="10" stroke-linejoin="miter" fill="none" stroke="#0000ff" d="M7.09517-1.40894 9.91307 1.40894M7.09517 1.40894 9.91307-1.40894"/>
<use data-text="&#x1d435;" xlink:href="#font_3_2477" transform="matrix(6.97385,0,0,-6.97385,203.21,86.00502)"/>
<use data-text="2" xlink:href="#font_4_51" transform="matrix(4.98132,0,0,-4.98132,208.064,87.748027)"/>
<use data-text="2" xlink:href="#font_4_51" transform="matrix(4.98132,0,0,-4.98132,210.55466,87.748027)"/>
<path transform="matrix(1,0,0,-1,183.91,94.50802)" stroke-width=".59776" stroke-linecap="butt" stroke-dasharray=".59776,1.99255" stroke-miterlimit="10" stroke-linejoin="miter" fill="none" stroke="#008000" d="M0 0H8.50412 17.00826"/>
<path transform="matrix(1,0,0,-1,183.91,94.50802)" d="M8.50412 1.99255 10.22972-.99628H6.7785Z" fill="#008000" fill-opacity=".8"/>
<path transform="matrix(1,0,0,-1,183.91,94.50802)" stroke-width=".59776" stroke-linecap="butt" stroke-miterlimit="10" stroke-linejoin="miter" fill="none" stroke="#008000" d="M8.50412 1.99255 10.22972-.99628H6.7785Z"/>
<use data-text="&#x1d435;" xlink:href="#font_3_2477" transform="matrix(6.97385,0,0,-6.97385,203.21,96.03802)"/>
<use data-text="3" xlink:href="#font_4_52" transform="matrix(4.98132,0,0,-4.98132,208.064,97.78102)"/>
<use data-text="3" xlink:href="#font_4_52" transform="matrix(4.98132,0,0,-4.98132,210.55466,97.78102)"/>
<path transform="matrix(1,0,0,-1,183.91,104.541019)" stroke-width=".59776" stroke-linecap="butt" stroke-dasharray=".59776,1.99255" stroke-miterlimit="10" stroke-linejoin="miter" fill="none" stroke="#000000" d="M0 0H8.50412 17.00826"/>
<path transform="matrix(1,0,0,-1,183.91,104.541019)" d="M8.50412-1.99255 6.7785 .99628H10.22972Z" fill-opacity=".8"/>
<path transform="matrix(1,0,0,-1,183.91,104.541019)" stroke-width=".59776" stroke-linecap="butt" stroke-miterlimit="10" stroke-linejoin="miter" fill="none" stroke="#000000" d="M8.50412-1.99255 6.7785 .99628H10.22972Z"/>
<use data-text="&#x1d435;" xlink:href="#font_3_2477" transform="matrix(6.97385,0,0,-6.97385,203.21,106.07102)"/>
<use data-text="2" xlink:href="#font_4_51" transform="matrix(4.98132,0,0,-4.98132,208.064,107.81502)"/>
<use data-text="3" xlink:href="#font_4_52" transform="matrix(4.98132,0,0,-4.98132,210.55466,107.81502)"/>
<path transform="matrix(1,0,0,-1,183.91,114.57501)" stroke-width=".59776" stroke-linecap="butt" stroke-dasharray=".59776,1.99255" stroke-miterlimit="10" stroke-linejoin="miter" fill="none" stroke="#bf00bf" d="M0 0H8.50412 17.00826"/>
<path transform="matrix(1,0,0,-1,183.91,114.57501)" d="M8.50412 1.99255 9.99854 0 8.50412-1.99255 7.0097 0Z" fill="#bf00bf" fill-opacity=".8"/>
<path transform="matrix(1,0,0,-1,183.91,114.57501)" stroke-width=".59776" stroke-linecap="butt" stroke-miterlimit="10" stroke-linejoin="miter" fill="none" stroke="#bf00bf" d="M8.50412 1.99255 9.99854 0 8.50412-1.99255 7.0097 0Z"/>
<use data-text="&#x1d435;" xlink:href="#font_3_2477" transform="matrix(6.97385,0,0,-6.97385,203.21,116.10402)"/>
<use data-text="3" xlink:href="#font_4_52" transform="matrix(4.98132,0,0,-4.98132,208.064,117.84802)"/>
<use data-text="1" xlink:href="#font_4_50" transform="matrix(4.98132,0,0,-4.98132,210.55466,117.84802)"/>
<path transform="matrix(1,0,0,-1,183.91,124.60801)" stroke-width=".59776" stroke-linecap="butt" stroke-dasharray=".59776,1.99255" stroke-miterlimit="10" stroke-linejoin="miter" fill="none" stroke="#00bfbf" d="M0 0H8.50412 17.00826"/>
<path transform="matrix(1,0,0,-1,183.91,124.60801)" d="M8.50412 1.99255 10.39917 .61574 9.67531-1.61201H7.33293L6.60907 .61574Z" fill="#00bfbf" fill-opacity=".8"/>
<path transform="matrix(1,0,0,-1,183.91,124.60801)" stroke-width=".59776" stroke-linecap="butt" stroke-miterlimit="10" stroke-linejoin="miter" fill="none" stroke="#00bfbf" d="M8.50412 1.99255 10.39917 .61574 9.67531-1.61201H7.33293L6.60907 .61574Z"/>
<use data-text="&#x1d435;" xlink:href="#font_3_2477" transform="matrix(6.97385,0,0,-6.97385,203.21,126.13801)"/>
<use data-text="1" xlink:href="#font_4_50" transform="matrix(4.98132,0,0,-4.98132,208.064,127.881008)"/>
<use data-text="2" xlink:href="#font_4_51" transform="matrix(4.98132,0,0,-4.98132,210.55466,127.881008)"/>
</svg>
