<svg xmlns="http://www.w3.org/2000/svg" xmlns:xlink="http://www.w3.org/1999/xlink" xmlns:inkscape="http://www.inkscape.org/namespaces/inkscape" version="1.1" width="229.273" height="198.981" viewBox="0 0 229.273 198.981">
<defs>
<path id="font_1_49" d="M.37998963 .32505799C.37998963 .12722779 .33499146 .012313843 .25 .012313843 .1639862 .012313843 .11999512 .1262207 .11999512 .32904054 .11999512 .5318756 .16499329 .6497803 .24798584 .6497803 .33599855 .6497803 .37998963 .53286746 .37998963 .32505799M.47599793 .3300476C.47599793 .53486636 .3849945 .67578127 .2539978 .67578127 .09298706 .67578127 .023986817 .5128937 .023986817 .3360443 .023986817 .17218018 .07899475-.013671875 .25-.013671875 .41299439-.013671875 .47599793 .15818787 .47599793 .3300476Z"/>
<path id="font_1_47" d="M.18099976 .04324341C.18099976 .07325745 .15499878 .100250247 .12599182 .100250247 .09498596 .100250247 .069992069 .07525635 .069992069 .04425049 .069992069 .013244629 .09399414-.0107421879 .125-.0107421879 .15499878-.0107421879 .18099976 .014251709 .18099976 .04324341Z"/>
<path id="font_1_52" d="M.06098938 .50987246C.101989749 .58380129 .147995 .61576846 .20999146 .61576846 .27598573 .61576846 .31799317 .58180239 .31799317 .51387026 .31799317 .45292665 .28599549 .40795899 .23699951 .37998963 .21699524 .36799623 .19099427 .3570099 .15299988 .34402467V.33003236C.20999146 .33003236 .23298645 .32704164 .25498963 .3200531 .32398988 .3000641 .35899354 .2511139 .35899354 .17518616 .35899354 .09025574 .30299378 .022323609 .22898865 .022323609 .20098877 .022323609 .17999268 .027313233 .14299011 .05329895 .114990238 .073272708 .09899902 .07926941 .08198547 .07926941 .05899048 .07926941 .040985109 .06428528 .040985109 .043304445 .040985109 .0073242189 .07998657-.013671875 .15299988-.013671875 .24198914-.013671875 .33699037 .015319824 .3849945 .07926941 .4139862 .11723328 .43099977 .16618347 .43099977 .21913147 .43099977 .27108766 .4149933 .31704713 .3869934 .34802247 .3659973 .36999513 .34799195 .38198854 .3039856 .40097047 .37098695 .44093324 .39698792 .4908905 .39698792 .5388489 .39698792 .6207733 .33399964 .67578127 .24099732 .67578127 .13699341 .67578127 .07398987 .6087799 .04499817 .51387026L.06098938 .50987246Z"/>
<path id="font_1_58" d="M.3619995 .35516358C.3619995 .30223084 .2889862 .28027345 .24499512 .28027345 .16999817 .28027345 .12199402 .35516358 .12199402 .47399903 .12199402 .52793887 .13699341 .586853 .15699768 .6138153 .17399597 .63578799 .19999695 .6477661 .22999573 .6477661 .31698609 .6477661 .3619995 .56188967 .3619995 .39411927V.35516358M.05899048-.021728516C.18899536-.0037384034 .2539978 .020263672 .33898927 .09725952 .4189911 .17027283 .45899964 .27926637 .45899964 .39411927 .45899964 .47799684 .43499757 .5499115 .394989 .59983828 .35598756 .6477661 .3019867 .67578127 .23799134 .67578127 .11898804 .67578127 .02999878 .5748749 .02999878 .44004823 .02999878 .31822206 .101989749 .23725891 .20999146 .23725891 .2689972 .23725891 .31698609 .2522583 .3600006 .2942505 .31999208 .13026428 .20799256 .025268555 .055999757-.001739502L.05899048-.021728516Z"/>
<path id="font_1_56" d="M.44898988 .6461029V.6621094H.07998657L.019989014 .5151062 .037994386 .5061188C.07998657 .57411196 .09700012 .58810427 .15499878 .58810427H.36999513L.17199707-.0078125H.23699951L.44898988 .6461029Z"/>
<path id="font_1_50" d="M.3939972 0V.01499939C.31900025 .01499939 .29899598 .032989503 .29899598 .07597351V.67277529L.2899933 .67578127 .11099243 .5847931V.5708008L.13798523 .5807953C.1559906 .5877991 .17298889 .59280398 .18299866 .59280398 .20399475 .59280398 .21299744 .57780459 .21299744 .543808V.0949707C.21299744 .039978029 .19198609 .018997193 .117996219 .01499939V0H.3939972Z"/>
<path id="font_1_57" d="M.2709961 .27209474C.33898927 .22613526 .36898805 .18617249 .36898805 .1242218 .36898805 .059280397 .32398988 .014328003 .25898744 .014328003 .18299866 .014328003 .13198853 .06626892 .13198853 .15820313 .13198853 .22314453 .15299988 .26409913 .21199036 .3120575L.2709961 .27209474M.35499574 .53286746C.35499574 .470932 .32899476 .42897035 .26098634 .3889923 .17298889 .4409485 .13598633 .48690797 .13598633 .54885867 .13598633 .6108093 .1789856 .6477661 .24598694 .6477661 .31399537 .6477661 .35499574 .60180667 .35499574 .53286746M.44499208 .15519715C.44499208 .23512268 .41299439 .28907777 .2899933 .37101747 .3889923 .42396546 .42399598 .45793153 .42399598 .53286746 .42399598 .6108093 .35499574 .67578127 .2559967 .67578127 .14498902 .67578127 .06199646 .61579897 .06199646 .5198822 .06199646 .4549408 .08299255 .41697694 .18598938 .3320465 .07899475 .2571106 .055999757 .21813965 .055999757 .14920044 .055999757 .055282594 .1349945-.013671875 .24798584-.013671875 .36799623-.013671875 .44499208 .05229187 .44499208 .15519715Z"/>
<path id="font_1_54" d="M.43798829 .68110659 .42900086 .6880951C.41299439 .667099 .4039917 .6621094 .3809967 .6621094H.17399597L.06498718 .4251709C.06498718 .4251709 .06399536 .42216493 .06399536 .42016603 .06399536 .4141693 .066986087 .4121704 .07598877 .4121704 .17199707 .4121704 .24198914 .380188 .2889862 .3421936 .33399964 .30621339 .35598756 .2562256 .35598756 .19226074 .35598756 .106292728 .29100038 .02331543 .22099304 .02331543 .20098877 .02331543 .17799378 .032318117 .1499939 .05531311 .117996219 .08129883 .09899902 .08630371 .07598877 .08630371 .04798889 .08630371 .0309906 .07330322 .0309906 .048309328 .0309906 .010314941 .08299255-.013671875 .1579895-.013671875 .22599793-.013671875 .2809906 .0013275147 .32798768 .035308839 .3959961 .08529663 .42599488 .14727783 .42599488 .24324036 .42599488 .29621888 .4169922 .334198 .3909912 .37019349 .33399964 .4491577 .28399659 .47114564 .14099121 .49813844L.18099976 .58309939H.375C.3909912 .58309939 .39898683 .58909609 .4019928 .59609988L.43798829 .68110659Z"/>
<clipPath id="clip_2">
<path transform="matrix(1,0,0,-1,32.809,163.58402)" d="M0 0H194.27465V161.39493H0Z"/>
</clipPath>
<path id="font_1_3191" d="M.23999024 .018966675C.16999817 .018966675 .12399292 .094955448 .12399292 .15795899 .12399292 .27696229 .20899964 .41096498 .33898927 .41096498L.23999024 .018966675M.41799928 .41096498C.5029907 .4119568 .5349884 .358963 .5349884 .279953 .5349884 .16996765 .44198609 .018966675 .32099916 .018966675L.41799928 .41096498M.47999574 .66796877H.397995C.38198854 .5919647 .3639984 .5159607 .34498597 .43995667H.32899476C.24899292 .43995667 .17999268 .41296388 .12399292 .35595704 .070999149 .30195619 .039993287 .23596192 .039993287 .15995789 .039993287 .044952394 .12298584-.011047363 .23098755-.011047363L.18499756-.18304444H.2659912L.31399537-.011047363C.40098573-.011047363 .47999574 .015960694 .5399933 .080963138 .59298709 .13795471 .6199951 .20695496 .6199951 .2849579 .6199951 .40196229 .5279999 .43995667 .4249878 .43995667L.47999574 .66796877Z"/>
<path id="font_1_2480" d="M.73399356 .653183H.19999695L.19599915 .6371765H.21499634C.27398683 .6371765 .2899933 .6261749 .2899933 .60217288 .2899933 .59516909 .2889862 .5841522 .2849884 .56614688L.16499329 .07798767C.15699768 .04399109 .13398743 .015991211 .06098938 .015991211H.041992189L.037994386 0H.60899356L.6749878 .19799805H.6589966C.6159973 .084991458 .55999758 .037994386 .4019928 .037994386H.33499146C.28799439 .037994386 .27198792 .04899597 .27198792 .06498718 .27198792 .067993167 .272995 .070999149 .27398683 .07499695L.33999635 .3330078H.42999269C.46099855 .3330078 .5019989 .32899476 .5019989 .28199769 .5019989 .2649994 .49699403 .23500061 .49598695 .22200012H.5130005L.57099917 .46406556H.5549927C.5329895 .38200379 .4889984 .3690033 .42900086 .3690033H.34899903L.40899659 .6171875H.56900027C.6199951 .6171875 .6749878 .60417178 .6779938 .53012087 .6779938 .519104 .6769867 .5081024 .6759949 .49508668H.69200137L.73399356 .653183Z"/>
<path id="font_1_183" d="M.5970001 .021987915 .36698915 .2519989 .5970001 .48399354 .5509949 .5289917 .31999208 .29899598 .08999634 .5289917 .042999269 .48298646 .272995 .2519989 .042999269 .020996094 .08898926-.025009156 .31999208 .20498657 .5509949-.025009156 .5970001 .021987915Z"/>
<path id="font_1_2477" d="M.33799745 .3143463C.35299684 .31835938 .37298585 .31835938 .3889923 .31835938 .46699525 .31835938 .5309906 .28330995 .5309906 .21022034 .5309906 .08004761 .43499757 .037994386 .34098817 .037994386 .31498719 .037994386 .29499818 .039993287 .269989 .04699707L.33799745 .3143463M.4059906 .61125186C.4189911 .61325076 .43399049 .6142578 .44898988 .6142578 .5029907 .6142578 .56799319 .5932617 .56799319 .5162964 .56799319 .41932679 .5119934 .35334779 .3999939 .35334779 .3849945 .35334779 .36698915 .35534669 .34700013 .35934449L.4059906 .61125186M.19799805 .653244 .19299317 .6372528H.21199036C.2709961 .6372528 .2899933 .62124636 .2899933 .5952606 .2899933 .5892639 .2889862 .5792694 .28799439 .5742645L.16499329 .07904053C.15699768 .04499817 .13798523 .015991211 .06199646 .015991211H.041992189L.037994386 0H.3619995C.56900027 0 .651001 .094070438 .651001 .19319153 .651001 .27830506 .58399966 .32035829 .5239868 .3313446L.5209961 .33535768C.54100039 .3403473 .56999209 .34835816 .59498599 .36134339 .6429901 .38534547 .6859894 .43032838 .6859894 .5082855 .6859894 .6442566 .5339966 .653244 .44999696 .653244H.19799805Z"/>
<path id="font_3_2509" d="M.22698975 .4412079 .068984989 .41921998 .07199097 .4032135C.07899475 .4052124 .09098816 .4072113 .099990848 .4072113 .12298584 .4072113 .1309967 .40222169 .1309967 .3852234 .1309967 .3822174 .12998963 .37521363 .1289978 .37321473 .049987794 .0662384 .049987794 .04724121 .049987794 .035247804 .049987794 .008255005 .06199646-.0107421879 .08999634-.0107421879 .13899231-.0107421879 .18899536 .049240114 .22399903 .09423828L.21099854 .10424805C.1749878 .06524658 .16899109 .053253175 .14698792 .053253175 .13999939 .053253175 .13398743 .056243898 .13398743 .06324768 .13398743 .06724548 .13398743 .071243289 .1349945 .07723999L.22698975 .4412079M.25698854 .5662079C.25698854 .5912018 .23498535 .61621096 .20899964 .61621096 .17999268 .61621096 .16099549 .5912018 .16099549 .5662079 .16099549 .5402069 .17999268 .52020266 .20899964 .52020266 .23498535 .52020266 .25698854 .5402069 .25698854 .5662079Z"/>
<path id="font_3_2510" d="M.35099793 .44114686 .19299317 .4131317 .19599915 .39611817C.20298767 .39912416 .21499634 .40112306 .22299195 .40112306 .24499512 .40112306 .25498963 .39111329 .25498963 .3791046L.16299439 .015853882C.13899231-.080200199 .10598755-.15625 .05999756-.15625 .054992677-.15625 .049987794-.1502533 .049987794-.1462555 .049987794-.13023377 .06599426-.12724304 .06599426-.11222839 .06599426-.08921814 .049987794-.07420349 .0309906-.07420349-.0040130617-.07420349-.01600647-.10421753-.01600647-.12623596-.01600647-.1542511 .0039978029-.18725586 .056991579-.18725586 .16499329-.18725586 .22099304-.07220459 .24299622 .015853882L.35099793 .44114686M.37199403 .5662079C.37199403 .5912018 .34999085 .61621096 .32398988 .61621096 .29499818 .61621096 .27598573 .5912018 .27598573 .5662079 .27598573 .5402069 .29499818 .52020266 .32398988 .52020266 .34999085 .52020266 .37199403 .5402069 .37199403 .5662079Z"/>
<path id="font_3_2477" d="M.33799745 .3143463C.35299684 .31835938 .37298585 .31835938 .3889923 .31835938 .46699525 .31835938 .5309906 .28330995 .5309906 .21022034 .5309906 .08004761 .43499757 .037994386 .34098817 .037994386 .31498719 .037994386 .29499818 .039993287 .269989 .04699707L.33799745 .3143463M.4059906 .61125186C.4189911 .61325076 .43399049 .6142578 .44898988 .6142578 .5029907 .6142578 .56799319 .5932617 .56799319 .5162964 .56799319 .41932679 .5119934 .35334779 .3999939 .35334779 .3849945 .35334779 .36698915 .35534669 .34700013 .35934449L.4059906 .61125186M.19799805 .653244 .19299317 .6372528H.21199036C.2709961 .6372528 .2899933 .62124636 .2899933 .5952606 .2899933 .5892639 .2889862 .5792694 .28799439 .5742645L.16499329 .07904053C.15699768 .04499817 .13798523 .015991211 .06199646 .015991211H.041992189L.037994386 0H.3619995C.56900027 0 .651001 .094070438 .651001 .19319153 .651001 .27830506 .58399966 .32035829 .5239868 .3313446L.5209961 .33535768C.54100039 .3403473 .56999209 .34835816 .59498599 .36134339 .6429901 .38534547 .6859894 .43032838 .6859894 .5082855 .6859894 .6442566 .5339966 .653244 .44999696 .653244H.19799805Z"/>
<path id="font_4_974" d="M.2679901 .3962555C.31999208 .4772644 .375 .5582733 .42399598 .60827639 .44898988 .63427737 .47799684 .65527346 .5059967 .65527346 .5289917 .65527346 .54100039 .6432648 .54100039 .6242676 .54100039 .5282593 .42599488 .43026734 .2689972 .39526368L.2679901 .3962555M.07699585 .38926698C.10398865 .37025453 .1349945 .3612671 .16499329 .36026 .15098572 .33825685 .13699341 .31625367 .125 .29426576 .07798767 .21224976 .04798889 .1312561 .04798889 .07624817 .04798889 .018249512 .08799744-.0107421879 .1349945-.0107421879 .19799805-.0107421879 .25698854 .04624939 .3619995 .16925049L.34098817 .18624878C.24398804 .07424927 .18899536 .019256592 .14199829 .019256592 .114990238 .019256592 .10598755 .038253786 .10598755 .06225586 .10598755 .1292572 .19699097 .27626039 .24899292 .36026 .4249878 .386261 .57099917 .5152588 .57099917 .6202698 .57099917 .66625979 .548996 .6872711 .5069885 .6872711 .4249878 .6872711 .2899933 .5452728 .18499756 .3902588 .15499878 .3902588 .12399292 .3922577 .09098816 .41526795L.07699585 .38926698Z"/>
<path id="font_4_2513" d="M.6669922 .10708618C.647995 .0700531 .621994 .054031373 .6049957 .054031373 .59599307 .054031373 .58999636 .058029176 .58999636 .06604004 .58999636 .06904602 .59098818 .07505798 .59199526 .078063968L.6529999 .30932618C.6589966 .3333435 .6599884 .35237123 .6599884 .37039186 .6599884 .41540528 .6419983 .44140626 .60598757 .44140626 .58599856 .44140626 .5669861 .43440248 .54499819 .41940309 .49598695 .38639833 .44400025 .32434083 .4149933 .27227784H.4099884L.41999818 .3083191C.42599488 .32833863 .42900086 .34335328 .42900086 .36038209 .42900086 .4044037 .41099549 .44140626 .37399293 .44140626 .33599855 .44140626 .27598573 .41540528 .18199158 .27227784H.17599488L.21998596 .44140626 .06298828 .41740418 .06498718 .4033966C.07299805 .4044037 .083999637 .4053955 .09199524 .4053955 .11898804 .4053955 .125 .39239503 .125 .37438966L.02999878 0H.10798645L.14299011 .13511658C.15899658 .19619751 .2689972 .37739564 .32099916 .37739564 .33898927 .37739564 .34399415 .359375 .34399415 .33935548 .34399415 .32434083 .34098817 .3083191 .33898927 .2993164L.2619934 0H.34098817L.375 .13511658C.3899994 .19619751 .5 .37739564 .55400088 .37739564 .57199099 .37739564 .5779877 .359375 .5779877 .33935548 .5779877 .32234193 .57598879 .31332398 .57199099 .2993164L.5159912 .078063968C.5109863 .058029176 .5099945 .04801941 .5099945 .041015626 .5099945 .0021820069 .5269928-.0078125 .548996-.0078125 .59599307-.0078125 .647995 .04219055 .6799927 .09623718L.6669922 .10708618Z"/>
<path id="font_4_2514" d="M.46699525 .096206668 .45399476 .10720825C.43998719 .09020996 .41600038 .05418396 .3919983 .05418396 .3809967 .05418396 .37799073 .062179567 .3769989 .06819153 .3769989 .07319641 .3769989 .07620239 .37799073 .078201297L.43699647 .3093567C.44198609 .32936097 .44799806 .35438539 .44799806 .37939454 .44799806 .4123993 .43598939 .44140626 .3919983 .44140626 .33198548 .44140626 .27198792 .37539674 .23199463 .32536317 .22999573 .32235719 .18099976 .25231935 .17599488 .25231935H.17298889L.22399903 .44140626 .06498718 .418396 .066986087 .4033966C.07398987 .4044037 .084991458 .4064026 .09498596 .4064026 .12199402 .4064026 .125 .39239503 .125 .37438966L.02999878 0H.10699463L.13999939 .12411499C.1459961 .1451416 .17199707 .19218445 .20799256 .24624634 .23899842 .29330445 .3019867 .37939454 .33999635 .37939454 .35798646 .37939454 .3639984 .36038209 .3639984 .34135438 .3639984 .3273468 .35899354 .307312 .35699464 .2993164L.2999878 .078063968C.29699708 .06704712 .29299928 .05102539 .29299928 .038009645 .29299928 .015182495 .3019867-.0078125 .33399964-.0078125 .38598634-.0078125 .43399049 .05618286 .46199037 .09020996L.46699525 .096206668Z"/>
<path id="font_4_50" d="M.3939972 0V.01499939C.31900025 .01499939 .29899598 .032989503 .29899598 .07597351V.67277529L.2899933 .67578127 .11099243 .5847931V.5708008L.13798523 .5807953C.1559906 .5877991 .17298889 .59280398 .18299866 .59280398 .20399475 .59280398 .21299744 .57780459 .21299744 .543808V.0949707C.21299744 .039978029 .19198609 .018997193 .117996219 .01499939V0H.3939972Z"/>
<path id="font_4_51" d="M.47399903 .13696289 .45999146 .1429596C.4269867 .08699036 .4059906 .07598877 .3639984 .07598877H.12998963L.29499818 .2519226C.38398744 .34588624 .4229889 .42085267 .4229889 .4998169 .4229889 .59877017 .35099793 .67578127 .23799134 .67578127 .114990238 .67578127 .050994874 .5937805 .02999878 .4768219L.050994874 .47183229C.09098816 .5697937 .12599182 .6017761 .19799805 .6017761 .2829895 .6017761 .33699037 .55178835 .33699037 .4608307 .33699037 .37586976 .30099488 .29989625 .20698548 .200943L.0289917 .011993408V0H.41999818L.47399903 .13696289Z"/>
<path id="font_4_52" d="M.06098938 .50987246C.101989749 .58380129 .147995 .61576846 .20999146 .61576846 .27598573 .61576846 .31799317 .58180239 .31799317 .51387026 .31799317 .45292665 .28599549 .40795899 .23699951 .37998963 .21699524 .36799623 .19099427 .3570099 .15299988 .34402467V.33003236C.20999146 .33003236 .23298645 .32704164 .25498963 .3200531 .32398988 .3000641 .35899354 .2511139 .35899354 .17518616 .35899354 .09025574 .30299378 .022323609 .22898865 .022323609 .20098877 .022323609 .17999268 .027313233 .14299011 .05329895 .114990238 .073272708 .09899902 .07926941 .08198547 .07926941 .05899048 .07926941 .040985109 .06428528 .040985109 .043304445 .040985109 .0073242189 .07998657-.013671875 .15299988-.013671875 .24198914-.013671875 .33699037 .015319824 .3849945 .07926941 .4139862 .11723328 .43099977 .16618347 .43099977 .21913147 .43099977 .27108766 .4149933 .31704713 .3869934 .34802247 .3659973 .36999513 .34799195 .38198854 .3039856 .40097047 .37098695 .44093324 .39698792 .4908905 .39698792 .5388489 .39698792 .6207733 .33399964 .67578127 .24099732 .67578127 .13699341 .67578127 .07398987 .6087799 .04499817 .51387026L.06098938 .50987246Z"/>
</defs>
<path transform="matrix(1,0,0,-1,32.809,163.58402)" stroke-width=".3985" stroke-linecap="butt" stroke-miterlimit="10" stroke-linejoin="miter" fill="none" stroke="#b0b0b0" d="M6.30887 0V161.39493M37.85179 0V161.39493M69.3971 0V161.39493M100.94162 0V161.39493M132.48612 0V161.39493"/>
<path transform="matrix(1,0,0,-1,32.809,163.58402)" stroke-width=".3985" stroke-linecap="butt" stroke-miterlimit="10" stroke-linejoin="miter" fill="none" stroke="#b0b0b0" d="M0 13.45146H194.27465M0 50.48347H194.27465M0 87.5155H194.27465M0 124.54752H194.27465"/>
<path transform="matrix(1,0,0,-1,32.809,163.58402)" stroke-width=".19925" stroke-linecap="butt" stroke-miterlimit="10" stroke-linejoin="miter" fill="none" stroke="#000000" d="M6.30887-4.25186V0M37.85179-4.25186V0M69.3971-4.25186V0M100.94162-4.25186V0M132.48612-4.25186V0"/>
<path transform="matrix(1,0,0,-1,32.809,163.58402)" stroke-width=".19925" stroke-linecap="butt" stroke-miterlimit="10" stroke-linejoin="miter" fill="none" stroke="#000000" d="M-4.25174 13.45146H0M-4.25174 50.48347H0M-4.25174 87.5155H0M-4.25174 124.54752H0"/>
<path transform="matrix(1,0,0,-1,32.809,163.58402)" stroke-width=".3985" stroke-linecap="butt" stroke-miterlimit="10" stroke-linejoin="miter" fill="none" stroke="#000000" d="M0 0V161.39493H194.27465V0H0Z"/>
<use data-text="0" xlink:href="#font_1_49" transform="matrix(9.96264,0,0,-9.96264,36.627,178.09001)"/>
<use data-text="0" xlink:href="#font_1_49" transform="matrix(9.96264,0,0,-9.96264,61.943,178.09001)"/>
<use data-text="." xlink:href="#font_1_47" transform="matrix(9.96264,0,0,-9.96264,66.924327,178.09001)"/>
<use data-text="3" xlink:href="#font_1_52" transform="matrix(9.96264,0,0,-9.96264,69.414989,178.09001)"/>
<use data-text="9" xlink:href="#font_1_58" transform="matrix(9.96264,0,0,-9.96264,74.39631,178.09001)"/>
<use data-text="0" xlink:href="#font_1_49" transform="matrix(9.96264,0,0,-9.96264,93.488,178.09001)"/>
<use data-text="." xlink:href="#font_1_47" transform="matrix(9.96264,0,0,-9.96264,98.46932,178.09001)"/>
<use data-text="7" xlink:href="#font_1_56" transform="matrix(9.96264,0,0,-9.96264,100.959987,178.09001)"/>
<use data-text="9" xlink:href="#font_1_58" transform="matrix(9.96264,0,0,-9.96264,105.94131,178.09001)"/>
<use data-text="1" xlink:href="#font_1_50" transform="matrix(9.96264,0,0,-9.96264,125.032,178.09001)"/>
<use data-text="." xlink:href="#font_1_47" transform="matrix(9.96264,0,0,-9.96264,130.01332,178.09001)"/>
<use data-text="1" xlink:href="#font_1_50" transform="matrix(9.96264,0,0,-9.96264,132.50399,178.09001)"/>
<use data-text="8" xlink:href="#font_1_57" transform="matrix(9.96264,0,0,-9.96264,137.4853,178.09001)"/>
<use data-text="1" xlink:href="#font_1_50" transform="matrix(9.96264,0,0,-9.96264,156.57599,178.21002)"/>
<use data-text="." xlink:href="#font_1_47" transform="matrix(9.96264,0,0,-9.96264,161.55731,178.21002)"/>
<use data-text="5" xlink:href="#font_1_54" transform="matrix(9.96264,0,0,-9.96264,164.04798,178.21002)"/>
<use data-text="7" xlink:href="#font_1_56" transform="matrix(9.96264,0,0,-9.96264,169.0293,178.21002)"/>
<use data-text="0" xlink:href="#font_1_49" transform="matrix(9.96264,0,0,-9.96264,20.055998,153.43001)"/>
<use data-text="0" xlink:href="#font_1_49" transform="matrix(9.96264,0,0,-9.96264,12.583998,116.459018)"/>
<use data-text="." xlink:href="#font_1_47" transform="matrix(9.96264,0,0,-9.96264,17.565318,116.459018)"/>
<use data-text="5" xlink:href="#font_1_54" transform="matrix(9.96264,0,0,-9.96264,20.055977,116.459018)"/>
<use data-text="1" xlink:href="#font_1_50" transform="matrix(9.96264,0,0,-9.96264,20.055998,79.43702)"/>
<use data-text="1" xlink:href="#font_1_50" transform="matrix(9.96264,0,0,-9.96264,12.583998,42.39601)"/>
<use data-text="." xlink:href="#font_1_47" transform="matrix(9.96264,0,0,-9.96264,17.565318,42.39601)"/>
<use data-text="5" xlink:href="#font_1_54" transform="matrix(9.96264,0,0,-9.96264,20.055977,42.39601)"/>
<g clip-path="url(#clip_2)">
<path transform="matrix(1,0,0,-1,32.809,163.58402)" stroke-width=".59776" stroke-linecap="butt" stroke-miterlimit="10" stroke-linejoin="miter" fill="none" stroke="#ff0000" d="M6.30885 145.53443 7.57062 145.45442 8.83238 145.3774 10.09416 145.30339 11.35593 145.2325 12.6177 145.1648 13.87947 145.10034 15.14125 145.03922 16.40302 144.98146 17.66478 144.92714 18.92656 144.87633 20.18832 144.82904 21.4501 144.78536 22.71187 144.7453 23.97363 144.70893 25.23541 144.67626 26.49718 144.64733 27.75896 144.62216 29.02072 144.6008 30.2825 144.58325 31.54427 144.56955 32.80603 144.55968 34.06781 144.55368 35.32957 144.55152 36.59135 144.55324 37.85312 144.55879 39.1149 144.56822 40.37666 144.5815 41.63843 144.59859 42.9002 144.61948 44.16197 144.64417 45.42375 144.6726 46.68552 144.70479 47.9473 144.74066 49.20906 144.78018 50.47083 144.82335 51.7326 144.87006 52.99437 144.9203 54.25615 144.97403 55.51791 145.03116 56.77968 145.09166 58.04144 145.15544 59.3032 145.22248 60.56499 145.29267 61.82675 145.36595 63.08853 145.44225 64.3503 145.52149 65.61206 145.60358 66.87384 145.68846 68.1356 145.77603 69.39738 145.8662 70.65915 145.95888 71.92093 146.05399 73.1827 146.1514 74.44446 146.25107 75.70624 146.35283 76.968 146.45665 78.22978 146.56237 79.49155 146.66989 80.75333 146.77915 82.01509 146.88997 83.27686 147.0023 84.53864 147.11602 85.8004 147.23099 87.06218 147.3471 88.32394 147.46428 89.58572 147.58235 90.84749 147.70125 92.10925 147.8208 93.37103 147.94095 94.6328 148.06153 95.89458 148.18247 97.15634 148.30359 98.4181 148.42484 99.67989 148.54605 100.94165 148.6671 102.20343 148.78792 103.4652 148.90834 104.72697 149.02829 105.98874 149.1476 107.2505 149.26619 108.51228 149.38396 109.77405 149.50074 111.03583 149.61646 112.29758 149.731 113.55936 149.84424 114.82112 149.95607 116.08289 150.06639 117.34467 150.1751 118.60643 150.28209 119.86821 150.38724 121.12997 150.49047 122.39175 150.59165 123.65352 150.69072 124.91528 150.78755 126.17706 150.88208 127.43883 150.97418 128.7006 151.06381 129.96237 151.15085 131.22414 151.23522 132.48592 151.31684"/>
<path transform="matrix(1,0,0,-1,32.809,163.58402)" stroke-width=".59776" stroke-linecap="butt" stroke-miterlimit="10" stroke-linejoin="miter" fill="none" stroke="#0000ff" d="M6.30885 147.45027 7.57062 147.5313 8.83238 147.61142 10.09416 147.69054 11.35593 147.7686 12.6177 147.8455 13.87947 147.92119 15.14125 147.99558 16.40302 148.06858 17.66478 148.14012 18.92656 148.21016 20.18832 148.2786 21.4501 148.34539 22.71187 148.41045 23.97363 148.47373 25.23541 148.53513 26.49718 148.59464 27.75896 148.65216 29.02072 148.70766 30.2825 148.76108 31.54427 148.81238 32.80603 148.86148 34.06781 148.90834 35.32957 148.95293 36.59135 148.99521 37.85312 149.03511 39.1149 149.07263 40.37666 149.1077 41.63843 149.1403 42.9002 149.17043 44.16197 149.19802 45.42375 149.22306 46.68552 149.24552 47.9473 149.26538 49.20906 149.28263 50.47083 149.29727 51.7326 149.30927 52.99437 149.3186 54.25615 149.32529 55.51791 149.32932 56.77968 149.33069 58.04144 149.32939 59.3032 149.32544 60.56499 149.31885 61.82675 149.3096 63.08853 149.29775 64.3503 149.28325 65.61206 149.26615 66.87384 149.24649 68.1356 149.22426 69.39738 149.1995 70.65915 149.17221 71.92093 149.14247 73.1827 149.11026 74.44446 149.07564 75.70624 149.03864 76.968 148.99929 78.22978 148.95764 79.49155 148.91373 80.75333 148.8676 82.01509 148.8193 83.27686 148.76888 84.53864 148.71639 85.8004 148.66187 87.06218 148.6054 88.32394 148.54701 89.58572 148.48676 90.84749 148.42473 92.10925 148.36096 93.37103 148.29552 94.6328 148.22849 95.89458 148.1599 97.15634 148.08986 98.4181 148.01839 99.67989 147.9456 100.94165 147.87154 102.20343 147.79628 103.4652 147.71991 104.72697 147.64249 105.98874 147.5641 107.2505 147.48482 108.51228 147.40471 109.77405 147.32386 111.03583 147.24234 112.29758 147.16025 113.55936 147.07764 114.82112 146.99462 116.08289 146.91123 117.34467 146.82758 118.60643 146.74375 119.86821 146.6598 121.12997 146.57582 122.39175 146.49192 123.65352 146.40813 124.91528 146.32457 126.17706 146.2413 127.43883 146.15842 128.7006 146.07598 129.96237 145.99408 131.22414 145.9128 132.48592 145.83219"/>
<path transform="matrix(1,0,0,-1,32.809,163.58402)" stroke-width=".59776" stroke-linecap="butt" stroke-miterlimit="10" stroke-linejoin="miter" fill="none" stroke="#008000" d="M6.30885 139.30255 7.57062 139.30023 8.83238 139.29329 10.09416 139.28174 11.35593 139.26557 12.6177 139.2448 13.87947 139.21947 15.14125 139.18958 16.40302 139.1552 17.66478 139.11632 18.92656 139.07302 20.18832 139.02532 21.4501 138.97325 22.71187 138.9169 23.97363 138.85633 25.23541 138.79157 26.49718 138.72272 27.75896 138.64981 29.02072 138.57294 30.2825 138.49219 31.54427 138.40764 32.80603 138.31937 34.06781 138.22748 35.32957 138.13204 36.59135 138.03319 37.85312 137.93099 39.1149 137.82553 40.37666 137.71697 41.63843 137.60538 42.9002 137.49089 44.16197 137.37363 45.42375 137.25366 46.68552 137.13117 47.9473 137.00626 49.20906 136.87903 50.47083 136.74964 51.7326 136.6182 52.99437 136.48485 54.25615 136.34972 55.51791 136.21294 56.77968 136.07466 58.04144 135.93502 59.3032 135.79415 60.56499 135.65219 61.82675 135.50928 63.08853 135.36556 64.3503 135.22118 65.61206 135.0763 66.87384 134.93102 68.1356 134.7855 69.39738 134.63993 70.65915 134.49439 71.92093 134.34905 73.1827 134.20404 74.44446 134.05954 75.70624 133.91567 76.968 133.77254 78.22978 133.63034 79.49155 133.48917 80.75333 133.34922 82.01509 133.21056 83.27686 133.07335 84.53864 132.93775 85.8004 132.80388 87.06218 132.67186 88.32394 132.54181 89.58572 132.41388 90.84749 132.28818 92.10925 132.16483 93.37103 132.04395 94.6328 131.92568 95.89458 131.8101 97.15634 131.69733 98.4181 131.5875 99.67989 131.48069 100.94165 131.37703 102.20343 131.27658 103.4652 131.17948 104.72697 131.0858 105.98874 130.99562 107.2505 130.90904 108.51228 130.82617 109.77405 130.74704 111.03583 130.67176 112.29758 130.60037 113.55936 130.53298 114.82112 130.46962 116.08289 130.41036 117.34467 130.35527 118.60643 130.30438 119.86821 130.25777 121.12997 130.21546 122.39175 130.17748 123.65352 130.14389 124.91528 130.11472 126.17706 130.08998 127.43883 130.06972 128.7006 130.05393 129.96237 130.04265 131.22414 130.03586 132.48592 130.03362"/>
<path transform="matrix(1,0,0,-1,32.809,163.58402)" stroke-width=".59776" stroke-linecap="butt" stroke-miterlimit="10" stroke-linejoin="miter" fill="none" stroke="#000000" d="M6.30885 9.68864 7.57062 9.61446 8.83238 9.54242 10.09416 9.47263 11.35593 9.40509 12.6177 9.33992 13.87947 9.27716 15.14125 9.2169 16.40302 9.15918 17.66478 9.10406 18.92656 9.0516 20.18832 9.00185 21.4501 8.95485 22.71187 8.91066 23.97363 8.86931 25.23541 8.83087 26.49718 8.79533 27.75896 8.76277 29.02072 8.73322 30.2825 8.70665 31.54427 8.68315 32.80603 8.66273 34.06781 8.64539 35.32957 8.63116 36.59135 8.62004 37.85312 8.61206 39.1149 8.60721 40.37666 8.6055 41.63843 8.60693 42.9002 8.61148 44.16197 8.6192 45.42375 8.63 46.68552 8.64392 47.9473 8.66095 49.20906 8.68103 50.47083 8.7042 51.7326 8.73036 52.99437 8.75954 54.25615 8.79169 55.51791 8.82677 56.77968 8.86475 58.04144 8.9056 59.3032 8.94926 60.56499 8.99568 61.82675 9.04485 63.08853 9.0967 64.3503 9.15114 65.61206 9.20816 66.87384 9.26772 68.1356 9.3297 69.39738 9.39406 70.65915 9.46074 71.92093 9.52971 73.1827 9.60083 74.44446 9.67407 75.70624 9.74936 76.968 9.82661 78.22978 9.90573 79.49155 9.9867 80.75333 10.06937 82.01509 10.15369 83.27686 10.23958 84.53864 10.32693 85.8004 10.4157 87.06218 10.50575 88.32394 10.597 89.58572 10.6894 90.84749 10.78284 92.10925 10.87721 93.37103 10.97243 94.6328 11.0684 95.89458 11.16504 97.15634 11.26224 98.4181 11.35992 99.67989 11.45798 100.94165 11.5563 102.20343 11.65483 103.4652 11.75345 104.72697 11.85205 105.98874 11.95056 107.2505 12.04886 108.51228 12.14687 109.77405 12.24449 111.03583 12.34163 112.29758 12.43819 113.55936 12.53409 114.82112 12.6292 116.08289 12.72346 117.34467 12.8168 118.60643 12.90909 119.86821 13.00024 121.12997 13.0902 122.39175 13.17883 123.65352 13.26608 124.91528 13.35187 126.17706 13.43611 127.43883 13.5187 128.7006 13.59958 129.96237 13.67865 131.22414 13.75587 132.48592 13.83113"/>
<path transform="matrix(1,0,0,-1,32.809,163.58402)" stroke-width=".59776" stroke-linecap="butt" stroke-miterlimit="10" stroke-linejoin="miter" fill="none" stroke="#bf00bf" d="M6.30885 15.62401 7.57062 15.49313 8.83238 15.36119 10.09416 15.22835 11.35593 15.09468 12.6177 14.96037 13.87947 14.82552 15.14125 14.69028 16.40302 14.55478 17.66478 14.41916 18.92656 14.28355 20.18832 14.1481 21.4501 14.01295 22.71187 13.87822 23.97363 13.74403 25.23541 13.61057 26.49718 13.47792 27.75896 13.34622 29.02072 13.21564 30.2825 13.08626 31.54427 12.95824 32.80603 12.8317 34.06781 12.70676 35.32957 12.58357 36.59135 12.46222 37.85312 12.34286 39.1149 12.22557 40.37666 12.1105 41.63843 11.99777 42.9002 11.88747 44.16197 11.77971 45.42375 11.67459 46.68552 11.57224 47.9473 11.47275 49.20906 11.37619 50.47083 11.28268 51.7326 11.19232 52.99437 11.1052 54.25615 11.02136 55.51791 10.94093 56.77968 10.86397 58.04144 10.79056 59.3032 10.72075 60.56499 10.65463 61.82675 10.59227 63.08853 10.5337 64.3503 10.479 65.61206 10.42822 66.87384 10.3814 68.1356 10.33856 69.39738 10.2998 70.65915 10.26509 71.92093 10.23453 73.1827 10.20808 74.44446 10.1858 75.70624 10.16771 76.968 10.15382 78.22978 10.14413 79.49155 10.13866 80.75333 10.13744 82.01509 10.1404 83.27686 10.14758 84.53864 10.15897 85.8004 10.17456 87.06218 10.1943 88.32394 10.21822 89.58572 10.24625 90.84749 10.27837 92.10925 10.31456 93.37103 10.35477 94.6328 10.39899 95.89458 10.44711 97.15634 10.49915 98.4181 10.55501 99.67989 10.61467 100.94165 10.67802 102.20343 10.74507 103.4652 10.81569 104.72697 10.88982 105.98874 10.9674 107.2505 11.04839 108.51228 11.13263 109.77405 11.22011 111.03583 11.31067 112.29758 11.4043 113.55936 11.50087 114.82112 11.60027 116.08289 11.70242 117.34467 11.80725 118.60643 11.9146 119.86821 12.02441 121.12997 12.13654 122.39175 12.2509 123.65352 12.3674 124.91528 12.48589 126.17706 12.60626 127.43883 12.72841 128.7006 12.8522 129.96237 12.97754 131.22414 13.1043 132.48592 13.23233"/>
<path transform="matrix(1,0,0,-1,32.809,163.58402)" stroke-width=".59776" stroke-linecap="butt" stroke-miterlimit="10" stroke-linejoin="miter" fill="none" stroke="#00bfbf" d="M6.30885 11.79233 7.57062 11.84097 8.83238 11.89275 10.09416 11.94765 11.35593 12.0056 12.6177 12.06654 13.87947 12.13043 15.14125 12.19717 16.40302 12.26672 17.66478 12.339 18.92656 12.41394 20.18832 12.49146 21.4501 12.57147 22.71187 12.6539 23.97363 12.7387 25.23541 12.82571 26.49718 12.91489 27.75896 13.00616 29.02072 13.0994 30.2825 13.19452 31.54427 13.29143 32.80603 13.39003 34.06781 13.49023 35.32957 13.5919 36.59135 13.69496 37.85312 13.79932 39.1149 13.90483 40.37666 14.01143 41.63843 14.11899 42.9002 14.22739 44.16197 14.33653 45.42375 14.44633 46.68552 14.55664 47.9473 14.66737 49.20906 14.77841 50.47083 14.88965 51.7326 15.00096 52.99437 15.11224 54.25615 15.22339 55.51791 15.33429 56.77968 15.44482 58.04144 15.55489 59.3032 15.66437 60.56499 15.77316 61.82675 15.88118 63.08853 15.98828 64.3503 16.09439 65.61206 16.19937 66.87384 16.30316 68.1356 16.40562 69.39738 16.50667 70.65915 16.60619 71.92093 16.7041 73.1827 16.80034 74.44446 16.89476 75.70624 16.98727 76.968 17.07782 78.22978 17.16629 79.49155 17.25262 80.75333 17.33672 82.01509 17.41849 83.27686 17.49785 84.53864 17.57474 85.8004 17.6491 87.06218 17.72083 88.32394 17.78989 89.58572 17.85617 90.84749 17.91966 92.10925 17.98027 93.37103 18.03796 94.6328 18.09264 95.89458 18.1443 97.15634 18.19287 98.4181 18.23831 99.67989 18.28056 100.94165 18.31961 102.20343 18.35541 103.4652 18.38792 104.72697 18.41713 105.98874 18.443 107.2505 18.46548 108.51228 18.48459 109.77405 18.5003 111.03583 18.5126 112.29758 18.52147 113.55936 18.5269 114.82112 18.52892 116.08289 18.52747 117.34467 18.5226 118.60643 18.51428 119.86821 18.50256 121.12997 18.48743 122.39175 18.46889 123.65352 18.44699 124.91528 18.42174 126.17706 18.39314 127.43883 18.36125 128.7006 18.3261 129.96237 18.2877 131.22414 18.24611 132.48592 18.20135"/>
<path transform="matrix(1,0,0,-1,32.809,163.58402)" stroke-width=".59776" stroke-linecap="butt" stroke-dasharray=".59776,1.99255" stroke-miterlimit="10" stroke-linejoin="miter" fill="none" stroke="#ff0000" d="M6.30885 145.34185 7.57062 145.3441 8.83238 145.35092 10.09416 145.36229 11.35593 145.37818 12.6177 145.39858 13.87947 145.42345 15.14125 145.45278 16.40302 145.48653 17.66478 145.52468 18.92656 145.56714 20.18832 145.6139 21.4501 145.6649 22.71187 145.72008 23.97363 145.77938 25.23541 145.84272 26.49718 145.91002 27.75896 145.98125 29.02072 146.05628 30.2825 146.13504 31.54427 146.21746 32.80603 146.3034 34.06781 146.39282 35.32957 146.4856 36.59135 146.58164 37.85312 146.6808 39.1149 146.78302 40.37666 146.88814 41.63843 146.99608 42.9002 147.1067 44.16197 147.21991 45.42375 147.33556 46.68552 147.45352 47.9473 147.57369 49.20906 147.6959 50.47083 147.82009 51.7326 147.94605 52.99437 148.07369 54.25615 148.20287 55.51791 148.33344 56.77968 148.46529 58.04144 148.59825 59.3032 148.73221 60.56499 148.86702 61.82675 149.00255 63.08853 149.13866 64.3503 149.27519 65.61206 149.41205 66.87384 149.54906 68.1356 149.68611 69.39738 149.82305 70.65915 149.95975 71.92093 150.09606 73.1827 150.23188 74.44446 150.36705 75.70624 150.50144 76.968 150.63494 78.22978 150.76741 79.49155 150.89875 80.75333 151.02878 82.01509 151.15741 83.27686 151.28455 84.53864 151.41002 85.8004 151.53377 87.06218 151.65563 88.32394 151.77553 89.58572 151.89333 90.84749 152.00893 92.10925 152.12223 93.37103 152.23314 94.6328 152.34154 95.89458 152.44734 97.15634 152.55046 98.4181 152.6508 99.67989 152.74828 100.94165 152.84278 102.20343 152.93425 103.4652 153.02262 104.72697 153.10779 105.98874 153.1897 107.2505 153.26825 108.51228 153.34343 109.77405 153.41512 111.03583 153.48329 112.29758 153.54788 113.55936 153.60883 114.82112 153.66608 116.08289 153.7196 117.34467 153.76934 118.60643 153.81523 119.86821 153.85729 121.12997 153.89543 122.39175 153.92964 123.65352 153.9599 124.91528 153.98616 126.17706 154.00844 127.43883 154.02669 128.7006 154.04088 129.96237 154.05104 131.22414 154.05713 132.48592 154.05918"/>
<path transform="matrix(1,0,0,-1,32.809,163.58402)" stroke-width=".59776" stroke-linecap="butt" stroke-dasharray=".59776,1.99255" stroke-miterlimit="10" stroke-linejoin="miter" fill="none" stroke="#0000ff" d="M6.30885 144.5765 7.57062 144.5735 8.83238 144.56446 10.09416 144.54941 11.35593 144.52835 12.6177 144.50131 13.87947 144.46834 15.14125 144.42948 16.40302 144.38474 17.66478 144.33417 18.92656 144.27787 20.18832 144.21587 21.4501 144.14826 22.71187 144.07508 23.97363 143.99643 25.23541 143.91243 26.49718 143.82314 27.75896 143.72864 29.02072 143.62908 30.2825 143.52454 31.54427 143.41513 32.80603 143.30101 34.06781 143.18228 35.32957 143.05908 36.59135 142.93152 37.85312 142.79975 39.1149 142.66393 40.37666 142.52419 41.63843 142.38068 42.9002 142.23357 44.16197 142.08301 45.42375 141.92914 46.68552 141.77216 47.9473 141.61222 49.20906 141.44948 50.47083 141.28412 51.7326 141.11632 52.99437 140.94625 54.25615 140.77408 55.51791 140.6 56.77968 140.4242 58.04144 140.24681 59.3032 140.06809 60.56499 139.88816 61.82675 139.70722 63.08853 139.52545 64.3503 139.34305 65.61206 139.1602 66.87384 138.97705 68.1356 138.79383 69.39738 138.61069 70.65915 138.42783 71.92093 138.24542 73.1827 138.06362 74.44446 137.88263 75.70624 137.70262 76.968 137.52376 78.22978 137.34624 79.49155 137.1702 80.75333 136.99584 82.01509 136.82328 83.27686 136.65273 84.53864 136.48432 85.8004 136.31822 87.06218 136.15457 88.32394 135.99355 89.58572 135.83528 90.84749 135.67993 92.10925 135.52764 93.37103 135.37853 94.6328 135.23273 95.89458 135.09041 97.15634 134.95166 98.4181 134.81662 99.67989 134.68543 100.94165 134.55818 102.20343 134.435 103.4652 134.31598 104.72697 134.20125 105.98874 134.09088 107.2505 133.985 108.51228 133.88368 109.77405 133.78702 111.03583 133.6951 112.29758 133.608 113.55936 133.52579 114.82112 133.44857 116.08289 133.37638 117.34467 133.30927 118.60643 133.24733 119.86821 133.19058 121.12997 133.1391 122.39175 133.09291 123.65352 133.05207 124.91528 133.0166 126.17706 132.98654 127.43883 132.96192 128.7006 132.94272 129.96237 132.92902 131.22414 132.92079 132.48592 132.91803"/>
<path transform="matrix(1,0,0,-1,32.809,163.58402)" stroke-width=".59776" stroke-linecap="butt" stroke-dasharray=".59776,1.99255" stroke-miterlimit="10" stroke-linejoin="miter" fill="none" stroke="#008000" d="M6.30885 142.36891 7.57062 142.36837 8.83238 142.36672 10.09416 142.36397 11.35593 142.36014 12.6177 142.35521 13.87947 142.3492 15.14125 142.34212 16.40302 142.33397 17.66478 142.32474 18.92656 142.31449 20.18832 142.30318 21.4501 142.29085 22.71187 142.2775 23.97363 142.26316 25.23541 142.2478 26.49718 142.2315 27.75896 142.21425 29.02072 142.19606 30.2825 142.17696 31.54427 142.15697 32.80603 142.1361 34.06781 142.11437 35.32957 142.09183 36.59135 142.06847 37.85312 142.04433 39.1149 142.01944 40.37666 141.99384 41.63843 141.96752 42.9002 141.94054 44.16197 141.91289 45.42375 141.88463 46.68552 141.85579 47.9473 141.8264 49.20906 141.79647 50.47083 141.76602 51.7326 141.73514 52.99437 141.70381 54.25615 141.67208 55.51791 141.63997 56.77968 141.60755 58.04144 141.5748 59.3032 141.54178 60.56499 141.50852 61.82675 141.47507 63.08853 141.44144 64.3503 141.40766 65.61206 141.37378 66.87384 141.33985 68.1356 141.30587 69.39738 141.27187 70.65915 141.23793 71.92093 141.20403 73.1827 141.17023 74.44446 141.13657 75.70624 141.10308 76.968 141.06977 78.22978 141.03668 79.49155 141.00386 80.75333 140.97133 82.01509 140.93914 83.27686 140.90729 84.53864 140.87581 85.8004 140.84476 87.06218 140.81415 88.32394 140.78403 89.58572 140.75438 90.84749 140.72528 92.10925 140.69673 93.37103 140.66878 94.6328 140.64144 95.89458 140.6147 97.15634 140.58867 98.4181 140.5633 99.67989 140.53864 100.94165 140.51471 102.20343 140.49153 103.4652 140.46913 104.72697 140.44754 105.98874 140.42676 107.2505 140.4068 108.51228 140.38771 109.77405 140.36949 111.03583 140.35218 112.29758 140.33574 113.55936 140.32022 114.82112 140.30565 116.08289 140.29203 117.34467 140.27935 118.60643 140.26766 119.86821 140.25695 121.12997 140.24721 122.39175 140.23848 123.65352 140.23076 124.91528 140.22406 126.17706 140.21837 127.43883 140.21372 128.7006 140.21009 129.96237 140.2075 131.22414 140.20595 132.48592 140.20543"/>
<path transform="matrix(1,0,0,-1,32.809,163.58402)" stroke-width=".59776" stroke-linecap="butt" stroke-dasharray=".59776,1.99255" stroke-miterlimit="10" stroke-linejoin="miter" fill="none" stroke="#000000" d="M6.30885 13.4515 7.57062 13.36168 8.83238 13.27188 10.09416 13.18214 11.35593 13.0925 12.6177 13.00298 13.87947 12.91359 15.14125 12.82437 16.40302 12.73535 17.66478 12.64658 18.92656 12.55804 20.18832 12.4698 21.4501 12.3819 22.71187 12.29431 23.97363 12.2071 25.23541 12.12029 26.49718 12.0339 27.75896 11.94795 29.02072 11.86249 30.2825 11.77753 31.54427 11.6931 32.80603 11.6092 34.06781 11.52591 35.32957 11.44319 36.59135 11.3611 37.85312 11.27966 39.1149 11.19888 40.37666 11.11879 41.63843 11.03943 42.9002 10.96078 44.16197 10.8829 45.42375 10.8058 46.68552 10.72948 47.9473 10.65398 49.20906 10.57932 50.47083 10.50548 51.7326 10.43251 52.99437 10.36044 54.25615 10.28929 55.51791 10.21902 56.77968 10.1497 58.04144 10.08131 59.3032 10.0139 60.56499 9.94746 61.82675 9.882 63.08853 9.81755 64.3503 9.75412 65.61206 9.6917 66.87384 9.63031 68.1356 9.56998 69.39738 9.5107 70.65915 9.45248 71.92093 9.39534 73.1827 9.3393 74.44446 9.28435 75.70624 9.2305 76.968 9.17775 78.22978 9.12611 79.49155 9.07562 80.75333 9.02625 82.01509 8.97801 83.27686 8.93091 84.53864 8.88495 85.8004 8.84015 87.06218 8.79651 88.32394 8.75404 89.58572 8.71272 90.84749 8.67256 92.10925 8.6336 93.37103 8.59581 94.6328 8.55919 95.89458 8.52376 97.15634 8.4895 98.4181 8.45644 99.67989 8.42456 100.94165 8.39389 102.20343 8.3644 103.4652 8.3361 104.72697 8.309 105.98874 8.2831 107.2505 8.25839 108.51228 8.2349 109.77405 8.2126 111.03583 8.1915 112.29758 8.1716 113.55936 8.15291 114.82112 8.13542 116.08289 8.11913 117.34467 8.10405 118.60643 8.09016 119.86821 8.0775 121.12997 8.06604 122.39175 8.05579 123.65352 8.04674 124.91528 8.0389 126.17706 8.03224 127.43883 8.02682 128.7006 8.0226 129.96237 8.01956 131.22414 8.01776 132.48592 8.01717"/>
<path transform="matrix(1,0,0,-1,32.809,163.58402)" stroke-width=".59776" stroke-linecap="butt" stroke-dasharray=".59776,1.99255" stroke-miterlimit="10" stroke-linejoin="miter" fill="none" stroke="#bf00bf" d="M6.30885 7.33615 7.57062 7.33699 8.83238 7.33948 10.09416 7.34364 11.35593 7.34947 12.6177 7.35695 13.87947 7.36607 15.14125 7.37688 16.40302 7.38931 17.66478 7.40337 18.92656 7.41908 20.18832 7.43642 21.4501 7.45538 22.71187 7.47594 23.97363 7.4981 25.23541 7.52185 26.49718 7.54718 27.75896 7.5741 29.02072 7.60255 30.2825 7.63254 31.54427 7.66408 32.80603 7.69713 34.06781 7.73167 35.32957 7.76772 36.59135 7.80522 37.85312 7.8442 39.1149 7.88458 40.37666 7.92642 41.63843 7.96967 42.9002 8.01428 44.16197 8.06026 45.42375 8.10759 46.68552 8.15627 47.9473 8.20624 49.20906 8.2575 50.47083 8.31004 51.7326 8.36385 52.99437 8.41888 54.25615 8.47511 55.51791 8.53253 56.77968 8.59113 58.04144 8.65088 59.3032 8.71173 60.56499 8.77371 61.82675 8.83676 63.08853 8.90088 64.3503 8.96603 65.61206 9.0322 66.87384 9.09937 68.1356 9.16751 69.39738 9.2366 70.65915 9.30663 71.92093 9.37756 73.1827 9.44937 74.44446 9.52205 75.70624 9.59557 76.968 9.6699 78.22978 9.74506 79.49155 9.82098 80.75333 9.89764 82.01509 9.97507 83.27686 10.05319 84.53864 10.13202 85.8004 10.21152 87.06218 10.29166 88.32394 10.37244 89.58572 10.45383 90.84749 10.53581 92.10925 10.61836 93.37103 10.70148 94.6328 10.7851 95.89458 10.86925 97.15634 10.9539 98.4181 11.03902 99.67989 11.12459 100.94165 11.2106 102.20343 11.29703 103.4652 11.38385 104.72697 11.47105 105.98874 11.55864 107.2505 11.64656 108.51228 11.73482 109.77405 11.82336 111.03583 11.91222 112.29758 12.00134 113.55936 12.09074 114.82112 12.18037 116.08289 12.27023 117.34467 12.3603 118.60643 12.45056 119.86821 12.541 121.12997 12.6316 122.39175 12.72235 123.65352 12.8132 124.91528 12.90419 126.17706 12.99527 127.43883 13.08641 128.7006 13.17763 129.96237 13.2689 131.22414 13.36018 132.48592 13.4515"/>
<path transform="matrix(1,0,0,-1,32.809,163.58402)" stroke-width=".59776" stroke-linecap="butt" stroke-dasharray=".59776,1.99255" stroke-miterlimit="10" stroke-linejoin="miter" fill="none" stroke="#00bfbf" d="M6.30885 13.4515 7.57062 13.28624 8.83238 13.12114 10.09416 12.9564 11.35593 12.79219 12.6177 12.62868 13.87947 12.46603 15.14125 12.30444 16.40302 12.14406 17.66478 11.98508 18.92656 11.82765 20.18832 11.67194 21.4501 11.51811 22.71187 11.36633 23.97363 11.21674 25.23541 11.06952 26.49718 10.92482 27.75896 10.78278 29.02072 10.64354 30.2825 10.50725 31.54427 10.37405 32.80603 10.2441 34.06781 10.11748 35.32957 9.99435 36.59135 9.87483 37.85312 9.75903 39.1149 9.6471 40.37666 9.53908 41.63843 9.43513 42.9002 9.33534 44.16197 9.2398 45.42375 9.1486 46.68552 9.06183 47.9473 8.97955 49.20906 8.90187 50.47083 8.82884 51.7326 8.76053 52.99437 8.697 54.25615 8.63829 55.51791 8.58446 56.77968 8.53555 58.04144 8.49161 59.3032 8.45264 60.56499 8.41872 61.82675 8.38983 63.08853 8.36601 64.3503 8.34724 65.61206 8.33357 66.87384 8.32498 68.1356 8.32146 69.39738 8.32301 70.65915 8.3296 71.92093 8.34126 73.1827 8.35793 74.44446 8.37956 75.70624 8.40616 76.968 8.43767 78.22978 8.47404 79.49155 8.51526 80.75333 8.56123 82.01509 8.61192 83.27686 8.6673 84.53864 8.72725 85.8004 8.79173 87.06218 8.86067 88.32394 8.93399 89.58572 9.01161 90.84749 9.09346 92.10925 9.17943 93.37103 9.26944 94.6328 9.36342 95.89458 9.46123 97.15634 9.5628 98.4181 9.66805 99.67989 9.77681 100.94165 9.88904 102.20343 10.00456 103.4652 10.1233 104.72697 10.24516 105.98874 10.37001 107.2505 10.49768 108.51228 10.62813 109.77405 10.76117 111.03583 10.8967 112.29758 11.03459 113.55936 11.17471 114.82112 11.31693 116.08289 11.4611 117.34467 11.60712 118.60643 11.75482 119.86821 11.90407 121.12997 12.05475 122.39175 12.20671 123.65352 12.3598 124.91528 12.5139 126.17706 12.66885 127.43883 12.82452 128.7006 12.98076 129.96237 13.13744 131.22414 13.2944 132.48592 13.4515"/>
<path transform="matrix(1,0,0,-1,32.809,163.58402)" stroke-width=".3985" stroke-linecap="butt" stroke-miterlimit="10" stroke-linejoin="miter" fill="none" stroke="#000000" d="M0 13.4515H138.79477"/>
</g>
<path transform="matrix(1,0,0,-1,32.809,163.58402)" d="M8.3014 145.53443C8.3014 146.6349 7.40933 147.52698 6.30885 147.52698 5.20839 147.52698 4.3163 146.6349 4.3163 145.53443 4.3163 144.43396 5.20839 143.54187 6.30885 143.54187 7.40933 143.54187 8.3014 144.43396 8.3014 145.53443ZM6.30885 145.53443" fill="#ff0000"/>
<path transform="matrix(1,0,0,-1,32.809,163.58402)" stroke-width=".59776" stroke-linecap="butt" stroke-miterlimit="10" stroke-linejoin="miter" fill="none" stroke="#ff0000" d="M8.3014 145.53443C8.3014 146.6349 7.40933 147.52698 6.30885 147.52698 5.20839 147.52698 4.3163 146.6349 4.3163 145.53443 4.3163 144.43396 5.20839 143.54187 6.30885 143.54187 7.40933 143.54187 8.3014 144.43396 8.3014 145.53443ZM6.30885 145.53443"/>
<path transform="matrix(1,0,0,-1,32.809,163.58402)" d="M39.84567 144.55879C39.84567 145.65927 38.95358 146.55135 37.85312 146.55135 36.75264 146.55135 35.86057 145.65927 35.86057 144.55879 35.86057 143.45833 36.75264 142.56624 37.85312 142.56624 38.95358 142.56624 39.84567 143.45833 39.84567 144.55879ZM37.85312 144.55879" fill="#ff0000"/>
<path transform="matrix(1,0,0,-1,32.809,163.58402)" stroke-width=".59776" stroke-linecap="butt" stroke-miterlimit="10" stroke-linejoin="miter" fill="none" stroke="#ff0000" d="M39.84567 144.55879C39.84567 145.65927 38.95358 146.55135 37.85312 146.55135 36.75264 146.55135 35.86057 145.65927 35.86057 144.55879 35.86057 143.45833 36.75264 142.56624 37.85312 142.56624 38.95358 142.56624 39.84567 143.45833 39.84567 144.55879ZM37.85312 144.55879"/>
<path transform="matrix(1,0,0,-1,32.809,163.58402)" d="M71.38994 145.8662C71.38994 146.96668 70.49786 147.85875 69.39738 147.85875 68.29692 147.85875 67.40483 146.96668 67.40483 145.8662 67.40483 144.76573 68.29692 143.87364 69.39738 143.87364 70.49786 143.87364 71.38994 144.76573 71.38994 145.8662ZM69.39738 145.8662" fill="#ff0000"/>
<path transform="matrix(1,0,0,-1,32.809,163.58402)" stroke-width=".59776" stroke-linecap="butt" stroke-miterlimit="10" stroke-linejoin="miter" fill="none" stroke="#ff0000" d="M71.38994 145.8662C71.38994 146.96668 70.49786 147.85875 69.39738 147.85875 68.29692 147.85875 67.40483 146.96668 67.40483 145.8662 67.40483 144.76573 68.29692 143.87364 69.39738 143.87364 70.49786 143.87364 71.38994 144.76573 71.38994 145.8662ZM69.39738 145.8662"/>
<path transform="matrix(1,0,0,-1,32.809,163.58402)" d="M102.9342 148.6671C102.9342 149.76758 102.04211 150.65966 100.94165 150.65966 99.84117 150.65966 98.9491 149.76758 98.9491 148.6671 98.9491 147.56664 99.84117 146.67455 100.94165 146.67455 102.04211 146.67455 102.9342 147.56664 102.9342 148.6671ZM100.94165 148.6671" fill="#ff0000"/>
<path transform="matrix(1,0,0,-1,32.809,163.58402)" stroke-width=".59776" stroke-linecap="butt" stroke-miterlimit="10" stroke-linejoin="miter" fill="none" stroke="#ff0000" d="M102.9342 148.6671C102.9342 149.76758 102.04211 150.65966 100.94165 150.65966 99.84117 150.65966 98.9491 149.76758 98.9491 148.6671 98.9491 147.56664 99.84117 146.67455 100.94165 146.67455 102.04211 146.67455 102.9342 147.56664 102.9342 148.6671ZM100.94165 148.6671"/>
<path transform="matrix(1,0,0,-1,32.809,163.58402)" d="M134.47847 151.31684C134.47847 152.41732 133.5864 153.30939 132.48592 153.30939 131.38545 153.30939 130.49337 152.41732 130.49337 151.31684 130.49337 150.21637 131.38545 149.32428 132.48592 149.32428 133.5864 149.32428 134.47847 150.21637 134.47847 151.31684ZM132.48592 151.31684" fill="#ff0000"/>
<path transform="matrix(1,0,0,-1,32.809,163.58402)" stroke-width=".59776" stroke-linecap="butt" stroke-miterlimit="10" stroke-linejoin="miter" fill="none" stroke="#ff0000" d="M134.47847 151.31684C134.47847 152.41732 133.5864 153.30939 132.48592 153.30939 131.38545 153.30939 130.49337 152.41732 130.49337 151.31684 130.49337 150.21637 131.38545 149.32428 132.48592 149.32428 133.5864 149.32428 134.47847 150.21637 134.47847 151.31684ZM132.48592 151.31684"/>
<path transform="matrix(1,0,0,-1,32.809,163.58402)" stroke-width=".59776" stroke-linecap="butt" stroke-miterlimit="10" stroke-linejoin="miter" fill="none" stroke="#ff0000" d=""/>
<path transform="matrix(1,0,0,-1,32.809,163.58402)" stroke-width=".59776" stroke-linecap="butt" stroke-miterlimit="10" stroke-linejoin="miter" fill="none" stroke="#0000ff" d="M4.8999 146.04132 7.7178 148.85923M4.8999 148.85923 7.7178 146.04132"/>
<path transform="matrix(1,0,0,-1,32.809,163.58402)" stroke-width=".59776" stroke-linecap="butt" stroke-miterlimit="10" stroke-linejoin="miter" fill="none" stroke="#0000ff" d="M36.44417 147.62616 39.26207 150.44406M36.44417 150.44406 39.26207 147.62616"/>
<path transform="matrix(1,0,0,-1,32.809,163.58402)" stroke-width=".59776" stroke-linecap="butt" stroke-miterlimit="10" stroke-linejoin="miter" fill="none" stroke="#0000ff" d="M67.98843 147.79055 70.80634 150.60845M67.98843 150.60845 70.80634 147.79055"/>
<path transform="matrix(1,0,0,-1,32.809,163.58402)" stroke-width=".59776" stroke-linecap="butt" stroke-miterlimit="10" stroke-linejoin="miter" fill="none" stroke="#0000ff" d="M99.5327 146.46259 102.3506 149.28049M99.5327 149.28049 102.3506 146.46259"/>
<path transform="matrix(1,0,0,-1,32.809,163.58402)" stroke-width=".59776" stroke-linecap="butt" stroke-miterlimit="10" stroke-linejoin="miter" fill="none" stroke="#0000ff" d="M131.07697 144.42325 133.89487 147.24114M131.07697 147.24114 133.89487 144.42325"/>
<path transform="matrix(1,0,0,-1,32.809,163.58402)" stroke-width=".59776" stroke-linecap="butt" stroke-miterlimit="10" stroke-linejoin="miter" fill="none" stroke="#0000ff" d=""/>
<path transform="matrix(1,0,0,-1,32.809,163.58402)" d="M6.30885 141.2951 8.03447 138.30628H4.58325Z" fill="#008000"/>
<path transform="matrix(1,0,0,-1,32.809,163.58402)" stroke-width=".59776" stroke-linecap="butt" stroke-miterlimit="10" stroke-linejoin="miter" fill="none" stroke="#008000" d="M6.30885 141.2951 8.03447 138.30628H4.58325Z"/>
<path transform="matrix(1,0,0,-1,32.809,163.58402)" d="M37.85312 139.92354 39.57872 136.93471H36.1275Z" fill="#008000"/>
<path transform="matrix(1,0,0,-1,32.809,163.58402)" stroke-width=".59776" stroke-linecap="butt" stroke-miterlimit="10" stroke-linejoin="miter" fill="none" stroke="#008000" d="M37.85312 139.92354 39.57872 136.93471H36.1275Z"/>
<path transform="matrix(1,0,0,-1,32.809,163.58402)" d="M69.39738 136.63248 71.123 133.64365H67.67178Z" fill="#008000"/>
<path transform="matrix(1,0,0,-1,32.809,163.58402)" stroke-width=".59776" stroke-linecap="butt" stroke-miterlimit="10" stroke-linejoin="miter" fill="none" stroke="#008000" d="M69.39738 136.63248 71.123 133.64365H67.67178Z"/>
<path transform="matrix(1,0,0,-1,32.809,163.58402)" d="M100.94165 133.36959 102.66725 130.38076H99.21603Z" fill="#008000"/>
<path transform="matrix(1,0,0,-1,32.809,163.58402)" stroke-width=".59776" stroke-linecap="butt" stroke-miterlimit="10" stroke-linejoin="miter" fill="none" stroke="#008000" d="M100.94165 133.36959 102.66725 130.38076H99.21603Z"/>
<path transform="matrix(1,0,0,-1,32.809,163.58402)" d="M132.48592 132.02617 134.21154 129.03734H130.76032Z" fill="#008000"/>
<path transform="matrix(1,0,0,-1,32.809,163.58402)" stroke-width=".59776" stroke-linecap="butt" stroke-miterlimit="10" stroke-linejoin="miter" fill="none" stroke="#008000" d="M132.48592 132.02617 134.21154 129.03734H130.76032Z"/>
<path transform="matrix(1,0,0,-1,32.809,163.58402)" stroke-width=".59776" stroke-linecap="butt" stroke-miterlimit="10" stroke-linejoin="miter" fill="none" stroke="#008000" d=""/>
<path transform="matrix(1,0,0,-1,32.809,163.58402)" d="M6.30885 7.69609 4.58325 10.68492H8.03447Z"/>
<path transform="matrix(1,0,0,-1,32.809,163.58402)" stroke-width=".59776" stroke-linecap="butt" stroke-miterlimit="10" stroke-linejoin="miter" fill="none" stroke="#000000" d="M6.30885 7.69609 4.58325 10.68492H8.03447Z"/>
<path transform="matrix(1,0,0,-1,32.809,163.58402)" d="M37.85312 6.6195 36.1275 9.60834H39.57872Z"/>
<path transform="matrix(1,0,0,-1,32.809,163.58402)" stroke-width=".59776" stroke-linecap="butt" stroke-miterlimit="10" stroke-linejoin="miter" fill="none" stroke="#000000" d="M37.85312 6.6195 36.1275 9.60834H39.57872Z"/>
<path transform="matrix(1,0,0,-1,32.809,163.58402)" d="M69.39738 7.4015 67.67178 10.39034H71.123Z"/>
<path transform="matrix(1,0,0,-1,32.809,163.58402)" stroke-width=".59776" stroke-linecap="butt" stroke-miterlimit="10" stroke-linejoin="miter" fill="none" stroke="#000000" d="M69.39738 7.4015 67.67178 10.39034H71.123Z"/>
<path transform="matrix(1,0,0,-1,32.809,163.58402)" d="M100.94165 9.56375 99.21603 12.55258H102.66725Z"/>
<path transform="matrix(1,0,0,-1,32.809,163.58402)" stroke-width=".59776" stroke-linecap="butt" stroke-miterlimit="10" stroke-linejoin="miter" fill="none" stroke="#000000" d="M100.94165 9.56375 99.21603 12.55258H102.66725Z"/>
<path transform="matrix(1,0,0,-1,32.809,163.58402)" d="M132.48592 11.83858 130.76032 14.82741H134.21154Z"/>
<path transform="matrix(1,0,0,-1,32.809,163.58402)" stroke-width=".59776" stroke-linecap="butt" stroke-miterlimit="10" stroke-linejoin="miter" fill="none" stroke="#000000" d="M132.48592 11.83858 130.76032 14.82741H134.21154Z"/>
<path transform="matrix(1,0,0,-1,32.809,163.58402)" stroke-width=".59776" stroke-linecap="butt" stroke-miterlimit="10" stroke-linejoin="miter" fill="none" stroke="#000000" d=""/>
<path transform="matrix(1,0,0,-1,32.809,163.58402)" d="M6.30885 17.61656 7.80327 15.62401 6.30885 13.63145 4.81444 15.62401Z" fill="#bf00bf"/>
<path transform="matrix(1,0,0,-1,32.809,163.58402)" stroke-width=".59776" stroke-linecap="butt" stroke-miterlimit="10" stroke-linejoin="miter" fill="none" stroke="#bf00bf" d="M6.30885 17.61656 7.80327 15.62401 6.30885 13.63145 4.81444 15.62401Z"/>
<path transform="matrix(1,0,0,-1,32.809,163.58402)" d="M37.85312 14.33542 39.34753 12.34286 37.85312 10.35031 36.3587 12.34286Z" fill="#bf00bf"/>
<path transform="matrix(1,0,0,-1,32.809,163.58402)" stroke-width=".59776" stroke-linecap="butt" stroke-miterlimit="10" stroke-linejoin="miter" fill="none" stroke="#bf00bf" d="M37.85312 14.33542 39.34753 12.34286 37.85312 10.35031 36.3587 12.34286Z"/>
<path transform="matrix(1,0,0,-1,32.809,163.58402)" d="M69.39738 12.29236 70.8918 10.2998 69.39738 8.30725 67.90297 10.2998Z" fill="#bf00bf"/>
<path transform="matrix(1,0,0,-1,32.809,163.58402)" stroke-width=".59776" stroke-linecap="butt" stroke-miterlimit="10" stroke-linejoin="miter" fill="none" stroke="#bf00bf" d="M69.39738 12.29236 70.8918 10.2998 69.39738 8.30725 67.90297 10.2998Z"/>
<path transform="matrix(1,0,0,-1,32.809,163.58402)" d="M100.94165 12.67058 102.43607 10.67802 100.94165 8.68547 99.44724 10.67802Z" fill="#bf00bf"/>
<path transform="matrix(1,0,0,-1,32.809,163.58402)" stroke-width=".59776" stroke-linecap="butt" stroke-miterlimit="10" stroke-linejoin="miter" fill="none" stroke="#bf00bf" d="M100.94165 12.67058 102.43607 10.67802 100.94165 8.68547 99.44724 10.67802Z"/>
<path transform="matrix(1,0,0,-1,32.809,163.58402)" d="M132.48592 15.22488 133.98033 13.23233 132.48592 11.23978 130.9915 13.23233Z" fill="#bf00bf"/>
<path transform="matrix(1,0,0,-1,32.809,163.58402)" stroke-width=".59776" stroke-linecap="butt" stroke-miterlimit="10" stroke-linejoin="miter" fill="none" stroke="#bf00bf" d="M132.48592 15.22488 133.98033 13.23233 132.48592 11.23978 130.9915 13.23233Z"/>
<path transform="matrix(1,0,0,-1,32.809,163.58402)" stroke-width=".59776" stroke-linecap="butt" stroke-miterlimit="10" stroke-linejoin="miter" fill="none" stroke="#bf00bf" d=""/>
<path transform="matrix(1,0,0,-1,32.809,163.58402)" d="M6.30885 13.78488 8.2039 12.40808 7.48006 10.18031H5.13766L4.41382 12.40808Z" fill="#00bfbf"/>
<path transform="matrix(1,0,0,-1,32.809,163.58402)" stroke-width=".59776" stroke-linecap="butt" stroke-miterlimit="10" stroke-linejoin="miter" fill="none" stroke="#00bfbf" d="M6.30885 13.78488 8.2039 12.40808 7.48006 10.18031H5.13766L4.41382 12.40808Z"/>
<path transform="matrix(1,0,0,-1,32.809,163.58402)" d="M37.85312 15.79187 39.74817 14.41505 39.0243 12.1873H36.68193L35.95807 14.41505Z" fill="#00bfbf"/>
<path transform="matrix(1,0,0,-1,32.809,163.58402)" stroke-width=".59776" stroke-linecap="butt" stroke-miterlimit="10" stroke-linejoin="miter" fill="none" stroke="#00bfbf" d="M37.85312 15.79187 39.74817 14.41505 39.0243 12.1873H36.68193L35.95807 14.41505Z"/>
<path transform="matrix(1,0,0,-1,32.809,163.58402)" d="M69.39738 18.49922 71.29243 17.1224 70.56857 14.89465H68.2262L67.50233 17.1224Z" fill="#00bfbf"/>
<path transform="matrix(1,0,0,-1,32.809,163.58402)" stroke-width=".59776" stroke-linecap="butt" stroke-miterlimit="10" stroke-linejoin="miter" fill="none" stroke="#00bfbf" d="M69.39738 18.49922 71.29243 17.1224 70.56857 14.89465H68.2262L67.50233 17.1224Z"/>
<path transform="matrix(1,0,0,-1,32.809,163.58402)" d="M100.94165 20.31216 102.8367 18.93535 102.11284 16.7076H99.77046L99.0466 18.93535Z" fill="#00bfbf"/>
<path transform="matrix(1,0,0,-1,32.809,163.58402)" stroke-width=".59776" stroke-linecap="butt" stroke-miterlimit="10" stroke-linejoin="miter" fill="none" stroke="#00bfbf" d="M100.94165 20.31216 102.8367 18.93535 102.11284 16.7076H99.77046L99.0466 18.93535Z"/>
<path transform="matrix(1,0,0,-1,32.809,163.58402)" d="M132.48592 20.19391 134.38097 18.8171 133.6571 16.58934H131.31473L130.59087 18.8171Z" fill="#00bfbf"/>
<path transform="matrix(1,0,0,-1,32.809,163.58402)" stroke-width=".59776" stroke-linecap="butt" stroke-miterlimit="10" stroke-linejoin="miter" fill="none" stroke="#00bfbf" d="M132.48592 20.19391 134.38097 18.8171 133.6571 16.58934H131.31473L130.59087 18.8171Z"/>
<path transform="matrix(1,0,0,-1,32.809,163.58402)" stroke-width=".59776" stroke-linecap="butt" stroke-miterlimit="10" stroke-linejoin="miter" fill="none" stroke="#00bfbf" d=""/>
<path transform="matrix(1,0,0,-1,32.809,163.58402)" d="M8.3014 145.34185C8.3014 146.4423 7.40933 147.3344 6.30885 147.3344 5.20839 147.3344 4.3163 146.4423 4.3163 145.34185 4.3163 144.24137 5.20839 143.34929 6.30885 143.34929 7.40933 143.34929 8.3014 144.24137 8.3014 145.34185ZM6.30885 145.34185" fill="#ff0000"/>
<path transform="matrix(1,0,0,-1,32.809,163.58402)" stroke-width=".59776" stroke-linecap="butt" stroke-miterlimit="10" stroke-linejoin="miter" fill="none" stroke="#ff0000" d="M8.3014 145.34185C8.3014 146.4423 7.40933 147.3344 6.30885 147.3344 5.20839 147.3344 4.3163 146.4423 4.3163 145.34185 4.3163 144.24137 5.20839 143.34929 6.30885 143.34929 7.40933 143.34929 8.3014 144.24137 8.3014 145.34185ZM6.30885 145.34185"/>
<path transform="matrix(1,0,0,-1,32.809,163.58402)" d="M39.84567 146.6808C39.84567 147.78127 38.95358 148.67336 37.85312 148.67336 36.75264 148.67336 35.86057 147.78127 35.86057 146.6808 35.86057 145.58032 36.75264 144.68825 37.85312 144.68825 38.95358 144.68825 39.84567 145.58032 39.84567 146.6808ZM37.85312 146.6808" fill="#ff0000"/>
<path transform="matrix(1,0,0,-1,32.809,163.58402)" stroke-width=".59776" stroke-linecap="butt" stroke-miterlimit="10" stroke-linejoin="miter" fill="none" stroke="#ff0000" d="M39.84567 146.6808C39.84567 147.78127 38.95358 148.67336 37.85312 148.67336 36.75264 148.67336 35.86057 147.78127 35.86057 146.6808 35.86057 145.58032 36.75264 144.68825 37.85312 144.68825 38.95358 144.68825 39.84567 145.58032 39.84567 146.6808ZM37.85312 146.6808"/>
<path transform="matrix(1,0,0,-1,32.809,163.58402)" d="M71.38994 149.82305C71.38994 150.92353 70.49786 151.8156 69.39738 151.8156 68.29692 151.8156 67.40483 150.92353 67.40483 149.82305 67.40483 148.72258 68.29692 147.83049 69.39738 147.83049 70.49786 147.83049 71.38994 148.72258 71.38994 149.82305ZM69.39738 149.82305" fill="#ff0000"/>
<path transform="matrix(1,0,0,-1,32.809,163.58402)" stroke-width=".59776" stroke-linecap="butt" stroke-miterlimit="10" stroke-linejoin="miter" fill="none" stroke="#ff0000" d="M71.38994 149.82305C71.38994 150.92353 70.49786 151.8156 69.39738 151.8156 68.29692 151.8156 67.40483 150.92353 67.40483 149.82305 67.40483 148.72258 68.29692 147.83049 69.39738 147.83049 70.49786 147.83049 71.38994 148.72258 71.38994 149.82305ZM69.39738 149.82305"/>
<path transform="matrix(1,0,0,-1,32.809,163.58402)" d="M102.9342 152.84278C102.9342 153.94326 102.04211 154.83533 100.94165 154.83533 99.84117 154.83533 98.9491 153.94326 98.9491 152.84278 98.9491 151.74231 99.84117 150.85022 100.94165 150.85022 102.04211 150.85022 102.9342 151.74231 102.9342 152.84278ZM100.94165 152.84278" fill="#ff0000"/>
<path transform="matrix(1,0,0,-1,32.809,163.58402)" stroke-width=".59776" stroke-linecap="butt" stroke-miterlimit="10" stroke-linejoin="miter" fill="none" stroke="#ff0000" d="M102.9342 152.84278C102.9342 153.94326 102.04211 154.83533 100.94165 154.83533 99.84117 154.83533 98.9491 153.94326 98.9491 152.84278 98.9491 151.74231 99.84117 150.85022 100.94165 150.85022 102.04211 150.85022 102.9342 151.74231 102.9342 152.84278ZM100.94165 152.84278"/>
<path transform="matrix(1,0,0,-1,32.809,163.58402)" d="M134.47847 154.05918C134.47847 155.15964 133.5864 156.05173 132.48592 156.05173 131.38545 156.05173 130.49337 155.15964 130.49337 154.05918 130.49337 152.9587 131.38545 152.06662 132.48592 152.06662 133.5864 152.06662 134.47847 152.9587 134.47847 154.05918ZM132.48592 154.05918" fill="#ff0000"/>
<path transform="matrix(1,0,0,-1,32.809,163.58402)" stroke-width=".59776" stroke-linecap="butt" stroke-miterlimit="10" stroke-linejoin="miter" fill="none" stroke="#ff0000" d="M134.47847 154.05918C134.47847 155.15964 133.5864 156.05173 132.48592 156.05173 131.38545 156.05173 130.49337 155.15964 130.49337 154.05918 130.49337 152.9587 131.38545 152.06662 132.48592 152.06662 133.5864 152.06662 134.47847 152.9587 134.47847 154.05918ZM132.48592 154.05918"/>
<path transform="matrix(1,0,0,-1,32.809,163.58402)" stroke-width=".59776" stroke-linecap="butt" stroke-miterlimit="10" stroke-linejoin="miter" fill="none" stroke="#ff0000" d=""/>
<path transform="matrix(1,0,0,-1,32.809,163.58402)" stroke-width=".59776" stroke-linecap="butt" stroke-miterlimit="10" stroke-linejoin="miter" fill="none" stroke="#0000ff" d="M4.8999 143.16756 7.7178 145.98546M4.8999 145.98546 7.7178 143.16756"/>
<path transform="matrix(1,0,0,-1,32.809,163.58402)" stroke-width=".59776" stroke-linecap="butt" stroke-miterlimit="10" stroke-linejoin="miter" fill="none" stroke="#0000ff" d="M36.44417 141.3908 39.26207 144.2087M36.44417 144.2087 39.26207 141.3908"/>
<path transform="matrix(1,0,0,-1,32.809,163.58402)" stroke-width=".59776" stroke-linecap="butt" stroke-miterlimit="10" stroke-linejoin="miter" fill="none" stroke="#0000ff" d="M67.98843 137.20174 70.80634 140.01964M67.98843 140.01964 70.80634 137.20174"/>
<path transform="matrix(1,0,0,-1,32.809,163.58402)" stroke-width=".59776" stroke-linecap="butt" stroke-miterlimit="10" stroke-linejoin="miter" fill="none" stroke="#0000ff" d="M99.5327 133.14923 102.3506 135.96714M99.5327 135.96714 102.3506 133.14923"/>
<path transform="matrix(1,0,0,-1,32.809,163.58402)" stroke-width=".59776" stroke-linecap="butt" stroke-miterlimit="10" stroke-linejoin="miter" fill="none" stroke="#0000ff" d="M131.07697 131.50908 133.89487 134.32698M131.07697 134.32698 133.89487 131.50908"/>
<path transform="matrix(1,0,0,-1,32.809,163.58402)" stroke-width=".59776" stroke-linecap="butt" stroke-miterlimit="10" stroke-linejoin="miter" fill="none" stroke="#0000ff" d=""/>
<path transform="matrix(1,0,0,-1,32.809,163.58402)" d="M6.30885 144.36147 8.03447 141.37264H4.58325Z" fill="#008000"/>
<path transform="matrix(1,0,0,-1,32.809,163.58402)" stroke-width=".59776" stroke-linecap="butt" stroke-miterlimit="10" stroke-linejoin="miter" fill="none" stroke="#008000" d="M6.30885 144.36147 8.03447 141.37264H4.58325Z"/>
<path transform="matrix(1,0,0,-1,32.809,163.58402)" d="M37.85312 144.03688 39.57872 141.04805H36.1275Z" fill="#008000"/>
<path transform="matrix(1,0,0,-1,32.809,163.58402)" stroke-width=".59776" stroke-linecap="butt" stroke-miterlimit="10" stroke-linejoin="miter" fill="none" stroke="#008000" d="M37.85312 144.03688 39.57872 141.04805H36.1275Z"/>
<path transform="matrix(1,0,0,-1,32.809,163.58402)" d="M69.39738 143.26442 71.123 140.27559H67.67178Z" fill="#008000"/>
<path transform="matrix(1,0,0,-1,32.809,163.58402)" stroke-width=".59776" stroke-linecap="butt" stroke-miterlimit="10" stroke-linejoin="miter" fill="none" stroke="#008000" d="M69.39738 143.26442 71.123 140.27559H67.67178Z"/>
<path transform="matrix(1,0,0,-1,32.809,163.58402)" d="M100.94165 142.50727 102.66725 139.51844H99.21603Z" fill="#008000"/>
<path transform="matrix(1,0,0,-1,32.809,163.58402)" stroke-width=".59776" stroke-linecap="butt" stroke-miterlimit="10" stroke-linejoin="miter" fill="none" stroke="#008000" d="M100.94165 142.50727 102.66725 139.51844H99.21603Z"/>
<path transform="matrix(1,0,0,-1,32.809,163.58402)" d="M132.48592 142.19799 134.21154 139.20915H130.76032Z" fill="#008000"/>
<path transform="matrix(1,0,0,-1,32.809,163.58402)" stroke-width=".59776" stroke-linecap="butt" stroke-miterlimit="10" stroke-linejoin="miter" fill="none" stroke="#008000" d="M132.48592 142.19799 134.21154 139.20915H130.76032Z"/>
<path transform="matrix(1,0,0,-1,32.809,163.58402)" stroke-width=".59776" stroke-linecap="butt" stroke-miterlimit="10" stroke-linejoin="miter" fill="none" stroke="#008000" d=""/>
<path transform="matrix(1,0,0,-1,32.809,163.58402)" d="M6.30885 11.45895 4.58325 14.44778H8.03447Z"/>
<path transform="matrix(1,0,0,-1,32.809,163.58402)" stroke-width=".59776" stroke-linecap="butt" stroke-miterlimit="10" stroke-linejoin="miter" fill="none" stroke="#000000" d="M6.30885 11.45895 4.58325 14.44778H8.03447Z"/>
<path transform="matrix(1,0,0,-1,32.809,163.58402)" d="M37.85312 9.28711 36.1275 12.27594H39.57872Z"/>
<path transform="matrix(1,0,0,-1,32.809,163.58402)" stroke-width=".59776" stroke-linecap="butt" stroke-miterlimit="10" stroke-linejoin="miter" fill="none" stroke="#000000" d="M37.85312 9.28711 36.1275 12.27594H39.57872Z"/>
<path transform="matrix(1,0,0,-1,32.809,163.58402)" d="M69.39738 7.51814 67.67178 10.50697H71.123Z"/>
<path transform="matrix(1,0,0,-1,32.809,163.58402)" stroke-width=".59776" stroke-linecap="butt" stroke-miterlimit="10" stroke-linejoin="miter" fill="none" stroke="#000000" d="M69.39738 7.51814 67.67178 10.50697H71.123Z"/>
<path transform="matrix(1,0,0,-1,32.809,163.58402)" d="M100.94165 6.40134 99.21603 9.39017H102.66725Z"/>
<path transform="matrix(1,0,0,-1,32.809,163.58402)" stroke-width=".59776" stroke-linecap="butt" stroke-miterlimit="10" stroke-linejoin="miter" fill="none" stroke="#000000" d="M100.94165 6.40134 99.21603 9.39017H102.66725Z"/>
<path transform="matrix(1,0,0,-1,32.809,163.58402)" d="M132.48592 6.02461 130.76032 9.01344H134.21154Z"/>
<path transform="matrix(1,0,0,-1,32.809,163.58402)" stroke-width=".59776" stroke-linecap="butt" stroke-miterlimit="10" stroke-linejoin="miter" fill="none" stroke="#000000" d="M132.48592 6.02461 130.76032 9.01344H134.21154Z"/>
<path transform="matrix(1,0,0,-1,32.809,163.58402)" stroke-width=".59776" stroke-linecap="butt" stroke-miterlimit="10" stroke-linejoin="miter" fill="none" stroke="#000000" d=""/>
<path transform="matrix(1,0,0,-1,32.809,163.58402)" d="M6.30885 9.3287 7.80327 7.33615 6.30885 5.3436 4.81444 7.33615Z" fill="#bf00bf"/>
<path transform="matrix(1,0,0,-1,32.809,163.58402)" stroke-width=".59776" stroke-linecap="butt" stroke-miterlimit="10" stroke-linejoin="miter" fill="none" stroke="#bf00bf" d="M6.30885 9.3287 7.80327 7.33615 6.30885 5.3436 4.81444 7.33615Z"/>
<path transform="matrix(1,0,0,-1,32.809,163.58402)" d="M37.85312 9.83675 39.34753 7.8442 37.85312 5.85164 36.3587 7.8442Z" fill="#bf00bf"/>
<path transform="matrix(1,0,0,-1,32.809,163.58402)" stroke-width=".59776" stroke-linecap="butt" stroke-miterlimit="10" stroke-linejoin="miter" fill="none" stroke="#bf00bf" d="M37.85312 9.83675 39.34753 7.8442 37.85312 5.85164 36.3587 7.8442Z"/>
<path transform="matrix(1,0,0,-1,32.809,163.58402)" d="M69.39738 11.22916 70.8918 9.2366 69.39738 7.24405 67.90297 9.2366Z" fill="#bf00bf"/>
<path transform="matrix(1,0,0,-1,32.809,163.58402)" stroke-width=".59776" stroke-linecap="butt" stroke-miterlimit="10" stroke-linejoin="miter" fill="none" stroke="#bf00bf" d="M69.39738 11.22916 70.8918 9.2366 69.39738 7.24405 67.90297 9.2366Z"/>
<path transform="matrix(1,0,0,-1,32.809,163.58402)" d="M100.94165 13.20316 102.43607 11.2106 100.94165 9.21805 99.44724 11.2106Z" fill="#bf00bf"/>
<path transform="matrix(1,0,0,-1,32.809,163.58402)" stroke-width=".59776" stroke-linecap="butt" stroke-miterlimit="10" stroke-linejoin="miter" fill="none" stroke="#bf00bf" d="M100.94165 13.20316 102.43607 11.2106 100.94165 9.21805 99.44724 11.2106Z"/>
<path transform="matrix(1,0,0,-1,32.809,163.58402)" d="M132.48592 15.44406 133.98033 13.4515 132.48592 11.45895 130.9915 13.4515Z" fill="#bf00bf"/>
<path transform="matrix(1,0,0,-1,32.809,163.58402)" stroke-width=".59776" stroke-linecap="butt" stroke-miterlimit="10" stroke-linejoin="miter" fill="none" stroke="#bf00bf" d="M132.48592 15.44406 133.98033 13.4515 132.48592 11.45895 130.9915 13.4515Z"/>
<path transform="matrix(1,0,0,-1,32.809,163.58402)" stroke-width=".59776" stroke-linecap="butt" stroke-miterlimit="10" stroke-linejoin="miter" fill="none" stroke="#bf00bf" d=""/>
<path transform="matrix(1,0,0,-1,32.809,163.58402)" d="M6.30885 15.44406 8.2039 14.06725 7.48006 11.8395H5.13766L4.41382 14.06725Z" fill="#00bfbf"/>
<path transform="matrix(1,0,0,-1,32.809,163.58402)" stroke-width=".59776" stroke-linecap="butt" stroke-miterlimit="10" stroke-linejoin="miter" fill="none" stroke="#00bfbf" d="M6.30885 15.44406 8.2039 14.06725 7.48006 11.8395H5.13766L4.41382 14.06725Z"/>
<path transform="matrix(1,0,0,-1,32.809,163.58402)" d="M37.85312 11.75159 39.74817 10.37479 39.0243 8.14702H36.68193L35.95807 10.37479Z" fill="#00bfbf"/>
<path transform="matrix(1,0,0,-1,32.809,163.58402)" stroke-width=".59776" stroke-linecap="butt" stroke-miterlimit="10" stroke-linejoin="miter" fill="none" stroke="#00bfbf" d="M37.85312 11.75159 39.74817 10.37479 39.0243 8.14702H36.68193L35.95807 10.37479Z"/>
<path transform="matrix(1,0,0,-1,32.809,163.58402)" d="M69.39738 10.31557 71.29243 8.93875 70.56857 6.711H68.2262L67.50233 8.93875Z" fill="#00bfbf"/>
<path transform="matrix(1,0,0,-1,32.809,163.58402)" stroke-width=".59776" stroke-linecap="butt" stroke-miterlimit="10" stroke-linejoin="miter" fill="none" stroke="#00bfbf" d="M69.39738 10.31557 71.29243 8.93875 70.56857 6.711H68.2262L67.50233 8.93875Z"/>
<path transform="matrix(1,0,0,-1,32.809,163.58402)" d="M100.94165 11.88159 102.8367 10.50478 102.11284 8.27701H99.77046L99.0466 10.50478Z" fill="#00bfbf"/>
<path transform="matrix(1,0,0,-1,32.809,163.58402)" stroke-width=".59776" stroke-linecap="butt" stroke-miterlimit="10" stroke-linejoin="miter" fill="none" stroke="#00bfbf" d="M100.94165 11.88159 102.8367 10.50478 102.11284 8.27701H99.77046L99.0466 10.50478Z"/>
<path transform="matrix(1,0,0,-1,32.809,163.58402)" d="M132.48592 15.44406 134.38097 14.06725 133.6571 11.8395H131.31473L130.59087 14.06725Z" fill="#00bfbf"/>
<path transform="matrix(1,0,0,-1,32.809,163.58402)" stroke-width=".59776" stroke-linecap="butt" stroke-miterlimit="10" stroke-linejoin="miter" fill="none" stroke="#00bfbf" d="M132.48592 15.44406 134.38097 14.06725 133.6571 11.8395H131.31473L130.59087 14.06725Z"/>
<path transform="matrix(1,0,0,-1,32.809,163.58402)" stroke-width=".59776" stroke-linecap="butt" stroke-miterlimit="10" stroke-linejoin="miter" fill="none" stroke="#00bfbf" d=""/>
<use data-text="&#x1d719;" xlink:href="#font_1_3191" transform="matrix(9.96264,0,0,-9.96264,126.731998,191.84502)"/>
<use data-text="&#x1d438;" xlink:href="#font_1_2480" transform="matrix(0,-9.96264,-9.96264,-0,11.819,98.432018)"/>
<use data-text="&#x00d7;" xlink:href="#font_1_183" transform="matrix(0,-9.96264,-9.96264,-0,11.819,88.509227)"/>
<use data-text="&#x1d435;" xlink:href="#font_1_2477" transform="matrix(0,-9.96264,-9.96264,-0,11.819,79.921428)"/>
<use data-text="&#x1d456;" xlink:href="#font_3_2509" transform="matrix(0,-7.47198,-7.47198,-0,14.309006,72.98302)"/>
<use data-text="&#x1d457;" xlink:href="#font_3_2510" transform="matrix(0,-7.47198,-7.47198,-0,14.309006,70.659229)"/>
<path transform="matrix(1,0,0,-1,32.809,163.58402)" d="M148.46524 31.96777H188.24738V156.354H148.46524Z" fill="#ffffff" fill-opacity=".8"/>
<path transform="matrix(1,0,0,-1,32.809,163.58402)" stroke-width=".3985" stroke-linecap="butt" stroke-miterlimit="10" stroke-linejoin="miter" fill="none" stroke="#cccccc" d="M148.46524 31.96777H188.24738V156.354H148.46524Z"/>
<path transform="matrix(1,0,0,-1,184.55998,14.24102)" stroke-width=".59776" stroke-linecap="butt" stroke-miterlimit="10" stroke-linejoin="miter" fill="none" stroke="#ff0000" d="M0 0H8.50412 17.00826"/>
<path transform="matrix(1,0,0,-1,184.55998,14.24102)" d="M10.49667 0C10.49667 1.10046 9.60458 1.99255 8.50412 1.99255 7.40364 1.99255 6.51157 1.10046 6.51157 0 6.51157-1.10046 7.40364-1.99255 8.50412-1.99255 9.60458-1.99255 10.49667-1.10046 10.49667 0ZM8.50412 0" fill="#ff0000" fill-opacity=".8"/>
<path transform="matrix(1,0,0,-1,184.55998,14.24102)" stroke-width=".59776" stroke-linecap="butt" stroke-miterlimit="10" stroke-linejoin="miter" fill="none" stroke="#ff0000" d="M10.49667 0C10.49667 1.10046 9.60458 1.99255 8.50412 1.99255 7.40364 1.99255 6.51157 1.10046 6.51157 0 6.51157-1.10046 7.40364-1.99255 8.50412-1.99255 9.60458-1.99255 10.49667-1.10046 10.49667 0ZM8.50412 0"/>
<use data-text="&#x1d435;" xlink:href="#font_3_2477" transform="matrix(6.97385,0,0,-6.97385,203.85999,15.771027)"/>
<use data-text="&#x2113;" xlink:href="#font_4_974" transform="matrix(4.98132,0,0,-4.98132,208.71298,17.51503)"/>
<use data-text="&#x2113;" xlink:href="#font_4_974" transform="matrix(4.98132,0,0,-4.98132,211.59717,17.51503)"/>
<path transform="matrix(1,0,0,-1,184.55998,24.27502)" stroke-width=".59776" stroke-linecap="butt" stroke-miterlimit="10" stroke-linejoin="miter" fill="none" stroke="#0000ff" d="M0 0H8.50412 17.00826"/>
<path transform="matrix(1,0,0,-1,184.55998,24.27502)" stroke-width=".59776" stroke-linecap="butt" stroke-miterlimit="10" stroke-linejoin="miter" fill="none" stroke="#0000ff" d="M7.09517-1.40894 9.91307 1.40894M7.09517 1.40894 9.91307-1.40894"/>
<use data-text="&#x1d435;" xlink:href="#font_3_2477" transform="matrix(6.97385,0,0,-6.97385,203.85999,25.804017)"/>
<use data-text="&#x1d45a;" xlink:href="#font_4_2513" transform="matrix(4.98132,0,0,-4.98132,208.71298,27.54802)"/>
<use data-text="&#x1d45a;" xlink:href="#font_4_2513" transform="matrix(4.98132,0,0,-4.98132,212.24973,27.54802)"/>
<path transform="matrix(1,0,0,-1,184.55998,34.30802)" stroke-width=".59776" stroke-linecap="butt" stroke-miterlimit="10" stroke-linejoin="miter" fill="none" stroke="#008000" d="M0 0H8.50412 17.00826"/>
<path transform="matrix(1,0,0,-1,184.55998,34.30802)" d="M8.50412 1.99255 10.22972-.99628H6.7785Z" fill="#008000" fill-opacity=".8"/>
<path transform="matrix(1,0,0,-1,184.55998,34.30802)" stroke-width=".59776" stroke-linecap="butt" stroke-miterlimit="10" stroke-linejoin="miter" fill="none" stroke="#008000" d="M8.50412 1.99255 10.22972-.99628H6.7785Z"/>
<use data-text="&#x1d435;" xlink:href="#font_3_2477" transform="matrix(6.97385,0,0,-6.97385,203.85999,35.838014)"/>
<use data-text="&#x1d45b;" xlink:href="#font_4_2514" transform="matrix(4.98132,0,0,-4.98132,208.71298,37.581026)"/>
<use data-text="&#x1d45b;" xlink:href="#font_4_2514" transform="matrix(4.98132,0,0,-4.98132,211.1887,37.581026)"/>
<path transform="matrix(1,0,0,-1,184.55998,44.341024)" stroke-width=".59776" stroke-linecap="butt" stroke-miterlimit="10" stroke-linejoin="miter" fill="none" stroke="#000000" d="M0 0H8.50412 17.00826"/>
<path transform="matrix(1,0,0,-1,184.55998,44.341024)" d="M8.50412-1.99255 6.7785 .99628H10.22972Z" fill-opacity=".8"/>
<path transform="matrix(1,0,0,-1,184.55998,44.341024)" stroke-width=".59776" stroke-linecap="butt" stroke-miterlimit="10" stroke-linejoin="miter" fill="none" stroke="#000000" d="M8.50412-1.99255 6.7785 .99628H10.22972Z"/>
<use data-text="&#x1d435;" xlink:href="#font_3_2477" transform="matrix(6.97385,0,0,-6.97385,203.85999,45.871019)"/>
<use data-text="&#x1d45a;" xlink:href="#font_4_2513" transform="matrix(4.98132,0,0,-4.98132,208.71298,47.614015)"/>
<use data-text="&#x1d45b;" xlink:href="#font_4_2514" transform="matrix(4.98132,0,0,-4.98132,212.24973,47.614015)"/>
<path transform="matrix(1,0,0,-1,184.55998,54.374025)" stroke-width=".59776" stroke-linecap="butt" stroke-miterlimit="10" stroke-linejoin="miter" fill="none" stroke="#bf00bf" d="M0 0H8.50412 17.00826"/>
<path transform="matrix(1,0,0,-1,184.55998,54.374025)" d="M8.50412 1.99255 9.99854 0 8.50412-1.99255 7.0097 0Z" fill="#bf00bf" fill-opacity=".8"/>
<path transform="matrix(1,0,0,-1,184.55998,54.374025)" stroke-width=".59776" stroke-linecap="butt" stroke-miterlimit="10" stroke-linejoin="miter" fill="none" stroke="#bf00bf" d="M8.50412 1.99255 9.99854 0 8.50412-1.99255 7.0097 0Z"/>
<use data-text="&#x1d435;" xlink:href="#font_3_2477" transform="matrix(6.97385,0,0,-6.97385,203.85999,55.904024)"/>
<use data-text="&#x1d45b;" xlink:href="#font_4_2514" transform="matrix(4.98132,0,0,-4.98132,208.71298,57.648027)"/>
<use data-text="&#x2113;" xlink:href="#font_4_974" transform="matrix(4.98132,0,0,-4.98132,211.1887,57.648027)"/>
<path transform="matrix(1,0,0,-1,184.55998,64.40802)" stroke-width=".59776" stroke-linecap="butt" stroke-miterlimit="10" stroke-linejoin="miter" fill="none" stroke="#00bfbf" d="M0 0H8.50412 17.00826"/>
<path transform="matrix(1,0,0,-1,184.55998,64.40802)" d="M8.50412 1.99255 10.39917 .61574 9.67531-1.61201H7.33293L6.60907 .61574Z" fill="#00bfbf" fill-opacity=".8"/>
<path transform="matrix(1,0,0,-1,184.55998,64.40802)" stroke-width=".59776" stroke-linecap="butt" stroke-miterlimit="10" stroke-linejoin="miter" fill="none" stroke="#00bfbf" d="M8.50412 1.99255 10.39917 .61574 9.67531-1.61201H7.33293L6.60907 .61574Z"/>
<use data-text="&#x1d435;" xlink:href="#font_3_2477" transform="matrix(6.97385,0,0,-6.97385,203.85999,65.93802)"/>
<use data-text="&#x2113;" xlink:href="#font_4_974" transform="matrix(4.98132,0,0,-4.98132,208.71298,67.681018)"/>
<use data-text="&#x1d45a;" xlink:href="#font_4_2513" transform="matrix(4.98132,0,0,-4.98132,211.59717,67.681018)"/>
<path transform="matrix(1,0,0,-1,184.55998,74.44102)" stroke-width=".59776" stroke-linecap="butt" stroke-dasharray=".59776,1.99255" stroke-miterlimit="10" stroke-linejoin="miter" fill="none" stroke="#ff0000" d="M0 0H8.50412 17.00826"/>
<path transform="matrix(1,0,0,-1,184.55998,74.44102)" d="M10.49667 0C10.49667 1.10046 9.60458 1.99255 8.50412 1.99255 7.40364 1.99255 6.51157 1.10046 6.51157 0 6.51157-1.10046 7.40364-1.99255 8.50412-1.99255 9.60458-1.99255 10.49667-1.10046 10.49667 0ZM8.50412 0" fill="#ff0000" fill-opacity=".8"/>
<path transform="matrix(1,0,0,-1,184.55998,74.44102)" stroke-width=".59776" stroke-linecap="butt" stroke-miterlimit="10" stroke-linejoin="miter" fill="none" stroke="#ff0000" d="M10.49667 0C10.49667 1.10046 9.60458 1.99255 8.50412 1.99255 7.40364 1.99255 6.51157 1.10046 6.51157 0 6.51157-1.10046 7.40364-1.99255 8.50412-1.99255 9.60458-1.99255 10.49667-1.10046 10.49667 0ZM8.50412 0"/>
<use data-text="&#x1d435;" xlink:href="#font_3_2477" transform="matrix(6.97385,0,0,-6.97385,203.85999,75.971019)"/>
<use data-text="1" xlink:href="#font_4_50" transform="matrix(4.98132,0,0,-4.98132,208.71298,77.71402)"/>
<use data-text="1" xlink:href="#font_4_50" transform="matrix(4.98132,0,0,-4.98132,211.20365,77.71402)"/>
<path transform="matrix(1,0,0,-1,184.55998,84.474018)" stroke-width=".59776" stroke-linecap="butt" stroke-dasharray=".59776,1.99255" stroke-miterlimit="10" stroke-linejoin="miter" fill="none" stroke="#0000ff" d="M0 0H8.50412 17.00826"/>
<path transform="matrix(1,0,0,-1,184.55998,84.474018)" stroke-width=".59776" stroke-linecap="butt" stroke-miterlimit="10" stroke-linejoin="miter" fill="none" stroke="#0000ff" d="M7.09517-1.40894 9.91307 1.40894M7.09517 1.40894 9.91307-1.40894"/>
<use data-text="&#x1d435;" xlink:href="#font_3_2477" transform="matrix(6.97385,0,0,-6.97385,203.85999,86.00402)"/>
<use data-text="2" xlink:href="#font_4_51" transform="matrix(4.98132,0,0,-4.98132,208.71298,87.74802)"/>
<use data-text="2" xlink:href="#font_4_51" transform="matrix(4.98132,0,0,-4.98132,211.20365,87.74802)"/>
<path transform="matrix(1,0,0,-1,184.55998,94.50801)" stroke-width=".59776" stroke-linecap="butt" stroke-dasharray=".59776,1.99255" stroke-miterlimit="10" stroke-linejoin="miter" fill="none" stroke="#008000" d="M0 0H8.50412 17.00826"/>
<path transform="matrix(1,0,0,-1,184.55998,94.50801)" d="M8.50412 1.99255 10.22972-.99628H6.7785Z" fill="#008000" fill-opacity=".8"/>
<path transform="matrix(1,0,0,-1,184.55998,94.50801)" stroke-width=".59776" stroke-linecap="butt" stroke-miterlimit="10" stroke-linejoin="miter" fill="none" stroke="#008000" d="M8.50412 1.99255 10.22972-.99628H6.7785Z"/>
<use data-text="&#x1d435;" xlink:href="#font_3_2477" transform="matrix(6.97385,0,0,-6.97385,203.85999,96.03702)"/>
<use data-text="3" xlink:href="#font_4_52" transform="matrix(4.98132,0,0,-4.98132,208.71298,97.78102)"/>
<use data-text="3" xlink:href="#font_4_52" transform="matrix(4.98132,0,0,-4.98132,211.20365,97.78102)"/>
<path transform="matrix(1,0,0,-1,184.55998,104.54101)" stroke-width=".59776" stroke-linecap="butt" stroke-dasharray=".59776,1.99255" stroke-miterlimit="10" stroke-linejoin="miter" fill="none" stroke="#000000" d="M0 0H8.50412 17.00826"/>
<path transform="matrix(1,0,0,-1,184.55998,104.54101)" d="M8.50412-1.99255 6.7785 .99628H10.22972Z" fill-opacity=".8"/>
<path transform="matrix(1,0,0,-1,184.55998,104.54101)" stroke-width=".59776" stroke-linecap="butt" stroke-miterlimit="10" stroke-linejoin="miter" fill="none" stroke="#000000" d="M8.50412-1.99255 6.7785 .99628H10.22972Z"/>
<use data-text="&#x1d435;" xlink:href="#font_3_2477" transform="matrix(6.97385,0,0,-6.97385,203.85999,106.071018)"/>
<use data-text="2" xlink:href="#font_4_51" transform="matrix(4.98132,0,0,-4.98132,208.71298,107.81402)"/>
<use data-text="3" xlink:href="#font_4_52" transform="matrix(4.98132,0,0,-4.98132,211.20365,107.81402)"/>
<path transform="matrix(1,0,0,-1,184.55998,114.574008)" stroke-width=".59776" stroke-linecap="butt" stroke-dasharray=".59776,1.99255" stroke-miterlimit="10" stroke-linejoin="miter" fill="none" stroke="#bf00bf" d="M0 0H8.50412 17.00826"/>
<path transform="matrix(1,0,0,-1,184.55998,114.574008)" d="M8.50412 1.99255 9.99854 0 8.50412-1.99255 7.0097 0Z" fill="#bf00bf" fill-opacity=".8"/>
<path transform="matrix(1,0,0,-1,184.55998,114.574008)" stroke-width=".59776" stroke-linecap="butt" stroke-miterlimit="10" stroke-linejoin="miter" fill="none" stroke="#bf00bf" d="M8.50412 1.99255 9.99854 0 8.50412-1.99255 7.0097 0Z"/>
<use data-text="&#x1d435;" xlink:href="#font_3_2477" transform="matrix(6.97385,0,0,-6.97385,203.85999,116.104007)"/>
<use data-text="3" xlink:href="#font_4_52" transform="matrix(4.98132,0,0,-4.98132,208.71298,117.848)"/>
<use data-text="1" xlink:href="#font_4_50" transform="matrix(4.98132,0,0,-4.98132,211.20365,117.848)"/>
<path transform="matrix(1,0,0,-1,184.55998,124.608)" stroke-width=".59776" stroke-linecap="butt" stroke-dasharray=".59776,1.99255" stroke-miterlimit="10" stroke-linejoin="miter" fill="none" stroke="#00bfbf" d="M0 0H8.50412 17.00826"/>
<path transform="matrix(1,0,0,-1,184.55998,124.608)" d="M8.50412 1.99255 10.39917 .61574 9.67531-1.61201H7.33293L6.60907 .61574Z" fill="#00bfbf" fill-opacity=".8"/>
<path transform="matrix(1,0,0,-1,184.55998,124.608)" stroke-width=".59776" stroke-linecap="butt" stroke-miterlimit="10" stroke-linejoin="miter" fill="none" stroke="#00bfbf" d="M8.50412 1.99255 10.39917 .61574 9.67531-1.61201H7.33293L6.60907 .61574Z"/>
<use data-text="&#x1d435;" xlink:href="#font_3_2477" transform="matrix(6.97385,0,0,-6.97385,203.85999,126.137)"/>
<use data-text="1" xlink:href="#font_4_50" transform="matrix(4.98132,0,0,-4.98132,208.71298,127.881008)"/>
<use data-text="2" xlink:href="#font_4_51" transform="matrix(4.98132,0,0,-4.98132,211.20365,127.881008)"/>
</svg>
