<svg xmlns="http://www.w3.org/2000/svg" xmlns:xlink="http://www.w3.org/1999/xlink" xmlns:inkscape="http://www.inkscape.org/namespaces/inkscape" version="1.1" width="237.241" height="198.863" viewBox="0 0 237.241 198.863">
<defs>
<path id="font_1_49" d="M.37998963 .32505799C.37998963 .12722779 .33499146 .012313843 .25 .012313843 .1639862 .012313843 .11999512 .1262207 .11999512 .32904054 .11999512 .5318756 .16499329 .6497803 .24798584 .6497803 .33599855 .6497803 .37998963 .53286746 .37998963 .32505799M.47599793 .3300476C.47599793 .53486636 .3849945 .67578127 .2539978 .67578127 .09298706 .67578127 .023986817 .5128937 .023986817 .3360443 .023986817 .17218018 .07899475-.013671875 .25-.013671875 .41299439-.013671875 .47599793 .15818787 .47599793 .3300476Z"/>
<path id="font_1_3177" d="M.56799319 .4284668H.28599549C.18199158 .4284668 .117996219 .38246156 .07398987 .3024292H.08999634C.13398743 .35546876 .17098999 .35546876 .22898865 .35546876L.13999939 .14936829C.1269989 .12034607 .10899353 .09133911 .06599426 .079330448 .039993287 .07232666 .034988405 .046310426 .034988405 .031311037 .034988405 .007293701 .05999756-.0126953129 .085998538-.0126953129 .09799194-.0126953129 .11299133-.010696411 .12399292-.0017089844 .20799256 .061325075 .23899842 .23339844 .2849884 .35546876H.3789978C.35398866 .27142335 .32398988 .2013855 .30099488 .13035584 .29499818 .111343387 .2919922 .09133911 .2919922 .06832886 .2919922 .029159546 .30899049-.0068359377 .34899903-.0068359377 .4189911-.0068359377 .47200013 .06315613 .49299623 .13522339H.47698976C.45298768 .08117676 .4249878 .06915283 .4039917 .06915283 .38198854 .06915283 .3659973 .094177249 .3659973 .11720276 .3659973 .1842804 .4189911 .31240846 .43299867 .35546876H.54499819L.56799319 .4284668Z"/>
<path id="font_1_48" d="M.2869873 .67578127H.21998596L-.009002686-.013671875H.05899048L.2869873 .67578127Z"/>
<path id="font_1_57" d="M.2709961 .27209474C.33898927 .22613526 .36898805 .18617249 .36898805 .1242218 .36898805 .059280397 .32398988 .014328003 .25898744 .014328003 .18299866 .014328003 .13198853 .06626892 .13198853 .15820313 .13198853 .22314453 .15299988 .26409913 .21199036 .3120575L.2709961 .27209474M.35499574 .53286746C.35499574 .470932 .32899476 .42897035 .26098634 .3889923 .17298889 .4409485 .13598633 .48690797 .13598633 .54885867 .13598633 .6108093 .1789856 .6477661 .24598694 .6477661 .31399537 .6477661 .35499574 .60180667 .35499574 .53286746M.44499208 .15519715C.44499208 .23512268 .41299439 .28907777 .2899933 .37101747 .3889923 .42396546 .42399598 .45793153 .42399598 .53286746 .42399598 .6108093 .35499574 .67578127 .2559967 .67578127 .14498902 .67578127 .06199646 .61579897 .06199646 .5198822 .06199646 .4549408 .08299255 .41697694 .18598938 .3320465 .07899475 .2571106 .055999757 .21813965 .055999757 .14920044 .055999757 .055282594 .1349945-.013671875 .24798584-.013671875 .36799623-.013671875 .44499208 .05229187 .44499208 .15519715Z"/>
<path id="font_1_53" d="M.2919922 .23098755H.051986696L.2919922 .573822V.23098755M.47299195 .16699219V.23098755H.36999513V.67578127H.32598878L.011993408 .23098755V.16699219H.2919922V0H.36999513V.16699219H.47299195Z"/>
<path id="font_1_52" d="M.06098938 .50987246C.101989749 .58380129 .147995 .61576846 .20999146 .61576846 .27598573 .61576846 .31799317 .58180239 .31799317 .51387026 .31799317 .45292665 .28599549 .40795899 .23699951 .37998963 .21699524 .36799623 .19099427 .3570099 .15299988 .34402467V.33003236C.20999146 .33003236 .23298645 .32704164 .25498963 .3200531 .32398988 .3000641 .35899354 .2511139 .35899354 .17518616 .35899354 .09025574 .30299378 .022323609 .22898865 .022323609 .20098877 .022323609 .17999268 .027313233 .14299011 .05329895 .114990238 .073272708 .09899902 .07926941 .08198547 .07926941 .05899048 .07926941 .040985109 .06428528 .040985109 .043304445 .040985109 .0073242189 .07998657-.013671875 .15299988-.013671875 .24198914-.013671875 .33699037 .015319824 .3849945 .07926941 .4139862 .11723328 .43099977 .16618347 .43099977 .21913147 .43099977 .27108766 .4149933 .31704713 .3869934 .34802247 .3659973 .36999513 .34799195 .38198854 .3039856 .40097047 .37098695 .44093324 .39698792 .4908905 .39698792 .5388489 .39698792 .6207733 .33399964 .67578127 .24099732 .67578127 .13699341 .67578127 .07398987 .6087799 .04499817 .51387026L.06098938 .50987246Z"/>
<path id="font_1_51" d="M.47399903 .13696289 .45999146 .1429596C.4269867 .08699036 .4059906 .07598877 .3639984 .07598877H.12998963L.29499818 .2519226C.38398744 .34588624 .4229889 .42085267 .4229889 .4998169 .4229889 .59877017 .35099793 .67578127 .23799134 .67578127 .114990238 .67578127 .050994874 .5937805 .02999878 .4768219L.050994874 .47183229C.09098816 .5697937 .12599182 .6017761 .19799805 .6017761 .2829895 .6017761 .33699037 .55178835 .33699037 .4608307 .33699037 .37586976 .30099488 .29989625 .20698548 .200943L.0289917 .011993408V0H.41999818L.47399903 .13696289Z"/>
<path id="font_1_47" d="M.18099976 .04324341C.18099976 .07325745 .15499878 .100250247 .12599182 .100250247 .09498596 .100250247 .069992069 .07525635 .069992069 .04425049 .069992069 .013244629 .09399414-.0107421879 .125-.0107421879 .15499878-.0107421879 .18099976 .014251709 .18099976 .04324341Z"/>
<path id="font_1_54" d="M.43798829 .68110659 .42900086 .6880951C.41299439 .667099 .4039917 .6621094 .3809967 .6621094H.17399597L.06498718 .4251709C.06498718 .4251709 .06399536 .42216493 .06399536 .42016603 .06399536 .4141693 .066986087 .4121704 .07598877 .4121704 .17199707 .4121704 .24198914 .380188 .2889862 .3421936 .33399964 .30621339 .35598756 .2562256 .35598756 .19226074 .35598756 .106292728 .29100038 .02331543 .22099304 .02331543 .20098877 .02331543 .17799378 .032318117 .1499939 .05531311 .117996219 .08129883 .09899902 .08630371 .07598877 .08630371 .04798889 .08630371 .0309906 .07330322 .0309906 .048309328 .0309906 .010314941 .08299255-.013671875 .1579895-.013671875 .22599793-.013671875 .2809906 .0013275147 .32798768 .035308839 .3959961 .08529663 .42599488 .14727783 .42599488 .24324036 .42599488 .29621888 .4169922 .334198 .3909912 .37019349 .33399964 .4491577 .28399659 .47114564 .14099121 .49813844L.18099976 .58309939H.375C.3909912 .58309939 .39898683 .58909609 .4019928 .59609988L.43798829 .68110659Z"/>
<path id="font_1_50" d="M.3939972 0V.01499939C.31900025 .01499939 .29899598 .032989503 .29899598 .07597351V.67277529L.2899933 .67578127 .11099243 .5847931V.5708008L.13798523 .5807953C.1559906 .5877991 .17298889 .59280398 .18299866 .59280398 .20399475 .59280398 .21299744 .57780459 .21299744 .543808V.0949707C.21299744 .039978029 .19198609 .018997193 .117996219 .01499939V0H.3939972Z"/>
<clipPath id="clip_2">
<path transform="matrix(1,0,0,-1,40.779,163.586)" d="M0 0H194.27245V161.39647H0Z"/>
</clipPath>
<path id="font_1_3191" d="M.23999024 .018966675C.16999817 .018966675 .12399292 .094955448 .12399292 .15795899 .12399292 .27696229 .20899964 .41096498 .33898927 .41096498L.23999024 .018966675M.41799928 .41096498C.5029907 .4119568 .5349884 .358963 .5349884 .279953 .5349884 .16996765 .44198609 .018966675 .32099916 .018966675L.41799928 .41096498M.47999574 .66796877H.397995C.38198854 .5919647 .3639984 .5159607 .34498597 .43995667H.32899476C.24899292 .43995667 .17999268 .41296388 .12399292 .35595704 .070999149 .30195619 .039993287 .23596192 .039993287 .15995789 .039993287 .044952394 .12298584-.011047363 .23098755-.011047363L.18499756-.18304444H.2659912L.31399537-.011047363C.40098573-.011047363 .47999574 .015960694 .5399933 .080963138 .59298709 .13795471 .6199951 .20695496 .6199951 .2849579 .6199951 .40196229 .5279999 .43995667 .4249878 .43995667L.47999574 .66796877Z"/>
<path id="font_1_2480" d="M.73399356 .653183H.19999695L.19599915 .6371765H.21499634C.27398683 .6371765 .2899933 .6261749 .2899933 .60217288 .2899933 .59516909 .2889862 .5841522 .2849884 .56614688L.16499329 .07798767C.15699768 .04399109 .13398743 .015991211 .06098938 .015991211H.041992189L.037994386 0H.60899356L.6749878 .19799805H.6589966C.6159973 .084991458 .55999758 .037994386 .4019928 .037994386H.33499146C.28799439 .037994386 .27198792 .04899597 .27198792 .06498718 .27198792 .067993167 .272995 .070999149 .27398683 .07499695L.33999635 .3330078H.42999269C.46099855 .3330078 .5019989 .32899476 .5019989 .28199769 .5019989 .2649994 .49699403 .23500061 .49598695 .22200012H.5130005L.57099917 .46406556H.5549927C.5329895 .38200379 .4889984 .3690033 .42900086 .3690033H.34899903L.40899659 .6171875H.56900027C.6199951 .6171875 .6749878 .60417178 .6779938 .53012087 .6779938 .519104 .6769867 .5081024 .6759949 .49508668H.69200137L.73399356 .653183Z"/>
<path id="font_1_183" d="M.5970001 .021987915 .36698915 .2519989 .5970001 .48399354 .5509949 .5289917 .31999208 .29899598 .08999634 .5289917 .042999269 .48298646 .272995 .2519989 .042999269 .020996094 .08898926-.025009156 .31999208 .20498657 .5509949-.025009156 .5970001 .021987915Z"/>
<path id="font_1_2477" d="M.33799745 .3143463C.35299684 .31835938 .37298585 .31835938 .3889923 .31835938 .46699525 .31835938 .5309906 .28330995 .5309906 .21022034 .5309906 .08004761 .43499757 .037994386 .34098817 .037994386 .31498719 .037994386 .29499818 .039993287 .269989 .04699707L.33799745 .3143463M.4059906 .61125186C.4189911 .61325076 .43399049 .6142578 .44898988 .6142578 .5029907 .6142578 .56799319 .5932617 .56799319 .5162964 .56799319 .41932679 .5119934 .35334779 .3999939 .35334779 .3849945 .35334779 .36698915 .35534669 .34700013 .35934449L.4059906 .61125186M.19799805 .653244 .19299317 .6372528H.21199036C.2709961 .6372528 .2899933 .62124636 .2899933 .5952606 .2899933 .5892639 .2889862 .5792694 .28799439 .5742645L.16499329 .07904053C.15699768 .04499817 .13798523 .015991211 .06199646 .015991211H.041992189L.037994386 0H.3619995C.56900027 0 .651001 .094070438 .651001 .19319153 .651001 .27830506 .58399966 .32035829 .5239868 .3313446L.5209961 .33535768C.54100039 .3403473 .56999209 .34835816 .59498599 .36134339 .6429901 .38534547 .6859894 .43032838 .6859894 .5082855 .6859894 .6442566 .5339966 .653244 .44999696 .653244H.19799805Z"/>
<path id="font_3_2509" d="M.22698975 .4412079 .068984989 .41921998 .07199097 .4032135C.07899475 .4052124 .09098816 .4072113 .099990848 .4072113 .12298584 .4072113 .1309967 .40222169 .1309967 .3852234 .1309967 .3822174 .12998963 .37521363 .1289978 .37321473 .049987794 .0662384 .049987794 .04724121 .049987794 .035247804 .049987794 .008255005 .06199646-.0107421879 .08999634-.0107421879 .13899231-.0107421879 .18899536 .049240114 .22399903 .09423828L.21099854 .10424805C.1749878 .06524658 .16899109 .053253175 .14698792 .053253175 .13999939 .053253175 .13398743 .056243898 .13398743 .06324768 .13398743 .06724548 .13398743 .071243289 .1349945 .07723999L.22698975 .4412079M.25698854 .5662079C.25698854 .5912018 .23498535 .61621096 .20899964 .61621096 .17999268 .61621096 .16099549 .5912018 .16099549 .5662079 .16099549 .5402069 .17999268 .52020266 .20899964 .52020266 .23498535 .52020266 .25698854 .5402069 .25698854 .5662079Z"/>
<path id="font_3_2510" d="M.35099793 .44114686 .19299317 .4131317 .19599915 .39611817C.20298767 .39912416 .21499634 .40112306 .22299195 .40112306 .24499512 .40112306 .25498963 .39111329 .25498963 .3791046L.16299439 .015853882C.13899231-.080200199 .10598755-.15625 .05999756-.15625 .054992677-.15625 .049987794-.1502533 .049987794-.1462555 .049987794-.13023377 .06599426-.12724304 .06599426-.11222839 .06599426-.08921814 .049987794-.07420349 .0309906-.07420349-.0040130617-.07420349-.01600647-.10421753-.01600647-.12623596-.01600647-.1542511 .0039978029-.18725586 .056991579-.18725586 .16499329-.18725586 .22099304-.07220459 .24299622 .015853882L.35099793 .44114686M.37199403 .5662079C.37199403 .5912018 .34999085 .61621096 .32398988 .61621096 .29499818 .61621096 .27598573 .5912018 .27598573 .5662079 .27598573 .5402069 .29499818 .52020266 .32398988 .52020266 .34999085 .52020266 .37199403 .5402069 .37199403 .5662079Z"/>
<path id="font_3_2477" d="M.33799745 .3143463C.35299684 .31835938 .37298585 .31835938 .3889923 .31835938 .46699525 .31835938 .5309906 .28330995 .5309906 .21022034 .5309906 .08004761 .43499757 .037994386 .34098817 .037994386 .31498719 .037994386 .29499818 .039993287 .269989 .04699707L.33799745 .3143463M.4059906 .61125186C.4189911 .61325076 .43399049 .6142578 .44898988 .6142578 .5029907 .6142578 .56799319 .5932617 .56799319 .5162964 .56799319 .41932679 .5119934 .35334779 .3999939 .35334779 .3849945 .35334779 .36698915 .35534669 .34700013 .35934449L.4059906 .61125186M.19799805 .653244 .19299317 .6372528H.21199036C.2709961 .6372528 .2899933 .62124636 .2899933 .5952606 .2899933 .5892639 .2889862 .5792694 .28799439 .5742645L.16499329 .07904053C.15699768 .04499817 .13798523 .015991211 .06199646 .015991211H.041992189L.037994386 0H.3619995C.56900027 0 .651001 .094070438 .651001 .19319153 .651001 .27830506 .58399966 .32035829 .5239868 .3313446L.5209961 .33535768C.54100039 .3403473 .56999209 .34835816 .59498599 .36134339 .6429901 .38534547 .6859894 .43032838 .6859894 .5082855 .6859894 .6442566 .5339966 .653244 .44999696 .653244H.19799805Z"/>
<path id="font_4_974" d="M.2679901 .3962555C.31999208 .4772644 .375 .5582733 .42399598 .60827639 .44898988 .63427737 .47799684 .65527346 .5059967 .65527346 .5289917 .65527346 .54100039 .6432648 .54100039 .6242676 .54100039 .5282593 .42599488 .43026734 .2689972 .39526368L.2679901 .3962555M.07699585 .38926698C.10398865 .37025453 .1349945 .3612671 .16499329 .36026 .15098572 .33825685 .13699341 .31625367 .125 .29426576 .07798767 .21224976 .04798889 .1312561 .04798889 .07624817 .04798889 .018249512 .08799744-.0107421879 .1349945-.0107421879 .19799805-.0107421879 .25698854 .04624939 .3619995 .16925049L.34098817 .18624878C.24398804 .07424927 .18899536 .019256592 .14199829 .019256592 .114990238 .019256592 .10598755 .038253786 .10598755 .06225586 .10598755 .1292572 .19699097 .27626039 .24899292 .36026 .4249878 .386261 .57099917 .5152588 .57099917 .6202698 .57099917 .66625979 .548996 .6872711 .5069885 .6872711 .4249878 .6872711 .2899933 .5452728 .18499756 .3902588 .15499878 .3902588 .12399292 .3922577 .09098816 .41526795L.07699585 .38926698Z"/>
<path id="font_4_2513" d="M.6669922 .10708618C.647995 .0700531 .621994 .054031373 .6049957 .054031373 .59599307 .054031373 .58999636 .058029176 .58999636 .06604004 .58999636 .06904602 .59098818 .07505798 .59199526 .078063968L.6529999 .30932618C.6589966 .3333435 .6599884 .35237123 .6599884 .37039186 .6599884 .41540528 .6419983 .44140626 .60598757 .44140626 .58599856 .44140626 .5669861 .43440248 .54499819 .41940309 .49598695 .38639833 .44400025 .32434083 .4149933 .27227784H.4099884L.41999818 .3083191C.42599488 .32833863 .42900086 .34335328 .42900086 .36038209 .42900086 .4044037 .41099549 .44140626 .37399293 .44140626 .33599855 .44140626 .27598573 .41540528 .18199158 .27227784H.17599488L.21998596 .44140626 .06298828 .41740418 .06498718 .4033966C.07299805 .4044037 .083999637 .4053955 .09199524 .4053955 .11898804 .4053955 .125 .39239503 .125 .37438966L.02999878 0H.10798645L.14299011 .13511658C.15899658 .19619751 .2689972 .37739564 .32099916 .37739564 .33898927 .37739564 .34399415 .359375 .34399415 .33935548 .34399415 .32434083 .34098817 .3083191 .33898927 .2993164L.2619934 0H.34098817L.375 .13511658C.3899994 .19619751 .5 .37739564 .55400088 .37739564 .57199099 .37739564 .5779877 .359375 .5779877 .33935548 .5779877 .32234193 .57598879 .31332398 .57199099 .2993164L.5159912 .078063968C.5109863 .058029176 .5099945 .04801941 .5099945 .041015626 .5099945 .0021820069 .5269928-.0078125 .548996-.0078125 .59599307-.0078125 .647995 .04219055 .6799927 .09623718L.6669922 .10708618Z"/>
<path id="font_4_2514" d="M.46699525 .096206668 .45399476 .10720825C.43998719 .09020996 .41600038 .05418396 .3919983 .05418396 .3809967 .05418396 .37799073 .062179567 .3769989 .06819153 .3769989 .07319641 .3769989 .07620239 .37799073 .078201297L.43699647 .3093567C.44198609 .32936097 .44799806 .35438539 .44799806 .37939454 .44799806 .4123993 .43598939 .44140626 .3919983 .44140626 .33198548 .44140626 .27198792 .37539674 .23199463 .32536317 .22999573 .32235719 .18099976 .25231935 .17599488 .25231935H.17298889L.22399903 .44140626 .06498718 .418396 .066986087 .4033966C.07398987 .4044037 .084991458 .4064026 .09498596 .4064026 .12199402 .4064026 .125 .39239503 .125 .37438966L.02999878 0H.10699463L.13999939 .12411499C.1459961 .1451416 .17199707 .19218445 .20799256 .24624634 .23899842 .29330445 .3019867 .37939454 .33999635 .37939454 .35798646 .37939454 .3639984 .36038209 .3639984 .34135438 .3639984 .3273468 .35899354 .307312 .35699464 .2993164L.2999878 .078063968C.29699708 .06704712 .29299928 .05102539 .29299928 .038009645 .29299928 .015182495 .3019867-.0078125 .33399964-.0078125 .38598634-.0078125 .43399049 .05618286 .46199037 .09020996L.46699525 .096206668Z"/>
<path id="font_4_50" d="M.3939972 0V.01499939C.31900025 .01499939 .29899598 .032989503 .29899598 .07597351V.67277529L.2899933 .67578127 .11099243 .5847931V.5708008L.13798523 .5807953C.1559906 .5877991 .17298889 .59280398 .18299866 .59280398 .20399475 .59280398 .21299744 .57780459 .21299744 .543808V.0949707C.21299744 .039978029 .19198609 .018997193 .117996219 .01499939V0H.3939972Z"/>
<path id="font_4_51" d="M.47399903 .13696289 .45999146 .1429596C.4269867 .08699036 .4059906 .07598877 .3639984 .07598877H.12998963L.29499818 .2519226C.38398744 .34588624 .4229889 .42085267 .4229889 .4998169 .4229889 .59877017 .35099793 .67578127 .23799134 .67578127 .114990238 .67578127 .050994874 .5937805 .02999878 .4768219L.050994874 .47183229C.09098816 .5697937 .12599182 .6017761 .19799805 .6017761 .2829895 .6017761 .33699037 .55178835 .33699037 .4608307 .33699037 .37586976 .30099488 .29989625 .20698548 .200943L.0289917 .011993408V0H.41999818L.47399903 .13696289Z"/>
<path id="font_4_52" d="M.06098938 .50987246C.101989749 .58380129 .147995 .61576846 .20999146 .61576846 .27598573 .61576846 .31799317 .58180239 .31799317 .51387026 .31799317 .45292665 .28599549 .40795899 .23699951 .37998963 .21699524 .36799623 .19099427 .3570099 .15299988 .34402467V.33003236C.20999146 .33003236 .23298645 .32704164 .25498963 .3200531 .32398988 .3000641 .35899354 .2511139 .35899354 .17518616 .35899354 .09025574 .30299378 .022323609 .22898865 .022323609 .20098877 .022323609 .17999268 .027313233 .14299011 .05329895 .114990238 .073272708 .09899902 .07926941 .08198547 .07926941 .05899048 .07926941 .040985109 .06428528 .040985109 .043304445 .040985109 .0073242189 .07998657-.013671875 .15299988-.013671875 .24198914-.013671875 .33699037 .015319824 .3849945 .07926941 .4139862 .11723328 .43099977 .16618347 .43099977 .21913147 .43099977 .27108766 .4149933 .31704713 .3869934 .34802247 .3659973 .36999513 .34799195 .38198854 .3039856 .40097047 .37098695 .44093324 .39698792 .4908905 .39698792 .5388489 .39698792 .6207733 .33399964 .67578127 .24099732 .67578127 .13699341 .67578127 .07398987 .6087799 .04499817 .51387026L.06098938 .50987246Z"/>
</defs>
<path transform="matrix(1,0,0,-1,40.779,163.586)" stroke-width=".3985" stroke-linecap="butt" stroke-miterlimit="10" stroke-linejoin="miter" fill="none" stroke="#b0b0b0" d="M6.4149 0V161.39647M38.4879 0V161.39647M70.56335 0V161.39647M102.63799 0V161.39647M134.71262 0V161.39647"/>
<path transform="matrix(1,0,0,-1,40.779,163.586)" stroke-width=".3985" stroke-linecap="butt" stroke-miterlimit="10" stroke-linejoin="miter" fill="none" stroke="#b0b0b0" d="M0 15.16187H194.27245M0 69.88976H194.27245M0 124.61763H194.27245"/>
<path transform="matrix(1,0,0,-1,40.779,163.586)" stroke-width=".19925" stroke-linecap="butt" stroke-miterlimit="10" stroke-linejoin="miter" fill="none" stroke="#000000" d="M6.4149-4.25279V0M38.4879-4.25279V0M70.56335-4.25279V0M102.63799-4.25279V0M134.71262-4.25279V0"/>
<path transform="matrix(1,0,0,-1,40.779,163.586)" stroke-width=".19925" stroke-linecap="butt" stroke-miterlimit="10" stroke-linejoin="miter" fill="none" stroke="#000000" d="M-4.25171 15.16187H0M-4.25171 69.88976H0M-4.25171 124.61763H0"/>
<path transform="matrix(1,0,0,-1,40.779,163.586)" stroke-width=".3985" stroke-linecap="butt" stroke-miterlimit="10" stroke-linejoin="miter" fill="none" stroke="#000000" d="M0 0V161.39647H194.27245V0H0Z"/>
<use data-text="0" xlink:href="#font_1_49" transform="matrix(9.96264,0,0,-9.96264,44.703,178.093)"/>
<use data-text="&#x1d70b;" xlink:href="#font_1_3177" transform="matrix(9.96264,0,0,-9.96264,72.363,178.093)"/>
<use data-text="/" xlink:href="#font_1_48" transform="matrix(9.96264,0,0,-9.96264,78.42028,178.093)"/>
<use data-text="8" xlink:href="#font_1_57" transform="matrix(9.96264,0,0,-9.96264,81.189899,178.093)"/>
<use data-text="&#x1d70b;" xlink:href="#font_1_3177" transform="matrix(9.96264,0,0,-9.96264,104.438,178.093)"/>
<use data-text="/" xlink:href="#font_1_48" transform="matrix(9.96264,0,0,-9.96264,110.495288,178.093)"/>
<use data-text="4" xlink:href="#font_1_53" transform="matrix(9.96264,0,0,-9.96264,113.2649,178.093)"/>
<use data-text="3" xlink:href="#font_1_52" transform="matrix(9.96264,0,0,-9.96264,134.021,178.093)"/>
<use data-text="&#x1d70b;" xlink:href="#font_1_3177" transform="matrix(9.96264,0,0,-9.96264,139.00232,178.093)"/>
<use data-text="/" xlink:href="#font_1_48" transform="matrix(9.96264,0,0,-9.96264,145.05962,178.093)"/>
<use data-text="8" xlink:href="#font_1_57" transform="matrix(9.96264,0,0,-9.96264,147.82923,178.093)"/>
<use data-text="&#x1d70b;" xlink:href="#font_1_3177" transform="matrix(9.96264,0,0,-9.96264,168.586,178.093)"/>
<use data-text="/" xlink:href="#font_1_48" transform="matrix(9.96264,0,0,-9.96264,174.6433,178.093)"/>
<use data-text="2" xlink:href="#font_1_51" transform="matrix(9.96264,0,0,-9.96264,177.4129,178.093)"/>
<use data-text="0" xlink:href="#font_1_49" transform="matrix(9.96264,0,0,-9.96264,28.026,151.72202)"/>
<use data-text="0" xlink:href="#font_1_49" transform="matrix(9.96264,0,0,-9.96264,20.553999,97.05401)"/>
<use data-text="." xlink:href="#font_1_47" transform="matrix(9.96264,0,0,-9.96264,25.535319,97.05401)"/>
<use data-text="5" xlink:href="#font_1_54" transform="matrix(9.96264,0,0,-9.96264,28.025979,97.05401)"/>
<use data-text="1" xlink:href="#font_1_50" transform="matrix(9.96264,0,0,-9.96264,28.026,42.337007)"/>
<g clip-path="url(#clip_2)">
<path transform="matrix(1,0,0,-1,40.779,163.586)" stroke-width=".59776" stroke-linecap="butt" stroke-miterlimit="10" stroke-linejoin="miter" fill="none" stroke="#ff0000" d="M6.41487 149.10305 7.69785 149.04103 8.98083 148.9815 10.26381 148.92459 11.54678 148.87032 12.82976 148.81876 14.11273 148.76995 15.3957 148.72394 16.67868 148.68079 17.96165 148.64054 19.24463 148.60321 20.5276 148.56887 21.8106 148.53754 23.09357 148.50925 24.37653 148.48403 25.65952 148.46192 26.94249 148.44292 28.22546 148.42708 29.50845 148.41439 30.79141 148.40485 32.07439 148.39852 33.35738 148.39537 34.64035 148.3954 35.92331 148.39862 37.20628 148.40503 38.48927 148.41461 39.77225 148.42739 41.05522 148.44329 42.3382 148.46233 43.62117 148.4845 44.90414 148.50977 46.18713 148.5381 47.47011 148.56946 48.75307 148.60385 50.03606 148.64119 51.31903 148.68148 52.602 148.72463 53.88496 148.77065 55.16795 148.81946 56.45093 148.871 57.7339 148.92527 59.01689 148.98215 60.29985 149.04161 61.58282 149.10359 62.86581 149.16803 64.14879 149.23485 65.43175 149.304 66.71474 149.3754 67.99771 149.44898 69.28069 149.52463 70.56367 149.60233 71.84663 149.68198 73.12961 149.76348 74.41258 149.84674 75.69557 149.93172 76.97855 150.01831 78.2615 150.10643 79.5445 150.19597 80.82747 150.28684 82.11044 150.37899 83.39342 150.47229 84.67639 150.56665 85.95937 150.66199 87.24236 150.7582 88.52533 150.8552 89.80829 150.95287 91.09126 151.05113 92.37425 151.14989 93.65723 151.24904 94.9402 151.34847 96.22318 151.44809 97.50615 151.54784 98.78912 151.64756 100.07211 151.74718 101.35507 151.8466 102.63805 151.94574 103.92104 152.04448 105.20401 152.14273 106.48698 152.2404 107.76996 152.33737 109.05293 152.4336 110.3359 152.52893 111.61888 152.62332 112.90186 152.71666 114.18483 152.80886 115.4678 152.89981 116.7508 152.98946 118.03377 153.07769 119.31673 153.16443 120.59972 153.2496 121.88269 153.33312 123.16566 153.4149 124.44865 153.49488 125.73161 153.57295 127.01459 153.64907 128.29758 153.72313 129.58055 153.79509 130.86351 153.86489 132.14649 153.93244 133.42948 153.99768 134.71245 154.06055"/>
<path transform="matrix(1,0,0,-1,40.779,163.586)" stroke-width=".59776" stroke-linecap="butt" stroke-miterlimit="10" stroke-linejoin="miter" fill="none" stroke="#0000ff" d="M6.41487 137.27056 7.69785 137.35932 8.98083 137.44689 10.26381 137.5332 11.54678 137.61818 12.82976 137.70174 14.11273 137.78377 15.3957 137.86418 16.67868 137.94292 17.96165 138.0199 19.24463 138.09502 20.5276 138.16823 21.8106 138.23946 23.09357 138.30861 24.37653 138.37563 25.65952 138.44045 26.94249 138.50298 28.22546 138.5632 29.50845 138.62102 30.79141 138.67639 32.07439 138.72927 33.35738 138.77957 34.64035 138.82729 35.92331 138.87235 37.20628 138.9147 38.48927 138.95433 39.77225 138.99117 41.05522 139.02523 42.3382 139.05641 43.62117 139.08473 44.90414 139.11017 46.18713 139.13266 47.47011 139.15224 48.75307 139.16886 50.03606 139.1825 51.31903 139.19315 52.602 139.20084 53.88496 139.2055 55.16795 139.20719 56.45093 139.20587 57.7339 139.20159 59.01689 139.1943 60.29985 139.18407 61.58282 139.17086 62.86581 139.15473 64.14879 139.13567 65.43175 139.1137 66.71474 139.08885 67.99771 139.06119 69.28069 139.03069 70.56367 138.9974 71.84663 138.9614 73.12961 138.92269 74.41258 138.8813 75.69557 138.8373 76.97855 138.79071 78.2615 138.74161 79.5445 138.69004 80.82747 138.63605 82.11044 138.57968 83.39342 138.52101 84.67639 138.4601 85.95937 138.397 87.24236 138.33179 88.52533 138.26451 89.80829 138.19527 91.09126 138.12409 92.37425 138.05106 93.65723 137.97626 94.9402 137.89977 96.22318 137.82164 97.50615 137.74199 98.78912 137.66085 100.07211 137.57833 101.35507 137.49448 102.63805 137.40943 103.92104 137.32323 105.20401 137.23598 106.48698 137.14774 107.76996 137.05861 109.05293 136.96868 110.3359 136.87804 111.61888 136.78678 112.90186 136.69495 114.18483 136.60268 115.4678 136.51006 116.7508 136.41713 118.03377 136.32404 119.31673 136.23084 120.59972 136.13764 121.88269 136.04451 123.16566 135.95154 124.44865 135.85884 125.73161 135.76648 127.01459 135.67455 128.29758 135.58315 129.58055 135.49234 130.86351 135.40224 132.14649 135.3129 133.42948 135.22443 134.71245 135.1369"/>
<path transform="matrix(1,0,0,-1,40.779,163.586)" stroke-width=".59776" stroke-linecap="butt" stroke-miterlimit="10" stroke-linejoin="miter" fill="none" stroke="#008000" d="M6.41487 135.96947 7.69785 135.98305 8.98083 135.9918 10.26381 135.99576 11.54678 135.99486 12.82976 135.98912 14.11273 135.97858 15.3957 135.9632 16.67868 135.94303 17.96165 135.91808 19.24463 135.88835 20.5276 135.8539 21.8106 135.81476 23.09357 135.77097 24.37653 135.72255 25.65952 135.66957 26.94249 135.61209 28.22546 135.55017 29.50845 135.48384 30.79141 135.4132 32.07439 135.33832 33.35738 135.25925 34.64035 135.1761 35.92331 135.08896 37.20628 134.99788 38.48927 134.903 39.77225 134.80438 41.05522 134.70214 42.3382 134.59639 43.62117 134.48723 44.90414 134.37477 46.18713 134.25911 47.47011 134.1404 48.75307 134.01874 50.03606 133.89426 51.31903 133.76709 52.602 133.63736 53.88496 133.50519 55.16795 133.37073 56.45093 133.23412 57.7339 133.09549 59.01689 132.95496 60.29985 132.8127 61.58282 132.66886 62.86581 132.52356 64.14879 132.37697 65.43175 132.22922 66.71474 132.08046 67.99771 131.93085 69.28069 131.78055 70.56367 131.62969 71.84663 131.47841 73.12961 131.32689 74.41258 131.17527 75.69557 131.0237 76.97855 130.87233 78.2615 130.72132 79.5445 130.5708 80.82747 130.42095 82.11044 130.27188 83.39342 130.12378 84.67639 129.97676 85.95937 129.83097 87.24236 129.68657 88.52533 129.54367 89.80829 129.40244 91.09126 129.26302 92.37425 129.12552 93.65723 128.9901 94.9402 128.85688 96.22318 128.72599 97.50615 128.59754 98.78912 128.47167 100.07211 128.3485 101.35507 128.22817 102.63805 128.11075 103.92104 127.99638 105.20401 127.88516 106.48698 127.7772 107.76996 127.67262 109.05293 127.57149 110.3359 127.47392 111.61888 127.38 112.90186 127.28983 114.18483 127.20348 115.4678 127.12102 116.7508 127.04256 118.03377 126.96814 119.31673 126.89787 120.59972 126.83177 121.88269 126.76993 123.16566 126.7124 124.44865 126.65924 125.73161 126.61047 127.01459 126.56618 128.29758 126.52638 129.58055 126.4911 130.86351 126.4604 132.14649 126.43428 133.42948 126.4128 134.71245 126.39592"/>
<path transform="matrix(1,0,0,-1,40.779,163.586)" stroke-width=".59776" stroke-linecap="butt" stroke-miterlimit="10" stroke-linejoin="miter" fill="none" stroke="#000000" d="M6.41487 11.73141 7.69785 11.66354 8.98083 11.5976 10.26381 11.53368 11.54678 11.47182 12.82976 11.41212 14.11273 11.35461 15.3957 11.29936 16.67868 11.24644 17.96165 11.19588 19.24463 11.14775 20.5276 11.10208 21.8106 11.05894 23.09357 11.01836 24.37653 10.98038 25.65952 10.94504 26.94249 10.91237 28.22546 10.8824 29.50845 10.85518 30.79141 10.83072 32.07439 10.80904 33.35738 10.79018 34.64035 10.77415 35.92331 10.76096 37.20628 10.75064 38.48927 10.74316 39.77225 10.73857 41.05522 10.73686 42.3382 10.73802 43.62117 10.74207 44.90414 10.74896 46.18713 10.75874 47.47011 10.77135 48.75307 10.78682 50.03606 10.80508 51.31903 10.82616 52.602 10.85 53.88496 10.87663 55.16795 10.90596 56.45093 10.93799 57.7339 10.97266 59.01689 11.00996 60.29985 11.04987 61.58282 11.0923 62.86581 11.13724 64.14879 11.18462 65.43175 11.2344 66.71474 11.28654 67.99771 11.341 69.28069 11.39767 70.56367 11.45656 71.84663 11.51755 73.12961 11.5806 74.41258 11.64566 75.69557 11.71266 76.97855 11.78151 78.2615 11.85217 79.5445 11.92455 80.82747 11.99857 82.11044 12.07417 83.39342 12.15129 84.67639 12.2298 85.95937 12.30968 87.24236 12.39082 88.52533 12.47314 89.80829 12.55656 91.09126 12.64102 92.37425 12.72641 93.65723 12.81264 94.9402 12.89963 96.22318 12.98732 97.50615 13.07559 98.78912 13.16437 100.07211 13.25357 101.35507 13.34311 102.63805 13.43288 103.92104 13.52281 105.20401 13.61282 106.48698 13.7028 107.76996 13.79268 109.05293 13.88235 110.3359 13.97176 111.61888 14.06078 112.90186 14.14935 114.18483 14.23738 115.4678 14.32478 116.7508 14.41148 118.03377 14.49739 119.31673 14.58241 120.59972 14.66647 121.88269 14.7495 123.16566 14.83139 124.44865 14.9121 125.73161 14.99153 127.01459 15.0696 128.29758 15.14624 129.58055 15.22139 130.86351 15.29495 132.14649 15.36688 133.42948 15.43709 134.71245 15.50551"/>
<path transform="matrix(1,0,0,-1,40.779,163.586)" stroke-width=".59776" stroke-linecap="butt" stroke-miterlimit="10" stroke-linejoin="miter" fill="none" stroke="#bf00bf" d="M6.41487 17.36281 7.69785 17.23042 8.98083 17.09691 10.26381 16.96242 11.54678 16.82709 12.82976 16.69106 14.11273 16.55444 15.3957 16.41742 16.67868 16.28009 17.96165 16.14262 19.24463 16.00514 20.5276 15.86778 21.8106 15.73071 23.09357 15.59402 24.37653 15.45792 25.65952 15.32248 26.94249 15.18787 28.22546 15.05423 29.50845 14.92168 30.79141 14.79036 32.07439 14.6604 33.35738 14.53195 34.64035 14.40514 35.92331 14.28006 37.20628 14.15688 38.48927 14.0357 39.77225 13.91666 41.05522 13.79987 42.3382 13.68542 43.62117 13.57347 44.90414 13.46413 46.18713 13.35747 47.47011 13.25363 48.75307 13.1527 50.03606 13.05478 51.31903 12.95998 52.602 12.86838 53.88496 12.78009 55.16795 12.69514 56.45093 12.6137 57.7339 12.53577 59.01689 12.46149 60.29985 12.39087 61.58282 12.32402 62.86581 12.261 64.14879 12.20184 65.43175 12.14665 66.71474 12.09543 67.99771 12.04826 69.28069 12.00516 70.56367 11.96619 71.84663 11.93137 73.12961 11.90074 74.41258 11.87433 75.69557 11.85214 76.97855 11.83421 78.2615 11.82057 79.5445 11.81119 80.82747 11.80608 82.11044 11.80525 83.39342 11.80872 84.67639 11.81647 85.95937 11.82846 87.24236 11.8447 88.52533 11.86517 89.80829 11.88983 91.09126 11.91866 92.37425 11.95163 93.65723 11.98871 94.9402 12.02985 96.22318 12.07501 97.50615 12.12415 98.78912 12.17719 100.07211 12.2341 101.35507 12.29482 102.63805 12.35928 103.92104 12.42741 105.20401 12.49915 106.48698 12.57443 107.76996 12.65317 109.05293 12.73526 110.3359 12.82068 111.61888 12.90929 112.90186 13.00102 114.18483 13.0958 115.4678 13.1935 116.7508 13.29405 118.03377 13.39732 119.31673 13.50325 120.59972 13.61172 121.88269 13.72263 123.16566 13.83583 124.44865 13.95126 125.73161 14.06879 127.01459 14.18831 128.29758 14.30968 129.58055 14.43282 130.86351 14.55757 132.14649 14.68385 133.42948 14.81152 134.71245 14.94044"/>
<path transform="matrix(1,0,0,-1,40.779,163.586)" stroke-width=".59776" stroke-linecap="butt" stroke-miterlimit="10" stroke-linejoin="miter" fill="none" stroke="#00bfbf" d="M6.41487 13.5568 7.69785 13.60365 8.98083 13.65358 10.26381 13.70653 11.54678 13.76245 12.82976 13.82129 14.11273 13.88298 15.3957 13.94748 16.67868 14.0147 17.96165 14.08458 19.24463 14.15706 20.5276 14.23204 21.8106 14.30948 23.09357 14.38927 24.37653 14.47133 25.65952 14.5556 26.94249 14.64198 28.22546 14.73038 29.50845 14.82071 30.79141 14.91286 32.07439 15.00677 33.35738 15.10233 34.64035 15.19943 35.92331 15.29799 37.20628 15.39789 38.48927 15.49904 39.77225 15.60133 41.05522 15.70467 42.3382 15.80893 43.62117 15.91402 44.90414 16.01984 46.18713 16.12625 47.47011 16.23318 48.75307 16.34052 50.03606 16.44812 51.31903 16.55591 52.602 16.66376 53.88496 16.77158 55.16795 16.87924 56.45093 16.98663 57.7339 17.09367 59.01689 17.20024 60.29985 17.30621 61.58282 17.41151 62.86581 17.51602 64.14879 17.61963 65.43175 17.72223 66.71474 17.82375 67.99771 17.92406 69.28069 18.02304 70.56367 18.12067 71.84663 18.21677 73.12961 18.3113 74.41258 18.40413 75.69557 18.4952 76.97855 18.58441 78.2615 18.67168 79.5445 18.7569 80.82747 18.84 82.11044 18.92093 83.39342 18.99957 84.67639 19.07588 85.95937 19.14973 87.24236 19.22113 88.52533 19.28996 89.80829 19.35617 91.09126 19.41968 92.37425 19.48047 93.65723 19.53844 94.9402 19.59355 96.22318 19.64577 97.50615 19.69502 98.78912 19.74127 100.07211 19.78448 101.35507 19.8246 102.63805 19.86162 103.92104 19.89548 105.20401 19.92615 106.48698 19.95363 107.76996 19.97787 109.05293 19.99886 110.3359 20.01656 111.61888 20.031 112.90186 20.04213 114.18483 20.04996 115.4678 20.05449 116.7508 20.05571 118.03377 20.0536 119.31673 20.04819 120.59972 20.0395 121.88269 20.02753 123.16566 20.01225 124.44865 19.99374 125.73161 19.97198 127.01459 19.947 128.29758 19.91885 129.58055 19.88754 130.86351 19.8531 132.14649 19.81555 133.42948 19.77496 134.71245 19.73135"/>
<path transform="matrix(1,0,0,-1,40.779,163.586)" stroke-width=".59776" stroke-linecap="butt" stroke-dasharray=".59776,1.99255" stroke-miterlimit="10" stroke-linejoin="miter" fill="none" stroke="#ff0000" d="M6.41487 140.90767 7.69785 140.82218 8.98083 140.7433 10.26381 140.6711 11.54678 140.60569 12.82976 140.5471 14.11273 140.49546 15.3957 140.45079 16.67868 140.41316 17.96165 140.38262 19.24463 140.35918 20.5276 140.34288 21.8106 140.33374 23.09357 140.33179 24.37653 140.33698 25.65952 140.34935 26.94249 140.36887 28.22546 140.3955 29.50845 140.42922 30.79141 140.46997 32.07439 140.51772 33.35738 140.57242 34.64035 140.63396 35.92331 140.7023 37.20628 140.77733 38.48927 140.859 39.77225 140.94718 41.05522 141.04177 42.3382 141.14263 43.62117 141.24968 44.90414 141.36277 46.18713 141.48177 47.47011 141.60652 48.75307 141.73691 50.03606 141.87277 51.31903 142.01395 52.602 142.16027 53.88496 142.31154 55.16795 142.46762 56.45093 142.62833 57.7339 142.79349 59.01689 142.96288 60.29985 143.13634 61.58282 143.31365 62.86581 143.49465 64.14879 143.6791 65.43175 143.86682 66.71474 144.05759 67.99771 144.25122 69.28069 144.44748 70.56367 144.64617 71.84663 144.84708 73.12961 145.04999 74.41258 145.2547 75.69557 145.46097 76.97855 145.66863 78.2615 145.8774 79.5445 146.08712 80.82747 146.29755 82.11044 146.5085 83.39342 146.71974 84.67639 146.93106 85.95937 147.14228 87.24236 147.35314 88.52533 147.56345 89.80829 147.77304 91.09126 147.98169 92.37425 148.18918 93.65723 148.39536 94.9402 148.59999 96.22318 148.80289 97.50615 149.00389 98.78912 149.20279 100.07211 149.39942 101.35507 149.59357 102.63805 149.7851 103.92104 149.97383 105.20401 150.1596 106.48698 150.34223 107.76996 150.52155 109.05293 150.69744 110.3359 150.8697 111.61888 151.03823 112.90186 151.20287 114.18483 151.36347 115.4678 151.51988 116.7508 151.672 118.03377 151.8197 119.31673 151.96285 120.59972 152.1013 121.88269 152.235 123.16566 152.3638 124.44865 152.48758 125.73161 152.60628 127.01459 152.71979 128.29758 152.828 129.58055 152.93085 130.86351 153.02823 132.14649 153.12009 133.42948 153.20632 134.71245 153.2869"/>
<path transform="matrix(1,0,0,-1,40.779,163.586)" stroke-width=".59776" stroke-linecap="butt" stroke-dasharray=".59776,1.99255" stroke-miterlimit="10" stroke-linejoin="miter" fill="none" stroke="#0000ff" d="M6.41487 144.75485 7.69785 144.86298 8.98083 144.96247 10.26381 145.05326 11.54678 145.1352 12.82976 145.2082 14.11273 145.27223 15.3957 145.32715 16.67868 145.37293 17.96165 145.4095 19.24463 145.43683 20.5276 145.45491 21.8106 145.46369 23.09357 145.46315 24.37653 145.45333 25.65952 145.4342 26.94249 145.40584 28.22546 145.36823 29.50845 145.32146 30.79141 145.26555 32.07439 145.20058 33.35738 145.12665 34.64035 145.04383 35.92331 144.9522 37.20628 144.85189 38.48927 144.74301 39.77225 144.6257 41.05522 144.50009 42.3382 144.36632 43.62117 144.22457 44.90414 144.07497 46.18713 143.91771 47.47011 143.75299 48.75307 143.58097 50.03606 143.40186 51.31903 143.21584 52.602 143.02315 53.88496 142.82402 55.16795 142.61865 56.45093 142.40724 57.7339 142.1901 59.01689 141.9674 60.29985 141.73944 61.58282 141.50644 62.86581 141.26866 64.14879 141.02635 65.43175 140.7798 66.71474 140.52925 67.99771 140.27497 69.28069 140.01726 70.56367 139.75635 71.84663 139.49253 73.12961 139.22609 74.41258 138.9573 75.69557 138.68645 76.97855 138.41379 78.2615 138.13962 79.5445 137.86423 80.82747 137.58788 82.11044 137.31084 83.39342 137.0334 84.67639 136.75585 85.95937 136.47844 87.24236 136.20145 88.52533 135.92516 89.80829 135.64983 91.09126 135.37572 92.37425 135.1031 93.65723 134.83223 94.9402 134.56337 96.22318 134.29679 97.50615 134.03267 98.78912 133.77133 100.07211 133.513 101.35507 133.25788 102.63805 133.00624 103.92104 132.75829 105.20401 132.51427 106.48698 132.27439 107.76996 132.03885 109.05293 131.80786 110.3359 131.58168 111.61888 131.36045 112.90186 131.14437 114.18483 130.93363 115.4678 130.72846 116.7508 130.52895 118.03377 130.33536 119.31673 130.14781 120.59972 129.96645 121.88269 129.79148 123.16566 129.62299 124.44865 129.46117 125.73161 129.30612 127.01459 129.15799 128.29758 129.01692 129.58055 128.883 130.86351 128.75634 132.14649 128.63704 133.42948 128.52523 134.71245 128.42099"/>
<path transform="matrix(1,0,0,-1,40.779,163.586)" stroke-width=".59776" stroke-linecap="butt" stroke-dasharray=".59776,1.99255" stroke-miterlimit="10" stroke-linejoin="miter" fill="none" stroke="#008000" d="M6.41487 136.68054 7.69785 136.69821 8.98083 136.71445 10.26381 136.7292 11.54678 136.74251 12.82976 136.7543 14.11273 136.76459 15.3957 136.77338 16.67868 136.78064 17.96165 136.78638 19.24463 136.79058 20.5276 136.79322 21.8106 136.79433 23.09357 136.79389 24.37653 136.7919 25.65952 136.78836 26.94249 136.78331 28.22546 136.7767 29.50845 136.76857 30.79141 136.75894 32.07439 136.74777 33.35738 136.73514 34.64035 136.72101 35.92331 136.70543 37.20628 136.68839 38.48927 136.66992 39.77225 136.65006 41.05522 136.6288 42.3382 136.60619 43.62117 136.58223 44.90414 136.55695 46.18713 136.5304 47.47011 136.50258 48.75307 136.47356 50.03606 136.44332 51.31903 136.41193 52.602 136.37941 53.88496 136.3458 55.16795 136.31111 56.45093 136.27542 57.7339 136.23874 59.01689 136.20113 60.29985 136.16262 61.58282 136.12322 62.86581 136.08301 64.14879 136.04203 65.43175 136.00029 66.71474 135.95789 67.99771 135.91481 69.28069 135.87114 70.56367 135.8269 71.84663 135.78217 73.12961 135.73696 74.41258 135.6913 75.69557 135.6453 76.97855 135.59896 78.2615 135.55233 79.5445 135.50547 80.82747 135.4584 82.11044 135.41123 83.39342 135.36392 84.67639 135.31659 85.95937 135.26926 87.24236 135.22197 88.52533 135.17478 89.80829 135.1277 91.09126 135.08084 92.37425 135.03418 93.65723 134.9878 94.9402 134.94176 96.22318 134.89606 97.50615 134.85079 98.78912 134.80594 100.07211 134.76161 101.35507 134.7178 102.63805 134.67456 103.92104 134.63196 105.20401 134.59 106.48698 134.54874 107.76996 134.50823 109.05293 134.46848 110.3359 134.42952 111.61888 134.39142 112.90186 134.35422 114.18483 134.3179 115.4678 134.28255 116.7508 134.24819 118.03377 134.21483 119.31673 134.1825 120.59972 134.15125 121.88269 134.1211 123.16566 134.09207 124.44865 134.06421 125.73161 134.0375 127.01459 134.01201 128.29758 133.98775 129.58055 133.96472 130.86351 133.94297 132.14649 133.9225 133.42948 133.90334 134.71245 133.88549"/>
<path transform="matrix(1,0,0,-1,40.779,163.586)" stroke-width=".59776" stroke-linecap="butt" stroke-dasharray=".59776,1.99255" stroke-miterlimit="10" stroke-linejoin="miter" fill="none" stroke="#000000" d="M6.41487 10.12509 7.69785 10.05792 8.98083 9.99213 10.26381 9.92773 11.54678 9.86476 12.82976 9.80327 14.11273 9.74323 15.3957 9.6847 16.67868 9.62767 17.96165 9.57219 19.24463 9.51828 20.5276 9.46596 21.8106 9.41524 23.09357 9.36613 24.37653 9.31866 25.65952 9.27286 26.94249 9.22871 28.22546 9.18628 29.50845 9.14552 30.79141 9.10648 32.07439 9.06915 33.35738 9.03357 34.64035 8.99973 35.92331 8.96764 37.20628 8.93732 38.48927 8.90875 39.77225 8.88196 41.05522 8.85693 42.3382 8.83371 43.62117 8.81226 44.90414 8.7926 46.18713 8.77472 47.47011 8.75864 48.75307 8.74435 50.03606 8.73184 51.31903 8.72112 52.602 8.71216 53.88496 8.70497 55.16795 8.69955 56.45093 8.6959 57.7339 8.69402 59.01689 8.69386 60.29985 8.69547 61.58282 8.69879 62.86581 8.70383 64.14879 8.71057 65.43175 8.71902 66.71474 8.72917 67.99771 8.74098 69.28069 8.75444 70.56367 8.76956 71.84663 8.78632 73.12961 8.80469 74.41258 8.82465 75.69557 8.8462 76.97855 8.86934 78.2615 8.89403 79.5445 8.92024 80.82747 8.948 82.11044 8.97723 83.39342 9.00797 84.67639 9.04018 85.95937 9.07382 87.24236 9.10892 88.52533 9.14542 89.80829 9.1833 91.09126 9.22258 92.37425 9.26321 93.65723 9.30519 94.9402 9.34846 96.22318 9.39307 97.50615 9.43893 98.78912 9.48607 100.07211 9.53445 101.35507 9.58406 102.63805 9.63489 103.92104 9.68689 105.20401 9.74007 106.48698 9.7944 107.76996 9.84985 109.05293 9.90643 110.3359 9.96411 111.61888 10.02287 112.90186 10.08269 114.18483 10.14355 115.4678 10.20546 116.7508 10.26837 118.03377 10.33226 119.31673 10.39713 120.59972 10.46297 121.88269 10.52975 123.16566 10.59746 124.44865 10.66608 125.73161 10.7356 127.01459 10.806 128.29758 10.87727 129.58055 10.94939 130.86351 11.02235 132.14649 11.09613 133.42948 11.17072 134.71245 11.2461"/>
<path transform="matrix(1,0,0,-1,40.779,163.586)" stroke-width=".59776" stroke-linecap="butt" stroke-dasharray=".59776,1.99255" stroke-miterlimit="10" stroke-linejoin="miter" fill="none" stroke="#bf00bf" d="M6.41487 10.68004 7.69785 10.7647 8.98083 10.85068 10.26381 10.93793 11.54678 11.02641 12.82976 11.11612 14.11273 11.20702 15.3957 11.29906 16.67868 11.39223 17.96165 11.4865 19.24463 11.58182 20.5276 11.67818 21.8106 11.77553 23.09357 11.87383 24.37653 11.97307 25.65952 12.0732 26.94249 12.17418 28.22546 12.27597 29.50845 12.37854 30.79141 12.48187 32.07439 12.58589 33.35738 12.69058 34.64035 12.79593 35.92331 12.90186 37.20628 13.00833 38.48927 13.11531 39.77225 13.2228 41.05522 13.33072 42.3382 13.43904 43.62117 13.54773 44.90414 13.65674 46.18713 13.76604 47.47011 13.87558 48.75307 13.98535 50.03606 14.09528 51.31903 14.20535 52.602 14.31554 53.88496 14.42578 55.16795 14.53604 56.45093 14.6463 57.7339 14.75652 59.01689 14.86665 60.29985 14.9767 61.58282 15.08658 62.86581 15.19627 64.14879 15.30576 65.43175 15.41498 66.71474 15.52394 67.99771 15.63258 69.28069 15.74089 70.56367 15.84883 71.84663 15.95636 73.12961 16.06346 74.41258 16.1701 75.69557 16.27626 76.97855 16.38191 78.2615 16.48703 79.5445 16.59157 80.82747 16.69553 82.11044 16.79886 83.39342 16.90155 84.67639 17.0036 85.95937 17.10495 87.24236 17.20561 88.52533 17.30554 89.80829 17.40472 91.09126 17.50314 92.37425 17.60077 93.65723 17.6976 94.9402 17.79362 96.22318 17.88878 97.50615 17.9831 98.78912 18.07654 100.07211 18.16911 101.35507 18.26077 102.63805 18.35152 103.92104 18.44133 105.20401 18.5302 106.48698 18.61813 107.76996 18.70506 109.05293 18.79103 110.3359 18.87604 111.61888 18.96 112.90186 19.04297 114.18483 19.12491 115.4678 19.20583 116.7508 19.28568 118.03377 19.3645 119.31673 19.44226 120.59972 19.51894 121.88269 19.59456 123.16566 19.66907 124.44865 19.7425 125.73161 19.81482 127.01459 19.88603 128.29758 19.95613 129.58055 20.0251 130.86351 20.09294 132.14649 20.15965 133.42948 20.22522 134.71245 20.28963"/>
<path transform="matrix(1,0,0,-1,40.779,163.586)" stroke-width=".59776" stroke-linecap="butt" stroke-dasharray=".59776,1.99255" stroke-miterlimit="10" stroke-linejoin="miter" fill="none" stroke="#00bfbf" d="M6.41487 18.29022 7.69785 18.05516 8.98083 17.81696 10.26381 17.5759 11.54678 17.33223 12.82976 17.08624 14.11273 16.83818 15.3957 16.5883 16.67868 16.3369 17.96165 16.08426 19.24463 15.83063 20.5276 15.57632 21.8106 15.32156 23.09357 15.06667 24.37653 14.8119 25.65952 14.55756 26.94249 14.3039 28.22546 14.0512 29.50845 13.79974 30.79141 13.54979 32.07439 13.30164 33.35738 13.05553 34.64035 12.81174 35.92331 12.57054 37.20628 12.33215 38.48927 12.0969 39.77225 11.86496 41.05522 11.63661 42.3382 11.4121 43.62117 11.19165 44.90414 10.97548 46.18713 10.76385 47.47011 10.55696 48.75307 10.355 50.03606 10.15822 51.31903 9.96678 52.602 9.78087 53.88496 9.6007 55.16795 9.42644 56.45093 9.25826 57.7339 9.0963 59.01689 8.94073 60.29985 8.79172 61.58282 8.64937 62.86581 8.51382 64.14879 8.38521 65.43175 8.26364 66.71474 8.14922 67.99771 8.04202 69.28069 7.94215 70.56367 7.84972 71.84663 7.76476 73.12961 7.68733 74.41258 7.61752 75.69557 7.55534 76.97855 7.50085 78.2615 7.4541 79.5445 7.41505 80.82747 7.38379 82.11044 7.36028 83.39342 7.34451 84.67639 7.3365 85.95937 7.33621 87.24236 7.34363 88.52533 7.3587 89.80829 7.38144 91.09126 7.41173 92.37425 7.44957 93.65723 7.49487 94.9402 7.54759 96.22318 7.60762 97.50615 7.67491 98.78912 7.74936 100.07211 7.83087 101.35507 7.91936 102.63805 8.01471 103.92104 8.11682 105.20401 8.22556 106.48698 8.34082 107.76996 8.46248 109.05293 8.5904 110.3359 8.72443 111.61888 8.86444 112.90186 9.01031 114.18483 9.16187 115.4678 9.31895 116.7508 9.48141 118.03377 9.6491 119.31673 9.82184 120.59972 9.99947 121.88269 10.18181 123.16566 10.36867 124.44865 10.5599 125.73161 10.75531 127.01459 10.95473 128.29758 11.15794 129.58055 11.36478 130.86351 11.57506 132.14649 11.78854 133.42948 12.0051 134.71245 12.2245"/>
<path transform="matrix(1,0,0,-1,40.779,163.586)" stroke-width=".3985" stroke-linecap="butt" stroke-miterlimit="10" stroke-linejoin="miter" fill="none" stroke="#000000" d="M0 15.16191H141.12734"/>
</g>
<path transform="matrix(1,0,0,-1,40.779,163.586)" d="M8.40742 149.10305C8.40742 150.20352 7.51535 151.0956 6.41487 151.0956 5.3144 151.0956 4.42232 150.20352 4.42232 149.10305 4.42232 148.00258 5.3144 147.11049 6.41487 147.11049 7.51535 147.11049 8.40742 148.00258 8.40742 149.10305ZM6.41487 149.10305" fill="#ff0000"/>
<path transform="matrix(1,0,0,-1,40.779,163.586)" stroke-width=".59776" stroke-linecap="butt" stroke-miterlimit="10" stroke-linejoin="miter" fill="none" stroke="#ff0000" d="M8.40742 149.10305C8.40742 150.20352 7.51535 151.0956 6.41487 151.0956 5.3144 151.0956 4.42232 150.20352 4.42232 149.10305 4.42232 148.00258 5.3144 147.11049 6.41487 147.11049 7.51535 147.11049 8.40742 148.00258 8.40742 149.10305ZM6.41487 149.10305"/>
<path transform="matrix(1,0,0,-1,40.779,163.586)" d="M40.48183 148.41461C40.48183 149.51508 39.58975 150.40717 38.48927 150.40717 37.38881 150.40717 36.49672 149.51508 36.49672 148.41461 36.49672 147.31415 37.38881 146.42206 38.48927 146.42206 39.58975 146.42206 40.48183 147.31415 40.48183 148.41461ZM38.48927 148.41461" fill="#ff0000"/>
<path transform="matrix(1,0,0,-1,40.779,163.586)" stroke-width=".59776" stroke-linecap="butt" stroke-miterlimit="10" stroke-linejoin="miter" fill="none" stroke="#ff0000" d="M40.48183 148.41461C40.48183 149.51508 39.58975 150.40717 38.48927 150.40717 37.38881 150.40717 36.49672 149.51508 36.49672 148.41461 36.49672 147.31415 37.38881 146.42206 38.48927 146.42206 39.58975 146.42206 40.48183 147.31415 40.48183 148.41461ZM38.48927 148.41461"/>
<path transform="matrix(1,0,0,-1,40.779,163.586)" d="M72.55623 149.60233C72.55623 150.7028 71.66414 151.59488 70.56367 151.59488 69.4632 151.59488 68.57112 150.7028 68.57112 149.60233 68.57112 148.50186 69.4632 147.60977 70.56367 147.60977 71.66414 147.60977 72.55623 148.50186 72.55623 149.60233ZM70.56367 149.60233" fill="#ff0000"/>
<path transform="matrix(1,0,0,-1,40.779,163.586)" stroke-width=".59776" stroke-linecap="butt" stroke-miterlimit="10" stroke-linejoin="miter" fill="none" stroke="#ff0000" d="M72.55623 149.60233C72.55623 150.7028 71.66414 151.59488 70.56367 151.59488 69.4632 151.59488 68.57112 150.7028 68.57112 149.60233 68.57112 148.50186 69.4632 147.60977 70.56367 147.60977 71.66414 147.60977 72.55623 148.50186 72.55623 149.60233ZM70.56367 149.60233"/>
<path transform="matrix(1,0,0,-1,40.779,163.586)" d="M104.6306 151.94574C104.6306 153.04622 103.73853 153.9383 102.63805 153.9383 101.53758 153.9383 100.6455 153.04622 100.6455 151.94574 100.6455 150.84528 101.53758 149.95319 102.63805 149.95319 103.73853 149.95319 104.6306 150.84528 104.6306 151.94574ZM102.63805 151.94574" fill="#ff0000"/>
<path transform="matrix(1,0,0,-1,40.779,163.586)" stroke-width=".59776" stroke-linecap="butt" stroke-miterlimit="10" stroke-linejoin="miter" fill="none" stroke="#ff0000" d="M104.6306 151.94574C104.6306 153.04622 103.73853 153.9383 102.63805 153.9383 101.53758 153.9383 100.6455 153.04622 100.6455 151.94574 100.6455 150.84528 101.53758 149.95319 102.63805 149.95319 103.73853 149.95319 104.6306 150.84528 104.6306 151.94574ZM102.63805 151.94574"/>
<path transform="matrix(1,0,0,-1,40.779,163.586)" d="M136.705 154.06055C136.705 155.16103 135.81291 156.0531 134.71245 156.0531 133.61197 156.0531 132.7199 155.16103 132.7199 154.06055 132.7199 152.96009 133.61197 152.068 134.71245 152.068 135.81291 152.068 136.705 152.96009 136.705 154.06055ZM134.71245 154.06055" fill="#ff0000"/>
<path transform="matrix(1,0,0,-1,40.779,163.586)" stroke-width=".59776" stroke-linecap="butt" stroke-miterlimit="10" stroke-linejoin="miter" fill="none" stroke="#ff0000" d="M136.705 154.06055C136.705 155.16103 135.81291 156.0531 134.71245 156.0531 133.61197 156.0531 132.7199 155.16103 132.7199 154.06055 132.7199 152.96009 133.61197 152.068 134.71245 152.068 135.81291 152.068 136.705 152.96009 136.705 154.06055ZM134.71245 154.06055"/>
<path transform="matrix(1,0,0,-1,40.779,163.586)" stroke-width=".59776" stroke-linecap="butt" stroke-miterlimit="10" stroke-linejoin="miter" fill="none" stroke="#ff0000" d=""/>
<path transform="matrix(1,0,0,-1,40.779,163.586)" stroke-width=".59776" stroke-linecap="butt" stroke-miterlimit="10" stroke-linejoin="miter" fill="none" stroke="#0000ff" d="M5.00592 135.8616 7.82382 138.6795M5.00592 138.6795 7.82382 135.8616"/>
<path transform="matrix(1,0,0,-1,40.779,163.586)" stroke-width=".59776" stroke-linecap="butt" stroke-miterlimit="10" stroke-linejoin="miter" fill="none" stroke="#0000ff" d="M37.08032 137.54538 39.89822 140.36328M37.08032 140.36328 39.89822 137.54538"/>
<path transform="matrix(1,0,0,-1,40.779,163.586)" stroke-width=".59776" stroke-linecap="butt" stroke-miterlimit="10" stroke-linejoin="miter" fill="none" stroke="#0000ff" d="M69.15472 137.58846 71.97263 140.40636M69.15472 140.40636 71.97263 137.58846"/>
<path transform="matrix(1,0,0,-1,40.779,163.586)" stroke-width=".59776" stroke-linecap="butt" stroke-miterlimit="10" stroke-linejoin="miter" fill="none" stroke="#0000ff" d="M101.2291 136.00048 104.047 138.81838M101.2291 138.81838 104.047 136.00048"/>
<path transform="matrix(1,0,0,-1,40.779,163.586)" stroke-width=".59776" stroke-linecap="butt" stroke-miterlimit="10" stroke-linejoin="miter" fill="none" stroke="#0000ff" d="M133.3035 133.72795 136.1214 136.54586M133.3035 136.54586 136.1214 133.72795"/>
<path transform="matrix(1,0,0,-1,40.779,163.586)" stroke-width=".59776" stroke-linecap="butt" stroke-miterlimit="10" stroke-linejoin="miter" fill="none" stroke="#0000ff" d=""/>
<path transform="matrix(1,0,0,-1,40.779,163.586)" d="M6.41487 137.96202 8.14049 134.97319H4.68927Z" fill="#008000"/>
<path transform="matrix(1,0,0,-1,40.779,163.586)" stroke-width=".59776" stroke-linecap="butt" stroke-miterlimit="10" stroke-linejoin="miter" fill="none" stroke="#008000" d="M6.41487 137.96202 8.14049 134.97319H4.68927Z"/>
<path transform="matrix(1,0,0,-1,40.779,163.586)" d="M38.48927 136.89556 40.21487 133.90673H36.76367Z" fill="#008000"/>
<path transform="matrix(1,0,0,-1,40.779,163.586)" stroke-width=".59776" stroke-linecap="butt" stroke-miterlimit="10" stroke-linejoin="miter" fill="none" stroke="#008000" d="M38.48927 136.89556 40.21487 133.90673H36.76367Z"/>
<path transform="matrix(1,0,0,-1,40.779,163.586)" d="M70.56367 133.62224 72.28928 130.6334H68.83806Z" fill="#008000"/>
<path transform="matrix(1,0,0,-1,40.779,163.586)" stroke-width=".59776" stroke-linecap="butt" stroke-miterlimit="10" stroke-linejoin="miter" fill="none" stroke="#008000" d="M70.56367 133.62224 72.28928 130.6334H68.83806Z"/>
<path transform="matrix(1,0,0,-1,40.779,163.586)" d="M102.63805 130.1033 104.36366 127.11447H100.91245Z" fill="#008000"/>
<path transform="matrix(1,0,0,-1,40.779,163.586)" stroke-width=".59776" stroke-linecap="butt" stroke-miterlimit="10" stroke-linejoin="miter" fill="none" stroke="#008000" d="M102.63805 130.1033 104.36366 127.11447H100.91245Z"/>
<path transform="matrix(1,0,0,-1,40.779,163.586)" d="M134.71245 128.38848 136.43805 125.39964H132.98683Z" fill="#008000"/>
<path transform="matrix(1,0,0,-1,40.779,163.586)" stroke-width=".59776" stroke-linecap="butt" stroke-miterlimit="10" stroke-linejoin="miter" fill="none" stroke="#008000" d="M134.71245 128.38848 136.43805 125.39964H132.98683Z"/>
<path transform="matrix(1,0,0,-1,40.779,163.586)" stroke-width=".59776" stroke-linecap="butt" stroke-miterlimit="10" stroke-linejoin="miter" fill="none" stroke="#008000" d=""/>
<path transform="matrix(1,0,0,-1,40.779,163.586)" d="M6.41487 9.73886 4.68927 12.72769H8.14049Z"/>
<path transform="matrix(1,0,0,-1,40.779,163.586)" stroke-width=".59776" stroke-linecap="butt" stroke-miterlimit="10" stroke-linejoin="miter" fill="none" stroke="#000000" d="M6.41487 9.73886 4.68927 12.72769H8.14049Z"/>
<path transform="matrix(1,0,0,-1,40.779,163.586)" d="M38.48927 8.75061 36.76367 11.73944H40.21487Z"/>
<path transform="matrix(1,0,0,-1,40.779,163.586)" stroke-width=".59776" stroke-linecap="butt" stroke-miterlimit="10" stroke-linejoin="miter" fill="none" stroke="#000000" d="M38.48927 8.75061 36.76367 11.73944H40.21487Z"/>
<path transform="matrix(1,0,0,-1,40.779,163.586)" d="M70.56367 9.464 68.83806 12.45284H72.28928Z"/>
<path transform="matrix(1,0,0,-1,40.779,163.586)" stroke-width=".59776" stroke-linecap="butt" stroke-miterlimit="10" stroke-linejoin="miter" fill="none" stroke="#000000" d="M70.56367 9.464 68.83806 12.45284H72.28928Z"/>
<path transform="matrix(1,0,0,-1,40.779,163.586)" d="M102.63805 11.44032 100.91245 14.42915H104.36366Z"/>
<path transform="matrix(1,0,0,-1,40.779,163.586)" stroke-width=".59776" stroke-linecap="butt" stroke-miterlimit="10" stroke-linejoin="miter" fill="none" stroke="#000000" d="M102.63805 11.44032 100.91245 14.42915H104.36366Z"/>
<path transform="matrix(1,0,0,-1,40.779,163.586)" d="M134.71245 13.51295 132.98683 16.50179H136.43805Z"/>
<path transform="matrix(1,0,0,-1,40.779,163.586)" stroke-width=".59776" stroke-linecap="butt" stroke-miterlimit="10" stroke-linejoin="miter" fill="none" stroke="#000000" d="M134.71245 13.51295 132.98683 16.50179H136.43805Z"/>
<path transform="matrix(1,0,0,-1,40.779,163.586)" stroke-width=".59776" stroke-linecap="butt" stroke-miterlimit="10" stroke-linejoin="miter" fill="none" stroke="#000000" d=""/>
<path transform="matrix(1,0,0,-1,40.779,163.586)" d="M6.41487 19.35536 7.90929 17.36281 6.41487 15.37025 4.92046 17.36281Z" fill="#bf00bf"/>
<path transform="matrix(1,0,0,-1,40.779,163.586)" stroke-width=".59776" stroke-linecap="butt" stroke-miterlimit="10" stroke-linejoin="miter" fill="none" stroke="#bf00bf" d="M6.41487 19.35536 7.90929 17.36281 6.41487 15.37025 4.92046 17.36281Z"/>
<path transform="matrix(1,0,0,-1,40.779,163.586)" d="M38.48927 16.02826 39.98369 14.0357 38.48927 12.04315 36.99486 14.0357Z" fill="#bf00bf"/>
<path transform="matrix(1,0,0,-1,40.779,163.586)" stroke-width=".59776" stroke-linecap="butt" stroke-miterlimit="10" stroke-linejoin="miter" fill="none" stroke="#bf00bf" d="M38.48927 16.02826 39.98369 14.0357 38.48927 12.04315 36.99486 14.0357Z"/>
<path transform="matrix(1,0,0,-1,40.779,163.586)" d="M70.56367 13.95874 72.05809 11.96619 70.56367 9.97363 69.06926 11.96619Z" fill="#bf00bf"/>
<path transform="matrix(1,0,0,-1,40.779,163.586)" stroke-width=".59776" stroke-linecap="butt" stroke-miterlimit="10" stroke-linejoin="miter" fill="none" stroke="#bf00bf" d="M70.56367 13.95874 72.05809 11.96619 70.56367 9.97363 69.06926 11.96619Z"/>
<path transform="matrix(1,0,0,-1,40.779,163.586)" d="M102.63805 14.35184 104.13246 12.35928 102.63805 10.36673 101.14363 12.35928Z" fill="#bf00bf"/>
<path transform="matrix(1,0,0,-1,40.779,163.586)" stroke-width=".59776" stroke-linecap="butt" stroke-miterlimit="10" stroke-linejoin="miter" fill="none" stroke="#bf00bf" d="M102.63805 14.35184 104.13246 12.35928 102.63805 10.36673 101.14363 12.35928Z"/>
<path transform="matrix(1,0,0,-1,40.779,163.586)" d="M134.71245 16.933 136.20687 14.94044 134.71245 12.94789 133.21804 14.94044Z" fill="#bf00bf"/>
<path transform="matrix(1,0,0,-1,40.779,163.586)" stroke-width=".59776" stroke-linecap="butt" stroke-miterlimit="10" stroke-linejoin="miter" fill="none" stroke="#bf00bf" d="M134.71245 16.933 136.20687 14.94044 134.71245 12.94789 133.21804 14.94044Z"/>
<path transform="matrix(1,0,0,-1,40.779,163.586)" stroke-width=".59776" stroke-linecap="butt" stroke-miterlimit="10" stroke-linejoin="miter" fill="none" stroke="#bf00bf" d=""/>
<path transform="matrix(1,0,0,-1,40.779,163.586)" d="M6.41487 15.54935 8.30992 14.17253 7.58607 11.94478H5.24368L4.51984 14.17253Z" fill="#00bfbf"/>
<path transform="matrix(1,0,0,-1,40.779,163.586)" stroke-width=".59776" stroke-linecap="butt" stroke-miterlimit="10" stroke-linejoin="miter" fill="none" stroke="#00bfbf" d="M6.41487 15.54935 8.30992 14.17253 7.58607 11.94478H5.24368L4.51984 14.17253Z"/>
<path transform="matrix(1,0,0,-1,40.779,163.586)" d="M38.48927 17.4916 40.38432 16.11478 39.66046 13.88701H37.31808L36.59422 16.11478Z" fill="#00bfbf"/>
<path transform="matrix(1,0,0,-1,40.779,163.586)" stroke-width=".59776" stroke-linecap="butt" stroke-miterlimit="10" stroke-linejoin="miter" fill="none" stroke="#00bfbf" d="M38.48927 17.4916 40.38432 16.11478 39.66046 13.88701H37.31808L36.59422 16.11478Z"/>
<path transform="matrix(1,0,0,-1,40.779,163.586)" d="M70.56367 20.11322 72.45872 18.7364 71.73486 16.50864H69.39247L68.66862 18.7364Z" fill="#00bfbf"/>
<path transform="matrix(1,0,0,-1,40.779,163.586)" stroke-width=".59776" stroke-linecap="butt" stroke-miterlimit="10" stroke-linejoin="miter" fill="none" stroke="#00bfbf" d="M70.56367 20.11322 72.45872 18.7364 71.73486 16.50864H69.39247L68.66862 18.7364Z"/>
<path transform="matrix(1,0,0,-1,40.779,163.586)" d="M102.63805 21.85417 104.5331 20.47736 103.80923 18.2496H101.46686L100.743 20.47736Z" fill="#00bfbf"/>
<path transform="matrix(1,0,0,-1,40.779,163.586)" stroke-width=".59776" stroke-linecap="butt" stroke-miterlimit="10" stroke-linejoin="miter" fill="none" stroke="#00bfbf" d="M102.63805 21.85417 104.5331 20.47736 103.80923 18.2496H101.46686L100.743 20.47736Z"/>
<path transform="matrix(1,0,0,-1,40.779,163.586)" d="M134.71245 21.7239 136.6075 20.34709 135.88364 18.11934H133.54126L132.8174 20.34709Z" fill="#00bfbf"/>
<path transform="matrix(1,0,0,-1,40.779,163.586)" stroke-width=".59776" stroke-linecap="butt" stroke-miterlimit="10" stroke-linejoin="miter" fill="none" stroke="#00bfbf" d="M134.71245 21.7239 136.6075 20.34709 135.88364 18.11934H133.54126L132.8174 20.34709Z"/>
<path transform="matrix(1,0,0,-1,40.779,163.586)" stroke-width=".59776" stroke-linecap="butt" stroke-miterlimit="10" stroke-linejoin="miter" fill="none" stroke="#00bfbf" d=""/>
<path transform="matrix(1,0,0,-1,40.779,163.586)" d="M8.40742 140.90767C8.40742 142.00814 7.51535 142.90023 6.41487 142.90023 5.3144 142.90023 4.42232 142.00814 4.42232 140.90767 4.42232 139.80719 5.3144 138.91512 6.41487 138.91512 7.51535 138.91512 8.40742 139.80719 8.40742 140.90767ZM6.41487 140.90767" fill="#ff0000"/>
<path transform="matrix(1,0,0,-1,40.779,163.586)" stroke-width=".59776" stroke-linecap="butt" stroke-miterlimit="10" stroke-linejoin="miter" fill="none" stroke="#ff0000" d="M8.40742 140.90767C8.40742 142.00814 7.51535 142.90023 6.41487 142.90023 5.3144 142.90023 4.42232 142.00814 4.42232 140.90767 4.42232 139.80719 5.3144 138.91512 6.41487 138.91512 7.51535 138.91512 8.40742 139.80719 8.40742 140.90767ZM6.41487 140.90767"/>
<path transform="matrix(1,0,0,-1,40.779,163.586)" d="M40.48183 140.859C40.48183 141.95948 39.58975 142.85155 38.48927 142.85155 37.38881 142.85155 36.49672 141.95948 36.49672 140.859 36.49672 139.75853 37.38881 138.86644 38.48927 138.86644 39.58975 138.86644 40.48183 139.75853 40.48183 140.859ZM38.48927 140.859" fill="#ff0000"/>
<path transform="matrix(1,0,0,-1,40.779,163.586)" stroke-width=".59776" stroke-linecap="butt" stroke-miterlimit="10" stroke-linejoin="miter" fill="none" stroke="#ff0000" d="M40.48183 140.859C40.48183 141.95948 39.58975 142.85155 38.48927 142.85155 37.38881 142.85155 36.49672 141.95948 36.49672 140.859 36.49672 139.75853 37.38881 138.86644 38.48927 138.86644 39.58975 138.86644 40.48183 139.75853 40.48183 140.859ZM38.48927 140.859"/>
<path transform="matrix(1,0,0,-1,40.779,163.586)" d="M72.55623 144.64617C72.55623 145.74663 71.66414 146.63872 70.56367 146.63872 69.4632 146.63872 68.57112 145.74663 68.57112 144.64617 68.57112 143.54569 69.4632 142.65361 70.56367 142.65361 71.66414 142.65361 72.55623 143.54569 72.55623 144.64617ZM70.56367 144.64617" fill="#ff0000"/>
<path transform="matrix(1,0,0,-1,40.779,163.586)" stroke-width=".59776" stroke-linecap="butt" stroke-miterlimit="10" stroke-linejoin="miter" fill="none" stroke="#ff0000" d="M72.55623 144.64617C72.55623 145.74663 71.66414 146.63872 70.56367 146.63872 69.4632 146.63872 68.57112 145.74663 68.57112 144.64617 68.57112 143.54569 69.4632 142.65361 70.56367 142.65361 71.66414 142.65361 72.55623 143.54569 72.55623 144.64617ZM70.56367 144.64617"/>
<path transform="matrix(1,0,0,-1,40.779,163.586)" d="M104.6306 149.7851C104.6306 150.88558 103.73853 151.77765 102.63805 151.77765 101.53758 151.77765 100.6455 150.88558 100.6455 149.7851 100.6455 148.68463 101.53758 147.79254 102.63805 147.79254 103.73853 147.79254 104.6306 148.68463 104.6306 149.7851ZM102.63805 149.7851" fill="#ff0000"/>
<path transform="matrix(1,0,0,-1,40.779,163.586)" stroke-width=".59776" stroke-linecap="butt" stroke-miterlimit="10" stroke-linejoin="miter" fill="none" stroke="#ff0000" d="M104.6306 149.7851C104.6306 150.88558 103.73853 151.77765 102.63805 151.77765 101.53758 151.77765 100.6455 150.88558 100.6455 149.7851 100.6455 148.68463 101.53758 147.79254 102.63805 147.79254 103.73853 147.79254 104.6306 148.68463 104.6306 149.7851ZM102.63805 149.7851"/>
<path transform="matrix(1,0,0,-1,40.779,163.586)" d="M136.705 153.2869C136.705 154.38736 135.81291 155.27945 134.71245 155.27945 133.61197 155.27945 132.7199 154.38736 132.7199 153.2869 132.7199 152.18642 133.61197 151.29434 134.71245 151.29434 135.81291 151.29434 136.705 152.18642 136.705 153.2869ZM134.71245 153.2869" fill="#ff0000"/>
<path transform="matrix(1,0,0,-1,40.779,163.586)" stroke-width=".59776" stroke-linecap="butt" stroke-miterlimit="10" stroke-linejoin="miter" fill="none" stroke="#ff0000" d="M136.705 153.2869C136.705 154.38736 135.81291 155.27945 134.71245 155.27945 133.61197 155.27945 132.7199 154.38736 132.7199 153.2869 132.7199 152.18642 133.61197 151.29434 134.71245 151.29434 135.81291 151.29434 136.705 152.18642 136.705 153.2869ZM134.71245 153.2869"/>
<path transform="matrix(1,0,0,-1,40.779,163.586)" stroke-width=".59776" stroke-linecap="butt" stroke-miterlimit="10" stroke-linejoin="miter" fill="none" stroke="#ff0000" d=""/>
<path transform="matrix(1,0,0,-1,40.779,163.586)" stroke-width=".59776" stroke-linecap="butt" stroke-miterlimit="10" stroke-linejoin="miter" fill="none" stroke="#0000ff" d="M5.00592 143.3459 7.82382 146.1638M5.00592 146.1638 7.82382 143.3459"/>
<path transform="matrix(1,0,0,-1,40.779,163.586)" stroke-width=".59776" stroke-linecap="butt" stroke-miterlimit="10" stroke-linejoin="miter" fill="none" stroke="#0000ff" d="M37.08032 143.33406 39.89822 146.15196M37.08032 146.15196 39.89822 143.33406"/>
<path transform="matrix(1,0,0,-1,40.779,163.586)" stroke-width=".59776" stroke-linecap="butt" stroke-miterlimit="10" stroke-linejoin="miter" fill="none" stroke="#0000ff" d="M69.15472 138.3474 71.97263 141.16529M69.15472 141.16529 71.97263 138.3474"/>
<path transform="matrix(1,0,0,-1,40.779,163.586)" stroke-width=".59776" stroke-linecap="butt" stroke-miterlimit="10" stroke-linejoin="miter" fill="none" stroke="#0000ff" d="M101.2291 131.59729 104.047 134.41519M101.2291 134.41519 104.047 131.59729"/>
<path transform="matrix(1,0,0,-1,40.779,163.586)" stroke-width=".59776" stroke-linecap="butt" stroke-miterlimit="10" stroke-linejoin="miter" fill="none" stroke="#0000ff" d="M133.3035 127.01204 136.1214 129.82994M133.3035 129.82994 136.1214 127.01204"/>
<path transform="matrix(1,0,0,-1,40.779,163.586)" stroke-width=".59776" stroke-linecap="butt" stroke-miterlimit="10" stroke-linejoin="miter" fill="none" stroke="#0000ff" d=""/>
<path transform="matrix(1,0,0,-1,40.779,163.586)" d="M6.41487 138.6731 8.14049 135.68427H4.68927Z" fill="#008000"/>
<path transform="matrix(1,0,0,-1,40.779,163.586)" stroke-width=".59776" stroke-linecap="butt" stroke-miterlimit="10" stroke-linejoin="miter" fill="none" stroke="#008000" d="M6.41487 138.6731 8.14049 135.68427H4.68927Z"/>
<path transform="matrix(1,0,0,-1,40.779,163.586)" d="M38.48927 138.66248 40.21487 135.67365H36.76367Z" fill="#008000"/>
<path transform="matrix(1,0,0,-1,40.779,163.586)" stroke-width=".59776" stroke-linecap="butt" stroke-miterlimit="10" stroke-linejoin="miter" fill="none" stroke="#008000" d="M38.48927 138.66248 40.21487 135.67365H36.76367Z"/>
<path transform="matrix(1,0,0,-1,40.779,163.586)" d="M70.56367 137.81946 72.28928 134.83063H68.83806Z" fill="#008000"/>
<path transform="matrix(1,0,0,-1,40.779,163.586)" stroke-width=".59776" stroke-linecap="butt" stroke-miterlimit="10" stroke-linejoin="miter" fill="none" stroke="#008000" d="M70.56367 137.81946 72.28928 134.83063H68.83806Z"/>
<path transform="matrix(1,0,0,-1,40.779,163.586)" d="M102.63805 136.66712 104.36366 133.67829H100.91245Z" fill="#008000"/>
<path transform="matrix(1,0,0,-1,40.779,163.586)" stroke-width=".59776" stroke-linecap="butt" stroke-miterlimit="10" stroke-linejoin="miter" fill="none" stroke="#008000" d="M102.63805 136.66712 104.36366 133.67829H100.91245Z"/>
<path transform="matrix(1,0,0,-1,40.779,163.586)" d="M134.71245 135.87804 136.43805 132.8892H132.98683Z" fill="#008000"/>
<path transform="matrix(1,0,0,-1,40.779,163.586)" stroke-width=".59776" stroke-linecap="butt" stroke-miterlimit="10" stroke-linejoin="miter" fill="none" stroke="#008000" d="M134.71245 135.87804 136.43805 132.8892H132.98683Z"/>
<path transform="matrix(1,0,0,-1,40.779,163.586)" stroke-width=".59776" stroke-linecap="butt" stroke-miterlimit="10" stroke-linejoin="miter" fill="none" stroke="#008000" d=""/>
<path transform="matrix(1,0,0,-1,40.779,163.586)" d="M6.41487 8.13254 4.68927 11.12137H8.14049Z"/>
<path transform="matrix(1,0,0,-1,40.779,163.586)" stroke-width=".59776" stroke-linecap="butt" stroke-miterlimit="10" stroke-linejoin="miter" fill="none" stroke="#000000" d="M6.41487 8.13254 4.68927 11.12137H8.14049Z"/>
<path transform="matrix(1,0,0,-1,40.779,163.586)" d="M38.48927 6.9162 36.76367 9.90503H40.21487Z"/>
<path transform="matrix(1,0,0,-1,40.779,163.586)" stroke-width=".59776" stroke-linecap="butt" stroke-miterlimit="10" stroke-linejoin="miter" fill="none" stroke="#000000" d="M38.48927 6.9162 36.76367 9.90503H40.21487Z"/>
<path transform="matrix(1,0,0,-1,40.779,163.586)" d="M70.56367 6.77701 68.83806 9.76584H72.28928Z"/>
<path transform="matrix(1,0,0,-1,40.779,163.586)" stroke-width=".59776" stroke-linecap="butt" stroke-miterlimit="10" stroke-linejoin="miter" fill="none" stroke="#000000" d="M70.56367 6.77701 68.83806 9.76584H72.28928Z"/>
<path transform="matrix(1,0,0,-1,40.779,163.586)" d="M102.63805 7.64233 100.91245 10.63116H104.36366Z"/>
<path transform="matrix(1,0,0,-1,40.779,163.586)" stroke-width=".59776" stroke-linecap="butt" stroke-miterlimit="10" stroke-linejoin="miter" fill="none" stroke="#000000" d="M102.63805 7.64233 100.91245 10.63116H104.36366Z"/>
<path transform="matrix(1,0,0,-1,40.779,163.586)" d="M134.71245 9.25354 132.98683 12.24237H136.43805Z"/>
<path transform="matrix(1,0,0,-1,40.779,163.586)" stroke-width=".59776" stroke-linecap="butt" stroke-miterlimit="10" stroke-linejoin="miter" fill="none" stroke="#000000" d="M134.71245 9.25354 132.98683 12.24237H136.43805Z"/>
<path transform="matrix(1,0,0,-1,40.779,163.586)" stroke-width=".59776" stroke-linecap="butt" stroke-miterlimit="10" stroke-linejoin="miter" fill="none" stroke="#000000" d=""/>
<path transform="matrix(1,0,0,-1,40.779,163.586)" d="M6.41487 12.67259 7.90929 10.68004 6.41487 8.68748 4.92046 10.68004Z" fill="#bf00bf"/>
<path transform="matrix(1,0,0,-1,40.779,163.586)" stroke-width=".59776" stroke-linecap="butt" stroke-miterlimit="10" stroke-linejoin="miter" fill="none" stroke="#bf00bf" d="M6.41487 12.67259 7.90929 10.68004 6.41487 8.68748 4.92046 10.68004Z"/>
<path transform="matrix(1,0,0,-1,40.779,163.586)" d="M38.48927 15.10786 39.98369 13.11531 38.48927 11.12276 36.99486 13.11531Z" fill="#bf00bf"/>
<path transform="matrix(1,0,0,-1,40.779,163.586)" stroke-width=".59776" stroke-linecap="butt" stroke-miterlimit="10" stroke-linejoin="miter" fill="none" stroke="#bf00bf" d="M38.48927 15.10786 39.98369 13.11531 38.48927 11.12276 36.99486 13.11531Z"/>
<path transform="matrix(1,0,0,-1,40.779,163.586)" d="M70.56367 17.84138 72.05809 15.84883 70.56367 13.85628 69.06926 15.84883Z" fill="#bf00bf"/>
<path transform="matrix(1,0,0,-1,40.779,163.586)" stroke-width=".59776" stroke-linecap="butt" stroke-miterlimit="10" stroke-linejoin="miter" fill="none" stroke="#bf00bf" d="M70.56367 17.84138 72.05809 15.84883 70.56367 13.85628 69.06926 15.84883Z"/>
<path transform="matrix(1,0,0,-1,40.779,163.586)" d="M102.63805 20.34407 104.13246 18.35152 102.63805 16.35896 101.14363 18.35152Z" fill="#bf00bf"/>
<path transform="matrix(1,0,0,-1,40.779,163.586)" stroke-width=".59776" stroke-linecap="butt" stroke-miterlimit="10" stroke-linejoin="miter" fill="none" stroke="#bf00bf" d="M102.63805 20.34407 104.13246 18.35152 102.63805 16.35896 101.14363 18.35152Z"/>
<path transform="matrix(1,0,0,-1,40.779,163.586)" d="M134.71245 22.28218 136.20687 20.28963 134.71245 18.29707 133.21804 20.28963Z" fill="#bf00bf"/>
<path transform="matrix(1,0,0,-1,40.779,163.586)" stroke-width=".59776" stroke-linecap="butt" stroke-miterlimit="10" stroke-linejoin="miter" fill="none" stroke="#bf00bf" d="M134.71245 22.28218 136.20687 20.28963 134.71245 18.29707 133.21804 20.28963Z"/>
<path transform="matrix(1,0,0,-1,40.779,163.586)" stroke-width=".59776" stroke-linecap="butt" stroke-miterlimit="10" stroke-linejoin="miter" fill="none" stroke="#bf00bf" d=""/>
<path transform="matrix(1,0,0,-1,40.779,163.586)" d="M6.41487 20.28278 8.30992 18.90596 7.58607 16.6782H5.24368L4.51984 18.90596Z" fill="#00bfbf"/>
<path transform="matrix(1,0,0,-1,40.779,163.586)" stroke-width=".59776" stroke-linecap="butt" stroke-miterlimit="10" stroke-linejoin="miter" fill="none" stroke="#00bfbf" d="M6.41487 20.28278 8.30992 18.90596 7.58607 16.6782H5.24368L4.51984 18.90596Z"/>
<path transform="matrix(1,0,0,-1,40.779,163.586)" d="M38.48927 14.08945 40.38432 12.71263 39.66046 10.48488H37.31808L36.59422 12.71263Z" fill="#00bfbf"/>
<path transform="matrix(1,0,0,-1,40.779,163.586)" stroke-width=".59776" stroke-linecap="butt" stroke-miterlimit="10" stroke-linejoin="miter" fill="none" stroke="#00bfbf" d="M38.48927 14.08945 40.38432 12.71263 39.66046 10.48488H37.31808L36.59422 12.71263Z"/>
<path transform="matrix(1,0,0,-1,40.779,163.586)" d="M70.56367 9.84227 72.45872 8.46545 71.73486 6.2377H69.39247L68.66862 8.46545Z" fill="#00bfbf"/>
<path transform="matrix(1,0,0,-1,40.779,163.586)" stroke-width=".59776" stroke-linecap="butt" stroke-miterlimit="10" stroke-linejoin="miter" fill="none" stroke="#00bfbf" d="M70.56367 9.84227 72.45872 8.46545 71.73486 6.2377H69.39247L68.66862 8.46545Z"/>
<path transform="matrix(1,0,0,-1,40.779,163.586)" d="M102.63805 10.00726 104.5331 8.63045 103.80923 6.40268H101.46686L100.743 8.63045Z" fill="#00bfbf"/>
<path transform="matrix(1,0,0,-1,40.779,163.586)" stroke-width=".59776" stroke-linecap="butt" stroke-miterlimit="10" stroke-linejoin="miter" fill="none" stroke="#00bfbf" d="M102.63805 10.00726 104.5331 8.63045 103.80923 6.40268H101.46686L100.743 8.63045Z"/>
<path transform="matrix(1,0,0,-1,40.779,163.586)" d="M134.71245 14.21706 136.6075 12.84024 135.88364 10.61247H133.54126L132.8174 12.84024Z" fill="#00bfbf"/>
<path transform="matrix(1,0,0,-1,40.779,163.586)" stroke-width=".59776" stroke-linecap="butt" stroke-miterlimit="10" stroke-linejoin="miter" fill="none" stroke="#00bfbf" d="M134.71245 14.21706 136.6075 12.84024 135.88364 10.61247H133.54126L132.8174 12.84024Z"/>
<path transform="matrix(1,0,0,-1,40.779,163.586)" stroke-width=".59776" stroke-linecap="butt" stroke-miterlimit="10" stroke-linejoin="miter" fill="none" stroke="#00bfbf" d=""/>
<use data-text="&#x1d719;" xlink:href="#font_1_3191" transform="matrix(9.96264,0,0,-9.96264,134.70099,191.727)"/>
<use data-text="&#x1d438;" xlink:href="#font_1_2480" transform="matrix(0,-9.96264,-9.96264,-0,11.819,98.432)"/>
<use data-text="&#x00d7;" xlink:href="#font_1_183" transform="matrix(0,-9.96264,-9.96264,-0,11.819,88.50921)"/>
<use data-text="&#x1d435;" xlink:href="#font_1_2477" transform="matrix(0,-9.96264,-9.96264,-0,11.819,79.92141)"/>
<use data-text="&#x1d456;" xlink:href="#font_3_2509" transform="matrix(0,-7.47198,-7.47198,-0,14.309998,72.983)"/>
<use data-text="&#x1d457;" xlink:href="#font_3_2510" transform="matrix(0,-7.47198,-7.47198,-0,14.309998,70.65921)"/>
<path transform="matrix(1,0,0,-1,40.779,163.586)" d="M148.4631 31.96927H188.24524V156.3555H148.4631Z" fill="#ffffff" fill-opacity=".8"/>
<path transform="matrix(1,0,0,-1,40.779,163.586)" stroke-width=".3985" stroke-linecap="butt" stroke-miterlimit="10" stroke-linejoin="miter" fill="none" stroke="#cccccc" d="M148.4631 31.96927H188.24524V156.3555H148.4631Z"/>
<path transform="matrix(1,0,0,-1,192.528,14.241005)" stroke-width=".59776" stroke-linecap="butt" stroke-miterlimit="10" stroke-linejoin="miter" fill="none" stroke="#ff0000" d="M0 0H8.50412 17.00826"/>
<path transform="matrix(1,0,0,-1,192.528,14.241005)" d="M10.49667 0C10.49667 1.10046 9.60458 1.99255 8.50412 1.99255 7.40364 1.99255 6.51157 1.10046 6.51157 0 6.51157-1.10046 7.40364-1.99255 8.50412-1.99255 9.60458-1.99255 10.49667-1.10046 10.49667 0ZM8.50412 0" fill="#ff0000" fill-opacity=".8"/>
<path transform="matrix(1,0,0,-1,192.528,14.241005)" stroke-width=".59776" stroke-linecap="butt" stroke-miterlimit="10" stroke-linejoin="miter" fill="none" stroke="#ff0000" d="M10.49667 0C10.49667 1.10046 9.60458 1.99255 8.50412 1.99255 7.40364 1.99255 6.51157 1.10046 6.51157 0 6.51157-1.10046 7.40364-1.99255 8.50412-1.99255 9.60458-1.99255 10.49667-1.10046 10.49667 0ZM8.50412 0"/>
<use data-text="&#x1d435;" xlink:href="#font_3_2477" transform="matrix(6.97385,0,0,-6.97385,211.828,15.771011)"/>
<use data-text="&#x2113;" xlink:href="#font_4_974" transform="matrix(4.98132,0,0,-4.98132,216.681,17.515)"/>
<use data-text="&#x2113;" xlink:href="#font_4_974" transform="matrix(4.98132,0,0,-4.98132,219.56519,17.515)"/>
<path transform="matrix(1,0,0,-1,192.528,24.275006)" stroke-width=".59776" stroke-linecap="butt" stroke-miterlimit="10" stroke-linejoin="miter" fill="none" stroke="#0000ff" d="M0 0H8.50412 17.00826"/>
<path transform="matrix(1,0,0,-1,192.528,24.275006)" stroke-width=".59776" stroke-linecap="butt" stroke-miterlimit="10" stroke-linejoin="miter" fill="none" stroke="#0000ff" d="M7.09517-1.40894 9.91307 1.40894M7.09517 1.40894 9.91307-1.40894"/>
<use data-text="&#x1d435;" xlink:href="#font_3_2477" transform="matrix(6.97385,0,0,-6.97385,211.828,25.804)"/>
<use data-text="&#x1d45a;" xlink:href="#font_4_2513" transform="matrix(4.98132,0,0,-4.98132,216.681,27.548005)"/>
<use data-text="&#x1d45a;" xlink:href="#font_4_2513" transform="matrix(4.98132,0,0,-4.98132,220.21775,27.548005)"/>
<path transform="matrix(1,0,0,-1,192.528,34.308008)" stroke-width=".59776" stroke-linecap="butt" stroke-miterlimit="10" stroke-linejoin="miter" fill="none" stroke="#008000" d="M0 0H8.50412 17.00826"/>
<path transform="matrix(1,0,0,-1,192.528,34.308008)" d="M8.50412 1.99255 10.22972-.99628H6.7785Z" fill="#008000" fill-opacity=".8"/>
<path transform="matrix(1,0,0,-1,192.528,34.308008)" stroke-width=".59776" stroke-linecap="butt" stroke-miterlimit="10" stroke-linejoin="miter" fill="none" stroke="#008000" d="M8.50412 1.99255 10.22972-.99628H6.7785Z"/>
<use data-text="&#x1d435;" xlink:href="#font_3_2477" transform="matrix(6.97385,0,0,-6.97385,211.828,35.838014)"/>
<use data-text="&#x1d45b;" xlink:href="#font_4_2514" transform="matrix(4.98132,0,0,-4.98132,216.681,37.58101)"/>
<use data-text="&#x1d45b;" xlink:href="#font_4_2514" transform="matrix(4.98132,0,0,-4.98132,219.15673,37.58101)"/>
<path transform="matrix(1,0,0,-1,192.528,44.341009)" stroke-width=".59776" stroke-linecap="butt" stroke-miterlimit="10" stroke-linejoin="miter" fill="none" stroke="#000000" d="M0 0H8.50412 17.00826"/>
<path transform="matrix(1,0,0,-1,192.528,44.341009)" d="M8.50412-1.99255 6.7785 .99628H10.22972Z" fill-opacity=".8"/>
<path transform="matrix(1,0,0,-1,192.528,44.341009)" stroke-width=".59776" stroke-linecap="butt" stroke-miterlimit="10" stroke-linejoin="miter" fill="none" stroke="#000000" d="M8.50412-1.99255 6.7785 .99628H10.22972Z"/>
<use data-text="&#x1d435;" xlink:href="#font_3_2477" transform="matrix(6.97385,0,0,-6.97385,211.828,45.871004)"/>
<use data-text="&#x1d45a;" xlink:href="#font_4_2513" transform="matrix(4.98132,0,0,-4.98132,216.681,47.614015)"/>
<use data-text="&#x1d45b;" xlink:href="#font_4_2514" transform="matrix(4.98132,0,0,-4.98132,220.21775,47.614015)"/>
<path transform="matrix(1,0,0,-1,192.528,54.375009)" stroke-width=".59776" stroke-linecap="butt" stroke-miterlimit="10" stroke-linejoin="miter" fill="none" stroke="#bf00bf" d="M0 0H8.50412 17.00826"/>
<path transform="matrix(1,0,0,-1,192.528,54.375009)" d="M8.50412 1.99255 9.99854 0 8.50412-1.99255 7.0097 0Z" fill="#bf00bf" fill-opacity=".8"/>
<path transform="matrix(1,0,0,-1,192.528,54.375009)" stroke-width=".59776" stroke-linecap="butt" stroke-miterlimit="10" stroke-linejoin="miter" fill="none" stroke="#bf00bf" d="M8.50412 1.99255 9.99854 0 8.50412-1.99255 7.0097 0Z"/>
<use data-text="&#x1d435;" xlink:href="#font_3_2477" transform="matrix(6.97385,0,0,-6.97385,211.828,55.904008)"/>
<use data-text="&#x1d45b;" xlink:href="#font_4_2514" transform="matrix(4.98132,0,0,-4.98132,216.681,57.64801)"/>
<use data-text="&#x2113;" xlink:href="#font_4_974" transform="matrix(4.98132,0,0,-4.98132,219.15673,57.64801)"/>
<path transform="matrix(1,0,0,-1,192.528,64.408008)" stroke-width=".59776" stroke-linecap="butt" stroke-miterlimit="10" stroke-linejoin="miter" fill="none" stroke="#00bfbf" d="M0 0H8.50412 17.00826"/>
<path transform="matrix(1,0,0,-1,192.528,64.408008)" d="M8.50412 1.99255 10.39917 .61574 9.67531-1.61201H7.33293L6.60907 .61574Z" fill="#00bfbf" fill-opacity=".8"/>
<path transform="matrix(1,0,0,-1,192.528,64.408008)" stroke-width=".59776" stroke-linecap="butt" stroke-miterlimit="10" stroke-linejoin="miter" fill="none" stroke="#00bfbf" d="M8.50412 1.99255 10.39917 .61574 9.67531-1.61201H7.33293L6.60907 .61574Z"/>
<use data-text="&#x1d435;" xlink:href="#font_3_2477" transform="matrix(6.97385,0,0,-6.97385,211.828,65.938)"/>
<use data-text="&#x2113;" xlink:href="#font_4_974" transform="matrix(4.98132,0,0,-4.98132,216.681,67.681)"/>
<use data-text="&#x1d45a;" xlink:href="#font_4_2513" transform="matrix(4.98132,0,0,-4.98132,219.56519,67.681)"/>
<path transform="matrix(1,0,0,-1,192.528,74.441)" stroke-width=".59776" stroke-linecap="butt" stroke-dasharray=".59776,1.99255" stroke-miterlimit="10" stroke-linejoin="miter" fill="none" stroke="#ff0000" d="M0 0H8.50412 17.00826"/>
<path transform="matrix(1,0,0,-1,192.528,74.441)" d="M10.49667 0C10.49667 1.10046 9.60458 1.99255 8.50412 1.99255 7.40364 1.99255 6.51157 1.10046 6.51157 0 6.51157-1.10046 7.40364-1.99255 8.50412-1.99255 9.60458-1.99255 10.49667-1.10046 10.49667 0ZM8.50412 0" fill="#ff0000" fill-opacity=".8"/>
<path transform="matrix(1,0,0,-1,192.528,74.441)" stroke-width=".59776" stroke-linecap="butt" stroke-miterlimit="10" stroke-linejoin="miter" fill="none" stroke="#ff0000" d="M10.49667 0C10.49667 1.10046 9.60458 1.99255 8.50412 1.99255 7.40364 1.99255 6.51157 1.10046 6.51157 0 6.51157-1.10046 7.40364-1.99255 8.50412-1.99255 9.60458-1.99255 10.49667-1.10046 10.49667 0ZM8.50412 0"/>
<use data-text="&#x1d435;" xlink:href="#font_3_2477" transform="matrix(6.97385,0,0,-6.97385,211.828,75.97101)"/>
<use data-text="1" xlink:href="#font_4_50" transform="matrix(4.98132,0,0,-4.98132,216.681,77.714008)"/>
<use data-text="1" xlink:href="#font_4_50" transform="matrix(4.98132,0,0,-4.98132,219.17166,77.714008)"/>
<path transform="matrix(1,0,0,-1,192.528,84.474)" stroke-width=".59776" stroke-linecap="butt" stroke-dasharray=".59776,1.99255" stroke-miterlimit="10" stroke-linejoin="miter" fill="none" stroke="#0000ff" d="M0 0H8.50412 17.00826"/>
<path transform="matrix(1,0,0,-1,192.528,84.474)" stroke-width=".59776" stroke-linecap="butt" stroke-miterlimit="10" stroke-linejoin="miter" fill="none" stroke="#0000ff" d="M7.09517-1.40894 9.91307 1.40894M7.09517 1.40894 9.91307-1.40894"/>
<use data-text="&#x1d435;" xlink:href="#font_3_2477" transform="matrix(6.97385,0,0,-6.97385,211.828,86.004009)"/>
<use data-text="2" xlink:href="#font_4_51" transform="matrix(4.98132,0,0,-4.98132,216.681,87.74801)"/>
<use data-text="2" xlink:href="#font_4_51" transform="matrix(4.98132,0,0,-4.98132,219.17166,87.74801)"/>
<path transform="matrix(1,0,0,-1,192.528,94.507999)" stroke-width=".59776" stroke-linecap="butt" stroke-dasharray=".59776,1.99255" stroke-miterlimit="10" stroke-linejoin="miter" fill="none" stroke="#008000" d="M0 0H8.50412 17.00826"/>
<path transform="matrix(1,0,0,-1,192.528,94.507999)" d="M8.50412 1.99255 10.22972-.99628H6.7785Z" fill="#008000" fill-opacity=".8"/>
<path transform="matrix(1,0,0,-1,192.528,94.507999)" stroke-width=".59776" stroke-linecap="butt" stroke-miterlimit="10" stroke-linejoin="miter" fill="none" stroke="#008000" d="M8.50412 1.99255 10.22972-.99628H6.7785Z"/>
<use data-text="&#x1d435;" xlink:href="#font_3_2477" transform="matrix(6.97385,0,0,-6.97385,211.828,96.037998)"/>
<use data-text="3" xlink:href="#font_4_52" transform="matrix(4.98132,0,0,-4.98132,216.681,97.78099)"/>
<use data-text="3" xlink:href="#font_4_52" transform="matrix(4.98132,0,0,-4.98132,219.17166,97.78099)"/>
<path transform="matrix(1,0,0,-1,192.528,104.54099)" stroke-width=".59776" stroke-linecap="butt" stroke-dasharray=".59776,1.99255" stroke-miterlimit="10" stroke-linejoin="miter" fill="none" stroke="#000000" d="M0 0H8.50412 17.00826"/>
<path transform="matrix(1,0,0,-1,192.528,104.54099)" d="M8.50412-1.99255 6.7785 .99628H10.22972Z" fill-opacity=".8"/>
<path transform="matrix(1,0,0,-1,192.528,104.54099)" stroke-width=".59776" stroke-linecap="butt" stroke-miterlimit="10" stroke-linejoin="miter" fill="none" stroke="#000000" d="M8.50412-1.99255 6.7785 .99628H10.22972Z"/>
<use data-text="&#x1d435;" xlink:href="#font_3_2477" transform="matrix(6.97385,0,0,-6.97385,211.828,106.07099)"/>
<use data-text="2" xlink:href="#font_4_51" transform="matrix(4.98132,0,0,-4.98132,216.681,107.81399)"/>
<use data-text="3" xlink:href="#font_4_52" transform="matrix(4.98132,0,0,-4.98132,219.17166,107.81399)"/>
<path transform="matrix(1,0,0,-1,192.528,114.57399)" stroke-width=".59776" stroke-linecap="butt" stroke-dasharray=".59776,1.99255" stroke-miterlimit="10" stroke-linejoin="miter" fill="none" stroke="#bf00bf" d="M0 0H8.50412 17.00826"/>
<path transform="matrix(1,0,0,-1,192.528,114.57399)" d="M8.50412 1.99255 9.99854 0 8.50412-1.99255 7.0097 0Z" fill="#bf00bf" fill-opacity=".8"/>
<path transform="matrix(1,0,0,-1,192.528,114.57399)" stroke-width=".59776" stroke-linecap="butt" stroke-miterlimit="10" stroke-linejoin="miter" fill="none" stroke="#bf00bf" d="M8.50412 1.99255 9.99854 0 8.50412-1.99255 7.0097 0Z"/>
<use data-text="&#x1d435;" xlink:href="#font_3_2477" transform="matrix(6.97385,0,0,-6.97385,211.828,116.10399)"/>
<use data-text="3" xlink:href="#font_4_52" transform="matrix(4.98132,0,0,-4.98132,216.681,117.84799)"/>
<use data-text="1" xlink:href="#font_4_50" transform="matrix(4.98132,0,0,-4.98132,219.17166,117.84799)"/>
<path transform="matrix(1,0,0,-1,192.528,124.60799)" stroke-width=".59776" stroke-linecap="butt" stroke-dasharray=".59776,1.99255" stroke-miterlimit="10" stroke-linejoin="miter" fill="none" stroke="#00bfbf" d="M0 0H8.50412 17.00826"/>
<path transform="matrix(1,0,0,-1,192.528,124.60799)" d="M8.50412 1.99255 10.39917 .61574 9.67531-1.61201H7.33293L6.60907 .61574Z" fill="#00bfbf" fill-opacity=".8"/>
<path transform="matrix(1,0,0,-1,192.528,124.60799)" stroke-width=".59776" stroke-linecap="butt" stroke-miterlimit="10" stroke-linejoin="miter" fill="none" stroke="#00bfbf" d="M8.50412 1.99255 10.39917 .61574 9.67531-1.61201H7.33293L6.60907 .61574Z"/>
<use data-text="&#x1d435;" xlink:href="#font_3_2477" transform="matrix(6.97385,0,0,-6.97385,211.828,126.13698)"/>
<use data-text="1" xlink:href="#font_4_50" transform="matrix(4.98132,0,0,-4.98132,216.681,127.880977)"/>
<use data-text="2" xlink:href="#font_4_51" transform="matrix(4.98132,0,0,-4.98132,219.17166,127.880977)"/>
</svg>
