<svg xmlns="http://www.w3.org/2000/svg" xmlns:xlink="http://www.w3.org/1999/xlink" xmlns:inkscape="http://www.inkscape.org/namespaces/inkscape" version="1.1" width="343.195" height="270.509" viewBox="0 0 343.195 270.509">
<defs>
<path id="font_1_49" d="M.37998963 .32505799C.37998963 .12722779 .33499146 .012313843 .25 .012313843 .1639862 .012313843 .11999512 .1262207 .11999512 .32904054 .11999512 .5318756 .16499329 .6497803 .24798584 .6497803 .33599855 .6497803 .37998963 .53286746 .37998963 .32505799M.47599793 .3300476C.47599793 .53486636 .3849945 .67578127 .2539978 .67578127 .09298706 .67578127 .023986817 .5128937 .023986817 .3360443 .023986817 .17218018 .07899475-.013671875 .25-.013671875 .41299439-.013671875 .47599793 .15818787 .47599793 .3300476Z"/>
<path id="font_1_3177" d="M.56799319 .4284668H.28599549C.18199158 .4284668 .117996219 .38246156 .07398987 .3024292H.08999634C.13398743 .35546876 .17098999 .35546876 .22898865 .35546876L.13999939 .14936829C.1269989 .12034607 .10899353 .09133911 .06599426 .079330448 .039993287 .07232666 .034988405 .046310426 .034988405 .031311037 .034988405 .007293701 .05999756-.0126953129 .085998538-.0126953129 .09799194-.0126953129 .11299133-.010696411 .12399292-.0017089844 .20799256 .061325075 .23899842 .23339844 .2849884 .35546876H.3789978C.35398866 .27142335 .32398988 .2013855 .30099488 .13035584 .29499818 .111343387 .2919922 .09133911 .2919922 .06832886 .2919922 .029159546 .30899049-.0068359377 .34899903-.0068359377 .4189911-.0068359377 .47200013 .06315613 .49299623 .13522339H.47698976C.45298768 .08117676 .4249878 .06915283 .4039917 .06915283 .38198854 .06915283 .3659973 .094177249 .3659973 .11720276 .3659973 .1842804 .4189911 .31240846 .43299867 .35546876H.54499819L.56799319 .4284668Z"/>
<path id="font_1_48" d="M.2869873 .67578127H.21998596L-.009002686-.013671875H.05899048L.2869873 .67578127Z"/>
<path id="font_1_57" d="M.2709961 .27209474C.33898927 .22613526 .36898805 .18617249 .36898805 .1242218 .36898805 .059280397 .32398988 .014328003 .25898744 .014328003 .18299866 .014328003 .13198853 .06626892 .13198853 .15820313 .13198853 .22314453 .15299988 .26409913 .21199036 .3120575L.2709961 .27209474M.35499574 .53286746C.35499574 .470932 .32899476 .42897035 .26098634 .3889923 .17298889 .4409485 .13598633 .48690797 .13598633 .54885867 .13598633 .6108093 .1789856 .6477661 .24598694 .6477661 .31399537 .6477661 .35499574 .60180667 .35499574 .53286746M.44499208 .15519715C.44499208 .23512268 .41299439 .28907777 .2899933 .37101747 .3889923 .42396546 .42399598 .45793153 .42399598 .53286746 .42399598 .6108093 .35499574 .67578127 .2559967 .67578127 .14498902 .67578127 .06199646 .61579897 .06199646 .5198822 .06199646 .4549408 .08299255 .41697694 .18598938 .3320465 .07899475 .2571106 .055999757 .21813965 .055999757 .14920044 .055999757 .055282594 .1349945-.013671875 .24798584-.013671875 .36799623-.013671875 .44499208 .05229187 .44499208 .15519715Z"/>
<path id="font_1_53" d="M.2919922 .23098755H.051986696L.2919922 .573822V.23098755M.47299195 .16699219V.23098755H.36999513V.67578127H.32598878L.011993408 .23098755V.16699219H.2919922V0H.36999513V.16699219H.47299195Z"/>
<path id="font_1_52" d="M.06098938 .50987246C.101989749 .58380129 .147995 .61576846 .20999146 .61576846 .27598573 .61576846 .31799317 .58180239 .31799317 .51387026 .31799317 .45292665 .28599549 .40795899 .23699951 .37998963 .21699524 .36799623 .19099427 .3570099 .15299988 .34402467V.33003236C.20999146 .33003236 .23298645 .32704164 .25498963 .3200531 .32398988 .3000641 .35899354 .2511139 .35899354 .17518616 .35899354 .09025574 .30299378 .022323609 .22898865 .022323609 .20098877 .022323609 .17999268 .027313233 .14299011 .05329895 .114990238 .073272708 .09899902 .07926941 .08198547 .07926941 .05899048 .07926941 .040985109 .06428528 .040985109 .043304445 .040985109 .0073242189 .07998657-.013671875 .15299988-.013671875 .24198914-.013671875 .33699037 .015319824 .3849945 .07926941 .4139862 .11723328 .43099977 .16618347 .43099977 .21913147 .43099977 .27108766 .4149933 .31704713 .3869934 .34802247 .3659973 .36999513 .34799195 .38198854 .3039856 .40097047 .37098695 .44093324 .39698792 .4908905 .39698792 .5388489 .39698792 .6207733 .33399964 .67578127 .24099732 .67578127 .13699341 .67578127 .07398987 .6087799 .04499817 .51387026L.06098938 .50987246Z"/>
<path id="font_1_51" d="M.47399903 .13696289 .45999146 .1429596C.4269867 .08699036 .4059906 .07598877 .3639984 .07598877H.12998963L.29499818 .2519226C.38398744 .34588624 .4229889 .42085267 .4229889 .4998169 .4229889 .59877017 .35099793 .67578127 .23799134 .67578127 .114990238 .67578127 .050994874 .5937805 .02999878 .4768219L.050994874 .47183229C.09098816 .5697937 .12599182 .6017761 .19799805 .6017761 .2829895 .6017761 .33699037 .55178835 .33699037 .4608307 .33699037 .37586976 .30099488 .29989625 .20698548 .200943L.0289917 .011993408V0H.41999818L.47399903 .13696289Z"/>
<path id="font_1_1155" d="M.62098696 .22012329V.2861328H.06399536V.22012329H.62098696Z"/>
<path id="font_1_50" d="M.3939972 0V.01499939C.31900025 .01499939 .29899598 .032989503 .29899598 .07597351V.67277529L.2899933 .67578127 .11099243 .5847931V.5708008L.13798523 .5807953C.1559906 .5877991 .17298889 .59280398 .18299866 .59280398 .20399475 .59280398 .21299744 .57780459 .21299744 .543808V.0949707C.21299744 .039978029 .19198609 .018997193 .117996219 .01499939V0H.3939972Z"/>
<clipPath id="clip_2">
<path transform="matrix(1,0,0,-1,42.124,236.94499)" d="M0 0H298.88319V230.1406H0Z"/>
</clipPath>
<path id="font_1_3169" d="M.35598756 .30773927C.35299684 .29875184 .34700013 .270813 .33999635 .24784851 .30899049 .14901734 .24899292 .018249512 .18199158 .018249512 .13899231 .018249512 .12399292 .074157718 .12399292 .14303589 .12399292 .19094849 .1329956 .25782777 .14898682 .30773927H.35598756M.15899658 .34375C.18499756 .4628296 .2669983 .6389618 .33898927 .6389618 .37998963 .6389618 .3899994 .58291628 .3899994 .50987246 .3899994 .46884156 .37998963 .41378785 .36499024 .34375H.15899658M.47399903 .47183229C.47399903 .6049347 .4189911 .66796877 .34599305 .66796877 .1559906 .66796877 .039993287 .34173585 .039993287 .16798401 .039993287 .048202516 .08198547-.0107421879 .1769867-.0107421879 .33099366-.0107421879 .47399903 .2758026 .47399903 .47183229Z"/>
<path id="font_1_2480" d="M.73399356 .653183H.19999695L.19599915 .6371765H.21499634C.27398683 .6371765 .2899933 .6261749 .2899933 .60217288 .2899933 .59516909 .2889862 .5841522 .2849884 .56614688L.16499329 .07798767C.15699768 .04399109 .13398743 .015991211 .06098938 .015991211H.041992189L.037994386 0H.60899356L.6749878 .19799805H.6589966C.6159973 .084991458 .55999758 .037994386 .4019928 .037994386H.33499146C.28799439 .037994386 .27198792 .04899597 .27198792 .06498718 .27198792 .067993167 .272995 .070999149 .27398683 .07499695L.33999635 .3330078H.42999269C.46099855 .3330078 .5019989 .32899476 .5019989 .28199769 .5019989 .2649994 .49699403 .23500061 .49598695 .22200012H.5130005L.57099917 .46406556H.5549927C.5329895 .38200379 .4889984 .3690033 .42900086 .3690033H.34899903L.40899659 .6171875H.56900027C.6199951 .6171875 .6749878 .60417178 .6779938 .53012087 .6779938 .519104 .6769867 .5081024 .6759949 .49508668H.69200137L.73399356 .653183Z"/>
<path id="font_1_183" d="M.5970001 .021987915 .36698915 .2519989 .5970001 .48399354 .5509949 .5289917 .31999208 .29899598 .08999634 .5289917 .042999269 .48298646 .272995 .2519989 .042999269 .020996094 .08898926-.025009156 .31999208 .20498657 .5509949-.025009156 .5970001 .021987915Z"/>
<path id="font_1_2477" d="M.33799745 .3143463C.35299684 .31835938 .37298585 .31835938 .3889923 .31835938 .46699525 .31835938 .5309906 .28330995 .5309906 .21022034 .5309906 .08004761 .43499757 .037994386 .34098817 .037994386 .31498719 .037994386 .29499818 .039993287 .269989 .04699707L.33799745 .3143463M.4059906 .61125186C.4189911 .61325076 .43399049 .6142578 .44898988 .6142578 .5029907 .6142578 .56799319 .5932617 .56799319 .5162964 .56799319 .41932679 .5119934 .35334779 .3999939 .35334779 .3849945 .35334779 .36698915 .35534669 .34700013 .35934449L.4059906 .61125186M.19799805 .653244 .19299317 .6372528H.21199036C.2709961 .6372528 .2899933 .62124636 .2899933 .5952606 .2899933 .5892639 .2889862 .5792694 .28799439 .5742645L.16499329 .07904053C.15699768 .04499817 .13798523 .015991211 .06199646 .015991211H.041992189L.037994386 0H.3619995C.56900027 0 .651001 .094070438 .651001 .19319153 .651001 .27830506 .58399966 .32035829 .5239868 .3313446L.5209961 .33535768C.54100039 .3403473 .56999209 .34835816 .59498599 .36134339 .6429901 .38534547 .6859894 .43032838 .6859894 .5082855 .6859894 .6442566 .5339966 .653244 .44999696 .653244H.19799805Z"/>
<path id="font_3_2509" d="M.22698975 .4412079 .068984989 .41921998 .07199097 .4032135C.07899475 .4052124 .09098816 .4072113 .099990848 .4072113 .12298584 .4072113 .1309967 .40222169 .1309967 .3852234 .1309967 .3822174 .12998963 .37521363 .1289978 .37321473 .049987794 .0662384 .049987794 .04724121 .049987794 .035247804 .049987794 .008255005 .06199646-.0107421879 .08999634-.0107421879 .13899231-.0107421879 .18899536 .049240114 .22399903 .09423828L.21099854 .10424805C.1749878 .06524658 .16899109 .053253175 .14698792 .053253175 .13999939 .053253175 .13398743 .056243898 .13398743 .06324768 .13398743 .06724548 .13398743 .071243289 .1349945 .07723999L.22698975 .4412079M.25698854 .5662079C.25698854 .5912018 .23498535 .61621096 .20899964 .61621096 .17999268 .61621096 .16099549 .5912018 .16099549 .5662079 .16099549 .5402069 .17999268 .52020266 .20899964 .52020266 .23498535 .52020266 .25698854 .5402069 .25698854 .5662079Z"/>
<path id="font_3_2510" d="M.35099793 .44114686 .19299317 .4131317 .19599915 .39611817C.20298767 .39912416 .21499634 .40112306 .22299195 .40112306 .24499512 .40112306 .25498963 .39111329 .25498963 .3791046L.16299439 .015853882C.13899231-.080200199 .10598755-.15625 .05999756-.15625 .054992677-.15625 .049987794-.1502533 .049987794-.1462555 .049987794-.13023377 .06599426-.12724304 .06599426-.11222839 .06599426-.08921814 .049987794-.07420349 .0309906-.07420349-.0040130617-.07420349-.01600647-.10421753-.01600647-.12623596-.01600647-.1542511 .0039978029-.18725586 .056991579-.18725586 .16499329-.18725586 .22099304-.07220459 .24299622 .015853882L.35099793 .44114686M.37199403 .5662079C.37199403 .5912018 .34999085 .61621096 .32398988 .61621096 .29499818 .61621096 .27598573 .5912018 .27598573 .5662079 .27598573 .5402069 .29499818 .52020266 .32398988 .52020266 .34999085 .52020266 .37199403 .5402069 .37199403 .5662079Z"/>
<path id="font_3_2477" d="M.33799745 .3143463C.35299684 .31835938 .37298585 .31835938 .3889923 .31835938 .46699525 .31835938 .5309906 .28330995 .5309906 .21022034 .5309906 .08004761 .43499757 .037994386 .34098817 .037994386 .31498719 .037994386 .29499818 .039993287 .269989 .04699707L.33799745 .3143463M.4059906 .61125186C.4189911 .61325076 .43399049 .6142578 .44898988 .6142578 .5029907 .6142578 .56799319 .5932617 .56799319 .5162964 .56799319 .41932679 .5119934 .35334779 .3999939 .35334779 .3849945 .35334779 .36698915 .35534669 .34700013 .35934449L.4059906 .61125186M.19799805 .653244 .19299317 .6372528H.21199036C.2709961 .6372528 .2899933 .62124636 .2899933 .5952606 .2899933 .5892639 .2889862 .5792694 .28799439 .5742645L.16499329 .07904053C.15699768 .04499817 .13798523 .015991211 .06199646 .015991211H.041992189L.037994386 0H.3619995C.56900027 0 .651001 .094070438 .651001 .19319153 .651001 .27830506 .58399966 .32035829 .5239868 .3313446L.5209961 .33535768C.54100039 .3403473 .56999209 .34835816 .59498599 .36134339 .6429901 .38534547 .6859894 .43032838 .6859894 .5082855 .6859894 .6442566 .5339966 .653244 .44999696 .653244H.19799805Z"/>
<path id="font_4_2514" d="M.46699525 .096206668 .45399476 .10720825C.43998719 .09020996 .41600038 .05418396 .3919983 .05418396 .3809967 .05418396 .37799073 .062179567 .3769989 .06819153 .3769989 .07319641 .3769989 .07620239 .37799073 .078201297L.43699647 .3093567C.44198609 .32936097 .44799806 .35438539 .44799806 .37939454 .44799806 .4123993 .43598939 .44140626 .3919983 .44140626 .33198548 .44140626 .27198792 .37539674 .23199463 .32536317 .22999573 .32235719 .18099976 .25231935 .17599488 .25231935H.17298889L.22399903 .44140626 .06498718 .418396 .066986087 .4033966C.07398987 .4044037 .084991458 .4064026 .09498596 .4064026 .12199402 .4064026 .125 .39239503 .125 .37438966L.02999878 0H.10699463L.13999939 .12411499C.1459961 .1451416 .17199707 .19218445 .20799256 .24624634 .23899842 .29330445 .3019867 .37939454 .33999635 .37939454 .35798646 .37939454 .3639984 .36038209 .3639984 .34135438 .3639984 .3273468 .35899354 .307312 .35699464 .2993164L.2999878 .078063968C.29699708 .06704712 .29299928 .05102539 .29299928 .038009645 .29299928 .015182495 .3019867-.0078125 .33399964-.0078125 .38598634-.0078125 .43399049 .05618286 .46199037 .09020996L.46699525 .096206668Z"/>
<path id="font_4_2513" d="M.6669922 .10708618C.647995 .0700531 .621994 .054031373 .6049957 .054031373 .59599307 .054031373 .58999636 .058029176 .58999636 .06604004 .58999636 .06904602 .59098818 .07505798 .59199526 .078063968L.6529999 .30932618C.6589966 .3333435 .6599884 .35237123 .6599884 .37039186 .6599884 .41540528 .6419983 .44140626 .60598757 .44140626 .58599856 .44140626 .5669861 .43440248 .54499819 .41940309 .49598695 .38639833 .44400025 .32434083 .4149933 .27227784H.4099884L.41999818 .3083191C.42599488 .32833863 .42900086 .34335328 .42900086 .36038209 .42900086 .4044037 .41099549 .44140626 .37399293 .44140626 .33599855 .44140626 .27598573 .41540528 .18199158 .27227784H.17599488L.21998596 .44140626 .06298828 .41740418 .06498718 .4033966C.07299805 .4044037 .083999637 .4053955 .09199524 .4053955 .11898804 .4053955 .125 .39239503 .125 .37438966L.02999878 0H.10798645L.14299011 .13511658C.15899658 .19619751 .2689972 .37739564 .32099916 .37739564 .33898927 .37739564 .34399415 .359375 .34399415 .33935548 .34399415 .32434083 .34098817 .3083191 .33898927 .2993164L.2619934 0H.34098817L.375 .13511658C.3899994 .19619751 .5 .37739564 .55400088 .37739564 .57199099 .37739564 .5779877 .359375 .5779877 .33935548 .5779877 .32234193 .57598879 .31332398 .57199099 .2993164L.5159912 .078063968C.5109863 .058029176 .5099945 .04801941 .5099945 .041015626 .5099945 .0021820069 .5269928-.0078125 .548996-.0078125 .59599307-.0078125 .647995 .04219055 .6799927 .09623718L.6669922 .10708618Z"/>
<path id="font_4_974" d="M.2679901 .3962555C.31999208 .4772644 .375 .5582733 .42399598 .60827639 .44898988 .63427737 .47799684 .65527346 .5059967 .65527346 .5289917 .65527346 .54100039 .6432648 .54100039 .6242676 .54100039 .5282593 .42599488 .43026734 .2689972 .39526368L.2679901 .3962555M.07699585 .38926698C.10398865 .37025453 .1349945 .3612671 .16499329 .36026 .15098572 .33825685 .13699341 .31625367 .125 .29426576 .07798767 .21224976 .04798889 .1312561 .04798889 .07624817 .04798889 .018249512 .08799744-.0107421879 .1349945-.0107421879 .19799805-.0107421879 .25698854 .04624939 .3619995 .16925049L.34098817 .18624878C.24398804 .07424927 .18899536 .019256592 .14199829 .019256592 .114990238 .019256592 .10598755 .038253786 .10598755 .06225586 .10598755 .1292572 .19699097 .27626039 .24899292 .36026 .4249878 .386261 .57099917 .5152588 .57099917 .6202698 .57099917 .66625979 .548996 .6872711 .5069885 .6872711 .4249878 .6872711 .2899933 .5452728 .18499756 .3902588 .15499878 .3902588 .12399292 .3922577 .09098816 .41526795L.07699585 .38926698Z"/>
<path id="font_4_52" d="M.06098938 .50987246C.101989749 .58380129 .147995 .61576846 .20999146 .61576846 .27598573 .61576846 .31799317 .58180239 .31799317 .51387026 .31799317 .45292665 .28599549 .40795899 .23699951 .37998963 .21699524 .36799623 .19099427 .3570099 .15299988 .34402467V.33003236C.20999146 .33003236 .23298645 .32704164 .25498963 .3200531 .32398988 .3000641 .35899354 .2511139 .35899354 .17518616 .35899354 .09025574 .30299378 .022323609 .22898865 .022323609 .20098877 .022323609 .17999268 .027313233 .14299011 .05329895 .114990238 .073272708 .09899902 .07926941 .08198547 .07926941 .05899048 .07926941 .040985109 .06428528 .040985109 .043304445 .040985109 .0073242189 .07998657-.013671875 .15299988-.013671875 .24198914-.013671875 .33699037 .015319824 .3849945 .07926941 .4139862 .11723328 .43099977 .16618347 .43099977 .21913147 .43099977 .27108766 .4149933 .31704713 .3869934 .34802247 .3659973 .36999513 .34799195 .38198854 .3039856 .40097047 .37098695 .44093324 .39698792 .4908905 .39698792 .5388489 .39698792 .6207733 .33399964 .67578127 .24099732 .67578127 .13699341 .67578127 .07398987 .6087799 .04499817 .51387026L.06098938 .50987246Z"/>
<path id="font_4_50" d="M.3939972 0V.01499939C.31900025 .01499939 .29899598 .032989503 .29899598 .07597351V.67277529L.2899933 .67578127 .11099243 .5847931V.5708008L.13798523 .5807953C.1559906 .5877991 .17298889 .59280398 .18299866 .59280398 .20399475 .59280398 .21299744 .57780459 .21299744 .543808V.0949707C.21299744 .039978029 .19198609 .018997193 .117996219 .01499939V0H.3939972Z"/>
</defs>
<path transform="matrix(1,0,0,-1,42.124,236.94499)" stroke-width=".3985" stroke-linecap="butt" stroke-miterlimit="10" stroke-linejoin="miter" fill="none" stroke="#b0b0b0" d="M13.58559 0V230.1406M81.51031 0V230.1406M149.44019 0V230.1406M217.36835 0V230.1406M285.2965 0V230.1406"/>
<path transform="matrix(1,0,0,-1,42.124,236.94499)" stroke-width=".3985" stroke-linecap="butt" stroke-miterlimit="10" stroke-linejoin="miter" fill="none" stroke="#b0b0b0" d="M0 23.0257H298.88319M0 64.07408H298.88319M0 105.12247H298.88319M0 146.17086H298.88319M0 187.21923H298.88319M0 228.26761H298.88319"/>
<path transform="matrix(1,0,0,-1,42.124,236.94499)" stroke-width=".19925" stroke-linecap="butt" stroke-miterlimit="10" stroke-linejoin="miter" fill="none" stroke="#000000" d="M13.58559-4.25185V0M81.51031-4.25185V0M149.44019-4.25185V0M217.36835-4.25185V0M285.2965-4.25185V0"/>
<path transform="matrix(1,0,0,-1,42.124,236.94499)" stroke-width=".19925" stroke-linecap="butt" stroke-miterlimit="10" stroke-linejoin="miter" fill="none" stroke="#000000" d="M-4.25238 23.0257H0M-4.25238 64.07408H0M-4.25238 105.12247H0M-4.25238 146.17086H0M-4.25238 187.21923H0M-4.25238 228.26761H0"/>
<path transform="matrix(1,0,0,-1,42.124,236.94499)" stroke-width=".3985" stroke-linecap="butt" stroke-miterlimit="10" stroke-linejoin="miter" fill="none" stroke="#000000" d="M0 0V230.1406H298.88319V0H0Z"/>
<use data-text="0" xlink:href="#font_1_49" transform="matrix(9.96264,0,0,-9.96264,53.219,251.452)"/>
<use data-text="&#x1d70b;" xlink:href="#font_1_3177" transform="matrix(9.96264,0,0,-9.96264,116.729007,251.452)"/>
<use data-text="/" xlink:href="#font_1_48" transform="matrix(9.96264,0,0,-9.96264,122.786289,251.452)"/>
<use data-text="8" xlink:href="#font_1_57" transform="matrix(9.96264,0,0,-9.96264,125.5559,251.452)"/>
<use data-text="&#x1d70b;" xlink:href="#font_1_3177" transform="matrix(9.96264,0,0,-9.96264,184.65799,251.452)"/>
<use data-text="/" xlink:href="#font_1_48" transform="matrix(9.96264,0,0,-9.96264,190.71529,251.452)"/>
<use data-text="4" xlink:href="#font_1_53" transform="matrix(9.96264,0,0,-9.96264,193.4849,251.452)"/>
<use data-text="3" xlink:href="#font_1_52" transform="matrix(9.96264,0,0,-9.96264,250.095,251.452)"/>
<use data-text="&#x1d70b;" xlink:href="#font_1_3177" transform="matrix(9.96264,0,0,-9.96264,255.07633,251.452)"/>
<use data-text="/" xlink:href="#font_1_48" transform="matrix(9.96264,0,0,-9.96264,261.1336,251.452)"/>
<use data-text="8" xlink:href="#font_1_57" transform="matrix(9.96264,0,0,-9.96264,263.90324,251.452)"/>
<use data-text="&#x1d70b;" xlink:href="#font_1_3177" transform="matrix(9.96264,0,0,-9.96264,320.513,251.452)"/>
<use data-text="/" xlink:href="#font_1_48" transform="matrix(9.96264,0,0,-9.96264,326.57029,251.452)"/>
<use data-text="2" xlink:href="#font_1_51" transform="matrix(9.96264,0,0,-9.96264,329.3399,251.452)"/>
<use data-text="&#x2212;" xlink:href="#font_1_1155" transform="matrix(9.96264,0,0,-9.96264,22.546002,217.28697)"/>
<use data-text="1" xlink:href="#font_1_50" transform="matrix(9.96264,0,0,-9.96264,29.37041,217.28697)"/>
<use data-text="0" xlink:href="#font_1_49" transform="matrix(9.96264,0,0,-9.96264,29.371,176.16999)"/>
<use data-text="1" xlink:href="#font_1_50" transform="matrix(9.96264,0,0,-9.96264,29.371,135.19098)"/>
<use data-text="2" xlink:href="#font_1_51" transform="matrix(9.96264,0,0,-9.96264,29.371,94.144)"/>
<use data-text="3" xlink:href="#font_1_52" transform="matrix(9.96264,0,0,-9.96264,29.371,53.02597)"/>
<use data-text="4" xlink:href="#font_1_53" transform="matrix(9.96264,0,0,-9.96264,29.371,12.047974)"/>
<g clip-path="url(#clip_2)">
<path transform="matrix(1,0,0,-1,42.124,236.94499)" stroke-width=".59776" stroke-linecap="butt" stroke-miterlimit="10" stroke-linejoin="miter" fill="none" stroke="#ff0000" d="M13.58563 219.68083 16.30276 219.63755 19.01988 219.50774 21.73701 219.29174 24.45413 218.99 27.17126 218.60323 29.88838 218.13222 32.60551 217.57804 35.32265 216.94188 38.03976 216.22512 40.7569 215.4293 43.47401 214.55614 46.19115 213.60747 48.90826 212.58524 51.6254 211.4916 54.34251 210.32874 57.05965 209.09906 59.77676 207.80495 62.4939 206.44893 65.21103 205.0336 67.92815 203.56165 70.64528 202.03577 73.3624 200.4587 76.07951 198.83325 78.79665 197.16222 81.51376 195.44844 84.23088 193.69474 86.94801 191.90392 89.66513 190.0788 92.38226 188.22217 95.0994 186.33676 97.81651 184.42536 100.53365 182.4906 103.25076 180.53516 105.9679 178.56163 108.68501 176.57254 111.40215 174.57042 114.11926 172.5577 116.8364 170.53676 119.55351 168.50992 122.27065 166.47946 124.98778 164.44754 127.7049 162.41635 130.42203 160.38794 133.13915 158.3643 135.85628 156.34741 138.5734 154.33917 141.29053 152.34137 144.00765 150.35582 146.72478 148.38417 149.4419 146.42813 152.15903 144.48923 154.87615 142.56906 157.59328 140.66907 160.31041 138.79068 163.02753 136.93527 165.74466 135.10419 168.46178 133.29866 171.17891 131.51993 173.89603 129.76917 176.61316 128.04752 179.33028 126.35605 182.04741 124.69582 184.76453 123.06781 187.48166 121.47299 190.19879 119.9123 192.91591 118.38657 195.63304 116.8967 198.35016 115.44347 201.06729 114.02766 203.78441 112.65 206.50154 111.31122 209.21866 110.01198 211.93579 108.75293 214.65291 107.53468 217.37004 106.35782 220.08718 105.2229 222.80429 104.13048 225.52143 103.08102 228.23854 102.07501 230.95568 101.11293 233.67279 100.19516 236.38993 99.32213 239.10704 98.49422 241.82416 97.71178 244.54128 96.97511 247.2584 96.28458 249.97554 95.64044 252.69266 95.04295 255.40979 94.4924 258.1269 93.98895 260.84407 93.53287 263.56117 93.1243 266.2783 92.76341 268.9954 92.45035 271.71257 92.18524 274.42967 91.96819 277.1468 91.7993 279.86393 91.67859 282.58106 91.60616 285.29817 91.58202"/>
<path transform="matrix(1,0,0,-1,42.124,236.94499)" stroke-width=".59776" stroke-linecap="butt" stroke-miterlimit="10" stroke-linejoin="miter" fill="none" stroke="#0000ff" d="M13.58563 153.03845 16.30276 153.02353 19.01988 152.97885 21.73701 152.9046 24.45413 152.80113 27.17126 152.6689 29.88838 152.5085 32.60551 152.32065 35.32265 152.10616 38.03976 151.86592 40.7569 151.60095 43.47401 151.31232 46.19115 151.00119 48.90826 150.66873 51.6254 150.31621 54.34251 149.94487 57.05965 149.55603 59.77676 149.15099 62.4939 148.73105 65.21103 148.29752 67.92815 147.85167 70.64528 147.39478 73.3624 146.92809 76.07951 146.4528 78.79665 145.97011 81.51376 145.4811 84.23088 144.98688 86.94801 144.48851 89.66513 143.98693 92.38226 143.48313 95.0994 142.97797 97.81651 142.4723 100.53365 141.96694 103.25076 141.46262 105.9679 140.96004 108.68501 140.45984 111.40215 139.96265 114.11926 139.46901 116.8364 138.97948 119.55351 138.4945 122.27065 138.01454 124.98778 137.54001 127.7049 137.07128 130.42203 136.60866 133.13915 136.15251 135.85628 135.70308 138.5734 135.26065 141.29053 134.82541 144.00765 134.3976 146.72478 133.97739 149.4419 133.56493 152.15903 133.16037 154.87615 132.76384 157.59328 132.37545 160.31041 131.99529 163.02753 131.62343 165.74466 131.25995 168.46178 130.9049 171.17891 130.55834 173.89603 130.22026 176.61316 129.89073 179.33028 129.56975 182.04741 129.25733 184.76453 128.95346 187.48166 128.65818 190.19879 128.37143 192.91591 128.09323 195.63304 127.82355 198.35016 127.56238 201.06729 127.3097 203.78441 127.06548 206.50154 126.82967 209.21866 126.60228 211.93579 126.38326 214.65291 126.17256 217.37004 125.97018 220.08718 125.77606 222.80429 125.5902 225.52143 125.41252 228.23854 125.24303 230.95568 125.08168 233.67279 124.9284 236.38993 124.78323 239.10704 124.64609 241.82416 124.51697 244.54128 124.3958 247.2584 124.28261 249.97554 124.17735 252.69266 124.07999 255.40979 123.9905 258.1269 123.90887 260.84407 123.83508 263.56117 123.7691 266.2783 123.71092 268.9954 123.66055 271.71257 123.61794 274.42967 123.58308 277.1468 123.55598 279.86393 123.53664 282.58106 123.52504 285.29817 123.52116"/>
<path transform="matrix(1,0,0,-1,42.124,236.94499)" stroke-width=".59776" stroke-linecap="butt" stroke-miterlimit="10" stroke-linejoin="miter" fill="none" stroke="#008000" d="M13.58563 106.10962 16.30276 106.13612 19.01988 106.21555 21.73701 106.34775 24.45413 106.53244 27.17126 106.76927 29.88838 107.05775 32.60551 107.3973 35.32265 107.7872 38.03976 108.22672 40.7569 108.71498 43.47401 109.25102 46.19115 109.83383 48.90826 110.4623 51.6254 111.13522 54.34251 111.85141 57.05965 112.60951 59.77676 113.40822 62.4939 114.24611 65.21103 115.12175 67.92815 116.03365 70.64528 116.98032 73.3624 117.9602 76.07951 118.97174 78.79665 120.01337 81.51376 121.08348 84.23088 122.1805 86.94801 123.3028 89.66513 124.44882 92.38226 125.6169 95.0994 126.80548 97.81651 128.013 100.53365 129.23783 103.25076 130.47843 105.9679 131.73323 108.68501 133.00074 111.40215 134.27944 114.11926 135.5678 116.8364 136.8644 119.55351 138.16777 122.27065 139.47649 124.98778 140.78917 127.7049 142.10442 130.42203 143.42095 133.13915 144.73738 135.85628 146.05248 138.5734 147.36493 141.29053 148.67354 144.00765 149.97708 146.72478 151.2744 149.4419 152.56433 152.15903 153.84577 154.87615 155.1176 157.59328 156.37879 160.31041 157.62828 163.02753 158.86508 165.74466 160.08818 168.46178 161.29666 171.17891 162.4896 173.89603 163.66605 176.61316 164.82518 179.33028 165.96613 182.04741 167.08809 184.76453 168.19025 187.48166 169.27184 190.19879 170.33213 192.91591 171.37038 195.63304 172.3859 198.35016 173.378 201.06729 174.34607 203.78441 175.28946 206.50154 176.20757 209.21866 177.09981 211.93579 177.96564 214.65291 178.80449 217.37004 179.61588 220.08718 180.39933 222.80429 181.15431 225.52143 181.88042 228.23854 182.57721 230.95568 183.24428 233.67279 183.88123 236.38993 184.48769 239.10704 185.06333 241.82416 185.60782 244.54128 186.12082 247.2584 186.60208 249.97554 187.05132 252.69266 187.46826 255.40979 187.8527 258.1269 188.20444 260.84407 188.52324 263.56117 188.80896 266.2783 189.06143 268.9954 189.2805 271.71257 189.4661 274.42967 189.61808 277.1468 189.73636 279.86393 189.82089 282.58106 189.87165 285.29817 189.88857"/>
<path transform="matrix(1,0,0,-1,42.124,236.94499)" stroke-width=".59776" stroke-linecap="butt" stroke-miterlimit="10" stroke-linejoin="miter" fill="none" stroke="#000000" d="M13.58563 64.07443 16.30276 62.09412 19.01988 60.11705 21.73701 58.14648 24.45413 56.18564 27.17126 54.23767 29.88838 52.30571 32.60551 50.39279 35.32265 48.5019 38.03976 46.63591 40.7569 44.7976 43.47401 42.98967 46.19115 41.21465 48.90826 39.47496 51.6254 37.77293 54.34251 36.11078 57.05965 34.4905 59.77676 32.91402 62.4939 31.3831 65.21103 29.89943 67.92815 28.46446 70.64528 27.0796 73.3624 25.74608 76.07951 24.46501 78.79665 23.23737 81.51376 22.06404 84.23088 20.94577 86.94801 19.88321 89.66513 18.87686 92.38226 17.9272 95.0994 17.03452 97.81651 16.19905 100.53365 15.42097 103.25076 14.70033 105.9679 14.03712 108.68501 13.43124 111.40215 12.88252 114.11926 12.39078 116.8364 11.95567 119.55351 11.57689 122.27065 11.25401 124.98778 10.98662 127.7049 10.77417 130.42203 10.61613 133.13915 10.51195 135.85628 10.46098 138.5734 10.46259 141.29053 10.51607 144.00765 10.62071 146.72478 10.77577 149.4419 10.98048 152.15903 11.23405 154.87615 11.53568 157.59328 11.8845 160.31041 12.2797 163.02753 12.72038 165.74466 13.20569 168.46178 13.73471 171.17891 14.30653 173.89603 14.92024 176.61316 15.57494 179.33028 16.26964 182.04741 17.00342 184.76453 17.77531 187.48166 18.58438 190.19879 19.42964 192.91591 20.3101 195.63304 21.22482 198.35016 22.1728 201.06729 23.15305 203.78441 24.16457 206.50154 25.20639 209.21866 26.2775 211.93579 27.3769 214.65291 28.5036 217.37004 29.65659 220.08718 30.83487 222.80429 32.03743 225.52143 33.26326 228.23854 34.51135 230.95568 35.78072 233.67279 37.07033 236.38993 38.37917 239.10704 39.70624 241.82416 41.05054 244.54128 42.41103 247.2584 43.78671 249.97554 45.17657 252.69266 46.57962 255.40979 47.9948 258.1269 49.42113 260.84407 50.85759 263.56117 52.30318 266.2783 53.75685 268.9954 55.21762 271.71257 56.68448 274.42967 58.15637 277.1468 59.63235 279.86393 61.11136 282.58106 62.59239 285.29817 64.07443"/>
<path transform="matrix(1,0,0,-1,42.124,236.94499)" stroke-width=".59776" stroke-linecap="butt" stroke-dasharray=".59776,1.99255" stroke-miterlimit="10" stroke-linejoin="miter" fill="none" stroke="#ff0000" d="M13.58563 219.68083 16.30276 219.67173 19.01988 219.64446 21.73701 219.59899 24.45413 219.53537 27.17126 219.45362 29.88838 219.35375 32.60551 219.23584 35.32265 219.09996 38.03976 218.94622 40.7569 218.77469 43.47401 218.58557 46.19115 218.37903 48.90826 218.15529 51.6254 217.91461 54.34251 217.65729 57.05965 217.38367 59.77676 217.09413 62.4939 216.7891 65.21103 216.46906 67.92815 216.13448 70.64528 215.78592 73.3624 215.42395 76.07951 215.04917 78.79665 214.66223 81.51376 214.26378 84.23088 213.85449 86.94801 213.43506 89.66513 213.0062 92.38226 212.5686 95.0994 212.12303 97.81651 211.6702 100.53365 211.21082 103.25076 210.74562 105.9679 210.27533 108.68501 209.80065 111.40215 209.32228 114.11926 208.8409 116.8364 208.35718 119.55351 207.87178 122.27065 207.38535 124.98778 206.8985 127.7049 206.41182 130.42203 205.9259 133.13915 205.44129 135.85628 204.95856 138.5734 204.4782 141.29053 204.0007 144.00765 203.52657 146.72478 203.05626 149.4419 202.59017 152.15903 202.12876 154.87615 201.67238 157.59328 201.22144 160.31041 200.77629 163.02753 200.33727 165.74466 199.90467 168.46178 199.47884 171.17891 199.06002 173.89603 198.64852 176.61316 198.24457 179.33028 197.84842 182.04741 197.46028 184.76453 197.08039 187.48166 196.70893 190.19879 196.34607 192.91591 195.992 195.63304 195.6469 198.35016 195.3109 201.06729 194.98415 203.78441 194.66675 206.50154 194.35889 209.21866 194.06063 211.93579 193.77208 214.65291 193.49338 217.37004 193.2246 220.08718 192.96579 222.80429 192.71706 225.52143 192.47849 228.23854 192.25012 230.95568 192.03206 233.67279 191.8243 236.38993 191.62696 239.10704 191.44004 241.82416 191.2636 244.54128 191.09766 247.2584 190.94228 249.97554 190.7975 252.69266 190.66333 255.40979 190.5398 258.1269 190.42694 260.84407 190.32477 263.56117 190.23329 266.2783 190.15256 268.9954 190.08255 271.71257 190.0233 274.42967 189.9748 277.1468 189.93708 279.86393 189.91011 282.58106 189.89394 285.29817 189.88857"/>
<path transform="matrix(1,0,0,-1,42.124,236.94499)" stroke-width=".59776" stroke-linecap="butt" stroke-dasharray=".59776,1.99255" stroke-miterlimit="10" stroke-linejoin="miter" fill="none" stroke="#008000" d="M13.58563 106.10962 16.30276 106.10191 19.01988 106.07884 21.73701 106.04051 24.45413 105.9871 27.17126 105.91891 29.88838 105.83624 32.60551 105.73949 35.32265 105.62912 38.03976 105.50565 40.7569 105.3696 43.47401 105.22159 46.19115 105.06226 48.90826 104.89223 51.6254 104.7122 54.34251 104.52287 57.05965 104.3249 59.77676 104.11903 62.4939 103.90594 65.21103 103.6863 67.92815 103.46083 70.64528 103.23016 73.3624 102.99495 76.07951 102.7558 78.79665 102.51335 81.51376 102.26814 84.23088 102.02074 86.94801 101.77167 89.66513 101.52142 92.38226 101.27046 95.0994 101.01924 97.81651 100.76814 100.53365 100.51761 103.25076 100.26794 105.9679 100.01953 108.68501 99.77263 111.40215 99.52757 114.11926 99.2846 116.8364 99.04396 119.55351 98.8059 122.27065 98.57057 124.98778 98.33821 127.7049 98.10895 130.42203 97.88298 133.13915 97.66039 135.85628 97.44133 138.5734 97.2259 141.29053 97.0142 144.00765 96.8063 146.72478 96.60231 149.4419 96.40228 152.15903 96.20625 154.87615 96.01428 157.59328 95.82642 160.31041 95.64267 163.02753 95.46309 165.74466 95.28769 168.46178 95.11649 171.17891 94.9495 173.89603 94.7867 176.61316 94.62813 179.33028 94.47377 182.04741 94.32362 184.76453 94.17767 187.48166 94.03592 190.19879 93.89835 192.91591 93.76494 195.63304 93.6357 198.35016 93.51059 201.06729 93.38959 203.78441 93.2727 206.50154 93.15991 209.21866 93.05116 211.93579 92.94647 214.65291 92.8458 217.37004 92.74913 220.08718 92.65645 222.80429 92.56773 225.52143 92.48294 228.23854 92.40208 230.95568 92.32513 233.67279 92.25208 236.38993 92.18288 239.10704 92.11752 241.82416 92.056 244.54128 91.99829 247.2584 91.94438 249.97554 91.89427 252.69266 91.84792 255.40979 91.80531 258.1269 91.76646 260.84407 91.73134 263.56117 91.69995 266.2783 91.67229 268.9954 91.64832 271.71257 91.62805 274.42967 91.61147 277.1468 91.59857 279.86393 91.58937 282.58106 91.58386 285.29817 91.58202"/>
<path transform="matrix(1,0,0,-1,42.124,236.94499)" stroke-width=".59776" stroke-linecap="butt" stroke-dasharray=".59776,1.99255" stroke-miterlimit="10" stroke-linejoin="miter" fill="none" stroke="#000000" d="M13.58563 64.07443 16.30276 63.87767 19.01988 63.6817 21.73701 63.48729 24.45413 63.29518 27.17126 63.10611 29.88838 62.92079 32.60551 62.73988 35.32265 62.56398 38.03976 62.39363 40.7569 62.22935 43.47401 62.0716 46.19115 61.92073 48.90826 61.77711 51.6254 61.64096 54.34251 61.51251 57.05965 61.39192 59.77676 61.27927 62.4939 61.1746 65.21103 61.07794 67.92815 60.98921 70.64528 60.90833 73.3624 60.83519 76.07951 60.76964 78.79665 60.71152 81.51376 60.66058 84.23088 60.61665 86.94801 60.57948 89.66513 60.5488 92.38226 60.52438 95.0994 60.50597 97.81651 60.49326 100.53365 60.48601 103.25076 60.48393 105.9679 60.48679 108.68501 60.4943 111.40215 60.50618 114.11926 60.5222 116.8364 60.54213 119.55351 60.5657 122.27065 60.59271 124.98778 60.6229 127.7049 60.65608 130.42203 60.69205 133.13915 60.73059 135.85628 60.77155 138.5734 60.8147 141.29053 60.85992 144.00765 60.90703 146.72478 60.95589 149.4419 61.00632 152.15903 61.05823 154.87615 61.11148 157.59328 61.16592 160.31041 61.22151 163.02753 61.27808 165.74466 61.33556 168.46178 61.39383 171.17891 61.45285 173.89603 61.51253 176.61316 61.57278 179.33028 61.63354 182.04741 61.69476 184.76453 61.75636 187.48166 61.8183 190.19879 61.88054 192.91591 61.94302 195.63304 62.00572 198.35016 62.06857 201.06729 62.13156 203.78441 62.19466 206.50154 62.25784 209.21866 62.32106 211.93579 62.38434 214.65291 62.4476 217.37004 62.51088 220.08718 62.57413 222.80429 62.63736 225.52143 62.70053 228.23854 62.76366 230.95568 62.82672 233.67279 62.88972 236.38993 62.95267 239.10704 63.01552 241.82416 63.07831 244.54128 63.14102 247.2584 63.20364 249.97554 63.2662 252.69266 63.32869 255.40979 63.3911 258.1269 63.45346 260.84407 63.51575 263.56117 63.57797 266.2783 63.64014 268.9954 63.70229 271.71257 63.76437 274.42967 63.82643 277.1468 63.88844 279.86393 63.95045 282.58106 64.01245 285.29817 64.07443"/>
</g>
<path transform="matrix(1,0,0,-1,42.124,236.94499)" stroke-width=".59776" stroke-linecap="butt" stroke-miterlimit="10" stroke-linejoin="miter" fill="none" stroke="#ff0000" d="M11.59308 219.68083H15.57819M13.58563 221.67339V217.68828"/>
<path transform="matrix(1,0,0,-1,42.124,236.94499)" stroke-width=".59776" stroke-linecap="butt" stroke-miterlimit="10" stroke-linejoin="miter" fill="none" stroke="#ff0000" d="M79.52121 195.44844H83.50632M81.51376 197.441V193.45589"/>
<path transform="matrix(1,0,0,-1,42.124,236.94499)" stroke-width=".59776" stroke-linecap="butt" stroke-miterlimit="10" stroke-linejoin="miter" fill="none" stroke="#ff0000" d="M147.44934 146.42813H151.43445M149.4419 148.42069V144.43558"/>
<path transform="matrix(1,0,0,-1,42.124,236.94499)" stroke-width=".59776" stroke-linecap="butt" stroke-miterlimit="10" stroke-linejoin="miter" fill="none" stroke="#ff0000" d="M215.37749 106.35782H219.3626M217.37004 108.35037V104.36526"/>
<path transform="matrix(1,0,0,-1,42.124,236.94499)" stroke-width=".59776" stroke-linecap="butt" stroke-miterlimit="10" stroke-linejoin="miter" fill="none" stroke="#ff0000" d="M283.30564 91.58202H287.29075M285.29817 93.57457V89.58946"/>
<path transform="matrix(1,0,0,-1,42.124,236.94499)" stroke-width=".59776" stroke-linecap="butt" stroke-miterlimit="10" stroke-linejoin="miter" fill="none" stroke="#ff0000" d=""/>
<path transform="matrix(1,0,0,-1,42.124,236.94499)" stroke-width=".59776" stroke-linecap="butt" stroke-miterlimit="10" stroke-linejoin="miter" fill="none" stroke="#0000ff" d="M12.17668 151.6295 14.99458 154.4474M12.17668 154.4474 14.99458 151.6295"/>
<path transform="matrix(1,0,0,-1,42.124,236.94499)" stroke-width=".59776" stroke-linecap="butt" stroke-miterlimit="10" stroke-linejoin="miter" fill="none" stroke="#0000ff" d="M80.10481 144.07216 82.92271 146.89005M80.10481 146.89005 82.92271 144.07216"/>
<path transform="matrix(1,0,0,-1,42.124,236.94499)" stroke-width=".59776" stroke-linecap="butt" stroke-miterlimit="10" stroke-linejoin="miter" fill="none" stroke="#0000ff" d="M148.03295 132.15598 150.85085 134.97388M148.03295 134.97388 150.85085 132.15598"/>
<path transform="matrix(1,0,0,-1,42.124,236.94499)" stroke-width=".59776" stroke-linecap="butt" stroke-miterlimit="10" stroke-linejoin="miter" fill="none" stroke="#0000ff" d="M215.96109 124.56123 218.77899 127.37914M215.96109 127.37914 218.77899 124.56123"/>
<path transform="matrix(1,0,0,-1,42.124,236.94499)" stroke-width=".59776" stroke-linecap="butt" stroke-miterlimit="10" stroke-linejoin="miter" fill="none" stroke="#0000ff" d="M283.88923 122.11221 286.70713 124.93011M283.88923 124.93011 286.70713 122.11221"/>
<path transform="matrix(1,0,0,-1,42.124,236.94499)" stroke-width=".59776" stroke-linecap="butt" stroke-miterlimit="10" stroke-linejoin="miter" fill="none" stroke="#0000ff" d=""/>
<path transform="matrix(1,0,0,-1,42.124,236.94499)" d="M13.58563 108.10217 15.08005 106.10962 13.58563 104.11707 12.09122 106.10962Z" fill="#008000"/>
<path transform="matrix(1,0,0,-1,42.124,236.94499)" stroke-width=".59776" stroke-linecap="butt" stroke-miterlimit="10" stroke-linejoin="miter" fill="none" stroke="#008000" d="M13.58563 108.10217 15.08005 106.10962 13.58563 104.11707 12.09122 106.10962Z"/>
<path transform="matrix(1,0,0,-1,42.124,236.94499)" d="M81.51376 123.07603 83.00818 121.08348 81.51376 119.09093 80.01935 121.08348Z" fill="#008000"/>
<path transform="matrix(1,0,0,-1,42.124,236.94499)" stroke-width=".59776" stroke-linecap="butt" stroke-miterlimit="10" stroke-linejoin="miter" fill="none" stroke="#008000" d="M81.51376 123.07603 83.00818 121.08348 81.51376 119.09093 80.01935 121.08348Z"/>
<path transform="matrix(1,0,0,-1,42.124,236.94499)" d="M149.4419 154.55689 150.93631 152.56433 149.4419 150.57178 147.94748 152.56433Z" fill="#008000"/>
<path transform="matrix(1,0,0,-1,42.124,236.94499)" stroke-width=".59776" stroke-linecap="butt" stroke-miterlimit="10" stroke-linejoin="miter" fill="none" stroke="#008000" d="M149.4419 154.55689 150.93631 152.56433 149.4419 150.57178 147.94748 152.56433Z"/>
<path transform="matrix(1,0,0,-1,42.124,236.94499)" d="M217.37004 181.60843 218.86446 179.61588 217.37004 177.62332 215.87563 179.61588Z" fill="#008000"/>
<path transform="matrix(1,0,0,-1,42.124,236.94499)" stroke-width=".59776" stroke-linecap="butt" stroke-miterlimit="10" stroke-linejoin="miter" fill="none" stroke="#008000" d="M217.37004 181.60843 218.86446 179.61588 217.37004 177.62332 215.87563 179.61588Z"/>
<path transform="matrix(1,0,0,-1,42.124,236.94499)" d="M285.29817 191.88112 286.7926 189.88857 285.29817 187.89601 283.80378 189.88857Z" fill="#008000"/>
<path transform="matrix(1,0,0,-1,42.124,236.94499)" stroke-width=".59776" stroke-linecap="butt" stroke-miterlimit="10" stroke-linejoin="miter" fill="none" stroke="#008000" d="M285.29817 191.88112 286.7926 189.88857 285.29817 187.89601 283.80378 189.88857Z"/>
<path transform="matrix(1,0,0,-1,42.124,236.94499)" stroke-width=".59776" stroke-linecap="butt" stroke-miterlimit="10" stroke-linejoin="miter" fill="none" stroke="#008000" d=""/>
<path transform="matrix(1,0,0,-1,42.124,236.94499)" d="M15.57819 64.07443C15.57819 65.1749 14.68611 66.06699 13.58563 66.06699 12.48517 66.06699 11.59308 65.1749 11.59308 64.07443 11.59308 62.97395 12.48517 62.08188 13.58563 62.08188 14.68611 62.08188 15.57819 62.97395 15.57819 64.07443ZM13.58563 64.07443"/>
<path transform="matrix(1,0,0,-1,42.124,236.94499)" stroke-width=".59776" stroke-linecap="butt" stroke-miterlimit="10" stroke-linejoin="miter" fill="none" stroke="#000000" d="M15.57819 64.07443C15.57819 65.1749 14.68611 66.06699 13.58563 66.06699 12.48517 66.06699 11.59308 65.1749 11.59308 64.07443 11.59308 62.97395 12.48517 62.08188 13.58563 62.08188 14.68611 62.08188 15.57819 62.97395 15.57819 64.07443ZM13.58563 64.07443"/>
<path transform="matrix(1,0,0,-1,42.124,236.94499)" d="M83.50632 22.06404C83.50632 23.1645 82.61423 24.0566 81.51376 24.0566 80.41328 24.0566 79.52121 23.1645 79.52121 22.06404 79.52121 20.96356 80.41328 20.07149 81.51376 20.07149 82.61423 20.07149 83.50632 20.96356 83.50632 22.06404ZM81.51376 22.06404"/>
<path transform="matrix(1,0,0,-1,42.124,236.94499)" stroke-width=".59776" stroke-linecap="butt" stroke-miterlimit="10" stroke-linejoin="miter" fill="none" stroke="#000000" d="M83.50632 22.06404C83.50632 23.1645 82.61423 24.0566 81.51376 24.0566 80.41328 24.0566 79.52121 23.1645 79.52121 22.06404 79.52121 20.96356 80.41328 20.07149 81.51376 20.07149 82.61423 20.07149 83.50632 20.96356 83.50632 22.06404ZM81.51376 22.06404"/>
<path transform="matrix(1,0,0,-1,42.124,236.94499)" d="M151.43445 10.98048C151.43445 12.08096 150.54238 12.97304 149.4419 12.97304 148.34143 12.97304 147.44934 12.08096 147.44934 10.98048 147.44934 9.88002 148.34143 8.98793 149.4419 8.98793 150.54238 8.98793 151.43445 9.88002 151.43445 10.98048ZM149.4419 10.98048"/>
<path transform="matrix(1,0,0,-1,42.124,236.94499)" stroke-width=".59776" stroke-linecap="butt" stroke-miterlimit="10" stroke-linejoin="miter" fill="none" stroke="#000000" d="M151.43445 10.98048C151.43445 12.08096 150.54238 12.97304 149.4419 12.97304 148.34143 12.97304 147.44934 12.08096 147.44934 10.98048 147.44934 9.88002 148.34143 8.98793 149.4419 8.98793 150.54238 8.98793 151.43445 9.88002 151.43445 10.98048ZM149.4419 10.98048"/>
<path transform="matrix(1,0,0,-1,42.124,236.94499)" d="M219.3626 29.65659C219.3626 30.75706 218.4705 31.64914 217.37004 31.64914 216.26958 31.64914 215.37749 30.75706 215.37749 29.65659 215.37749 28.55612 216.26958 27.66403 217.37004 27.66403 218.4705 27.66403 219.3626 28.55612 219.3626 29.65659ZM217.37004 29.65659"/>
<path transform="matrix(1,0,0,-1,42.124,236.94499)" stroke-width=".59776" stroke-linecap="butt" stroke-miterlimit="10" stroke-linejoin="miter" fill="none" stroke="#000000" d="M219.3626 29.65659C219.3626 30.75706 218.4705 31.64914 217.37004 31.64914 216.26958 31.64914 215.37749 30.75706 215.37749 29.65659 215.37749 28.55612 216.26958 27.66403 217.37004 27.66403 218.4705 27.66403 219.3626 28.55612 219.3626 29.65659ZM217.37004 29.65659"/>
<path transform="matrix(1,0,0,-1,42.124,236.94499)" d="M287.29075 64.07443C287.29075 65.1749 286.39866 66.06699 285.29817 66.06699 284.1977 66.06699 283.30564 65.1749 283.30564 64.07443 283.30564 62.97395 284.1977 62.08188 285.29817 62.08188 286.39866 62.08188 287.29075 62.97395 287.29075 64.07443ZM285.29817 64.07443"/>
<path transform="matrix(1,0,0,-1,42.124,236.94499)" stroke-width=".59776" stroke-linecap="butt" stroke-miterlimit="10" stroke-linejoin="miter" fill="none" stroke="#000000" d="M287.29075 64.07443C287.29075 65.1749 286.39866 66.06699 285.29817 66.06699 284.1977 66.06699 283.30564 65.1749 283.30564 64.07443 283.30564 62.97395 284.1977 62.08188 285.29817 62.08188 286.39866 62.08188 287.29075 62.97395 287.29075 64.07443ZM285.29817 64.07443"/>
<path transform="matrix(1,0,0,-1,42.124,236.94499)" stroke-width=".59776" stroke-linecap="butt" stroke-miterlimit="10" stroke-linejoin="miter" fill="none" stroke="#000000" d=""/>
<path transform="matrix(1,0,0,-1,42.124,236.94499)" stroke-width=".59776" stroke-linecap="butt" stroke-miterlimit="10" stroke-linejoin="miter" fill="none" stroke="#ff0000" d="M11.59308 219.68083H15.57819M13.58563 221.67339V217.68828"/>
<path transform="matrix(1,0,0,-1,42.124,236.94499)" stroke-width=".59776" stroke-linecap="butt" stroke-miterlimit="10" stroke-linejoin="miter" fill="none" stroke="#ff0000" d="M79.52121 214.26378H83.50632M81.51376 216.25634V212.27123"/>
<path transform="matrix(1,0,0,-1,42.124,236.94499)" stroke-width=".59776" stroke-linecap="butt" stroke-miterlimit="10" stroke-linejoin="miter" fill="none" stroke="#ff0000" d="M147.44934 202.59017H151.43445M149.4419 204.58272V200.59761"/>
<path transform="matrix(1,0,0,-1,42.124,236.94499)" stroke-width=".59776" stroke-linecap="butt" stroke-miterlimit="10" stroke-linejoin="miter" fill="none" stroke="#ff0000" d="M215.37749 193.2246H219.3626M217.37004 195.21715V191.23204"/>
<path transform="matrix(1,0,0,-1,42.124,236.94499)" stroke-width=".59776" stroke-linecap="butt" stroke-miterlimit="10" stroke-linejoin="miter" fill="none" stroke="#ff0000" d="M283.30564 189.88857H287.29075M285.29817 191.88112V187.89601"/>
<path transform="matrix(1,0,0,-1,42.124,236.94499)" stroke-width=".59776" stroke-linecap="butt" stroke-miterlimit="10" stroke-linejoin="miter" fill="none" stroke="#ff0000" d=""/>
<path transform="matrix(1,0,0,-1,42.124,236.94499)" d="M13.58563 108.10217 15.08005 106.10962 13.58563 104.11707 12.09122 106.10962Z" fill="#008000"/>
<path transform="matrix(1,0,0,-1,42.124,236.94499)" stroke-width=".59776" stroke-linecap="butt" stroke-miterlimit="10" stroke-linejoin="miter" fill="none" stroke="#008000" d="M13.58563 108.10217 15.08005 106.10962 13.58563 104.11707 12.09122 106.10962Z"/>
<path transform="matrix(1,0,0,-1,42.124,236.94499)" d="M81.51376 104.2607 83.00818 102.26814 81.51376 100.27559 80.01935 102.26814Z" fill="#008000"/>
<path transform="matrix(1,0,0,-1,42.124,236.94499)" stroke-width=".59776" stroke-linecap="butt" stroke-miterlimit="10" stroke-linejoin="miter" fill="none" stroke="#008000" d="M81.51376 104.2607 83.00818 102.26814 81.51376 100.27559 80.01935 102.26814Z"/>
<path transform="matrix(1,0,0,-1,42.124,236.94499)" d="M149.4419 98.39484 150.93631 96.40228 149.4419 94.40973 147.94748 96.40228Z" fill="#008000"/>
<path transform="matrix(1,0,0,-1,42.124,236.94499)" stroke-width=".59776" stroke-linecap="butt" stroke-miterlimit="10" stroke-linejoin="miter" fill="none" stroke="#008000" d="M149.4419 98.39484 150.93631 96.40228 149.4419 94.40973 147.94748 96.40228Z"/>
<path transform="matrix(1,0,0,-1,42.124,236.94499)" d="M217.37004 94.74168 218.86446 92.74913 217.37004 90.75658 215.87563 92.74913Z" fill="#008000"/>
<path transform="matrix(1,0,0,-1,42.124,236.94499)" stroke-width=".59776" stroke-linecap="butt" stroke-miterlimit="10" stroke-linejoin="miter" fill="none" stroke="#008000" d="M217.37004 94.74168 218.86446 92.74913 217.37004 90.75658 215.87563 92.74913Z"/>
<path transform="matrix(1,0,0,-1,42.124,236.94499)" d="M285.29817 93.57457 286.7926 91.58202 285.29817 89.58946 283.80378 91.58202Z" fill="#008000"/>
<path transform="matrix(1,0,0,-1,42.124,236.94499)" stroke-width=".59776" stroke-linecap="butt" stroke-miterlimit="10" stroke-linejoin="miter" fill="none" stroke="#008000" d="M285.29817 93.57457 286.7926 91.58202 285.29817 89.58946 283.80378 91.58202Z"/>
<path transform="matrix(1,0,0,-1,42.124,236.94499)" stroke-width=".59776" stroke-linecap="butt" stroke-miterlimit="10" stroke-linejoin="miter" fill="none" stroke="#008000" d=""/>
<path transform="matrix(1,0,0,-1,42.124,236.94499)" d="M15.57819 64.07443C15.57819 65.1749 14.68611 66.06699 13.58563 66.06699 12.48517 66.06699 11.59308 65.1749 11.59308 64.07443 11.59308 62.97395 12.48517 62.08188 13.58563 62.08188 14.68611 62.08188 15.57819 62.97395 15.57819 64.07443ZM13.58563 64.07443"/>
<path transform="matrix(1,0,0,-1,42.124,236.94499)" stroke-width=".59776" stroke-linecap="butt" stroke-miterlimit="10" stroke-linejoin="miter" fill="none" stroke="#000000" d="M15.57819 64.07443C15.57819 65.1749 14.68611 66.06699 13.58563 66.06699 12.48517 66.06699 11.59308 65.1749 11.59308 64.07443 11.59308 62.97395 12.48517 62.08188 13.58563 62.08188 14.68611 62.08188 15.57819 62.97395 15.57819 64.07443ZM13.58563 64.07443"/>
<path transform="matrix(1,0,0,-1,42.124,236.94499)" d="M83.50632 60.66058C83.50632 61.76105 82.61423 62.65314 81.51376 62.65314 80.41328 62.65314 79.52121 61.76105 79.52121 60.66058 79.52121 59.56012 80.41328 58.66803 81.51376 58.66803 82.61423 58.66803 83.50632 59.56012 83.50632 60.66058ZM81.51376 60.66058"/>
<path transform="matrix(1,0,0,-1,42.124,236.94499)" stroke-width=".59776" stroke-linecap="butt" stroke-miterlimit="10" stroke-linejoin="miter" fill="none" stroke="#000000" d="M83.50632 60.66058C83.50632 61.76105 82.61423 62.65314 81.51376 62.65314 80.41328 62.65314 79.52121 61.76105 79.52121 60.66058 79.52121 59.56012 80.41328 58.66803 81.51376 58.66803 82.61423 58.66803 83.50632 59.56012 83.50632 60.66058ZM81.51376 60.66058"/>
<path transform="matrix(1,0,0,-1,42.124,236.94499)" d="M151.43445 61.00632C151.43445 62.1068 150.54238 62.99887 149.4419 62.99887 148.34143 62.99887 147.44934 62.1068 147.44934 61.00632 147.44934 59.90585 148.34143 59.01376 149.4419 59.01376 150.54238 59.01376 151.43445 59.90585 151.43445 61.00632ZM149.4419 61.00632"/>
<path transform="matrix(1,0,0,-1,42.124,236.94499)" stroke-width=".59776" stroke-linecap="butt" stroke-miterlimit="10" stroke-linejoin="miter" fill="none" stroke="#000000" d="M151.43445 61.00632C151.43445 62.1068 150.54238 62.99887 149.4419 62.99887 148.34143 62.99887 147.44934 62.1068 147.44934 61.00632 147.44934 59.90585 148.34143 59.01376 149.4419 59.01376 150.54238 59.01376 151.43445 59.90585 151.43445 61.00632ZM149.4419 61.00632"/>
<path transform="matrix(1,0,0,-1,42.124,236.94499)" d="M219.3626 62.51088C219.3626 63.61134 218.4705 64.50343 217.37004 64.50343 216.26958 64.50343 215.37749 63.61134 215.37749 62.51088 215.37749 61.4104 216.26958 60.51833 217.37004 60.51833 218.4705 60.51833 219.3626 61.4104 219.3626 62.51088ZM217.37004 62.51088"/>
<path transform="matrix(1,0,0,-1,42.124,236.94499)" stroke-width=".59776" stroke-linecap="butt" stroke-miterlimit="10" stroke-linejoin="miter" fill="none" stroke="#000000" d="M219.3626 62.51088C219.3626 63.61134 218.4705 64.50343 217.37004 64.50343 216.26958 64.50343 215.37749 63.61134 215.37749 62.51088 215.37749 61.4104 216.26958 60.51833 217.37004 60.51833 218.4705 60.51833 219.3626 61.4104 219.3626 62.51088ZM217.37004 62.51088"/>
<path transform="matrix(1,0,0,-1,42.124,236.94499)" d="M287.29075 64.07443C287.29075 65.1749 286.39866 66.06699 285.29817 66.06699 284.1977 66.06699 283.30564 65.1749 283.30564 64.07443 283.30564 62.97395 284.1977 62.08188 285.29817 62.08188 286.39866 62.08188 287.29075 62.97395 287.29075 64.07443ZM285.29817 64.07443"/>
<path transform="matrix(1,0,0,-1,42.124,236.94499)" stroke-width=".59776" stroke-linecap="butt" stroke-miterlimit="10" stroke-linejoin="miter" fill="none" stroke="#000000" d="M287.29075 64.07443C287.29075 65.1749 286.39866 66.06699 285.29817 66.06699 284.1977 66.06699 283.30564 65.1749 283.30564 64.07443 283.30564 62.97395 284.1977 62.08188 285.29817 62.08188 286.39866 62.08188 287.29075 62.97395 287.29075 64.07443ZM285.29817 64.07443"/>
<path transform="matrix(1,0,0,-1,42.124,236.94499)" stroke-width=".59776" stroke-linecap="butt" stroke-miterlimit="10" stroke-linejoin="miter" fill="none" stroke="#000000" d=""/>
<use data-text="&#x1d703;" xlink:href="#font_1_3169" transform="matrix(9.96264,0,0,-9.96264,189.15302,265.086)"/>
<use data-text="&#x1d438;" xlink:href="#font_1_2480" transform="matrix(0,-9.96264,-9.96264,-0,11.819,137.41999)"/>
<use data-text="&#x00d7;" xlink:href="#font_1_183" transform="matrix(0,-9.96264,-9.96264,-0,11.819,127.49719)"/>
<use data-text="&#x1d435;" xlink:href="#font_1_2477" transform="matrix(0,-9.96264,-9.96264,-0,11.819,118.90939)"/>
<use data-text="&#x1d456;" xlink:href="#font_3_2509" transform="matrix(0,-7.47198,-7.47198,-0,14.309998,111.97098)"/>
<use data-text="&#x1d457;" xlink:href="#font_3_2510" transform="matrix(0,-7.47198,-7.47198,-0,14.309998,109.647197)"/>
<path transform="matrix(1,0,0,-1,42.124,236.94499)" d="M211.92217 144.2642H253.85326V223.03739H211.92217Z" fill="#ffffff" fill-opacity=".8"/>
<path transform="matrix(1,0,0,-1,42.124,236.94499)" stroke-width=".3985" stroke-linecap="butt" stroke-miterlimit="10" stroke-linejoin="miter" fill="none" stroke="#cccccc" d="M211.92217 144.2642H253.85326V223.03739H211.92217Z"/>
<path transform="matrix(1,0,0,-1,257.33103,21.244996)" stroke-width=".59776" stroke-linecap="butt" stroke-miterlimit="10" stroke-linejoin="miter" fill="none" stroke="#ff0000" d="M0 0H8.50412 17.00826"/>
<path transform="matrix(1,0,0,-1,257.33103,21.244996)" stroke-width=".59776" stroke-linecap="butt" stroke-miterlimit="10" stroke-linejoin="miter" fill="none" stroke="#ff0000" d="M6.51157 0H10.49667M8.50412 1.99255V-1.99255"/>
<use data-text="&#x1d435;" xlink:href="#font_3_2477" transform="matrix(7.97011,0,0,-7.97011,276.631,23.100007)"/>
<use data-text="&#x1d45b;" xlink:href="#font_4_2514" transform="matrix(5.97758,0,0,-5.97758,282.178,25.093003)"/>
<use data-text="&#x1d45b;" xlink:href="#font_4_2514" transform="matrix(5.97758,0,0,-5.97758,285.14888,25.093003)"/>
<path transform="matrix(1,0,0,-1,257.33103,31.928996)" stroke-width=".59776" stroke-linecap="butt" stroke-miterlimit="10" stroke-linejoin="miter" fill="none" stroke="#0000ff" d="M0 0H8.50412 17.00826"/>
<path transform="matrix(1,0,0,-1,257.33103,31.928996)" stroke-width=".59776" stroke-linecap="butt" stroke-miterlimit="10" stroke-linejoin="miter" fill="none" stroke="#0000ff" d="M7.09517-1.40894 9.91307 1.40894M7.09517 1.40894 9.91307-1.40894"/>
<use data-text="&#x1d435;" xlink:href="#font_3_2477" transform="matrix(7.97011,0,0,-7.97011,276.631,33.783998)"/>
<use data-text="&#x1d45a;" xlink:href="#font_4_2513" transform="matrix(5.97758,0,0,-5.97758,282.178,35.777009)"/>
<use data-text="&#x1d45a;" xlink:href="#font_4_2513" transform="matrix(5.97758,0,0,-5.97758,286.4221,35.777009)"/>
<path transform="matrix(1,0,0,-1,257.33103,42.612997)" stroke-width=".59776" stroke-linecap="butt" stroke-miterlimit="10" stroke-linejoin="miter" fill="none" stroke="#008000" d="M0 0H8.50412 17.00826"/>
<path transform="matrix(1,0,0,-1,257.33103,42.612997)" d="M8.50412 1.99255 9.99854 0 8.50412-1.99255 7.0097 0Z" fill="#008000" fill-opacity=".8"/>
<path transform="matrix(1,0,0,-1,257.33103,42.612997)" stroke-width=".59776" stroke-linecap="butt" stroke-miterlimit="10" stroke-linejoin="miter" fill="none" stroke="#008000" d="M8.50412 1.99255 9.99854 0 8.50412-1.99255 7.0097 0Z"/>
<use data-text="&#x1d435;" xlink:href="#font_3_2477" transform="matrix(7.97011,0,0,-7.97011,276.631,44.468004)"/>
<use data-text="&#x2113;" xlink:href="#font_4_974" transform="matrix(5.97758,0,0,-5.97758,282.178,46.461)"/>
<use data-text="&#x2113;" xlink:href="#font_4_974" transform="matrix(5.97758,0,0,-5.97758,285.63905,46.461)"/>
<path transform="matrix(1,0,0,-1,257.33103,53.296998)" stroke-width=".59776" stroke-linecap="butt" stroke-miterlimit="10" stroke-linejoin="miter" fill="none" stroke="#000000" d="M0 0H8.50412 17.00826"/>
<path transform="matrix(1,0,0,-1,257.33103,53.296998)" d="M10.49667 0C10.49667 1.10046 9.60458 1.99255 8.50412 1.99255 7.40364 1.99255 6.51157 1.10046 6.51157 0 6.51157-1.10046 7.40364-1.99255 8.50412-1.99255 9.60458-1.99255 10.49667-1.10046 10.49667 0ZM8.50412 0" fill-opacity=".8"/>
<path transform="matrix(1,0,0,-1,257.33103,53.296998)" stroke-width=".59776" stroke-linecap="butt" stroke-miterlimit="10" stroke-linejoin="miter" fill="none" stroke="#000000" d="M10.49667 0C10.49667 1.10046 9.60458 1.99255 8.50412 1.99255 7.40364 1.99255 6.51157 1.10046 6.51157 0 6.51157-1.10046 7.40364-1.99255 8.50412-1.99255 9.60458-1.99255 10.49667-1.10046 10.49667 0ZM8.50412 0"/>
<use data-text="&#x1d435;" xlink:href="#font_3_2477" transform="matrix(7.97011,0,0,-7.97011,276.631,55.152009)"/>
<use data-text="&#x1d45b;" xlink:href="#font_4_2514" transform="matrix(5.97758,0,0,-5.97758,282.178,57.143999)"/>
<use data-text="&#x2113;" xlink:href="#font_4_974" transform="matrix(5.97758,0,0,-5.97758,285.14888,57.143999)"/>
<path transform="matrix(1,0,0,-1,257.33103,63.980997)" stroke-width=".59776" stroke-linecap="butt" stroke-dasharray=".59776,1.99255" stroke-miterlimit="10" stroke-linejoin="miter" fill="none" stroke="#ff0000" d="M0 0H8.50412 17.00826"/>
<path transform="matrix(1,0,0,-1,257.33103,63.980997)" stroke-width=".59776" stroke-linecap="butt" stroke-miterlimit="10" stroke-linejoin="miter" fill="none" stroke="#ff0000" d="M6.51157 0H10.49667M8.50412 1.99255V-1.99255"/>
<use data-text="&#x1d435;" xlink:href="#font_3_2477" transform="matrix(7.97011,0,0,-7.97011,276.631,65.836)"/>
<use data-text="3" xlink:href="#font_4_52" transform="matrix(5.97758,0,0,-5.97758,282.178,67.828)"/>
<use data-text="3" xlink:href="#font_4_52" transform="matrix(5.97758,0,0,-5.97758,285.1668,67.828)"/>
<path transform="matrix(1,0,0,-1,257.33103,74.66499)" stroke-width=".59776" stroke-linecap="butt" stroke-dasharray=".59776,1.99255" stroke-miterlimit="10" stroke-linejoin="miter" fill="none" stroke="#008000" d="M0 0H8.50412 17.00826"/>
<path transform="matrix(1,0,0,-1,257.33103,74.66499)" d="M8.50412 1.99255 9.99854 0 8.50412-1.99255 7.0097 0Z" fill="#008000" fill-opacity=".8"/>
<path transform="matrix(1,0,0,-1,257.33103,74.66499)" stroke-width=".59776" stroke-linecap="butt" stroke-miterlimit="10" stroke-linejoin="miter" fill="none" stroke="#008000" d="M8.50412 1.99255 9.99854 0 8.50412-1.99255 7.0097 0Z"/>
<use data-text="&#x1d435;" xlink:href="#font_3_2477" transform="matrix(7.97011,0,0,-7.97011,276.631,76.520008)"/>
<use data-text="1" xlink:href="#font_4_50" transform="matrix(5.97758,0,0,-5.97758,282.178,78.51201)"/>
<use data-text="1" xlink:href="#font_4_50" transform="matrix(5.97758,0,0,-5.97758,285.1668,78.51201)"/>
<path transform="matrix(1,0,0,-1,257.33103,85.34799)" stroke-width=".59776" stroke-linecap="butt" stroke-dasharray=".59776,1.99255" stroke-miterlimit="10" stroke-linejoin="miter" fill="none" stroke="#000000" d="M0 0H8.50412 17.00826"/>
<path transform="matrix(1,0,0,-1,257.33103,85.34799)" d="M10.49667 0C10.49667 1.10046 9.60458 1.99255 8.50412 1.99255 7.40364 1.99255 6.51157 1.10046 6.51157 0 6.51157-1.10046 7.40364-1.99255 8.50412-1.99255 9.60458-1.99255 10.49667-1.10046 10.49667 0ZM8.50412 0" fill-opacity=".8"/>
<path transform="matrix(1,0,0,-1,257.33103,85.34799)" stroke-width=".59776" stroke-linecap="butt" stroke-miterlimit="10" stroke-linejoin="miter" fill="none" stroke="#000000" d="M10.49667 0C10.49667 1.10046 9.60458 1.99255 8.50412 1.99255 7.40364 1.99255 6.51157 1.10046 6.51157 0 6.51157-1.10046 7.40364-1.99255 8.50412-1.99255 9.60458-1.99255 10.49667-1.10046 10.49667 0ZM8.50412 0"/>
<use data-text="&#x1d435;" xlink:href="#font_3_2477" transform="matrix(7.97011,0,0,-7.97011,276.631,87.203)"/>
<use data-text="3" xlink:href="#font_4_52" transform="matrix(5.97758,0,0,-5.97758,282.178,89.196)"/>
<use data-text="1" xlink:href="#font_4_50" transform="matrix(5.97758,0,0,-5.97758,285.1668,89.196)"/>
</svg>
