<svg xmlns="http://www.w3.org/2000/svg" xmlns:xlink="http://www.w3.org/1999/xlink" xmlns:inkscape="http://www.inkscape.org/namespaces/inkscape" version="1.1" width="343.843" height="265.896" viewBox="0 0 343.843 265.896">
<defs>
<path id="font_1_49" d="M.37998963 .32505799C.37998963 .12722779 .33499146 .012313843 .25 .012313843 .1639862 .012313843 .11999512 .1262207 .11999512 .32904054 .11999512 .5318756 .16499329 .6497803 .24798584 .6497803 .33599855 .6497803 .37998963 .53286746 .37998963 .32505799M.47599793 .3300476C.47599793 .53486636 .3849945 .67578127 .2539978 .67578127 .09298706 .67578127 .023986817 .5128937 .023986817 .3360443 .023986817 .17218018 .07899475-.013671875 .25-.013671875 .41299439-.013671875 .47599793 .15818787 .47599793 .3300476Z"/>
<path id="font_1_3177" d="M.56799319 .4284668H.28599549C.18199158 .4284668 .117996219 .38246156 .07398987 .3024292H.08999634C.13398743 .35546876 .17098999 .35546876 .22898865 .35546876L.13999939 .14936829C.1269989 .12034607 .10899353 .09133911 .06599426 .079330448 .039993287 .07232666 .034988405 .046310426 .034988405 .031311037 .034988405 .007293701 .05999756-.0126953129 .085998538-.0126953129 .09799194-.0126953129 .11299133-.010696411 .12399292-.0017089844 .20799256 .061325075 .23899842 .23339844 .2849884 .35546876H.3789978C.35398866 .27142335 .32398988 .2013855 .30099488 .13035584 .29499818 .111343387 .2919922 .09133911 .2919922 .06832886 .2919922 .029159546 .30899049-.0068359377 .34899903-.0068359377 .4189911-.0068359377 .47200013 .06315613 .49299623 .13522339H.47698976C.45298768 .08117676 .4249878 .06915283 .4039917 .06915283 .38198854 .06915283 .3659973 .094177249 .3659973 .11720276 .3659973 .1842804 .4189911 .31240846 .43299867 .35546876H.54499819L.56799319 .4284668Z"/>
<path id="font_1_48" d="M.2869873 .67578127H.21998596L-.009002686-.013671875H.05899048L.2869873 .67578127Z"/>
<path id="font_1_57" d="M.2709961 .27209474C.33898927 .22613526 .36898805 .18617249 .36898805 .1242218 .36898805 .059280397 .32398988 .014328003 .25898744 .014328003 .18299866 .014328003 .13198853 .06626892 .13198853 .15820313 .13198853 .22314453 .15299988 .26409913 .21199036 .3120575L.2709961 .27209474M.35499574 .53286746C.35499574 .470932 .32899476 .42897035 .26098634 .3889923 .17298889 .4409485 .13598633 .48690797 .13598633 .54885867 .13598633 .6108093 .1789856 .6477661 .24598694 .6477661 .31399537 .6477661 .35499574 .60180667 .35499574 .53286746M.44499208 .15519715C.44499208 .23512268 .41299439 .28907777 .2899933 .37101747 .3889923 .42396546 .42399598 .45793153 .42399598 .53286746 .42399598 .6108093 .35499574 .67578127 .2559967 .67578127 .14498902 .67578127 .06199646 .61579897 .06199646 .5198822 .06199646 .4549408 .08299255 .41697694 .18598938 .3320465 .07899475 .2571106 .055999757 .21813965 .055999757 .14920044 .055999757 .055282594 .1349945-.013671875 .24798584-.013671875 .36799623-.013671875 .44499208 .05229187 .44499208 .15519715Z"/>
<path id="font_1_53" d="M.2919922 .23098755H.051986696L.2919922 .573822V.23098755M.47299195 .16699219V.23098755H.36999513V.67578127H.32598878L.011993408 .23098755V.16699219H.2919922V0H.36999513V.16699219H.47299195Z"/>
<path id="font_1_52" d="M.06098938 .50987246C.101989749 .58380129 .147995 .61576846 .20999146 .61576846 .27598573 .61576846 .31799317 .58180239 .31799317 .51387026 .31799317 .45292665 .28599549 .40795899 .23699951 .37998963 .21699524 .36799623 .19099427 .3570099 .15299988 .34402467V.33003236C.20999146 .33003236 .23298645 .32704164 .25498963 .3200531 .32398988 .3000641 .35899354 .2511139 .35899354 .17518616 .35899354 .09025574 .30299378 .022323609 .22898865 .022323609 .20098877 .022323609 .17999268 .027313233 .14299011 .05329895 .114990238 .073272708 .09899902 .07926941 .08198547 .07926941 .05899048 .07926941 .040985109 .06428528 .040985109 .043304445 .040985109 .0073242189 .07998657-.013671875 .15299988-.013671875 .24198914-.013671875 .33699037 .015319824 .3849945 .07926941 .4139862 .11723328 .43099977 .16618347 .43099977 .21913147 .43099977 .27108766 .4149933 .31704713 .3869934 .34802247 .3659973 .36999513 .34799195 .38198854 .3039856 .40097047 .37098695 .44093324 .39698792 .4908905 .39698792 .5388489 .39698792 .6207733 .33399964 .67578127 .24099732 .67578127 .13699341 .67578127 .07398987 .6087799 .04499817 .51387026L.06098938 .50987246Z"/>
<path id="font_1_51" d="M.47399903 .13696289 .45999146 .1429596C.4269867 .08699036 .4059906 .07598877 .3639984 .07598877H.12998963L.29499818 .2519226C.38398744 .34588624 .4229889 .42085267 .4229889 .4998169 .4229889 .59877017 .35099793 .67578127 .23799134 .67578127 .114990238 .67578127 .050994874 .5937805 .02999878 .4768219L.050994874 .47183229C.09098816 .5697937 .12599182 .6017761 .19799805 .6017761 .2829895 .6017761 .33699037 .55178835 .33699037 .4608307 .33699037 .37586976 .30099488 .29989625 .20698548 .200943L.0289917 .011993408V0H.41999818L.47399903 .13696289Z"/>
<path id="font_1_47" d="M.18099976 .04324341C.18099976 .07325745 .15499878 .100250247 .12599182 .100250247 .09498596 .100250247 .069992069 .07525635 .069992069 .04425049 .069992069 .013244629 .09399414-.0107421879 .125-.0107421879 .15499878-.0107421879 .18099976 .014251709 .18099976 .04324341Z"/>
<path id="font_1_54" d="M.43798829 .68110659 .42900086 .6880951C.41299439 .667099 .4039917 .6621094 .3809967 .6621094H.17399597L.06498718 .4251709C.06498718 .4251709 .06399536 .42216493 .06399536 .42016603 .06399536 .4141693 .066986087 .4121704 .07598877 .4121704 .17199707 .4121704 .24198914 .380188 .2889862 .3421936 .33399964 .30621339 .35598756 .2562256 .35598756 .19226074 .35598756 .106292728 .29100038 .02331543 .22099304 .02331543 .20098877 .02331543 .17799378 .032318117 .1499939 .05531311 .117996219 .08129883 .09899902 .08630371 .07598877 .08630371 .04798889 .08630371 .0309906 .07330322 .0309906 .048309328 .0309906 .010314941 .08299255-.013671875 .1579895-.013671875 .22599793-.013671875 .2809906 .0013275147 .32798768 .035308839 .3959961 .08529663 .42599488 .14727783 .42599488 .24324036 .42599488 .29621888 .4169922 .334198 .3909912 .37019349 .33399964 .4491577 .28399659 .47114564 .14099121 .49813844L.18099976 .58309939H.375C.3909912 .58309939 .39898683 .58909609 .4019928 .59609988L.43798829 .68110659Z"/>
<path id="font_1_50" d="M.3939972 0V.01499939C.31900025 .01499939 .29899598 .032989503 .29899598 .07597351V.67277529L.2899933 .67578127 .11099243 .5847931V.5708008L.13798523 .5807953C.1559906 .5877991 .17298889 .59280398 .18299866 .59280398 .20399475 .59280398 .21299744 .57780459 .21299744 .543808V.0949707C.21299744 .039978029 .19198609 .018997193 .117996219 .01499939V0H.3939972Z"/>
<clipPath id="clip_2">
<path transform="matrix(1,0,0,-1,42.772,232.33202)" d="M0 0H298.88319V230.14386H0Z"/>
</clipPath>
<path id="font_1_3169" d="M.35598756 .30773927C.35299684 .29875184 .34700013 .270813 .33999635 .24784851 .30899049 .14901734 .24899292 .018249512 .18199158 .018249512 .13899231 .018249512 .12399292 .074157718 .12399292 .14303589 .12399292 .19094849 .1329956 .25782777 .14898682 .30773927H.35598756M.15899658 .34375C.18499756 .4628296 .2669983 .6389618 .33898927 .6389618 .37998963 .6389618 .3899994 .58291628 .3899994 .50987246 .3899994 .46884156 .37998963 .41378785 .36499024 .34375H.15899658M.47399903 .47183229C.47399903 .6049347 .4189911 .66796877 .34599305 .66796877 .1559906 .66796877 .039993287 .34173585 .039993287 .16798401 .039993287 .048202516 .08198547-.0107421879 .1769867-.0107421879 .33099366-.0107421879 .47399903 .2758026 .47399903 .47183229Z"/>
<path id="font_1_2480" d="M.73399356 .653183H.19999695L.19599915 .6371765H.21499634C.27398683 .6371765 .2899933 .6261749 .2899933 .60217288 .2899933 .59516909 .2889862 .5841522 .2849884 .56614688L.16499329 .07798767C.15699768 .04399109 .13398743 .015991211 .06098938 .015991211H.041992189L.037994386 0H.60899356L.6749878 .19799805H.6589966C.6159973 .084991458 .55999758 .037994386 .4019928 .037994386H.33499146C.28799439 .037994386 .27198792 .04899597 .27198792 .06498718 .27198792 .067993167 .272995 .070999149 .27398683 .07499695L.33999635 .3330078H.42999269C.46099855 .3330078 .5019989 .32899476 .5019989 .28199769 .5019989 .2649994 .49699403 .23500061 .49598695 .22200012H.5130005L.57099917 .46406556H.5549927C.5329895 .38200379 .4889984 .3690033 .42900086 .3690033H.34899903L.40899659 .6171875H.56900027C.6199951 .6171875 .6749878 .60417178 .6779938 .53012087 .6779938 .519104 .6769867 .5081024 .6759949 .49508668H.69200137L.73399356 .653183Z"/>
<path id="font_1_183" d="M.5970001 .021987915 .36698915 .2519989 .5970001 .48399354 .5509949 .5289917 .31999208 .29899598 .08999634 .5289917 .042999269 .48298646 .272995 .2519989 .042999269 .020996094 .08898926-.025009156 .31999208 .20498657 .5509949-.025009156 .5970001 .021987915Z"/>
<path id="font_1_2477" d="M.33799745 .3143463C.35299684 .31835938 .37298585 .31835938 .3889923 .31835938 .46699525 .31835938 .5309906 .28330995 .5309906 .21022034 .5309906 .08004761 .43499757 .037994386 .34098817 .037994386 .31498719 .037994386 .29499818 .039993287 .269989 .04699707L.33799745 .3143463M.4059906 .61125186C.4189911 .61325076 .43399049 .6142578 .44898988 .6142578 .5029907 .6142578 .56799319 .5932617 .56799319 .5162964 .56799319 .41932679 .5119934 .35334779 .3999939 .35334779 .3849945 .35334779 .36698915 .35534669 .34700013 .35934449L.4059906 .61125186M.19799805 .653244 .19299317 .6372528H.21199036C.2709961 .6372528 .2899933 .62124636 .2899933 .5952606 .2899933 .5892639 .2889862 .5792694 .28799439 .5742645L.16499329 .07904053C.15699768 .04499817 .13798523 .015991211 .06199646 .015991211H.041992189L.037994386 0H.3619995C.56900027 0 .651001 .094070438 .651001 .19319153 .651001 .27830506 .58399966 .32035829 .5239868 .3313446L.5209961 .33535768C.54100039 .3403473 .56999209 .34835816 .59498599 .36134339 .6429901 .38534547 .6859894 .43032838 .6859894 .5082855 .6859894 .6442566 .5339966 .653244 .44999696 .653244H.19799805Z"/>
<path id="font_3_2509" d="M.22698975 .4412079 .068984989 .41921998 .07199097 .4032135C.07899475 .4052124 .09098816 .4072113 .099990848 .4072113 .12298584 .4072113 .1309967 .40222169 .1309967 .3852234 .1309967 .3822174 .12998963 .37521363 .1289978 .37321473 .049987794 .0662384 .049987794 .04724121 .049987794 .035247804 .049987794 .008255005 .06199646-.0107421879 .08999634-.0107421879 .13899231-.0107421879 .18899536 .049240114 .22399903 .09423828L.21099854 .10424805C.1749878 .06524658 .16899109 .053253175 .14698792 .053253175 .13999939 .053253175 .13398743 .056243898 .13398743 .06324768 .13398743 .06724548 .13398743 .071243289 .1349945 .07723999L.22698975 .4412079M.25698854 .5662079C.25698854 .5912018 .23498535 .61621096 .20899964 .61621096 .17999268 .61621096 .16099549 .5912018 .16099549 .5662079 .16099549 .5402069 .17999268 .52020266 .20899964 .52020266 .23498535 .52020266 .25698854 .5402069 .25698854 .5662079Z"/>
<path id="font_3_2510" d="M.35099793 .44114686 .19299317 .4131317 .19599915 .39611817C.20298767 .39912416 .21499634 .40112306 .22299195 .40112306 .24499512 .40112306 .25498963 .39111329 .25498963 .3791046L.16299439 .015853882C.13899231-.080200199 .10598755-.15625 .05999756-.15625 .054992677-.15625 .049987794-.1502533 .049987794-.1462555 .049987794-.13023377 .06599426-.12724304 .06599426-.11222839 .06599426-.08921814 .049987794-.07420349 .0309906-.07420349-.0040130617-.07420349-.01600647-.10421753-.01600647-.12623596-.01600647-.1542511 .0039978029-.18725586 .056991579-.18725586 .16499329-.18725586 .22099304-.07220459 .24299622 .015853882L.35099793 .44114686M.37199403 .5662079C.37199403 .5912018 .34999085 .61621096 .32398988 .61621096 .29499818 .61621096 .27598573 .5912018 .27598573 .5662079 .27598573 .5402069 .29499818 .52020266 .32398988 .52020266 .34999085 .52020266 .37199403 .5402069 .37199403 .5662079Z"/>
<path id="font_3_2477" d="M.33799745 .3143463C.35299684 .31835938 .37298585 .31835938 .3889923 .31835938 .46699525 .31835938 .5309906 .28330995 .5309906 .21022034 .5309906 .08004761 .43499757 .037994386 .34098817 .037994386 .31498719 .037994386 .29499818 .039993287 .269989 .04699707L.33799745 .3143463M.4059906 .61125186C.4189911 .61325076 .43399049 .6142578 .44898988 .6142578 .5029907 .6142578 .56799319 .5932617 .56799319 .5162964 .56799319 .41932679 .5119934 .35334779 .3999939 .35334779 .3849945 .35334779 .36698915 .35534669 .34700013 .35934449L.4059906 .61125186M.19799805 .653244 .19299317 .6372528H.21199036C.2709961 .6372528 .2899933 .62124636 .2899933 .5952606 .2899933 .5892639 .2889862 .5792694 .28799439 .5742645L.16499329 .07904053C.15699768 .04499817 .13798523 .015991211 .06199646 .015991211H.041992189L.037994386 0H.3619995C.56900027 0 .651001 .094070438 .651001 .19319153 .651001 .27830506 .58399966 .32035829 .5239868 .3313446L.5209961 .33535768C.54100039 .3403473 .56999209 .34835816 .59498599 .36134339 .6429901 .38534547 .6859894 .43032838 .6859894 .5082855 .6859894 .6442566 .5339966 .653244 .44999696 .653244H.19799805Z"/>
<path id="font_4_2514" d="M.46699525 .096206668 .45399476 .10720825C.43998719 .09020996 .41600038 .05418396 .3919983 .05418396 .3809967 .05418396 .37799073 .062179567 .3769989 .06819153 .3769989 .07319641 .3769989 .07620239 .37799073 .078201297L.43699647 .3093567C.44198609 .32936097 .44799806 .35438539 .44799806 .37939454 .44799806 .4123993 .43598939 .44140626 .3919983 .44140626 .33198548 .44140626 .27198792 .37539674 .23199463 .32536317 .22999573 .32235719 .18099976 .25231935 .17599488 .25231935H.17298889L.22399903 .44140626 .06498718 .418396 .066986087 .4033966C.07398987 .4044037 .084991458 .4064026 .09498596 .4064026 .12199402 .4064026 .125 .39239503 .125 .37438966L.02999878 0H.10699463L.13999939 .12411499C.1459961 .1451416 .17199707 .19218445 .20799256 .24624634 .23899842 .29330445 .3019867 .37939454 .33999635 .37939454 .35798646 .37939454 .3639984 .36038209 .3639984 .34135438 .3639984 .3273468 .35899354 .307312 .35699464 .2993164L.2999878 .078063968C.29699708 .06704712 .29299928 .05102539 .29299928 .038009645 .29299928 .015182495 .3019867-.0078125 .33399964-.0078125 .38598634-.0078125 .43399049 .05618286 .46199037 .09020996L.46699525 .096206668Z"/>
<path id="font_4_2513" d="M.6669922 .10708618C.647995 .0700531 .621994 .054031373 .6049957 .054031373 .59599307 .054031373 .58999636 .058029176 .58999636 .06604004 .58999636 .06904602 .59098818 .07505798 .59199526 .078063968L.6529999 .30932618C.6589966 .3333435 .6599884 .35237123 .6599884 .37039186 .6599884 .41540528 .6419983 .44140626 .60598757 .44140626 .58599856 .44140626 .5669861 .43440248 .54499819 .41940309 .49598695 .38639833 .44400025 .32434083 .4149933 .27227784H.4099884L.41999818 .3083191C.42599488 .32833863 .42900086 .34335328 .42900086 .36038209 .42900086 .4044037 .41099549 .44140626 .37399293 .44140626 .33599855 .44140626 .27598573 .41540528 .18199158 .27227784H.17599488L.21998596 .44140626 .06298828 .41740418 .06498718 .4033966C.07299805 .4044037 .083999637 .4053955 .09199524 .4053955 .11898804 .4053955 .125 .39239503 .125 .37438966L.02999878 0H.10798645L.14299011 .13511658C.15899658 .19619751 .2689972 .37739564 .32099916 .37739564 .33898927 .37739564 .34399415 .359375 .34399415 .33935548 .34399415 .32434083 .34098817 .3083191 .33898927 .2993164L.2619934 0H.34098817L.375 .13511658C.3899994 .19619751 .5 .37739564 .55400088 .37739564 .57199099 .37739564 .5779877 .359375 .5779877 .33935548 .5779877 .32234193 .57598879 .31332398 .57199099 .2993164L.5159912 .078063968C.5109863 .058029176 .5099945 .04801941 .5099945 .041015626 .5099945 .0021820069 .5269928-.0078125 .548996-.0078125 .59599307-.0078125 .647995 .04219055 .6799927 .09623718L.6669922 .10708618Z"/>
<path id="font_4_974" d="M.2679901 .3962555C.31999208 .4772644 .375 .5582733 .42399598 .60827639 .44898988 .63427737 .47799684 .65527346 .5059967 .65527346 .5289917 .65527346 .54100039 .6432648 .54100039 .6242676 .54100039 .5282593 .42599488 .43026734 .2689972 .39526368L.2679901 .3962555M.07699585 .38926698C.10398865 .37025453 .1349945 .3612671 .16499329 .36026 .15098572 .33825685 .13699341 .31625367 .125 .29426576 .07798767 .21224976 .04798889 .1312561 .04798889 .07624817 .04798889 .018249512 .08799744-.0107421879 .1349945-.0107421879 .19799805-.0107421879 .25698854 .04624939 .3619995 .16925049L.34098817 .18624878C.24398804 .07424927 .18899536 .019256592 .14199829 .019256592 .114990238 .019256592 .10598755 .038253786 .10598755 .06225586 .10598755 .1292572 .19699097 .27626039 .24899292 .36026 .4249878 .386261 .57099917 .5152588 .57099917 .6202698 .57099917 .66625979 .548996 .6872711 .5069885 .6872711 .4249878 .6872711 .2899933 .5452728 .18499756 .3902588 .15499878 .3902588 .12399292 .3922577 .09098816 .41526795L.07699585 .38926698Z"/>
<path id="font_4_52" d="M.06098938 .50987246C.101989749 .58380129 .147995 .61576846 .20999146 .61576846 .27598573 .61576846 .31799317 .58180239 .31799317 .51387026 .31799317 .45292665 .28599549 .40795899 .23699951 .37998963 .21699524 .36799623 .19099427 .3570099 .15299988 .34402467V.33003236C.20999146 .33003236 .23298645 .32704164 .25498963 .3200531 .32398988 .3000641 .35899354 .2511139 .35899354 .17518616 .35899354 .09025574 .30299378 .022323609 .22898865 .022323609 .20098877 .022323609 .17999268 .027313233 .14299011 .05329895 .114990238 .073272708 .09899902 .07926941 .08198547 .07926941 .05899048 .07926941 .040985109 .06428528 .040985109 .043304445 .040985109 .0073242189 .07998657-.013671875 .15299988-.013671875 .24198914-.013671875 .33699037 .015319824 .3849945 .07926941 .4139862 .11723328 .43099977 .16618347 .43099977 .21913147 .43099977 .27108766 .4149933 .31704713 .3869934 .34802247 .3659973 .36999513 .34799195 .38198854 .3039856 .40097047 .37098695 .44093324 .39698792 .4908905 .39698792 .5388489 .39698792 .6207733 .33399964 .67578127 .24099732 .67578127 .13699341 .67578127 .07398987 .6087799 .04499817 .51387026L.06098938 .50987246Z"/>
<path id="font_4_50" d="M.3939972 0V.01499939C.31900025 .01499939 .29899598 .032989503 .29899598 .07597351V.67277529L.2899933 .67578127 .11099243 .5847931V.5708008L.13798523 .5807953C.1559906 .5877991 .17298889 .59280398 .18299866 .59280398 .20399475 .59280398 .21299744 .57780459 .21299744 .543808V.0949707C.21299744 .039978029 .19198609 .018997193 .117996219 .01499939V0H.3939972Z"/>
</defs>
<path transform="matrix(1,0,0,-1,42.772,232.33202)" stroke-width=".3985" stroke-linecap="butt" stroke-miterlimit="10" stroke-linejoin="miter" fill="none" stroke="#b0b0b0" d="M13.58559 0V230.14386M81.51031 0V230.14386M149.44019 0V230.14386M217.36835 0V230.14386M285.2965 0V230.14386"/>
<path transform="matrix(1,0,0,-1,42.772,232.33202)" stroke-width=".3985" stroke-linecap="butt" stroke-miterlimit="10" stroke-linejoin="miter" fill="none" stroke="#b0b0b0" d="M0 20.49356H298.88319M0 46.76639H298.88319M0 73.0392H298.88319M0 99.31203H298.88319M0 125.58484H298.88319M0 151.85767H298.88319M0 178.13048H298.88319M0 204.4033H298.88319"/>
<path transform="matrix(1,0,0,-1,42.772,232.33202)" stroke-width=".19925" stroke-linecap="butt" stroke-miterlimit="10" stroke-linejoin="miter" fill="none" stroke="#000000" d="M13.58559-4.25224V0M81.51031-4.25224V0M149.44019-4.25224V0M217.36835-4.25224V0M285.2965-4.25224V0"/>
<path transform="matrix(1,0,0,-1,42.772,232.33202)" stroke-width=".19925" stroke-linecap="butt" stroke-miterlimit="10" stroke-linejoin="miter" fill="none" stroke="#000000" d="M-4.25238 20.49356H0M-4.25238 46.76639H0M-4.25238 73.0392H0M-4.25238 99.31203H0M-4.25238 125.58484H0M-4.25238 151.85767H0M-4.25238 178.13048H0M-4.25238 204.4033H0"/>
<path transform="matrix(1,0,0,-1,42.772,232.33202)" stroke-width=".3985" stroke-linecap="butt" stroke-miterlimit="10" stroke-linejoin="miter" fill="none" stroke="#000000" d="M0 0V230.14386H298.88319V0H0Z"/>
<use data-text="0" xlink:href="#font_1_49" transform="matrix(9.96264,0,0,-9.96264,53.865999,246.83902)"/>
<use data-text="&#x1d70b;" xlink:href="#font_1_3177" transform="matrix(9.96264,0,0,-9.96264,117.377,246.83902)"/>
<use data-text="/" xlink:href="#font_1_48" transform="matrix(9.96264,0,0,-9.96264,123.43428,246.83902)"/>
<use data-text="8" xlink:href="#font_1_57" transform="matrix(9.96264,0,0,-9.96264,126.203899,246.83902)"/>
<use data-text="&#x1d70b;" xlink:href="#font_1_3177" transform="matrix(9.96264,0,0,-9.96264,185.306,246.83902)"/>
<use data-text="/" xlink:href="#font_1_48" transform="matrix(9.96264,0,0,-9.96264,191.3633,246.83902)"/>
<use data-text="4" xlink:href="#font_1_53" transform="matrix(9.96264,0,0,-9.96264,194.1329,246.83902)"/>
<use data-text="3" xlink:href="#font_1_52" transform="matrix(9.96264,0,0,-9.96264,250.743,246.83902)"/>
<use data-text="&#x1d70b;" xlink:href="#font_1_3177" transform="matrix(9.96264,0,0,-9.96264,255.72432,246.83902)"/>
<use data-text="/" xlink:href="#font_1_48" transform="matrix(9.96264,0,0,-9.96264,261.78163,246.83902)"/>
<use data-text="8" xlink:href="#font_1_57" transform="matrix(9.96264,0,0,-9.96264,264.55125,246.83902)"/>
<use data-text="&#x1d70b;" xlink:href="#font_1_3177" transform="matrix(9.96264,0,0,-9.96264,321.16,246.83902)"/>
<use data-text="/" xlink:href="#font_1_48" transform="matrix(9.96264,0,0,-9.96264,327.2173,246.83902)"/>
<use data-text="2" xlink:href="#font_1_51" transform="matrix(9.96264,0,0,-9.96264,329.9869,246.83902)"/>
<use data-text="0" xlink:href="#font_1_49" transform="matrix(9.96264,0,0,-9.96264,30.018,215.13703)"/>
<use data-text="0" xlink:href="#font_1_49" transform="matrix(9.96264,0,0,-9.96264,22.546,188.924)"/>
<use data-text="." xlink:href="#font_1_47" transform="matrix(9.96264,0,0,-9.96264,27.527319,188.924)"/>
<use data-text="5" xlink:href="#font_1_54" transform="matrix(9.96264,0,0,-9.96264,30.017979,188.924)"/>
<use data-text="1" xlink:href="#font_1_50" transform="matrix(9.96264,0,0,-9.96264,30.018,162.661)"/>
<use data-text="1" xlink:href="#font_1_50" transform="matrix(9.96264,0,0,-9.96264,22.546,136.379)"/>
<use data-text="." xlink:href="#font_1_47" transform="matrix(9.96264,0,0,-9.96264,27.527319,136.379)"/>
<use data-text="5" xlink:href="#font_1_54" transform="matrix(9.96264,0,0,-9.96264,30.017979,136.379)"/>
<use data-text="2" xlink:href="#font_1_51" transform="matrix(9.96264,0,0,-9.96264,30.018,110.116)"/>
<use data-text="2" xlink:href="#font_1_51" transform="matrix(9.96264,0,0,-9.96264,22.546,83.834)"/>
<use data-text="." xlink:href="#font_1_47" transform="matrix(9.96264,0,0,-9.96264,27.527319,83.834)"/>
<use data-text="5" xlink:href="#font_1_54" transform="matrix(9.96264,0,0,-9.96264,30.017979,83.834)"/>
<use data-text="3" xlink:href="#font_1_52" transform="matrix(9.96264,0,0,-9.96264,30.018,57.502)"/>
<use data-text="3" xlink:href="#font_1_52" transform="matrix(9.96264,0,0,-9.96264,22.546,31.289002)"/>
<use data-text="." xlink:href="#font_1_47" transform="matrix(9.96264,0,0,-9.96264,27.527319,31.289002)"/>
<use data-text="5" xlink:href="#font_1_54" transform="matrix(9.96264,0,0,-9.96264,30.017979,31.289002)"/>
<g clip-path="url(#clip_2)">
<path transform="matrix(1,0,0,-1,42.772,232.33202)" stroke-width=".59776" stroke-linecap="butt" stroke-miterlimit="10" stroke-linejoin="miter" fill="none" stroke="#ff0000" d="M13.58563 99.03476 16.30276 99.0594 19.01988 99.13332 21.73701 99.25647 24.45413 99.4288 27.17126 99.65022 29.88838 99.92062 32.60551 100.23985 35.32265 100.60771 38.03976 101.02408 40.7569 101.48868 43.47401 102.00127 46.19115 102.56161 48.90826 103.16937 51.6254 103.82425 54.34251 104.52586 57.05965 105.27385 59.77676 106.06778 62.4939 106.90724 65.21103 107.79173 67.92815 108.72076 70.64528 109.69382 73.3624 110.71034 76.07951 111.76973 78.79665 112.87135 81.51376 114.01456 84.23088 115.19867 86.94801 116.42297 89.66513 117.68669 92.38226 118.98906 95.0994 120.32922 97.81651 121.70636 100.53365 123.11955 103.25076 124.56786 105.9679 126.05032 108.68501 127.56595 111.40215 129.11367 114.11926 130.6924 116.8364 132.30101 119.55351 133.93836 122.27065 135.60323 124.98778 137.29434 127.7049 139.01044 130.42203 140.75017 133.13915 142.51219 135.85628 144.29503 138.5734 146.09726 141.29053 147.91736 144.00765 149.7538 146.72478 151.60498 149.4419 153.46926 152.15903 155.34496 154.87615 157.23036 157.59328 159.1237 160.31041 161.02318 163.02753 162.92694 165.74466 164.83312 168.46178 166.73976 171.17891 168.64492 173.89603 170.5466 176.61316 172.44277 179.33028 174.33135 182.04741 176.21027 184.76453 178.07736 187.48166 179.93053 190.19879 181.76758 192.91591 183.58632 195.63304 185.38454 198.35016 187.16 201.06729 188.9105 203.78441 190.63379 206.50154 192.32762 209.21866 193.98978 211.93579 195.61801 214.65291 197.21012 217.37004 198.7639 220.08718 200.27716 222.80429 201.74776 225.52143 203.17359 228.23854 204.55255 230.95568 205.8826 233.67279 207.16178 236.38993 208.38814 239.10704 209.55979 241.82416 210.67493 244.54128 211.73181 247.2584 212.72879 249.97554 213.66426 252.69266 214.53675 255.40979 215.34482 258.1269 216.08716 260.84407 216.7626 263.56117 217.36998 266.2783 217.90831 268.9954 218.3767 271.71257 218.77437 274.42967 219.10065 277.1468 219.35501 279.86393 219.53699 282.58106 219.6463 285.29817 219.68277"/>
<path transform="matrix(1,0,0,-1,42.772,232.33202)" stroke-width=".59776" stroke-linecap="butt" stroke-miterlimit="10" stroke-linejoin="miter" fill="none" stroke="#0000ff" d="M13.58563 61.92024 16.30276 61.9223 19.01988 61.92844 21.73701 61.93869 24.45413 61.95302 27.17126 61.97145 29.88838 61.99397 32.60551 62.0206 35.32265 62.0513 38.03976 62.0861 40.7569 62.12497 43.47401 62.16794 46.19115 62.21497 48.90826 62.26608 51.6254 62.32126 54.34251 62.38051 57.05965 62.4438 59.77676 62.51115 62.4939 62.58253 65.21103 62.65797 67.92815 62.73741 70.64528 62.82088 73.3624 62.90834 76.07951 62.99977 78.79665 63.09518 81.51376 63.19453 84.23088 63.29784 86.94801 63.40506 89.66513 63.51616 92.38226 63.6311 95.0994 63.74991 97.81651 63.87251 100.53365 63.9989 103.25076 64.12903 105.9679 64.26285 108.68501 64.40031 111.40215 64.54141 114.11926 64.68605 116.8364 64.83421 119.55351 64.98581 122.27065 65.14081 124.98778 65.29912 127.7049 65.46066 130.42203 65.6254 133.13915 65.79321 135.85628 65.96404 138.5734 66.13776 141.29053 66.31427 144.00765 66.49348 146.72478 66.6753 149.4419 66.85956 152.15903 67.04614 154.87615 67.23492 157.59328 67.42575 160.31041 67.61848 163.02753 67.81294 165.74466 68.00897 168.46178 68.20639 171.17891 68.405 173.89603 68.60461 176.61316 68.80504 179.33028 69.00603 182.04741 69.2074 184.76453 69.40886 187.48166 69.61023 190.19879 69.81123 192.91591 70.0116 195.63304 70.21106 198.35016 70.40935 201.06729 70.60617 203.78441 70.80124 206.50154 70.99426 209.21866 71.1849 211.93579 71.3729 214.65291 71.55788 217.37004 71.73955 220.08718 71.91756 222.80429 72.0916 225.52143 72.26135 228.23854 72.42644 230.95568 72.58658 233.67279 72.74142 236.38993 72.89066 239.10704 73.03394 241.82416 73.17096 244.54128 73.30144 247.2584 73.42505 249.97554 73.5415 252.69266 73.65056 255.40979 73.7519 258.1269 73.84534 260.84407 73.93059 263.56117 74.00748 266.2783 74.07579 268.9954 74.13538 271.71257 74.18604 274.42967 74.22768 277.1468 74.26018 279.86393 74.28348 282.58106 74.29745 285.29817 74.30212"/>
<path transform="matrix(1,0,0,-1,42.772,232.33202)" stroke-width=".59776" stroke-linecap="butt" stroke-miterlimit="10" stroke-linejoin="miter" fill="none" stroke="#008000" d="M13.58563 204.85257 16.30276 204.83745 19.01988 204.79212 21.73701 204.71662 24.45413 204.61096 27.17126 204.47524 29.88838 204.30954 32.60551 204.11397 35.32265 203.88864 38.03976 203.63372 40.7569 203.34935 43.47401 203.03575 46.19115 202.6931 48.90826 202.32164 51.6254 201.9216 54.34251 201.49324 57.05965 201.03688 59.77676 200.55281 62.4939 200.04134 65.21103 199.50283 67.92815 198.9376 70.64528 198.34612 73.3624 197.72873 76.07951 197.0859 78.79665 196.41803 81.51376 195.72563 84.23088 195.00917 86.94801 194.26917 89.66513 193.50615 92.38226 192.72064 95.0994 191.91326 97.81651 191.08455 100.53365 190.23516 103.25076 189.36573 105.9679 188.47687 108.68501 187.5693 111.40215 186.6437 114.11926 185.70082 116.8364 184.74137 119.55351 183.7661 122.27065 182.77584 124.98778 181.77135 127.7049 180.75347 130.42203 179.72303 133.13915 178.68093 135.85628 177.62804 138.5734 176.56528 141.29053 175.49355 144.00765 174.41382 146.72478 173.32706 149.4419 172.23424 152.15903 171.13637 154.87615 170.03449 157.59328 168.92963 160.31041 167.82285 163.02753 166.71523 165.74466 165.60785 168.46178 164.50183 171.17891 163.39829 173.89603 162.29839 176.61316 161.20323 179.33028 160.11402 182.04741 159.0319 184.76453 157.95807 187.48166 156.89369 190.19879 155.84 192.91591 154.7982 195.63304 153.76946 198.35016 152.75499 201.06729 151.75603 203.78441 150.77376 206.50154 149.8094 209.21866 148.86417 211.93579 147.9392 214.65291 147.03574 217.37004 146.15489 220.08718 145.29787 222.80429 144.46578 225.52143 143.65976 228.23854 142.88088 230.95568 142.13024 233.67279 141.40888 236.38993 140.7178 239.10704 140.05802 241.82416 139.43044 244.54128 138.83603 247.2584 138.27562 249.97554 137.75006 252.69266 137.26013 255.40979 136.80658 258.1269 136.39008 260.84407 136.01126 263.56117 135.67072 266.2783 135.36898 268.9954 135.10649 271.71257 134.88372 274.42967 134.70095 277.1468 134.5585 279.86393 134.45658 282.58106 134.39536 285.29817 134.37494"/>
<path transform="matrix(1,0,0,-1,42.772,232.33202)" stroke-width=".59776" stroke-linecap="butt" stroke-miterlimit="10" stroke-linejoin="miter" fill="none" stroke="#000000" d="M13.58563 20.49358 16.30276 21.94136 19.01988 23.38805 21.73701 24.83263 24.45413 26.27399 27.17126 27.71106 29.88838 29.14279 32.60551 30.56812 35.32265 31.98598 38.03976 33.39526 40.7569 34.79495 43.47401 36.18398 46.19115 37.56123 48.90826 38.92572 51.6254 40.27634 54.34251 41.61205 57.05965 42.9318 59.77676 44.23451 62.4939 45.51915 65.21103 46.78467 67.92815 48.03001 70.64528 49.25417 73.3624 50.45605 76.07951 51.63469 78.79665 52.78899 81.51376 53.91797 84.23088 55.02058 86.94801 56.09584 89.66513 57.14273 92.38226 58.16022 95.0994 59.14735 97.81651 60.10312 100.53365 61.02654 103.25076 61.91666 105.9679 62.77252 108.68501 63.59317 111.40215 64.37766 114.11926 65.12506 116.8364 65.83446 119.55351 66.50497 122.27065 67.1357 124.98778 67.7258 127.7049 68.27438 130.42203 68.78064 133.13915 69.24376 135.85628 69.66293 138.5734 70.03743 141.29053 70.36646 144.00765 70.64932 146.72478 70.88531 149.4419 71.0738 152.15903 71.21411 154.87615 71.3057 157.59328 71.34795 160.31041 71.34035 163.02753 71.28242 165.74466 71.1737 168.46178 71.01381 171.17891 70.80237 173.89603 70.53908 176.61316 70.22368 179.33028 69.85594 182.04741 69.43575 184.76453 68.96298 187.48166 68.4376 190.19879 67.85968 192.91591 67.22928 195.63304 66.54659 198.35016 65.81181 201.06729 65.0253 203.78441 64.1874 206.50154 63.2986 209.21866 62.35942 211.93579 61.3705 214.65291 60.33255 217.37004 59.24635 220.08718 58.1128 222.80429 56.93283 225.52143 55.70755 228.23854 54.43806 230.95568 53.12561 233.67279 51.77153 236.38993 50.37724 239.10704 48.9442 241.82416 47.47408 244.54128 45.96844 247.2584 44.42914 249.97554 42.85797 252.69266 41.25685 255.40979 39.62779 258.1269 37.97282 260.84407 36.2941 263.56117 34.59378 266.2783 32.87413 268.9954 31.13748 271.71257 29.38611 274.42967 27.62245 277.1468 25.84892 279.86393 24.06795 282.58106 22.282 285.29817 20.49358"/>
<path transform="matrix(1,0,0,-1,42.772,232.33202)" stroke-width=".59776" stroke-linecap="butt" stroke-dasharray=".59776,1.99255" stroke-miterlimit="10" stroke-linejoin="miter" fill="none" stroke="#ff0000" d="M13.58563 99.03476 16.30276 99.04001 19.01988 99.05582 21.73701 99.08215 24.45413 99.11903 27.17126 99.16644 29.88838 99.22443 32.60551 99.29295 35.32265 99.37206 38.03976 99.46175 40.7569 99.56201 43.47401 99.67288 46.19115 99.79437 48.90826 99.92648 51.6254 100.06924 54.34251 100.22269 57.05965 100.38678 59.77676 100.56157 62.4939 100.74704 65.21103 100.94325 67.92815 101.1502 70.64528 101.36787 73.3624 101.59631 76.07951 101.83553 78.79665 102.08551 81.51376 102.34627 84.23088 102.61778 86.94801 102.9001 89.66513 103.19319 92.38226 103.49706 95.0994 103.81166 97.81651 104.13701 100.53365 104.47307 103.25076 104.8198 105.9679 105.17717 108.68501 105.54514 111.40215 105.92366 114.11926 106.31262 116.8364 106.71202 119.55351 107.12173 122.27065 107.54166 124.98778 107.9717 127.7049 108.41173 130.42203 108.86162 133.13915 109.3212 135.85628 109.79031 138.5734 110.26875 141.29053 110.75635 144.00765 111.25284 146.72478 111.758 149.4419 112.27153 152.15903 112.79315 154.87615 113.32256 157.59328 113.8594 160.31041 114.40329 163.02753 114.95384 165.74466 115.51062 168.46178 116.07315 171.17891 116.64096 173.89603 117.21353 176.61316 117.79027 179.33028 118.3706 182.04741 118.95392 184.76453 119.53954 187.48166 120.12675 190.19879 120.71486 192.91591 121.30305 195.63304 121.89053 198.35016 122.47649 201.06729 123.06 203.78441 123.64017 206.50154 124.21608 209.21866 124.78671 211.93579 125.3511 214.65291 125.9082 217.37004 126.45697 220.08718 126.9963 222.80429 127.52513 225.52143 128.04233 228.23854 128.54682 230.95568 129.03742 233.67279 129.51303 236.38993 129.97254 239.10704 130.4148 241.82416 130.83875 244.54128 131.24326 247.2584 131.62732 249.97554 131.9899 252.69266 132.32997 255.40979 132.64665 258.1269 132.93901 260.84407 133.20623 263.56117 133.44751 266.2783 133.66214 268.9954 133.8495 271.71257 134.00902 274.42967 134.14022 277.1468 134.24268 279.86393 134.31609 282.58106 134.36023 285.29817 134.37494"/>
<path transform="matrix(1,0,0,-1,42.772,232.33202)" stroke-width=".59776" stroke-linecap="butt" stroke-dasharray=".59776,1.99255" stroke-miterlimit="10" stroke-linejoin="miter" fill="none" stroke="#008000" d="M13.58563 204.85257 16.30276 204.85684 19.01988 204.86963 21.73701 204.89093 24.45413 204.92075 27.17126 204.95902 29.88838 205.00572 32.60551 205.06085 35.32265 205.1243 38.03976 205.19605 40.7569 205.27602 43.47401 205.36414 46.19115 205.46035 48.90826 205.56452 51.6254 205.67659 54.34251 205.79645 57.05965 205.92395 59.77676 206.05902 62.4939 206.2015 65.21103 206.35129 67.92815 206.50818 70.64528 206.67208 73.3624 206.84276 76.07951 207.0201 78.79665 207.20389 81.51376 207.39394 84.23088 207.59006 86.94801 207.79203 89.66513 207.99964 92.38226 208.21263 95.0994 208.4308 97.81651 208.6539 100.53365 208.88164 103.25076 209.11377 105.9679 209.35002 108.68501 209.5901 111.40215 209.83374 114.11926 210.08058 116.8364 210.33037 119.55351 210.58274 122.27065 210.83739 124.98778 211.09398 127.7049 211.35218 130.42203 211.61159 133.13915 211.87192 135.85628 212.13277 138.5734 212.39377 141.29053 212.65457 144.00765 212.91478 146.72478 213.17404 149.4419 213.43196 152.15903 213.68817 154.87615 213.94228 157.59328 214.19393 160.31041 214.44274 163.02753 214.68833 165.74466 214.93035 168.46178 215.16843 171.17891 215.40225 173.89603 215.63146 176.61316 215.85573 179.33028 216.07476 182.04741 216.28824 184.76453 216.4959 187.48166 216.69748 190.19879 216.89275 192.91591 217.08147 195.63304 217.26345 198.35016 217.43852 201.06729 217.60654 203.78441 217.7674 206.50154 217.92098 209.21866 218.06723 211.93579 218.20613 214.65291 218.33766 217.37004 218.46184 220.08718 218.57874 222.80429 218.68842 225.52143 218.791 228.23854 218.88661 230.95568 218.97544 233.67279 219.05764 236.38993 219.1334 239.10704 219.20299 241.82416 219.26665 244.54128 219.32457 247.2584 219.37708 249.97554 219.42444 252.69266 219.46689 255.40979 219.50473 258.1269 219.53823 260.84407 219.56763 263.56117 219.5932 266.2783 219.61515 268.9954 219.6337 271.71257 219.64907 274.42967 219.66139 277.1468 219.67082 279.86393 219.67748 282.58106 219.68144 285.29817 219.68277"/>
<path transform="matrix(1,0,0,-1,42.772,232.33202)" stroke-width=".59776" stroke-linecap="butt" stroke-dasharray=".59776,1.99255" stroke-miterlimit="10" stroke-linejoin="miter" fill="none" stroke="#000000" d="M13.58563 20.49358 16.30276 20.27936 19.01988 20.06516 21.73701 19.85103 24.45413 19.637 27.17126 19.42308 29.88838 19.20934 32.60551 18.99577 35.32265 18.78244 38.03976 18.5694 40.7569 18.35666 43.47401 18.14426 46.19115 17.93227 48.90826 17.7207 51.6254 17.50964 54.34251 17.29915 57.05965 17.08923 59.77676 16.87999 62.4939 16.67148 65.21103 16.46379 67.92815 16.25696 70.64528 16.05109 73.3624 15.84627 76.07951 15.64256 78.79665 15.4401 81.51376 15.23895 84.23088 15.03926 86.94801 14.84114 89.66513 14.64468 92.38226 14.45004 95.0994 14.25735 97.81651 14.06676 100.53365 13.87845 103.25076 13.69254 105.9679 13.50922 108.68501 13.32869 111.40215 13.15114 114.11926 12.97676 116.8364 12.80577 119.55351 12.6384 122.27065 12.47488 124.98778 12.31546 127.7049 12.16039 130.42203 12.00995 133.13915 11.8644 135.85628 11.72404 138.5734 11.58919 141.29053 11.46013 144.00765 11.3372 146.72478 11.22073 149.4419 11.11108 152.15903 11.00859 154.87615 10.91364 157.59328 10.82655 160.31041 10.74776 163.02753 10.67763 165.74466 10.61656 168.46178 10.56494 171.17891 10.52318 173.89603 10.49168 176.61316 10.47084 179.33028 10.46107 182.04741 10.46278 184.76453 10.47636 187.48166 10.50217 190.19879 10.54063 192.91591 10.59209 195.63304 10.65689 198.35016 10.7354 201.06729 10.82791 203.78441 10.93471 206.50154 11.05608 209.21866 11.19223 211.93579 11.34338 214.65291 11.50972 217.37004 11.69131 220.08718 11.8883 222.80429 12.10072 225.52143 12.32852 228.23854 12.57169 230.95568 12.83006 233.67279 13.1035 236.38993 13.39177 239.10704 13.69456 241.82416 14.01155 244.54128 14.3423 247.2584 14.68634 249.97554 15.04312 252.69266 15.41208 255.40979 15.79251 258.1269 16.1837 260.84407 16.5849 263.56117 16.99524 266.2783 17.41388 268.9954 17.83986 271.71257 18.27222 274.42967 18.70995 277.1468 19.15202 279.86393 19.59738 282.58106 20.04492 285.29817 20.49358"/>
</g>
<path transform="matrix(1,0,0,-1,42.772,232.33202)" stroke-width=".59776" stroke-linecap="butt" stroke-miterlimit="10" stroke-linejoin="miter" fill="none" stroke="#ff0000" d="M11.59308 99.03476H15.57819M13.58563 101.02731V97.0422"/>
<path transform="matrix(1,0,0,-1,42.772,232.33202)" stroke-width=".59776" stroke-linecap="butt" stroke-miterlimit="10" stroke-linejoin="miter" fill="none" stroke="#ff0000" d="M79.52121 114.01456H83.50632M81.51376 116.00711V112.022"/>
<path transform="matrix(1,0,0,-1,42.772,232.33202)" stroke-width=".59776" stroke-linecap="butt" stroke-miterlimit="10" stroke-linejoin="miter" fill="none" stroke="#ff0000" d="M147.44934 153.46926H151.43445M149.4419 155.4618V151.4767"/>
<path transform="matrix(1,0,0,-1,42.772,232.33202)" stroke-width=".59776" stroke-linecap="butt" stroke-miterlimit="10" stroke-linejoin="miter" fill="none" stroke="#ff0000" d="M215.37749 198.7639H219.3626M217.37004 200.75646V196.77135"/>
<path transform="matrix(1,0,0,-1,42.772,232.33202)" stroke-width=".59776" stroke-linecap="butt" stroke-miterlimit="10" stroke-linejoin="miter" fill="none" stroke="#ff0000" d="M283.30564 219.68277H287.29075M285.29817 221.67533V217.69022"/>
<path transform="matrix(1,0,0,-1,42.772,232.33202)" stroke-width=".59776" stroke-linecap="butt" stroke-miterlimit="10" stroke-linejoin="miter" fill="none" stroke="#ff0000" d=""/>
<path transform="matrix(1,0,0,-1,42.772,232.33202)" stroke-width=".59776" stroke-linecap="butt" stroke-miterlimit="10" stroke-linejoin="miter" fill="none" stroke="#0000ff" d="M12.17668 60.5113 14.99458 63.3292M12.17668 63.3292 14.99458 60.5113"/>
<path transform="matrix(1,0,0,-1,42.772,232.33202)" stroke-width=".59776" stroke-linecap="butt" stroke-miterlimit="10" stroke-linejoin="miter" fill="none" stroke="#0000ff" d="M80.10481 61.78558 82.92271 64.60349M80.10481 64.60349 82.92271 61.78558"/>
<path transform="matrix(1,0,0,-1,42.772,232.33202)" stroke-width=".59776" stroke-linecap="butt" stroke-miterlimit="10" stroke-linejoin="miter" fill="none" stroke="#0000ff" d="M148.03295 65.4506 150.85085 68.26851M148.03295 68.26851 150.85085 65.4506"/>
<path transform="matrix(1,0,0,-1,42.772,232.33202)" stroke-width=".59776" stroke-linecap="butt" stroke-miterlimit="10" stroke-linejoin="miter" fill="none" stroke="#0000ff" d="M215.96109 70.3306 218.77899 73.1485M215.96109 73.1485 218.77899 70.3306"/>
<path transform="matrix(1,0,0,-1,42.772,232.33202)" stroke-width=".59776" stroke-linecap="butt" stroke-miterlimit="10" stroke-linejoin="miter" fill="none" stroke="#0000ff" d="M283.88923 72.89317 286.70713 75.71107M283.88923 75.71107 286.70713 72.89317"/>
<path transform="matrix(1,0,0,-1,42.772,232.33202)" stroke-width=".59776" stroke-linecap="butt" stroke-miterlimit="10" stroke-linejoin="miter" fill="none" stroke="#0000ff" d=""/>
<path transform="matrix(1,0,0,-1,42.772,232.33202)" d="M13.58563 206.84513 15.08005 204.85257 13.58563 202.86002 12.09122 204.85257Z" fill="#008000"/>
<path transform="matrix(1,0,0,-1,42.772,232.33202)" stroke-width=".59776" stroke-linecap="butt" stroke-miterlimit="10" stroke-linejoin="miter" fill="none" stroke="#008000" d="M13.58563 206.84513 15.08005 204.85257 13.58563 202.86002 12.09122 204.85257Z"/>
<path transform="matrix(1,0,0,-1,42.772,232.33202)" d="M81.51376 197.71819 83.00818 195.72563 81.51376 193.73308 80.01935 195.72563Z" fill="#008000"/>
<path transform="matrix(1,0,0,-1,42.772,232.33202)" stroke-width=".59776" stroke-linecap="butt" stroke-miterlimit="10" stroke-linejoin="miter" fill="none" stroke="#008000" d="M81.51376 197.71819 83.00818 195.72563 81.51376 193.73308 80.01935 195.72563Z"/>
<path transform="matrix(1,0,0,-1,42.772,232.33202)" d="M149.4419 174.22679 150.93631 172.23424 149.4419 170.24169 147.94748 172.23424Z" fill="#008000"/>
<path transform="matrix(1,0,0,-1,42.772,232.33202)" stroke-width=".59776" stroke-linecap="butt" stroke-miterlimit="10" stroke-linejoin="miter" fill="none" stroke="#008000" d="M149.4419 174.22679 150.93631 172.23424 149.4419 170.24169 147.94748 172.23424Z"/>
<path transform="matrix(1,0,0,-1,42.772,232.33202)" d="M217.37004 148.14745 218.86446 146.15489 217.37004 144.16234 215.87563 146.15489Z" fill="#008000"/>
<path transform="matrix(1,0,0,-1,42.772,232.33202)" stroke-width=".59776" stroke-linecap="butt" stroke-miterlimit="10" stroke-linejoin="miter" fill="none" stroke="#008000" d="M217.37004 148.14745 218.86446 146.15489 217.37004 144.16234 215.87563 146.15489Z"/>
<path transform="matrix(1,0,0,-1,42.772,232.33202)" d="M285.29817 136.3675 286.7926 134.37494 285.29817 132.38239 283.80378 134.37494Z" fill="#008000"/>
<path transform="matrix(1,0,0,-1,42.772,232.33202)" stroke-width=".59776" stroke-linecap="butt" stroke-miterlimit="10" stroke-linejoin="miter" fill="none" stroke="#008000" d="M285.29817 136.3675 286.7926 134.37494 285.29817 132.38239 283.80378 134.37494Z"/>
<path transform="matrix(1,0,0,-1,42.772,232.33202)" stroke-width=".59776" stroke-linecap="butt" stroke-miterlimit="10" stroke-linejoin="miter" fill="none" stroke="#008000" d=""/>
<path transform="matrix(1,0,0,-1,42.772,232.33202)" d="M15.57819 20.49358C15.57819 21.59406 14.68611 22.48613 13.58563 22.48613 12.48517 22.48613 11.59308 21.59406 11.59308 20.49358 11.59308 19.39311 12.48517 18.50102 13.58563 18.50102 14.68611 18.50102 15.57819 19.39311 15.57819 20.49358ZM13.58563 20.49358"/>
<path transform="matrix(1,0,0,-1,42.772,232.33202)" stroke-width=".59776" stroke-linecap="butt" stroke-miterlimit="10" stroke-linejoin="miter" fill="none" stroke="#000000" d="M15.57819 20.49358C15.57819 21.59406 14.68611 22.48613 13.58563 22.48613 12.48517 22.48613 11.59308 21.59406 11.59308 20.49358 11.59308 19.39311 12.48517 18.50102 13.58563 18.50102 14.68611 18.50102 15.57819 19.39311 15.57819 20.49358ZM13.58563 20.49358"/>
<path transform="matrix(1,0,0,-1,42.772,232.33202)" d="M83.50632 53.91797C83.50632 55.01845 82.61423 55.91052 81.51376 55.91052 80.41328 55.91052 79.52121 55.01845 79.52121 53.91797 79.52121 52.8175 80.41328 51.92542 81.51376 51.92542 82.61423 51.92542 83.50632 52.8175 83.50632 53.91797ZM81.51376 53.91797"/>
<path transform="matrix(1,0,0,-1,42.772,232.33202)" stroke-width=".59776" stroke-linecap="butt" stroke-miterlimit="10" stroke-linejoin="miter" fill="none" stroke="#000000" d="M83.50632 53.91797C83.50632 55.01845 82.61423 55.91052 81.51376 55.91052 80.41328 55.91052 79.52121 55.01845 79.52121 53.91797 79.52121 52.8175 80.41328 51.92542 81.51376 51.92542 82.61423 51.92542 83.50632 52.8175 83.50632 53.91797ZM81.51376 53.91797"/>
<path transform="matrix(1,0,0,-1,42.772,232.33202)" d="M151.43445 71.0738C151.43445 72.17427 150.54238 73.06636 149.4419 73.06636 148.34143 73.06636 147.44934 72.17427 147.44934 71.0738 147.44934 69.97333 148.34143 69.08125 149.4419 69.08125 150.54238 69.08125 151.43445 69.97333 151.43445 71.0738ZM149.4419 71.0738"/>
<path transform="matrix(1,0,0,-1,42.772,232.33202)" stroke-width=".59776" stroke-linecap="butt" stroke-miterlimit="10" stroke-linejoin="miter" fill="none" stroke="#000000" d="M151.43445 71.0738C151.43445 72.17427 150.54238 73.06636 149.4419 73.06636 148.34143 73.06636 147.44934 72.17427 147.44934 71.0738 147.44934 69.97333 148.34143 69.08125 149.4419 69.08125 150.54238 69.08125 151.43445 69.97333 151.43445 71.0738ZM149.4419 71.0738"/>
<path transform="matrix(1,0,0,-1,42.772,232.33202)" d="M219.3626 59.24635C219.3626 60.34683 218.4705 61.2389 217.37004 61.2389 216.26958 61.2389 215.37749 60.34683 215.37749 59.24635 215.37749 58.14589 216.26958 57.2538 217.37004 57.2538 218.4705 57.2538 219.3626 58.14589 219.3626 59.24635ZM217.37004 59.24635"/>
<path transform="matrix(1,0,0,-1,42.772,232.33202)" stroke-width=".59776" stroke-linecap="butt" stroke-miterlimit="10" stroke-linejoin="miter" fill="none" stroke="#000000" d="M219.3626 59.24635C219.3626 60.34683 218.4705 61.2389 217.37004 61.2389 216.26958 61.2389 215.37749 60.34683 215.37749 59.24635 215.37749 58.14589 216.26958 57.2538 217.37004 57.2538 218.4705 57.2538 219.3626 58.14589 219.3626 59.24635ZM217.37004 59.24635"/>
<path transform="matrix(1,0,0,-1,42.772,232.33202)" d="M287.29075 20.49358C287.29075 21.59406 286.39866 22.48613 285.29817 22.48613 284.1977 22.48613 283.30564 21.59406 283.30564 20.49358 283.30564 19.39311 284.1977 18.50102 285.29817 18.50102 286.39866 18.50102 287.29075 19.39311 287.29075 20.49358ZM285.29817 20.49358"/>
<path transform="matrix(1,0,0,-1,42.772,232.33202)" stroke-width=".59776" stroke-linecap="butt" stroke-miterlimit="10" stroke-linejoin="miter" fill="none" stroke="#000000" d="M287.29075 20.49358C287.29075 21.59406 286.39866 22.48613 285.29817 22.48613 284.1977 22.48613 283.30564 21.59406 283.30564 20.49358 283.30564 19.39311 284.1977 18.50102 285.29817 18.50102 286.39866 18.50102 287.29075 19.39311 287.29075 20.49358ZM285.29817 20.49358"/>
<path transform="matrix(1,0,0,-1,42.772,232.33202)" stroke-width=".59776" stroke-linecap="butt" stroke-miterlimit="10" stroke-linejoin="miter" fill="none" stroke="#000000" d=""/>
<path transform="matrix(1,0,0,-1,42.772,232.33202)" stroke-width=".59776" stroke-linecap="butt" stroke-miterlimit="10" stroke-linejoin="miter" fill="none" stroke="#ff0000" d="M11.59308 99.03476H15.57819M13.58563 101.02731V97.0422"/>
<path transform="matrix(1,0,0,-1,42.772,232.33202)" stroke-width=".59776" stroke-linecap="butt" stroke-miterlimit="10" stroke-linejoin="miter" fill="none" stroke="#ff0000" d="M79.52121 102.34627H83.50632M81.51376 104.33882V100.35371"/>
<path transform="matrix(1,0,0,-1,42.772,232.33202)" stroke-width=".59776" stroke-linecap="butt" stroke-miterlimit="10" stroke-linejoin="miter" fill="none" stroke="#ff0000" d="M147.44934 112.27153H151.43445M149.4419 114.26408V110.27898"/>
<path transform="matrix(1,0,0,-1,42.772,232.33202)" stroke-width=".59776" stroke-linecap="butt" stroke-miterlimit="10" stroke-linejoin="miter" fill="none" stroke="#ff0000" d="M215.37749 126.45697H219.3626M217.37004 128.44953V124.46442"/>
<path transform="matrix(1,0,0,-1,42.772,232.33202)" stroke-width=".59776" stroke-linecap="butt" stroke-miterlimit="10" stroke-linejoin="miter" fill="none" stroke="#ff0000" d="M283.30564 134.37494H287.29075M285.29817 136.3675V132.38239"/>
<path transform="matrix(1,0,0,-1,42.772,232.33202)" stroke-width=".59776" stroke-linecap="butt" stroke-miterlimit="10" stroke-linejoin="miter" fill="none" stroke="#ff0000" d=""/>
<path transform="matrix(1,0,0,-1,42.772,232.33202)" d="M13.58563 206.84513 15.08005 204.85257 13.58563 202.86002 12.09122 204.85257Z" fill="#008000"/>
<path transform="matrix(1,0,0,-1,42.772,232.33202)" stroke-width=".59776" stroke-linecap="butt" stroke-miterlimit="10" stroke-linejoin="miter" fill="none" stroke="#008000" d="M13.58563 206.84513 15.08005 204.85257 13.58563 202.86002 12.09122 204.85257Z"/>
<path transform="matrix(1,0,0,-1,42.772,232.33202)" d="M81.51376 209.38649 83.00818 207.39394 81.51376 205.40139 80.01935 207.39394Z" fill="#008000"/>
<path transform="matrix(1,0,0,-1,42.772,232.33202)" stroke-width=".59776" stroke-linecap="butt" stroke-miterlimit="10" stroke-linejoin="miter" fill="none" stroke="#008000" d="M81.51376 209.38649 83.00818 207.39394 81.51376 205.40139 80.01935 207.39394Z"/>
<path transform="matrix(1,0,0,-1,42.772,232.33202)" d="M149.4419 215.42452 150.93631 213.43196 149.4419 211.4394 147.94748 213.43196Z" fill="#008000"/>
<path transform="matrix(1,0,0,-1,42.772,232.33202)" stroke-width=".59776" stroke-linecap="butt" stroke-miterlimit="10" stroke-linejoin="miter" fill="none" stroke="#008000" d="M149.4419 215.42452 150.93631 213.43196 149.4419 211.4394 147.94748 213.43196Z"/>
<path transform="matrix(1,0,0,-1,42.772,232.33202)" d="M217.37004 220.45439 218.86446 218.46184 217.37004 216.46929 215.87563 218.46184Z" fill="#008000"/>
<path transform="matrix(1,0,0,-1,42.772,232.33202)" stroke-width=".59776" stroke-linecap="butt" stroke-miterlimit="10" stroke-linejoin="miter" fill="none" stroke="#008000" d="M217.37004 220.45439 218.86446 218.46184 217.37004 216.46929 215.87563 218.46184Z"/>
<path transform="matrix(1,0,0,-1,42.772,232.33202)" d="M285.29817 221.67533 286.7926 219.68277 285.29817 217.69022 283.80378 219.68277Z" fill="#008000"/>
<path transform="matrix(1,0,0,-1,42.772,232.33202)" stroke-width=".59776" stroke-linecap="butt" stroke-miterlimit="10" stroke-linejoin="miter" fill="none" stroke="#008000" d="M285.29817 221.67533 286.7926 219.68277 285.29817 217.69022 283.80378 219.68277Z"/>
<path transform="matrix(1,0,0,-1,42.772,232.33202)" stroke-width=".59776" stroke-linecap="butt" stroke-miterlimit="10" stroke-linejoin="miter" fill="none" stroke="#008000" d=""/>
<path transform="matrix(1,0,0,-1,42.772,232.33202)" d="M15.57819 20.49358C15.57819 21.59406 14.68611 22.48613 13.58563 22.48613 12.48517 22.48613 11.59308 21.59406 11.59308 20.49358 11.59308 19.39311 12.48517 18.50102 13.58563 18.50102 14.68611 18.50102 15.57819 19.39311 15.57819 20.49358ZM13.58563 20.49358"/>
<path transform="matrix(1,0,0,-1,42.772,232.33202)" stroke-width=".59776" stroke-linecap="butt" stroke-miterlimit="10" stroke-linejoin="miter" fill="none" stroke="#000000" d="M15.57819 20.49358C15.57819 21.59406 14.68611 22.48613 13.58563 22.48613 12.48517 22.48613 11.59308 21.59406 11.59308 20.49358 11.59308 19.39311 12.48517 18.50102 13.58563 18.50102 14.68611 18.50102 15.57819 19.39311 15.57819 20.49358ZM13.58563 20.49358"/>
<path transform="matrix(1,0,0,-1,42.772,232.33202)" d="M83.50632 15.23895C83.50632 16.33943 82.61423 17.2315 81.51376 17.2315 80.41328 17.2315 79.52121 16.33943 79.52121 15.23895 79.52121 14.13849 80.41328 13.2464 81.51376 13.2464 82.61423 13.2464 83.50632 14.13849 83.50632 15.23895ZM81.51376 15.23895"/>
<path transform="matrix(1,0,0,-1,42.772,232.33202)" stroke-width=".59776" stroke-linecap="butt" stroke-miterlimit="10" stroke-linejoin="miter" fill="none" stroke="#000000" d="M83.50632 15.23895C83.50632 16.33943 82.61423 17.2315 81.51376 17.2315 80.41328 17.2315 79.52121 16.33943 79.52121 15.23895 79.52121 14.13849 80.41328 13.2464 81.51376 13.2464 82.61423 13.2464 83.50632 14.13849 83.50632 15.23895ZM81.51376 15.23895"/>
<path transform="matrix(1,0,0,-1,42.772,232.33202)" d="M151.43445 11.11108C151.43445 12.21156 150.54238 13.10364 149.4419 13.10364 148.34143 13.10364 147.44934 12.21156 147.44934 11.11108 147.44934 10.01062 148.34143 9.11853 149.4419 9.11853 150.54238 9.11853 151.43445 10.01062 151.43445 11.11108ZM149.4419 11.11108"/>
<path transform="matrix(1,0,0,-1,42.772,232.33202)" stroke-width=".59776" stroke-linecap="butt" stroke-miterlimit="10" stroke-linejoin="miter" fill="none" stroke="#000000" d="M151.43445 11.11108C151.43445 12.21156 150.54238 13.10364 149.4419 13.10364 148.34143 13.10364 147.44934 12.21156 147.44934 11.11108 147.44934 10.01062 148.34143 9.11853 149.4419 9.11853 150.54238 9.11853 151.43445 10.01062 151.43445 11.11108ZM149.4419 11.11108"/>
<path transform="matrix(1,0,0,-1,42.772,232.33202)" d="M219.3626 11.69131C219.3626 12.7918 218.4705 13.68387 217.37004 13.68387 216.26958 13.68387 215.37749 12.7918 215.37749 11.69131 215.37749 10.59085 216.26958 9.69876 217.37004 9.69876 218.4705 9.69876 219.3626 10.59085 219.3626 11.69131ZM217.37004 11.69131"/>
<path transform="matrix(1,0,0,-1,42.772,232.33202)" stroke-width=".59776" stroke-linecap="butt" stroke-miterlimit="10" stroke-linejoin="miter" fill="none" stroke="#000000" d="M219.3626 11.69131C219.3626 12.7918 218.4705 13.68387 217.37004 13.68387 216.26958 13.68387 215.37749 12.7918 215.37749 11.69131 215.37749 10.59085 216.26958 9.69876 217.37004 9.69876 218.4705 9.69876 219.3626 10.59085 219.3626 11.69131ZM217.37004 11.69131"/>
<path transform="matrix(1,0,0,-1,42.772,232.33202)" d="M287.29075 20.49358C287.29075 21.59406 286.39866 22.48613 285.29817 22.48613 284.1977 22.48613 283.30564 21.59406 283.30564 20.49358 283.30564 19.39311 284.1977 18.50102 285.29817 18.50102 286.39866 18.50102 287.29075 19.39311 287.29075 20.49358ZM285.29817 20.49358"/>
<path transform="matrix(1,0,0,-1,42.772,232.33202)" stroke-width=".59776" stroke-linecap="butt" stroke-miterlimit="10" stroke-linejoin="miter" fill="none" stroke="#000000" d="M287.29075 20.49358C287.29075 21.59406 286.39866 22.48613 285.29817 22.48613 284.1977 22.48613 283.30564 21.59406 283.30564 20.49358 283.30564 19.39311 284.1977 18.50102 285.29817 18.50102 286.39866 18.50102 287.29075 19.39311 287.29075 20.49358ZM285.29817 20.49358"/>
<path transform="matrix(1,0,0,-1,42.772,232.33202)" stroke-width=".59776" stroke-linecap="butt" stroke-miterlimit="10" stroke-linejoin="miter" fill="none" stroke="#000000" d=""/>
<use data-text="&#x1d703;" xlink:href="#font_1_3169" transform="matrix(9.96264,0,0,-9.96264,189.601,260.47303)"/>
<use data-text="&#x1d438;" xlink:href="#font_1_2480" transform="matrix(0,-9.96264,-9.96264,-0,11.819,133.03002)"/>
<use data-text="&#x00d7;" xlink:href="#font_1_183" transform="matrix(0,-9.96264,-9.96264,-0,11.819,123.10722)"/>
<use data-text="&#x1d435;" xlink:href="#font_1_2477" transform="matrix(0,-9.96264,-9.96264,-0,11.819,114.519428)"/>
<use data-text="&#x1d456;" xlink:href="#font_3_2509" transform="matrix(0,-7.47198,-7.47198,-0,14.3089909,107.58101)"/>
<use data-text="&#x1d457;" xlink:href="#font_3_2510" transform="matrix(0,-7.47198,-7.47198,-0,14.3089909,105.257228)"/>
<path transform="matrix(1,0,0,-1,42.772,232.33202)" d="M45.02989 144.26738H86.96098V223.04056H45.02989Z" fill="#ffffff" fill-opacity=".8"/>
<path transform="matrix(1,0,0,-1,42.772,232.33202)" stroke-width=".3985" stroke-linecap="butt" stroke-miterlimit="10" stroke-linejoin="miter" fill="none" stroke="#cccccc" d="M45.02989 144.26738H86.96098V223.04056H45.02989Z"/>
<path transform="matrix(1,0,0,-1,91.089008,16.629014)" stroke-width=".59776" stroke-linecap="butt" stroke-miterlimit="10" stroke-linejoin="miter" fill="none" stroke="#ff0000" d="M0 0H8.50412 17.00826"/>
<path transform="matrix(1,0,0,-1,91.089008,16.629014)" stroke-width=".59776" stroke-linecap="butt" stroke-miterlimit="10" stroke-linejoin="miter" fill="none" stroke="#ff0000" d="M6.51157 0H10.49667M8.50412 1.99255V-1.99255"/>
<use data-text="&#x1d435;" xlink:href="#font_3_2477" transform="matrix(7.97011,0,0,-7.97011,110.38801,18.484025)"/>
<use data-text="&#x1d45b;" xlink:href="#font_4_2514" transform="matrix(5.97758,0,0,-5.97758,115.935009,20.47702)"/>
<use data-text="&#x1d45b;" xlink:href="#font_4_2514" transform="matrix(5.97758,0,0,-5.97758,118.90586,20.47702)"/>
<path transform="matrix(1,0,0,-1,91.089008,27.313014)" stroke-width=".59776" stroke-linecap="butt" stroke-miterlimit="10" stroke-linejoin="miter" fill="none" stroke="#0000ff" d="M0 0H8.50412 17.00826"/>
<path transform="matrix(1,0,0,-1,91.089008,27.313014)" stroke-width=".59776" stroke-linecap="butt" stroke-miterlimit="10" stroke-linejoin="miter" fill="none" stroke="#0000ff" d="M7.09517-1.40894 9.91307 1.40894M7.09517 1.40894 9.91307-1.40894"/>
<use data-text="&#x1d435;" xlink:href="#font_3_2477" transform="matrix(7.97011,0,0,-7.97011,110.38801,29.168)"/>
<use data-text="&#x1d45a;" xlink:href="#font_4_2513" transform="matrix(5.97758,0,0,-5.97758,115.935009,31.160004)"/>
<use data-text="&#x1d45a;" xlink:href="#font_4_2513" transform="matrix(5.97758,0,0,-5.97758,120.179088,31.160004)"/>
<path transform="matrix(1,0,0,-1,91.089008,37.997014)" stroke-width=".59776" stroke-linecap="butt" stroke-miterlimit="10" stroke-linejoin="miter" fill="none" stroke="#008000" d="M0 0H8.50412 17.00826"/>
<path transform="matrix(1,0,0,-1,91.089008,37.997014)" d="M8.50412 1.99255 9.99854 0 8.50412-1.99255 7.0097 0Z" fill="#008000" fill-opacity=".8"/>
<path transform="matrix(1,0,0,-1,91.089008,37.997014)" stroke-width=".59776" stroke-linecap="butt" stroke-miterlimit="10" stroke-linejoin="miter" fill="none" stroke="#008000" d="M8.50412 1.99255 9.99854 0 8.50412-1.99255 7.0097 0Z"/>
<use data-text="&#x1d435;" xlink:href="#font_3_2477" transform="matrix(7.97011,0,0,-7.97011,110.38801,39.85202)"/>
<use data-text="&#x2113;" xlink:href="#font_4_974" transform="matrix(5.97758,0,0,-5.97758,115.935009,41.844026)"/>
<use data-text="&#x2113;" xlink:href="#font_4_974" transform="matrix(5.97758,0,0,-5.97758,119.39603,41.844026)"/>
<path transform="matrix(1,0,0,-1,91.089008,48.681016)" stroke-width=".59776" stroke-linecap="butt" stroke-miterlimit="10" stroke-linejoin="miter" fill="none" stroke="#000000" d="M0 0H8.50412 17.00826"/>
<path transform="matrix(1,0,0,-1,91.089008,48.681016)" d="M10.49667 0C10.49667 1.10046 9.60458 1.99255 8.50412 1.99255 7.40364 1.99255 6.51157 1.10046 6.51157 0 6.51157-1.10046 7.40364-1.99255 8.50412-1.99255 9.60458-1.99255 10.49667-1.10046 10.49667 0ZM8.50412 0" fill-opacity=".8"/>
<path transform="matrix(1,0,0,-1,91.089008,48.681016)" stroke-width=".59776" stroke-linecap="butt" stroke-miterlimit="10" stroke-linejoin="miter" fill="none" stroke="#000000" d="M10.49667 0C10.49667 1.10046 9.60458 1.99255 8.50412 1.99255 7.40364 1.99255 6.51157 1.10046 6.51157 0 6.51157-1.10046 7.40364-1.99255 8.50412-1.99255 9.60458-1.99255 10.49667-1.10046 10.49667 0ZM8.50412 0"/>
<use data-text="&#x1d435;" xlink:href="#font_3_2477" transform="matrix(7.97011,0,0,-7.97011,110.38801,50.536027)"/>
<use data-text="&#x1d45b;" xlink:href="#font_4_2514" transform="matrix(5.97758,0,0,-5.97758,115.935009,52.52803)"/>
<use data-text="&#x2113;" xlink:href="#font_4_974" transform="matrix(5.97758,0,0,-5.97758,118.90586,52.52803)"/>
<path transform="matrix(1,0,0,-1,91.089008,59.365015)" stroke-width=".59776" stroke-linecap="butt" stroke-dasharray=".59776,1.99255" stroke-miterlimit="10" stroke-linejoin="miter" fill="none" stroke="#ff0000" d="M0 0H8.50412 17.00826"/>
<path transform="matrix(1,0,0,-1,91.089008,59.365015)" stroke-width=".59776" stroke-linecap="butt" stroke-miterlimit="10" stroke-linejoin="miter" fill="none" stroke="#ff0000" d="M6.51157 0H10.49667M8.50412 1.99255V-1.99255"/>
<use data-text="&#x1d435;" xlink:href="#font_3_2477" transform="matrix(7.97011,0,0,-7.97011,110.38801,61.22)"/>
<use data-text="3" xlink:href="#font_4_52" transform="matrix(5.97758,0,0,-5.97758,115.935009,63.21199)"/>
<use data-text="3" xlink:href="#font_4_52" transform="matrix(5.97758,0,0,-5.97758,118.9238,63.21199)"/>
<path transform="matrix(1,0,0,-1,91.089008,70.04801)" stroke-width=".59776" stroke-linecap="butt" stroke-dasharray=".59776,1.99255" stroke-miterlimit="10" stroke-linejoin="miter" fill="none" stroke="#008000" d="M0 0H8.50412 17.00826"/>
<path transform="matrix(1,0,0,-1,91.089008,70.04801)" d="M8.50412 1.99255 9.99854 0 8.50412-1.99255 7.0097 0Z" fill="#008000" fill-opacity=".8"/>
<path transform="matrix(1,0,0,-1,91.089008,70.04801)" stroke-width=".59776" stroke-linecap="butt" stroke-miterlimit="10" stroke-linejoin="miter" fill="none" stroke="#008000" d="M8.50412 1.99255 9.99854 0 8.50412-1.99255 7.0097 0Z"/>
<use data-text="&#x1d435;" xlink:href="#font_3_2477" transform="matrix(7.97011,0,0,-7.97011,110.38801,71.903)"/>
<use data-text="1" xlink:href="#font_4_50" transform="matrix(5.97758,0,0,-5.97758,115.935009,73.895999)"/>
<use data-text="1" xlink:href="#font_4_50" transform="matrix(5.97758,0,0,-5.97758,118.9238,73.895999)"/>
<path transform="matrix(1,0,0,-1,91.089008,80.73201)" stroke-width=".59776" stroke-linecap="butt" stroke-dasharray=".59776,1.99255" stroke-miterlimit="10" stroke-linejoin="miter" fill="none" stroke="#000000" d="M0 0H8.50412 17.00826"/>
<path transform="matrix(1,0,0,-1,91.089008,80.73201)" d="M10.49667 0C10.49667 1.10046 9.60458 1.99255 8.50412 1.99255 7.40364 1.99255 6.51157 1.10046 6.51157 0 6.51157-1.10046 7.40364-1.99255 8.50412-1.99255 9.60458-1.99255 10.49667-1.10046 10.49667 0ZM8.50412 0" fill-opacity=".8"/>
<path transform="matrix(1,0,0,-1,91.089008,80.73201)" stroke-width=".59776" stroke-linecap="butt" stroke-miterlimit="10" stroke-linejoin="miter" fill="none" stroke="#000000" d="M10.49667 0C10.49667 1.10046 9.60458 1.99255 8.50412 1.99255 7.40364 1.99255 6.51157 1.10046 6.51157 0 6.51157-1.10046 7.40364-1.99255 8.50412-1.99255 9.60458-1.99255 10.49667-1.10046 10.49667 0ZM8.50412 0"/>
<use data-text="&#x1d435;" xlink:href="#font_3_2477" transform="matrix(7.97011,0,0,-7.97011,110.38801,82.58702)"/>
<use data-text="3" xlink:href="#font_4_52" transform="matrix(5.97758,0,0,-5.97758,115.935009,84.58003)"/>
<use data-text="1" xlink:href="#font_4_50" transform="matrix(5.97758,0,0,-5.97758,118.9238,84.58003)"/>
</svg>
