<svg xmlns="http://www.w3.org/2000/svg" xmlns:xlink="http://www.w3.org/1999/xlink" xmlns:inkscape="http://www.inkscape.org/namespaces/inkscape" version="1.1" width="343.843" height="265.892" viewBox="0 0 343.843 265.892">
<defs>
<path id="font_1_49" d="M.37998963 .32505799C.37998963 .12722779 .33499146 .012313843 .25 .012313843 .1639862 .012313843 .11999512 .1262207 .11999512 .32904054 .11999512 .5318756 .16499329 .6497803 .24798584 .6497803 .33599855 .6497803 .37998963 .53286746 .37998963 .32505799M.47599793 .3300476C.47599793 .53486636 .3849945 .67578127 .2539978 .67578127 .09298706 .67578127 .023986817 .5128937 .023986817 .3360443 .023986817 .17218018 .07899475-.013671875 .25-.013671875 .41299439-.013671875 .47599793 .15818787 .47599793 .3300476Z"/>
<path id="font_1_3177" d="M.56799319 .4284668H.28599549C.18199158 .4284668 .117996219 .38246156 .07398987 .3024292H.08999634C.13398743 .35546876 .17098999 .35546876 .22898865 .35546876L.13999939 .14936829C.1269989 .12034607 .10899353 .09133911 .06599426 .079330448 .039993287 .07232666 .034988405 .046310426 .034988405 .031311037 .034988405 .007293701 .05999756-.0126953129 .085998538-.0126953129 .09799194-.0126953129 .11299133-.010696411 .12399292-.0017089844 .20799256 .061325075 .23899842 .23339844 .2849884 .35546876H.3789978C.35398866 .27142335 .32398988 .2013855 .30099488 .13035584 .29499818 .111343387 .2919922 .09133911 .2919922 .06832886 .2919922 .029159546 .30899049-.0068359377 .34899903-.0068359377 .4189911-.0068359377 .47200013 .06315613 .49299623 .13522339H.47698976C.45298768 .08117676 .4249878 .06915283 .4039917 .06915283 .38198854 .06915283 .3659973 .094177249 .3659973 .11720276 .3659973 .1842804 .4189911 .31240846 .43299867 .35546876H.54499819L.56799319 .4284668Z"/>
<path id="font_1_48" d="M.2869873 .67578127H.21998596L-.009002686-.013671875H.05899048L.2869873 .67578127Z"/>
<path id="font_1_57" d="M.2709961 .27209474C.33898927 .22613526 .36898805 .18617249 .36898805 .1242218 .36898805 .059280397 .32398988 .014328003 .25898744 .014328003 .18299866 .014328003 .13198853 .06626892 .13198853 .15820313 .13198853 .22314453 .15299988 .26409913 .21199036 .3120575L.2709961 .27209474M.35499574 .53286746C.35499574 .470932 .32899476 .42897035 .26098634 .3889923 .17298889 .4409485 .13598633 .48690797 .13598633 .54885867 .13598633 .6108093 .1789856 .6477661 .24598694 .6477661 .31399537 .6477661 .35499574 .60180667 .35499574 .53286746M.44499208 .15519715C.44499208 .23512268 .41299439 .28907777 .2899933 .37101747 .3889923 .42396546 .42399598 .45793153 .42399598 .53286746 .42399598 .6108093 .35499574 .67578127 .2559967 .67578127 .14498902 .67578127 .06199646 .61579897 .06199646 .5198822 .06199646 .4549408 .08299255 .41697694 .18598938 .3320465 .07899475 .2571106 .055999757 .21813965 .055999757 .14920044 .055999757 .055282594 .1349945-.013671875 .24798584-.013671875 .36799623-.013671875 .44499208 .05229187 .44499208 .15519715Z"/>
<path id="font_1_53" d="M.2919922 .23098755H.051986696L.2919922 .573822V.23098755M.47299195 .16699219V.23098755H.36999513V.67578127H.32598878L.011993408 .23098755V.16699219H.2919922V0H.36999513V.16699219H.47299195Z"/>
<path id="font_1_52" d="M.06098938 .50987246C.101989749 .58380129 .147995 .61576846 .20999146 .61576846 .27598573 .61576846 .31799317 .58180239 .31799317 .51387026 .31799317 .45292665 .28599549 .40795899 .23699951 .37998963 .21699524 .36799623 .19099427 .3570099 .15299988 .34402467V.33003236C.20999146 .33003236 .23298645 .32704164 .25498963 .3200531 .32398988 .3000641 .35899354 .2511139 .35899354 .17518616 .35899354 .09025574 .30299378 .022323609 .22898865 .022323609 .20098877 .022323609 .17999268 .027313233 .14299011 .05329895 .114990238 .073272708 .09899902 .07926941 .08198547 .07926941 .05899048 .07926941 .040985109 .06428528 .040985109 .043304445 .040985109 .0073242189 .07998657-.013671875 .15299988-.013671875 .24198914-.013671875 .33699037 .015319824 .3849945 .07926941 .4139862 .11723328 .43099977 .16618347 .43099977 .21913147 .43099977 .27108766 .4149933 .31704713 .3869934 .34802247 .3659973 .36999513 .34799195 .38198854 .3039856 .40097047 .37098695 .44093324 .39698792 .4908905 .39698792 .5388489 .39698792 .6207733 .33399964 .67578127 .24099732 .67578127 .13699341 .67578127 .07398987 .6087799 .04499817 .51387026L.06098938 .50987246Z"/>
<path id="font_1_51" d="M.47399903 .13696289 .45999146 .1429596C.4269867 .08699036 .4059906 .07598877 .3639984 .07598877H.12998963L.29499818 .2519226C.38398744 .34588624 .4229889 .42085267 .4229889 .4998169 .4229889 .59877017 .35099793 .67578127 .23799134 .67578127 .114990238 .67578127 .050994874 .5937805 .02999878 .4768219L.050994874 .47183229C.09098816 .5697937 .12599182 .6017761 .19799805 .6017761 .2829895 .6017761 .33699037 .55178835 .33699037 .4608307 .33699037 .37586976 .30099488 .29989625 .20698548 .200943L.0289917 .011993408V0H.41999818L.47399903 .13696289Z"/>
<path id="font_1_47" d="M.18099976 .04324341C.18099976 .07325745 .15499878 .100250247 .12599182 .100250247 .09498596 .100250247 .069992069 .07525635 .069992069 .04425049 .069992069 .013244629 .09399414-.0107421879 .125-.0107421879 .15499878-.0107421879 .18099976 .014251709 .18099976 .04324341Z"/>
<path id="font_1_54" d="M.43798829 .68110659 .42900086 .6880951C.41299439 .667099 .4039917 .6621094 .3809967 .6621094H.17399597L.06498718 .4251709C.06498718 .4251709 .06399536 .42216493 .06399536 .42016603 .06399536 .4141693 .066986087 .4121704 .07598877 .4121704 .17199707 .4121704 .24198914 .380188 .2889862 .3421936 .33399964 .30621339 .35598756 .2562256 .35598756 .19226074 .35598756 .106292728 .29100038 .02331543 .22099304 .02331543 .20098877 .02331543 .17799378 .032318117 .1499939 .05531311 .117996219 .08129883 .09899902 .08630371 .07598877 .08630371 .04798889 .08630371 .0309906 .07330322 .0309906 .048309328 .0309906 .010314941 .08299255-.013671875 .1579895-.013671875 .22599793-.013671875 .2809906 .0013275147 .32798768 .035308839 .3959961 .08529663 .42599488 .14727783 .42599488 .24324036 .42599488 .29621888 .4169922 .334198 .3909912 .37019349 .33399964 .4491577 .28399659 .47114564 .14099121 .49813844L.18099976 .58309939H.375C.3909912 .58309939 .39898683 .58909609 .4019928 .59609988L.43798829 .68110659Z"/>
<path id="font_1_50" d="M.3939972 0V.01499939C.31900025 .01499939 .29899598 .032989503 .29899598 .07597351V.67277529L.2899933 .67578127 .11099243 .5847931V.5708008L.13798523 .5807953C.1559906 .5877991 .17298889 .59280398 .18299866 .59280398 .20399475 .59280398 .21299744 .57780459 .21299744 .543808V.0949707C.21299744 .039978029 .19198609 .018997193 .117996219 .01499939V0H.3939972Z"/>
<clipPath id="clip_2">
<path transform="matrix(1,0,0,-1,42.772,232.32799)" d="M0 0H298.88319V230.13968H0Z"/>
</clipPath>
<path id="font_1_3169" d="M.35598756 .30773927C.35299684 .29875184 .34700013 .270813 .33999635 .24784851 .30899049 .14901734 .24899292 .018249512 .18199158 .018249512 .13899231 .018249512 .12399292 .074157718 .12399292 .14303589 .12399292 .19094849 .1329956 .25782777 .14898682 .30773927H.35598756M.15899658 .34375C.18499756 .4628296 .2669983 .6389618 .33898927 .6389618 .37998963 .6389618 .3899994 .58291628 .3899994 .50987246 .3899994 .46884156 .37998963 .41378785 .36499024 .34375H.15899658M.47399903 .47183229C.47399903 .6049347 .4189911 .66796877 .34599305 .66796877 .1559906 .66796877 .039993287 .34173585 .039993287 .16798401 .039993287 .048202516 .08198547-.0107421879 .1769867-.0107421879 .33099366-.0107421879 .47399903 .2758026 .47399903 .47183229Z"/>
<path id="font_1_2480" d="M.73399356 .653183H.19999695L.19599915 .6371765H.21499634C.27398683 .6371765 .2899933 .6261749 .2899933 .60217288 .2899933 .59516909 .2889862 .5841522 .2849884 .56614688L.16499329 .07798767C.15699768 .04399109 .13398743 .015991211 .06098938 .015991211H.041992189L.037994386 0H.60899356L.6749878 .19799805H.6589966C.6159973 .084991458 .55999758 .037994386 .4019928 .037994386H.33499146C.28799439 .037994386 .27198792 .04899597 .27198792 .06498718 .27198792 .067993167 .272995 .070999149 .27398683 .07499695L.33999635 .3330078H.42999269C.46099855 .3330078 .5019989 .32899476 .5019989 .28199769 .5019989 .2649994 .49699403 .23500061 .49598695 .22200012H.5130005L.57099917 .46406556H.5549927C.5329895 .38200379 .4889984 .3690033 .42900086 .3690033H.34899903L.40899659 .6171875H.56900027C.6199951 .6171875 .6749878 .60417178 .6779938 .53012087 .6779938 .519104 .6769867 .5081024 .6759949 .49508668H.69200137L.73399356 .653183Z"/>
<path id="font_1_183" d="M.5970001 .021987915 .36698915 .2519989 .5970001 .48399354 .5509949 .5289917 .31999208 .29899598 .08999634 .5289917 .042999269 .48298646 .272995 .2519989 .042999269 .020996094 .08898926-.025009156 .31999208 .20498657 .5509949-.025009156 .5970001 .021987915Z"/>
<path id="font_1_2477" d="M.33799745 .3143463C.35299684 .31835938 .37298585 .31835938 .3889923 .31835938 .46699525 .31835938 .5309906 .28330995 .5309906 .21022034 .5309906 .08004761 .43499757 .037994386 .34098817 .037994386 .31498719 .037994386 .29499818 .039993287 .269989 .04699707L.33799745 .3143463M.4059906 .61125186C.4189911 .61325076 .43399049 .6142578 .44898988 .6142578 .5029907 .6142578 .56799319 .5932617 .56799319 .5162964 .56799319 .41932679 .5119934 .35334779 .3999939 .35334779 .3849945 .35334779 .36698915 .35534669 .34700013 .35934449L.4059906 .61125186M.19799805 .653244 .19299317 .6372528H.21199036C.2709961 .6372528 .2899933 .62124636 .2899933 .5952606 .2899933 .5892639 .2889862 .5792694 .28799439 .5742645L.16499329 .07904053C.15699768 .04499817 .13798523 .015991211 .06199646 .015991211H.041992189L.037994386 0H.3619995C.56900027 0 .651001 .094070438 .651001 .19319153 .651001 .27830506 .58399966 .32035829 .5239868 .3313446L.5209961 .33535768C.54100039 .3403473 .56999209 .34835816 .59498599 .36134339 .6429901 .38534547 .6859894 .43032838 .6859894 .5082855 .6859894 .6442566 .5339966 .653244 .44999696 .653244H.19799805Z"/>
<path id="font_3_2509" d="M.22698975 .4412079 .068984989 .41921998 .07199097 .4032135C.07899475 .4052124 .09098816 .4072113 .099990848 .4072113 .12298584 .4072113 .1309967 .40222169 .1309967 .3852234 .1309967 .3822174 .12998963 .37521363 .1289978 .37321473 .049987794 .0662384 .049987794 .04724121 .049987794 .035247804 .049987794 .008255005 .06199646-.0107421879 .08999634-.0107421879 .13899231-.0107421879 .18899536 .049240114 .22399903 .09423828L.21099854 .10424805C.1749878 .06524658 .16899109 .053253175 .14698792 .053253175 .13999939 .053253175 .13398743 .056243898 .13398743 .06324768 .13398743 .06724548 .13398743 .071243289 .1349945 .07723999L.22698975 .4412079M.25698854 .5662079C.25698854 .5912018 .23498535 .61621096 .20899964 .61621096 .17999268 .61621096 .16099549 .5912018 .16099549 .5662079 .16099549 .5402069 .17999268 .52020266 .20899964 .52020266 .23498535 .52020266 .25698854 .5402069 .25698854 .5662079Z"/>
<path id="font_3_2510" d="M.35099793 .44114686 .19299317 .4131317 .19599915 .39611817C.20298767 .39912416 .21499634 .40112306 .22299195 .40112306 .24499512 .40112306 .25498963 .39111329 .25498963 .3791046L.16299439 .015853882C.13899231-.080200199 .10598755-.15625 .05999756-.15625 .054992677-.15625 .049987794-.1502533 .049987794-.1462555 .049987794-.13023377 .06599426-.12724304 .06599426-.11222839 .06599426-.08921814 .049987794-.07420349 .0309906-.07420349-.0040130617-.07420349-.01600647-.10421753-.01600647-.12623596-.01600647-.1542511 .0039978029-.18725586 .056991579-.18725586 .16499329-.18725586 .22099304-.07220459 .24299622 .015853882L.35099793 .44114686M.37199403 .5662079C.37199403 .5912018 .34999085 .61621096 .32398988 .61621096 .29499818 .61621096 .27598573 .5912018 .27598573 .5662079 .27598573 .5402069 .29499818 .52020266 .32398988 .52020266 .34999085 .52020266 .37199403 .5402069 .37199403 .5662079Z"/>
<path id="font_3_2477" d="M.33799745 .3143463C.35299684 .31835938 .37298585 .31835938 .3889923 .31835938 .46699525 .31835938 .5309906 .28330995 .5309906 .21022034 .5309906 .08004761 .43499757 .037994386 .34098817 .037994386 .31498719 .037994386 .29499818 .039993287 .269989 .04699707L.33799745 .3143463M.4059906 .61125186C.4189911 .61325076 .43399049 .6142578 .44898988 .6142578 .5029907 .6142578 .56799319 .5932617 .56799319 .5162964 .56799319 .41932679 .5119934 .35334779 .3999939 .35334779 .3849945 .35334779 .36698915 .35534669 .34700013 .35934449L.4059906 .61125186M.19799805 .653244 .19299317 .6372528H.21199036C.2709961 .6372528 .2899933 .62124636 .2899933 .5952606 .2899933 .5892639 .2889862 .5792694 .28799439 .5742645L.16499329 .07904053C.15699768 .04499817 .13798523 .015991211 .06199646 .015991211H.041992189L.037994386 0H.3619995C.56900027 0 .651001 .094070438 .651001 .19319153 .651001 .27830506 .58399966 .32035829 .5239868 .3313446L.5209961 .33535768C.54100039 .3403473 .56999209 .34835816 .59498599 .36134339 .6429901 .38534547 .6859894 .43032838 .6859894 .5082855 .6859894 .6442566 .5339966 .653244 .44999696 .653244H.19799805Z"/>
<path id="font_4_2514" d="M.46699525 .096206668 .45399476 .10720825C.43998719 .09020996 .41600038 .05418396 .3919983 .05418396 .3809967 .05418396 .37799073 .062179567 .3769989 .06819153 .3769989 .07319641 .3769989 .07620239 .37799073 .078201297L.43699647 .3093567C.44198609 .32936097 .44799806 .35438539 .44799806 .37939454 .44799806 .4123993 .43598939 .44140626 .3919983 .44140626 .33198548 .44140626 .27198792 .37539674 .23199463 .32536317 .22999573 .32235719 .18099976 .25231935 .17599488 .25231935H.17298889L.22399903 .44140626 .06498718 .418396 .066986087 .4033966C.07398987 .4044037 .084991458 .4064026 .09498596 .4064026 .12199402 .4064026 .125 .39239503 .125 .37438966L.02999878 0H.10699463L.13999939 .12411499C.1459961 .1451416 .17199707 .19218445 .20799256 .24624634 .23899842 .29330445 .3019867 .37939454 .33999635 .37939454 .35798646 .37939454 .3639984 .36038209 .3639984 .34135438 .3639984 .3273468 .35899354 .307312 .35699464 .2993164L.2999878 .078063968C.29699708 .06704712 .29299928 .05102539 .29299928 .038009645 .29299928 .015182495 .3019867-.0078125 .33399964-.0078125 .38598634-.0078125 .43399049 .05618286 .46199037 .09020996L.46699525 .096206668Z"/>
<path id="font_4_2513" d="M.6669922 .10708618C.647995 .0700531 .621994 .054031373 .6049957 .054031373 .59599307 .054031373 .58999636 .058029176 .58999636 .06604004 .58999636 .06904602 .59098818 .07505798 .59199526 .078063968L.6529999 .30932618C.6589966 .3333435 .6599884 .35237123 .6599884 .37039186 .6599884 .41540528 .6419983 .44140626 .60598757 .44140626 .58599856 .44140626 .5669861 .43440248 .54499819 .41940309 .49598695 .38639833 .44400025 .32434083 .4149933 .27227784H.4099884L.41999818 .3083191C.42599488 .32833863 .42900086 .34335328 .42900086 .36038209 .42900086 .4044037 .41099549 .44140626 .37399293 .44140626 .33599855 .44140626 .27598573 .41540528 .18199158 .27227784H.17599488L.21998596 .44140626 .06298828 .41740418 .06498718 .4033966C.07299805 .4044037 .083999637 .4053955 .09199524 .4053955 .11898804 .4053955 .125 .39239503 .125 .37438966L.02999878 0H.10798645L.14299011 .13511658C.15899658 .19619751 .2689972 .37739564 .32099916 .37739564 .33898927 .37739564 .34399415 .359375 .34399415 .33935548 .34399415 .32434083 .34098817 .3083191 .33898927 .2993164L.2619934 0H.34098817L.375 .13511658C.3899994 .19619751 .5 .37739564 .55400088 .37739564 .57199099 .37739564 .5779877 .359375 .5779877 .33935548 .5779877 .32234193 .57598879 .31332398 .57199099 .2993164L.5159912 .078063968C.5109863 .058029176 .5099945 .04801941 .5099945 .041015626 .5099945 .0021820069 .5269928-.0078125 .548996-.0078125 .59599307-.0078125 .647995 .04219055 .6799927 .09623718L.6669922 .10708618Z"/>
<path id="font_4_974" d="M.2679901 .3962555C.31999208 .4772644 .375 .5582733 .42399598 .60827639 .44898988 .63427737 .47799684 .65527346 .5059967 .65527346 .5289917 .65527346 .54100039 .6432648 .54100039 .6242676 .54100039 .5282593 .42599488 .43026734 .2689972 .39526368L.2679901 .3962555M.07699585 .38926698C.10398865 .37025453 .1349945 .3612671 .16499329 .36026 .15098572 .33825685 .13699341 .31625367 .125 .29426576 .07798767 .21224976 .04798889 .1312561 .04798889 .07624817 .04798889 .018249512 .08799744-.0107421879 .1349945-.0107421879 .19799805-.0107421879 .25698854 .04624939 .3619995 .16925049L.34098817 .18624878C.24398804 .07424927 .18899536 .019256592 .14199829 .019256592 .114990238 .019256592 .10598755 .038253786 .10598755 .06225586 .10598755 .1292572 .19699097 .27626039 .24899292 .36026 .4249878 .386261 .57099917 .5152588 .57099917 .6202698 .57099917 .66625979 .548996 .6872711 .5069885 .6872711 .4249878 .6872711 .2899933 .5452728 .18499756 .3902588 .15499878 .3902588 .12399292 .3922577 .09098816 .41526795L.07699585 .38926698Z"/>
<path id="font_4_52" d="M.06098938 .50987246C.101989749 .58380129 .147995 .61576846 .20999146 .61576846 .27598573 .61576846 .31799317 .58180239 .31799317 .51387026 .31799317 .45292665 .28599549 .40795899 .23699951 .37998963 .21699524 .36799623 .19099427 .3570099 .15299988 .34402467V.33003236C.20999146 .33003236 .23298645 .32704164 .25498963 .3200531 .32398988 .3000641 .35899354 .2511139 .35899354 .17518616 .35899354 .09025574 .30299378 .022323609 .22898865 .022323609 .20098877 .022323609 .17999268 .027313233 .14299011 .05329895 .114990238 .073272708 .09899902 .07926941 .08198547 .07926941 .05899048 .07926941 .040985109 .06428528 .040985109 .043304445 .040985109 .0073242189 .07998657-.013671875 .15299988-.013671875 .24198914-.013671875 .33699037 .015319824 .3849945 .07926941 .4139862 .11723328 .43099977 .16618347 .43099977 .21913147 .43099977 .27108766 .4149933 .31704713 .3869934 .34802247 .3659973 .36999513 .34799195 .38198854 .3039856 .40097047 .37098695 .44093324 .39698792 .4908905 .39698792 .5388489 .39698792 .6207733 .33399964 .67578127 .24099732 .67578127 .13699341 .67578127 .07398987 .6087799 .04499817 .51387026L.06098938 .50987246Z"/>
<path id="font_4_50" d="M.3939972 0V.01499939C.31900025 .01499939 .29899598 .032989503 .29899598 .07597351V.67277529L.2899933 .67578127 .11099243 .5847931V.5708008L.13798523 .5807953C.1559906 .5877991 .17298889 .59280398 .18299866 .59280398 .20399475 .59280398 .21299744 .57780459 .21299744 .543808V.0949707C.21299744 .039978029 .19198609 .018997193 .117996219 .01499939V0H.3939972Z"/>
</defs>
<path transform="matrix(1,0,0,-1,42.772,232.32799)" stroke-width=".3985" stroke-linecap="butt" stroke-miterlimit="10" stroke-linejoin="miter" fill="none" stroke="#b0b0b0" d="M13.58559 0V230.13968M81.51031 0V230.13968M149.44019 0V230.13968M217.36835 0V230.13968M285.2965 0V230.13968"/>
<path transform="matrix(1,0,0,-1,42.772,232.32799)" stroke-width=".3985" stroke-linecap="butt" stroke-miterlimit="10" stroke-linejoin="miter" fill="none" stroke="#b0b0b0" d="M0 12.42224H298.88319M0 41.95816H298.88319M0 71.4941H298.88319M0 101.03001H298.88319M0 130.56594H298.88319M0 160.10187H298.88319M0 189.63779H298.88319M0 219.1737H298.88319"/>
<path transform="matrix(1,0,0,-1,42.772,232.32799)" stroke-width=".19925" stroke-linecap="butt" stroke-miterlimit="10" stroke-linejoin="miter" fill="none" stroke="#000000" d="M13.58559-4.2521V0M81.51031-4.2521V0M149.44019-4.2521V0M217.36835-4.2521V0M285.2965-4.2521V0"/>
<path transform="matrix(1,0,0,-1,42.772,232.32799)" stroke-width=".19925" stroke-linecap="butt" stroke-miterlimit="10" stroke-linejoin="miter" fill="none" stroke="#000000" d="M-4.25238 12.42224H0M-4.25238 41.95816H0M-4.25238 71.4941H0M-4.25238 101.03001H0M-4.25238 130.56594H0M-4.25238 160.10187H0M-4.25238 189.63779H0M-4.25238 219.1737H0"/>
<path transform="matrix(1,0,0,-1,42.772,232.32799)" stroke-width=".3985" stroke-linecap="butt" stroke-miterlimit="10" stroke-linejoin="miter" fill="none" stroke="#000000" d="M0 0V230.13968H298.88319V0H0Z"/>
<use data-text="0" xlink:href="#font_1_49" transform="matrix(9.96264,0,0,-9.96264,53.865999,246.83499)"/>
<use data-text="&#x1d70b;" xlink:href="#font_1_3177" transform="matrix(9.96264,0,0,-9.96264,117.377,246.83499)"/>
<use data-text="/" xlink:href="#font_1_48" transform="matrix(9.96264,0,0,-9.96264,123.43428,246.83499)"/>
<use data-text="8" xlink:href="#font_1_57" transform="matrix(9.96264,0,0,-9.96264,126.203899,246.83499)"/>
<use data-text="&#x1d70b;" xlink:href="#font_1_3177" transform="matrix(9.96264,0,0,-9.96264,185.306,246.83499)"/>
<use data-text="/" xlink:href="#font_1_48" transform="matrix(9.96264,0,0,-9.96264,191.3633,246.83499)"/>
<use data-text="4" xlink:href="#font_1_53" transform="matrix(9.96264,0,0,-9.96264,194.1329,246.83499)"/>
<use data-text="3" xlink:href="#font_1_52" transform="matrix(9.96264,0,0,-9.96264,250.743,246.83499)"/>
<use data-text="&#x1d70b;" xlink:href="#font_1_3177" transform="matrix(9.96264,0,0,-9.96264,255.72432,246.83499)"/>
<use data-text="/" xlink:href="#font_1_48" transform="matrix(9.96264,0,0,-9.96264,261.78163,246.83499)"/>
<use data-text="8" xlink:href="#font_1_57" transform="matrix(9.96264,0,0,-9.96264,264.55125,246.83499)"/>
<use data-text="&#x1d70b;" xlink:href="#font_1_3177" transform="matrix(9.96264,0,0,-9.96264,321.16,246.83499)"/>
<use data-text="/" xlink:href="#font_1_48" transform="matrix(9.96264,0,0,-9.96264,327.2173,246.83499)"/>
<use data-text="2" xlink:href="#font_1_51" transform="matrix(9.96264,0,0,-9.96264,329.9869,246.83499)"/>
<use data-text="0" xlink:href="#font_1_49" transform="matrix(9.96264,0,0,-9.96264,30.018,223.204)"/>
<use data-text="0" xlink:href="#font_1_49" transform="matrix(9.96264,0,0,-9.96264,22.546,193.728)"/>
<use data-text="." xlink:href="#font_1_47" transform="matrix(9.96264,0,0,-9.96264,27.527319,193.728)"/>
<use data-text="5" xlink:href="#font_1_54" transform="matrix(9.96264,0,0,-9.96264,30.017979,193.728)"/>
<use data-text="1" xlink:href="#font_1_50" transform="matrix(9.96264,0,0,-9.96264,30.018,164.202)"/>
<use data-text="1" xlink:href="#font_1_50" transform="matrix(9.96264,0,0,-9.96264,22.546,134.65697)"/>
<use data-text="." xlink:href="#font_1_47" transform="matrix(9.96264,0,0,-9.96264,27.527319,134.65697)"/>
<use data-text="5" xlink:href="#font_1_54" transform="matrix(9.96264,0,0,-9.96264,30.017979,134.65697)"/>
<use data-text="2" xlink:href="#font_1_51" transform="matrix(9.96264,0,0,-9.96264,30.018,105.131)"/>
<use data-text="2" xlink:href="#font_1_51" transform="matrix(9.96264,0,0,-9.96264,22.546,75.58597)"/>
<use data-text="." xlink:href="#font_1_47" transform="matrix(9.96264,0,0,-9.96264,27.527319,75.58597)"/>
<use data-text="5" xlink:href="#font_1_54" transform="matrix(9.96264,0,0,-9.96264,30.017979,75.58597)"/>
<use data-text="3" xlink:href="#font_1_52" transform="matrix(9.96264,0,0,-9.96264,30.018,45.990968)"/>
<use data-text="3" xlink:href="#font_1_52" transform="matrix(9.96264,0,0,-9.96264,22.546,16.514969)"/>
<use data-text="." xlink:href="#font_1_47" transform="matrix(9.96264,0,0,-9.96264,27.527319,16.514969)"/>
<use data-text="5" xlink:href="#font_1_54" transform="matrix(9.96264,0,0,-9.96264,30.017979,16.514969)"/>
<g clip-path="url(#clip_2)">
<path transform="matrix(1,0,0,-1,42.772,232.32799)" stroke-width=".59776" stroke-linecap="butt" stroke-miterlimit="10" stroke-linejoin="miter" fill="none" stroke="#ff0000" d="M13.58563 52.00797 16.30276 52.01903 19.01988 52.05223 21.73701 52.10756 24.45413 52.18492 27.17126 52.28429 29.88838 52.40561 32.60551 52.54874 35.32265 52.7136 38.03976 52.90005 40.7569 53.10797 43.47401 53.33716 46.19115 53.58746 48.90826 53.85869 51.6254 54.1506 54.34251 54.46301 57.05965 54.79564 59.77676 55.14824 62.4939 55.52054 65.21103 55.91222 67.92815 56.32297 70.64528 56.75247 73.3624 57.2004 76.07951 57.66635 78.79665 58.15 81.51376 58.65091 84.23088 59.16867 86.94801 59.70291 89.66513 60.25313 92.38226 60.81888 95.0994 61.39972 97.81651 61.99513 100.53365 62.60464 103.25076 63.22772 105.9679 63.86382 108.68501 64.51244 111.40215 65.17296 114.11926 65.84483 116.8364 66.52748 119.55351 67.22029 122.27065 67.92265 124.98778 68.63394 127.7049 69.35352 130.42203 70.08072 133.13915 70.81488 135.85628 71.55536 138.5734 72.30142 141.29053 73.0524 144.00765 73.80757 146.72478 74.56624 149.4419 75.32768 152.15903 76.09114 154.87615 76.8559 157.59328 77.62119 160.31041 78.38626 163.02753 79.15036 165.74466 79.91272 168.46178 80.67256 171.17891 81.42912 173.89603 82.1816 176.61316 82.92924 179.33028 83.67126 182.04741 84.40688 184.76453 85.13531 187.48166 85.85577 190.19879 86.56749 192.91591 87.2697 195.63304 87.96161 198.35016 88.64247 201.06729 89.31152 203.78441 89.96802 206.50154 90.61124 209.21866 91.2404 211.93579 91.85481 214.65291 92.45377 217.37004 93.03658 220.08718 93.60254 222.80429 94.151 225.52143 94.6813 228.23854 95.19284 230.95568 95.68495 233.67279 96.15707 236.38993 96.60866 239.10704 97.0391 241.82416 97.4479 244.54128 97.83458 247.2584 98.19861 249.97554 98.53958 252.69266 98.85704 255.40979 99.1506 258.1269 99.4199 260.84407 99.6646 263.56117 99.88438 266.2783 100.07896 268.9954 100.24812 271.71257 100.3916 274.42967 100.50926 277.1468 100.60092 279.86393 100.66649 282.58106 100.70584 285.29817 100.71898"/>
<path transform="matrix(1,0,0,-1,42.772,232.32799)" stroke-width=".59776" stroke-linecap="butt" stroke-miterlimit="10" stroke-linejoin="miter" fill="none" stroke="#0000ff" d="M13.58563 193.479 16.30276 193.48407 19.01988 193.49925 21.73701 193.52455 24.45413 193.55995 27.17126 193.60546 29.88838 193.66103 32.60551 193.72666 35.32265 193.8023 38.03976 193.88796 40.7569 193.98357 43.47401 194.0891 46.19115 194.20453 48.90826 194.32978 51.6254 194.46482 54.34251 194.60958 57.05965 194.764 59.77676 194.92804 62.4939 195.10161 65.21103 195.28464 67.92815 195.47702 70.64528 195.6787 73.3624 195.88957 76.07951 196.10953 78.79665 196.33849 81.51376 196.57633 84.23088 196.82292 86.94801 197.07817 89.66513 197.34192 92.38226 197.61405 95.0994 197.89441 97.81651 198.18283 100.53365 198.47919 103.25076 198.7833 105.9679 199.09499 108.68501 199.41407 111.40215 199.74033 114.11926 200.07361 116.8364 200.41368 119.55351 200.76032 122.27065 201.1133 124.98778 201.4724 127.7049 201.83733 130.42203 202.20787 133.13915 202.58376 135.85628 202.96468 138.5734 203.35037 141.29053 203.74053 144.00765 204.13481 146.72478 204.53295 149.4419 204.93457 152.15903 205.33933 154.87615 205.7469 157.59328 206.15688 160.31041 206.56891 163.02753 206.98259 165.74466 207.39752 168.46178 207.81333 171.17891 208.22953 173.89603 208.64569 176.61316 209.06142 179.33028 209.47621 182.04741 209.88964 184.76453 210.3012 187.48166 210.71042 190.19879 211.1168 192.91591 211.5199 195.63304 211.91913 198.35016 212.31401 201.06729 212.70403 203.78441 213.08867 206.50154 213.46738 209.21866 213.83966 211.93579 214.20494 214.65291 214.56275 217.37004 214.9125 220.08718 215.25368 222.80429 215.5858 225.52143 215.9083 228.23854 216.22066 230.95568 216.52242 233.67279 216.81302 236.38993 217.09203 239.10704 217.35895 241.82416 217.61331 244.54128 217.8547 247.2584 218.08267 249.97554 218.29683 252.69266 218.49678 255.40979 218.68215 258.1269 218.85259 260.84407 219.00778 263.56117 219.14746 266.2783 219.27135 268.9954 219.3792 271.71257 219.47081 274.42967 219.54602 277.1468 219.60468 279.86393 219.64662 282.58106 219.67185 285.29817 219.68025"/>
<path transform="matrix(1,0,0,-1,42.772,232.32799)" stroke-width=".59776" stroke-linecap="butt" stroke-miterlimit="10" stroke-linejoin="miter" fill="none" stroke="#008000" d="M13.58563 97.97098 16.30276 97.96198 19.01988 97.93503 21.73701 97.89012 24.45413 97.8273 27.17126 97.74664 29.88838 97.64816 32.60551 97.53198 35.32265 97.3982 38.03976 97.24687 40.7569 97.07816 43.47401 96.8922 46.19115 96.68913 48.90826 96.46915 51.6254 96.2324 54.34251 95.9791 57.05965 95.70944 59.77676 95.42365 62.4939 95.12196 65.21103 94.80464 67.92815 94.47192 70.64528 94.12411 73.3624 93.76149 76.07951 93.38437 78.79665 92.99303 81.51376 92.58784 84.23088 92.16914 86.94801 91.73727 89.66513 91.29262 92.38226 90.83554 95.0994 90.36646 97.81651 89.88574 100.53365 89.39386 103.25076 88.8912 105.9679 88.37822 108.68501 87.85536 111.40215 87.3231 114.11926 86.7819 116.8364 86.23225 119.55351 85.67467 122.27065 85.10962 124.98778 84.53764 127.7049 83.95926 130.42203 83.37498 133.13915 82.78537 135.85628 82.191 138.5734 81.59238 141.29053 80.9901 144.00765 80.3847 146.72478 79.77682 149.4419 79.16702 152.15903 78.55585 154.87615 77.94395 157.59328 77.33191 160.31041 76.72034 163.02753 76.10982 165.74466 75.50098 168.46178 74.89444 171.17891 74.29082 173.89603 73.6907 176.61316 73.09474 179.33028 72.50352 182.04741 71.91768 184.76453 71.33783 187.48166 70.76457 190.19879 70.19853 192.91591 69.6403 195.63304 69.09047 198.35016 68.54967 201.06729 68.01846 203.78441 67.49744 206.50154 66.98717 209.21866 66.48824 211.93579 66.00117 214.65291 65.52655 217.37004 65.06488 220.08718 64.61673 222.80429 64.18257 225.52143 63.76292 228.23854 63.35828 230.95568 62.9691 233.67279 62.59583 236.38993 62.2389 239.10704 61.89879 241.82416 61.57584 244.54128 61.27045 247.2584 60.98299 249.97554 60.71382 252.69266 60.46324 255.40979 60.23157 258.1269 60.01909 260.84407 59.82603 263.56117 59.65268 266.2783 59.4992 268.9954 59.36581 271.71257 59.25267 274.42967 59.15991 277.1468 59.08763 279.86393 59.03595 282.58106 59.0049 285.29817 58.99455"/>
<path transform="matrix(1,0,0,-1,42.772,232.32799)" stroke-width=".59776" stroke-linecap="butt" stroke-miterlimit="10" stroke-linejoin="miter" fill="none" stroke="#000000" d="M13.58563 12.42233 16.30276 13.09415 19.01988 13.76534 21.73701 14.43538 24.45413 15.10364 27.17126 15.76955 29.88838 16.43253 32.60551 17.09196 35.32265 17.74731 38.03976 18.39798 40.7569 19.04338 43.47401 19.68294 46.19115 20.31609 48.90826 20.94226 51.6254 21.56091 54.34251 22.17148 57.05965 22.77339 59.77676 23.36612 62.4939 23.9491 65.21103 24.52184 67.92815 25.08374 70.64528 25.63435 73.3624 26.17311 76.07951 26.69954 78.79665 27.21313 81.51376 27.7134 84.23088 28.19983 86.94801 28.67197 89.66513 29.12936 92.38226 29.57156 95.0994 29.99812 97.81651 30.40857 100.53365 30.80254 103.25076 31.17958 105.9679 31.53932 108.68501 31.88136 111.40215 32.20535 114.11926 32.5109 116.8364 32.7977 119.55351 33.06537 122.27065 33.31366 124.98778 33.54222 127.7049 33.75078 130.42203 33.93904 133.13915 34.10681 135.85628 34.25383 138.5734 34.37987 141.29053 34.48474 144.00765 34.56824 146.72478 34.63023 149.4419 34.67056 152.15903 34.6891 154.87615 34.68576 157.59328 34.66043 160.31041 34.61307 163.02753 34.54364 165.74466 34.45212 168.46178 34.33849 171.17891 34.20279 173.89603 34.04506 176.61316 33.86537 179.33028 33.66385 182.04741 33.44058 184.76453 33.19568 187.48166 32.92938 190.19879 32.6418 192.91591 32.3332 195.63304 32.00381 198.35016 31.65388 201.06729 31.28372 203.78441 30.89362 206.50154 30.48392 209.21866 30.055 211.93579 29.60721 214.65291 29.14102 217.37004 28.6568 220.08718 28.15506 222.80429 27.63628 225.52143 27.10092 228.23854 26.54956 230.95568 25.98276 233.67279 25.40103 236.38993 24.80504 239.10704 24.19537 241.82416 23.57266 244.54128 22.93758 247.2584 22.29079 249.97554 21.633 252.69266 20.9649 255.40979 20.28725 258.1269 19.60077 260.84407 18.90622 263.56117 18.20436 266.2783 17.496 268.9954 16.78189 271.71257 16.06287 274.42967 15.33972 277.1468 14.61328 279.86393 13.88434 282.58106 13.15375 285.29817 12.42233"/>
<path transform="matrix(1,0,0,-1,42.772,232.32799)" stroke-width=".59776" stroke-linecap="butt" stroke-dasharray=".59776,1.99255" stroke-miterlimit="10" stroke-linejoin="miter" fill="none" stroke="#ff0000" d="M13.58563 52.00797 16.30276 52.00928 19.01988 52.01318 21.73701 52.0197 24.45413 52.02881 27.17126 52.04053 29.88838 52.05486 32.60551 52.07176 35.32265 52.09126 38.03976 52.11333 40.7569 52.13797 43.47401 52.16519 46.19115 52.19495 48.90826 52.22726 51.6254 52.26212 54.34251 52.2995 57.05965 52.33937 59.77676 52.38174 62.4939 52.4266 65.21103 52.47392 67.92815 52.52368 70.64528 52.57587 73.3624 52.63046 76.07951 52.68744 78.79665 52.74677 81.51376 52.80844 84.23088 52.87242 86.94801 52.93869 89.66513 53.0072 92.38226 53.07794 95.0994 53.15086 97.81651 53.22595 100.53365 53.30315 103.25076 53.38243 105.9679 53.46373 108.68501 53.54703 111.40215 53.63228 114.11926 53.71944 116.8364 53.80844 119.55351 53.89925 122.27065 53.99178 124.98778 54.08601 127.7049 54.18188 130.42203 54.2793 133.13915 54.37822 135.85628 54.47856 138.5734 54.58026 141.29053 54.68326 144.00765 54.78745 146.72478 54.89278 149.4419 54.99913 152.15903 55.10643 154.87615 55.2146 157.59328 55.32353 160.31041 55.43314 163.02753 55.5433 165.74466 55.65395 168.46178 55.76494 171.17891 55.87617 173.89603 55.98753 176.61316 56.09892 179.33028 56.21019 182.04741 56.32123 184.76453 56.43192 187.48166 56.5421 190.19879 56.65166 192.91591 56.76045 195.63304 56.86835 198.35016 56.9752 201.06729 57.08087 203.78441 57.18521 206.50154 57.28807 209.21866 57.3893 211.93579 57.48877 214.65291 57.58629 217.37004 57.68175 220.08718 57.77498 222.80429 57.8658 225.52143 57.95413 228.23854 58.03976 230.95568 58.12257 233.67279 58.20241 236.38993 58.27913 239.10704 58.3526 241.82416 58.42268 244.54128 58.48926 247.2584 58.55215 249.97554 58.61131 252.69266 58.66658 255.40979 58.71786 258.1269 58.76503 260.84407 58.80803 263.56117 58.84673 266.2783 58.88107 268.9954 58.91098 271.71257 58.9364 274.42967 58.95728 277.1468 58.97356 279.86393 58.98521 282.58106 58.99223 285.29817 58.99455"/>
<path transform="matrix(1,0,0,-1,42.772,232.32799)" stroke-width=".59776" stroke-linecap="butt" stroke-dasharray=".59776,1.99255" stroke-miterlimit="10" stroke-linejoin="miter" fill="none" stroke="#008000" d="M13.58563 97.97098 16.30276 97.97176 19.01988 97.97408 21.73701 97.97798 24.45413 97.98341 27.17126 97.99039 29.88838 97.99892 32.60551 98.00897 35.32265 98.02052 38.03976 98.03358 40.7569 98.04814 43.47401 98.06416 46.19115 98.08165 48.90826 98.10057 51.6254 98.12091 54.34251 98.14262 57.05965 98.16573 59.77676 98.19016 62.4939 98.2159 65.21103 98.24294 67.92815 98.27122 70.64528 98.30072 73.3624 98.33144 76.07951 98.36328 78.79665 98.39626 81.51376 98.43031 84.23088 98.4654 86.94801 98.50148 89.66513 98.53851 92.38226 98.57648 95.0994 98.6153 97.81651 98.65494 100.53365 98.69536 103.25076 98.7365 105.9679 98.77832 108.68501 98.82076 111.40215 98.86377 114.11926 98.9073 116.8364 98.95131 119.55351 98.99571 122.27065 99.04048 124.98778 99.08557 127.7049 99.13089 130.42203 99.1764 133.13915 99.22206 135.85628 99.26778 138.5734 99.31352 141.29053 99.35922 144.00765 99.40485 146.72478 99.45032 149.4419 99.49557 152.15903 99.54057 154.87615 99.58525 157.59328 99.62956 160.31041 99.67345 163.02753 99.71687 165.74466 99.75975 168.46178 99.80206 171.17891 99.84375 173.89603 99.88477 176.61316 99.92506 179.33028 99.9646 182.04741 100.00333 184.76453 100.04123 187.48166 100.07825 190.19879 100.11436 192.91591 100.14954 195.63304 100.18373 198.35016 100.21693 201.06729 100.24911 203.78441 100.28026 206.50154 100.31032 209.21866 100.33931 211.93579 100.36722 214.65291 100.39403 217.37004 100.41972 220.08718 100.4443 222.80429 100.46777 225.52143 100.49011 228.23854 100.51135 230.95568 100.53148 233.67279 100.55049 236.38993 100.56844 239.10704 100.58528 241.82416 100.60104 244.54128 100.61577 247.2584 100.62944 249.97554 100.64207 252.69266 100.6537 255.40979 100.66434 258.1269 100.67397 260.84407 100.68263 263.56117 100.69034 266.2783 100.69711 268.9954 100.70294 271.71257 100.70787 274.42967 100.71188 277.1468 100.71498 279.86393 100.71721 282.58106 100.71854 285.29817 100.71898"/>
<path transform="matrix(1,0,0,-1,42.772,232.32799)" stroke-width=".59776" stroke-linecap="butt" stroke-dasharray=".59776,1.99255" stroke-miterlimit="10" stroke-linejoin="miter" fill="none" stroke="#000000" d="M13.58563 12.42233 16.30276 12.37225 19.01988 12.3222 21.73701 12.27219 24.45413 12.22224 27.17126 12.1724 29.88838 12.1227 32.60551 12.07312 35.32265 12.02373 38.03976 11.97453 40.7569 11.92555 43.47401 11.87682 46.19115 11.82837 48.90826 11.78021 51.6254 11.73239 54.34251 11.68494 57.05965 11.63785 59.77676 11.59119 62.4939 11.54495 65.21103 11.49919 67.92815 11.45393 70.64528 11.40921 73.3624 11.36504 76.07951 11.32147 78.79665 11.27852 81.51376 11.23624 84.23088 11.19463 86.94801 11.15375 89.66513 11.11365 92.38226 11.07431 95.0994 11.03583 97.81651 10.99821 100.53365 10.9615 103.25076 10.92574 105.9679 10.89095 108.68501 10.8572 111.40215 10.8245 114.11926 10.79292 116.8364 10.76248 119.55351 10.73323 122.27065 10.70523 124.98778 10.67848 127.7049 10.65306 130.42203 10.62901 133.13915 10.60637 135.85628 10.58519 138.5734 10.5655 141.29053 10.54735 144.00765 10.5308 146.72478 10.5159 149.4419 10.50267 152.15903 10.49117 154.87615 10.48145 157.59328 10.47354 160.31041 10.4675 163.02753 10.46335 165.74466 10.46115 168.46178 10.46095 171.17891 10.46278 173.89603 10.46666 176.61316 10.47267 179.33028 10.48079 182.04741 10.49109 184.76453 10.5036 187.48166 10.51833 190.19879 10.53531 192.91591 10.55458 195.63304 10.57614 198.35016 10.6 201.06729 10.6262 203.78441 10.65474 206.50154 10.6856 209.21866 10.7188 211.93579 10.75433 214.65291 10.79216 217.37004 10.83232 220.08718 10.87474 222.80429 10.91943 225.52143 10.96635 228.23854 11.01544 230.95568 11.06668 233.67279 11.12001 236.38993 11.17538 239.10704 11.23273 241.82416 11.29198 244.54128 11.35307 247.2584 11.41592 249.97554 11.48042 252.69266 11.54651 255.40979 11.61406 258.1269 11.683 260.84407 11.7532 263.56117 11.82457 266.2783 11.89697 268.9954 11.97029 271.71257 12.0444 274.42967 12.11917 277.1468 12.1945 279.86393 12.27022 282.58106 12.3462 285.29817 12.42233"/>
</g>
<path transform="matrix(1,0,0,-1,42.772,232.32799)" stroke-width=".59776" stroke-linecap="butt" stroke-miterlimit="10" stroke-linejoin="miter" fill="none" stroke="#ff0000" d="M11.59308 52.00797H15.57819M13.58563 54.00052V50.01541"/>
<path transform="matrix(1,0,0,-1,42.772,232.32799)" stroke-width=".59776" stroke-linecap="butt" stroke-miterlimit="10" stroke-linejoin="miter" fill="none" stroke="#ff0000" d="M79.52121 58.65091H83.50632M81.51376 60.64346V56.65836"/>
<path transform="matrix(1,0,0,-1,42.772,232.32799)" stroke-width=".59776" stroke-linecap="butt" stroke-miterlimit="10" stroke-linejoin="miter" fill="none" stroke="#ff0000" d="M147.44934 75.32768H151.43445M149.4419 77.32024V73.33513"/>
<path transform="matrix(1,0,0,-1,42.772,232.32799)" stroke-width=".59776" stroke-linecap="butt" stroke-miterlimit="10" stroke-linejoin="miter" fill="none" stroke="#ff0000" d="M215.37749 93.03658H219.3626M217.37004 95.02913V91.04402"/>
<path transform="matrix(1,0,0,-1,42.772,232.32799)" stroke-width=".59776" stroke-linecap="butt" stroke-miterlimit="10" stroke-linejoin="miter" fill="none" stroke="#ff0000" d="M283.30564 100.71898H287.29075M285.29817 102.71153V98.72643"/>
<path transform="matrix(1,0,0,-1,42.772,232.32799)" stroke-width=".59776" stroke-linecap="butt" stroke-miterlimit="10" stroke-linejoin="miter" fill="none" stroke="#ff0000" d=""/>
<path transform="matrix(1,0,0,-1,42.772,232.32799)" stroke-width=".59776" stroke-linecap="butt" stroke-miterlimit="10" stroke-linejoin="miter" fill="none" stroke="#0000ff" d="M12.17668 192.07006 14.99458 194.88796M12.17668 194.88796 14.99458 192.07006"/>
<path transform="matrix(1,0,0,-1,42.772,232.32799)" stroke-width=".59776" stroke-linecap="butt" stroke-miterlimit="10" stroke-linejoin="miter" fill="none" stroke="#0000ff" d="M80.10481 195.16738 82.92271 197.98528M80.10481 197.98528 82.92271 195.16738"/>
<path transform="matrix(1,0,0,-1,42.772,232.32799)" stroke-width=".59776" stroke-linecap="butt" stroke-miterlimit="10" stroke-linejoin="miter" fill="none" stroke="#0000ff" d="M148.03295 203.52562 150.85085 206.34352M148.03295 206.34352 150.85085 203.52562"/>
<path transform="matrix(1,0,0,-1,42.772,232.32799)" stroke-width=".59776" stroke-linecap="butt" stroke-miterlimit="10" stroke-linejoin="miter" fill="none" stroke="#0000ff" d="M215.96109 213.50356 218.77899 216.32146M215.96109 216.32146 218.77899 213.50356"/>
<path transform="matrix(1,0,0,-1,42.772,232.32799)" stroke-width=".59776" stroke-linecap="butt" stroke-miterlimit="10" stroke-linejoin="miter" fill="none" stroke="#0000ff" d="M283.88923 218.2713 286.70713 221.0892M283.88923 221.0892 286.70713 218.2713"/>
<path transform="matrix(1,0,0,-1,42.772,232.32799)" stroke-width=".59776" stroke-linecap="butt" stroke-miterlimit="10" stroke-linejoin="miter" fill="none" stroke="#0000ff" d=""/>
<path transform="matrix(1,0,0,-1,42.772,232.32799)" d="M13.58563 99.96353 15.08005 97.97098 13.58563 95.97842 12.09122 97.97098Z" fill="#008000"/>
<path transform="matrix(1,0,0,-1,42.772,232.32799)" stroke-width=".59776" stroke-linecap="butt" stroke-miterlimit="10" stroke-linejoin="miter" fill="none" stroke="#008000" d="M13.58563 99.96353 15.08005 97.97098 13.58563 95.97842 12.09122 97.97098Z"/>
<path transform="matrix(1,0,0,-1,42.772,232.32799)" d="M81.51376 94.5804 83.00818 92.58784 81.51376 90.59529 80.01935 92.58784Z" fill="#008000"/>
<path transform="matrix(1,0,0,-1,42.772,232.32799)" stroke-width=".59776" stroke-linecap="butt" stroke-miterlimit="10" stroke-linejoin="miter" fill="none" stroke="#008000" d="M81.51376 94.5804 83.00818 92.58784 81.51376 90.59529 80.01935 92.58784Z"/>
<path transform="matrix(1,0,0,-1,42.772,232.32799)" d="M149.4419 81.15958 150.93631 79.16702 149.4419 77.17447 147.94748 79.16702Z" fill="#008000"/>
<path transform="matrix(1,0,0,-1,42.772,232.32799)" stroke-width=".59776" stroke-linecap="butt" stroke-miterlimit="10" stroke-linejoin="miter" fill="none" stroke="#008000" d="M149.4419 81.15958 150.93631 79.16702 149.4419 77.17447 147.94748 79.16702Z"/>
<path transform="matrix(1,0,0,-1,42.772,232.32799)" d="M217.37004 67.05743 218.86446 65.06488 217.37004 63.07233 215.87563 65.06488Z" fill="#008000"/>
<path transform="matrix(1,0,0,-1,42.772,232.32799)" stroke-width=".59776" stroke-linecap="butt" stroke-miterlimit="10" stroke-linejoin="miter" fill="none" stroke="#008000" d="M217.37004 67.05743 218.86446 65.06488 217.37004 63.07233 215.87563 65.06488Z"/>
<path transform="matrix(1,0,0,-1,42.772,232.32799)" d="M285.29817 60.9871 286.7926 58.99455 285.29817 57.002 283.80378 58.99455Z" fill="#008000"/>
<path transform="matrix(1,0,0,-1,42.772,232.32799)" stroke-width=".59776" stroke-linecap="butt" stroke-miterlimit="10" stroke-linejoin="miter" fill="none" stroke="#008000" d="M285.29817 60.9871 286.7926 58.99455 285.29817 57.002 283.80378 58.99455Z"/>
<path transform="matrix(1,0,0,-1,42.772,232.32799)" stroke-width=".59776" stroke-linecap="butt" stroke-miterlimit="10" stroke-linejoin="miter" fill="none" stroke="#008000" d=""/>
<path transform="matrix(1,0,0,-1,42.772,232.32799)" d="M15.57819 12.42233C15.57819 13.52281 14.68611 14.41489 13.58563 14.41489 12.48517 14.41489 11.59308 13.52281 11.59308 12.42233 11.59308 11.32187 12.48517 10.42978 13.58563 10.42978 14.68611 10.42978 15.57819 11.32187 15.57819 12.42233ZM13.58563 12.42233"/>
<path transform="matrix(1,0,0,-1,42.772,232.32799)" stroke-width=".59776" stroke-linecap="butt" stroke-miterlimit="10" stroke-linejoin="miter" fill="none" stroke="#000000" d="M15.57819 12.42233C15.57819 13.52281 14.68611 14.41489 13.58563 14.41489 12.48517 14.41489 11.59308 13.52281 11.59308 12.42233 11.59308 11.32187 12.48517 10.42978 13.58563 10.42978 14.68611 10.42978 15.57819 11.32187 15.57819 12.42233ZM13.58563 12.42233"/>
<path transform="matrix(1,0,0,-1,42.772,232.32799)" d="M83.50632 27.7134C83.50632 28.81387 82.61423 29.70595 81.51376 29.70595 80.41328 29.70595 79.52121 28.81387 79.52121 27.7134 79.52121 26.61293 80.41328 25.72084 81.51376 25.72084 82.61423 25.72084 83.50632 26.61293 83.50632 27.7134ZM81.51376 27.7134"/>
<path transform="matrix(1,0,0,-1,42.772,232.32799)" stroke-width=".59776" stroke-linecap="butt" stroke-miterlimit="10" stroke-linejoin="miter" fill="none" stroke="#000000" d="M83.50632 27.7134C83.50632 28.81387 82.61423 29.70595 81.51376 29.70595 80.41328 29.70595 79.52121 28.81387 79.52121 27.7134 79.52121 26.61293 80.41328 25.72084 81.51376 25.72084 82.61423 25.72084 83.50632 26.61293 83.50632 27.7134ZM81.51376 27.7134"/>
<path transform="matrix(1,0,0,-1,42.772,232.32799)" d="M151.43445 34.67056C151.43445 35.77104 150.54238 36.66312 149.4419 36.66312 148.34143 36.66312 147.44934 35.77104 147.44934 34.67056 147.44934 33.5701 148.34143 32.67801 149.4419 32.67801 150.54238 32.67801 151.43445 33.5701 151.43445 34.67056ZM149.4419 34.67056"/>
<path transform="matrix(1,0,0,-1,42.772,232.32799)" stroke-width=".59776" stroke-linecap="butt" stroke-miterlimit="10" stroke-linejoin="miter" fill="none" stroke="#000000" d="M151.43445 34.67056C151.43445 35.77104 150.54238 36.66312 149.4419 36.66312 148.34143 36.66312 147.44934 35.77104 147.44934 34.67056 147.44934 33.5701 148.34143 32.67801 149.4419 32.67801 150.54238 32.67801 151.43445 33.5701 151.43445 34.67056ZM149.4419 34.67056"/>
<path transform="matrix(1,0,0,-1,42.772,232.32799)" d="M219.3626 28.6568C219.3626 29.75728 218.4705 30.64935 217.37004 30.64935 216.26958 30.64935 215.37749 29.75728 215.37749 28.6568 215.37749 27.55634 216.26958 26.66425 217.37004 26.66425 218.4705 26.66425 219.3626 27.55634 219.3626 28.6568ZM217.37004 28.6568"/>
<path transform="matrix(1,0,0,-1,42.772,232.32799)" stroke-width=".59776" stroke-linecap="butt" stroke-miterlimit="10" stroke-linejoin="miter" fill="none" stroke="#000000" d="M219.3626 28.6568C219.3626 29.75728 218.4705 30.64935 217.37004 30.64935 216.26958 30.64935 215.37749 29.75728 215.37749 28.6568 215.37749 27.55634 216.26958 26.66425 217.37004 26.66425 218.4705 26.66425 219.3626 27.55634 219.3626 28.6568ZM217.37004 28.6568"/>
<path transform="matrix(1,0,0,-1,42.772,232.32799)" d="M287.29075 12.42233C287.29075 13.52281 286.39866 14.41489 285.29817 14.41489 284.1977 14.41489 283.30564 13.52281 283.30564 12.42233 283.30564 11.32187 284.1977 10.42978 285.29817 10.42978 286.39866 10.42978 287.29075 11.32187 287.29075 12.42233ZM285.29817 12.42233"/>
<path transform="matrix(1,0,0,-1,42.772,232.32799)" stroke-width=".59776" stroke-linecap="butt" stroke-miterlimit="10" stroke-linejoin="miter" fill="none" stroke="#000000" d="M287.29075 12.42233C287.29075 13.52281 286.39866 14.41489 285.29817 14.41489 284.1977 14.41489 283.30564 13.52281 283.30564 12.42233 283.30564 11.32187 284.1977 10.42978 285.29817 10.42978 286.39866 10.42978 287.29075 11.32187 287.29075 12.42233ZM285.29817 12.42233"/>
<path transform="matrix(1,0,0,-1,42.772,232.32799)" stroke-width=".59776" stroke-linecap="butt" stroke-miterlimit="10" stroke-linejoin="miter" fill="none" stroke="#000000" d=""/>
<path transform="matrix(1,0,0,-1,42.772,232.32799)" stroke-width=".59776" stroke-linecap="butt" stroke-miterlimit="10" stroke-linejoin="miter" fill="none" stroke="#ff0000" d="M11.59308 52.00797H15.57819M13.58563 54.00052V50.01541"/>
<path transform="matrix(1,0,0,-1,42.772,232.32799)" stroke-width=".59776" stroke-linecap="butt" stroke-miterlimit="10" stroke-linejoin="miter" fill="none" stroke="#ff0000" d="M79.52121 52.80844H83.50632M81.51376 54.801V50.81589"/>
<path transform="matrix(1,0,0,-1,42.772,232.32799)" stroke-width=".59776" stroke-linecap="butt" stroke-miterlimit="10" stroke-linejoin="miter" fill="none" stroke="#ff0000" d="M147.44934 54.99913H151.43445M149.4419 56.99168V53.00658"/>
<path transform="matrix(1,0,0,-1,42.772,232.32799)" stroke-width=".59776" stroke-linecap="butt" stroke-miterlimit="10" stroke-linejoin="miter" fill="none" stroke="#ff0000" d="M215.37749 57.68175H219.3626M217.37004 59.6743V55.6892"/>
<path transform="matrix(1,0,0,-1,42.772,232.32799)" stroke-width=".59776" stroke-linecap="butt" stroke-miterlimit="10" stroke-linejoin="miter" fill="none" stroke="#ff0000" d="M283.30564 58.99455H287.29075M285.29817 60.9871V57.002"/>
<path transform="matrix(1,0,0,-1,42.772,232.32799)" stroke-width=".59776" stroke-linecap="butt" stroke-miterlimit="10" stroke-linejoin="miter" fill="none" stroke="#ff0000" d=""/>
<path transform="matrix(1,0,0,-1,42.772,232.32799)" d="M13.58563 99.96353 15.08005 97.97098 13.58563 95.97842 12.09122 97.97098Z" fill="#008000"/>
<path transform="matrix(1,0,0,-1,42.772,232.32799)" stroke-width=".59776" stroke-linecap="butt" stroke-miterlimit="10" stroke-linejoin="miter" fill="none" stroke="#008000" d="M13.58563 99.96353 15.08005 97.97098 13.58563 95.97842 12.09122 97.97098Z"/>
<path transform="matrix(1,0,0,-1,42.772,232.32799)" d="M81.51376 100.42287 83.00818 98.43031 81.51376 96.43776 80.01935 98.43031Z" fill="#008000"/>
<path transform="matrix(1,0,0,-1,42.772,232.32799)" stroke-width=".59776" stroke-linecap="butt" stroke-miterlimit="10" stroke-linejoin="miter" fill="none" stroke="#008000" d="M81.51376 100.42287 83.00818 98.43031 81.51376 96.43776 80.01935 98.43031Z"/>
<path transform="matrix(1,0,0,-1,42.772,232.32799)" d="M149.4419 101.48813 150.93631 99.49557 149.4419 97.50302 147.94748 99.49557Z" fill="#008000"/>
<path transform="matrix(1,0,0,-1,42.772,232.32799)" stroke-width=".59776" stroke-linecap="butt" stroke-miterlimit="10" stroke-linejoin="miter" fill="none" stroke="#008000" d="M149.4419 101.48813 150.93631 99.49557 149.4419 97.50302 147.94748 99.49557Z"/>
<path transform="matrix(1,0,0,-1,42.772,232.32799)" d="M217.37004 102.41228 218.86446 100.41972 217.37004 98.42717 215.87563 100.41972Z" fill="#008000"/>
<path transform="matrix(1,0,0,-1,42.772,232.32799)" stroke-width=".59776" stroke-linecap="butt" stroke-miterlimit="10" stroke-linejoin="miter" fill="none" stroke="#008000" d="M217.37004 102.41228 218.86446 100.41972 217.37004 98.42717 215.87563 100.41972Z"/>
<path transform="matrix(1,0,0,-1,42.772,232.32799)" d="M285.29817 102.71153 286.7926 100.71898 285.29817 98.72643 283.80378 100.71898Z" fill="#008000"/>
<path transform="matrix(1,0,0,-1,42.772,232.32799)" stroke-width=".59776" stroke-linecap="butt" stroke-miterlimit="10" stroke-linejoin="miter" fill="none" stroke="#008000" d="M285.29817 102.71153 286.7926 100.71898 285.29817 98.72643 283.80378 100.71898Z"/>
<path transform="matrix(1,0,0,-1,42.772,232.32799)" stroke-width=".59776" stroke-linecap="butt" stroke-miterlimit="10" stroke-linejoin="miter" fill="none" stroke="#008000" d=""/>
<path transform="matrix(1,0,0,-1,42.772,232.32799)" d="M15.57819 12.42233C15.57819 13.52281 14.68611 14.41489 13.58563 14.41489 12.48517 14.41489 11.59308 13.52281 11.59308 12.42233 11.59308 11.32187 12.48517 10.42978 13.58563 10.42978 14.68611 10.42978 15.57819 11.32187 15.57819 12.42233ZM13.58563 12.42233"/>
<path transform="matrix(1,0,0,-1,42.772,232.32799)" stroke-width=".59776" stroke-linecap="butt" stroke-miterlimit="10" stroke-linejoin="miter" fill="none" stroke="#000000" d="M15.57819 12.42233C15.57819 13.52281 14.68611 14.41489 13.58563 14.41489 12.48517 14.41489 11.59308 13.52281 11.59308 12.42233 11.59308 11.32187 12.48517 10.42978 13.58563 10.42978 14.68611 10.42978 15.57819 11.32187 15.57819 12.42233ZM13.58563 12.42233"/>
<path transform="matrix(1,0,0,-1,42.772,232.32799)" d="M83.50632 11.23624C83.50632 12.3367 82.61423 13.22879 81.51376 13.22879 80.41328 13.22879 79.52121 12.3367 79.52121 11.23624 79.52121 10.13576 80.41328 9.24368 81.51376 9.24368 82.61423 9.24368 83.50632 10.13576 83.50632 11.23624ZM81.51376 11.23624"/>
<path transform="matrix(1,0,0,-1,42.772,232.32799)" stroke-width=".59776" stroke-linecap="butt" stroke-miterlimit="10" stroke-linejoin="miter" fill="none" stroke="#000000" d="M83.50632 11.23624C83.50632 12.3367 82.61423 13.22879 81.51376 13.22879 80.41328 13.22879 79.52121 12.3367 79.52121 11.23624 79.52121 10.13576 80.41328 9.24368 81.51376 9.24368 82.61423 9.24368 83.50632 10.13576 83.50632 11.23624ZM81.51376 11.23624"/>
<path transform="matrix(1,0,0,-1,42.772,232.32799)" d="M151.43445 10.50267C151.43445 11.60315 150.54238 12.49522 149.4419 12.49522 148.34143 12.49522 147.44934 11.60315 147.44934 10.50267 147.44934 9.4022 148.34143 8.51012 149.4419 8.51012 150.54238 8.51012 151.43445 9.4022 151.43445 10.50267ZM149.4419 10.50267"/>
<path transform="matrix(1,0,0,-1,42.772,232.32799)" stroke-width=".59776" stroke-linecap="butt" stroke-miterlimit="10" stroke-linejoin="miter" fill="none" stroke="#000000" d="M151.43445 10.50267C151.43445 11.60315 150.54238 12.49522 149.4419 12.49522 148.34143 12.49522 147.44934 11.60315 147.44934 10.50267 147.44934 9.4022 148.34143 8.51012 149.4419 8.51012 150.54238 8.51012 151.43445 9.4022 151.43445 10.50267ZM149.4419 10.50267"/>
<path transform="matrix(1,0,0,-1,42.772,232.32799)" d="M219.3626 10.83232C219.3626 11.93279 218.4705 12.82487 217.37004 12.82487 216.26958 12.82487 215.37749 11.93279 215.37749 10.83232 215.37749 9.73184 216.26958 8.83977 217.37004 8.83977 218.4705 8.83977 219.3626 9.73184 219.3626 10.83232ZM217.37004 10.83232"/>
<path transform="matrix(1,0,0,-1,42.772,232.32799)" stroke-width=".59776" stroke-linecap="butt" stroke-miterlimit="10" stroke-linejoin="miter" fill="none" stroke="#000000" d="M219.3626 10.83232C219.3626 11.93279 218.4705 12.82487 217.37004 12.82487 216.26958 12.82487 215.37749 11.93279 215.37749 10.83232 215.37749 9.73184 216.26958 8.83977 217.37004 8.83977 218.4705 8.83977 219.3626 9.73184 219.3626 10.83232ZM217.37004 10.83232"/>
<path transform="matrix(1,0,0,-1,42.772,232.32799)" d="M287.29075 12.42233C287.29075 13.52281 286.39866 14.41489 285.29817 14.41489 284.1977 14.41489 283.30564 13.52281 283.30564 12.42233 283.30564 11.32187 284.1977 10.42978 285.29817 10.42978 286.39866 10.42978 287.29075 11.32187 287.29075 12.42233ZM285.29817 12.42233"/>
<path transform="matrix(1,0,0,-1,42.772,232.32799)" stroke-width=".59776" stroke-linecap="butt" stroke-miterlimit="10" stroke-linejoin="miter" fill="none" stroke="#000000" d="M287.29075 12.42233C287.29075 13.52281 286.39866 14.41489 285.29817 14.41489 284.1977 14.41489 283.30564 13.52281 283.30564 12.42233 283.30564 11.32187 284.1977 10.42978 285.29817 10.42978 286.39866 10.42978 287.29075 11.32187 287.29075 12.42233ZM285.29817 12.42233"/>
<path transform="matrix(1,0,0,-1,42.772,232.32799)" stroke-width=".59776" stroke-linecap="butt" stroke-miterlimit="10" stroke-linejoin="miter" fill="none" stroke="#000000" d=""/>
<use data-text="&#x1d703;" xlink:href="#font_1_3169" transform="matrix(9.96264,0,0,-9.96264,189.8,260.469)"/>
<use data-text="&#x1d438;" xlink:href="#font_1_2480" transform="matrix(0,-9.96264,-9.96264,-0,11.819,132.80399)"/>
<use data-text="&#x00d7;" xlink:href="#font_1_183" transform="matrix(0,-9.96264,-9.96264,-0,11.819,122.881198)"/>
<use data-text="&#x1d435;" xlink:href="#font_1_2477" transform="matrix(0,-9.96264,-9.96264,-0,11.819,114.293399)"/>
<use data-text="&#x1d456;" xlink:href="#font_3_2509" transform="matrix(0,-7.47198,-7.47198,-0,14.3089909,107.35498)"/>
<use data-text="&#x1d457;" xlink:href="#font_3_2510" transform="matrix(0,-7.47198,-7.47198,-0,14.3089909,105.0312)"/>
<path transform="matrix(1,0,0,-1,42.772,232.32799)" d="M211.92217 144.26332H253.85326V223.0365H211.92217Z" fill="#ffffff" fill-opacity=".8"/>
<path transform="matrix(1,0,0,-1,42.772,232.32799)" stroke-width=".3985" stroke-linecap="butt" stroke-miterlimit="10" stroke-linejoin="miter" fill="none" stroke="#cccccc" d="M211.92217 144.26332H253.85326V223.0365H211.92217Z"/>
<path transform="matrix(1,0,0,-1,257.979,16.628998)" stroke-width=".59776" stroke-linecap="butt" stroke-miterlimit="10" stroke-linejoin="miter" fill="none" stroke="#ff0000" d="M0 0H8.50412 17.00826"/>
<path transform="matrix(1,0,0,-1,257.979,16.628998)" stroke-width=".59776" stroke-linecap="butt" stroke-miterlimit="10" stroke-linejoin="miter" fill="none" stroke="#ff0000" d="M6.51157 0H10.49667M8.50412 1.99255V-1.99255"/>
<use data-text="&#x1d435;" xlink:href="#font_3_2477" transform="matrix(7.97011,0,0,-7.97011,277.278,18.483994)"/>
<use data-text="&#x1d45b;" xlink:href="#font_4_2514" transform="matrix(5.97758,0,0,-5.97758,282.825,20.477005)"/>
<use data-text="&#x1d45b;" xlink:href="#font_4_2514" transform="matrix(5.97758,0,0,-5.97758,285.79588,20.477005)"/>
<path transform="matrix(1,0,0,-1,257.979,27.312998)" stroke-width=".59776" stroke-linecap="butt" stroke-miterlimit="10" stroke-linejoin="miter" fill="none" stroke="#0000ff" d="M0 0H8.50412 17.00826"/>
<path transform="matrix(1,0,0,-1,257.979,27.312998)" stroke-width=".59776" stroke-linecap="butt" stroke-miterlimit="10" stroke-linejoin="miter" fill="none" stroke="#0000ff" d="M7.09517-1.40894 9.91307 1.40894M7.09517 1.40894 9.91307-1.40894"/>
<use data-text="&#x1d435;" xlink:href="#font_3_2477" transform="matrix(7.97011,0,0,-7.97011,277.278,29.168)"/>
<use data-text="&#x1d45a;" xlink:href="#font_4_2513" transform="matrix(5.97758,0,0,-5.97758,282.825,31.160996)"/>
<use data-text="&#x1d45a;" xlink:href="#font_4_2513" transform="matrix(5.97758,0,0,-5.97758,287.0691,31.160996)"/>
<path transform="matrix(1,0,0,-1,257.979,37.996999)" stroke-width=".59776" stroke-linecap="butt" stroke-miterlimit="10" stroke-linejoin="miter" fill="none" stroke="#008000" d="M0 0H8.50412 17.00826"/>
<path transform="matrix(1,0,0,-1,257.979,37.996999)" d="M8.50412 1.99255 9.99854 0 8.50412-1.99255 7.0097 0Z" fill="#008000" fill-opacity=".8"/>
<path transform="matrix(1,0,0,-1,257.979,37.996999)" stroke-width=".59776" stroke-linecap="butt" stroke-miterlimit="10" stroke-linejoin="miter" fill="none" stroke="#008000" d="M8.50412 1.99255 9.99854 0 8.50412-1.99255 7.0097 0Z"/>
<use data-text="&#x1d435;" xlink:href="#font_3_2477" transform="matrix(7.97011,0,0,-7.97011,277.278,39.852006)"/>
<use data-text="&#x2113;" xlink:href="#font_4_974" transform="matrix(5.97758,0,0,-5.97758,282.825,41.843996)"/>
<use data-text="&#x2113;" xlink:href="#font_4_974" transform="matrix(5.97758,0,0,-5.97758,286.28605,41.843996)"/>
<path transform="matrix(1,0,0,-1,257.979,48.681)" stroke-width=".59776" stroke-linecap="butt" stroke-miterlimit="10" stroke-linejoin="miter" fill="none" stroke="#000000" d="M0 0H8.50412 17.00826"/>
<path transform="matrix(1,0,0,-1,257.979,48.681)" d="M10.49667 0C10.49667 1.10046 9.60458 1.99255 8.50412 1.99255 7.40364 1.99255 6.51157 1.10046 6.51157 0 6.51157-1.10046 7.40364-1.99255 8.50412-1.99255 9.60458-1.99255 10.49667-1.10046 10.49667 0ZM8.50412 0" fill-opacity=".8"/>
<path transform="matrix(1,0,0,-1,257.979,48.681)" stroke-width=".59776" stroke-linecap="butt" stroke-miterlimit="10" stroke-linejoin="miter" fill="none" stroke="#000000" d="M10.49667 0C10.49667 1.10046 9.60458 1.99255 8.50412 1.99255 7.40364 1.99255 6.51157 1.10046 6.51157 0 6.51157-1.10046 7.40364-1.99255 8.50412-1.99255 9.60458-1.99255 10.49667-1.10046 10.49667 0ZM8.50412 0"/>
<use data-text="&#x1d435;" xlink:href="#font_3_2477" transform="matrix(7.97011,0,0,-7.97011,277.278,50.535997)"/>
<use data-text="&#x1d45b;" xlink:href="#font_4_2514" transform="matrix(5.97758,0,0,-5.97758,282.825,52.528)"/>
<use data-text="&#x2113;" xlink:href="#font_4_974" transform="matrix(5.97758,0,0,-5.97758,285.79588,52.528)"/>
<path transform="matrix(1,0,0,-1,257.979,59.364999)" stroke-width=".59776" stroke-linecap="butt" stroke-dasharray=".59776,1.99255" stroke-miterlimit="10" stroke-linejoin="miter" fill="none" stroke="#ff0000" d="M0 0H8.50412 17.00826"/>
<path transform="matrix(1,0,0,-1,257.979,59.364999)" stroke-width=".59776" stroke-linecap="butt" stroke-miterlimit="10" stroke-linejoin="miter" fill="none" stroke="#ff0000" d="M6.51157 0H10.49667M8.50412 1.99255V-1.99255"/>
<use data-text="&#x1d435;" xlink:href="#font_3_2477" transform="matrix(7.97011,0,0,-7.97011,277.278,61.22)"/>
<use data-text="3" xlink:href="#font_4_52" transform="matrix(5.97758,0,0,-5.97758,282.825,63.212007)"/>
<use data-text="3" xlink:href="#font_4_52" transform="matrix(5.97758,0,0,-5.97758,285.8138,63.212007)"/>
<path transform="matrix(1,0,0,-1,257.979,70.048)" stroke-width=".59776" stroke-linecap="butt" stroke-dasharray=".59776,1.99255" stroke-miterlimit="10" stroke-linejoin="miter" fill="none" stroke="#008000" d="M0 0H8.50412 17.00826"/>
<path transform="matrix(1,0,0,-1,257.979,70.048)" d="M8.50412 1.99255 9.99854 0 8.50412-1.99255 7.0097 0Z" fill="#008000" fill-opacity=".8"/>
<path transform="matrix(1,0,0,-1,257.979,70.048)" stroke-width=".59776" stroke-linecap="butt" stroke-miterlimit="10" stroke-linejoin="miter" fill="none" stroke="#008000" d="M8.50412 1.99255 9.99854 0 8.50412-1.99255 7.0097 0Z"/>
<use data-text="&#x1d435;" xlink:href="#font_3_2477" transform="matrix(7.97011,0,0,-7.97011,277.278,71.90399)"/>
<use data-text="1" xlink:href="#font_4_50" transform="matrix(5.97758,0,0,-5.97758,282.825,73.895999)"/>
<use data-text="1" xlink:href="#font_4_50" transform="matrix(5.97758,0,0,-5.97758,285.8138,73.895999)"/>
<path transform="matrix(1,0,0,-1,257.979,80.731998)" stroke-width=".59776" stroke-linecap="butt" stroke-dasharray=".59776,1.99255" stroke-miterlimit="10" stroke-linejoin="miter" fill="none" stroke="#000000" d="M0 0H8.50412 17.00826"/>
<path transform="matrix(1,0,0,-1,257.979,80.731998)" d="M10.49667 0C10.49667 1.10046 9.60458 1.99255 8.50412 1.99255 7.40364 1.99255 6.51157 1.10046 6.51157 0 6.51157-1.10046 7.40364-1.99255 8.50412-1.99255 9.60458-1.99255 10.49667-1.10046 10.49667 0ZM8.50412 0" fill-opacity=".8"/>
<path transform="matrix(1,0,0,-1,257.979,80.731998)" stroke-width=".59776" stroke-linecap="butt" stroke-miterlimit="10" stroke-linejoin="miter" fill="none" stroke="#000000" d="M10.49667 0C10.49667 1.10046 9.60458 1.99255 8.50412 1.99255 7.40364 1.99255 6.51157 1.10046 6.51157 0 6.51157-1.10046 7.40364-1.99255 8.50412-1.99255 9.60458-1.99255 10.49667-1.10046 10.49667 0ZM8.50412 0"/>
<use data-text="&#x1d435;" xlink:href="#font_3_2477" transform="matrix(7.97011,0,0,-7.97011,277.278,82.587009)"/>
<use data-text="3" xlink:href="#font_4_52" transform="matrix(5.97758,0,0,-5.97758,282.825,84.58)"/>
<use data-text="1" xlink:href="#font_4_50" transform="matrix(5.97758,0,0,-5.97758,285.8138,84.58)"/>
</svg>
