<svg xmlns="http://www.w3.org/2000/svg" xmlns:xlink="http://www.w3.org/1999/xlink" xmlns:inkscape="http://www.inkscape.org/namespaces/inkscape" version="1.1" width="193.202" height="89.442" viewBox="0 0 193.202 89.442">
<defs>
<path id="font_1_2502" d="M.36698915 .3411255C.36698915 .30714417 .3600006 .26715089 .35198976 .24116516 .32398988 .14619446 .2539978 .051223756 .18499756 .051223756 .1579895 .051223756 .1269989 .06422424 .1269989 .11720276 .1269989 .15219116 .13699341 .19618225 .15499878 .24116516 .18899536 .32513429 .24899292 .41210938 .31698609 .41210938 .35499574 .41210938 .36698915 .3821106 .36698915 .3411255M.47200013 .4281006H.3919983L.3829956 .39511109H.38198854C.37998963 .417099 .35899354 .44110108 .31599427 .44110108 .17199707 .44110108 .039993287 .24116516 .039993287 .10920715 .039993287 .04522705 .06599426-.009765625 .1289978-.009765625 .16799927-.009765625 .22999573 .0032196046 .3019867 .095214847H.30599977C.30099488 .07922363 .29499818 .05822754 .29499818 .04522705 .29499818 .01322937 .3039856-.009765625 .33699037-.009765625 .3849945-.009765625 .43899537 .050231935 .46998597 .097213748L.45799256 .10920715C.4189911 .05722046 .4039917 .055221559 .3939972 .055221559 .38598634 .055221559 .37998963 .06121826 .37998963 .07221985 .37998963 .081222537 .3809967 .083221439 .3809967 .083221439L.47200013 .4281006Z"/>
<path id="font_1_2503" d="M.1789856 .25234986C.18998719 .29736329 .22399903 .38639833 .29599 .38639833 .32899476 .38639833 .36698915 .36439515 .36698915 .2943573 .36698915 .19232178 .30099488 .018249512 .1789856 .018249512 .1559906 .018249512 .12399292 .030258179 .12399292 .037261964L.1789856 .25234986M.21398926 .3824005 .2869873 .66796877 .1289978 .6439667 .13198853 .628006C.13999939 .6309967 .1519928 .6319885 .1619873 .6319885 .1749878 .6319885 .18998719 .6240082 .19099427 .6110382 .19099427 .6080475 .18998719 .6040497 .18899536 .60006716L.04499817 .037261964C.08999634 .007247925 .1309967-.0107421879 .18399048-.0107421879 .34098817-.0107421879 .44999696 .16931153 .44999696 .2903595 .44999696 .37239076 .40899659 .44140626 .33898927 .44140626 .2899933 .44140626 .25099183 .4104004 .21798706 .3784027L.21398926 .3824005Z"/>
<path id="font_1_62" d="M.6369934 .12011719V.18611145H.04798889V.12011719H.6369934M.6369934 .31973268V.3857422H.04798889V.31973268H.6369934Z"/>
<path id="font_1_3168" d="M.17298889 .25097657C.18199158 .28897096 .20498657 .3579712 .20498657 .39996339 .20498657 .42396546 .19599915 .44096376 .1639862 .44096376 .14199829 .44096376 .10499573 .41897584 .07998657 .39396668 .055999757 .3699646 .038986207 .3429718 .033996583 .33596803L.04699707 .3259735C.06298828 .3469696 .084991458 .37597657 .10699463 .37597657 .117996219 .37597657 .11999512 .3719635 .11999512 .36296083 .11999512 .3489685 .11299133 .32896424 .10699463 .30397035L.02999878 0H.10798645L.13899231 .10498047C.16899109 .20698548 .29899598 .37597657 .33898927 .37597657 .35598756 .37597657 .36698915 .3639679 .36698915 .3469696 .36698915 .3299713 .3619995 .30897523 .35899354 .29896546 .27398683-.039001466 .2599945-.0960083 .2599945-.13700867 .2599945-.15501404 .2619934-.17201233 .2709961-.18301392H.34700013C.34298707-.17500305 .34199525-.16200257 .34199525-.14801026 .34199525-.117004398 .34999085-.06700134 .36499024-.0040130617L.43998719 .30897523C.44599916 .3349762 .45498658 .36497499 .45498658 .3869629 .45498658 .42097474 .43399049 .44096376 .394989 .44096376 .33599855 .44096376 .28599549 .39297486 .23199463 .3239746 .21899414 .30697633 .19599915 .27796937 .1749878 .25097657H.17298889Z"/>
<path id="font_1_2504" d="M.36299134 .11128235C.32798768 .07727051 .28199769 .04425049 .22099304 .04425049 .17599488 .04425049 .1269989 .06625366 .1269989 .1532898 .1269989 .23332215 .18399048 .4123993 .30299378 .4123993 .32699586 .4123993 .33699037 .4033966 .33699037 .39138795 .33699037 .36938478 .30799867 .3573761 .30799867 .33337403 .30799867 .31636048 .31999208 .29534913 .34599305 .29534913 .38398744 .29534913 .3999939 .32736207 .3999939 .36538697 .3999939 .4143982 .35299684 .44140626 .30299378 .44140626 .16099549 .44140626 .039993287 .28434754 .039993287 .14428711 .039993287 .06726074 .07998657-.0107421879 .1769867-.0107421879 .2619934-.0107421879 .32398988 .038253786 .375 .0982666L.36299134 .11128235Z"/>
<path id="font_1_3186" d="M.46499635 .4252472C.5419922 .4162445 .58099368 .38824464 .58099368 .2922516 .58099368 .20625305 .5039978 .019256592 .41600038 .019256592 .36299134 .019256592 .34599305 .069244388 .34599305 .11924744 .38198854 .17124939 .42399598 .25024415 .42399598 .31425477 .42399598 .33924867 .4099884 .36125184 .3909912 .36125184 .31900025 .36125184 .2939911 .24824524 .2939911 .17524719 .2939911 .16125489 .29499818 .13925171 .29699708 .12425232 .28399659 .07824707 .22799683 .019256592 .16999817 .019256592 .125 .019256592 .101989749 .06625366 .101989749 .11224365 .101989749 .28025819 .21299744 .4252472 .33699037 .4252472L.33399964 .44125367H.31799317C.14099121 .44125367 .019989014 .31225587 .019989014 .1502533 .019989014 .08125305 .055999757-.0107421879 .1579895-.0107421879 .22399903-.0107421879 .2709961 .028244019 .31199647 .07824707 .31599427 .027252198 .35699464-.0107421879 .41600038-.0107421879 .519989-.0107421879 .6609955 .11024475 .6609955 .28025819 .6609955 .3982544 .58599856 .44125367 .47099305 .44125367L.46499635 .4252472Z"/>
<path id="font_1_974" d="M.2679901 .3962555C.31999208 .4772644 .375 .5582733 .42399598 .60827639 .44898988 .63427737 .47799684 .65527346 .5059967 .65527346 .5289917 .65527346 .54100039 .6432648 .54100039 .6242676 .54100039 .5282593 .42599488 .43026734 .2689972 .39526368L.2679901 .3962555M.07699585 .38926698C.10398865 .37025453 .1349945 .3612671 .16499329 .36026 .15098572 .33825685 .13699341 .31625367 .125 .29426576 .07798767 .21224976 .04798889 .1312561 .04798889 .07624817 .04798889 .018249512 .08799744-.0107421879 .1349945-.0107421879 .19799805-.0107421879 .25698854 .04624939 .3619995 .16925049L.34098817 .18624878C.24398804 .07424927 .18899536 .019256592 .14199829 .019256592 .114990238 .019256592 .10598755 .038253786 .10598755 .06225586 .10598755 .1292572 .19699097 .27626039 .24899292 .36026 .4249878 .386261 .57099917 .5152588 .57099917 .6202698 .57099917 .66625979 .548996 .6872711 .5069885 .6872711 .4249878 .6872711 .2899933 .5452728 .18499756 .3902588 .15499878 .3902588 .12399292 .3922577 .09098816 .41526795L.07699585 .38926698Z"/>
<path id="font_1_2513" d="M.6669922 .10708618C.647995 .0700531 .621994 .054031373 .6049957 .054031373 .59599307 .054031373 .58999636 .058029176 .58999636 .06604004 .58999636 .06904602 .59098818 .07505798 .59199526 .078063968L.6529999 .30932618C.6589966 .3333435 .6599884 .35237123 .6599884 .37039186 .6599884 .41540528 .6419983 .44140626 .60598757 .44140626 .58599856 .44140626 .5669861 .43440248 .54499819 .41940309 .49598695 .38639833 .44400025 .32434083 .4149933 .27227784H.4099884L.41999818 .3083191C.42599488 .32833863 .42900086 .34335328 .42900086 .36038209 .42900086 .4044037 .41099549 .44140626 .37399293 .44140626 .33599855 .44140626 .27598573 .41540528 .18199158 .27227784H.17599488L.21998596 .44140626 .06298828 .41740418 .06498718 .4033966C.07299805 .4044037 .083999637 .4053955 .09199524 .4053955 .11898804 .4053955 .125 .39239503 .125 .37438966L.02999878 0H.10798645L.14299011 .13511658C.15899658 .19619751 .2689972 .37739564 .32099916 .37739564 .33898927 .37739564 .34399415 .359375 .34399415 .33935548 .34399415 .32434083 .34098817 .3083191 .33898927 .2993164L.2619934 0H.34098817L.375 .13511658C.3899994 .19619751 .5 .37739564 .55400088 .37739564 .57199099 .37739564 .5779877 .359375 .5779877 .33935548 .5779877 .32234193 .57598879 .31332398 .57199099 .2993164L.5159912 .078063968C.5109863 .058029176 .5099945 .04801941 .5099945 .041015626 .5099945 .0021820069 .5269928-.0078125 .548996-.0078125 .59599307-.0078125 .647995 .04219055 .6799927 .09623718L.6669922 .10708618Z"/>
<path id="font_1_2514" d="M.46699525 .096206668 .45399476 .10720825C.43998719 .09020996 .41600038 .05418396 .3919983 .05418396 .3809967 .05418396 .37799073 .062179567 .3769989 .06819153 .3769989 .07319641 .3769989 .07620239 .37799073 .078201297L.43699647 .3093567C.44198609 .32936097 .44799806 .35438539 .44799806 .37939454 .44799806 .4123993 .43598939 .44140626 .3919983 .44140626 .33198548 .44140626 .27198792 .37539674 .23199463 .32536317 .22999573 .32235719 .18099976 .25231935 .17599488 .25231935H.17298889L.22399903 .44140626 .06498718 .418396 .066986087 .4033966C.07398987 .4044037 .084991458 .4064026 .09498596 .4064026 .12199402 .4064026 .125 .39239503 .125 .37438966L.02999878 0H.10699463L.13999939 .12411499C.1459961 .1451416 .17199707 .19218445 .20799256 .24624634 .23899842 .29330445 .3019867 .37939454 .33999635 .37939454 .35798646 .37939454 .3639984 .36038209 .3639984 .34135438 .3639984 .3273468 .35899354 .307312 .35699464 .2993164L.2999878 .078063968C.29699708 .06704712 .29299928 .05102539 .29299928 .038009645 .29299928 .015182495 .3019867-.0078125 .33399964-.0078125 .38598634-.0078125 .43399049 .05618286 .46199037 .09020996L.46699525 .096206668Z"/>
</defs>
<path transform="matrix(1,0,0,-1,97.939,41.952)" stroke-width=".3985" stroke-linecap="butt" stroke-miterlimit="10" stroke-linejoin="miter" fill="none" stroke="#ff0000" d="M81.41661-34.15752 83.41507-32.79639 85.08282-31.3056 86.40672-29.68794 87.38223-27.9499 88.00714-26.10036 88.2756-24.14532 88.18927-22.09265 87.75136-19.95175 86.9558-17.73004 85.80984-15.4371 84.32312-13.08229 82.49165-10.6743 80.33118-8.22395 77.84697-5.74069 75.0461-3.23294 71.94731-.71349 68.55661 1.80988 64.88948 4.32495 60.96332 6.82318 56.78923 9.29352 52.3869 11.72751 47.77704 14.11353 42.9693 16.44218 37.9919 18.70505 32.86263 20.89256 27.59901 22.995 22.22475 25.00626 16.7599 26.91685 11.22826 28.71829 5.65163 30.40588 .05276 31.96794-5.54716 33.40323-11.1254 34.70511-16.65681 35.8646-22.12296 36.8813-27.50105 37.74992-32.7639 38.46391-37.89842 39.02608-42.88098 39.43027-47.68898 39.67484-52.30432 39.76045-56.71101 39.6853-60.88689 39.45003-64.82147 39.05826-68.49136 38.50633-71.88802 37.80058-74.995 36.94325-77.7961 35.93517-80.28964 34.78488-82.45558 33.49425-84.28943 32.06725-85.78734 30.5124-86.93706 28.8333-87.73726 27.03825-88.1883 25.13586-88.27649 23.13058-88.01375 21.0329-87.39879 18.85118-86.42636 16.59232-85.10951 14.26747-83.4494 11.8848-81.45114 9.45383-79.13087 6.9864-76.48608 4.4891-73.53386 1.97441-70.28996-.54811-66.75659-3.06848-62.95755-5.57689-58.90694-8.06274-54.6146-10.5156-50.10785-12.9265-45.39647-15.2848-40.50171-17.5818-35.44539-19.80899-30.24731-21.95422-24.92589-24.01212-19.50438-25.97504-14.003-27.83109-8.44502-29.57648-2.85426-31.20267 2.74811-32.70204 8.33794-34.0702 13.89752-35.30247 19.39809-36.39076 24.82259-37.33391 30.14697-38.12602 35.34848-38.76433 40.40941-39.24796 45.30594-39.57224 50.02103-39.73718 54.53452-39.74347 58.82861-39.58783 62.88664-39.2739 66.69096-38.80206 70.22456-38.17242 73.47865-37.3914 76.43375-36.45807 79.0823-35.37816 81.41496-34.15723"/>
<path transform="matrix(1,0,0,-1,97.939,41.952)" stroke-width=".3985" stroke-linecap="butt" stroke-miterlimit="10" stroke-linejoin="miter" fill="none" stroke="#ff0000" d="M34.1586 20.35414 34.14024 20.51819 34.08812 20.66214 34.00159 20.7853 33.88275 20.88866 33.72849 20.9703 33.54042 21.03072 33.31776 21.06937 33.06235 21.08769 32.7732 21.08421 32.45212 21.06032 32.0981 21.0151 31.71031 20.94748 31.29126 20.85931 30.84091 20.75052 30.35994 20.62094 29.84851 20.47069 29.30603 20.29941 28.73479 20.10788 28.13434 19.89589 27.50513 19.66365 26.84944 19.41225 26.16621 19.14139 25.45569 18.85031 24.72035 18.54108 23.9598 18.21259 23.17587 17.86655 22.3686 17.50237 21.53821 17.1202 20.68611 16.7206 19.81256 16.304 18.92023 15.87172 18.00851 15.42313 17.07928 14.9596 16.13109 14.47969 15.16788 13.98608 14.18901 13.47809 13.19621 12.95673 12.19025 12.42245 11.17178 11.87572 10.14186 11.3165 9.10191 10.74628 8.05219 10.16458 6.99515 9.57349 5.93146 8.97308 4.86087 8.36269 3.78549 7.7438 2.70657 7.11746 1.62514 6.48431 .54205 5.84456-.54143 5.19894-1.62453 4.54794-2.70615 3.89218-3.78549 3.23247-4.86024 2.56985-5.93083 1.90468-6.99515 1.23706-8.05177 .56868-9.1015-.10063-10.14124-.76962-11.17178-1.43819-12.18962-2.10481-13.19559-2.76938-14.18861-3.43134-15.16747-4.08987-16.13109-4.74442-17.07866-5.39415-18.00809-6.03815-18.91962-6.67595-19.81256-7.30748-20.68549-7.93156-21.5378-8.54758-22.3686-9.15529-23.17587-9.75316-23.95938-10.3411-24.72035-10.91925-25.45569-11.48634-26.16621-12.04202-26.84944-12.58508-27.50513-13.11542-28.13434-13.63304-28.73416-14.13623-29.30603-14.62587-29.8481-15.10086-30.35994-15.56033-30.8405-16.00371-31.29085-16.4313-31.71031-16.84306-32.09769-17.23737-32.45212-17.6143-32.7732-17.97304-33.06194-18.3139-33.31776-18.63657-33.54042-18.94087-33.72849-19.22539-33.88234-19.49066-34.00159-19.7359-34.08812-19.96216-34.14024-20.16821-34.15797-20.35378"/>
<path transform="matrix(1,0,0,-1,97.939,41.952)" stroke-width=".3985" stroke-linecap="butt" stroke-miterlimit="10" stroke-linejoin="miter" fill="none" stroke="#ff0000" d="M81.41661-34.15752 81.37312-33.96426 81.2489-33.73715 81.04266-33.47594 80.75943-33.18294 80.3917-32.85506 79.9432-32.49443 79.41273-32.10056 78.804-31.67465 78.11452-31.21657 77.34926-30.72809 76.5057-30.20845 75.58144-29.65721 74.58261-29.07663 73.50925-28.46677 72.3626-27.82867 71.14388-27.16289 69.85062-26.46834 68.48903-25.74823 67.05788-25.00201 65.5584-24.23024 63.99556-23.43524 62.36688-22.61572 60.6736-21.77301 58.92068-20.90868 57.10814-20.02351 55.23972-19.11856 53.31535-18.19437 51.33633-17.25145 49.30515-16.29114 47.22302-15.31366 45.09616-14.32193 42.92334-13.31567 40.7083-12.29622 38.44852-11.26303 36.15271-10.21951 33.81964-9.16544 31.453-8.1023 29.05534-7.03122 26.62785-5.95268 24.17302-4.86829 21.6946-3.77904 19.19257-2.68553 16.67314-1.58977 14.13757-.49257 11.58585 .6055 9.02295 1.70265 6.45134 2.79811 3.87354 3.89084 1.29199 4.97952-1.29074 6.0631-3.87228 7.14052-6.4501 8.21078-9.02295 9.27362-11.58461 10.32616-14.13632 11.36945-16.67314 12.40033-19.19131 13.41803-21.69337 14.42392-24.1718 15.41426-26.62785 16.3902-29.05411 17.34799-31.45178 18.28874-33.81839 19.2114-36.15147 20.11496-38.44852 20.99832-40.70706 21.86076-42.9221 22.69989-45.09492 23.51682-47.22302 24.3102-49.3039 25.07927-51.3351 25.82329-53.31535 26.54144-55.23972 27.23195-57.1069 27.89424-58.92068 28.53049-60.6736 29.13698-62.36688 29.71507-63.99556 30.2624-65.5584 30.77846-67.05788 31.26486-68.4878 31.719-69.85062 32.14188-71.14264 32.53195-72.3626 32.8893-73.50801 33.21281-74.58138 33.50388-75.58144 33.76163-76.50449 33.98541-77.34926 34.1741-78.11452 34.32774-78.80278 34.44768-79.41273 34.53336-79.9432 34.58427-80.3917 34.59998-80.75818 34.58012-81.04266 34.52533-81.2489 34.43713-81.37312 34.31425-81.41536 34.15698"/>
<path transform="matrix(1,0,0,-1,97.939,41.952)" stroke-width=".3985" stroke-linecap="butt" stroke-dasharray="2.98883,2.98883" stroke-miterlimit="10" stroke-linejoin="miter" fill="none" stroke="#7f807f" d="M0 0 81.43011-34.16454"/>
<use data-text="&#x1d44e;" xlink:href="#font_1_2502" transform="matrix(9.96264,0,0,-9.96264,182.888,84.029)"/>
<path transform="matrix(1,0,0,-1,97.939,41.952)" stroke-width=".3985" stroke-linecap="butt" stroke-dasharray="2.98883,2.98883" stroke-miterlimit="10" stroke-linejoin="miter" fill="none" stroke="#7f807f" d="M0 0 34.16454 20.35712"/>
<use data-text="&#x1d44f;" xlink:href="#font_1_2503" transform="matrix(9.96264,0,0,-9.96264,135.623,16.251999)"/>
<use data-text="=" xlink:href="#font_1_62" transform="matrix(9.96264,0,0,-9.96264,143.0651,16.251999)"/>
<use data-text="&#x1d702;" xlink:href="#font_1_3168" transform="matrix(9.96264,0,0,-9.96264,152.6591,16.251999)"/>
<use data-text="&#x1d44e;" xlink:href="#font_1_2502" transform="matrix(9.96264,0,0,-9.96264,158.90567,16.251999)"/>
<path transform="matrix(1,0,0,-1,97.939,41.952)" stroke-width=".3985" stroke-linecap="butt" stroke-dasharray="2.98883,2.98883" stroke-miterlimit="10" stroke-linejoin="miter" fill="none" stroke="#7f807f" d="M0 0V5.5236"/>
<use data-text="&#x1d450;" xlink:href="#font_1_2504" transform="matrix(9.96264,0,0,-9.96264,57.339006,38.57)"/>
<use data-text="=" xlink:href="#font_1_62" transform="matrix(9.96264,0,0,-9.96264,64.73128,38.57)"/>
<use data-text="&#x1d714;" xlink:href="#font_1_3186" transform="matrix(9.96264,0,0,-9.96264,74.3253,38.57)"/>
<use data-text="&#x1d44e;" xlink:href="#font_1_2502" transform="matrix(9.96264,0,0,-9.96264,82.77362,38.57)"/>
<path transform="matrix(1,0,0,-1,97.939,41.952)" stroke-width=".3985" stroke-linecap="butt" stroke-miterlimit="10" stroke-linejoin="miter" fill="none" stroke="#000000" d="M0 0 14.44873-6.06209"/>
<path transform="matrix(.92209,.38686,.38686,-.92209,112.387729,48.01409)" d="M1.99252 0-1.19551 1.59401 0 0-1.19551-1.59401"/>
<use data-text="&#x2113;" xlink:href="#font_1_974" transform="matrix(9.96264,0,0,-9.96264,117.745,59.149003)"/>
<path transform="matrix(1,0,0,-1,117.745,61.56)" stroke-width=".658" stroke-linecap="butt" stroke-miterlimit="10" stroke-linejoin="miter" fill="none" stroke="#000000" d="M0 0H5.768"/>
<path transform="matrix(1,0,0,-1,97.939,41.952)" stroke-width=".3985" stroke-linecap="butt" stroke-miterlimit="10" stroke-linejoin="miter" fill="none" stroke="#000000" d="M0 0 11.95416 7.123"/>
<path transform="matrix(.85904,-.51184,-.51184,-.85904,109.893169,34.82901)" d="M1.99252 0-1.19551 1.59401 0 0-1.19551-1.59401"/>
<use data-text="&#x1d45a;" xlink:href="#font_1_2513" transform="matrix(9.96264,0,0,-9.96264,115.125,41.722)"/>
<path transform="matrix(1,0,0,-1,115.125,44.104)" stroke-width=".658" stroke-linecap="butt" stroke-miterlimit="10" stroke-linejoin="miter" fill="none" stroke="#000000" d="M0 0H7.073"/>
<path transform="matrix(1,0,0,-1,97.939,41.952)" stroke-width=".3985" stroke-linecap="butt" stroke-miterlimit="10" stroke-linejoin="miter" fill="none" stroke="#000000" d="M0 0V16.41931"/>
<path transform="matrix(0,-1,-1,-0,97.939,25.53269)" d="M1.99252 0-1.19551 1.59401 0 0-1.19551-1.59401"/>
<use data-text="&#x1d45b;" xlink:href="#font_1_2514" transform="matrix(9.96264,0,0,-9.96264,95.463008,16.653)"/>
<path transform="matrix(1,0,0,-1,95.463008,19.034005)" stroke-width=".658" stroke-linecap="butt" stroke-miterlimit="10" stroke-linejoin="miter" fill="none" stroke="#000000" d="M0 0H4.951"/>
</svg>
