<svg xmlns="http://www.w3.org/2000/svg" xmlns:xlink="http://www.w3.org/1999/xlink" xmlns:inkscape="http://www.inkscape.org/namespaces/inkscape" version="1.1" width="245.238" height="203.759" viewBox="0 0 245.238 203.759">
<defs>
<path id="font_1_50" d="M.3939972 0V.01499939C.31900025 .01499939 .29899598 .032989503 .29899598 .07597351V.67277529L.2899933 .67578127 .11099243 .5847931V.5708008L.13798523 .5807953C.1559906 .5877991 .17298889 .59280398 .18299866 .59280398 .20399475 .59280398 .21299744 .57780459 .21299744 .543808V.0949707C.21299744 .039978029 .19198609 .018997193 .117996219 .01499939V0H.3939972Z"/>
<path id="font_1_49" d="M.37998963 .32505799C.37998963 .12722779 .33499146 .012313843 .25 .012313843 .1639862 .012313843 .11999512 .1262207 .11999512 .32904054 .11999512 .5318756 .16499329 .6497803 .24798584 .6497803 .33599855 .6497803 .37998963 .53286746 .37998963 .32505799M.47599793 .3300476C.47599793 .53486636 .3849945 .67578127 .2539978 .67578127 .09298706 .67578127 .023986817 .5128937 .023986817 .3360443 .023986817 .17218018 .07899475-.013671875 .25-.013671875 .41299439-.013671875 .47599793 .15818787 .47599793 .3300476Z"/>
<path id="font_2_1155" d="M.62098696 .22012329V.2861328H.06399536V.22012329H.62098696Z"/>
<path id="font_2_53" d="M.2919922 .23098755H.051986696L.2919922 .573822V.23098755M.47299195 .16699219V.23098755H.36999513V.67578127H.32598878L.011993408 .23098755V.16699219H.2919922V0H.36999513V.16699219H.47299195Z"/>
<path id="font_2_52" d="M.06098938 .50987246C.101989749 .58380129 .147995 .61576846 .20999146 .61576846 .27598573 .61576846 .31799317 .58180239 .31799317 .51387026 .31799317 .45292665 .28599549 .40795899 .23699951 .37998963 .21699524 .36799623 .19099427 .3570099 .15299988 .34402467V.33003236C.20999146 .33003236 .23298645 .32704164 .25498963 .3200531 .32398988 .3000641 .35899354 .2511139 .35899354 .17518616 .35899354 .09025574 .30299378 .022323609 .22898865 .022323609 .20098877 .022323609 .17999268 .027313233 .14299011 .05329895 .114990238 .073272708 .09899902 .07926941 .08198547 .07926941 .05899048 .07926941 .040985109 .06428528 .040985109 .043304445 .040985109 .0073242189 .07998657-.013671875 .15299988-.013671875 .24198914-.013671875 .33699037 .015319824 .3849945 .07926941 .4139862 .11723328 .43099977 .16618347 .43099977 .21913147 .43099977 .27108766 .4149933 .31704713 .3869934 .34802247 .3659973 .36999513 .34799195 .38198854 .3039856 .40097047 .37098695 .44093324 .39698792 .4908905 .39698792 .5388489 .39698792 .6207733 .33399964 .67578127 .24099732 .67578127 .13699341 .67578127 .07398987 .6087799 .04499817 .51387026L.06098938 .50987246Z"/>
<path id="font_2_51" d="M.47399903 .13696289 .45999146 .1429596C.4269867 .08699036 .4059906 .07598877 .3639984 .07598877H.12998963L.29499818 .2519226C.38398744 .34588624 .4229889 .42085267 .4229889 .4998169 .4229889 .59877017 .35099793 .67578127 .23799134 .67578127 .114990238 .67578127 .050994874 .5937805 .02999878 .4768219L.050994874 .47183229C.09098816 .5697937 .12599182 .6017761 .19799805 .6017761 .2829895 .6017761 .33699037 .55178835 .33699037 .4608307 .33699037 .37586976 .30099488 .29989625 .20698548 .200943L.0289917 .011993408V0H.41999818L.47399903 .13696289Z"/>
<path id="font_2_50" d="M.3939972 0V.01499939C.31900025 .01499939 .29899598 .032989503 .29899598 .07597351V.67277529L.2899933 .67578127 .11099243 .5847931V.5708008L.13798523 .5807953C.1559906 .5877991 .17298889 .59280398 .18299866 .59280398 .20399475 .59280398 .21299744 .57780459 .21299744 .543808V.0949707C.21299744 .039978029 .19198609 .018997193 .117996219 .01499939V0H.3939972Z"/>
<path id="font_2_49" d="M.37998963 .32505799C.37998963 .12722779 .33499146 .012313843 .25 .012313843 .1639862 .012313843 .11999512 .1262207 .11999512 .32904054 .11999512 .5318756 .16499329 .6497803 .24798584 .6497803 .33599855 .6497803 .37998963 .53286746 .37998963 .32505799M.47599793 .3300476C.47599793 .53486636 .3849945 .67578127 .2539978 .67578127 .09298706 .67578127 .023986817 .5128937 .023986817 .3360443 .023986817 .17218018 .07899475-.013671875 .25-.013671875 .41299439-.013671875 .47599793 .15818787 .47599793 .3300476Z"/>
<clipPath id="clip_3">
<path transform="matrix(1,0,0,-1,232.872,39.136995)" d="M-185.4424-131.01969H8.82977V30.377H-185.4424Z"/>
</clipPath>
<path id="font_1_3186" d="M.46499635 .4252472C.5419922 .4162445 .58099368 .38824464 .58099368 .2922516 .58099368 .20625305 .5039978 .019256592 .41600038 .019256592 .36299134 .019256592 .34599305 .069244388 .34599305 .11924744 .38198854 .17124939 .42399598 .25024415 .42399598 .31425477 .42399598 .33924867 .4099884 .36125184 .3909912 .36125184 .31900025 .36125184 .2939911 .24824524 .2939911 .17524719 .2939911 .16125489 .29499818 .13925171 .29699708 .12425232 .28399659 .07824707 .22799683 .019256592 .16999817 .019256592 .125 .019256592 .101989749 .06625366 .101989749 .11224365 .101989749 .28025819 .21299744 .4252472 .33699037 .4252472L.33399964 .44125367H.31799317C.14099121 .44125367 .019989014 .31225587 .019989014 .1502533 .019989014 .08125305 .055999757-.0107421879 .1579895-.0107421879 .22399903-.0107421879 .2709961 .028244019 .31199647 .07824707 .31599427 .027252198 .35699464-.0107421879 .41600038-.0107421879 .519989-.0107421879 .6609955 .11024475 .6609955 .28025819 .6609955 .3982544 .58599856 .44125367 .47099305 .44125367L.46499635 .4252472Z"/>
<path id="font_1_3188" d="M.42999269 .44140626H.4149933C.41099549 .43240357 .4039917 .42140199 .3919983 .42140199 .3639984 .42140199 .35798646 .44140626 .30899049 .44140626 .1539917 .44140626 .039993287 .2831421 .039993287 .1411438 .039993287 .05822754 .085998538-.0107421879 .17999268-.0107421879 .2630005-.0107421879 .32099916 .038253786 .37399293 .09819031L.3619995 .11216736C.32699586 .07821655 .27598573 .04425049 .21798706 .04425049 .16299439 .04425049 .12599182 .081207279 .12599182 .1451416 .12599182 .17010498 .12599182 .19108582 .1329956 .21105957H.31799317L.32299806 .24707031H.14199829C.1639862 .3171997 .22099304 .4143982 .30299378 .4143982 .37199403 .4143982 .3889923 .35528565 .3959961 .30918885H.41099549L.42999269 .44140626Z"/>
<path id="font_2_2509" d="M.22698975 .4412079 .068984989 .41921998 .07199097 .4032135C.07899475 .4052124 .09098816 .4072113 .099990848 .4072113 .12298584 .4072113 .1309967 .40222169 .1309967 .3852234 .1309967 .3822174 .12998963 .37521363 .1289978 .37321473 .049987794 .0662384 .049987794 .04724121 .049987794 .035247804 .049987794 .008255005 .06199646-.0107421879 .08999634-.0107421879 .13899231-.0107421879 .18899536 .049240114 .22399903 .09423828L.21099854 .10424805C.1749878 .06524658 .16899109 .053253175 .14698792 .053253175 .13999939 .053253175 .13398743 .056243898 .13398743 .06324768 .13398743 .06724548 .13398743 .071243289 .1349945 .07723999L.22698975 .4412079M.25698854 .5662079C.25698854 .5912018 .23498535 .61621096 .20899964 .61621096 .17999268 .61621096 .16099549 .5912018 .16099549 .5662079 .16099549 .5402069 .17999268 .52020266 .20899964 .52020266 .23498535 .52020266 .25698854 .5402069 .25698854 .5662079Z"/>
<path id="font_2_2510" d="M.35099793 .44114686 .19299317 .4131317 .19599915 .39611817C.20298767 .39912416 .21499634 .40112306 .22299195 .40112306 .24499512 .40112306 .25498963 .39111329 .25498963 .3791046L.16299439 .015853882C.13899231-.080200199 .10598755-.15625 .05999756-.15625 .054992677-.15625 .049987794-.1502533 .049987794-.1462555 .049987794-.13023377 .06599426-.12724304 .06599426-.11222839 .06599426-.08921814 .049987794-.07420349 .0309906-.07420349-.0040130617-.07420349-.01600647-.10421753-.01600647-.12623596-.01600647-.1542511 .0039978029-.18725586 .056991579-.18725586 .16499329-.18725586 .22099304-.07220459 .24299622 .015853882L.35099793 .44114686M.37199403 .5662079C.37199403 .5912018 .34999085 .61621096 .32398988 .61621096 .29499818 .61621096 .27598573 .5912018 .27598573 .5662079 .27598573 .5402069 .29499818 .52020266 .32398988 .52020266 .34999085 .52020266 .37199403 .5402069 .37199403 .5662079Z"/>
<path id="font_2_2511" d="M.5269928 .42797853H.33299256L.32899476 .41596986H.34098817C.35099793 .41596986 .36698915 .40898133 .36698915 .39697267 .36698915 .38397218 .35699464 .37097169 .34599305 .36097718L.1789856 .21199036 .2919922 .66796877 .13398743 .6429596 .13699341 .6289673C.14498902 .6309662 .15499878 .6309662 .1639862 .6309662 .18598938 .6309662 .19599915 .6199646 .19599915 .608963 .19599915 .6019745 .19499207 .5949707 .19299317 .588974L.04499817 0H.12098694L.1659851 .1659851 .22200012 .21498108 .2849884 .067993167C.29599 .042251588 .31698609-.0107421879 .36299134-.0107421879 .43099977-.0107421879 .47799684 .09623718 .48999024 .11721802L.47499085 .1282196C.45298768 .098236087 .43099977 .055252077 .40098573 .055252077 .375 .055252077 .36299134 .07923889 .34799195 .114227298L.28399659 .2661438 .3899994 .35810853C.42799378 .39108277 .45599366 .40907289 .522995 .41607667L.5269928 .42797853Z"/>
<path id="font_2_2512" d="M.27799989 .66796877 .12098694 .6449585 .12399292 .62997439C.13198853 .6309662 .14399719 .6329651 .15098572 .6329651 .17399597 .6329651 .18199158 .6229706 .18199158 .6109772 .18199158 .60798647 .18199158 .59999087 .1789856 .58699038L.050994874 .07720947C.04798889 .067214969 .04499817 .053222658 .04499817 .041229249 .04499817 .016220093 .053985597-.009765625 .083999637-.009765625 .14199829-.009765625 .18499756 .056228639 .21899414 .096206668L.20298767 .10820007C.19400025 .09220886 .1639862 .053222658 .14099121 .053222658 .1329956 .053222658 .1289978 .05921936 .1289978 .066223148 .1289978 .07321167 .12998963 .07720947 .12998963 .07720947L.27799989 .66796877Z"/>
<path id="font_1_549" d="M-.0940094 .63790896C-.11100769 .6009064-.12400818 .58691409-.14700318 .58691409-.16700745 .58691409-.18101502 .59291079-.22401428 .61491397-.2480011 .627121-.27200318 .6331177-.29400636 .6331177-.3440094 .63290408-.38000489 .59690859-.39500428 .5319061H-.36601258C-.355011 .56311038-.3380127 .578125-.31500245 .578125-.29701234 .578125-.28900147 .57411196-.25100709 .5561218-.21000672 .53590396-.19500733 .5319061-.17001343 .5319061-.11500549 .5319061-.086013797 .5619049-.06500244 .63790896H-.0940094Z"/>
<path id="font_4_51" d="M.47399903 .13696289 .45999146 .1429596C.4269867 .08699036 .4059906 .07598877 .3639984 .07598877H.12998963L.29499818 .2519226C.38398744 .34588624 .4229889 .42085267 .4229889 .4998169 .4229889 .59877017 .35099793 .67578127 .23799134 .67578127 .114990238 .67578127 .050994874 .5937805 .02999878 .4768219L.050994874 .47183229C.09098816 .5697937 .12599182 .6017761 .19799805 .6017761 .2829895 .6017761 .33699037 .55178835 .33699037 .4608307 .33699037 .37586976 .30099488 .29989625 .20698548 .200943L.0289917 .011993408V0H.41999818L.47399903 .13696289Z"/>
<path id="font_4_52" d="M.06098938 .50987246C.101989749 .58380129 .147995 .61576846 .20999146 .61576846 .27598573 .61576846 .31799317 .58180239 .31799317 .51387026 .31799317 .45292665 .28599549 .40795899 .23699951 .37998963 .21699524 .36799623 .19099427 .3570099 .15299988 .34402467V.33003236C.20999146 .33003236 .23298645 .32704164 .25498963 .3200531 .32398988 .3000641 .35899354 .2511139 .35899354 .17518616 .35899354 .09025574 .30299378 .022323609 .22898865 .022323609 .20098877 .022323609 .17999268 .027313233 .14299011 .05329895 .114990238 .073272708 .09899902 .07926941 .08198547 .07926941 .05899048 .07926941 .040985109 .06428528 .040985109 .043304445 .040985109 .0073242189 .07998657-.013671875 .15299988-.013671875 .24198914-.013671875 .33699037 .015319824 .3849945 .07926941 .4139862 .11723328 .43099977 .16618347 .43099977 .21913147 .43099977 .27108766 .4149933 .31704713 .3869934 .34802247 .3659973 .36999513 .34799195 .38198854 .3039856 .40097047 .37098695 .44093324 .39698792 .4908905 .39698792 .5388489 .39698792 .6207733 .33399964 .67578127 .24099732 .67578127 .13699341 .67578127 .07398987 .6087799 .04499817 .51387026L.06098938 .50987246Z"/>
<path id="font_1_41" d="M.3039856-.16122437C.1639862-.04423523 .13398743 .06877136 .13398743 .254776 .13398743 .44776917 .16499329 .5407715 .3039856 .6597748L.29499818 .67578127C.1349945 .58078 .04798889 .43676759 .04798889 .25177003 .04798889 .08177185 .13398743-.0872345 .2919922-.17723084L.3039856-.16122437Z"/>
<path id="font_1_42" d="M.0289917 .6597748C.17399597 .54577639 .19898987 .43077088 .19898987 .24377442 .19898987 .04977417 .17098999-.04423523 .0289917-.16122437L.037994386-.17723084C.19699097-.08023071 .2849884 .061767579 .2849884 .24676514 .2849884 .41677857 .19400025 .58377078 .040985109 .67578127L.0289917 .6597748Z"/>
</defs>
<path transform="matrix(1,0,0,-1,232.872,39.136995)" stroke-width=".3985" stroke-linecap="butt" stroke-miterlimit="10" stroke-linejoin="miter" fill="none" stroke="#cccccc" d="M-183.45157-131.01969V30.377M-180.89142-131.01969V30.377M-178.63243-131.01969V30.377M-176.61196-131.01969V30.377M-163.32077-131.01969V30.377M-155.54602-131.01969V30.377M-150.0296-131.01969V30.377M-145.7508-131.01969V30.377M-142.2542-131.01969V30.377M-139.29859-131.01969V30.377M-136.73844-131.01969V30.377M-134.47945-131.01969V30.377M-132.45897-131.01969V30.377M-119.16779-131.01969V30.377M-111.39304-131.01969V30.377M-105.87662-131.01969V30.377M-101.59781-131.01969V30.377M-98.1012-131.01969V30.377M-95.14558-131.01969V30.377M-92.58543-131.01969V30.377M-90.32645-131.01969V30.377M-88.30597-131.01969V30.377M-75.01479-131.01969V30.377M-67.24005-131.01969V30.377M-61.72363-131.01969V30.377M-57.44482-131.01969V30.377M-53.94821-131.01969V30.377M-50.9926-131.01969V30.377M-48.43245-131.01969V30.377M-46.17346-131.01969V30.377M-44.15298-131.01969V30.377M-30.8618-131.01969V30.377M-23.08705-131.01969V30.377M-17.57063-131.01969V30.377M-13.29182-131.01969V30.377M-9.79523-131.01969V30.377M-6.8396-131.01969V30.377M-4.27945-131.01969V30.377M-2.02048-131.01969V30.377"/>
<path transform="matrix(1,0,0,-1,232.872,39.136995)" stroke-width=".3985" stroke-linecap="butt" stroke-miterlimit="10" stroke-linejoin="miter" fill="none" stroke="#cccccc" d="M-176.61196-131.01969V30.377M-132.45897-131.01969V30.377M-88.30597-131.01969V30.377M-44.15298-131.01969V30.377M0-131.01969V30.377"/>
<path transform="matrix(1,0,0,-1,232.872,39.136995)" stroke-width=".3985" stroke-linecap="butt" stroke-miterlimit="10" stroke-linejoin="miter" fill="none" stroke="#cccccc" d="M-185.4424-128.58165H8.82977M-185.4424-125.74837H8.82977M-185.4424-123.43301H8.82977M-185.4424-121.4759H8.82977M-185.4424-119.78065H8.82977M-185.4424-118.28482H8.82977M-185.4424-116.94693H8.82977M-185.4424-108.14592H8.82977M-185.4424-102.99773H8.82977M-185.4424-99.34492H8.82977M-185.4424-96.51164H8.82977M-185.4424-94.19629H8.82977M-185.4424-92.23917H8.82977M-185.4424-90.54391H8.82977M-185.4424-89.0481H8.82977M-185.4424-87.71019H8.82977M-185.4424-78.9092H8.82977M-185.4424-73.761H8.82977M-185.4424-70.10818H8.82977M-185.4424-67.2749H8.82977M-185.4424-64.95955H8.82977M-185.4424-63.00243H8.82977M-185.4424-61.30719H8.82977M-185.4424-59.81136H8.82977M-185.4424-58.47346H8.82977M-185.4424-49.67245H8.82977M-185.4424-44.52426H8.82977M-185.4424-40.87146H8.82977M-185.4424-38.03816H8.82977M-185.4424-35.72282H8.82977M-185.4424-33.7657H8.82977M-185.4424-32.07045H8.82977M-185.4424-30.57462H8.82977M-185.4424-29.23672H8.82977M-185.4424-20.43573H8.82977M-185.4424-15.28752H8.82977M-185.4424-11.63472H8.82977M-185.4424-8.80144H8.82977M-185.4424-6.48608H8.82977M-185.4424-4.52896H8.82977M-185.4424-2.83371H8.82977M-185.4424-1.33789H8.82977M-185.4424 0H8.82977M-185.4424 8.80098H8.82977M-185.4424 13.94917H8.82977M-185.4424 17.60199H8.82977M-185.4424 20.43527H8.82977M-185.4424 22.75063H8.82977M-185.4424 24.70773H8.82977M-185.4424 26.40298H8.82977M-185.4424 27.89882H8.82977"/>
<path transform="matrix(1,0,0,-1,232.872,39.136995)" stroke-width=".3985" stroke-linecap="butt" stroke-miterlimit="10" stroke-linejoin="miter" fill="none" stroke="#cccccc" d="M-185.4424-116.94693H8.82977M-185.4424-87.71019H8.82977M-185.4424-58.47346H8.82977M-185.4424-29.23672H8.82977M-185.4424 0H8.82977M-185.4424 29.23672H8.82977"/>
<path transform="matrix(1,0,0,-1,232.872,39.136995)" stroke-width=".19925" stroke-linecap="butt" stroke-miterlimit="10" stroke-linejoin="miter" fill="none" stroke="#000000" d="M-183.45157-133.84763V-131.01969M-180.89142-133.84763V-131.01969M-178.63243-133.84763V-131.01969M-176.61196-133.84763V-131.01969M-163.32077-133.84763V-131.01969M-155.54602-133.84763V-131.01969M-150.0296-133.84763V-131.01969M-145.7508-133.84763V-131.01969M-142.2542-133.84763V-131.01969M-139.29859-133.84763V-131.01969M-136.73844-133.84763V-131.01969M-134.47945-133.84763V-131.01969M-132.45897-133.84763V-131.01969M-119.16779-133.84763V-131.01969M-111.39304-133.84763V-131.01969M-105.87662-133.84763V-131.01969M-101.59781-133.84763V-131.01969M-98.1012-133.84763V-131.01969M-95.14558-133.84763V-131.01969M-92.58543-133.84763V-131.01969M-90.32645-133.84763V-131.01969M-88.30597-133.84763V-131.01969M-75.01479-133.84763V-131.01969M-67.24005-133.84763V-131.01969M-61.72363-133.84763V-131.01969M-57.44482-133.84763V-131.01969M-53.94821-133.84763V-131.01969M-50.9926-133.84763V-131.01969M-48.43245-133.84763V-131.01969M-46.17346-133.84763V-131.01969M-44.15298-133.84763V-131.01969M-30.8618-133.84763V-131.01969M-23.08705-133.84763V-131.01969M-17.57063-133.84763V-131.01969M-13.29182-133.84763V-131.01969M-9.79523-133.84763V-131.01969M-6.8396-133.84763V-131.01969M-4.27945-133.84763V-131.01969M-2.02048-133.84763V-131.01969"/>
<path transform="matrix(1,0,0,-1,232.872,39.136995)" stroke-width=".19925" stroke-linecap="butt" stroke-miterlimit="10" stroke-linejoin="miter" fill="none" stroke="#000000" d="M-176.61196-135.26137V-131.01969M-132.45897-135.26137V-131.01969M-88.30597-135.26137V-131.01969M-44.15298-135.26137V-131.01969M0-135.26137V-131.01969"/>
<path transform="matrix(1,0,0,-1,232.872,39.136995)" stroke-width=".19925" stroke-linecap="butt" stroke-miterlimit="10" stroke-linejoin="miter" fill="none" stroke="#000000" d="M-188.26799-128.58165H-185.4424M-188.26799-125.74837H-185.4424M-188.26799-123.43301H-185.4424M-188.26799-121.4759H-185.4424M-188.26799-119.78065H-185.4424M-188.26799-118.28482H-185.4424M-188.26799-116.94693H-185.4424M-188.26799-108.14592H-185.4424M-188.26799-102.99773H-185.4424M-188.26799-99.34492H-185.4424M-188.26799-96.51164H-185.4424M-188.26799-94.19629H-185.4424M-188.26799-92.23917H-185.4424M-188.26799-90.54391H-185.4424M-188.26799-89.0481H-185.4424M-188.26799-87.71019H-185.4424M-188.26799-78.9092H-185.4424M-188.26799-73.761H-185.4424M-188.26799-70.10818H-185.4424M-188.26799-67.2749H-185.4424M-188.26799-64.95955H-185.4424M-188.26799-63.00243H-185.4424M-188.26799-61.30719H-185.4424M-188.26799-59.81136H-185.4424M-188.26799-58.47346H-185.4424M-188.26799-49.67245H-185.4424M-188.26799-44.52426H-185.4424M-188.26799-40.87146H-185.4424M-188.26799-38.03816H-185.4424M-188.26799-35.72282H-185.4424M-188.26799-33.7657H-185.4424M-188.26799-32.07045H-185.4424M-188.26799-30.57462H-185.4424M-188.26799-29.23672H-185.4424M-188.26799-20.43573H-185.4424M-188.26799-15.28752H-185.4424M-188.26799-11.63472H-185.4424M-188.26799-8.80144H-185.4424M-188.26799-6.48608H-185.4424M-188.26799-4.52896H-185.4424M-188.26799-2.83371H-185.4424M-188.26799-1.33789H-185.4424M-188.26799 0H-185.4424M-188.26799 8.80098H-185.4424M-188.26799 13.94917H-185.4424M-188.26799 17.60199H-185.4424M-188.26799 20.43527H-185.4424M-188.26799 22.75063H-185.4424M-188.26799 24.70773H-185.4424M-188.26799 26.40298H-185.4424M-188.26799 27.89882H-185.4424"/>
<path transform="matrix(1,0,0,-1,232.872,39.136995)" stroke-width=".19925" stroke-linecap="butt" stroke-miterlimit="10" stroke-linejoin="miter" fill="none" stroke="#000000" d="M-189.68013-116.94693H-185.4424M-189.68013-87.71019H-185.4424M-189.68013-58.47346H-185.4424M-189.68013-29.23672H-185.4424M-189.68013 0H-185.4424M-189.68013 29.23672H-185.4424"/>
<path transform="matrix(1,0,0,-1,232.872,39.136995)" stroke-width=".3985" stroke-linecap="butt" stroke-miterlimit="10" stroke-linejoin="miter" fill="none" stroke="#000000" d="M-185.4424-131.01969V30.377H8.82977V-131.01969H-185.4424Z"/>
<use data-text="1" xlink:href="#font_1_50" transform="matrix(9.96264,0,0,-9.96264,46.648988,186.95299)"/>
<use data-text="0" xlink:href="#font_1_49" transform="matrix(9.96264,0,0,-9.96264,51.630308,186.95299)"/>
<use data-text="&#x2212;" xlink:href="#font_2_1155" transform="matrix(7.47198,0,0,-7.47198,56.611989,182.96799)"/>
<use data-text="4" xlink:href="#font_2_53" transform="matrix(7.47198,0,0,-7.47198,61.730295,182.96799)"/>
<use data-text="1" xlink:href="#font_1_50" transform="matrix(9.96264,0,0,-9.96264,90.80199,186.95299)"/>
<use data-text="0" xlink:href="#font_1_49" transform="matrix(9.96264,0,0,-9.96264,95.78331,186.95299)"/>
<use data-text="&#x2212;" xlink:href="#font_2_1155" transform="matrix(7.47198,0,0,-7.47198,100.763988,182.96799)"/>
<use data-text="3" xlink:href="#font_2_52" transform="matrix(7.47198,0,0,-7.47198,105.88229,182.96799)"/>
<use data-text="1" xlink:href="#font_1_50" transform="matrix(9.96264,0,0,-9.96264,134.954,186.95299)"/>
<use data-text="0" xlink:href="#font_1_49" transform="matrix(9.96264,0,0,-9.96264,139.93532,186.95299)"/>
<use data-text="&#x2212;" xlink:href="#font_2_1155" transform="matrix(7.47198,0,0,-7.47198,144.917,182.96799)"/>
<use data-text="2" xlink:href="#font_2_51" transform="matrix(7.47198,0,0,-7.47198,150.03531,182.96799)"/>
<use data-text="1" xlink:href="#font_1_50" transform="matrix(9.96264,0,0,-9.96264,179.107,186.95299)"/>
<use data-text="0" xlink:href="#font_1_49" transform="matrix(9.96264,0,0,-9.96264,184.08832,186.95299)"/>
<use data-text="&#x2212;" xlink:href="#font_2_1155" transform="matrix(7.47198,0,0,-7.47198,189.069,182.96799)"/>
<use data-text="1" xlink:href="#font_2_50" transform="matrix(7.47198,0,0,-7.47198,194.1873,182.96799)"/>
<use data-text="1" xlink:href="#font_1_50" transform="matrix(9.96264,0,0,-9.96264,225.818,186.95299)"/>
<use data-text="0" xlink:href="#font_1_49" transform="matrix(9.96264,0,0,-9.96264,230.79932,186.95299)"/>
<use data-text="0" xlink:href="#font_2_49" transform="matrix(7.47198,0,0,-7.47198,235.781,182.96799)"/>
<use data-text="1" xlink:href="#font_1_50" transform="matrix(9.96264,0,0,-9.96264,20.44899,160.53099)"/>
<use data-text="0" xlink:href="#font_1_49" transform="matrix(9.96264,0,0,-9.96264,25.43031,160.53099)"/>
<use data-text="&#x2212;" xlink:href="#font_2_1155" transform="matrix(7.47198,0,0,-7.47198,30.411992,156.54599)"/>
<use data-text="4" xlink:href="#font_2_53" transform="matrix(7.47198,0,0,-7.47198,35.530298,156.54599)"/>
<use data-text="1" xlink:href="#font_1_50" transform="matrix(9.96264,0,0,-9.96264,20.44899,131.29499)"/>
<use data-text="0" xlink:href="#font_1_49" transform="matrix(9.96264,0,0,-9.96264,25.43031,131.29499)"/>
<use data-text="&#x2212;" xlink:href="#font_2_1155" transform="matrix(7.47198,0,0,-7.47198,30.411992,127.309978)"/>
<use data-text="3" xlink:href="#font_2_52" transform="matrix(7.47198,0,0,-7.47198,35.530298,127.309978)"/>
<use data-text="1" xlink:href="#font_1_50" transform="matrix(9.96264,0,0,-9.96264,20.44899,102.05801)"/>
<use data-text="0" xlink:href="#font_1_49" transform="matrix(9.96264,0,0,-9.96264,25.43031,102.05801)"/>
<use data-text="&#x2212;" xlink:href="#font_2_1155" transform="matrix(7.47198,0,0,-7.47198,30.411992,98.073009)"/>
<use data-text="2" xlink:href="#font_2_51" transform="matrix(7.47198,0,0,-7.47198,35.530298,98.073009)"/>
<use data-text="1" xlink:href="#font_1_50" transform="matrix(9.96264,0,0,-9.96264,20.44899,72.82199)"/>
<use data-text="0" xlink:href="#font_1_49" transform="matrix(9.96264,0,0,-9.96264,25.43031,72.82199)"/>
<use data-text="&#x2212;" xlink:href="#font_2_1155" transform="matrix(7.47198,0,0,-7.47198,30.411992,68.83699)"/>
<use data-text="1" xlink:href="#font_2_50" transform="matrix(7.47198,0,0,-7.47198,35.530298,68.83699)"/>
<use data-text="1" xlink:href="#font_1_50" transform="matrix(9.96264,0,0,-9.96264,25.567002,43.586)"/>
<use data-text="0" xlink:href="#font_1_49" transform="matrix(9.96264,0,0,-9.96264,30.54832,43.586)"/>
<use data-text="0" xlink:href="#font_2_49" transform="matrix(7.47198,0,0,-7.47198,35.53,39.600999)"/>
<use data-text="1" xlink:href="#font_1_50" transform="matrix(9.96264,0,0,-9.96264,25.567002,14.348999)"/>
<use data-text="0" xlink:href="#font_1_49" transform="matrix(9.96264,0,0,-9.96264,30.54832,14.348999)"/>
<use data-text="1" xlink:href="#font_2_50" transform="matrix(7.47198,0,0,-7.47198,35.53,10.363998)"/>
<g clip-path="url(#clip_3)">
<path transform="matrix(1,0,0,-1,232.872,39.136995)" stroke-width=".59776" stroke-linecap="butt" stroke-dasharray="2.98883,2.98883" stroke-miterlimit="10" stroke-linejoin="miter" fill="none" stroke="#0000ff" d="M0 23.09369-1.78401 21.63489-3.56802 20.17653-5.35336 18.7204-7.13737 17.26651-8.92073 15.82019-10.70407 14.37834-12.48741 12.94496-14.2721 11.51917-16.05544 10.10185-17.84148 8.69214-19.6248 7.29623-21.40814 5.90926-23.19215 4.53165-24.97551 3.16473-26.75885 1.80855-28.54353 .4626-30.32755-.87259-32.11359-2.1989-33.89624-3.51628-35.68025-4.82385-37.4636-6.12206-39.24693-7.41267-41.03096-8.69481-42.81497-9.96982-44.59898-11.23767-46.38367-12.50153-48.167-13.75513-49.95303-15.00424-51.73572-16.24846-53.51973-17.48734-55.30305-18.72128-57.08707-19.95123-58.87108-21.17851-60.65443-22.39996-62.44182-23.61922-64.2238-24.83488-66.00716-26.04742-67.79048-27.2573-69.5745-28.46538-71.3585-29.67079-73.14252-30.87442-74.92653-32.07759-76.71123-33.27676-78.49457-34.47325-80.2779-35.67061-82.06259-36.86577-83.8466-38.06003-85.63063-39.25294-87.41396-40.44496-89.19798-41.63788-90.98267-42.82767-92.76735-44.01613-94.55136-45.20459-96.33334-46.3926-98.11871-47.57973-99.90205-48.76683-101.68607-49.95573-103.47008-51.13884-105.25343-52.3255-107.03946-53.51085-108.8228-54.69484-110.60547-55.87929-112.39015-57.06372-114.1735-58.24771-115.9575-59.43126-117.74219-60.6148-119.5289-61.79881-121.31157-62.98235-123.09491-64.16412-124.87823-65.34767-126.66225-66.52989-128.44493-67.7121-130.22895-68.89474-132.01296-70.07697-133.79764-71.26051-135.58165-72.44228-137.36769-73.62404-139.15036-74.80536-140.9337-75.9871-142.71703-77.16933-144.50104-78.35153-146.28507-79.53554-148.06908-80.71596-149.85242-81.89728-151.6398-83.0786-153.42113-84.25992-155.20581-85.44124-156.98847-86.623-158.77248-87.80476-160.55649-88.98608-162.3405-90.16739-164.12723-91.35051-165.90988-92.53093-167.69257-93.71269-169.47658-94.89357-171.26059-96.07489-173.04392-97.2562-174.82862-98.43752-176.61196-99.62062"/>
<path transform="matrix(1,0,0,-1,232.872,39.136995)" stroke-width=".59776" stroke-linecap="butt" stroke-miterlimit="10" stroke-linejoin="miter" fill="none" stroke="#0000ff" d="M0 22.26123-1.78401 20.96303-3.56802 19.66707-5.35336 18.37378-7.13737 17.08226-8.92073 15.797-10.70407 14.5144-12.48741 13.23672-14.2721 11.9635-16.05544 10.69475-17.84148 9.43045-19.6248 8.17018-21.40814 6.91525-23.19215 5.66612-24.97551 4.42056-26.75885 3.17992-28.54353 1.94283-30.32755 .7102-32.11359-.51881-33.89624-1.7443-35.68025-2.96756-37.4636-4.1868-39.24693-5.40291-41.03096-6.61545-42.81497-7.82578-44.59898-9.03342-46.38367-10.24016-48.167-11.44379-49.95303-12.64696-51.73572-13.84702-53.51973-15.04529-55.30305-16.2431-57.08707-17.4387-58.87108-18.63297-60.65443-19.82677-62.44182-21.02103-64.2238-22.21127-66.00716-23.40106-67.79048-24.59131-69.5745-25.78021-71.3585-26.96822-73.14252-28.15668-74.92653-29.34334-76.71123-30.53046-78.49457-31.71625-80.2779-32.90335-82.06259-34.0878-83.8466-35.27269-85.63063-36.45758-87.41396-37.64157-89.19798-38.82556-90.98267-40.01001-92.76735-41.19579-94.55136-42.37799-96.33334-43.5602-98.11871-44.7433-99.90205-45.92552-101.68607-47.10861-103.47008-48.29128-105.25343-49.47348-107.03946-50.65793-108.8228-51.8388-110.60547-53.02101-112.39015-54.20322-114.1735-55.38454-115.9575-56.56676-117.74219-57.7485-119.5289-58.93073-121.31157-60.11249-123.09491-61.29425-124.87823-62.47601-126.66225-63.65868-128.44493-64.8391-130.22895-66.02086-132.01296-67.20218-133.79764-68.38438-135.58165-69.5657-137.36769-70.74835-139.15036-71.92879-140.9337-73.1101-142.71703-74.29231-144.50104-75.47319-146.28507-76.65451-148.06908-77.83583-149.85242-79.01804-151.6398-80.19981-153.42113-81.38068-155.20581-82.56154-156.98847-83.74287-158.77248-84.9242-160.55649-86.1055-162.3405-87.28682-164.12723-88.46814-165.90988-89.64946-167.69257-90.833-169.47658-92.01254-171.26059-93.19385-173.04392-94.37607-174.82862-95.55605-176.61196-96.73737"/>
<path transform="matrix(1,0,0,-1,232.872,39.136995)" stroke-width=".59776" stroke-linecap="butt" stroke-dasharray=".59776,1.99255" stroke-miterlimit="10" stroke-linejoin="miter" fill="none" stroke="#0000ff" d="M0 10.4293-1.78401 9.01913-3.56802 7.61877-5.35336 6.22778-7.13737 4.84883-8.92073 3.48015-10.70407 2.12172-12.48741 .7731-14.2721-.56432-16.05544-1.89287-17.84148-3.2138-19.6248-4.52272-21.40814-5.8227-23.19215-7.11511-24.97551-8.39903-26.75885-9.67537-28.54353-10.94547-30.32755-12.20844-32.11359-13.46559-33.89624-14.71605-35.68025-15.96161-37.4636-17.20093-39.24693-18.43622-41.03096-19.66751-42.81497-20.89478-44.59898-22.11847-46.38367-23.3377-48.167-24.55428-49.95303-25.76727-51.73572-26.97803-53.51973-28.18611-55.30305-29.39197-57.08707-30.59604-58.87108-31.79788-60.65443-32.99971-62.44182-34.19798-64.2238-35.39359-66.00716-36.58961-67.79048-37.78387-69.5745-38.9768-71.3585-40.16927-73.14252-41.36218-74.92653-42.55197-76.71123-43.74088-78.49457-44.92934-80.2779-46.1178-82.06259-47.30492-83.8466-48.49202-85.63063-49.68004-87.41396-50.86581-89.19798-52.05116-90.98267-53.23648-92.76735-54.42091-94.55136-55.60446-96.33334-56.78935-98.11871-57.97336-99.90205-59.15735-101.68607-60.3409-103.47008-61.52579-105.25343-62.70844-107.03946-63.8911-108.8228-65.07375-110.60547-66.25597-112.39015-67.43863-114.1735-68.62082-115.9575-69.8035-117.74219-70.98705-119.5289-72.16791-121.31157-73.35011-123.09491-74.53233-124.87823-75.71364-126.66225-76.89586-128.44493-78.07806-130.22895-79.26117-132.01296-80.44205-133.79764-81.62381-135.58165-82.80557-137.36769-83.98643-139.15036-85.16777-140.9337-86.34952-142.71703-87.53084-144.50104-88.71262-146.28507-89.89436-148.06908-91.07748-149.85242-92.2579-151.6398-93.43877-153.42113-94.6201-155.20581-95.80096-156.98847-96.98273-158.77248-98.16405-160.55649-99.3476-162.3405-100.52847-164.12723-101.7089-165.90988-102.89066-167.69257-104.07153-169.47658-105.25195-171.26059-106.43373-173.04392-107.61594-174.82862-108.79726-176.61196-109.97723"/>
<path transform="matrix(1,0,0,-1,232.872,39.136995)" stroke-width=".59776" stroke-linecap="butt" stroke-dasharray="2.98883,2.98883" stroke-miterlimit="10" stroke-linejoin="miter" fill="none" stroke="#ff0000" d="M0 .76552-1.78401-.46216-3.56802-1.68497-5.35336-2.9042-7.13737-4.11407-8.92073-5.32037-10.70407-6.52087-12.48741-7.71648-14.2721-8.90671-16.05544-10.09473-17.84148-11.27782-19.6248-12.4587-21.40814-13.63556-23.19215-14.8093-24.97551-15.98167-26.75885-17.1523-28.54353-18.32156-30.32755-19.49084-32.11359-20.65878-33.89624-21.82626-35.68025-22.9942-37.4636-24.16034-39.24693-25.32784-41.03096-26.49532-42.81497-27.66371-44.59898-28.83209-46.38367-30.00137-48.167-31.17108-49.95303-32.34348-51.73572-33.5141-53.51973-34.68471-55.30305-35.85666-57.08707-37.02905-58.87108-38.20189-60.65443-39.37607-62.44182-40.55025-64.2238-41.72621-66.00716-42.90128-67.79048-44.07681-69.5745-45.25278-71.3585-46.42874-73.14252-47.60559-74.92653-48.78334-76.71123-49.96288-78.49457-51.13928-80.2779-52.31703-82.06259-53.49612-83.8466-54.67432-85.63063-55.85295-87.41396-57.03206-89.19798-58.21158-90.98267-59.39111-92.76735-60.57065-94.55136-61.75243-96.33334-62.93195-98.11871-64.11104-99.90205-65.29057-101.68607-66.471-103.47008-67.65097-105.25343-68.8314-107.03946-70.01183-108.8228-71.19359-110.60547-72.37312-112.39015-73.55444-114.1735-74.73486-115.9575-75.9153-117.74219-77.09618-119.5289-78.27704-121.31157-79.4597-123.09491-80.63968-124.87823-81.82056-126.66225-83.00098-128.44493-84.18184-130.22895-85.36272-132.01296-86.54404-133.79764-87.72491-135.58165-88.90622-137.36769-90.0871-139.15036-91.26974-140.9337-92.45062-142.71703-93.6315-144.50104-94.81192-146.28507-95.9928-148.06908-97.17368-149.85242-98.35544-151.6398-99.53809-153.42113-100.71806-155.20581-101.89894-156.98847-103.08116-158.77248-104.26158-160.55649-105.44244-162.3405-106.62422-164.12723-107.80508-165.90988-108.9864-167.69257-110.16817-169.47658-111.34904-171.26059-112.53035-173.04392-113.71167-174.82862-114.89255-176.61196-116.07343"/>
<path transform="matrix(1,0,0,-1,232.872,39.136995)" stroke-width=".59776" stroke-linecap="butt" stroke-miterlimit="10" stroke-linejoin="miter" fill="none" stroke="#ff0000" d="M0 5.79237-1.78401 4.60571-3.56802 3.42259-5.35336 2.24129-7.13737 1.06174-8.92073-.11508-10.70407-1.29059-12.48741-2.46523-14.2721-3.64075-16.05544-4.81136-17.84148-5.9842-19.6248-7.15482-21.40814-8.32631-23.19215-9.49782-24.97551-10.66977-26.75885-11.8435-28.54353-13.01411-30.32755-14.18607-32.11359-15.3589-33.89624-16.53175-35.68025-17.70547-37.4636-18.87967-39.24693-20.05429-41.03096-21.23026-42.81497-22.40488-44.59898-23.58084-46.38367-24.7568-48.167-25.93277-49.95303-27.10963-51.73572-28.28738-53.51973-29.46468-55.30305-30.64244-57.08707-31.82108-58.87108-33.00015-60.65443-34.17792-62.44182-35.35745-64.2238-36.53609-66.00716-37.71474-67.79048-38.89427-69.5745-40.07379-71.3585-41.256-73.14252-42.4342-74.92653-43.61374-76.71123-44.79327-78.49457-45.97325-80.2779-47.15367-82.06259-48.3341-83.8466-49.51408-85.63063-50.69673-87.41396-51.87582-89.19798-53.05669-90.98267-54.23668-92.76735-55.41754-94.55136-56.59842-96.33334-57.7793-98.11871-58.96016-99.90205-60.14148-101.68607-61.3237-103.47008-62.50412-105.25343-63.68454-107.03946-64.86586-108.8228-66.0463-110.60547-67.22717-112.39015-68.40848-114.1735-69.58936-115.9575-70.77112-117.74219-71.952-119.5289-73.13286-121.31157-74.31462-123.09491-75.4955-124.87823-76.67638-126.66225-77.85768-128.44493-79.04079-130.22895-80.22034-132.01296-81.40208-133.79764-82.58296-135.58165-83.76384-137.36769-84.94472-139.15036-86.12602-140.9337-87.30734-142.71703-88.48822-144.50104-89.66997-146.28507-90.85219-148.06908-92.03351-149.85242-93.21393-151.6398-94.39525-153.42113-95.57613-155.20581-96.75743-156.98847-97.93875-158.77248-99.12009-160.55649-100.30183-162.3405-101.48315-164.12723-102.66403-165.90988-103.84491-167.69257-105.02577-169.47658-106.20709-171.26059-107.38841-173.04392-108.57196-174.82862-109.75015-176.61196-110.93327"/>
<path transform="matrix(1,0,0,-1,232.872,39.136995)" stroke-width=".59776" stroke-linecap="butt" stroke-dasharray=".59776,1.99255" stroke-miterlimit="10" stroke-linejoin="miter" fill="none" stroke="#ff0000" d="M0-9.82036-1.78401-11.00435-3.56802-12.18701-5.35336-13.36343-7.13737-14.5376-8.92073-15.71089-10.70407-16.8815-12.48741-18.05078-14.2721-19.22005-16.05544-20.38799-17.84148-21.55637-19.6248-22.7234-21.40814-23.89044-23.19215-25.0575-24.97551-26.22499-26.75885-27.39337-28.54353-28.56174-30.32755-29.73058-32.11359-30.90074-33.89624-32.07312-35.68025-33.24196-37.4636-34.41345-39.24693-35.58496-41.03096-36.75735-42.81497-37.93065-44.59898-39.10439-46.38367-40.27856-48.167-41.45499-49.95303-42.62915-51.73572-43.80423-53.51973-44.98064-55.30305-46.1566-57.08707-47.33391-58.87108-48.51122-60.65443-49.6903-62.44182-50.86671-64.2238-52.04535-66.00716-53.22311-67.79048-54.40175-69.5745-55.57993-71.3585-56.75903-73.14252-57.93857-74.92653-59.11809-76.71123-60.29762-78.49457-61.47983-80.2779-62.65804-82.06259-63.83801-83.8466-65.01845-85.63063-66.19753-87.41396-67.37796-89.19798-68.55838-90.98267-69.73882-92.76735-70.92012-94.55136-72.101-96.33334-73.28098-98.11871-74.46185-99.90205-75.64183-101.68607-76.82225-103.47008-78.00357-105.25343-79.18578-107.03946-80.36575-108.8228-81.54753-110.60547-82.72751-112.39015-83.90837-114.1735-85.08925-115.9575-86.27013-117.74219-87.45145-119.5289-88.63275-121.31157-89.81407-123.09491-90.99585-124.87823-92.17671-126.66225-93.35803-128.44493-94.53891-130.22895-95.71933-132.01296-96.90063-133.79764-98.08195-135.58165-99.26283-137.36769-100.44594-139.15036-101.62636-140.9337-102.8068-142.71703-103.98854-144.50104-105.16942-146.28507-106.34985-148.06908-107.53162-149.85242-108.71472-151.6398-109.89426-153.42113-111.07648-155.20581-112.25688-156.98847-113.43776-158.77248-114.61864-160.55649-115.8004-162.3405-116.9817-164.12723-118.16304-165.90988-119.34525-167.69257-120.52835-169.47658-121.7061-171.26059-122.88786-173.04392-124.07231-174.82862-125.25005-176.61196-126.42958"/>
</g>
<use data-text="&#x1d714;" xlink:href="#font_1_3186" transform="matrix(9.96264,0,0,-9.96264,141.174,198.336)"/>
<use data-text="&#x1d716;" xlink:href="#font_1_3188" transform="matrix(0,-9.96264,-9.96264,-0,9.707001,97.856998)"/>
<use data-text="&#x1d456;" xlink:href="#font_2_2509" transform="matrix(0,-7.47198,-7.47198,-0,12.196999,93.573)"/>
<use data-text="&#x1d457;" xlink:href="#font_2_2510" transform="matrix(0,-7.47198,-7.47198,-0,12.196999,91.24921)"/>
<use data-text="&#x1d458;" xlink:href="#font_2_2511" transform="matrix(0,-7.47198,-7.47198,-0,12.196999,87.901767)"/>
<use data-text="&#x1d459;" xlink:href="#font_2_2512" transform="matrix(0,-7.47198,-7.47198,-0,12.196999,83.851947)"/>
<path transform="matrix(1,0,0,-1,232.872,39.136995)" d="M-179.41524-47.89383H-123.59009V25.336045H-179.41524Z" fill="#ffffff" fill-opacity=".8"/>
<path transform="matrix(1,0,0,-1,232.872,39.136995)" stroke-width=".3985" stroke-linecap="butt" stroke-miterlimit="10" stroke-linejoin="miter" fill="none" stroke="#cccccc" d="M-179.41524-47.89383H-123.59009V25.336045H-179.41524Z"/>
<path transform="matrix(1,0,0,-1,56.746999,21.564991)" stroke-width=".59776" stroke-linecap="butt" stroke-dasharray="2.98883,2.98883" stroke-miterlimit="10" stroke-linejoin="miter" fill="none" stroke="#0000ff" d="M0 0H8.50412 17.00826"/>
<use data-text="&#x0303;" xlink:href="#font_1_549" transform="matrix(8.96638,0,0,-8.96638,80.879,23.847992)"/>
<use data-text="&#x1d716;" xlink:href="#font_1_3188" transform="matrix(8.96638,0,0,-8.96638,76.04612,23.847992)"/>
<use data-text="2" xlink:href="#font_4_51" transform="matrix(5.97758,0,0,-5.97758,79.901,26.089982)"/>
<use data-text="3" xlink:href="#font_4_52" transform="matrix(5.97758,0,0,-5.97758,82.88979,26.089982)"/>
<use data-text="2" xlink:href="#font_4_51" transform="matrix(5.97758,0,0,-5.97758,85.878589,26.089982)"/>
<use data-text="3" xlink:href="#font_4_52" transform="matrix(5.97758,0,0,-5.97758,88.86738,26.089982)"/>
<use data-text="(" xlink:href="#font_1_41" transform="matrix(8.96638,0,0,-8.96638,92.224,23.847992)"/>
<use data-text="&#x1d714;" xlink:href="#font_1_3186" transform="matrix(8.96638,0,0,-8.96638,95.2098,23.847992)"/>
<use data-text=")" xlink:href="#font_1_42" transform="matrix(8.96638,0,0,-8.96638,101.3159,23.847992)"/>
<path transform="matrix(1,0,0,-1,56.746995,33.104993)" stroke-width=".59776" stroke-linecap="butt" stroke-miterlimit="10" stroke-linejoin="miter" fill="none" stroke="#0000ff" d="M0 0H8.50412 17.00826"/>
<use data-text="&#x1d716;" xlink:href="#font_1_3188" transform="matrix(8.96638,0,0,-8.96638,76.046,35.388994)"/>
<use data-text="2" xlink:href="#font_4_51" transform="matrix(5.97758,0,0,-5.97758,79.901,37.62999)"/>
<use data-text="3" xlink:href="#font_4_52" transform="matrix(5.97758,0,0,-5.97758,82.88979,37.62999)"/>
<use data-text="2" xlink:href="#font_4_51" transform="matrix(5.97758,0,0,-5.97758,85.878589,37.62999)"/>
<use data-text="3" xlink:href="#font_4_52" transform="matrix(5.97758,0,0,-5.97758,88.86738,37.62999)"/>
<use data-text="(" xlink:href="#font_1_41" transform="matrix(8.96638,0,0,-8.96638,92.224,35.388994)"/>
<use data-text="&#x1d714;" xlink:href="#font_1_3186" transform="matrix(8.96638,0,0,-8.96638,95.2098,35.388994)"/>
<use data-text=")" xlink:href="#font_1_42" transform="matrix(8.96638,0,0,-8.96638,101.3159,35.388994)"/>
<path transform="matrix(1,0,0,-1,56.746995,44.645994)" stroke-width=".59776" stroke-linecap="butt" stroke-dasharray=".59776,1.99255" stroke-miterlimit="10" stroke-linejoin="miter" fill="none" stroke="#0000ff" d="M0 0H8.50412 17.00826"/>
<use data-text="&#x0303;" xlink:href="#font_1_549" transform="matrix(8.96638,0,0,-8.96638,80.879,46.929)"/>
<use data-text="&#x1d716;" xlink:href="#font_1_3188" transform="matrix(8.96638,0,0,-8.96638,76.04612,46.929)"/>
<use data-text="2" xlink:href="#font_4_51" transform="matrix(5.97758,0,0,-5.97758,79.901,49.171007)"/>
<use data-text="3" xlink:href="#font_4_52" transform="matrix(5.97758,0,0,-5.97758,82.88979,49.171007)"/>
<use data-text="2" xlink:href="#font_4_51" transform="matrix(5.97758,0,0,-5.97758,85.878589,49.171007)"/>
<use data-text="3" xlink:href="#font_4_52" transform="matrix(5.97758,0,0,-5.97758,88.86738,49.171007)"/>
<use data-text="(" xlink:href="#font_1_41" transform="matrix(8.96638,0,0,-8.96638,92.224,46.929)"/>
<use data-text="&#x0303;" xlink:href="#font_1_549" transform="matrix(8.96638,0,0,-8.96638,100.78689,46.929)"/>
<use data-text="&#x1d714;" xlink:href="#font_1_3186" transform="matrix(8.96638,0,0,-8.96638,95.2098,46.929)"/>
<use data-text=")" xlink:href="#font_1_42" transform="matrix(8.96638,0,0,-8.96638,101.3159,46.929)"/>
<path transform="matrix(1,0,0,-1,56.746995,56.185995)" stroke-width=".59776" stroke-linecap="butt" stroke-dasharray="2.98883,2.98883" stroke-miterlimit="10" stroke-linejoin="miter" fill="none" stroke="#ff0000" d="M0 0H8.50412 17.00826"/>
<use data-text="&#x0303;" xlink:href="#font_1_549" transform="matrix(8.96638,0,0,-8.96638,80.879,58.47)"/>
<use data-text="&#x1d716;" xlink:href="#font_1_3188" transform="matrix(8.96638,0,0,-8.96638,76.04612,58.47)"/>
<use data-text="3" xlink:href="#font_4_52" transform="matrix(5.97758,0,0,-5.97758,79.901,60.712007)"/>
<use data-text="3" xlink:href="#font_4_52" transform="matrix(5.97758,0,0,-5.97758,82.88979,60.712007)"/>
<use data-text="3" xlink:href="#font_4_52" transform="matrix(5.97758,0,0,-5.97758,85.878589,60.712007)"/>
<use data-text="3" xlink:href="#font_4_52" transform="matrix(5.97758,0,0,-5.97758,88.86738,60.712007)"/>
<use data-text="(" xlink:href="#font_1_41" transform="matrix(8.96638,0,0,-8.96638,92.224,58.47)"/>
<use data-text="&#x1d714;" xlink:href="#font_1_3186" transform="matrix(8.96638,0,0,-8.96638,95.2098,58.47)"/>
<use data-text=")" xlink:href="#font_1_42" transform="matrix(8.96638,0,0,-8.96638,101.3159,58.47)"/>
<path transform="matrix(1,0,0,-1,56.746995,67.72699)" stroke-width=".59776" stroke-linecap="butt" stroke-miterlimit="10" stroke-linejoin="miter" fill="none" stroke="#ff0000" d="M0 0H8.50412 17.00826"/>
<use data-text="&#x1d716;" xlink:href="#font_1_3188" transform="matrix(8.96638,0,0,-8.96638,76.046,70.01099)"/>
<use data-text="3" xlink:href="#font_4_52" transform="matrix(5.97758,0,0,-5.97758,79.901,72.25198)"/>
<use data-text="3" xlink:href="#font_4_52" transform="matrix(5.97758,0,0,-5.97758,82.88979,72.25198)"/>
<use data-text="3" xlink:href="#font_4_52" transform="matrix(5.97758,0,0,-5.97758,85.878589,72.25198)"/>
<use data-text="3" xlink:href="#font_4_52" transform="matrix(5.97758,0,0,-5.97758,88.86738,72.25198)"/>
<use data-text="(" xlink:href="#font_1_41" transform="matrix(8.96638,0,0,-8.96638,92.224,70.01099)"/>
<use data-text="&#x1d714;" xlink:href="#font_1_3186" transform="matrix(8.96638,0,0,-8.96638,95.2098,70.01099)"/>
<use data-text=")" xlink:href="#font_1_42" transform="matrix(8.96638,0,0,-8.96638,101.3159,70.01099)"/>
<path transform="matrix(1,0,0,-1,56.746995,79.26799)" stroke-width=".59776" stroke-linecap="butt" stroke-dasharray=".59776,1.99255" stroke-miterlimit="10" stroke-linejoin="miter" fill="none" stroke="#ff0000" d="M0 0H8.50412 17.00826"/>
<use data-text="&#x0303;" xlink:href="#font_1_549" transform="matrix(8.96638,0,0,-8.96638,80.879,81.55099)"/>
<use data-text="&#x1d716;" xlink:href="#font_1_3188" transform="matrix(8.96638,0,0,-8.96638,76.04612,81.55099)"/>
<use data-text="3" xlink:href="#font_4_52" transform="matrix(5.97758,0,0,-5.97758,79.901,83.792987)"/>
<use data-text="3" xlink:href="#font_4_52" transform="matrix(5.97758,0,0,-5.97758,82.88979,83.792987)"/>
<use data-text="3" xlink:href="#font_4_52" transform="matrix(5.97758,0,0,-5.97758,85.878589,83.792987)"/>
<use data-text="3" xlink:href="#font_4_52" transform="matrix(5.97758,0,0,-5.97758,88.86738,83.792987)"/>
<use data-text="(" xlink:href="#font_1_41" transform="matrix(8.96638,0,0,-8.96638,92.224,81.55099)"/>
<use data-text="&#x0303;" xlink:href="#font_1_549" transform="matrix(8.96638,0,0,-8.96638,100.78689,81.55099)"/>
<use data-text="&#x1d714;" xlink:href="#font_1_3186" transform="matrix(8.96638,0,0,-8.96638,95.2098,81.55099)"/>
<use data-text=")" xlink:href="#font_1_42" transform="matrix(8.96638,0,0,-8.96638,101.3159,81.55099)"/>
</svg>
