<svg xmlns="http://www.w3.org/2000/svg" xmlns:xlink="http://www.w3.org/1999/xlink" xmlns:inkscape="http://www.inkscape.org/namespaces/inkscape" version="1.1" width="250.389" height="199.236" viewBox="0 0 250.389 199.236">
<defs>
<path id="font_1_50" d="M.3939972 0V.01499939C.31900025 .01499939 .29899598 .032989503 .29899598 .07597351V.67277529L.2899933 .67578127 .11099243 .5847931V.5708008L.13798523 .5807953C.1559906 .5877991 .17298889 .59280398 .18299866 .59280398 .20399475 .59280398 .21299744 .57780459 .21299744 .543808V.0949707C.21299744 .039978029 .19198609 .018997193 .117996219 .01499939V0H.3939972Z"/>
<path id="font_1_49" d="M.37998963 .32505799C.37998963 .12722779 .33499146 .012313843 .25 .012313843 .1639862 .012313843 .11999512 .1262207 .11999512 .32904054 .11999512 .5318756 .16499329 .6497803 .24798584 .6497803 .33599855 .6497803 .37998963 .53286746 .37998963 .32505799M.47599793 .3300476C.47599793 .53486636 .3849945 .67578127 .2539978 .67578127 .09298706 .67578127 .023986817 .5128937 .023986817 .3360443 .023986817 .17218018 .07899475-.013671875 .25-.013671875 .41299439-.013671875 .47599793 .15818787 .47599793 .3300476Z"/>
<path id="font_2_1155" d="M.62098696 .22012329V.2861328H.06399536V.22012329H.62098696Z"/>
<path id="font_2_53" d="M.2919922 .23098755H.051986696L.2919922 .573822V.23098755M.47299195 .16699219V.23098755H.36999513V.67578127H.32598878L.011993408 .23098755V.16699219H.2919922V0H.36999513V.16699219H.47299195Z"/>
<path id="font_2_52" d="M.06098938 .50987246C.101989749 .58380129 .147995 .61576846 .20999146 .61576846 .27598573 .61576846 .31799317 .58180239 .31799317 .51387026 .31799317 .45292665 .28599549 .40795899 .23699951 .37998963 .21699524 .36799623 .19099427 .3570099 .15299988 .34402467V.33003236C.20999146 .33003236 .23298645 .32704164 .25498963 .3200531 .32398988 .3000641 .35899354 .2511139 .35899354 .17518616 .35899354 .09025574 .30299378 .022323609 .22898865 .022323609 .20098877 .022323609 .17999268 .027313233 .14299011 .05329895 .114990238 .073272708 .09899902 .07926941 .08198547 .07926941 .05899048 .07926941 .040985109 .06428528 .040985109 .043304445 .040985109 .0073242189 .07998657-.013671875 .15299988-.013671875 .24198914-.013671875 .33699037 .015319824 .3849945 .07926941 .4139862 .11723328 .43099977 .16618347 .43099977 .21913147 .43099977 .27108766 .4149933 .31704713 .3869934 .34802247 .3659973 .36999513 .34799195 .38198854 .3039856 .40097047 .37098695 .44093324 .39698792 .4908905 .39698792 .5388489 .39698792 .6207733 .33399964 .67578127 .24099732 .67578127 .13699341 .67578127 .07398987 .6087799 .04499817 .51387026L.06098938 .50987246Z"/>
<path id="font_2_51" d="M.47399903 .13696289 .45999146 .1429596C.4269867 .08699036 .4059906 .07598877 .3639984 .07598877H.12998963L.29499818 .2519226C.38398744 .34588624 .4229889 .42085267 .4229889 .4998169 .4229889 .59877017 .35099793 .67578127 .23799134 .67578127 .114990238 .67578127 .050994874 .5937805 .02999878 .4768219L.050994874 .47183229C.09098816 .5697937 .12599182 .6017761 .19799805 .6017761 .2829895 .6017761 .33699037 .55178835 .33699037 .4608307 .33699037 .37586976 .30099488 .29989625 .20698548 .200943L.0289917 .011993408V0H.41999818L.47399903 .13696289Z"/>
<path id="font_2_50" d="M.3939972 0V.01499939C.31900025 .01499939 .29899598 .032989503 .29899598 .07597351V.67277529L.2899933 .67578127 .11099243 .5847931V.5708008L.13798523 .5807953C.1559906 .5877991 .17298889 .59280398 .18299866 .59280398 .20399475 .59280398 .21299744 .57780459 .21299744 .543808V.0949707C.21299744 .039978029 .19198609 .018997193 .117996219 .01499939V0H.3939972Z"/>
<path id="font_2_49" d="M.37998963 .32505799C.37998963 .12722779 .33499146 .012313843 .25 .012313843 .1639862 .012313843 .11999512 .1262207 .11999512 .32904054 .11999512 .5318756 .16499329 .6497803 .24798584 .6497803 .33599855 .6497803 .37998963 .53286746 .37998963 .32505799M.47599793 .3300476C.47599793 .53486636 .3849945 .67578127 .2539978 .67578127 .09298706 .67578127 .023986817 .5128937 .023986817 .3360443 .023986817 .17218018 .07899475-.013671875 .25-.013671875 .41299439-.013671875 .47599793 .15818787 .47599793 .3300476Z"/>
<clipPath id="clip_3">
<path transform="matrix(1,0,0,-1,238.022,57.82498)" d="M-190.5929-107.80835H3.68272V53.58899H-190.5929Z"/>
</clipPath>
<path id="font_1_3186" d="M.46499635 .4252472C.5419922 .4162445 .58099368 .38824464 .58099368 .2922516 .58099368 .20625305 .5039978 .019256592 .41600038 .019256592 .36299134 .019256592 .34599305 .069244388 .34599305 .11924744 .38198854 .17124939 .42399598 .25024415 .42399598 .31425477 .42399598 .33924867 .4099884 .36125184 .3909912 .36125184 .31900025 .36125184 .2939911 .24824524 .2939911 .17524719 .2939911 .16125489 .29499818 .13925171 .29699708 .12425232 .28399659 .07824707 .22799683 .019256592 .16999817 .019256592 .125 .019256592 .101989749 .06625366 .101989749 .11224365 .101989749 .28025819 .21299744 .4252472 .33699037 .4252472L.33399964 .44125367H.31799317C.14099121 .44125367 .019989014 .31225587 .019989014 .1502533 .019989014 .08125305 .055999757-.0107421879 .1579895-.0107421879 .22399903-.0107421879 .2709961 .028244019 .31199647 .07824707 .31599427 .027252198 .35699464-.0107421879 .41600038-.0107421879 .519989-.0107421879 .6609955 .11024475 .6609955 .28025819 .6609955 .3982544 .58599856 .44125367 .47099305 .44125367L.46499635 .4252472Z"/>
<path id="font_1_3188" d="M.42999269 .44140626H.4149933C.41099549 .43240357 .4039917 .42140199 .3919983 .42140199 .3639984 .42140199 .35798646 .44140626 .30899049 .44140626 .1539917 .44140626 .039993287 .2831421 .039993287 .1411438 .039993287 .05822754 .085998538-.0107421879 .17999268-.0107421879 .2630005-.0107421879 .32099916 .038253786 .37399293 .09819031L.3619995 .11216736C.32699586 .07821655 .27598573 .04425049 .21798706 .04425049 .16299439 .04425049 .12599182 .081207279 .12599182 .1451416 .12599182 .17010498 .12599182 .19108582 .1329956 .21105957H.31799317L.32299806 .24707031H.14199829C.1639862 .3171997 .22099304 .4143982 .30299378 .4143982 .37199403 .4143982 .3889923 .35528565 .3959961 .30918885H.41099549L.42999269 .44140626Z"/>
<path id="font_2_2509" d="M.22698975 .4412079 .068984989 .41921998 .07199097 .4032135C.07899475 .4052124 .09098816 .4072113 .099990848 .4072113 .12298584 .4072113 .1309967 .40222169 .1309967 .3852234 .1309967 .3822174 .12998963 .37521363 .1289978 .37321473 .049987794 .0662384 .049987794 .04724121 .049987794 .035247804 .049987794 .008255005 .06199646-.0107421879 .08999634-.0107421879 .13899231-.0107421879 .18899536 .049240114 .22399903 .09423828L.21099854 .10424805C.1749878 .06524658 .16899109 .053253175 .14698792 .053253175 .13999939 .053253175 .13398743 .056243898 .13398743 .06324768 .13398743 .06724548 .13398743 .071243289 .1349945 .07723999L.22698975 .4412079M.25698854 .5662079C.25698854 .5912018 .23498535 .61621096 .20899964 .61621096 .17999268 .61621096 .16099549 .5912018 .16099549 .5662079 .16099549 .5402069 .17999268 .52020266 .20899964 .52020266 .23498535 .52020266 .25698854 .5402069 .25698854 .5662079Z"/>
<path id="font_2_2510" d="M.35099793 .44114686 .19299317 .4131317 .19599915 .39611817C.20298767 .39912416 .21499634 .40112306 .22299195 .40112306 .24499512 .40112306 .25498963 .39111329 .25498963 .3791046L.16299439 .015853882C.13899231-.080200199 .10598755-.15625 .05999756-.15625 .054992677-.15625 .049987794-.1502533 .049987794-.1462555 .049987794-.13023377 .06599426-.12724304 .06599426-.11222839 .06599426-.08921814 .049987794-.07420349 .0309906-.07420349-.0040130617-.07420349-.01600647-.10421753-.01600647-.12623596-.01600647-.1542511 .0039978029-.18725586 .056991579-.18725586 .16499329-.18725586 .22099304-.07220459 .24299622 .015853882L.35099793 .44114686M.37199403 .5662079C.37199403 .5912018 .34999085 .61621096 .32398988 .61621096 .29499818 .61621096 .27598573 .5912018 .27598573 .5662079 .27598573 .5402069 .29499818 .52020266 .32398988 .52020266 .34999085 .52020266 .37199403 .5402069 .37199403 .5662079Z"/>
<path id="font_2_2511" d="M.5269928 .42797853H.33299256L.32899476 .41596986H.34098817C.35099793 .41596986 .36698915 .40898133 .36698915 .39697267 .36698915 .38397218 .35699464 .37097169 .34599305 .36097718L.1789856 .21199036 .2919922 .66796877 .13398743 .6429596 .13699341 .6289673C.14498902 .6309662 .15499878 .6309662 .1639862 .6309662 .18598938 .6309662 .19599915 .6199646 .19599915 .608963 .19599915 .6019745 .19499207 .5949707 .19299317 .588974L.04499817 0H.12098694L.1659851 .1659851 .22200012 .21498108 .2849884 .067993167C.29599 .042251588 .31698609-.0107421879 .36299134-.0107421879 .43099977-.0107421879 .47799684 .09623718 .48999024 .11721802L.47499085 .1282196C.45298768 .098236087 .43099977 .055252077 .40098573 .055252077 .375 .055252077 .36299134 .07923889 .34799195 .114227298L.28399659 .2661438 .3899994 .35810853C.42799378 .39108277 .45599366 .40907289 .522995 .41607667L.5269928 .42797853Z"/>
<path id="font_2_2512" d="M.27799989 .66796877 .12098694 .6449585 .12399292 .62997439C.13198853 .6309662 .14399719 .6329651 .15098572 .6329651 .17399597 .6329651 .18199158 .6229706 .18199158 .6109772 .18199158 .60798647 .18199158 .59999087 .1789856 .58699038L.050994874 .07720947C.04798889 .067214969 .04499817 .053222658 .04499817 .041229249 .04499817 .016220093 .053985597-.009765625 .083999637-.009765625 .14199829-.009765625 .18499756 .056228639 .21899414 .096206668L.20298767 .10820007C.19400025 .09220886 .1639862 .053222658 .14099121 .053222658 .1329956 .053222658 .1289978 .05921936 .1289978 .066223148 .1289978 .07321167 .12998963 .07720947 .12998963 .07720947L.27799989 .66796877Z"/>
<path id="font_2_3188" d="M.42999269 .44140626H.4149933C.41099549 .43240357 .4039917 .42140199 .3919983 .42140199 .3639984 .42140199 .35798646 .44140626 .30899049 .44140626 .1539917 .44140626 .039993287 .2831421 .039993287 .1411438 .039993287 .05822754 .085998538-.0107421879 .17999268-.0107421879 .2630005-.0107421879 .32099916 .038253786 .37399293 .09819031L.3619995 .11216736C.32699586 .07821655 .27598573 .04425049 .21798706 .04425049 .16299439 .04425049 .12599182 .081207279 .12599182 .1451416 .12599182 .17010498 .12599182 .19108582 .1329956 .21105957H.31799317L.32299806 .24707031H.14199829C.1639862 .3171997 .22099304 .4143982 .30299378 .4143982 .37199403 .4143982 .3889923 .35528565 .3959961 .30918885H.41099549L.42999269 .44140626Z"/>
<path id="font_4_2513" d="M.6669922 .10708618C.647995 .0700531 .621994 .054031373 .6049957 .054031373 .59599307 .054031373 .58999636 .058029176 .58999636 .06604004 .58999636 .06904602 .59098818 .07505798 .59199526 .078063968L.6529999 .30932618C.6589966 .3333435 .6599884 .35237123 .6599884 .37039186 .6599884 .41540528 .6419983 .44140626 .60598757 .44140626 .58599856 .44140626 .5669861 .43440248 .54499819 .41940309 .49598695 .38639833 .44400025 .32434083 .4149933 .27227784H.4099884L.41999818 .3083191C.42599488 .32833863 .42900086 .34335328 .42900086 .36038209 .42900086 .4044037 .41099549 .44140626 .37399293 .44140626 .33599855 .44140626 .27598573 .41540528 .18199158 .27227784H.17599488L.21998596 .44140626 .06298828 .41740418 .06498718 .4033966C.07299805 .4044037 .083999637 .4053955 .09199524 .4053955 .11898804 .4053955 .125 .39239503 .125 .37438966L.02999878 0H.10798645L.14299011 .13511658C.15899658 .19619751 .2689972 .37739564 .32099916 .37739564 .33898927 .37739564 .34399415 .359375 .34399415 .33935548 .34399415 .32434083 .34098817 .3083191 .33898927 .2993164L.2619934 0H.34098817L.375 .13511658C.3899994 .19619751 .5 .37739564 .55400088 .37739564 .57199099 .37739564 .5779877 .359375 .5779877 .33935548 .5779877 .32234193 .57598879 .31332398 .57199099 .2993164L.5159912 .078063968C.5109863 .058029176 .5099945 .04801941 .5099945 .041015626 .5099945 .0021820069 .5269928-.0078125 .548996-.0078125 .59599307-.0078125 .647995 .04219055 .6799927 .09623718L.6669922 .10708618Z"/>
<path id="font_4_2514" d="M.46699525 .096206668 .45399476 .10720825C.43998719 .09020996 .41600038 .05418396 .3919983 .05418396 .3809967 .05418396 .37799073 .062179567 .3769989 .06819153 .3769989 .07319641 .3769989 .07620239 .37799073 .078201297L.43699647 .3093567C.44198609 .32936097 .44799806 .35438539 .44799806 .37939454 .44799806 .4123993 .43598939 .44140626 .3919983 .44140626 .33198548 .44140626 .27198792 .37539674 .23199463 .32536317 .22999573 .32235719 .18099976 .25231935 .17599488 .25231935H.17298889L.22399903 .44140626 .06498718 .418396 .066986087 .4033966C.07398987 .4044037 .084991458 .4064026 .09498596 .4064026 .12199402 .4064026 .125 .39239503 .125 .37438966L.02999878 0H.10699463L.13999939 .12411499C.1459961 .1451416 .17199707 .19218445 .20799256 .24624634 .23899842 .29330445 .3019867 .37939454 .33999635 .37939454 .35798646 .37939454 .3639984 .36038209 .3639984 .34135438 .3639984 .3273468 .35899354 .307312 .35699464 .2993164L.2999878 .078063968C.29699708 .06704712 .29299928 .05102539 .29299928 .038009645 .29299928 .015182495 .3019867-.0078125 .33399964-.0078125 .38598634-.0078125 .43399049 .05618286 .46199037 .09020996L.46699525 .096206668Z"/>
<path id="font_5_9" d="M.3039856-.16122437C.1639862-.04423523 .13398743 .06877136 .13398743 .254776 .13398743 .44776917 .16499329 .5407715 .3039856 .6597748L.29499818 .67578127C.1349945 .58078 .04798889 .43676759 .04798889 .25177003 .04798889 .08177185 .13398743-.0872345 .2919922-.17723084L.3039856-.16122437Z"/>
<path id="font_2_3168" d="M.17298889 .25097657C.18199158 .28897096 .20498657 .3579712 .20498657 .39996339 .20498657 .42396546 .19599915 .44096376 .1639862 .44096376 .14199829 .44096376 .10499573 .41897584 .07998657 .39396668 .055999757 .3699646 .038986207 .3429718 .033996583 .33596803L.04699707 .3259735C.06298828 .3469696 .084991458 .37597657 .10699463 .37597657 .117996219 .37597657 .11999512 .3719635 .11999512 .36296083 .11999512 .3489685 .11299133 .32896424 .10699463 .30397035L.02999878 0H.10798645L.13899231 .10498047C.16899109 .20698548 .29899598 .37597657 .33898927 .37597657 .35598756 .37597657 .36698915 .3639679 .36698915 .3469696 .36698915 .3299713 .3619995 .30897523 .35899354 .29896546 .27398683-.039001466 .2599945-.0960083 .2599945-.13700867 .2599945-.15501404 .2619934-.17201233 .2709961-.18301392H.34700013C.34298707-.17500305 .34199525-.16200257 .34199525-.14801026 .34199525-.117004398 .34999085-.06700134 .36499024-.0040130617L.43998719 .30897523C.44599916 .3349762 .45498658 .36497499 .45498658 .3869629 .45498658 .42097474 .43399049 .44096376 .394989 .44096376 .33599855 .44096376 .28599549 .39297486 .23199463 .3239746 .21899414 .30697633 .19599915 .27796937 .1749878 .25097657H.17298889Z"/>
<path id="font_2_62" d="M.6369934 .12011719V.18611145H.04798889V.12011719H.6369934M.6369934 .31973268V.3857422H.04798889V.31973268H.6369934Z"/>
<path id="font_5_17" d="M.37998963 .32505799C.37998963 .12722779 .33499146 .012313843 .25 .012313843 .1639862 .012313843 .11999512 .1262207 .11999512 .32904054 .11999512 .5318756 .16499329 .6497803 .24798584 .6497803 .33599855 .6497803 .37998963 .53286746 .37998963 .32505799M.47599793 .3300476C.47599793 .53486636 .3849945 .67578127 .2539978 .67578127 .09298706 .67578127 .023986817 .5128937 .023986817 .3360443 .023986817 .17218018 .07899475-.013671875 .25-.013671875 .41299439-.013671875 .47599793 .15818787 .47599793 .3300476Z"/>
<path id="font_5_15" d="M.18099976 .04324341C.18099976 .07325745 .15499878 .100250247 .12599182 .100250247 .09498596 .100250247 .069992069 .07525635 .069992069 .04425049 .069992069 .013244629 .09399414-.0107421879 .125-.0107421879 .15499878-.0107421879 .18099976 .014251709 .18099976 .04324341Z"/>
<path id="font_5_18" d="M.3939972 0V.01499939C.31900025 .01499939 .29899598 .032989503 .29899598 .07597351V.67277529L.2899933 .67578127 .11099243 .5847931V.5708008L.13798523 .5807953C.1559906 .5877991 .17298889 .59280398 .18299866 .59280398 .20399475 .59280398 .21299744 .57780459 .21299744 .543808V.0949707C.21299744 .039978029 .19198609 .018997193 .117996219 .01499939V0H.3939972Z"/>
<path id="font_5_10" d="M.0289917 .6597748C.17399597 .54577639 .19898987 .43077088 .19898987 .24377442 .19898987 .04977417 .17098999-.04423523 .0289917-.16122437L.037994386-.17723084C.19699097-.08023071 .2849884 .061767579 .2849884 .24676514 .2849884 .41677857 .19400025 .58377078 .040985109 .67578127L.0289917 .6597748Z"/>
<path id="font_4_974" d="M.2679901 .3962555C.31999208 .4772644 .375 .5582733 .42399598 .60827639 .44898988 .63427737 .47799684 .65527346 .5059967 .65527346 .5289917 .65527346 .54100039 .6432648 .54100039 .6242676 .54100039 .5282593 .42599488 .43026734 .2689972 .39526368L.2679901 .3962555M.07699585 .38926698C.10398865 .37025453 .1349945 .3612671 .16499329 .36026 .15098572 .33825685 .13699341 .31625367 .125 .29426576 .07798767 .21224976 .04798889 .1312561 .04798889 .07624817 .04798889 .018249512 .08799744-.0107421879 .1349945-.0107421879 .19799805-.0107421879 .25698854 .04624939 .3619995 .16925049L.34098817 .18624878C.24398804 .07424927 .18899536 .019256592 .14199829 .019256592 .114990238 .019256592 .10598755 .038253786 .10598755 .06225586 .10598755 .1292572 .19699097 .27626039 .24899292 .36026 .4249878 .386261 .57099917 .5152588 .57099917 .6202698 .57099917 .66625979 .548996 .6872711 .5069885 .6872711 .4249878 .6872711 .2899933 .5452728 .18499756 .3902588 .15499878 .3902588 .12399292 .3922577 .09098816 .41526795L.07699585 .38926698Z"/>
</defs>
<path transform="matrix(1,0,0,-1,238.022,57.82498)" stroke-width=".3985" stroke-linecap="butt" stroke-miterlimit="10" stroke-linejoin="miter" fill="none" stroke="#cccccc" d="M-190.59362-107.80835V53.58899M-188.21347-107.80835V53.58899M-186.08461-107.80835V53.58899M-172.08055-107.80835V53.58899M-163.88881-107.80835V53.58899M-158.0765-107.80835V53.58899M-153.5682-107.80835V53.58899M-149.88405-107.80835V53.58899M-146.76992-107.80835V53.58899M-144.07245-107.80835V53.58899M-141.6923-107.80835V53.58899M-139.56346-107.80835V53.58899M-125.5594-107.80835V53.58899M-117.36766-107.80835V53.58899M-111.55534-107.80835V53.58899M-107.04704-107.80835V53.58899M-103.3629-107.80835V53.58899M-100.24875-107.80835V53.58899M-97.5513-107.80835V53.58899M-95.17116-107.80835V53.58899M-93.0423-107.80835V53.58899M-79.03824-107.80835V53.58899M-70.8465-107.80835V53.58899M-65.0342-107.80835V53.58899M-60.5259-107.80835V53.58899M-56.84174-107.80835V53.58899M-53.7276-107.80835V53.58899M-51.03015-107.80835V53.58899M-48.65001-107.80835V53.58899M-46.52115-107.80835V53.58899M-32.51709-107.80835V53.58899M-24.32535-107.80835V53.58899M-18.51303-107.80835V53.58899M-14.00475-107.80835V53.58899M-10.32059-107.80835V53.58899M-7.20645-107.80835V53.58899M-4.50899-107.80835V53.58899M-2.12885-107.80835V53.58899"/>
<path transform="matrix(1,0,0,-1,238.022,57.82498)" stroke-width=".3985" stroke-linecap="butt" stroke-miterlimit="10" stroke-linejoin="miter" fill="none" stroke="#cccccc" d="M-186.08461-107.80835V53.58899M-139.56346-107.80835V53.58899M-93.0423-107.80835V53.58899M-46.52115-107.80835V53.58899M0-107.80835V53.58899"/>
<path transform="matrix(1,0,0,-1,238.022,57.82498)" stroke-width=".3985" stroke-linecap="butt" stroke-miterlimit="10" stroke-linejoin="miter" fill="none" stroke="#cccccc" d="M-190.5929-105.38564H3.68272M-190.5929-103.06346H3.68272M-190.5929-101.16582H3.68272M-190.5929-99.56175H3.68272M-190.5929-98.17233H3.68272M-190.5929-96.94633H3.68272M-190.5929-95.84981H3.68272M-190.5929-88.63649H3.68272M-190.5929-84.41704H3.68272M-190.5929-81.42319H3.68272M-190.5929-79.10101H3.68272M-190.5929-77.20335H3.68272M-190.5929-75.59929H3.68272M-190.5929-74.20988H3.68272M-190.5929-72.98389H3.68272M-190.5929-71.88734H3.68272M-190.5929-64.67404H3.68272M-190.5929-60.45457H3.68272M-190.5929-57.46074H3.68272M-190.5929-55.13855H3.68272M-190.5929-53.2409H3.68272M-190.5929-51.63684H3.68272M-190.5929-50.24742H3.68272M-190.5929-49.02144H3.68272M-190.5929-47.9249H3.68272M-190.5929-40.7116H3.68272M-190.5929-36.49213H3.68272M-190.5929-33.49828H3.68272M-190.5929-31.1761H3.68272M-190.5929-29.27846H3.68272M-190.5929-27.6744H3.68272M-190.5929-26.28497H3.68272M-190.5929-25.05898H3.68272M-190.5929-23.96245H3.68272M-190.5929-16.74913H3.68272M-190.5929-12.52968H3.68272M-190.5929-9.53583H3.68272M-190.5929-7.21365H3.68272M-190.5929-5.31601H3.68272M-190.5929-3.71193H3.68272M-190.5929-2.32253H3.68272M-190.5929-1.09653H3.68272M-190.5929 0H3.68272M-190.5929 7.21329H3.68272M-190.5929 11.43274H3.68272M-190.5929 14.42659H3.68272M-190.5929 16.74878H3.68272M-190.5929 18.64642H3.68272M-190.5929 20.25049H3.68272M-190.5929 21.63991H3.68272M-190.5929 22.86589H3.68272M-190.5929 23.96245H3.68272M-190.5929 31.17574H3.68272M-190.5929 35.3952H3.68272M-190.5929 38.38905H3.68272M-190.5929 40.71123H3.68272M-190.5929 42.60887H3.68272M-190.5929 44.21294H3.68272M-190.5929 45.60236H3.68272M-190.5929 46.82835H3.68272"/>
<path transform="matrix(1,0,0,-1,238.022,57.82498)" stroke-width=".3985" stroke-linecap="butt" stroke-miterlimit="10" stroke-linejoin="miter" fill="none" stroke="#cccccc" d="M-190.5929-95.84981H3.68272M-190.5929-71.88734H3.68272M-190.5929-47.9249H3.68272M-190.5929-23.96245H3.68272M-190.5929 0H3.68272M-190.5929 23.96245H3.68272M-190.5929 47.9249H3.68272"/>
<path transform="matrix(1,0,0,-1,238.022,57.82498)" stroke-width=".19925" stroke-linecap="butt" stroke-miterlimit="10" stroke-linejoin="miter" fill="none" stroke="#000000" d="M-190.59362-110.63803V-107.80835M-188.21347-110.63803V-107.80835M-186.08461-110.63803V-107.80835M-172.08055-110.63803V-107.80835M-163.88881-110.63803V-107.80835M-158.0765-110.63803V-107.80835M-153.5682-110.63803V-107.80835M-149.88405-110.63803V-107.80835M-146.76992-110.63803V-107.80835M-144.07245-110.63803V-107.80835M-141.6923-110.63803V-107.80835M-139.56346-110.63803V-107.80835M-125.5594-110.63803V-107.80835M-117.36766-110.63803V-107.80835M-111.55534-110.63803V-107.80835M-107.04704-110.63803V-107.80835M-103.3629-110.63803V-107.80835M-100.24875-110.63803V-107.80835M-97.5513-110.63803V-107.80835M-95.17116-110.63803V-107.80835M-93.0423-110.63803V-107.80835M-79.03824-110.63803V-107.80835M-70.8465-110.63803V-107.80835M-65.0342-110.63803V-107.80835M-60.5259-110.63803V-107.80835M-56.84174-110.63803V-107.80835M-53.7276-110.63803V-107.80835M-51.03015-110.63803V-107.80835M-48.65001-110.63803V-107.80835M-46.52115-110.63803V-107.80835M-32.51709-110.63803V-107.80835M-24.32535-110.63803V-107.80835M-18.51303-110.63803V-107.80835M-14.00475-110.63803V-107.80835M-10.32059-110.63803V-107.80835M-7.20645-110.63803V-107.80835M-4.50899-110.63803V-107.80835M-2.12885-110.63803V-107.80835"/>
<path transform="matrix(1,0,0,-1,238.022,57.82498)" stroke-width=".19925" stroke-linecap="butt" stroke-miterlimit="10" stroke-linejoin="miter" fill="none" stroke="#000000" d="M-186.08461-112.05267V-107.80835M-139.56346-112.05267V-107.80835M-93.0423-112.05267V-107.80835M-46.52115-112.05267V-107.80835M0-112.05267V-107.80835"/>
<path transform="matrix(1,0,0,-1,238.022,57.82498)" stroke-width=".19925" stroke-linecap="butt" stroke-miterlimit="10" stroke-linejoin="miter" fill="none" stroke="#000000" d="M-193.42453-105.38564H-190.5929M-193.42453-103.06346H-190.5929M-193.42453-101.16582H-190.5929M-193.42453-99.56175H-190.5929M-193.42453-98.17233H-190.5929M-193.42453-96.94633H-190.5929M-193.42453-95.84981H-190.5929M-193.42453-88.63649H-190.5929M-193.42453-84.41704H-190.5929M-193.42453-81.42319H-190.5929M-193.42453-79.10101H-190.5929M-193.42453-77.20335H-190.5929M-193.42453-75.59929H-190.5929M-193.42453-74.20988H-190.5929M-193.42453-72.98389H-190.5929M-193.42453-71.88734H-190.5929M-193.42453-64.67404H-190.5929M-193.42453-60.45457H-190.5929M-193.42453-57.46074H-190.5929M-193.42453-55.13855H-190.5929M-193.42453-53.2409H-190.5929M-193.42453-51.63684H-190.5929M-193.42453-50.24742H-190.5929M-193.42453-49.02144H-190.5929M-193.42453-47.9249H-190.5929M-193.42453-40.7116H-190.5929M-193.42453-36.49213H-190.5929M-193.42453-33.49828H-190.5929M-193.42453-31.1761H-190.5929M-193.42453-29.27846H-190.5929M-193.42453-27.6744H-190.5929M-193.42453-26.28497H-190.5929M-193.42453-25.05898H-190.5929M-193.42453-23.96245H-190.5929M-193.42453-16.74913H-190.5929M-193.42453-12.52968H-190.5929M-193.42453-9.53583H-190.5929M-193.42453-7.21365H-190.5929M-193.42453-5.31601H-190.5929M-193.42453-3.71193H-190.5929M-193.42453-2.32253H-190.5929M-193.42453-1.09653H-190.5929M-193.42453 0H-190.5929M-193.42453 7.21329H-190.5929M-193.42453 11.43274H-190.5929M-193.42453 14.42659H-190.5929M-193.42453 16.74878H-190.5929M-193.42453 18.64642H-190.5929M-193.42453 20.25049H-190.5929M-193.42453 21.63991H-190.5929M-193.42453 22.86589H-190.5929M-193.42453 23.96245H-190.5929M-193.42453 31.17574H-190.5929M-193.42453 35.3952H-190.5929M-193.42453 38.38905H-190.5929M-193.42453 40.71123H-190.5929M-193.42453 42.60887H-190.5929M-193.42453 44.21294H-190.5929M-193.42453 45.60236H-190.5929M-193.42453 46.82835H-190.5929"/>
<path transform="matrix(1,0,0,-1,238.022,57.82498)" stroke-width=".19925" stroke-linecap="butt" stroke-miterlimit="10" stroke-linejoin="miter" fill="none" stroke="#000000" d="M-194.83998-95.84981H-190.5929M-194.83998-71.88734H-190.5929M-194.83998-47.9249H-190.5929M-194.83998-23.96245H-190.5929M-194.83998 0H-190.5929M-194.83998 23.96245H-190.5929M-194.83998 47.9249H-190.5929"/>
<path transform="matrix(1,0,0,-1,238.022,57.82498)" stroke-width=".3985" stroke-linecap="butt" stroke-miterlimit="10" stroke-linejoin="miter" fill="none" stroke="#000000" d="M-190.5929-107.80835V53.58899H3.68272V-107.80835H-190.5929Z"/>
<use data-text="1" xlink:href="#font_1_50" transform="matrix(9.96264,0,0,-9.96264,42.326997,182.43299)"/>
<use data-text="0" xlink:href="#font_1_49" transform="matrix(9.96264,0,0,-9.96264,47.308317,182.43299)"/>
<use data-text="&#x2212;" xlink:href="#font_2_1155" transform="matrix(7.47198,0,0,-7.47198,52.289999,178.44799)"/>
<use data-text="4" xlink:href="#font_2_53" transform="matrix(7.47198,0,0,-7.47198,57.408304,178.44799)"/>
<use data-text="1" xlink:href="#font_1_50" transform="matrix(9.96264,0,0,-9.96264,88.84801,182.43299)"/>
<use data-text="0" xlink:href="#font_1_49" transform="matrix(9.96264,0,0,-9.96264,93.82933,182.43299)"/>
<use data-text="&#x2212;" xlink:href="#font_2_1155" transform="matrix(7.47198,0,0,-7.47198,98.810009,178.44799)"/>
<use data-text="3" xlink:href="#font_2_52" transform="matrix(7.47198,0,0,-7.47198,103.928318,178.44799)"/>
<use data-text="1" xlink:href="#font_1_50" transform="matrix(9.96264,0,0,-9.96264,135.36801,182.43299)"/>
<use data-text="0" xlink:href="#font_1_49" transform="matrix(9.96264,0,0,-9.96264,140.34934,182.43299)"/>
<use data-text="&#x2212;" xlink:href="#font_2_1155" transform="matrix(7.47198,0,0,-7.47198,145.33101,178.44799)"/>
<use data-text="2" xlink:href="#font_2_51" transform="matrix(7.47198,0,0,-7.47198,150.44931,178.44799)"/>
<use data-text="1" xlink:href="#font_1_50" transform="matrix(9.96264,0,0,-9.96264,181.889,182.43299)"/>
<use data-text="0" xlink:href="#font_1_49" transform="matrix(9.96264,0,0,-9.96264,186.87033,182.43299)"/>
<use data-text="&#x2212;" xlink:href="#font_2_1155" transform="matrix(7.47198,0,0,-7.47198,191.852,178.44799)"/>
<use data-text="1" xlink:href="#font_2_50" transform="matrix(7.47198,0,0,-7.47198,196.9703,178.44799)"/>
<use data-text="1" xlink:href="#font_1_50" transform="matrix(9.96264,0,0,-9.96264,230.96901,182.43299)"/>
<use data-text="0" xlink:href="#font_1_49" transform="matrix(9.96264,0,0,-9.96264,235.95034,182.43299)"/>
<use data-text="0" xlink:href="#font_2_49" transform="matrix(7.47198,0,0,-7.47198,240.93102,178.44799)"/>
<use data-text="1" xlink:href="#font_1_50" transform="matrix(9.96264,0,0,-9.96264,20.440003,158.12198)"/>
<use data-text="0" xlink:href="#font_1_49" transform="matrix(9.96264,0,0,-9.96264,25.421322,158.12198)"/>
<use data-text="&#x2212;" xlink:href="#font_2_1155" transform="matrix(7.47198,0,0,-7.47198,30.402003,154.13698)"/>
<use data-text="4" xlink:href="#font_2_53" transform="matrix(7.47198,0,0,-7.47198,35.52031,154.13698)"/>
<use data-text="1" xlink:href="#font_1_50" transform="matrix(9.96264,0,0,-9.96264,20.440003,134.15998)"/>
<use data-text="0" xlink:href="#font_1_49" transform="matrix(9.96264,0,0,-9.96264,25.421322,134.15998)"/>
<use data-text="&#x2212;" xlink:href="#font_2_1155" transform="matrix(7.47198,0,0,-7.47198,30.402003,130.17496)"/>
<use data-text="3" xlink:href="#font_2_52" transform="matrix(7.47198,0,0,-7.47198,35.52031,130.17496)"/>
<use data-text="1" xlink:href="#font_1_50" transform="matrix(9.96264,0,0,-9.96264,20.440003,110.19799)"/>
<use data-text="0" xlink:href="#font_1_49" transform="matrix(9.96264,0,0,-9.96264,25.421322,110.19799)"/>
<use data-text="&#x2212;" xlink:href="#font_2_1155" transform="matrix(7.47198,0,0,-7.47198,30.402003,106.21299)"/>
<use data-text="2" xlink:href="#font_2_51" transform="matrix(7.47198,0,0,-7.47198,35.52031,106.21299)"/>
<use data-text="1" xlink:href="#font_1_50" transform="matrix(9.96264,0,0,-9.96264,20.440003,86.23598)"/>
<use data-text="0" xlink:href="#font_1_49" transform="matrix(9.96264,0,0,-9.96264,25.421322,86.23598)"/>
<use data-text="&#x2212;" xlink:href="#font_2_1155" transform="matrix(7.47198,0,0,-7.47198,30.402003,82.25098)"/>
<use data-text="1" xlink:href="#font_2_50" transform="matrix(7.47198,0,0,-7.47198,35.52031,82.25098)"/>
<use data-text="1" xlink:href="#font_1_50" transform="matrix(9.96264,0,0,-9.96264,25.557999,62.273988)"/>
<use data-text="0" xlink:href="#font_1_49" transform="matrix(9.96264,0,0,-9.96264,30.539319,62.273988)"/>
<use data-text="0" xlink:href="#font_2_49" transform="matrix(7.47198,0,0,-7.47198,35.519998,58.288988)"/>
<use data-text="1" xlink:href="#font_1_50" transform="matrix(9.96264,0,0,-9.96264,25.557999,38.31198)"/>
<use data-text="0" xlink:href="#font_1_49" transform="matrix(9.96264,0,0,-9.96264,30.539319,38.31198)"/>
<use data-text="1" xlink:href="#font_2_50" transform="matrix(7.47198,0,0,-7.47198,35.519998,34.32698)"/>
<use data-text="1" xlink:href="#font_1_50" transform="matrix(9.96264,0,0,-9.96264,25.557999,14.348984)"/>
<use data-text="0" xlink:href="#font_1_49" transform="matrix(9.96264,0,0,-9.96264,30.539319,14.348984)"/>
<use data-text="2" xlink:href="#font_2_51" transform="matrix(7.47198,0,0,-7.47198,35.519998,10.363983)"/>
<g clip-path="url(#clip_3)">
<path transform="matrix(1,0,0,-1,238.022,57.82498)" stroke-width=".59776" stroke-linecap="butt" stroke-dasharray="2.98883,2.98883" stroke-miterlimit="10" stroke-linejoin="miter" fill="none" stroke="#0000ff" d="M0 46.2532-1.87968 44.84001-3.75938 43.41182-5.6405 41.96901-7.5202 40.51414-9.3992 39.04903-11.27818 37.57552-13.15717 36.09833-15.0376 34.61932-16.91656 33.13922-18.79842 31.66093-20.67738 30.18669-22.55638 28.72012-24.43608 27.26123-26.31508 25.81294-28.19406 24.37561-30.07448 22.95181-31.95418 21.54118-33.83601 20.14737-35.7143 18.76929-37.59398 17.40874-39.47298 16.06429-41.35196 14.73738-43.23167 13.4273-45.11136 12.13698-46.99107 10.86272-48.87148 9.6064-50.75046 8.36687-52.6323 7.14272-54.51057 5.93576-56.39027 4.74414-58.26927 3.56752-60.14896 2.4048-62.02867 1.25595-63.90765 .11955-65.79091-1.0044-67.66847-2.11703-69.54747-3.22054-71.42645-4.3116-73.30615-5.39352-75.18587-6.4663-77.06555-7.53104-78.94525-8.58846-80.82565-9.6393-82.70465-10.68246-84.58365-11.71977-86.46405-12.7516-88.34375-13.77795-90.22346-14.79918-92.10245-15.81602-93.98215-16.83102-95.86256-17.83946-97.74297-18.84387-99.62267-19.84682-101.50024-20.8461-103.38135-21.84283-105.26035-22.83736-107.14005-23.82935-109.01974-24.81912-110.89873-25.80782-112.78056-26.7954-114.65956-27.77896-116.53784-28.76216-118.41824-29.74428-120.29723-30.72491-122.17694-31.70483-124.05734-32.68364-125.93988-33.66245-127.81816-34.6387-129.69716-35.61496-131.57614-36.5901-133.45586-37.56453-135.33414-38.5386-137.21382-39.51228-139.09352-40.486-140.97393-41.45932-142.85364-42.43155-144.73546-43.40305-146.61374-44.37492-148.49274-45.34569-150.37174-46.31682-152.25142-47.28795-154.13112-48.25835-156.01084-49.22876-157.88982-50.19879-159.77306-51.1692-161.64994-52.13924-163.53034-53.10855-165.40862-54.07785-167.28832-55.04715-169.16802-56.01682-171.04772-56.98613-172.93025-57.95616-174.80854-58.92474-176.68682-59.89333-178.56652-60.86226-180.44622-61.83083-182.32521-62.79941-184.20561-63.76872-186.08461-64.7373"/>
<path transform="matrix(1,0,0,-1,238.022,57.82498)" stroke-width=".59776" stroke-linecap="butt" stroke-dasharray="2.98883,2.98883" stroke-miterlimit="10" stroke-linejoin="miter" fill="none" stroke="#008000" d="M0 24.52516-1.87968 23.52513-3.75938 22.52512-5.6405 21.52473-7.5202 20.52654-9.3992 19.52945-11.27818 18.53416-13.15717 17.53891-15.0376 16.54547-16.91656 15.55275-18.79842 14.56189-20.67738 13.57065-22.55638 12.58342-24.43608 11.59656-26.31508 10.61081-28.19406 9.62651-30.07448 8.64331-31.95418 7.6612-33.83601 6.67873-35.7143 5.70027-37.59398 4.7222-39.47298 3.74413-41.35196 2.7675-43.23167 1.79161-45.11136 .81573-46.99107-.15831-48.87148-1.13274-50.75046-2.10606-52.6323-3.08049-54.51057-4.05162-56.39027-5.02385-58.26927-5.99571-60.14896-6.96648-62.02867-7.9376-63.90765-8.90839-65.79091-9.8799-67.66847-10.8503-69.54747-11.81961-71.42645-12.78963-73.30615-13.75858-75.18587-14.72824-77.06555-15.69792-78.94525-16.66722-80.82565-17.63763-82.70465-18.60548-84.58365-19.57515-86.46405-20.54372-88.34375-21.51193-90.22346-22.48088-92.10245-23.44981-93.98215-24.41838-95.86256-25.38733-97.74297-26.35736-99.62267-27.32484-101.50024-28.29416-103.38135-29.262-105.26035-30.23021-107.14005-31.19843-109.01974-32.16698-110.89873-33.13556-112.78056-34.1045-114.65956-35.07309-116.53784-36.04056-118.41824-37.0084-120.29723-37.97697-122.17694-38.94518-124.05734-39.91376-125.93988-40.88307-127.81816-41.85165-129.69716-42.81876-131.57614-43.7866-133.45586-44.75517-135.33414-45.72337-137.21382-46.69122-139.09352-47.65944-140.97393-48.628-142.85364-49.59622-144.73546-50.56589-146.61374-51.53265-148.49274-52.5012-150.37174-53.46942-152.25142-54.4369-154.13112-55.4051-156.01084-56.37369-157.88982-57.3419-159.77306-58.31084-161.64994-59.27867-163.53034-60.24652-165.40862-61.21474-167.28832-62.18257-169.16802-63.15079-171.04772-64.119-172.93025-65.08832-174.80854-66.05615-176.68682-67.02435-178.56652-67.9922-180.44622-68.96004-182.32521-69.92825-184.20561-70.89647-186.08461-71.8643"/>
<path transform="matrix(1,0,0,-1,238.022,57.82498)" stroke-width=".59776" stroke-linecap="butt" stroke-dasharray="2.98883,2.98883" stroke-miterlimit="10" stroke-linejoin="miter" fill="none" stroke="#ff0000" d="M0 16.90782-1.87968 15.9345-3.75938 14.96225-5.6405 13.99039-7.5202 13.02144-9.3992 12.0536-11.27818 11.08649-13.15717 10.12048-15.0376 9.15593-16.91656 8.19174-18.79842 7.22865-20.67738 6.26445-22.55638 5.30357-24.43608 4.34193-26.31508 3.3814-28.19406 2.42088-30.07448 1.46034-31.95418 .49945-33.83601-.4607-35.7143-1.42122-37.59398-2.38396-39.47298-3.34375-41.35196-4.30464-43.23167-5.26553-45.11136-6.22716-46.99107-7.1888-48.87148-8.15079-50.75046-9.11351-52.6323-10.07698-54.51057-11.04007-56.39027-12.00279-58.26927-12.96661-60.14896-13.93044-62.02867-14.89462-63.90765-15.8588-65.79091-16.82555-67.66847-17.789-69.54747-18.75429-71.42645-19.71957-73.30615-20.68486-75.18587-21.65015-77.06555-22.61652-78.94525-23.58292-80.82565-24.54892-82.70465-25.51529-84.58365-26.48314-86.46405-27.44916-88.34375-28.41628-90.22346-29.38301-92.10245-30.35013-93.98215-31.31651-95.86256-32.284-97.74297-33.25148-99.62267-34.22041-101.50024-35.18643-103.38135-36.15427-105.26035-37.12175-107.14005-38.08923-109.01974-39.0567-110.89873-40.02419-112.78056-40.9924-114.65956-41.96133-116.53784-42.92809-118.41824-43.89555-120.29723-44.86377-122.17694-45.83125-124.05734-46.79909-125.93988-47.76694-127.81816-48.73515-129.69716-49.70335-131.57614-50.67302-133.45586-51.6394-135.33414-52.6076-137.21382-53.57582-139.09352-54.54367-140.97393-55.5115-142.85364-56.47972-144.73546-57.44757-146.61374-58.41652-148.49274-59.3847-150.37174-60.35255-152.25142-61.3204-154.13112-62.28787-156.01084-63.25609-157.88982-64.2243-159.77306-65.19287-161.64994-66.16145-163.53034-67.1293-165.40862-68.09714-167.28832-69.06535-169.16802-70.0332-171.04772-71.00177-172.93025-71.96997-174.80854-72.93782-176.68682-73.90604-178.56652-74.87497-180.44622-75.84355-182.32521-76.81104-184.20561-77.77887-186.08461-78.7467"/>
<path transform="matrix(1,0,0,-1,238.022,57.82498)" stroke-width=".59776" stroke-linecap="butt" stroke-miterlimit="10" stroke-linejoin="miter" fill="none" stroke="#0000ff" d="M0 9.6766-1.87968 8.55994-3.75938 7.44658-5.6405 6.33722-7.5202 5.23264-9.3992 4.13388-11.27818 3.041-13.15717 1.95322-15.0376 .87129-16.91656-.20474-18.79842-1.27496-20.67738-2.34079-22.55638-3.39859-24.43608-4.45126-26.31508-5.49883-28.19406-6.54053-30.07448-7.57747-31.95418-8.60966-33.83601-9.63857-35.7143-10.66162-37.59398-11.6803-39.47298-12.69566-41.35196-13.70738-43.23167-14.7158-45.11136-15.72131-46.99107-16.72318-48.87148-17.72392-50.75046-18.72066-52.6323-19.71481-54.51057-20.70679-56.39027-21.69731-58.26927-22.68599-60.14896-23.67249-62.02867-24.65823-63.90765-25.64182-65.79091-26.62502-67.66847-27.60567-69.54747-28.58665-71.42645-29.56511-73.30615-30.54282-75.18587-31.52017-77.06555-32.4968-78.94525-33.47269-80.82565-34.44821-82.70465-35.42299-84.58365-36.39633-86.46405-37.36964-88.34375-38.34299-90.22346-39.31522-92.10245-40.28745-93.98215-41.2604-95.86256-42.23154-97.74297-43.20232-99.62267-44.17308-101.50024-45.14348-103.38135-46.11426-105.26035-47.08429-107.14005-48.05469-109.01974-49.02473-110.89873-49.9944-112.78056-50.96553-114.65956-51.93448-116.53784-52.90306-118.41824-53.87236-120.29723-54.8413-122.17694-55.81024-124.05734-56.77956-125.93988-57.74959-127.81816-58.71854-129.69716-59.68674-131.57614-60.65494-133.45586-61.62389-135.33414-62.5921-137.21382-63.56067-139.09352-64.52925-140.97393-65.49928-142.85364-66.46677-144.73546-67.4357-146.61374-68.40355-148.49274-69.37177-150.37174-70.34032-152.25142-71.30853-154.13112-72.27711-156.01084-73.24533-157.88982-74.21536-159.77306-75.18246-161.64994-76.15068-163.53034-77.1189-165.40862-78.08746-167.28832-79.05531-169.16802-80.02353-171.04772-80.99173-172.93025-81.9614-174.80854-82.92888-176.68682-83.8971-178.56652-84.8653-180.44622-85.83315-182.32521-86.801-184.20561-87.76956-186.08461-88.7385"/>
<path transform="matrix(1,0,0,-1,238.022,57.82498)" stroke-width=".59776" stroke-linecap="butt" stroke-miterlimit="10" stroke-linejoin="miter" fill="none" stroke="#ff0000" d="M0-4.70575-1.87968-5.71307-3.75938-6.71494-5.6405-7.71129-7.5202-8.70253-9.3992-9.69086-11.27818-10.67113-13.15717-11.64812-15.0376-12.62071-16.91656-13.59074-18.79842-14.55823-20.67738-15.52315-22.55638-16.48624-24.43608-17.44786-26.31508-18.40765-28.19406-19.36636-30.07448-20.32397-31.95418-21.28194-33.83601-22.23918-35.7143-23.19643-37.59398-24.15404-39.47298-25.11163-41.35196-26.06924-43.23167-27.02832-45.11136-27.98665-46.99107-28.94608-48.87148-29.90479-50.75046-30.86458-52.6323-31.82512-54.51057-32.78638-56.39027-33.74873-58.26927-34.71-60.14896-35.67236-62.02867-36.63435-63.90765-37.59709-65.79091-38.56055-67.66847-39.52437-69.54747-40.48854-71.42645-41.4542-73.30615-42.41838-75.18587-43.3833-77.06555-44.34822-78.94525-45.3135-80.82565-46.27951-82.70465-47.24554-84.58365-48.21155-86.46405-49.17793-88.34375-50.14432-90.22346-51.11143-92.10245-52.07854-93.98215-53.04492-95.86256-54.01166-97.74297-54.97842-99.62267-55.94553-101.50024-56.91301-103.38135-57.88084-105.26035-58.8487-107.14005-59.81581-109.01974-60.78291-110.89873-61.75003-112.78056-62.71786-114.65956-63.68571-116.53784-64.6532-118.41824-65.62213-120.29723-66.58961-122.17694-67.5571-124.05734-68.52493-125.93988-69.49242-127.81816-70.46063-129.69716-71.42847-131.57614-72.39632-133.45586-73.36453-135.33414-74.33418-137.21382-75.30093-139.09352-76.26915-140.97393-77.23698-142.85364-78.20483-144.73546-79.17232-146.61374-80.14088-148.49274-81.10873-150.37174-82.07841-152.25142-83.04552-154.13112-84.01337-156.01084-84.98193-157.88982-85.94905-159.77306-86.91725-161.64994-87.88583-163.53034-88.85588-165.40862-89.82225-167.28832-90.79083-169.16802-91.75868-171.04772-92.72615-172.93025-93.69473-174.80854-94.66258-176.68682-95.63077-178.56652-96.59898-180.44622-97.5672-182.32521-98.53688-184.20561-99.50398-186.08461-100.47256"/>
</g>
<path transform="matrix(1,0,0,-1,238.022,57.82498)" stroke-width=".59776" stroke-linecap="butt" stroke-miterlimit="10" stroke-linejoin="miter" fill="none" stroke="#0000ff" d="M-2.11342 44.13977 2.11342 48.36662M-2.11342 48.36662 2.11342 44.13977"/>
<path transform="matrix(1,0,0,-1,238.022,57.82498)" stroke-width=".59776" stroke-linecap="butt" stroke-miterlimit="10" stroke-linejoin="miter" fill="none" stroke="#0000ff" d="M-39.70741 15.2953-35.48056 19.52216M-39.70741 19.52216-35.48056 15.2953"/>
<path transform="matrix(1,0,0,-1,238.022,57.82498)" stroke-width=".59776" stroke-linecap="butt" stroke-miterlimit="10" stroke-linejoin="miter" fill="none" stroke="#0000ff" d="M-77.29929-8.57971-73.07243-4.35286M-77.29929-4.35286-73.07243-8.57971"/>
<path transform="matrix(1,0,0,-1,238.022,57.82498)" stroke-width=".59776" stroke-linecap="butt" stroke-miterlimit="10" stroke-linejoin="miter" fill="none" stroke="#0000ff" d="M-114.894-28.90881-110.66714-24.68198M-114.894-24.68198-110.66714-28.90881"/>
<path transform="matrix(1,0,0,-1,238.022,57.82498)" stroke-width=".59776" stroke-linecap="butt" stroke-miterlimit="10" stroke-linejoin="miter" fill="none" stroke="#0000ff" d="M-152.48516-48.43024-148.2583-44.2034M-152.48516-44.2034-148.2583-48.43024"/>
<path transform="matrix(1,0,0,-1,238.022,57.82498)" stroke-width=".59776" stroke-linecap="butt" stroke-miterlimit="10" stroke-linejoin="miter" fill="none" stroke="#0000ff" d=""/>
<path transform="matrix(1,0,0,-1,238.022,57.82498)" d="M0 27.51399 2.58841 23.03075H-2.58841Z" fill="#008000"/>
<path transform="matrix(1,0,0,-1,238.022,57.82498)" stroke-width=".59776" stroke-linecap="butt" stroke-miterlimit="10" stroke-linejoin="miter" fill="none" stroke="#008000" d="M0 27.51399 2.58841 23.03075H-2.58841Z"/>
<path transform="matrix(1,0,0,-1,238.022,57.82498)" d="M-37.59398 7.71103-35.00557 3.22778H-40.18239Z" fill="#008000"/>
<path transform="matrix(1,0,0,-1,238.022,57.82498)" stroke-width=".59776" stroke-linecap="butt" stroke-miterlimit="10" stroke-linejoin="miter" fill="none" stroke="#008000" d="M-37.59398 7.71103-35.00557 3.22778H-40.18239Z"/>
<path transform="matrix(1,0,0,-1,238.022,57.82498)" d="M-75.18587-11.73941-72.59746-16.22266H-77.77428Z" fill="#008000"/>
<path transform="matrix(1,0,0,-1,238.022,57.82498)" stroke-width=".59776" stroke-linecap="butt" stroke-miterlimit="10" stroke-linejoin="miter" fill="none" stroke="#008000" d="M-75.18587-11.73941-72.59746-16.22266H-77.77428Z"/>
<path transform="matrix(1,0,0,-1,238.022,57.82498)" d="M-112.78056-31.11568-110.19215-35.59892H-115.36897Z" fill="#008000"/>
<path transform="matrix(1,0,0,-1,238.022,57.82498)" stroke-width=".59776" stroke-linecap="butt" stroke-miterlimit="10" stroke-linejoin="miter" fill="none" stroke="#008000" d="M-112.78056-31.11568-110.19215-35.59892H-115.36897Z"/>
<path transform="matrix(1,0,0,-1,238.022,57.82498)" d="M-150.37174-50.48059-147.78333-54.96384H-152.96015Z" fill="#008000"/>
<path transform="matrix(1,0,0,-1,238.022,57.82498)" stroke-width=".59776" stroke-linecap="butt" stroke-miterlimit="10" stroke-linejoin="miter" fill="none" stroke="#008000" d="M-150.37174-50.48059-147.78333-54.96384H-152.96015Z"/>
<path transform="matrix(1,0,0,-1,238.022,57.82498)" stroke-width=".59776" stroke-linecap="butt" stroke-miterlimit="10" stroke-linejoin="miter" fill="none" stroke="#008000" d=""/>
<path transform="matrix(1,0,0,-1,238.022,57.82498)" stroke-width=".59776" stroke-linecap="butt" stroke-miterlimit="10" stroke-linejoin="miter" fill="none" stroke="#ff0000" d="M1.99255 16.90782C1.99255 18.00829 1.10046 18.90038 0 18.90038-1.10046 18.90038-1.99255 18.00829-1.99255 16.90782-1.99255 15.80734-1.10046 14.91527 0 14.91527 1.10046 14.91527 1.99255 15.80734 1.99255 16.90782ZM0 16.90782"/>
<path transform="matrix(1,0,0,-1,238.022,57.82498)" stroke-width=".59776" stroke-linecap="butt" stroke-miterlimit="10" stroke-linejoin="miter" fill="none" stroke="#ff0000" d="M-35.60143-2.38396C-35.60143-1.28348-36.49352-.3914-37.59398-.3914-38.69446-.3914-39.58653-1.28348-39.58653-2.38396-39.58653-3.48442-38.69446-4.37651-37.59398-4.37651-36.49352-4.37651-35.60143-3.48442-35.60143-2.38396ZM-37.59398-2.38396"/>
<path transform="matrix(1,0,0,-1,238.022,57.82498)" stroke-width=".59776" stroke-linecap="butt" stroke-miterlimit="10" stroke-linejoin="miter" fill="none" stroke="#ff0000" d="M-73.19331-21.65015C-73.19331-20.54968-74.08539-19.6576-75.18587-19.6576-76.28633-19.6576-77.17842-20.54968-77.17842-21.65015-77.17842-22.75063-76.28633-23.6427-75.18587-23.6427-74.08539-23.6427-73.19331-22.75063-73.19331-21.65015ZM-75.18587-21.65015"/>
<path transform="matrix(1,0,0,-1,238.022,57.82498)" stroke-width=".59776" stroke-linecap="butt" stroke-miterlimit="10" stroke-linejoin="miter" fill="none" stroke="#ff0000" d="M-110.78801-40.9924C-110.78801-39.89192-111.6801-38.99985-112.78056-38.99985-113.88104-38.99985-114.77312-39.89192-114.77312-40.9924-114.77312-42.09286-113.88104-42.98495-112.78056-42.98495-111.6801-42.98495-110.78801-42.09286-110.78801-40.9924ZM-112.78056-40.9924"/>
<path transform="matrix(1,0,0,-1,238.022,57.82498)" stroke-width=".59776" stroke-linecap="butt" stroke-miterlimit="10" stroke-linejoin="miter" fill="none" stroke="#ff0000" d="M-148.37918-60.35255C-148.37918-59.25209-149.27126-58.36-150.37174-58.36-151.4722-58.36-152.36429-59.25209-152.36429-60.35255-152.36429-61.45303-151.4722-62.34511-150.37174-62.34511-149.27126-62.34511-148.37918-61.45303-148.37918-60.35255ZM-150.37174-60.35255"/>
<path transform="matrix(1,0,0,-1,238.022,57.82498)" stroke-width=".59776" stroke-linecap="butt" stroke-miterlimit="10" stroke-linejoin="miter" fill="none" stroke="#ff0000" d=""/>
<path transform="matrix(1,0,0,-1,238.022,57.82498)" stroke-width=".59776" stroke-linecap="butt" stroke-miterlimit="10" stroke-linejoin="miter" fill="none" stroke="#0000ff" d="M-2.11342 7.56317 2.11342 11.79002M-2.11342 11.79002 2.11342 7.56317"/>
<path transform="matrix(1,0,0,-1,238.022,57.82498)" stroke-width=".59776" stroke-linecap="butt" stroke-miterlimit="10" stroke-linejoin="miter" fill="none" stroke="#0000ff" d="M-39.70741-13.79372-35.48056-9.56686M-39.70741-9.56686-35.48056-13.79372"/>
<path transform="matrix(1,0,0,-1,238.022,57.82498)" stroke-width=".59776" stroke-linecap="butt" stroke-miterlimit="10" stroke-linejoin="miter" fill="none" stroke="#0000ff" d="M-77.29929-33.63359-73.07243-29.40674M-77.29929-29.40674-73.07243-33.63359"/>
<path transform="matrix(1,0,0,-1,238.022,57.82498)" stroke-width=".59776" stroke-linecap="butt" stroke-miterlimit="10" stroke-linejoin="miter" fill="none" stroke="#0000ff" d="M-114.894-53.07896-110.66714-48.85211M-114.894-48.85211-110.66714-53.07896"/>
<path transform="matrix(1,0,0,-1,238.022,57.82498)" stroke-width=".59776" stroke-linecap="butt" stroke-miterlimit="10" stroke-linejoin="miter" fill="none" stroke="#0000ff" d="M-152.48516-72.45375-148.2583-68.2269M-152.48516-68.2269-148.2583-72.45375"/>
<path transform="matrix(1,0,0,-1,238.022,57.82498)" stroke-width=".59776" stroke-linecap="butt" stroke-miterlimit="10" stroke-linejoin="miter" fill="none" stroke="#0000ff" d=""/>
<path transform="matrix(1,0,0,-1,238.022,57.82498)" stroke-width=".59776" stroke-linecap="butt" stroke-miterlimit="10" stroke-linejoin="miter" fill="none" stroke="#ff0000" d="M1.99255-4.70575C1.99255-3.60529 1.10046-2.7132 0-2.7132-1.10046-2.7132-1.99255-3.60529-1.99255-4.70575-1.99255-5.80621-1.10046-6.6983 0-6.6983 1.10046-6.6983 1.99255-5.80621 1.99255-4.70575ZM0-4.70575"/>
<path transform="matrix(1,0,0,-1,238.022,57.82498)" stroke-width=".59776" stroke-linecap="butt" stroke-miterlimit="10" stroke-linejoin="miter" fill="none" stroke="#ff0000" d="M-35.60143-24.15404C-35.60143-23.05356-36.49352-22.16148-37.59398-22.16148-38.69446-22.16148-39.58653-23.05356-39.58653-24.15404-39.58653-25.2545-38.69446-26.14659-37.59398-26.14659-36.49352-26.14659-35.60143-25.2545-35.60143-24.15404ZM-37.59398-24.15404"/>
<path transform="matrix(1,0,0,-1,238.022,57.82498)" stroke-width=".59776" stroke-linecap="butt" stroke-miterlimit="10" stroke-linejoin="miter" fill="none" stroke="#ff0000" d="M-73.19331-43.3833C-73.19331-42.28284-74.08539-41.39075-75.18587-41.39075-76.28633-41.39075-77.17842-42.28284-77.17842-43.3833-77.17842-44.48378-76.28633-45.37585-75.18587-45.37585-74.08539-45.37585-73.19331-44.48378-73.19331-43.3833ZM-75.18587-43.3833"/>
<path transform="matrix(1,0,0,-1,238.022,57.82498)" stroke-width=".59776" stroke-linecap="butt" stroke-miterlimit="10" stroke-linejoin="miter" fill="none" stroke="#ff0000" d="M-110.78801-62.71786C-110.78801-61.6174-111.6801-60.72531-112.78056-60.72531-113.88104-60.72531-114.77312-61.6174-114.77312-62.71786-114.77312-63.81834-113.88104-64.71042-112.78056-64.71042-111.6801-64.71042-110.78801-63.81834-110.78801-62.71786ZM-112.78056-62.71786"/>
<path transform="matrix(1,0,0,-1,238.022,57.82498)" stroke-width=".59776" stroke-linecap="butt" stroke-miterlimit="10" stroke-linejoin="miter" fill="none" stroke="#ff0000" d="M-148.37918-82.07841C-148.37918-80.97794-149.27126-80.08586-150.37174-80.08586-151.4722-80.08586-152.36429-80.97794-152.36429-82.07841-152.36429-83.17888-151.4722-84.07097-150.37174-84.07097-149.27126-84.07097-148.37918-83.17888-148.37918-82.07841ZM-150.37174-82.07841"/>
<path transform="matrix(1,0,0,-1,238.022,57.82498)" stroke-width=".59776" stroke-linecap="butt" stroke-miterlimit="10" stroke-linejoin="miter" fill="none" stroke="#ff0000" d=""/>
<use data-text="&#x1d714;" xlink:href="#font_1_3186" transform="matrix(9.96264,0,0,-9.96264,141.176,193.81299)"/>
<use data-text="&#x1d716;" xlink:href="#font_1_3188" transform="matrix(0,-9.96264,-9.96264,-0,9.707001,93.40798)"/>
<use data-text="&#x1d456;" xlink:href="#font_2_2509" transform="matrix(0,-7.47198,-7.47198,-0,12.198006,89.123989)"/>
<use data-text="&#x1d457;" xlink:href="#font_2_2510" transform="matrix(0,-7.47198,-7.47198,-0,12.198006,86.80019)"/>
<use data-text="&#x1d458;" xlink:href="#font_2_2511" transform="matrix(0,-7.47198,-7.47198,-0,12.198006,83.45274)"/>
<use data-text="&#x1d459;" xlink:href="#font_2_2512" transform="matrix(0,-7.47198,-7.47198,-0,12.198006,79.40293)"/>
<path transform="matrix(1,0,0,-1,238.022,57.82498)" d="M-184.56562-6.40628H-98.95446V48.54802H-184.56562Z" fill="#ffffff" fill-opacity=".8"/>
<path transform="matrix(1,0,0,-1,238.022,57.82498)" stroke-width=".3985" stroke-linecap="butt" stroke-miterlimit="10" stroke-linejoin="miter" fill="none" stroke="#cccccc" d="M-184.56562-6.40628H-98.95446V48.54802H-184.56562Z"/>
<path transform="matrix(1,0,0,-1,56.746999,16.366982)" stroke-width=".59776" stroke-linecap="butt" stroke-dasharray="2.98883,2.98883" stroke-miterlimit="10" stroke-linejoin="miter" fill="none" stroke="#0000ff" d="M0 0H8.50412 17.00826"/>
<path transform="matrix(1,0,0,-1,56.746999,16.366982)" stroke-width=".59776" stroke-linecap="butt" stroke-miterlimit="10" stroke-linejoin="miter" fill="none" stroke="#0000ff" d="M6.39069-2.11342 10.61754 2.11342M6.39069 2.11342 10.61754-2.11342"/>
<use data-text="&#x1d716;" xlink:href="#font_2_3188" transform="matrix(6.97385,0,0,-6.97385,76.046,17.97699)"/>
<use data-text="&#x1d45a;" xlink:href="#font_4_2513" transform="matrix(4.98132,0,0,-4.98132,79.045,19.720993)"/>
<use data-text="&#x1d45b;" xlink:href="#font_4_2514" transform="matrix(4.98132,0,0,-4.98132,82.58173,19.720993)"/>
<use data-text="&#x1d45a;" xlink:href="#font_4_2513" transform="matrix(4.98132,0,0,-4.98132,85.05745,19.720993)"/>
<use data-text="&#x1d45b;" xlink:href="#font_4_2514" transform="matrix(4.98132,0,0,-4.98132,88.594188,19.720993)"/>
<use data-text="(" xlink:href="#font_5_9" transform="matrix(6.97385,0,0,-6.97385,93.099,17.97699)"/>
<use data-text="&#x1d702;" xlink:href="#font_2_3168" transform="matrix(6.97385,0,0,-6.97385,95.421,17.97699)"/>
<use data-text="=" xlink:href="#font_2_62" transform="matrix(6.97385,0,0,-6.97385,100.839679,17.97699)"/>
<use data-text="0" xlink:href="#font_5_17" transform="matrix(6.97385,0,0,-6.97385,105.623,17.97699)"/>
<use data-text="." xlink:href="#font_5_15" transform="matrix(6.97385,0,0,-6.97385,109.109928,17.97699)"/>
<use data-text="1" xlink:href="#font_5_18" transform="matrix(6.97385,0,0,-6.97385,110.853389,17.97699)"/>
<use data-text=")" xlink:href="#font_5_10" transform="matrix(6.97385,0,0,-6.97385,114.34031,17.97699)"/>
<path transform="matrix(1,0,0,-1,56.746995,26.560982)" stroke-width=".59776" stroke-linecap="butt" stroke-dasharray="2.98883,2.98883" stroke-miterlimit="10" stroke-linejoin="miter" fill="none" stroke="#008000" d="M0 0H8.50412 17.00826"/>
<path transform="matrix(1,0,0,-1,56.746995,26.560982)" d="M8.50412 2.98883 11.09253-1.49442H5.91571Z" fill="#008000" fill-opacity=".8"/>
<path transform="matrix(1,0,0,-1,56.746995,26.560982)" stroke-width=".59776" stroke-linecap="butt" stroke-miterlimit="10" stroke-linejoin="miter" fill="none" stroke="#008000" d="M8.50412 2.98883 11.09253-1.49442H5.91571Z"/>
<use data-text="&#x1d716;" xlink:href="#font_2_3188" transform="matrix(6.97385,0,0,-6.97385,76.046,28.17099)"/>
<use data-text="&#x1d45b;" xlink:href="#font_4_2514" transform="matrix(4.98132,0,0,-4.98132,79.045,29.914994)"/>
<use data-text="&#x2113;" xlink:href="#font_4_974" transform="matrix(4.98132,0,0,-4.98132,81.52071,29.914994)"/>
<use data-text="&#x1d45b;" xlink:href="#font_4_2514" transform="matrix(4.98132,0,0,-4.98132,84.4049,29.914994)"/>
<use data-text="&#x2113;" xlink:href="#font_4_974" transform="matrix(4.98132,0,0,-4.98132,86.880619,29.914994)"/>
<use data-text="(" xlink:href="#font_5_9" transform="matrix(6.97385,0,0,-6.97385,91.794,28.17099)"/>
<use data-text="&#x1d702;" xlink:href="#font_2_3168" transform="matrix(6.97385,0,0,-6.97385,94.116,28.17099)"/>
<use data-text="=" xlink:href="#font_2_62" transform="matrix(6.97385,0,0,-6.97385,99.534679,28.17099)"/>
<use data-text="0" xlink:href="#font_5_17" transform="matrix(6.97385,0,0,-6.97385,104.317,28.17099)"/>
<use data-text="." xlink:href="#font_5_15" transform="matrix(6.97385,0,0,-6.97385,107.803928,28.17099)"/>
<use data-text="1" xlink:href="#font_5_18" transform="matrix(6.97385,0,0,-6.97385,109.547389,28.17099)"/>
<use data-text=")" xlink:href="#font_5_10" transform="matrix(6.97385,0,0,-6.97385,113.03431,28.17099)"/>
<path transform="matrix(1,0,0,-1,56.746995,36.754983)" stroke-width=".59776" stroke-linecap="butt" stroke-dasharray="2.98883,2.98883" stroke-miterlimit="10" stroke-linejoin="miter" fill="none" stroke="#ff0000" d="M0 0H8.50412 17.00826"/>
<path transform="matrix(1,0,0,-1,56.746995,36.754983)" stroke-width=".59776" stroke-linecap="butt" stroke-miterlimit="10" stroke-linejoin="miter" fill="none" stroke="#ff0000" d="M10.49667 0C10.49667 1.10046 9.60458 1.99255 8.50412 1.99255 7.40364 1.99255 6.51157 1.10046 6.51157 0 6.51157-1.10046 7.40364-1.99255 8.50412-1.99255 9.60458-1.99255 10.49667-1.10046 10.49667 0ZM8.50412 0"/>
<use data-text="&#x1d716;" xlink:href="#font_2_3188" transform="matrix(6.97385,0,0,-6.97385,76.046,38.36499)"/>
<use data-text="&#x1d45b;" xlink:href="#font_4_2514" transform="matrix(4.98132,0,0,-4.98132,79.045,40.107988)"/>
<use data-text="&#x1d45b;" xlink:href="#font_4_2514" transform="matrix(4.98132,0,0,-4.98132,81.52071,40.107988)"/>
<use data-text="&#x1d45b;" xlink:href="#font_4_2514" transform="matrix(4.98132,0,0,-4.98132,83.99643,40.107988)"/>
<use data-text="&#x1d45b;" xlink:href="#font_4_2514" transform="matrix(4.98132,0,0,-4.98132,86.472148,40.107988)"/>
<use data-text="(" xlink:href="#font_5_9" transform="matrix(6.97385,0,0,-6.97385,90.977,38.36499)"/>
<use data-text="&#x1d702;" xlink:href="#font_2_3168" transform="matrix(6.97385,0,0,-6.97385,93.299,38.36499)"/>
<use data-text="=" xlink:href="#font_2_62" transform="matrix(6.97385,0,0,-6.97385,98.71768,38.36499)"/>
<use data-text="0" xlink:href="#font_5_17" transform="matrix(6.97385,0,0,-6.97385,103.501,38.36499)"/>
<use data-text="." xlink:href="#font_5_15" transform="matrix(6.97385,0,0,-6.97385,106.98792,38.36499)"/>
<use data-text="1" xlink:href="#font_5_18" transform="matrix(6.97385,0,0,-6.97385,108.731388,38.36499)"/>
<use data-text=")" xlink:href="#font_5_10" transform="matrix(6.97385,0,0,-6.97385,112.21831,38.36499)"/>
<path transform="matrix(1,0,0,-1,56.746995,46.948984)" stroke-width=".59776" stroke-linecap="butt" stroke-miterlimit="10" stroke-linejoin="miter" fill="none" stroke="#0000ff" d="M0 0H8.50412 17.00826"/>
<path transform="matrix(1,0,0,-1,56.746995,46.948984)" stroke-width=".59776" stroke-linecap="butt" stroke-miterlimit="10" stroke-linejoin="miter" fill="none" stroke="#0000ff" d="M6.39069-2.11342 10.61754 2.11342M6.39069 2.11342 10.61754-2.11342"/>
<use data-text="&#x1d716;" xlink:href="#font_2_3188" transform="matrix(6.97385,0,0,-6.97385,76.046,48.55899)"/>
<use data-text="&#x1d45a;" xlink:href="#font_4_2513" transform="matrix(4.98132,0,0,-4.98132,79.045,50.301988)"/>
<use data-text="&#x1d45b;" xlink:href="#font_4_2514" transform="matrix(4.98132,0,0,-4.98132,82.58173,50.301988)"/>
<use data-text="&#x1d45a;" xlink:href="#font_4_2513" transform="matrix(4.98132,0,0,-4.98132,85.05745,50.301988)"/>
<use data-text="&#x1d45b;" xlink:href="#font_4_2514" transform="matrix(4.98132,0,0,-4.98132,88.594188,50.301988)"/>
<use data-text="=" xlink:href="#font_2_62" transform="matrix(6.97385,0,0,-6.97385,93.293,48.55899)"/>
<use data-text="&#x1d716;" xlink:href="#font_2_3188" transform="matrix(6.97385,0,0,-6.97385,100.00184,48.55899)"/>
<use data-text="&#x1d45b;" xlink:href="#font_4_2514" transform="matrix(4.98132,0,0,-4.98132,103.006,50.301988)"/>
<use data-text="&#x2113;" xlink:href="#font_4_974" transform="matrix(4.98132,0,0,-4.98132,105.48171,50.301988)"/>
<use data-text="&#x1d45b;" xlink:href="#font_4_2514" transform="matrix(4.98132,0,0,-4.98132,108.3659,50.301988)"/>
<use data-text="&#x2113;" xlink:href="#font_4_974" transform="matrix(4.98132,0,0,-4.98132,110.84161,50.301988)"/>
<use data-text="(" xlink:href="#font_5_9" transform="matrix(6.97385,0,0,-6.97385,115.755,48.55899)"/>
<use data-text="&#x1d702;" xlink:href="#font_2_3168" transform="matrix(6.97385,0,0,-6.97385,118.077,48.55899)"/>
<use data-text="=" xlink:href="#font_2_62" transform="matrix(6.97385,0,0,-6.97385,123.49568,48.55899)"/>
<use data-text="1" xlink:href="#font_5_18" transform="matrix(6.97385,0,0,-6.97385,128.278,48.55899)"/>
<use data-text=")" xlink:href="#font_5_10" transform="matrix(6.97385,0,0,-6.97385,131.76493,48.55899)"/>
<path transform="matrix(1,0,0,-1,56.746995,57.141984)" stroke-width=".59776" stroke-linecap="butt" stroke-miterlimit="10" stroke-linejoin="miter" fill="none" stroke="#ff0000" d="M0 0H8.50412 17.00826"/>
<path transform="matrix(1,0,0,-1,56.746995,57.141984)" stroke-width=".59776" stroke-linecap="butt" stroke-miterlimit="10" stroke-linejoin="miter" fill="none" stroke="#ff0000" d="M10.49667 0C10.49667 1.10046 9.60458 1.99255 8.50412 1.99255 7.40364 1.99255 6.51157 1.10046 6.51157 0 6.51157-1.10046 7.40364-1.99255 8.50412-1.99255 9.60458-1.99255 10.49667-1.10046 10.49667 0ZM8.50412 0"/>
<use data-text="&#x1d716;" xlink:href="#font_2_3188" transform="matrix(6.97385,0,0,-6.97385,76.046,58.751985)"/>
<use data-text="&#x1d45b;" xlink:href="#font_4_2514" transform="matrix(4.98132,0,0,-4.98132,79.045,60.49597)"/>
<use data-text="&#x1d45b;" xlink:href="#font_4_2514" transform="matrix(4.98132,0,0,-4.98132,81.52071,60.49597)"/>
<use data-text="&#x1d45b;" xlink:href="#font_4_2514" transform="matrix(4.98132,0,0,-4.98132,83.99643,60.49597)"/>
<use data-text="&#x1d45b;" xlink:href="#font_4_2514" transform="matrix(4.98132,0,0,-4.98132,86.472148,60.49597)"/>
<use data-text="(" xlink:href="#font_5_9" transform="matrix(6.97385,0,0,-6.97385,90.977,58.751985)"/>
<use data-text="&#x1d702;" xlink:href="#font_2_3168" transform="matrix(6.97385,0,0,-6.97385,93.299,58.751985)"/>
<use data-text="=" xlink:href="#font_2_62" transform="matrix(6.97385,0,0,-6.97385,98.71768,58.751985)"/>
<use data-text="1" xlink:href="#font_5_18" transform="matrix(6.97385,0,0,-6.97385,103.501,58.751985)"/>
<use data-text=")" xlink:href="#font_5_10" transform="matrix(6.97385,0,0,-6.97385,106.98792,58.751985)"/>
</svg>
