<svg xmlns="http://www.w3.org/2000/svg" xmlns:xlink="http://www.w3.org/1999/xlink" xmlns:inkscape="http://www.inkscape.org/namespaces/inkscape" version="1.1" width="245.238" height="203.759" viewBox="0 0 245.238 203.759">
<defs>
<path id="font_1_50" d="M.3939972 0V.01499939C.31900025 .01499939 .29899598 .032989503 .29899598 .07597351V.67277529L.2899933 .67578127 .11099243 .5847931V.5708008L.13798523 .5807953C.1559906 .5877991 .17298889 .59280398 .18299866 .59280398 .20399475 .59280398 .21299744 .57780459 .21299744 .543808V.0949707C.21299744 .039978029 .19198609 .018997193 .117996219 .01499939V0H.3939972Z"/>
<path id="font_1_49" d="M.37998963 .32505799C.37998963 .12722779 .33499146 .012313843 .25 .012313843 .1639862 .012313843 .11999512 .1262207 .11999512 .32904054 .11999512 .5318756 .16499329 .6497803 .24798584 .6497803 .33599855 .6497803 .37998963 .53286746 .37998963 .32505799M.47599793 .3300476C.47599793 .53486636 .3849945 .67578127 .2539978 .67578127 .09298706 .67578127 .023986817 .5128937 .023986817 .3360443 .023986817 .17218018 .07899475-.013671875 .25-.013671875 .41299439-.013671875 .47599793 .15818787 .47599793 .3300476Z"/>
<path id="font_2_1155" d="M.62098696 .22012329V.2861328H.06399536V.22012329H.62098696Z"/>
<path id="font_2_53" d="M.2919922 .23098755H.051986696L.2919922 .573822V.23098755M.47299195 .16699219V.23098755H.36999513V.67578127H.32598878L.011993408 .23098755V.16699219H.2919922V0H.36999513V.16699219H.47299195Z"/>
<path id="font_2_52" d="M.06098938 .50987246C.101989749 .58380129 .147995 .61576846 .20999146 .61576846 .27598573 .61576846 .31799317 .58180239 .31799317 .51387026 .31799317 .45292665 .28599549 .40795899 .23699951 .37998963 .21699524 .36799623 .19099427 .3570099 .15299988 .34402467V.33003236C.20999146 .33003236 .23298645 .32704164 .25498963 .3200531 .32398988 .3000641 .35899354 .2511139 .35899354 .17518616 .35899354 .09025574 .30299378 .022323609 .22898865 .022323609 .20098877 .022323609 .17999268 .027313233 .14299011 .05329895 .114990238 .073272708 .09899902 .07926941 .08198547 .07926941 .05899048 .07926941 .040985109 .06428528 .040985109 .043304445 .040985109 .0073242189 .07998657-.013671875 .15299988-.013671875 .24198914-.013671875 .33699037 .015319824 .3849945 .07926941 .4139862 .11723328 .43099977 .16618347 .43099977 .21913147 .43099977 .27108766 .4149933 .31704713 .3869934 .34802247 .3659973 .36999513 .34799195 .38198854 .3039856 .40097047 .37098695 .44093324 .39698792 .4908905 .39698792 .5388489 .39698792 .6207733 .33399964 .67578127 .24099732 .67578127 .13699341 .67578127 .07398987 .6087799 .04499817 .51387026L.06098938 .50987246Z"/>
<path id="font_2_51" d="M.47399903 .13696289 .45999146 .1429596C.4269867 .08699036 .4059906 .07598877 .3639984 .07598877H.12998963L.29499818 .2519226C.38398744 .34588624 .4229889 .42085267 .4229889 .4998169 .4229889 .59877017 .35099793 .67578127 .23799134 .67578127 .114990238 .67578127 .050994874 .5937805 .02999878 .4768219L.050994874 .47183229C.09098816 .5697937 .12599182 .6017761 .19799805 .6017761 .2829895 .6017761 .33699037 .55178835 .33699037 .4608307 .33699037 .37586976 .30099488 .29989625 .20698548 .200943L.0289917 .011993408V0H.41999818L.47399903 .13696289Z"/>
<path id="font_2_50" d="M.3939972 0V.01499939C.31900025 .01499939 .29899598 .032989503 .29899598 .07597351V.67277529L.2899933 .67578127 .11099243 .5847931V.5708008L.13798523 .5807953C.1559906 .5877991 .17298889 .59280398 .18299866 .59280398 .20399475 .59280398 .21299744 .57780459 .21299744 .543808V.0949707C.21299744 .039978029 .19198609 .018997193 .117996219 .01499939V0H.3939972Z"/>
<path id="font_2_49" d="M.37998963 .32505799C.37998963 .12722779 .33499146 .012313843 .25 .012313843 .1639862 .012313843 .11999512 .1262207 .11999512 .32904054 .11999512 .5318756 .16499329 .6497803 .24798584 .6497803 .33599855 .6497803 .37998963 .53286746 .37998963 .32505799M.47599793 .3300476C.47599793 .53486636 .3849945 .67578127 .2539978 .67578127 .09298706 .67578127 .023986817 .5128937 .023986817 .3360443 .023986817 .17218018 .07899475-.013671875 .25-.013671875 .41299439-.013671875 .47599793 .15818787 .47599793 .3300476Z"/>
<clipPath id="clip_3">
<path transform="matrix(1,0,0,-1,232.872,39.136995)" d="M-185.4424-131.01969H8.82977V30.377H-185.4424Z"/>
</clipPath>
<path id="font_1_3186" d="M.46499635 .4252472C.5419922 .4162445 .58099368 .38824464 .58099368 .2922516 .58099368 .20625305 .5039978 .019256592 .41600038 .019256592 .36299134 .019256592 .34599305 .069244388 .34599305 .11924744 .38198854 .17124939 .42399598 .25024415 .42399598 .31425477 .42399598 .33924867 .4099884 .36125184 .3909912 .36125184 .31900025 .36125184 .2939911 .24824524 .2939911 .17524719 .2939911 .16125489 .29499818 .13925171 .29699708 .12425232 .28399659 .07824707 .22799683 .019256592 .16999817 .019256592 .125 .019256592 .101989749 .06625366 .101989749 .11224365 .101989749 .28025819 .21299744 .4252472 .33699037 .4252472L.33399964 .44125367H.31799317C.14099121 .44125367 .019989014 .31225587 .019989014 .1502533 .019989014 .08125305 .055999757-.0107421879 .1579895-.0107421879 .22399903-.0107421879 .2709961 .028244019 .31199647 .07824707 .31599427 .027252198 .35699464-.0107421879 .41600038-.0107421879 .519989-.0107421879 .6609955 .11024475 .6609955 .28025819 .6609955 .3982544 .58599856 .44125367 .47099305 .44125367L.46499635 .4252472Z"/>
<path id="font_1_3188" d="M.42999269 .44140626H.4149933C.41099549 .43240357 .4039917 .42140199 .3919983 .42140199 .3639984 .42140199 .35798646 .44140626 .30899049 .44140626 .1539917 .44140626 .039993287 .2831421 .039993287 .1411438 .039993287 .05822754 .085998538-.0107421879 .17999268-.0107421879 .2630005-.0107421879 .32099916 .038253786 .37399293 .09819031L.3619995 .11216736C.32699586 .07821655 .27598573 .04425049 .21798706 .04425049 .16299439 .04425049 .12599182 .081207279 .12599182 .1451416 .12599182 .17010498 .12599182 .19108582 .1329956 .21105957H.31799317L.32299806 .24707031H.14199829C.1639862 .3171997 .22099304 .4143982 .30299378 .4143982 .37199403 .4143982 .3889923 .35528565 .3959961 .30918885H.41099549L.42999269 .44140626Z"/>
<path id="font_2_2509" d="M.22698975 .4412079 .068984989 .41921998 .07199097 .4032135C.07899475 .4052124 .09098816 .4072113 .099990848 .4072113 .12298584 .4072113 .1309967 .40222169 .1309967 .3852234 .1309967 .3822174 .12998963 .37521363 .1289978 .37321473 .049987794 .0662384 .049987794 .04724121 .049987794 .035247804 .049987794 .008255005 .06199646-.0107421879 .08999634-.0107421879 .13899231-.0107421879 .18899536 .049240114 .22399903 .09423828L.21099854 .10424805C.1749878 .06524658 .16899109 .053253175 .14698792 .053253175 .13999939 .053253175 .13398743 .056243898 .13398743 .06324768 .13398743 .06724548 .13398743 .071243289 .1349945 .07723999L.22698975 .4412079M.25698854 .5662079C.25698854 .5912018 .23498535 .61621096 .20899964 .61621096 .17999268 .61621096 .16099549 .5912018 .16099549 .5662079 .16099549 .5402069 .17999268 .52020266 .20899964 .52020266 .23498535 .52020266 .25698854 .5402069 .25698854 .5662079Z"/>
<path id="font_2_2510" d="M.35099793 .44114686 .19299317 .4131317 .19599915 .39611817C.20298767 .39912416 .21499634 .40112306 .22299195 .40112306 .24499512 .40112306 .25498963 .39111329 .25498963 .3791046L.16299439 .015853882C.13899231-.080200199 .10598755-.15625 .05999756-.15625 .054992677-.15625 .049987794-.1502533 .049987794-.1462555 .049987794-.13023377 .06599426-.12724304 .06599426-.11222839 .06599426-.08921814 .049987794-.07420349 .0309906-.07420349-.0040130617-.07420349-.01600647-.10421753-.01600647-.12623596-.01600647-.1542511 .0039978029-.18725586 .056991579-.18725586 .16499329-.18725586 .22099304-.07220459 .24299622 .015853882L.35099793 .44114686M.37199403 .5662079C.37199403 .5912018 .34999085 .61621096 .32398988 .61621096 .29499818 .61621096 .27598573 .5912018 .27598573 .5662079 .27598573 .5402069 .29499818 .52020266 .32398988 .52020266 .34999085 .52020266 .37199403 .5402069 .37199403 .5662079Z"/>
<path id="font_2_2511" d="M.5269928 .42797853H.33299256L.32899476 .41596986H.34098817C.35099793 .41596986 .36698915 .40898133 .36698915 .39697267 .36698915 .38397218 .35699464 .37097169 .34599305 .36097718L.1789856 .21199036 .2919922 .66796877 .13398743 .6429596 .13699341 .6289673C.14498902 .6309662 .15499878 .6309662 .1639862 .6309662 .18598938 .6309662 .19599915 .6199646 .19599915 .608963 .19599915 .6019745 .19499207 .5949707 .19299317 .588974L.04499817 0H.12098694L.1659851 .1659851 .22200012 .21498108 .2849884 .067993167C.29599 .042251588 .31698609-.0107421879 .36299134-.0107421879 .43099977-.0107421879 .47799684 .09623718 .48999024 .11721802L.47499085 .1282196C.45298768 .098236087 .43099977 .055252077 .40098573 .055252077 .375 .055252077 .36299134 .07923889 .34799195 .114227298L.28399659 .2661438 .3899994 .35810853C.42799378 .39108277 .45599366 .40907289 .522995 .41607667L.5269928 .42797853Z"/>
<path id="font_2_2512" d="M.27799989 .66796877 .12098694 .6449585 .12399292 .62997439C.13198853 .6309662 .14399719 .6329651 .15098572 .6329651 .17399597 .6329651 .18199158 .6229706 .18199158 .6109772 .18199158 .60798647 .18199158 .59999087 .1789856 .58699038L.050994874 .07720947C.04798889 .067214969 .04499817 .053222658 .04499817 .041229249 .04499817 .016220093 .053985597-.009765625 .083999637-.009765625 .14199829-.009765625 .18499756 .056228639 .21899414 .096206668L.20298767 .10820007C.19400025 .09220886 .1639862 .053222658 .14099121 .053222658 .1329956 .053222658 .1289978 .05921936 .1289978 .066223148 .1289978 .07321167 .12998963 .07720947 .12998963 .07720947L.27799989 .66796877Z"/>
<path id="font_1_549" d="M-.0940094 .63790896C-.11100769 .6009064-.12400818 .58691409-.14700318 .58691409-.16700745 .58691409-.18101502 .59291079-.22401428 .61491397-.2480011 .627121-.27200318 .6331177-.29400636 .6331177-.3440094 .63290408-.38000489 .59690859-.39500428 .5319061H-.36601258C-.355011 .56311038-.3380127 .578125-.31500245 .578125-.29701234 .578125-.28900147 .57411196-.25100709 .5561218-.21000672 .53590396-.19500733 .5319061-.17001343 .5319061-.11500549 .5319061-.086013797 .5619049-.06500244 .63790896H-.0940094Z"/>
<path id="font_4_2479" d="M.40499879 .6122284C.42099 .6142273 .44400025 .6152344 .46398927 .6152344 .61099246 .6152344 .6439972 .47816468 .6439972 .36312867 .6439972 .22207642 .5649872 .037994386 .37298585 .037994386 .33799745 .037994386 .27799989 .039993287 .27799989 .08100891 .27799989 .08401489 .27799989 .089019779 .2829895 .10803223L.40499879 .6122284M.19400025 .65322878 .18899536 .63623049H.21398926C.272995 .63623049 .29100038 .6212311 .29100038 .59921267 .29100038 .59220889 .2889862 .5832062 .2869873 .5752106L.16499329 .07801819C.15699768 .044006349 .13398743 .015991211 .05999756 .015991211H.041992189L.037994386 0H.34399415C.60198977 0 .7649994 .16705323 .7649994 .37812806 .7649994 .5502014 .6639862 .65322878 .47599793 .65322878H.19400025Z"/>
<path id="font_4_51" d="M.47399903 .13696289 .45999146 .1429596C.4269867 .08699036 .4059906 .07598877 .3639984 .07598877H.12998963L.29499818 .2519226C.38398744 .34588624 .4229889 .42085267 .4229889 .4998169 .4229889 .59877017 .35099793 .67578127 .23799134 .67578127 .114990238 .67578127 .050994874 .5937805 .02999878 .4768219L.050994874 .47183229C.09098816 .5697937 .12599182 .6017761 .19799805 .6017761 .2829895 .6017761 .33699037 .55178835 .33699037 .4608307 .33699037 .37586976 .30099488 .29989625 .20698548 .200943L.0289917 .011993408V0H.41999818L.47399903 .13696289Z"/>
<path id="font_4_52" d="M.06098938 .50987246C.101989749 .58380129 .147995 .61576846 .20999146 .61576846 .27598573 .61576846 .31799317 .58180239 .31799317 .51387026 .31799317 .45292665 .28599549 .40795899 .23699951 .37998963 .21699524 .36799623 .19099427 .3570099 .15299988 .34402467V.33003236C.20999146 .33003236 .23298645 .32704164 .25498963 .3200531 .32398988 .3000641 .35899354 .2511139 .35899354 .17518616 .35899354 .09025574 .30299378 .022323609 .22898865 .022323609 .20098877 .022323609 .17999268 .027313233 .14299011 .05329895 .114990238 .073272708 .09899902 .07926941 .08198547 .07926941 .05899048 .07926941 .040985109 .06428528 .040985109 .043304445 .040985109 .0073242189 .07998657-.013671875 .15299988-.013671875 .24198914-.013671875 .33699037 .015319824 .3849945 .07926941 .4139862 .11723328 .43099977 .16618347 .43099977 .21913147 .43099977 .27108766 .4149933 .31704713 .3869934 .34802247 .3659973 .36999513 .34799195 .38198854 .3039856 .40097047 .37098695 .44093324 .39698792 .4908905 .39698792 .5388489 .39698792 .6207733 .33399964 .67578127 .24099732 .67578127 .13699341 .67578127 .07398987 .6087799 .04499817 .51387026L.06098938 .50987246Z"/>
<path id="font_1_41" d="M.3039856-.16122437C.1639862-.04423523 .13398743 .06877136 .13398743 .254776 .13398743 .44776917 .16499329 .5407715 .3039856 .6597748L.29499818 .67578127C.1349945 .58078 .04798889 .43676759 .04798889 .25177003 .04798889 .08177185 .13398743-.0872345 .2919922-.17723084L.3039856-.16122437Z"/>
<path id="font_1_42" d="M.0289917 .6597748C.17399597 .54577639 .19898987 .43077088 .19898987 .24377442 .19898987 .04977417 .17098999-.04423523 .0289917-.16122437L.037994386-.17723084C.19699097-.08023071 .2849884 .061767579 .2849884 .24676514 .2849884 .41677857 .19400025 .58377078 .040985109 .67578127L.0289917 .6597748Z"/>
</defs>
<path transform="matrix(1,0,0,-1,232.872,39.136995)" stroke-width=".3985" stroke-linecap="butt" stroke-miterlimit="10" stroke-linejoin="miter" fill="none" stroke="#cccccc" d="M-183.45157-131.01969V30.377M-180.89142-131.01969V30.377M-178.63243-131.01969V30.377M-176.61196-131.01969V30.377M-163.32077-131.01969V30.377M-155.54602-131.01969V30.377M-150.0296-131.01969V30.377M-145.7508-131.01969V30.377M-142.2542-131.01969V30.377M-139.29859-131.01969V30.377M-136.73844-131.01969V30.377M-134.47945-131.01969V30.377M-132.45897-131.01969V30.377M-119.16779-131.01969V30.377M-111.39304-131.01969V30.377M-105.87662-131.01969V30.377M-101.59781-131.01969V30.377M-98.1012-131.01969V30.377M-95.14558-131.01969V30.377M-92.58543-131.01969V30.377M-90.32645-131.01969V30.377M-88.30597-131.01969V30.377M-75.01479-131.01969V30.377M-67.24005-131.01969V30.377M-61.72363-131.01969V30.377M-57.44482-131.01969V30.377M-53.94821-131.01969V30.377M-50.9926-131.01969V30.377M-48.43245-131.01969V30.377M-46.17346-131.01969V30.377M-44.15298-131.01969V30.377M-30.8618-131.01969V30.377M-23.08705-131.01969V30.377M-17.57063-131.01969V30.377M-13.29182-131.01969V30.377M-9.79523-131.01969V30.377M-6.8396-131.01969V30.377M-4.27945-131.01969V30.377M-2.02048-131.01969V30.377"/>
<path transform="matrix(1,0,0,-1,232.872,39.136995)" stroke-width=".3985" stroke-linecap="butt" stroke-miterlimit="10" stroke-linejoin="miter" fill="none" stroke="#cccccc" d="M-176.61196-131.01969V30.377M-132.45897-131.01969V30.377M-88.30597-131.01969V30.377M-44.15298-131.01969V30.377M0-131.01969V30.377"/>
<path transform="matrix(1,0,0,-1,232.872,39.136995)" stroke-width=".3985" stroke-linecap="butt" stroke-miterlimit="10" stroke-linejoin="miter" fill="none" stroke="#cccccc" d="M-185.4424-128.58165H8.82977M-185.4424-125.74837H8.82977M-185.4424-123.43301H8.82977M-185.4424-121.4759H8.82977M-185.4424-119.78065H8.82977M-185.4424-118.28482H8.82977M-185.4424-116.94693H8.82977M-185.4424-108.14592H8.82977M-185.4424-102.99773H8.82977M-185.4424-99.34492H8.82977M-185.4424-96.51164H8.82977M-185.4424-94.19629H8.82977M-185.4424-92.23917H8.82977M-185.4424-90.54391H8.82977M-185.4424-89.0481H8.82977M-185.4424-87.71019H8.82977M-185.4424-78.9092H8.82977M-185.4424-73.761H8.82977M-185.4424-70.10818H8.82977M-185.4424-67.2749H8.82977M-185.4424-64.95955H8.82977M-185.4424-63.00243H8.82977M-185.4424-61.30719H8.82977M-185.4424-59.81136H8.82977M-185.4424-58.47346H8.82977M-185.4424-49.67245H8.82977M-185.4424-44.52426H8.82977M-185.4424-40.87146H8.82977M-185.4424-38.03816H8.82977M-185.4424-35.72282H8.82977M-185.4424-33.7657H8.82977M-185.4424-32.07045H8.82977M-185.4424-30.57462H8.82977M-185.4424-29.23672H8.82977M-185.4424-20.43573H8.82977M-185.4424-15.28752H8.82977M-185.4424-11.63472H8.82977M-185.4424-8.80144H8.82977M-185.4424-6.48608H8.82977M-185.4424-4.52896H8.82977M-185.4424-2.83371H8.82977M-185.4424-1.33789H8.82977M-185.4424 0H8.82977M-185.4424 8.80098H8.82977M-185.4424 13.94917H8.82977M-185.4424 17.60199H8.82977M-185.4424 20.43527H8.82977M-185.4424 22.75063H8.82977M-185.4424 24.70773H8.82977M-185.4424 26.40298H8.82977M-185.4424 27.89882H8.82977"/>
<path transform="matrix(1,0,0,-1,232.872,39.136995)" stroke-width=".3985" stroke-linecap="butt" stroke-miterlimit="10" stroke-linejoin="miter" fill="none" stroke="#cccccc" d="M-185.4424-116.94693H8.82977M-185.4424-87.71019H8.82977M-185.4424-58.47346H8.82977M-185.4424-29.23672H8.82977M-185.4424 0H8.82977M-185.4424 29.23672H8.82977"/>
<path transform="matrix(1,0,0,-1,232.872,39.136995)" stroke-width=".19925" stroke-linecap="butt" stroke-miterlimit="10" stroke-linejoin="miter" fill="none" stroke="#000000" d="M-183.45157-133.84763V-131.01969M-180.89142-133.84763V-131.01969M-178.63243-133.84763V-131.01969M-176.61196-133.84763V-131.01969M-163.32077-133.84763V-131.01969M-155.54602-133.84763V-131.01969M-150.0296-133.84763V-131.01969M-145.7508-133.84763V-131.01969M-142.2542-133.84763V-131.01969M-139.29859-133.84763V-131.01969M-136.73844-133.84763V-131.01969M-134.47945-133.84763V-131.01969M-132.45897-133.84763V-131.01969M-119.16779-133.84763V-131.01969M-111.39304-133.84763V-131.01969M-105.87662-133.84763V-131.01969M-101.59781-133.84763V-131.01969M-98.1012-133.84763V-131.01969M-95.14558-133.84763V-131.01969M-92.58543-133.84763V-131.01969M-90.32645-133.84763V-131.01969M-88.30597-133.84763V-131.01969M-75.01479-133.84763V-131.01969M-67.24005-133.84763V-131.01969M-61.72363-133.84763V-131.01969M-57.44482-133.84763V-131.01969M-53.94821-133.84763V-131.01969M-50.9926-133.84763V-131.01969M-48.43245-133.84763V-131.01969M-46.17346-133.84763V-131.01969M-44.15298-133.84763V-131.01969M-30.8618-133.84763V-131.01969M-23.08705-133.84763V-131.01969M-17.57063-133.84763V-131.01969M-13.29182-133.84763V-131.01969M-9.79523-133.84763V-131.01969M-6.8396-133.84763V-131.01969M-4.27945-133.84763V-131.01969M-2.02048-133.84763V-131.01969"/>
<path transform="matrix(1,0,0,-1,232.872,39.136995)" stroke-width=".19925" stroke-linecap="butt" stroke-miterlimit="10" stroke-linejoin="miter" fill="none" stroke="#000000" d="M-176.61196-135.26137V-131.01969M-132.45897-135.26137V-131.01969M-88.30597-135.26137V-131.01969M-44.15298-135.26137V-131.01969M0-135.26137V-131.01969"/>
<path transform="matrix(1,0,0,-1,232.872,39.136995)" stroke-width=".19925" stroke-linecap="butt" stroke-miterlimit="10" stroke-linejoin="miter" fill="none" stroke="#000000" d="M-188.26799-128.58165H-185.4424M-188.26799-125.74837H-185.4424M-188.26799-123.43301H-185.4424M-188.26799-121.4759H-185.4424M-188.26799-119.78065H-185.4424M-188.26799-118.28482H-185.4424M-188.26799-116.94693H-185.4424M-188.26799-108.14592H-185.4424M-188.26799-102.99773H-185.4424M-188.26799-99.34492H-185.4424M-188.26799-96.51164H-185.4424M-188.26799-94.19629H-185.4424M-188.26799-92.23917H-185.4424M-188.26799-90.54391H-185.4424M-188.26799-89.0481H-185.4424M-188.26799-87.71019H-185.4424M-188.26799-78.9092H-185.4424M-188.26799-73.761H-185.4424M-188.26799-70.10818H-185.4424M-188.26799-67.2749H-185.4424M-188.26799-64.95955H-185.4424M-188.26799-63.00243H-185.4424M-188.26799-61.30719H-185.4424M-188.26799-59.81136H-185.4424M-188.26799-58.47346H-185.4424M-188.26799-49.67245H-185.4424M-188.26799-44.52426H-185.4424M-188.26799-40.87146H-185.4424M-188.26799-38.03816H-185.4424M-188.26799-35.72282H-185.4424M-188.26799-33.7657H-185.4424M-188.26799-32.07045H-185.4424M-188.26799-30.57462H-185.4424M-188.26799-29.23672H-185.4424M-188.26799-20.43573H-185.4424M-188.26799-15.28752H-185.4424M-188.26799-11.63472H-185.4424M-188.26799-8.80144H-185.4424M-188.26799-6.48608H-185.4424M-188.26799-4.52896H-185.4424M-188.26799-2.83371H-185.4424M-188.26799-1.33789H-185.4424M-188.26799 0H-185.4424M-188.26799 8.80098H-185.4424M-188.26799 13.94917H-185.4424M-188.26799 17.60199H-185.4424M-188.26799 20.43527H-185.4424M-188.26799 22.75063H-185.4424M-188.26799 24.70773H-185.4424M-188.26799 26.40298H-185.4424M-188.26799 27.89882H-185.4424"/>
<path transform="matrix(1,0,0,-1,232.872,39.136995)" stroke-width=".19925" stroke-linecap="butt" stroke-miterlimit="10" stroke-linejoin="miter" fill="none" stroke="#000000" d="M-189.68013-116.94693H-185.4424M-189.68013-87.71019H-185.4424M-189.68013-58.47346H-185.4424M-189.68013-29.23672H-185.4424M-189.68013 0H-185.4424M-189.68013 29.23672H-185.4424"/>
<path transform="matrix(1,0,0,-1,232.872,39.136995)" stroke-width=".3985" stroke-linecap="butt" stroke-miterlimit="10" stroke-linejoin="miter" fill="none" stroke="#000000" d="M-185.4424-131.01969V30.377H8.82977V-131.01969H-185.4424Z"/>
<use data-text="1" xlink:href="#font_1_50" transform="matrix(9.96264,0,0,-9.96264,46.648988,186.95299)"/>
<use data-text="0" xlink:href="#font_1_49" transform="matrix(9.96264,0,0,-9.96264,51.630308,186.95299)"/>
<use data-text="&#x2212;" xlink:href="#font_2_1155" transform="matrix(7.47198,0,0,-7.47198,56.611989,182.96799)"/>
<use data-text="4" xlink:href="#font_2_53" transform="matrix(7.47198,0,0,-7.47198,61.730295,182.96799)"/>
<use data-text="1" xlink:href="#font_1_50" transform="matrix(9.96264,0,0,-9.96264,90.80199,186.95299)"/>
<use data-text="0" xlink:href="#font_1_49" transform="matrix(9.96264,0,0,-9.96264,95.78331,186.95299)"/>
<use data-text="&#x2212;" xlink:href="#font_2_1155" transform="matrix(7.47198,0,0,-7.47198,100.763988,182.96799)"/>
<use data-text="3" xlink:href="#font_2_52" transform="matrix(7.47198,0,0,-7.47198,105.88229,182.96799)"/>
<use data-text="1" xlink:href="#font_1_50" transform="matrix(9.96264,0,0,-9.96264,134.954,186.95299)"/>
<use data-text="0" xlink:href="#font_1_49" transform="matrix(9.96264,0,0,-9.96264,139.93532,186.95299)"/>
<use data-text="&#x2212;" xlink:href="#font_2_1155" transform="matrix(7.47198,0,0,-7.47198,144.917,182.96799)"/>
<use data-text="2" xlink:href="#font_2_51" transform="matrix(7.47198,0,0,-7.47198,150.03531,182.96799)"/>
<use data-text="1" xlink:href="#font_1_50" transform="matrix(9.96264,0,0,-9.96264,179.107,186.95299)"/>
<use data-text="0" xlink:href="#font_1_49" transform="matrix(9.96264,0,0,-9.96264,184.08832,186.95299)"/>
<use data-text="&#x2212;" xlink:href="#font_2_1155" transform="matrix(7.47198,0,0,-7.47198,189.069,182.96799)"/>
<use data-text="1" xlink:href="#font_2_50" transform="matrix(7.47198,0,0,-7.47198,194.1873,182.96799)"/>
<use data-text="1" xlink:href="#font_1_50" transform="matrix(9.96264,0,0,-9.96264,225.818,186.95299)"/>
<use data-text="0" xlink:href="#font_1_49" transform="matrix(9.96264,0,0,-9.96264,230.79932,186.95299)"/>
<use data-text="0" xlink:href="#font_2_49" transform="matrix(7.47198,0,0,-7.47198,235.781,182.96799)"/>
<use data-text="1" xlink:href="#font_1_50" transform="matrix(9.96264,0,0,-9.96264,20.44899,160.53099)"/>
<use data-text="0" xlink:href="#font_1_49" transform="matrix(9.96264,0,0,-9.96264,25.43031,160.53099)"/>
<use data-text="&#x2212;" xlink:href="#font_2_1155" transform="matrix(7.47198,0,0,-7.47198,30.411992,156.54599)"/>
<use data-text="4" xlink:href="#font_2_53" transform="matrix(7.47198,0,0,-7.47198,35.530298,156.54599)"/>
<use data-text="1" xlink:href="#font_1_50" transform="matrix(9.96264,0,0,-9.96264,20.44899,131.29499)"/>
<use data-text="0" xlink:href="#font_1_49" transform="matrix(9.96264,0,0,-9.96264,25.43031,131.29499)"/>
<use data-text="&#x2212;" xlink:href="#font_2_1155" transform="matrix(7.47198,0,0,-7.47198,30.411992,127.309978)"/>
<use data-text="3" xlink:href="#font_2_52" transform="matrix(7.47198,0,0,-7.47198,35.530298,127.309978)"/>
<use data-text="1" xlink:href="#font_1_50" transform="matrix(9.96264,0,0,-9.96264,20.44899,102.05801)"/>
<use data-text="0" xlink:href="#font_1_49" transform="matrix(9.96264,0,0,-9.96264,25.43031,102.05801)"/>
<use data-text="&#x2212;" xlink:href="#font_2_1155" transform="matrix(7.47198,0,0,-7.47198,30.411992,98.073009)"/>
<use data-text="2" xlink:href="#font_2_51" transform="matrix(7.47198,0,0,-7.47198,35.530298,98.073009)"/>
<use data-text="1" xlink:href="#font_1_50" transform="matrix(9.96264,0,0,-9.96264,20.44899,72.82199)"/>
<use data-text="0" xlink:href="#font_1_49" transform="matrix(9.96264,0,0,-9.96264,25.43031,72.82199)"/>
<use data-text="&#x2212;" xlink:href="#font_2_1155" transform="matrix(7.47198,0,0,-7.47198,30.411992,68.83699)"/>
<use data-text="1" xlink:href="#font_2_50" transform="matrix(7.47198,0,0,-7.47198,35.530298,68.83699)"/>
<use data-text="1" xlink:href="#font_1_50" transform="matrix(9.96264,0,0,-9.96264,25.567002,43.586)"/>
<use data-text="0" xlink:href="#font_1_49" transform="matrix(9.96264,0,0,-9.96264,30.54832,43.586)"/>
<use data-text="0" xlink:href="#font_2_49" transform="matrix(7.47198,0,0,-7.47198,35.53,39.600999)"/>
<use data-text="1" xlink:href="#font_1_50" transform="matrix(9.96264,0,0,-9.96264,25.567002,14.348999)"/>
<use data-text="0" xlink:href="#font_1_49" transform="matrix(9.96264,0,0,-9.96264,30.54832,14.348999)"/>
<use data-text="1" xlink:href="#font_2_50" transform="matrix(7.47198,0,0,-7.47198,35.53,10.363998)"/>
<g clip-path="url(#clip_3)">
<path transform="matrix(1,0,0,-1,232.872,39.136995)" stroke-width=".59776" stroke-linecap="butt" stroke-dasharray="2.98883,2.98883" stroke-miterlimit="10" stroke-linejoin="miter" fill="none" stroke="#0000ff" d="M0 23.04016-1.78401 21.61703-3.56802 20.19124-5.35336 18.76501-7.13737 17.33788-8.92073 15.91609-10.70407 14.49745-12.48741 13.08325-14.2721 11.67442-16.05544 10.27274-17.84148 8.87816-19.6248 7.48984-21.40814 6.11313-23.19215 4.744-24.97551 3.38469-26.75885 2.03427-28.54353 .69235-30.32755-.63882-32.11359-1.962-33.89624-3.27895-35.68025-4.58295-37.4636-5.88025-39.24693-7.16954-41.03096-8.45033-42.81497-9.7249-44.59898-10.9932-46.38367-12.25572-48.167-13.51021-49.95303-14.75978-51.73572-16.00354-53.51973-17.24242-55.30305-18.47726-57.08707-19.70766-58.87108-20.93448-60.65443-22.15773-62.44182-23.37607-64.2238-24.5922-66.00716-25.80519-67.79048-27.0155-69.5745-28.22359-71.3585-29.42944-73.14252-30.63306-74.92653-31.83492-76.71123-33.03586-78.49457-34.23367-80.2779-35.4306-82.06259-36.6262-83.8466-37.82-85.63063-39.01338-87.41396-40.20586-89.19798-41.39833-90.98267-42.58856-92.76735-43.77701-94.55136-44.96593-96.33334-46.15349-98.11871-47.34105-99.90205-48.52815-101.68607-49.71617-103.47008-50.9015-105.25343-52.08684-107.03946-53.27219-108.8228-54.4566-110.60547-55.64105-112.39015-56.82549-114.1735-58.00949-115.9575-59.19348-117.74219-60.37703-119.5289-61.56236-121.31157-62.74368-123.09491-63.92679-124.87823-65.10944-126.66225-66.2921-128.44493-67.4743-130.22895-68.65697-132.01296-69.83917-133.79764-71.02272-135.58165-72.2045-137.36769-73.38625-139.15036-74.56802-140.9337-75.74977-142.71703-76.93155-144.50104-78.11331-146.28507-79.29597-148.06908-80.4773-149.85242-81.65994-151.6398-82.84038-153.42113-84.02213-155.20581-85.20345-156.98847-86.38522-158.77248-87.56653-160.55649-88.7483-162.3405-89.93007-164.12723-91.11272-165.90988-92.29448-167.69257-93.47446-169.47658-94.65668-171.26059-95.83755-173.04392-97.01843-174.82862-98.20018-176.61196-99.38329"/>
<path transform="matrix(1,0,0,-1,232.872,39.136995)" stroke-width=".59776" stroke-linecap="butt" stroke-miterlimit="10" stroke-linejoin="miter" fill="none" stroke="#0000ff" d="M0 16.34349-1.78401 14.73926-3.56802 13.13503-5.35336 11.53122-7.13737 9.931-8.92073 8.33434-10.70407 6.74973-12.48741 5.17317-14.2721 3.60818-16.05544 2.05524-17.84148 .51614-19.6248-1.00777-21.40814-2.51653-23.19215-4.01057-24.97551-5.48679-26.75885-6.94781-28.54353-8.39323-30.32755-9.8226-32.11359-11.23677-33.89624-12.63715-35.68025-14.02101-37.4636-15.39148-39.24693-16.749-41.03096-18.09406-42.81497-19.42749-44.59898-20.75111-46.38367-22.06093-48.167-23.3627-49.95303-24.65465-51.73572-25.93724-53.51973-27.21223-55.30305-28.48055-57.08707-29.74083-58.87108-30.9953-60.65443-32.24489-62.44182-33.48688-64.2238-34.72351-66.00716-35.95703-67.79048-37.18518-69.5745-38.40933-71.3585-39.63036-73.14252-40.84735-74.92653-42.06303-76.71123-43.27425-78.49457-44.48322-80.2779-45.68907-82.06259-46.89314-83.8466-48.09543-85.63063-49.29593-87.41396-50.49597-89.19798-51.69246-90.98267-52.88808-92.76735-54.08276-94.55136-55.27568-96.33334-56.46815-98.11871-57.65973-99.90205-58.84998-101.68607-60.04022-103.47008-61.22867-105.25343-62.41757-107.03946-63.60603-108.8228-64.79225-110.60547-65.97849-112.39015-67.16426-114.1735-68.3505-115.9575-69.53581-117.74219-70.72249-119.5289-71.9056-121.31157-73.08958-123.09491-74.27403-124.87823-75.45758-126.66225-76.64067-128.44493-77.82422-130.22895-79.00911-132.01296-80.19221-133.79764-81.37444-135.58165-82.55664-137.36769-83.73885-139.15036-84.92105-140.9337-86.10373-142.71703-87.28592-144.50104-88.46814-146.28507-89.65034-148.06908-90.83345-149.85242-92.01477-151.6398-93.19698-153.42113-94.37874-155.20581-95.55962-156.98847-96.74138-158.77248-97.9236-160.55649-99.10535-162.3405-100.28667-164.12723-101.46844-165.90988-102.64975-167.69257-103.83153-169.47658-105.01285-171.26059-106.19371-173.04392-107.37637-174.82862-108.55812-176.61196-109.73946"/>
<path transform="matrix(1,0,0,-1,232.872,39.136995)" stroke-width=".59776" stroke-linecap="butt" stroke-dasharray=".59776,1.99255" stroke-miterlimit="10" stroke-linejoin="miter" fill="none" stroke="#0000ff" d="M0 10.5966-1.78401 9.20026-3.56802 7.81017-5.35336 6.43077-7.13737 5.06029-8.92073 3.69875-10.70407 2.34567-12.48741 1.00197-14.2721-.33145-16.05544-1.65688-17.84148-2.9738-19.6248-4.28181-21.40814-5.58047-23.19215-6.87154-24.97551-8.15456-26.75885-9.43045-28.54353-10.7001-30.32755-11.96394-32.11359-13.22067-33.89624-14.47113-35.68025-15.71623-37.4636-16.95645-39.24693-18.19174-41.03096-19.42348-42.81497-20.65253-44.59898-21.87445-46.38367-23.09457-48.167-24.31113-49.95303-25.52502-51.73572-26.7358-53.51973-27.94432-55.30305-29.15062-57.08707-30.35469-58.87108-31.55698-60.65443-32.75748-62.44182-33.95573-64.2238-35.15402-66.00716-36.34961-67.79048-37.54343-69.5745-38.73723-71.3585-39.9297-73.14252-41.12216-74.92653-42.31287-76.71123-43.50175-78.49457-44.69066-80.2779-45.87866-82.06259-47.06668-83.8466-48.25336-85.63063-49.44002-87.41396-50.6267-89.19798-51.81337-90.98267-52.99782-92.76735-54.18225-94.55136-55.36713-96.33334-56.55113-98.11871-57.73557-99.90205-58.91913-101.68607-60.10268-103.47008-61.28578-105.25343-62.47112-107.03946-63.65286-108.8228-64.83597-110.60547-66.01863-112.39015-67.2004-114.1735-68.3835-115.9575-69.5657-117.74219-70.74881-119.5289-71.93057-121.31157-73.11278-123.09491-74.2941-124.87823-75.4763-126.66225-76.65808-128.44493-77.84029-130.22895-79.0225-132.01296-80.20471-133.79764-81.38557-135.58165-82.56735-137.36769-83.7491-139.15036-84.92998-140.9337-86.11176-142.71703-87.29306-144.50104-88.47484-146.28507-89.6566-148.06908-90.84015-149.85242-92.02057-151.6398-93.20189-153.42113-94.38231-155.20581-95.56363-156.98847-96.74496-158.77248-97.92671-160.55649-99.10759-162.3405-100.2907-164.12723-101.47067-165.90988-102.6529-167.69257-103.83374-169.47658-105.01418-171.26059-106.1955-173.04392-107.37814-174.82862-108.56082-176.61196-109.74034"/>
<path transform="matrix(1,0,0,-1,232.872,39.136995)" stroke-width=".59776" stroke-linecap="butt" stroke-dasharray="2.98883,2.98883" stroke-miterlimit="10" stroke-linejoin="miter" fill="none" stroke="#ff0000" d="M0 8.84381-1.78401 7.38457-3.56802 5.92932-5.35336 4.47588-7.13737 3.02733-8.92073 1.58458-10.70407 .14899-12.48741-1.27766-14.2721-2.69498-16.05544-4.10248-17.84148-5.49794-19.6248-6.88268-21.40814-8.25627-23.19215-9.61783-24.97551-10.96822-26.75885-12.30835-28.54353-13.63556-30.32755-14.95428-32.11359-16.26186-33.89624-17.55916-35.68025-18.84843-37.4636-20.1288-39.24693-21.40201-41.03096-22.66765-42.81497-23.92525-44.59898-25.1766-46.38367-26.42216-48.167-27.66237-49.95303-28.89767-51.73572-30.12851-53.51973-31.35487-55.30305-32.57858-57.08707-33.79648-58.87108-35.01216-60.65443-36.22426-62.44182-37.43411-64.2238-38.64131-66.00716-39.84628-67.79048-41.05124-69.5745-42.2513-71.3585-43.45001-73.14252-44.64784-74.92653-45.84387-76.71123-47.03857-78.49457-48.23195-80.2779-49.42487-82.06259-50.61688-83.8466-51.80757-85.63063-52.99736-87.41396-54.18628-89.19798-55.37384-90.98267-56.56184-92.76735-57.74896-94.55136-58.93562-96.33334-60.1223-98.11871-61.30986-99.90205-62.49431-101.68607-63.67876-103.47008-64.86319-105.25343-66.04718-107.03946-67.23119-108.8228-68.41518-110.60547-69.59828-112.39015-70.78406-114.1735-71.96536-115.9575-73.14891-117.74219-74.33159-119.5289-75.51424-121.31157-76.69646-123.09491-77.8791-124.87823-79.06354-126.66225-80.24442-128.44493-81.42662-130.22895-82.6084-132.01296-83.79015-133.79764-84.97192-135.58165-86.15413-137.36769-87.33589-139.15036-88.51765-140.9337-89.69987-142.71703-90.88252-144.50104-92.0634-146.28507-93.24472-148.06908-94.42647-149.85242-95.6078-151.6398-96.78912-153.42113-97.97087-155.20581-99.1522-156.98847-100.3353-158.77248-101.51573-160.55649-102.69705-162.3405-103.8788-164.12723-105.05923-165.90988-106.241-167.69257-107.42232-169.47658-108.60542-171.26059-109.78586-173.04392-110.96628-174.82862-112.14848-176.61196-113.3289"/>
<path transform="matrix(1,0,0,-1,232.872,39.136995)" stroke-width=".59776" stroke-linecap="butt" stroke-miterlimit="10" stroke-linejoin="miter" fill="none" stroke="#ff0000" d="M0 12.79106-1.78401 10.96198-3.56802 9.1155-5.35336 7.25475-7.13737 5.38329-8.92073 3.50557-10.70407 1.62296-12.48741-.25919-14.2721-2.13913-16.05544-4.01282-17.84148-5.87802-19.6248-7.7312-21.40814-9.5701-23.19215-11.39291-24.97551-13.19925-26.75885-14.98418-28.54353-16.74857-30.32755-18.4911-32.11359-20.21088-33.89624-21.90746-35.68025-23.57994-37.4636-25.22746-39.24693-26.85132-41.03096-28.452-42.81497-30.02902-44.59898-31.58284-46.38367-33.11436-48.167-34.62404-49.95303-36.11272-51.73572-37.58046-53.51973-39.02943-55.30305-40.46013-57.08707-41.87433-58.87108-43.26978-60.65443-44.65007-62.44182-46.01518-64.2238-47.36693-66.00716-48.70616-67.79048-50.03381-69.5745-51.34807-71.3585-52.65207-73.14252-53.9467-74.92653-55.23198-76.71123-56.50876-78.49457-57.7784-80.2779-59.04002-82.06259-60.2954-83.8466-61.54631-85.63063-62.78874-87.41396-64.02628-89.19798-65.25934-90.98267-66.48795-92.76735-67.71254-94.55136-68.93356-96.33334-70.15369-98.11871-71.36668-99.90205-72.57834-101.68607-73.78687-103.47008-74.99318-105.25343-76.19724-107.03946-77.39996-108.8228-78.60046-110.60547-79.80052-112.39015-80.99745-114.1735-82.1935-115.9575-83.38686-117.74219-84.58067-119.5289-85.7727-121.31157-86.96428-123.09491-88.15451-124.87823-89.34431-126.66225-90.53322-128.44493-91.72345-130.22895-92.91058-132.01296-94.0968-133.79764-95.28304-135.58165-96.4688-137.36769-97.65459-139.15036-98.8399-140.9337-100.02525-142.71703-101.21014-144.50104-102.39458-146.28507-103.57813-148.06908-104.76167-149.85242-105.94522-151.6398-107.12834-153.42113-108.3141-155.20581-109.49675-156.98847-110.67809-158.77248-111.86118-160.55649-113.04384-162.3405-114.22516-164.12723-115.40782-165.90988-116.58957-167.69257-117.77225-169.47658-118.9531-171.26059-120.1371-173.04392-121.3211-174.82862-122.49796-176.61196-123.68373"/>
<path transform="matrix(1,0,0,-1,232.872,39.136995)" stroke-width=".59776" stroke-linecap="butt" stroke-dasharray=".59776,1.99255" stroke-miterlimit="10" stroke-linejoin="miter" fill="none" stroke="#ff0000" d="M0-3.77815-1.78401-5.17628-3.56802-6.5637-5.35336-7.93953-7.13737-9.30376-8.92073-10.65685-10.70407-12.00053-12.48741-13.33041-14.2721-14.65004-16.05544-15.95938-17.84148-17.25981-19.6248-18.55043-21.40814-19.83347-23.19215-21.10847-24.97551-22.375-26.75885-23.63438-28.54353-24.88751-30.32755-26.13441-32.11359-27.37596-33.89624-28.61215-35.68025-29.84433-37.4636-31.07161-39.24693-32.29575-41.03096-33.5141-42.81497-34.7311-44.59898-35.94409-46.38367-37.1544-48.167-38.36205-49.95303-39.5679-51.73572-40.77107-53.51973-41.97382-55.30305-43.17342-57.08707-44.37036-58.87108-45.56685-60.65443-46.76198-62.44182-47.9558-64.2238-49.14871-66.00716-50.34207-67.79048-51.53188-69.5745-52.7221-71.3585-53.91101-73.14252-55.09947-74.92653-56.28703-76.71123-57.47414-78.49457-58.66127-80.2779-59.84749-82.06259-61.03328-83.8466-62.21994-85.63063-63.40393-87.41396-64.58882-89.19798-65.77327-90.98267-66.95726-92.76735-68.14081-94.55136-69.3248-96.33334-70.50925-98.11871-71.6919-99.90205-72.87502-101.68607-74.05766-103.47008-75.23987-105.25343-76.42299-107.03946-77.60518-108.8228-78.78784-110.60547-79.97095-112.39015-81.15271-114.1735-82.33447-115.9575-83.51714-117.74219-84.69846-119.5289-85.8802-121.31157-87.06242-123.09491-88.24419-124.87823-89.42595-126.66225-90.60994-128.44493-91.78947-130.22895-92.97125-132.01296-94.15256-133.79764-95.33434-135.58165-96.51566-137.36769-97.6974-139.15036-98.87872-140.9337-100.06049-142.71703-101.2427-144.50104-102.42358-146.28507-103.60446-148.06908-104.78577-149.85242-105.96753-151.6398-107.14883-153.42113-108.3324-155.20581-109.51239-156.98847-110.6937-158.77248-111.87502-160.55649-113.05634-162.3405-114.2372-164.12723-115.41852-165.90988-116.6003-167.69257-117.78204-169.47658-118.96202-171.26059-120.14424-173.04392-121.32823-174.82862-122.50598-176.61196-123.6864"/>
</g>
<use data-text="&#x1d714;" xlink:href="#font_1_3186" transform="matrix(9.96264,0,0,-9.96264,141.174,198.336)"/>
<use data-text="&#x1d716;" xlink:href="#font_1_3188" transform="matrix(0,-9.96264,-9.96264,-0,9.707001,97.93199)"/>
<use data-text="&#x1d456;" xlink:href="#font_2_2509" transform="matrix(0,-7.47198,-7.47198,-0,12.197006,93.647998)"/>
<use data-text="&#x1d457;" xlink:href="#font_2_2510" transform="matrix(0,-7.47198,-7.47198,-0,12.197006,91.3242)"/>
<use data-text="&#x1d458;" xlink:href="#font_2_2511" transform="matrix(0,-7.47198,-7.47198,-0,12.197006,87.97676)"/>
<use data-text="&#x1d459;" xlink:href="#font_2_2512" transform="matrix(0,-7.47198,-7.47198,-0,12.197006,83.92694)"/>
<path transform="matrix(1,0,0,-1,232.872,39.136995)" d="M-179.41524-56.46591H-123.59009V25.336052H-179.41524Z" fill="#ffffff" fill-opacity=".8"/>
<path transform="matrix(1,0,0,-1,232.872,39.136995)" stroke-width=".3985" stroke-linecap="butt" stroke-miterlimit="10" stroke-linejoin="miter" fill="none" stroke="#cccccc" d="M-179.41524-56.46591H-123.59009V25.336052H-179.41524Z"/>
<path transform="matrix(1,0,0,-1,56.746999,22.278992)" stroke-width=".59776" stroke-linecap="butt" stroke-dasharray="2.98883,2.98883" stroke-miterlimit="10" stroke-linejoin="miter" fill="none" stroke="#0000ff" d="M0 0H8.50412 17.00826"/>
<use data-text="&#x0303;" xlink:href="#font_1_549" transform="matrix(8.96638,0,0,-8.96638,80.879,25.276993)"/>
<use data-text="&#x1d716;" xlink:href="#font_1_3188" transform="matrix(8.96638,0,0,-8.96638,76.04612,25.276993)"/>
<use data-text="&#x1d437;" xlink:href="#font_4_2479" transform="matrix(5.97758,0,0,-5.97758,80.26,21.689988)"/>
<use data-text="2" xlink:href="#font_4_51" transform="matrix(5.97758,0,0,-5.97758,79.901,28.097992)"/>
<use data-text="3" xlink:href="#font_4_52" transform="matrix(5.97758,0,0,-5.97758,82.88979,28.097992)"/>
<use data-text="2" xlink:href="#font_4_51" transform="matrix(5.97758,0,0,-5.97758,85.878589,28.097992)"/>
<use data-text="3" xlink:href="#font_4_52" transform="matrix(5.97758,0,0,-5.97758,88.86738,28.097992)"/>
<use data-text="(" xlink:href="#font_1_41" transform="matrix(8.96638,0,0,-8.96638,92.224,25.276993)"/>
<use data-text="&#x1d714;" xlink:href="#font_1_3186" transform="matrix(8.96638,0,0,-8.96638,95.2098,25.276993)"/>
<use data-text=")" xlink:href="#font_1_42" transform="matrix(8.96638,0,0,-8.96638,101.3159,25.276993)"/>
<path transform="matrix(1,0,0,-1,56.746995,35.247995)" stroke-width=".59776" stroke-linecap="butt" stroke-miterlimit="10" stroke-linejoin="miter" fill="none" stroke="#0000ff" d="M0 0H8.50412 17.00826"/>
<use data-text="&#x1d716;" xlink:href="#font_1_3188" transform="matrix(8.96638,0,0,-8.96638,76.046,38.246004)"/>
<use data-text="&#x1d437;" xlink:href="#font_4_2479" transform="matrix(5.97758,0,0,-5.97758,80.26,34.658998)"/>
<use data-text="2" xlink:href="#font_4_51" transform="matrix(5.97758,0,0,-5.97758,79.901,41.067)"/>
<use data-text="3" xlink:href="#font_4_52" transform="matrix(5.97758,0,0,-5.97758,82.88979,41.067)"/>
<use data-text="2" xlink:href="#font_4_51" transform="matrix(5.97758,0,0,-5.97758,85.878589,41.067)"/>
<use data-text="3" xlink:href="#font_4_52" transform="matrix(5.97758,0,0,-5.97758,88.86738,41.067)"/>
<use data-text="(" xlink:href="#font_1_41" transform="matrix(8.96638,0,0,-8.96638,92.224,38.246004)"/>
<use data-text="&#x1d714;" xlink:href="#font_1_3186" transform="matrix(8.96638,0,0,-8.96638,95.2098,38.246004)"/>
<use data-text=")" xlink:href="#font_1_42" transform="matrix(8.96638,0,0,-8.96638,101.3159,38.246004)"/>
<path transform="matrix(1,0,0,-1,56.746995,48.216997)" stroke-width=".59776" stroke-linecap="butt" stroke-dasharray=".59776,1.99255" stroke-miterlimit="10" stroke-linejoin="miter" fill="none" stroke="#0000ff" d="M0 0H8.50412 17.00826"/>
<use data-text="&#x0303;" xlink:href="#font_1_549" transform="matrix(8.96638,0,0,-8.96638,80.879,51.214998)"/>
<use data-text="&#x1d716;" xlink:href="#font_1_3188" transform="matrix(8.96638,0,0,-8.96638,76.04612,51.214998)"/>
<use data-text="&#x1d437;" xlink:href="#font_4_2479" transform="matrix(5.97758,0,0,-5.97758,80.26,47.628999)"/>
<use data-text="2" xlink:href="#font_4_51" transform="matrix(5.97758,0,0,-5.97758,79.901,54.037004)"/>
<use data-text="3" xlink:href="#font_4_52" transform="matrix(5.97758,0,0,-5.97758,82.88979,54.037004)"/>
<use data-text="2" xlink:href="#font_4_51" transform="matrix(5.97758,0,0,-5.97758,85.878589,54.037004)"/>
<use data-text="3" xlink:href="#font_4_52" transform="matrix(5.97758,0,0,-5.97758,88.86738,54.037004)"/>
<use data-text="(" xlink:href="#font_1_41" transform="matrix(8.96638,0,0,-8.96638,92.224,51.214998)"/>
<use data-text="&#x0303;" xlink:href="#font_1_549" transform="matrix(8.96638,0,0,-8.96638,100.78689,51.214998)"/>
<use data-text="&#x1d714;" xlink:href="#font_1_3186" transform="matrix(8.96638,0,0,-8.96638,95.2098,51.214998)"/>
<use data-text=")" xlink:href="#font_1_42" transform="matrix(8.96638,0,0,-8.96638,101.3159,51.214998)"/>
<path transform="matrix(1,0,0,-1,56.746995,61.186998)" stroke-width=".59776" stroke-linecap="butt" stroke-dasharray="2.98883,2.98883" stroke-miterlimit="10" stroke-linejoin="miter" fill="none" stroke="#ff0000" d="M0 0H8.50412 17.00826"/>
<use data-text="&#x0303;" xlink:href="#font_1_549" transform="matrix(8.96638,0,0,-8.96638,80.879,64.185)"/>
<use data-text="&#x1d716;" xlink:href="#font_1_3188" transform="matrix(8.96638,0,0,-8.96638,76.04612,64.185)"/>
<use data-text="&#x1d437;" xlink:href="#font_4_2479" transform="matrix(5.97758,0,0,-5.97758,80.26,60.598009)"/>
<use data-text="3" xlink:href="#font_4_52" transform="matrix(5.97758,0,0,-5.97758,79.901,67.006)"/>
<use data-text="3" xlink:href="#font_4_52" transform="matrix(5.97758,0,0,-5.97758,82.88979,67.006)"/>
<use data-text="3" xlink:href="#font_4_52" transform="matrix(5.97758,0,0,-5.97758,85.878589,67.006)"/>
<use data-text="3" xlink:href="#font_4_52" transform="matrix(5.97758,0,0,-5.97758,88.86738,67.006)"/>
<use data-text="(" xlink:href="#font_1_41" transform="matrix(8.96638,0,0,-8.96638,92.224,64.185)"/>
<use data-text="&#x1d714;" xlink:href="#font_1_3186" transform="matrix(8.96638,0,0,-8.96638,95.2098,64.185)"/>
<use data-text=")" xlink:href="#font_1_42" transform="matrix(8.96638,0,0,-8.96638,101.3159,64.185)"/>
<path transform="matrix(1,0,0,-1,56.746995,74.156)" stroke-width=".59776" stroke-linecap="butt" stroke-miterlimit="10" stroke-linejoin="miter" fill="none" stroke="#ff0000" d="M0 0H8.50412 17.00826"/>
<use data-text="&#x1d716;" xlink:href="#font_1_3188" transform="matrix(8.96638,0,0,-8.96638,76.046,77.154)"/>
<use data-text="&#x1d437;" xlink:href="#font_4_2479" transform="matrix(5.97758,0,0,-5.97758,80.26,73.567)"/>
<use data-text="3" xlink:href="#font_4_52" transform="matrix(5.97758,0,0,-5.97758,79.901,79.975009)"/>
<use data-text="3" xlink:href="#font_4_52" transform="matrix(5.97758,0,0,-5.97758,82.88979,79.975009)"/>
<use data-text="3" xlink:href="#font_4_52" transform="matrix(5.97758,0,0,-5.97758,85.878589,79.975009)"/>
<use data-text="3" xlink:href="#font_4_52" transform="matrix(5.97758,0,0,-5.97758,88.86738,79.975009)"/>
<use data-text="(" xlink:href="#font_1_41" transform="matrix(8.96638,0,0,-8.96638,92.224,77.154)"/>
<use data-text="&#x1d714;" xlink:href="#font_1_3186" transform="matrix(8.96638,0,0,-8.96638,95.2098,77.154)"/>
<use data-text=")" xlink:href="#font_1_42" transform="matrix(8.96638,0,0,-8.96638,101.3159,77.154)"/>
<path transform="matrix(1,0,0,-1,56.746995,87.125)" stroke-width=".59776" stroke-linecap="butt" stroke-dasharray=".59776,1.99255" stroke-miterlimit="10" stroke-linejoin="miter" fill="none" stroke="#ff0000" d="M0 0H8.50412 17.00826"/>
<use data-text="&#x0303;" xlink:href="#font_1_549" transform="matrix(8.96638,0,0,-8.96638,80.879,90.123)"/>
<use data-text="&#x1d716;" xlink:href="#font_1_3188" transform="matrix(8.96638,0,0,-8.96638,76.04612,90.123)"/>
<use data-text="&#x1d437;" xlink:href="#font_4_2479" transform="matrix(5.97758,0,0,-5.97758,80.26,86.537)"/>
<use data-text="3" xlink:href="#font_4_52" transform="matrix(5.97758,0,0,-5.97758,79.901,92.945)"/>
<use data-text="3" xlink:href="#font_4_52" transform="matrix(5.97758,0,0,-5.97758,82.88979,92.945)"/>
<use data-text="3" xlink:href="#font_4_52" transform="matrix(5.97758,0,0,-5.97758,85.878589,92.945)"/>
<use data-text="3" xlink:href="#font_4_52" transform="matrix(5.97758,0,0,-5.97758,88.86738,92.945)"/>
<use data-text="(" xlink:href="#font_1_41" transform="matrix(8.96638,0,0,-8.96638,92.224,90.123)"/>
<use data-text="&#x0303;" xlink:href="#font_1_549" transform="matrix(8.96638,0,0,-8.96638,100.78689,90.123)"/>
<use data-text="&#x1d714;" xlink:href="#font_1_3186" transform="matrix(8.96638,0,0,-8.96638,95.2098,90.123)"/>
<use data-text=")" xlink:href="#font_1_42" transform="matrix(8.96638,0,0,-8.96638,101.3159,90.123)"/>
</svg>
