<svg xmlns="http://www.w3.org/2000/svg" xmlns:xlink="http://www.w3.org/1999/xlink" xmlns:inkscape="http://www.inkscape.org/namespaces/inkscape" version="1.1" width="237.281" height="199.3" viewBox="0 0 237.281 199.3">
<defs>
<path id="font_1_50" d="M.3939972 0V.01499939C.31900025 .01499939 .29899598 .032989503 .29899598 .07597351V.67277529L.2899933 .67578127 .11099243 .5847931V.5708008L.13798523 .5807953C.1559906 .5877991 .17298889 .59280398 .18299866 .59280398 .20399475 .59280398 .21299744 .57780459 .21299744 .543808V.0949707C.21299744 .039978029 .19198609 .018997193 .117996219 .01499939V0H.3939972Z"/>
<path id="font_1_49" d="M.37998963 .32505799C.37998963 .12722779 .33499146 .012313843 .25 .012313843 .1639862 .012313843 .11999512 .1262207 .11999512 .32904054 .11999512 .5318756 .16499329 .6497803 .24798584 .6497803 .33599855 .6497803 .37998963 .53286746 .37998963 .32505799M.47599793 .3300476C.47599793 .53486636 .3849945 .67578127 .2539978 .67578127 .09298706 .67578127 .023986817 .5128937 .023986817 .3360443 .023986817 .17218018 .07899475-.013671875 .25-.013671875 .41299439-.013671875 .47599793 .15818787 .47599793 .3300476Z"/>
<path id="font_2_1155" d="M.62098696 .22012329V.2861328H.06399536V.22012329H.62098696Z"/>
<path id="font_2_53" d="M.2919922 .23098755H.051986696L.2919922 .573822V.23098755M.47299195 .16699219V.23098755H.36999513V.67578127H.32598878L.011993408 .23098755V.16699219H.2919922V0H.36999513V.16699219H.47299195Z"/>
<path id="font_2_52" d="M.06098938 .50987246C.101989749 .58380129 .147995 .61576846 .20999146 .61576846 .27598573 .61576846 .31799317 .58180239 .31799317 .51387026 .31799317 .45292665 .28599549 .40795899 .23699951 .37998963 .21699524 .36799623 .19099427 .3570099 .15299988 .34402467V.33003236C.20999146 .33003236 .23298645 .32704164 .25498963 .3200531 .32398988 .3000641 .35899354 .2511139 .35899354 .17518616 .35899354 .09025574 .30299378 .022323609 .22898865 .022323609 .20098877 .022323609 .17999268 .027313233 .14299011 .05329895 .114990238 .073272708 .09899902 .07926941 .08198547 .07926941 .05899048 .07926941 .040985109 .06428528 .040985109 .043304445 .040985109 .0073242189 .07998657-.013671875 .15299988-.013671875 .24198914-.013671875 .33699037 .015319824 .3849945 .07926941 .4139862 .11723328 .43099977 .16618347 .43099977 .21913147 .43099977 .27108766 .4149933 .31704713 .3869934 .34802247 .3659973 .36999513 .34799195 .38198854 .3039856 .40097047 .37098695 .44093324 .39698792 .4908905 .39698792 .5388489 .39698792 .6207733 .33399964 .67578127 .24099732 .67578127 .13699341 .67578127 .07398987 .6087799 .04499817 .51387026L.06098938 .50987246Z"/>
<path id="font_2_51" d="M.47399903 .13696289 .45999146 .1429596C.4269867 .08699036 .4059906 .07598877 .3639984 .07598877H.12998963L.29499818 .2519226C.38398744 .34588624 .4229889 .42085267 .4229889 .4998169 .4229889 .59877017 .35099793 .67578127 .23799134 .67578127 .114990238 .67578127 .050994874 .5937805 .02999878 .4768219L.050994874 .47183229C.09098816 .5697937 .12599182 .6017761 .19799805 .6017761 .2829895 .6017761 .33699037 .55178835 .33699037 .4608307 .33699037 .37586976 .30099488 .29989625 .20698548 .200943L.0289917 .011993408V0H.41999818L.47399903 .13696289Z"/>
<path id="font_2_50" d="M.3939972 0V.01499939C.31900025 .01499939 .29899598 .032989503 .29899598 .07597351V.67277529L.2899933 .67578127 .11099243 .5847931V.5708008L.13798523 .5807953C.1559906 .5877991 .17298889 .59280398 .18299866 .59280398 .20399475 .59280398 .21299744 .57780459 .21299744 .543808V.0949707C.21299744 .039978029 .19198609 .018997193 .117996219 .01499939V0H.3939972Z"/>
<path id="font_2_49" d="M.37998963 .32505799C.37998963 .12722779 .33499146 .012313843 .25 .012313843 .1639862 .012313843 .11999512 .1262207 .11999512 .32904054 .11999512 .5318756 .16499329 .6497803 .24798584 .6497803 .33599855 .6497803 .37998963 .53286746 .37998963 .32505799M.47599793 .3300476C.47599793 .53486636 .3849945 .67578127 .2539978 .67578127 .09298706 .67578127 .023986817 .5128937 .023986817 .3360443 .023986817 .17218018 .07899475-.013671875 .25-.013671875 .41299439-.013671875 .47599793 .15818787 .47599793 .3300476Z"/>
<path id="font_1_51" d="M.47399903 .13696289 .45999146 .1429596C.4269867 .08699036 .4059906 .07598877 .3639984 .07598877H.12998963L.29499818 .2519226C.38398744 .34588624 .4229889 .42085267 .4229889 .4998169 .4229889 .59877017 .35099793 .67578127 .23799134 .67578127 .114990238 .67578127 .050994874 .5937805 .02999878 .4768219L.050994874 .47183229C.09098816 .5697937 .12599182 .6017761 .19799805 .6017761 .2829895 .6017761 .33699037 .55178835 .33699037 .4608307 .33699037 .37586976 .30099488 .29989625 .20698548 .200943L.0289917 .011993408V0H.41999818L.47399903 .13696289Z"/>
<clipPath id="clip_3">
<path transform="matrix(1,0,0,-1,224.914,163.58402)" d="M-185.4424 0H8.82977V161.39484H-185.4424Z"/>
</clipPath>
<path id="font_1_2480" d="M.73399356 .653183H.19999695L.19599915 .6371765H.21499634C.27398683 .6371765 .2899933 .6261749 .2899933 .60217288 .2899933 .59516909 .2889862 .5841522 .2849884 .56614688L.16499329 .07798767C.15699768 .04399109 .13398743 .015991211 .06098938 .015991211H.041992189L.037994386 0H.60899356L.6749878 .19799805H.6589966C.6159973 .084991458 .55999758 .037994386 .4019928 .037994386H.33499146C.28799439 .037994386 .27198792 .04899597 .27198792 .06498718 .27198792 .067993167 .272995 .070999149 .27398683 .07499695L.33999635 .3330078H.42999269C.46099855 .3330078 .5019989 .32899476 .5019989 .28199769 .5019989 .2649994 .49699403 .23500061 .49598695 .22200012H.5130005L.57099917 .46406556H.5549927C.5329895 .38200379 .4889984 .3690033 .42900086 .3690033H.34899903L.40899659 .6171875H.56900027C.6199951 .6171875 .6749878 .60417178 .6779938 .53012087 .6779938 .519104 .6769867 .5081024 .6759949 .49508668H.69200137L.73399356 .653183Z"/>
<path id="font_1_3186" d="M.46499635 .4252472C.5419922 .4162445 .58099368 .38824464 .58099368 .2922516 .58099368 .20625305 .5039978 .019256592 .41600038 .019256592 .36299134 .019256592 .34599305 .069244388 .34599305 .11924744 .38198854 .17124939 .42399598 .25024415 .42399598 .31425477 .42399598 .33924867 .4099884 .36125184 .3909912 .36125184 .31900025 .36125184 .2939911 .24824524 .2939911 .17524719 .2939911 .16125489 .29499818 .13925171 .29699708 .12425232 .28399659 .07824707 .22799683 .019256592 .16999817 .019256592 .125 .019256592 .101989749 .06625366 .101989749 .11224365 .101989749 .28025819 .21299744 .4252472 .33699037 .4252472L.33399964 .44125367H.31799317C.14099121 .44125367 .019989014 .31225587 .019989014 .1502533 .019989014 .08125305 .055999757-.0107421879 .1579895-.0107421879 .22399903-.0107421879 .2709961 .028244019 .31199647 .07824707 .31599427 .027252198 .35699464-.0107421879 .41600038-.0107421879 .519989-.0107421879 .6609955 .11024475 .6609955 .28025819 .6609955 .3982544 .58599856 .44125367 .47099305 .44125367L.46499635 .4252472Z"/>
<path id="font_1_3617" d="M.38198854-.13400269C.2919922-.024002076 .21998596 .14498902 .21998596 .45098878 .21998596 .7539978 .2919922 .9259949 .38198854 1.0359955V1.0659943C.23999024 .9319916 .13899231 .71798709 .13899231 .45098878 .13899231 .1789856 .23999024-.030014039 .38198854-.16400147V-.13400269Z"/>
<path id="font_1_980" d="M.45999146 .041275026C.43299867 .034301759 .4039917 .030319214 .3809967 .030319214 .35899354 .030319214 .33198548 .034301759 .30499269 .041275026 .32598878 .063186649 .34799195 .078125 .3809967 .078125 .4149933 .078125 .43899537 .062179567 .45999146 .041275026M.16899109 .11911011C.115997318 .17507935 .08898926 .2550354 .08898926 .3319702 .08898926 .41192628 .11199951 .48887635 .16899109 .5478363V.11911011M.5469971 .07911682C.5359955 .07115173 .5239868 .06417847 .5099945 .05819702 .47799684 .09111023 .44099427 .12211609 .38398744 .12211609 .32998658 .12211609 .2899933 .09611511 .25698854 .05621338 .23999024 .063186649 .22499085 .07115173 .21299744 .07911682V.58380129C.25099183 .61479189 .33299256 .6317749 .3809967 .6317749 .43499757 .6317749 .5039978 .6187897 .5469971 .58380129V.07911682M.59098818 .5478363C.647995 .48887635 .67099 .41192628 .67099 .3319702 .67099 .2550354 .6459961 .17408753 .59098818 .11911011V.5478363M.7029877-.011672974C.6779938-.015625 .6519928-.020507813 .6259918-.020507813 .59199526-.020507813 .5669861-.0006866455 .5419922 .02432251 .6489868 .08111572 .71499636 .19607544 .71499636 .3319702 .71499636 .5288391 .58699038 .67578127 .3849945 .67578127 .1789856 .67578127 .04499817 .5358429 .04499817 .3319702 .04499817 .13909912 .18399048-.013671875 .3809967-.013671875 .42199708-.013671875 .45999146-.007675171 .49398805 .0043182375 .5249939-.030517579 .5609894-.06451416 .6259918-.06451416 .6539917-.06451416 .68099978-.059509279 .70899966-.055511476L.7029877-.011672974Z"/>
<path id="font_1_3618" d="M.085998538 1.0359955C.17599488 .9259949 .24798584 .7569885 .24798584 .45098878 .24798584 .147995 .17599488-.024002076 .085998538-.13400269V-.16400147C.22799683-.030014039 .32899476 .18399048 .32899476 .45098878 .32899476 .72299197 .22799683 .9319916 .085998538 1.0659943V1.0359955Z"/>
<path id="font_2_2509" d="M.22698975 .4412079 .068984989 .41921998 .07199097 .4032135C.07899475 .4052124 .09098816 .4072113 .099990848 .4072113 .12298584 .4072113 .1309967 .40222169 .1309967 .3852234 .1309967 .3822174 .12998963 .37521363 .1289978 .37321473 .049987794 .0662384 .049987794 .04724121 .049987794 .035247804 .049987794 .008255005 .06199646-.0107421879 .08999634-.0107421879 .13899231-.0107421879 .18899536 .049240114 .22399903 .09423828L.21099854 .10424805C.1749878 .06524658 .16899109 .053253175 .14698792 .053253175 .13999939 .053253175 .13398743 .056243898 .13398743 .06324768 .13398743 .06724548 .13398743 .071243289 .1349945 .07723999L.22698975 .4412079M.25698854 .5662079C.25698854 .5912018 .23498535 .61621096 .20899964 .61621096 .17999268 .61621096 .16099549 .5912018 .16099549 .5662079 .16099549 .5402069 .17999268 .52020266 .20899964 .52020266 .23498535 .52020266 .25698854 .5402069 .25698854 .5662079Z"/>
<path id="font_2_2510" d="M.35099793 .44114686 .19299317 .4131317 .19599915 .39611817C.20298767 .39912416 .21499634 .40112306 .22299195 .40112306 .24499512 .40112306 .25498963 .39111329 .25498963 .3791046L.16299439 .015853882C.13899231-.080200199 .10598755-.15625 .05999756-.15625 .054992677-.15625 .049987794-.1502533 .049987794-.1462555 .049987794-.13023377 .06599426-.12724304 .06599426-.11222839 .06599426-.08921814 .049987794-.07420349 .0309906-.07420349-.0040130617-.07420349-.01600647-.10421753-.01600647-.12623596-.01600647-.1542511 .0039978029-.18725586 .056991579-.18725586 .16499329-.18725586 .22099304-.07220459 .24299622 .015853882L.35099793 .44114686M.37199403 .5662079C.37199403 .5912018 .34999085 .61621096 .32398988 .61621096 .29499818 .61621096 .27598573 .5912018 .27598573 .5662079 .27598573 .5402069 .29499818 .52020266 .32398988 .52020266 .34999085 .52020266 .37199403 .5402069 .37199403 .5662079Z"/>
<path id="font_2_2511" d="M.5269928 .42797853H.33299256L.32899476 .41596986H.34098817C.35099793 .41596986 .36698915 .40898133 .36698915 .39697267 .36698915 .38397218 .35699464 .37097169 .34599305 .36097718L.1789856 .21199036 .2919922 .66796877 .13398743 .6429596 .13699341 .6289673C.14498902 .6309662 .15499878 .6309662 .1639862 .6309662 .18598938 .6309662 .19599915 .6199646 .19599915 .608963 .19599915 .6019745 .19499207 .5949707 .19299317 .588974L.04499817 0H.12098694L.1659851 .1659851 .22200012 .21498108 .2849884 .067993167C.29599 .042251588 .31698609-.0107421879 .36299134-.0107421879 .43099977-.0107421879 .47799684 .09623718 .48999024 .11721802L.47499085 .1282196C.45298768 .098236087 .43099977 .055252077 .40098573 .055252077 .375 .055252077 .36299134 .07923889 .34799195 .114227298L.28399659 .2661438 .3899994 .35810853C.42799378 .39108277 .45599366 .40907289 .522995 .41607667L.5269928 .42797853Z"/>
<path id="font_2_2512" d="M.27799989 .66796877 .12098694 .6449585 .12399292 .62997439C.13198853 .6309662 .14399719 .6329651 .15098572 .6329651 .17399597 .6329651 .18199158 .6229706 .18199158 .6109772 .18199158 .60798647 .18199158 .59999087 .1789856 .58699038L.050994874 .07720947C.04798889 .067214969 .04499817 .053222658 .04499817 .041229249 .04499817 .016220093 .053985597-.009765625 .083999637-.009765625 .14199829-.009765625 .18499756 .056228639 .21899414 .096206668L.20298767 .10820007C.19400025 .09220886 .1639862 .053222658 .14099121 .053222658 .1329956 .053222658 .1289978 .05921936 .1289978 .066223148 .1289978 .07321167 .12998963 .07720947 .12998963 .07720947L.27799989 .66796877Z"/>
<path id="font_2_2480" d="M.73399356 .653183H.19999695L.19599915 .6371765H.21499634C.27398683 .6371765 .2899933 .6261749 .2899933 .60217288 .2899933 .59516909 .2889862 .5841522 .2849884 .56614688L.16499329 .07798767C.15699768 .04399109 .13398743 .015991211 .06098938 .015991211H.041992189L.037994386 0H.60899356L.6749878 .19799805H.6589966C.6159973 .084991458 .55999758 .037994386 .4019928 .037994386H.33499146C.28799439 .037994386 .27198792 .04899597 .27198792 .06498718 .27198792 .067993167 .272995 .070999149 .27398683 .07499695L.33999635 .3330078H.42999269C.46099855 .3330078 .5019989 .32899476 .5019989 .28199769 .5019989 .2649994 .49699403 .23500061 .49598695 .22200012H.5130005L.57099917 .46406556H.5549927C.5329895 .38200379 .4889984 .3690033 .42900086 .3690033H.34899903L.40899659 .6171875H.56900027C.6199951 .6171875 .6749878 .60417178 .6779938 .53012087 .6779938 .519104 .6769867 .5081024 .6759949 .49508668H.69200137L.73399356 .653183Z"/>
<path id="font_2_3186" d="M.46499635 .4252472C.5419922 .4162445 .58099368 .38824464 .58099368 .2922516 .58099368 .20625305 .5039978 .019256592 .41600038 .019256592 .36299134 .019256592 .34599305 .069244388 .34599305 .11924744 .38198854 .17124939 .42399598 .25024415 .42399598 .31425477 .42399598 .33924867 .4099884 .36125184 .3909912 .36125184 .31900025 .36125184 .2939911 .24824524 .2939911 .17524719 .2939911 .16125489 .29499818 .13925171 .29699708 .12425232 .28399659 .07824707 .22799683 .019256592 .16999817 .019256592 .125 .019256592 .101989749 .06625366 .101989749 .11224365 .101989749 .28025819 .21299744 .4252472 .33699037 .4252472L.33399964 .44125367H.31799317C.14099121 .44125367 .019989014 .31225587 .019989014 .1502533 .019989014 .08125305 .055999757-.0107421879 .1579895-.0107421879 .22399903-.0107421879 .2709961 .028244019 .31199647 .07824707 .31599427 .027252198 .35699464-.0107421879 .41600038-.0107421879 .519989-.0107421879 .6609955 .11024475 .6609955 .28025819 .6609955 .3982544 .58599856 .44125367 .47099305 .44125367L.46499635 .4252472Z"/>
<path id="font_2_3617" d="M.38198854-.13400269C.2919922-.024002076 .21998596 .14498902 .21998596 .45098878 .21998596 .7539978 .2919922 .9259949 .38198854 1.0359955V1.0659943C.23999024 .9319916 .13899231 .71798709 .13899231 .45098878 .13899231 .1789856 .23999024-.030014039 .38198854-.16400147V-.13400269Z"/>
<path id="font_2_980" d="M.45999146 .041275026C.43299867 .034301759 .4039917 .030319214 .3809967 .030319214 .35899354 .030319214 .33198548 .034301759 .30499269 .041275026 .32598878 .063186649 .34799195 .078125 .3809967 .078125 .4149933 .078125 .43899537 .062179567 .45999146 .041275026M.16899109 .11911011C.115997318 .17507935 .08898926 .2550354 .08898926 .3319702 .08898926 .41192628 .11199951 .48887635 .16899109 .5478363V.11911011M.5469971 .07911682C.5359955 .07115173 .5239868 .06417847 .5099945 .05819702 .47799684 .09111023 .44099427 .12211609 .38398744 .12211609 .32998658 .12211609 .2899933 .09611511 .25698854 .05621338 .23999024 .063186649 .22499085 .07115173 .21299744 .07911682V.58380129C.25099183 .61479189 .33299256 .6317749 .3809967 .6317749 .43499757 .6317749 .5039978 .6187897 .5469971 .58380129V.07911682M.59098818 .5478363C.647995 .48887635 .67099 .41192628 .67099 .3319702 .67099 .2550354 .6459961 .17408753 .59098818 .11911011V.5478363M.7029877-.011672974C.6779938-.015625 .6519928-.020507813 .6259918-.020507813 .59199526-.020507813 .5669861-.0006866455 .5419922 .02432251 .6489868 .08111572 .71499636 .19607544 .71499636 .3319702 .71499636 .5288391 .58699038 .67578127 .3849945 .67578127 .1789856 .67578127 .04499817 .5358429 .04499817 .3319702 .04499817 .13909912 .18399048-.013671875 .3809967-.013671875 .42199708-.013671875 .45999146-.007675171 .49398805 .0043182375 .5249939-.030517579 .5609894-.06451416 .6259918-.06451416 .6539917-.06451416 .68099978-.059509279 .70899966-.055511476L.7029877-.011672974Z"/>
<path id="font_4_1155" d="M.62098696 .22012329V.2861328H.06399536V.22012329H.62098696Z"/>
<path id="font_4_50" d="M.3939972 0V.01499939C.31900025 .01499939 .29899598 .032989503 .29899598 .07597351V.67277529L.2899933 .67578127 .11099243 .5847931V.5708008L.13798523 .5807953C.1559906 .5877991 .17298889 .59280398 .18299866 .59280398 .20399475 .59280398 .21299744 .57780459 .21299744 .543808V.0949707C.21299744 .039978029 .19198609 .018997193 .117996219 .01499939V0H.3939972Z"/>
<path id="font_2_3618" d="M.085998538 1.0359955C.17599488 .9259949 .24798584 .7569885 .24798584 .45098878 .24798584 .147995 .17599488-.024002076 .085998538-.13400269V-.16400147C.22799683-.030014039 .32899476 .18399048 .32899476 .45098878 .32899476 .72299197 .22799683 .9319916 .085998538 1.0659943V1.0359955Z"/>
<path id="font_4_2514" d="M.46699525 .096206668 .45399476 .10720825C.43998719 .09020996 .41600038 .05418396 .3919983 .05418396 .3809967 .05418396 .37799073 .062179567 .3769989 .06819153 .3769989 .07319641 .3769989 .07620239 .37799073 .078201297L.43699647 .3093567C.44198609 .32936097 .44799806 .35438539 .44799806 .37939454 .44799806 .4123993 .43598939 .44140626 .3919983 .44140626 .33198548 .44140626 .27198792 .37539674 .23199463 .32536317 .22999573 .32235719 .18099976 .25231935 .17599488 .25231935H.17298889L.22399903 .44140626 .06498718 .418396 .066986087 .4033966C.07398987 .4044037 .084991458 .4064026 .09498596 .4064026 .12199402 .4064026 .125 .39239503 .125 .37438966L.02999878 0H.10699463L.13999939 .12411499C.1459961 .1451416 .17199707 .19218445 .20799256 .24624634 .23899842 .29330445 .3019867 .37939454 .33999635 .37939454 .35798646 .37939454 .3639984 .36038209 .3639984 .34135438 .3639984 .3273468 .35899354 .307312 .35699464 .2993164L.2999878 .078063968C.29699708 .06704712 .29299928 .05102539 .29299928 .038009645 .29299928 .015182495 .3019867-.0078125 .33399964-.0078125 .38598634-.0078125 .43399049 .05618286 .46199037 .09020996L.46699525 .096206668Z"/>
<path id="font_5_9" d="M.3039856-.16122437C.1639862-.04423523 .13398743 .06877136 .13398743 .254776 .13398743 .44776917 .16499329 .5407715 .3039856 .6597748L.29499818 .67578127C.1349945 .58078 .04798889 .43676759 .04798889 .25177003 .04798889 .08177185 .13398743-.0872345 .2919922-.17723084L.3039856-.16122437Z"/>
<path id="font_2_3168" d="M.17298889 .25097657C.18199158 .28897096 .20498657 .3579712 .20498657 .39996339 .20498657 .42396546 .19599915 .44096376 .1639862 .44096376 .14199829 .44096376 .10499573 .41897584 .07998657 .39396668 .055999757 .3699646 .038986207 .3429718 .033996583 .33596803L.04699707 .3259735C.06298828 .3469696 .084991458 .37597657 .10699463 .37597657 .117996219 .37597657 .11999512 .3719635 .11999512 .36296083 .11999512 .3489685 .11299133 .32896424 .10699463 .30397035L.02999878 0H.10798645L.13899231 .10498047C.16899109 .20698548 .29899598 .37597657 .33898927 .37597657 .35598756 .37597657 .36698915 .3639679 .36698915 .3469696 .36698915 .3299713 .3619995 .30897523 .35899354 .29896546 .27398683-.039001466 .2599945-.0960083 .2599945-.13700867 .2599945-.15501404 .2619934-.17201233 .2709961-.18301392H.34700013C.34298707-.17500305 .34199525-.16200257 .34199525-.14801026 .34199525-.117004398 .34999085-.06700134 .36499024-.0040130617L.43998719 .30897523C.44599916 .3349762 .45498658 .36497499 .45498658 .3869629 .45498658 .42097474 .43399049 .44096376 .394989 .44096376 .33599855 .44096376 .28599549 .39297486 .23199463 .3239746 .21899414 .30697633 .19599915 .27796937 .1749878 .25097657H.17298889Z"/>
<path id="font_2_62" d="M.6369934 .12011719V.18611145H.04798889V.12011719H.6369934M.6369934 .31973268V.3857422H.04798889V.31973268H.6369934Z"/>
<path id="font_5_10" d="M.0289917 .6597748C.17399597 .54577639 .19898987 .43077088 .19898987 .24377442 .19898987 .04977417 .17098999-.04423523 .0289917-.16122437L.037994386-.17723084C.19699097-.08023071 .2849884 .061767579 .2849884 .24676514 .2849884 .41677857 .19400025 .58377078 .040985109 .67578127L.0289917 .6597748Z"/>
<path id="font_4_2513" d="M.6669922 .10708618C.647995 .0700531 .621994 .054031373 .6049957 .054031373 .59599307 .054031373 .58999636 .058029176 .58999636 .06604004 .58999636 .06904602 .59098818 .07505798 .59199526 .078063968L.6529999 .30932618C.6589966 .3333435 .6599884 .35237123 .6599884 .37039186 .6599884 .41540528 .6419983 .44140626 .60598757 .44140626 .58599856 .44140626 .5669861 .43440248 .54499819 .41940309 .49598695 .38639833 .44400025 .32434083 .4149933 .27227784H.4099884L.41999818 .3083191C.42599488 .32833863 .42900086 .34335328 .42900086 .36038209 .42900086 .4044037 .41099549 .44140626 .37399293 .44140626 .33599855 .44140626 .27598573 .41540528 .18199158 .27227784H.17599488L.21998596 .44140626 .06298828 .41740418 .06498718 .4033966C.07299805 .4044037 .083999637 .4053955 .09199524 .4053955 .11898804 .4053955 .125 .39239503 .125 .37438966L.02999878 0H.10798645L.14299011 .13511658C.15899658 .19619751 .2689972 .37739564 .32099916 .37739564 .33898927 .37739564 .34399415 .359375 .34399415 .33935548 .34399415 .32434083 .34098817 .3083191 .33898927 .2993164L.2619934 0H.34098817L.375 .13511658C.3899994 .19619751 .5 .37739564 .55400088 .37739564 .57199099 .37739564 .5779877 .359375 .5779877 .33935548 .5779877 .32234193 .57598879 .31332398 .57199099 .2993164L.5159912 .078063968C.5109863 .058029176 .5099945 .04801941 .5099945 .041015626 .5099945 .0021820069 .5269928-.0078125 .548996-.0078125 .59599307-.0078125 .647995 .04219055 .6799927 .09623718L.6669922 .10708618Z"/>
<path id="font_4_974" d="M.2679901 .3962555C.31999208 .4772644 .375 .5582733 .42399598 .60827639 .44898988 .63427737 .47799684 .65527346 .5059967 .65527346 .5289917 .65527346 .54100039 .6432648 .54100039 .6242676 .54100039 .5282593 .42599488 .43026734 .2689972 .39526368L.2679901 .3962555M.07699585 .38926698C.10398865 .37025453 .1349945 .3612671 .16499329 .36026 .15098572 .33825685 .13699341 .31625367 .125 .29426576 .07798767 .21224976 .04798889 .1312561 .04798889 .07624817 .04798889 .018249512 .08799744-.0107421879 .1349945-.0107421879 .19799805-.0107421879 .25698854 .04624939 .3619995 .16925049L.34098817 .18624878C.24398804 .07424927 .18899536 .019256592 .14199829 .019256592 .114990238 .019256592 .10598755 .038253786 .10598755 .06225586 .10598755 .1292572 .19699097 .27626039 .24899292 .36026 .4249878 .386261 .57099917 .5152588 .57099917 .6202698 .57099917 .66625979 .548996 .6872711 .5069885 .6872711 .4249878 .6872711 .2899933 .5452728 .18499756 .3902588 .15499878 .3902588 .12399292 .3922577 .09098816 .41526795L.07699585 .38926698Z"/>
<path id="font_2_47" d="M.18099976 .04324341C.18099976 .07325745 .15499878 .100250247 .12599182 .100250247 .09498596 .100250247 .069992069 .07525635 .069992069 .04425049 .069992069 .013244629 .09399414-.0107421879 .125-.0107421879 .15499878-.0107421879 .18099976 .014251709 .18099976 .04324341Z"/>
</defs>
<path transform="matrix(1,0,0,-1,224.914,163.58402)" stroke-width=".3985" stroke-linecap="butt" stroke-miterlimit="10" stroke-linejoin="miter" fill="none" stroke="#cccccc" d="M-183.45157 0V161.39484M-180.89142 0V161.39484M-178.63243 0V161.39484M-176.61196 0V161.39484M-163.32077 0V161.39484M-155.54602 0V161.39484M-150.0296 0V161.39484M-145.7508 0V161.39484M-142.2542 0V161.39484M-139.29859 0V161.39484M-136.73844 0V161.39484M-134.47945 0V161.39484M-132.45897 0V161.39484M-119.16779 0V161.39484M-111.39304 0V161.39484M-105.87662 0V161.39484M-101.59781 0V161.39484M-98.1012 0V161.39484M-95.14558 0V161.39484M-92.58543 0V161.39484M-90.32645 0V161.39484M-88.30597 0V161.39484M-75.01479 0V161.39484M-67.24005 0V161.39484M-61.72363 0V161.39484M-57.44482 0V161.39484M-53.94821 0V161.39484M-50.9926 0V161.39484M-48.43245 0V161.39484M-46.17346 0V161.39484M-44.15298 0V161.39484M-30.8618 0V161.39484M-23.08705 0V161.39484M-17.57063 0V161.39484M-13.29182 0V161.39484M-9.79523 0V161.39484M-6.8396 0V161.39484M-4.27945 0V161.39484M-2.02048 0V161.39484"/>
<path transform="matrix(1,0,0,-1,224.914,163.58402)" stroke-width=".3985" stroke-linecap="butt" stroke-miterlimit="10" stroke-linejoin="miter" fill="none" stroke="#cccccc" d="M-176.61196 0V161.39484M-132.45897 0V161.39484M-88.30597 0V161.39484M-44.15298 0V161.39484M0 0V161.39484"/>
<path transform="matrix(1,0,0,-1,224.914,163.58402)" stroke-width=".3985" stroke-linecap="butt" stroke-miterlimit="10" stroke-linejoin="miter" fill="none" stroke="#cccccc" d="M-185.4424 5.37982H8.82977M-185.4424 59.1781H8.82977M-185.4424 112.97638H8.82977"/>
<path transform="matrix(1,0,0,-1,224.914,163.58402)" stroke-width=".19925" stroke-linecap="butt" stroke-miterlimit="10" stroke-linejoin="miter" fill="none" stroke="#000000" d="M-183.45157-2.83504V0M-180.89142-2.83504V0M-178.63243-2.83504V0M-176.61196-2.83504V0M-163.32077-2.83504V0M-155.54602-2.83504V0M-150.0296-2.83504V0M-145.7508-2.83504V0M-142.2542-2.83504V0M-139.29859-2.83504V0M-136.73844-2.83504V0M-134.47945-2.83504V0M-132.45897-2.83504V0M-119.16779-2.83504V0M-111.39304-2.83504V0M-105.87662-2.83504V0M-101.59781-2.83504V0M-98.1012-2.83504V0M-95.14558-2.83504V0M-92.58543-2.83504V0M-90.32645-2.83504V0M-88.30597-2.83504V0M-75.01479-2.83504V0M-67.24005-2.83504V0M-61.72363-2.83504V0M-57.44482-2.83504V0M-53.94821-2.83504V0M-50.9926-2.83504V0M-48.43245-2.83504V0M-46.17346-2.83504V0M-44.15298-2.83504V0M-30.8618-2.83504V0M-23.08705-2.83504V0M-17.57063-2.83504V0M-13.29182-2.83504V0M-9.79523-2.83504V0M-6.8396-2.83504V0M-4.27945-2.83504V0M-2.02048-2.83504V0"/>
<path transform="matrix(1,0,0,-1,224.914,163.58402)" stroke-width=".19925" stroke-linecap="butt" stroke-miterlimit="10" stroke-linejoin="miter" fill="none" stroke="#000000" d="M-176.61196-4.25212V0M-132.45897-4.25212V0M-88.30597-4.25212V0M-44.15298-4.25212V0M0-4.25212V0"/>
<path transform="matrix(1,0,0,-1,224.914,163.58402)" stroke-width=".19925" stroke-linecap="butt" stroke-miterlimit="10" stroke-linejoin="miter" fill="none" stroke="#000000" d="M-189.68013 5.37982H-185.4424M-189.68013 59.1781H-185.4424M-189.68013 112.97638H-185.4424"/>
<path transform="matrix(1,0,0,-1,224.914,163.58402)" stroke-width=".3985" stroke-linecap="butt" stroke-miterlimit="10" stroke-linejoin="miter" fill="none" stroke="#000000" d="M-185.4424 0V161.39484H8.82977V0H-185.4424Z"/>
<use data-text="1" xlink:href="#font_1_50" transform="matrix(9.96264,0,0,-9.96264,38.692,180.39202)"/>
<use data-text="0" xlink:href="#font_1_49" transform="matrix(9.96264,0,0,-9.96264,43.67332,180.39202)"/>
<use data-text="&#x2212;" xlink:href="#font_2_1155" transform="matrix(7.47198,0,0,-7.47198,48.654,176.40702)"/>
<use data-text="4" xlink:href="#font_2_53" transform="matrix(7.47198,0,0,-7.47198,53.772306,176.40702)"/>
<use data-text="1" xlink:href="#font_1_50" transform="matrix(9.96264,0,0,-9.96264,82.843997,180.39202)"/>
<use data-text="0" xlink:href="#font_1_49" transform="matrix(9.96264,0,0,-9.96264,87.82532,180.39202)"/>
<use data-text="&#x2212;" xlink:href="#font_2_1155" transform="matrix(7.47198,0,0,-7.47198,92.80699,176.40702)"/>
<use data-text="3" xlink:href="#font_2_52" transform="matrix(7.47198,0,0,-7.47198,97.9253,176.40702)"/>
<use data-text="1" xlink:href="#font_1_50" transform="matrix(9.96264,0,0,-9.96264,126.997,180.39202)"/>
<use data-text="0" xlink:href="#font_1_49" transform="matrix(9.96264,0,0,-9.96264,131.97832,180.39202)"/>
<use data-text="&#x2212;" xlink:href="#font_2_1155" transform="matrix(7.47198,0,0,-7.47198,136.959,176.40702)"/>
<use data-text="2" xlink:href="#font_2_51" transform="matrix(7.47198,0,0,-7.47198,142.0773,176.40702)"/>
<use data-text="1" xlink:href="#font_1_50" transform="matrix(9.96264,0,0,-9.96264,171.149,180.39202)"/>
<use data-text="0" xlink:href="#font_1_49" transform="matrix(9.96264,0,0,-9.96264,176.13033,180.39202)"/>
<use data-text="&#x2212;" xlink:href="#font_2_1155" transform="matrix(7.47198,0,0,-7.47198,181.112,176.40702)"/>
<use data-text="1" xlink:href="#font_2_50" transform="matrix(7.47198,0,0,-7.47198,186.2303,176.40702)"/>
<use data-text="1" xlink:href="#font_1_50" transform="matrix(9.96264,0,0,-9.96264,217.86101,180.39202)"/>
<use data-text="0" xlink:href="#font_1_49" transform="matrix(9.96264,0,0,-9.96264,222.84233,180.39202)"/>
<use data-text="0" xlink:href="#font_2_49" transform="matrix(7.47198,0,0,-7.47198,227.82302,176.40702)"/>
<use data-text="0" xlink:href="#font_1_49" transform="matrix(9.96264,0,0,-9.96264,26.735,161.50202)"/>
<use data-text="1" xlink:href="#font_1_50" transform="matrix(9.96264,0,0,-9.96264,26.735,107.77402)"/>
<use data-text="2" xlink:href="#font_1_51" transform="matrix(9.96264,0,0,-9.96264,26.735,53.97702)"/>
<g clip-path="url(#clip_3)">
<path transform="matrix(1,0,0,-1,224.914,163.58402)" stroke-width=".59776" stroke-linecap="butt" stroke-miterlimit="10" stroke-linejoin="miter" fill="none" stroke="#ff0000" d="M0 112.97638-1.78401 109.11626-3.56802 105.63074-5.35336 102.48157-7.13737 99.63425-8.92073 97.05795-10.70407 94.725-12.48741 92.61073-14.2721 90.69308-16.05544 88.95238-17.84148 87.37115-19.6248 85.93376-21.40814 84.62631-23.19215 83.43634-24.97551 82.35275-26.75885 81.36562-28.54353 80.466-30.32755 79.6459-32.11359 78.89809-33.89624 78.21606-35.68025 77.59395-37.4636 77.02641-39.24693 76.50862-41.03096 76.0362-42.81497 75.60516-44.59898 75.2119-46.38367 74.85309-48.167 74.52571-49.95303 74.22705-51.73572 73.9546-53.51973 73.70605-55.30305 73.47935-57.08707 73.27255-58.87108 73.08395-60.65443 72.91196-62.44182 72.7551-64.2238 72.61206-66.00716 72.48163-67.79048 72.3627-69.5745 72.25427-71.3585 72.15541-73.14252 72.06529-74.92653 71.98312-76.71123 71.90822-78.49457 71.83995-80.2779 71.77771-82.06259 71.72098-83.8466 71.66928-85.63063 71.62215-87.41396 71.57921-89.19798 71.54005-90.98267 71.50438-92.76735 71.47186-94.55136 71.44223-96.33334 71.41524-98.11871 71.39063-99.90205 71.3682-101.68607 71.34776-103.47008 71.32913-105.25343 71.31216-107.03946 71.2967-108.8228 71.28262-110.60547 71.26976-112.39015 71.25807-114.1735 71.24739-115.9575 71.23769-117.74219 71.22884-119.5289 71.22076-121.31157 71.2134-123.09491 71.20671-124.87823 71.20062-126.66225 71.19504-128.44493 71.18997-130.22895 71.18535-132.01296 71.18115-133.79764 71.17732-135.58165 71.17383-137.36769 71.17064-139.15036 71.16774-140.9337 71.1651-142.71703 71.16269-144.50104 71.16049-146.28507 71.1585-148.06908 71.15666-149.85242 71.15501-151.6398 71.1535-153.42113 71.15213-155.20581 71.15088-156.98847 71.14972-158.77248 71.14868-160.55649 71.14774-162.3405 71.14687-164.12723 71.14607-165.90988 71.14536-167.69257 71.1447-169.47658 71.1441-171.26059 71.14357-173.04392 71.14307-174.82862 71.14261-176.61196 71.1422"/>
<path transform="matrix(1,0,0,-1,224.914,163.58402)" stroke-width=".59776" stroke-linecap="butt" stroke-dasharray=".59776,1.99255" stroke-miterlimit="10" stroke-linejoin="miter" fill="none" stroke="#ff0000" d="M0 71.13799H-1.78401-3.56802-5.35336-7.13737-8.92073-10.70407-12.48741-14.2721-16.05544-17.84148-19.6248-21.40814-23.19215-24.97551-26.75885-28.54353-30.32755-32.11359-33.89624-35.68025-37.4636-39.24693-41.03096-42.81497-44.59898-46.38367-48.167-49.95303-51.73572-53.51973-55.30305-57.08707-58.87108-60.65443-62.44182-64.2238-66.00716-67.79048-69.5745-71.3585-73.14252-74.92653-76.71123-78.49457-80.2779-82.06259-83.8466-85.63063-87.41396-89.19798-90.98267-92.76735-94.55136-96.33334-98.11871-99.90205-101.68607-103.47008-105.25343-107.03946-108.8228-110.60547-112.39015-114.1735-115.9575-117.74219-119.5289-121.31157-123.09491-124.87823-126.66225-128.44493-130.22895-132.01296-133.79764-135.58165-137.36769-139.15036-140.9337-142.71703-144.50104-146.28507-148.06908-149.85242-151.6398-153.42113-155.20581-156.98847-158.77248-160.55649-162.3405-164.12723-165.90988-167.69257-169.47658-171.26059-173.04392-174.82862-176.61196"/>
<path transform="matrix(1,0,0,-1,224.914,163.58402)" stroke-width=".59776" stroke-linecap="butt" stroke-miterlimit="10" stroke-linejoin="miter" fill="none" stroke="#0000ff" d="M0 69.93776-1.78401 65.2262-3.56802 61.00774-5.35336 57.23123-7.13737 53.85036-8.92073 50.8233-10.70407 48.11247-12.48741 45.68408-14.2721 43.50781-16.05544 41.55661-17.84148 39.80624-19.6248 38.23517-21.40814 36.82413-23.19215 35.55598-24.97551 34.41556-26.75885 33.38925-28.54353 32.46504-30.32755 31.6322-32.11359 30.88121-33.89624 30.20358-35.68025 29.59177-37.4636 29.03902-39.24693 28.53938-41.03096 28.0875-42.81497 27.67854-44.59898 27.30827-46.38367 26.9729-48.167 26.66896-49.95303 26.3934-51.73572 26.14352-53.51973 25.91678-55.30305 25.711-57.08707 25.52417-58.87108 25.3545-60.65443 25.2004-62.44182 25.06035-64.2238 24.93307-66.00716 24.81738-67.79048 24.7122-69.5745 24.61656-71.3585 24.52956-73.14252 24.45041-74.92653 24.3784-76.71123 24.3129-78.49457 24.25328-80.2779 24.19902-82.06259 24.14963-83.8466 24.10468-85.63063 24.06375-87.41396 24.02649-89.19798 23.99255-90.98267 23.96167-92.76735 23.93353-94.55136 23.90793-96.33334 23.8846-98.11871 23.86336-99.90205 23.844-101.68607 23.82637-103.47008 23.81032-105.25343 23.7957-107.03946 23.78238-108.8228 23.77025-110.60547 23.7592-112.39015 23.74911-114.1735 23.73994-115.9575 23.73158-117.74219 23.72397-119.5289 23.71704-121.31157 23.71072-123.09491 23.70497-124.87823 23.69972-126.66225 23.69495-128.44493 23.69058-130.22895 23.68663-132.01296 23.68301-133.79764 23.67972-135.58165 23.67673-137.36769 23.67398-139.15036 23.6715-140.9337 23.66924-142.71703 23.66716-144.50104 23.6653-146.28507 23.66357-148.06908 23.662-149.85242 23.66058-151.6398 23.65929-153.42113 23.6581-155.20581 23.65703-156.98847 23.65605-158.77248 23.65515-160.55649 23.65433-162.3405 23.65358-164.12723 23.65292-165.90988 23.6523-167.69257 23.65173-169.47658 23.65123-171.26059 23.65076-173.04392 23.65033-174.82862 23.64993-176.61196 23.64958"/>
<path transform="matrix(1,0,0,-1,224.914,163.58402)" stroke-width=".59776" stroke-linecap="butt" stroke-dasharray=".59776,1.99255" stroke-miterlimit="10" stroke-linejoin="miter" fill="none" stroke="#0000ff" d="M0 23.64597H-1.78401-3.56802-5.35336-7.13737-8.92073-10.70407-12.48741-14.2721-16.05544-17.84148-19.6248-21.40814-23.19215-24.97551-26.75885-28.54353-30.32755-32.11359-33.89624-35.68025-37.4636-39.24693-41.03096-42.81497-44.59898-46.38367-48.167-49.95303-51.73572-53.51973-55.30305-57.08707-58.87108-60.65443-62.44182-64.2238-66.00716-67.79048-69.5745-71.3585-73.14252-74.92653-76.71123-78.49457-80.2779-82.06259-83.8466-85.63063-87.41396-89.19798-90.98267-92.76735-94.55136-96.33334-98.11871-99.90205-101.68607-103.47008-105.25343-107.03946-108.8228-110.60547-112.39015-114.1735-115.9575-117.74219-119.5289-121.31157-123.09491-124.87823-126.66225-128.44493-130.22895-132.01296-133.79764-135.58165-137.36769-139.15036-140.9337-142.71703-144.50104-146.28507-148.06908-149.85242-151.6398-153.42113-155.20581-156.98847-158.77248-160.55649-162.3405-164.12723-165.90988-167.69257-169.47658-171.26059-173.04392-174.82862-176.61196"/>
<path transform="matrix(1,0,0,-1,224.914,163.58402)" stroke-width=".59776" stroke-linecap="butt" stroke-dasharray="2.98883,2.98883" stroke-miterlimit="10" stroke-linejoin="miter" fill="none" stroke="#ff0000" d="M0 67.1629-1.78401 62.55426-3.56802 58.36234-5.35336 54.54901-7.13737 51.07964-8.92073 47.9227-10.70407 45.04958-12.48741 42.4343-14.2721 40.05324-16.05544 37.885-17.84148 35.9102-19.6248 34.11122-21.40814 32.47212-23.19215 30.97845-24.97551 29.6171-26.75885 28.37614-28.54353 27.24484-30.32755 26.2134-32.11359 25.27289-33.89624 24.41525-35.68025 23.63316-37.4636 22.91992-39.24693 22.26945-41.03096 21.67625-42.81497 21.13522-44.59898 20.64183-46.38367 20.19186-48.167 19.78151-49.95303 19.40729-51.73572 19.06606-53.51973 18.75485-55.30305 18.47113-57.08707 18.21239-58.87108 17.97649-60.65443 17.76141-62.44182 17.56532-64.2238 17.38652-66.00716 17.22354-67.79048 17.07498-69.5745 16.93953-71.3585 16.81606-73.14252 16.70352-74.92653 16.60094-76.71123 16.50745-78.49457 16.42221-80.2779 16.34454-82.06259 16.27374-83.8466 16.20921-85.63063 16.1504-87.41396 16.09682-89.19798 16.04797-90.98267 16.00346-92.76735 15.9629-94.55136 15.92593-96.33334 15.89226-98.11871 15.86156-99.90205 15.83359-101.68607 15.80809-103.47008 15.78487-105.25343 15.7637-107.03946 15.74442-108.8228 15.72684-110.60547 15.71082-112.39015 15.69621-114.1735 15.68292-115.9575 15.6708-117.74219 15.65976-119.5289 15.6497-121.31157 15.64053-123.09491 15.63219-124.87823 15.62457-126.66225 15.61765-128.44493 15.61131-130.22895 15.60556-132.01296 15.60031-133.79764 15.59552-135.58165 15.59117-137.36769 15.5872-139.15036 15.58359-140.9337 15.58029-142.71703 15.57729-144.50104 15.57454-146.28507 15.57207-148.06908 15.56978-149.85242 15.56772-151.6398 15.56583-153.42113 15.56412-155.20581 15.56255-156.98847 15.56111-158.77248 15.55981-160.55649 15.55862-162.3405 15.55754-164.12723 15.55658-165.90988 15.55568-167.69257 15.55486-169.47658 15.55411-171.26059 15.55342-173.04392 15.55281-174.82862 15.55226-176.61196 15.55174"/>
<path transform="matrix(1,0,0,-1,224.914,163.58402)" stroke-width=".59776" stroke-linecap="butt" stroke-dasharray=".59776,1.99255" stroke-miterlimit="10" stroke-linejoin="miter" fill="none" stroke="#ff0000" d="M0 15.54648H-1.78401-3.56802-5.35336-7.13737-8.92073-10.70407-12.48741-14.2721-16.05544-17.84148-19.6248-21.40814-23.19215-24.97551-26.75885-28.54353-30.32755-32.11359-33.89624-35.68025-37.4636-39.24693-41.03096-42.81497-44.59898-46.38367-48.167-49.95303-51.73572-53.51973-55.30305-57.08707-58.87108-60.65443-62.44182-64.2238-66.00716-67.79048-69.5745-71.3585-73.14252-74.92653-76.71123-78.49457-80.2779-82.06259-83.8466-85.63063-87.41396-89.19798-90.98267-92.76735-94.55136-96.33334-98.11871-99.90205-101.68607-103.47008-105.25343-107.03946-108.8228-110.60547-112.39015-114.1735-115.9575-117.74219-119.5289-121.31157-123.09491-124.87823-126.66225-128.44493-130.22895-132.01296-133.79764-135.58165-137.36769-139.15036-140.9337-142.71703-144.50104-146.28507-148.06908-149.85242-151.6398-153.42113-155.20581-156.98847-158.77248-160.55649-162.3405-164.12723-165.90988-167.69257-169.47658-171.26059-173.04392-174.82862-176.61196"/>
<path transform="matrix(1,0,0,-1,224.914,163.58402)" stroke-width=".59776" stroke-linecap="butt" stroke-dasharray="2.98883,2.98883" stroke-miterlimit="10" stroke-linejoin="miter" fill="none" stroke="#0000ff" d="M0 225.55596-1.78401 197.93637-3.56802 173.56214-5.35336 152.11632-7.13737 133.30117-8.92073 116.83853-10.70407 102.47028-12.48741 89.95842-14.2721 79.08507-16.05544 69.6522-17.84148 61.48103-19.6248 54.41122-21.40814 48.29984-23.19215 43.0203-24.97551 38.461-26.75885 34.52408-28.54353 31.12405-30.32755 28.18658-32.11359 25.64725-33.89624 23.45032-35.68025 21.54779-37.4636 19.89832-39.24693 18.46642-41.03096 17.22162-42.81497 16.13785-44.59898 15.19278-46.38367 14.36725-48.167 13.6449-49.95303 13.0117-51.73572 12.45567-53.51973 11.96654-55.30305 11.53545-57.08707 11.15485-58.87108 10.8182-60.65443 10.51997-62.44182 10.25531-64.2238 10.02002-66.00716 9.81056-67.79048 9.6238-69.5745 9.457-71.3585 9.30786-73.14252 9.17432-74.92653 9.0546-76.71123 8.94714-78.49457 8.85059-80.2779 8.76372-82.06259 8.68552-83.8466 8.61505-85.63063 8.55147-87.41396 8.49408-89.19798 8.44223-90.98267 8.39536-92.76735 8.35297-94.55136 8.31459-96.33334 8.27985-98.11871 8.24834-99.90205 8.2198-101.68607 8.19392-103.47008 8.17043-105.25343 8.14911-107.03946 8.12975-108.8228 8.11218-110.60547 8.09622-112.39015 8.0817-114.1735 8.06851-115.9575 8.05652-117.74219 8.04564-119.5289 8.0357-121.31157 8.0267-123.09491 8.01851-124.87823 8.01103-126.66225 8.00424-128.44493 7.99806-130.22895 7.99243-132.01296 7.98732-133.79764 7.98265-135.58165 7.97841-137.36769 7.97455-139.15036 7.97104-140.9337 7.96783-142.71703 7.96492-144.50104 7.96225-146.28507 7.95984-148.06908 7.95764-149.85242 7.95563-151.6398 7.95381-153.42113 7.95215-155.20581 7.95062-156.98847 7.94925-158.77248 7.94798-160.55649 7.94684-162.3405 7.94579-164.12723 7.94485-165.90988 7.94397-167.69257 7.94319-169.47658 7.94246-171.26059 7.9418-173.04392 7.94122-174.82862 7.94067-176.61196 7.94017"/>
<path transform="matrix(1,0,0,-1,224.914,163.58402)" stroke-width=".59776" stroke-linecap="butt" stroke-dasharray=".59776,1.99255" stroke-miterlimit="10" stroke-linejoin="miter" fill="none" stroke="#0000ff" d="M0 7.93509H-1.78401-3.56802-5.35336-7.13737-8.92073-10.70407-12.48741-14.2721-16.05544-17.84148-19.6248-21.40814-23.19215-24.97551-26.75885-28.54353-30.32755-32.11359-33.89624-35.68025-37.4636-39.24693-41.03096-42.81497-44.59898-46.38367-48.167-49.95303-51.73572-53.51973-55.30305-57.08707-58.87108-60.65443-62.44182-64.2238-66.00716-67.79048-69.5745-71.3585-73.14252-74.92653-76.71123-78.49457-80.2779-82.06259-83.8466-85.63063-87.41396-89.19798-90.98267-92.76735-94.55136-96.33334-98.11871-99.90205-101.68607-103.47008-105.25343-107.03946-108.8228-110.60547-112.39015-114.1735-115.9575-117.74219-119.5289-121.31157-123.09491-124.87823-126.66225-128.44493-130.22895-132.01296-133.79764-135.58165-137.36769-139.15036-140.9337-142.71703-144.50104-146.28507-148.06908-149.85242-151.6398-153.42113-155.20581-156.98847-158.77248-160.55649-162.3405-164.12723-165.90988-167.69257-169.47658-171.26059-173.04392-174.82862-176.61196"/>
<path transform="matrix(1,0,0,-1,224.914,163.58402)" stroke-width=".59776" stroke-linecap="butt" stroke-dasharray="2.98883,2.98883" stroke-miterlimit="10" stroke-linejoin="miter" fill="none" stroke="#008000" d="M0 41.85112-1.78401 38.79837-3.56802 36.02658-5.35336 33.51016-7.13737 31.22585-8.92073 29.15231-10.70407 27.27017-12.48741 25.56177-14.2721 24.011-16.05544 22.60329-17.84148 21.32527-19.6248 20.16489-21.40814 19.11122-23.19215 18.15427-24.97551 17.28505-26.75885 16.49539-28.54353 15.77786-30.32755 15.1258-32.11359 14.53308-33.89624 13.99426-35.68025 13.50432-37.4636 13.05878-39.24693 12.65352-41.03096 12.28488-42.81497 11.94948-44.59898 11.64429-46.38367 11.36655-48.167 11.11377-49.95303 10.88367-51.73572 10.67421-53.51973 10.48352-55.30305 10.30989-57.08707 10.1518-58.87108 10.00783-60.65443 9.87675-62.44182 9.75735-64.2238 9.6486-66.00716 9.54958-67.79048 9.45938-69.5745 9.3772-71.3585 9.30235-73.14252 9.23419-74.92653 9.17207-76.71123 9.1155-78.49457 9.06396-80.2779 9.01701-82.06259 8.97424-83.8466 8.93526-85.63063 8.89977-87.41396 8.86742-89.19798 8.83795-90.98267 8.81111-92.76735 8.78665-94.55136 8.76436-96.33334 8.74405-98.11871 8.72556-99.90205 8.7087-101.68607 8.69333-103.47008 8.67935-105.25343 8.6666-107.03946 8.65498-108.8228 8.6444-110.60547 8.63477-112.39015 8.62598-114.1735 8.61797-115.9575 8.61067-117.74219 8.60403-119.5289 8.59798-121.31157 8.59245-123.09491 8.58743-124.87823 8.58284-126.66225 8.57867-128.44493 8.57487-130.22895 8.57141-132.01296 8.56825-133.79764 8.56538-135.58165 8.56274-137.36769 8.56036-139.15036 8.55818-140.9337 8.55621-142.71703 8.5544-144.50104 8.55276-146.28507 8.55125-148.06908 8.5499-149.85242 8.54865-151.6398 8.54752-153.42113 8.54648-155.20581 8.54555-156.98847 8.54468-158.77248 8.5439-160.55649 8.54318-162.3405 8.54253-164.12723 8.54193-165.90988 8.54141-167.69257 8.54092-169.47658 8.54047-171.26059 8.54005-173.04392 8.53969-174.82862 8.53934-176.61196 8.53903"/>
<path transform="matrix(1,0,0,-1,224.914,163.58402)" stroke-width=".59776" stroke-linecap="butt" stroke-dasharray=".59776,1.99255" stroke-miterlimit="10" stroke-linejoin="miter" fill="none" stroke="#008000" d="M0 8.53587H-1.78401-3.56802-5.35336-7.13737-8.92073-10.70407-12.48741-14.2721-16.05544-17.84148-19.6248-21.40814-23.19215-24.97551-26.75885-28.54353-30.32755-32.11359-33.89624-35.68025-37.4636-39.24693-41.03096-42.81497-44.59898-46.38367-48.167-49.95303-51.73572-53.51973-55.30305-57.08707-58.87108-60.65443-62.44182-64.2238-66.00716-67.79048-69.5745-71.3585-73.14252-74.92653-76.71123-78.49457-80.2779-82.06259-83.8466-85.63063-87.41396-89.19798-90.98267-92.76735-94.55136-96.33334-98.11871-99.90205-101.68607-103.47008-105.25343-107.03946-108.8228-110.60547-112.39015-114.1735-115.9575-117.74219-119.5289-121.31157-123.09491-124.87823-126.66225-128.44493-130.22895-132.01296-133.79764-135.58165-137.36769-139.15036-140.9337-142.71703-144.50104-146.28507-148.06908-149.85242-151.6398-153.42113-155.20581-156.98847-158.77248-160.55649-162.3405-164.12723-165.90988-167.69257-169.47658-171.26059-173.04392-174.82862-176.61196"/>
</g>
<path transform="matrix(1,0,0,-1,224.914,163.58402)" stroke-width=".59776" stroke-linecap="butt" stroke-miterlimit="10" stroke-linejoin="miter" fill="none" stroke="#ff0000" d="M1.99255 112.97638C1.99255 114.07686 1.10046 114.96893 0 114.96893-1.10046 114.96893-1.99255 114.07686-1.99255 112.97638-1.99255 111.87592-1.10046 110.98383 0 110.98383 1.10046 110.98383 1.99255 111.87592 1.99255 112.97638ZM0 112.97638"/>
<path transform="matrix(1,0,0,-1,224.914,163.58402)" stroke-width=".59776" stroke-linecap="butt" stroke-miterlimit="10" stroke-linejoin="miter" fill="none" stroke="#ff0000" d="M-42.60643 75.2119C-42.60643 76.31238-43.4985 77.20445-44.59898 77.20445-45.69945 77.20445-46.59154 76.31238-46.59154 75.2119-46.59154 74.11143-45.69945 73.21935-44.59898 73.21935-43.4985 73.21935-42.60643 74.11143-42.60643 75.2119ZM-44.59898 75.2119"/>
<path transform="matrix(1,0,0,-1,224.914,163.58402)" stroke-width=".59776" stroke-linecap="butt" stroke-miterlimit="10" stroke-linejoin="miter" fill="none" stroke="#ff0000" d="M-87.20543 71.54005C-87.20543 72.64053-88.0975 73.53261-89.19798 73.53261-90.29845 73.53261-91.19054 72.64053-91.19054 71.54005-91.19054 70.43959-90.29845 69.5475-89.19798 69.5475-88.0975 69.5475-87.20543 70.43959-87.20543 71.54005ZM-89.19798 71.54005"/>
<path transform="matrix(1,0,0,-1,224.914,163.58402)" stroke-width=".59776" stroke-linecap="butt" stroke-miterlimit="10" stroke-linejoin="miter" fill="none" stroke="#ff0000" d="M-131.80509 71.17732C-131.80509 72.2778-132.69716 73.16988-133.79764 73.16988-134.8981 73.16988-135.79019 72.2778-135.79019 71.17732-135.79019 70.07686-134.8981 69.18477-133.79764 69.18477-132.69716 69.18477-131.80509 70.07686-131.80509 71.17732ZM-133.79764 71.17732"/>
<path transform="matrix(1,0,0,-1,224.914,163.58402)" stroke-width=".59776" stroke-linecap="butt" stroke-miterlimit="10" stroke-linejoin="miter" fill="none" stroke="#ff0000" d=""/>
<path transform="matrix(1,0,0,-1,224.914,163.58402)" stroke-width=".59776" stroke-linecap="butt" stroke-miterlimit="10" stroke-linejoin="miter" fill="none" stroke="#0000ff" d="M-2.11342 67.82434 2.11342 72.05118M-2.11342 72.05118 2.11342 67.82434"/>
<path transform="matrix(1,0,0,-1,224.914,163.58402)" stroke-width=".59776" stroke-linecap="butt" stroke-miterlimit="10" stroke-linejoin="miter" fill="none" stroke="#0000ff" d="M-46.7124 25.19485-42.48555 29.4217M-46.7124 29.4217-42.48555 25.19485"/>
<path transform="matrix(1,0,0,-1,224.914,163.58402)" stroke-width=".59776" stroke-linecap="butt" stroke-miterlimit="10" stroke-linejoin="miter" fill="none" stroke="#0000ff" d="M-91.3114 21.87914-87.08455 26.10599M-91.3114 26.10599-87.08455 21.87914"/>
<path transform="matrix(1,0,0,-1,224.914,163.58402)" stroke-width=".59776" stroke-linecap="butt" stroke-miterlimit="10" stroke-linejoin="miter" fill="none" stroke="#0000ff" d="M-135.91106 21.5663-131.6842 25.79314M-135.91106 25.79314-131.6842 21.5663"/>
<path transform="matrix(1,0,0,-1,224.914,163.58402)" stroke-width=".59776" stroke-linecap="butt" stroke-miterlimit="10" stroke-linejoin="miter" fill="none" stroke="#0000ff" d=""/>
<path transform="matrix(1,0,0,-1,224.914,163.58402)" stroke-width=".59776" stroke-linecap="butt" stroke-miterlimit="10" stroke-linejoin="miter" fill="none" stroke="#ff0000" d="M1.99255 67.1629C1.99255 68.26337 1.10046 69.15546 0 69.15546-1.10046 69.15546-1.99255 68.26337-1.99255 67.1629-1.99255 66.06242-1.10046 65.17035 0 65.17035 1.10046 65.17035 1.99255 66.06242 1.99255 67.1629ZM0 67.1629"/>
<path transform="matrix(1,0,0,-1,224.914,163.58402)" stroke-width=".59776" stroke-linecap="butt" stroke-miterlimit="10" stroke-linejoin="miter" fill="none" stroke="#ff0000" d="M-42.60643 20.64183C-42.60643 21.74231-43.4985 22.63438-44.59898 22.63438-45.69945 22.63438-46.59154 21.74231-46.59154 20.64183-46.59154 19.54137-45.69945 18.64928-44.59898 18.64928-43.4985 18.64928-42.60643 19.54137-42.60643 20.64183ZM-44.59898 20.64183"/>
<path transform="matrix(1,0,0,-1,224.914,163.58402)" stroke-width=".59776" stroke-linecap="butt" stroke-miterlimit="10" stroke-linejoin="miter" fill="none" stroke="#ff0000" d="M-87.20543 16.04797C-87.20543 17.14845-88.0975 18.04053-89.19798 18.04053-90.29845 18.04053-91.19054 17.14845-91.19054 16.04797-91.19054 14.94751-90.29845 14.05542-89.19798 14.05542-88.0975 14.05542-87.20543 14.94751-87.20543 16.04797ZM-89.19798 16.04797"/>
<path transform="matrix(1,0,0,-1,224.914,163.58402)" stroke-width=".59776" stroke-linecap="butt" stroke-miterlimit="10" stroke-linejoin="miter" fill="none" stroke="#ff0000" d="M-131.80509 15.59552C-131.80509 16.69598-132.69716 17.58807-133.79764 17.58807-134.8981 17.58807-135.79019 16.69598-135.79019 15.59552-135.79019 14.49504-134.8981 13.60297-133.79764 13.60297-132.69716 13.60297-131.80509 14.49504-131.80509 15.59552ZM-133.79764 15.59552"/>
<path transform="matrix(1,0,0,-1,224.914,163.58402)" stroke-width=".59776" stroke-linecap="butt" stroke-miterlimit="10" stroke-linejoin="miter" fill="none" stroke="#ff0000" d=""/>
<path transform="matrix(1,0,0,-1,224.914,163.58402)" stroke-width=".59776" stroke-linecap="butt" stroke-miterlimit="10" stroke-linejoin="miter" fill="none" stroke="#0000ff" d="M-7.4668 150.0029-3.23994 154.22975M-7.4668 154.22975-3.23994 150.0029"/>
<path transform="matrix(1,0,0,-1,224.914,163.58402)" stroke-width=".59776" stroke-linecap="butt" stroke-miterlimit="10" stroke-linejoin="miter" fill="none" stroke="#0000ff" d="M-52.06647 10.89827-47.83961 15.12512M-52.06647 15.12512-47.83961 10.89827"/>
<path transform="matrix(1,0,0,-1,224.914,163.58402)" stroke-width=".59776" stroke-linecap="butt" stroke-miterlimit="10" stroke-linejoin="miter" fill="none" stroke="#0000ff" d="M-96.66478 6.20117-92.43793 10.42802M-96.66478 10.42802-92.43793 6.20117"/>
<path transform="matrix(1,0,0,-1,224.914,163.58402)" stroke-width=".59776" stroke-linecap="butt" stroke-miterlimit="10" stroke-linejoin="miter" fill="none" stroke="#0000ff" d="M-141.26378 5.85762-137.03694 10.08447M-141.26378 10.08447-137.03694 5.85762"/>
<path transform="matrix(1,0,0,-1,224.914,163.58402)" stroke-width=".59776" stroke-linecap="butt" stroke-miterlimit="10" stroke-linejoin="miter" fill="none" stroke="#0000ff" d=""/>
<path transform="matrix(1,0,0,-1,224.914,163.58402)" d="M0 44.83995 2.58841 40.3567H-2.58841Z" fill="#008000"/>
<path transform="matrix(1,0,0,-1,224.914,163.58402)" stroke-width=".59776" stroke-linecap="butt" stroke-miterlimit="10" stroke-linejoin="miter" fill="none" stroke="#008000" d="M0 44.83995 2.58841 40.3567H-2.58841Z"/>
<path transform="matrix(1,0,0,-1,224.914,163.58402)" d="M-44.59898 14.63312-42.01057 10.14987H-47.1874Z" fill="#008000"/>
<path transform="matrix(1,0,0,-1,224.914,163.58402)" stroke-width=".59776" stroke-linecap="butt" stroke-miterlimit="10" stroke-linejoin="miter" fill="none" stroke="#008000" d="M-44.59898 14.63312-42.01057 10.14987H-47.1874Z"/>
<path transform="matrix(1,0,0,-1,224.914,163.58402)" d="M-89.19798 11.82678-86.60957 7.34354H-91.78639Z" fill="#008000"/>
<path transform="matrix(1,0,0,-1,224.914,163.58402)" stroke-width=".59776" stroke-linecap="butt" stroke-miterlimit="10" stroke-linejoin="miter" fill="none" stroke="#008000" d="M-89.19798 11.82678-86.60957 7.34354H-91.78639Z"/>
<path transform="matrix(1,0,0,-1,224.914,163.58402)" d="M-133.79764 11.55421-131.20923 7.07097H-136.38605Z" fill="#008000"/>
<path transform="matrix(1,0,0,-1,224.914,163.58402)" stroke-width=".59776" stroke-linecap="butt" stroke-miterlimit="10" stroke-linejoin="miter" fill="none" stroke="#008000" d="M-133.79764 11.55421-131.20923 7.07097H-136.38605Z"/>
<path transform="matrix(1,0,0,-1,224.914,163.58402)" stroke-width=".59776" stroke-linecap="butt" stroke-miterlimit="10" stroke-linejoin="miter" fill="none" stroke="#008000" d=""/>
<use data-text="&#x1d438;" xlink:href="#font_1_2480" transform="matrix(9.96264,0,0,-9.96264,128.531,193.87702)"/>
<use data-text="&#x1d714;" xlink:href="#font_1_3186" transform="matrix(9.96264,0,0,-9.96264,137.89589,193.87702)"/>
<use data-text="&#x1d438;" xlink:href="#font_1_2480" transform="matrix(0,-9.96264,-9.96264,-0,14.348999,111.23201)"/>
<use data-text="&#x1d714;" xlink:href="#font_1_3186" transform="matrix(0,-9.96264,-9.96264,-0,14.348999,101.86713)"/>
<use data-text="(" xlink:href="#font_1_3617" transform="matrix(0,-9.96264,-9.96264,-0,16.351998,93.41501)"/>
<use data-text="&#x211a;" xlink:href="#font_1_980" transform="matrix(0,-9.96264,-9.96264,-0,14.348999,88.753009)"/>
<use data-text="&#x2212;" xlink:href="#font_2_1155" transform="matrix(0,-7.47198,-7.47198,-0,10.363998,81.13101)"/>
<use data-text="1" xlink:href="#font_2_50" transform="matrix(0,-7.47198,-7.47198,-0,10.363998,76.0127)"/>
<use data-text=")" xlink:href="#font_1_3618" transform="matrix(0,-9.96264,-9.96264,-0,16.351998,71.869)"/>
<use data-text="&#x1d456;" xlink:href="#font_2_2509" transform="matrix(0,-7.47198,-7.47198,-0,18.484002,67.20601)"/>
<use data-text="&#x1d457;" xlink:href="#font_2_2510" transform="matrix(0,-7.47198,-7.47198,-0,18.484002,64.88222)"/>
<use data-text="&#x1d458;" xlink:href="#font_2_2511" transform="matrix(0,-7.47198,-7.47198,-0,18.484002,61.527299)"/>
<use data-text="&#x1d459;" xlink:href="#font_2_2512" transform="matrix(0,-7.47198,-7.47198,-0,18.484002,57.477487)"/>
<path transform="matrix(1,0,0,-1,224.914,163.58402)" d="M-179.41524 94.18658H-36.817979V156.35391H-179.41524Z" fill="#ffffff" fill-opacity=".8"/>
<path transform="matrix(1,0,0,-1,224.914,163.58402)" stroke-width=".3985" stroke-linecap="butt" stroke-miterlimit="10" stroke-linejoin="miter" fill="none" stroke="#cccccc" d="M-179.41524 94.18658H-36.817979V156.35391H-179.41524Z"/>
<path transform="matrix(1,0,0,-1,48.789007,15.043015)" stroke-width=".59776" stroke-linecap="butt" stroke-miterlimit="10" stroke-linejoin="miter" fill="none" stroke="#ff0000" d="M0 0H8.50412 17.00826"/>
<path transform="matrix(1,0,0,-1,48.789007,15.043015)" stroke-width=".59776" stroke-linecap="butt" stroke-miterlimit="10" stroke-linejoin="miter" fill="none" stroke="#ff0000" d="M10.49667 0C10.49667 1.10046 9.60458 1.99255 8.50412 1.99255 7.40364 1.99255 6.51157 1.10046 6.51157 0 6.51157-1.10046 7.40364-1.99255 8.50412-1.99255 9.60458-1.99255 10.49667-1.10046 10.49667 0ZM8.50412 0"/>
<use data-text="&#x1d438;" xlink:href="#font_2_2480" transform="matrix(6.97385,0,0,-6.97385,68.088008,17.374009)"/>
<use data-text="&#x1d714;" xlink:href="#font_2_3186" transform="matrix(6.97385,0,0,-6.97385,74.643428,17.374009)"/>
<use data-text="(" xlink:href="#font_2_3617" transform="matrix(6.97385,0,0,-6.97385,80.560009,18.776001)"/>
<use data-text="&#x211a;" xlink:href="#font_2_980" transform="matrix(6.97385,0,0,-6.97385,83.824008,17.374009)"/>
<use data-text="&#x2212;" xlink:href="#font_4_1155" transform="matrix(4.98132,0,0,-4.98132,89.159008,14.585007)"/>
<use data-text="1" xlink:href="#font_4_50" transform="matrix(4.98132,0,0,-4.98132,92.571208,14.585007)"/>
<use data-text=")" xlink:href="#font_2_3618" transform="matrix(6.97385,0,0,-6.97385,95.34701,18.776001)"/>
<use data-text="&#x1d45b;" xlink:href="#font_4_2514" transform="matrix(4.98132,0,0,-4.98132,98.61101,20.268998)"/>
<use data-text="&#x1d45b;" xlink:href="#font_4_2514" transform="matrix(4.98132,0,0,-4.98132,101.08672,20.268998)"/>
<use data-text="&#x1d45b;" xlink:href="#font_4_2514" transform="matrix(4.98132,0,0,-4.98132,103.56244,20.268998)"/>
<use data-text="&#x1d45b;" xlink:href="#font_4_2514" transform="matrix(4.98132,0,0,-4.98132,106.038158,20.268998)"/>
<use data-text="(" xlink:href="#font_5_9" transform="matrix(6.97385,0,0,-6.97385,110.54301,17.374009)"/>
<use data-text="&#x1d702;" xlink:href="#font_2_3168" transform="matrix(6.97385,0,0,-6.97385,112.866008,17.374009)"/>
<use data-text="=" xlink:href="#font_2_62" transform="matrix(6.97385,0,0,-6.97385,118.28468,17.374009)"/>
<use data-text="1" xlink:href="#font_2_50" transform="matrix(6.97385,0,0,-6.97385,125.000499,17.374009)"/>
<use data-text=")" xlink:href="#font_5_10" transform="matrix(6.97385,0,0,-6.97385,128.491,17.374009)"/>
<path transform="matrix(1,0,0,-1,48.789,26.679015)" stroke-width=".59776" stroke-linecap="butt" stroke-miterlimit="10" stroke-linejoin="miter" fill="none" stroke="#0000ff" d="M0 0H8.50412 17.00826"/>
<path transform="matrix(1,0,0,-1,48.789,26.679015)" stroke-width=".59776" stroke-linecap="butt" stroke-miterlimit="10" stroke-linejoin="miter" fill="none" stroke="#0000ff" d="M6.39069-2.11342 10.61754 2.11342M6.39069 2.11342 10.61754-2.11342"/>
<use data-text="&#x1d438;" xlink:href="#font_2_2480" transform="matrix(6.97385,0,0,-6.97385,68.088008,29.011017)"/>
<use data-text="&#x1d714;" xlink:href="#font_2_3186" transform="matrix(6.97385,0,0,-6.97385,74.643428,29.011017)"/>
<use data-text="(" xlink:href="#font_2_3617" transform="matrix(6.97385,0,0,-6.97385,80.560009,30.412018)"/>
<use data-text="&#x211a;" xlink:href="#font_2_980" transform="matrix(6.97385,0,0,-6.97385,83.824008,29.011017)"/>
<use data-text="&#x2212;" xlink:href="#font_4_1155" transform="matrix(4.98132,0,0,-4.98132,89.159008,26.221024)"/>
<use data-text="1" xlink:href="#font_4_50" transform="matrix(4.98132,0,0,-4.98132,92.571208,26.221024)"/>
<use data-text=")" xlink:href="#font_2_3618" transform="matrix(6.97385,0,0,-6.97385,95.34701,30.412018)"/>
<use data-text="&#x1d45a;" xlink:href="#font_4_2513" transform="matrix(4.98132,0,0,-4.98132,98.61101,31.905014)"/>
<use data-text="&#x1d45b;" xlink:href="#font_4_2514" transform="matrix(4.98132,0,0,-4.98132,102.14774,31.905014)"/>
<use data-text="&#x1d45a;" xlink:href="#font_4_2513" transform="matrix(4.98132,0,0,-4.98132,104.62346,31.905014)"/>
<use data-text="&#x1d45b;" xlink:href="#font_4_2514" transform="matrix(4.98132,0,0,-4.98132,108.160198,31.905014)"/>
<use data-text="=" xlink:href="#font_2_62" transform="matrix(6.97385,0,0,-6.97385,112.85901,29.011017)"/>
<use data-text="&#x1d438;" xlink:href="#font_2_2480" transform="matrix(6.97385,0,0,-6.97385,119.56785,29.011017)"/>
<use data-text="&#x1d714;" xlink:href="#font_2_3186" transform="matrix(6.97385,0,0,-6.97385,126.13024,29.011017)"/>
<use data-text="(" xlink:href="#font_2_3617" transform="matrix(6.97385,0,0,-6.97385,132.04502,30.412018)"/>
<use data-text="&#x211a;" xlink:href="#font_2_980" transform="matrix(6.97385,0,0,-6.97385,135.30902,29.011017)"/>
<use data-text="&#x2212;" xlink:href="#font_4_1155" transform="matrix(4.98132,0,0,-4.98132,140.64402,26.221024)"/>
<use data-text="1" xlink:href="#font_4_50" transform="matrix(4.98132,0,0,-4.98132,144.05622,26.221024)"/>
<use data-text=")" xlink:href="#font_2_3618" transform="matrix(6.97385,0,0,-6.97385,146.83301,30.412018)"/>
<use data-text="&#x1d45b;" xlink:href="#font_4_2514" transform="matrix(4.98132,0,0,-4.98132,150.09601,31.905014)"/>
<use data-text="&#x2113;" xlink:href="#font_4_974" transform="matrix(4.98132,0,0,-4.98132,152.57172,31.905014)"/>
<use data-text="&#x1d45b;" xlink:href="#font_4_2514" transform="matrix(4.98132,0,0,-4.98132,155.4559,31.905014)"/>
<use data-text="&#x2113;" xlink:href="#font_4_974" transform="matrix(4.98132,0,0,-4.98132,157.93164,31.905014)"/>
<use data-text="(" xlink:href="#font_5_9" transform="matrix(6.97385,0,0,-6.97385,162.845,29.011017)"/>
<use data-text="&#x1d702;" xlink:href="#font_2_3168" transform="matrix(6.97385,0,0,-6.97385,165.168,29.011017)"/>
<use data-text="=" xlink:href="#font_2_62" transform="matrix(6.97385,0,0,-6.97385,170.5867,29.011017)"/>
<use data-text="1" xlink:href="#font_2_50" transform="matrix(6.97385,0,0,-6.97385,177.30252,29.011017)"/>
<use data-text=")" xlink:href="#font_5_10" transform="matrix(6.97385,0,0,-6.97385,180.793,29.011017)"/>
<path transform="matrix(1,0,0,-1,48.789,38.316015)" stroke-width=".59776" stroke-linecap="butt" stroke-dasharray="2.98883,2.98883" stroke-miterlimit="10" stroke-linejoin="miter" fill="none" stroke="#ff0000" d="M0 0H8.50412 17.00826"/>
<path transform="matrix(1,0,0,-1,48.789,38.316015)" stroke-width=".59776" stroke-linecap="butt" stroke-miterlimit="10" stroke-linejoin="miter" fill="none" stroke="#ff0000" d="M10.49667 0C10.49667 1.10046 9.60458 1.99255 8.50412 1.99255 7.40364 1.99255 6.51157 1.10046 6.51157 0 6.51157-1.10046 7.40364-1.99255 8.50412-1.99255 9.60458-1.99255 10.49667-1.10046 10.49667 0ZM8.50412 0"/>
<use data-text="&#x1d438;" xlink:href="#font_2_2480" transform="matrix(6.97385,0,0,-6.97385,68.088008,40.64702)"/>
<use data-text="&#x1d714;" xlink:href="#font_2_3186" transform="matrix(6.97385,0,0,-6.97385,74.643428,40.64702)"/>
<use data-text="(" xlink:href="#font_2_3617" transform="matrix(6.97385,0,0,-6.97385,80.560009,42.04901)"/>
<use data-text="&#x211a;" xlink:href="#font_2_980" transform="matrix(6.97385,0,0,-6.97385,83.824008,40.64702)"/>
<use data-text="&#x2212;" xlink:href="#font_4_1155" transform="matrix(4.98132,0,0,-4.98132,89.159008,37.857027)"/>
<use data-text="1" xlink:href="#font_4_50" transform="matrix(4.98132,0,0,-4.98132,92.571208,37.857027)"/>
<use data-text=")" xlink:href="#font_2_3618" transform="matrix(6.97385,0,0,-6.97385,95.34701,42.04901)"/>
<use data-text="&#x1d45b;" xlink:href="#font_4_2514" transform="matrix(4.98132,0,0,-4.98132,98.61101,43.541017)"/>
<use data-text="&#x1d45b;" xlink:href="#font_4_2514" transform="matrix(4.98132,0,0,-4.98132,101.08672,43.541017)"/>
<use data-text="&#x1d45b;" xlink:href="#font_4_2514" transform="matrix(4.98132,0,0,-4.98132,103.56244,43.541017)"/>
<use data-text="&#x1d45b;" xlink:href="#font_4_2514" transform="matrix(4.98132,0,0,-4.98132,106.038158,43.541017)"/>
<use data-text="(" xlink:href="#font_5_9" transform="matrix(6.97385,0,0,-6.97385,110.54301,40.64702)"/>
<use data-text="&#x1d702;" xlink:href="#font_2_3168" transform="matrix(6.97385,0,0,-6.97385,112.866008,40.64702)"/>
<use data-text="=" xlink:href="#font_2_62" transform="matrix(6.97385,0,0,-6.97385,118.28468,40.64702)"/>
<use data-text="0" xlink:href="#font_2_49" transform="matrix(6.97385,0,0,-6.97385,125.000499,40.64702)"/>
<use data-text="." xlink:href="#font_2_47" transform="matrix(6.97385,0,0,-6.97385,128.48743,40.64702)"/>
<use data-text="1" xlink:href="#font_2_50" transform="matrix(6.97385,0,0,-6.97385,130.2309,40.64702)"/>
<use data-text=")" xlink:href="#font_5_10" transform="matrix(6.97385,0,0,-6.97385,133.72101,40.64702)"/>
<path transform="matrix(1,0,0,-1,48.789,49.95201)" stroke-width=".59776" stroke-linecap="butt" stroke-dasharray="2.98883,2.98883" stroke-miterlimit="10" stroke-linejoin="miter" fill="none" stroke="#0000ff" d="M0 0H8.50412 17.00826"/>
<path transform="matrix(1,0,0,-1,48.789,49.95201)" stroke-width=".59776" stroke-linecap="butt" stroke-miterlimit="10" stroke-linejoin="miter" fill="none" stroke="#0000ff" d="M6.39069-2.11342 10.61754 2.11342M6.39069 2.11342 10.61754-2.11342"/>
<use data-text="&#x1d438;" xlink:href="#font_2_2480" transform="matrix(6.97385,0,0,-6.97385,68.088008,52.28302)"/>
<use data-text="&#x1d714;" xlink:href="#font_2_3186" transform="matrix(6.97385,0,0,-6.97385,74.643428,52.28302)"/>
<use data-text="(" xlink:href="#font_2_3617" transform="matrix(6.97385,0,0,-6.97385,80.560009,53.685014)"/>
<use data-text="&#x211a;" xlink:href="#font_2_980" transform="matrix(6.97385,0,0,-6.97385,83.824008,52.28302)"/>
<use data-text="&#x2212;" xlink:href="#font_4_1155" transform="matrix(4.98132,0,0,-4.98132,89.159008,49.49402)"/>
<use data-text="1" xlink:href="#font_4_50" transform="matrix(4.98132,0,0,-4.98132,92.571208,49.49402)"/>
<use data-text=")" xlink:href="#font_2_3618" transform="matrix(6.97385,0,0,-6.97385,95.34701,53.685014)"/>
<use data-text="&#x1d45a;" xlink:href="#font_4_2513" transform="matrix(4.98132,0,0,-4.98132,98.61101,55.177019)"/>
<use data-text="&#x1d45b;" xlink:href="#font_4_2514" transform="matrix(4.98132,0,0,-4.98132,102.14774,55.177019)"/>
<use data-text="&#x1d45a;" xlink:href="#font_4_2513" transform="matrix(4.98132,0,0,-4.98132,104.62346,55.177019)"/>
<use data-text="&#x1d45b;" xlink:href="#font_4_2514" transform="matrix(4.98132,0,0,-4.98132,108.160198,55.177019)"/>
<use data-text="(" xlink:href="#font_5_9" transform="matrix(6.97385,0,0,-6.97385,112.66501,52.28302)"/>
<use data-text="&#x1d702;" xlink:href="#font_2_3168" transform="matrix(6.97385,0,0,-6.97385,114.98801,52.28302)"/>
<use data-text="=" xlink:href="#font_2_62" transform="matrix(6.97385,0,0,-6.97385,120.406688,52.28302)"/>
<use data-text="0" xlink:href="#font_2_49" transform="matrix(6.97385,0,0,-6.97385,127.1225,52.28302)"/>
<use data-text="." xlink:href="#font_2_47" transform="matrix(6.97385,0,0,-6.97385,130.60944,52.28302)"/>
<use data-text="1" xlink:href="#font_2_50" transform="matrix(6.97385,0,0,-6.97385,132.3529,52.28302)"/>
<use data-text=")" xlink:href="#font_5_10" transform="matrix(6.97385,0,0,-6.97385,135.84302,52.28302)"/>
<path transform="matrix(1,0,0,-1,48.789,61.588014)" stroke-width=".59776" stroke-linecap="butt" stroke-dasharray="2.98883,2.98883" stroke-miterlimit="10" stroke-linejoin="miter" fill="none" stroke="#008000" d="M0 0H8.50412 17.00826"/>
<path transform="matrix(1,0,0,-1,48.789,61.588014)" d="M8.50412 2.98883 11.09253-1.49442H5.91571Z" fill="#008000" fill-opacity=".8"/>
<path transform="matrix(1,0,0,-1,48.789,61.588014)" stroke-width=".59776" stroke-linecap="butt" stroke-miterlimit="10" stroke-linejoin="miter" fill="none" stroke="#008000" d="M8.50412 2.98883 11.09253-1.49442H5.91571Z"/>
<use data-text="&#x1d438;" xlink:href="#font_2_2480" transform="matrix(6.97385,0,0,-6.97385,68.088008,63.920015)"/>
<use data-text="&#x1d714;" xlink:href="#font_2_3186" transform="matrix(6.97385,0,0,-6.97385,74.643428,63.920015)"/>
<use data-text="(" xlink:href="#font_2_3617" transform="matrix(6.97385,0,0,-6.97385,80.560009,65.321018)"/>
<use data-text="&#x211a;" xlink:href="#font_2_980" transform="matrix(6.97385,0,0,-6.97385,83.824008,63.920015)"/>
<use data-text="&#x2212;" xlink:href="#font_4_1155" transform="matrix(4.98132,0,0,-4.98132,89.159008,61.13002)"/>
<use data-text="1" xlink:href="#font_4_50" transform="matrix(4.98132,0,0,-4.98132,92.571208,61.13002)"/>
<use data-text=")" xlink:href="#font_2_3618" transform="matrix(6.97385,0,0,-6.97385,95.34701,65.321018)"/>
<use data-text="&#x1d45b;" xlink:href="#font_4_2514" transform="matrix(4.98132,0,0,-4.98132,98.61101,66.814029)"/>
<use data-text="&#x2113;" xlink:href="#font_4_974" transform="matrix(4.98132,0,0,-4.98132,101.08672,66.814029)"/>
<use data-text="&#x1d45b;" xlink:href="#font_4_2514" transform="matrix(4.98132,0,0,-4.98132,103.97091,66.814029)"/>
<use data-text="&#x2113;" xlink:href="#font_4_974" transform="matrix(4.98132,0,0,-4.98132,106.446628,66.814029)"/>
<use data-text="(" xlink:href="#font_5_9" transform="matrix(6.97385,0,0,-6.97385,111.36001,63.920015)"/>
<use data-text="&#x1d702;" xlink:href="#font_2_3168" transform="matrix(6.97385,0,0,-6.97385,113.68301,63.920015)"/>
<use data-text="=" xlink:href="#font_2_62" transform="matrix(6.97385,0,0,-6.97385,119.101688,63.920015)"/>
<use data-text="0" xlink:href="#font_2_49" transform="matrix(6.97385,0,0,-6.97385,125.8175,63.920015)"/>
<use data-text="." xlink:href="#font_2_47" transform="matrix(6.97385,0,0,-6.97385,129.30442,63.920015)"/>
<use data-text="1" xlink:href="#font_2_50" transform="matrix(6.97385,0,0,-6.97385,131.04788,63.920015)"/>
<use data-text=")" xlink:href="#font_5_10" transform="matrix(6.97385,0,0,-6.97385,134.538,63.920015)"/>
</svg>
