<svg xmlns="http://www.w3.org/2000/svg" xmlns:xlink="http://www.w3.org/1999/xlink" xmlns:inkscape="http://www.inkscape.org/namespaces/inkscape" version="1.1" width="235.141" height="196.895" viewBox="0 0 235.141 196.895">
<defs>
<path id="font_1_17" d="M.37998963 .32505799C.37998963 .12722779 .33499146 .012313843 .25 .012313843 .1639862 .012313843 .11999512 .1262207 .11999512 .32904054 .11999512 .5318756 .16499329 .6497803 .24798584 .6497803 .33599855 .6497803 .37998963 .53286746 .37998963 .32505799M.47599793 .3300476C.47599793 .53486636 .3849945 .67578127 .2539978 .67578127 .09298706 .67578127 .023986817 .5128937 .023986817 .3360443 .023986817 .17218018 .07899475-.013671875 .25-.013671875 .41299439-.013671875 .47599793 .15818787 .47599793 .3300476Z"/>
<path id="font_1_15" d="M.18099976 .04324341C.18099976 .07325745 .15499878 .100250247 .12599182 .100250247 .09498596 .100250247 .069992069 .07525635 .069992069 .04425049 .069992069 .013244629 .09399414-.0107421879 .125-.0107421879 .15499878-.0107421879 .18099976 .014251709 .18099976 .04324341Z"/>
<path id="font_1_19" d="M.47399903 .13696289 .45999146 .1429596C.4269867 .08699036 .4059906 .07598877 .3639984 .07598877H.12998963L.29499818 .2519226C.38398744 .34588624 .4229889 .42085267 .4229889 .4998169 .4229889 .59877017 .35099793 .67578127 .23799134 .67578127 .114990238 .67578127 .050994874 .5937805 .02999878 .4768219L.050994874 .47183229C.09098816 .5697937 .12599182 .6017761 .19799805 .6017761 .2829895 .6017761 .33699037 .55178835 .33699037 .4608307 .33699037 .37586976 .30099488 .29989625 .20698548 .200943L.0289917 .011993408V0H.41999818L.47399903 .13696289Z"/>
<path id="font_1_21" d="M.2919922 .23098755H.051986696L.2919922 .573822V.23098755M.47299195 .16699219V.23098755H.36999513V.67578127H.32598878L.011993408 .23098755V.16699219H.2919922V0H.36999513V.16699219H.47299195Z"/>
<path id="font_1_23" d="M.37799073 .18850708C.37799073 .08639526 .34098817 .014328003 .2689972 .014328003 .1749878 .014328003 .1269989 .11442566 .1269989 .2665863 .1269989 .3586731 .18598938 .3827057 .24299622 .3827057 .33599855 .3827057 .37799073 .31663514 .37799073 .18850708M.44599916 .68470767C.30799867 .66970828 .22898865 .6457062 .14299011 .55570986 .07199097 .48269654 .033996583 .38771058 .033996583 .27960206 .033996583 .20951844 .052993776 .138443 .08099365 .087402347 .115997318 .023330689 .1789856-.013671875 .2579956-.013671875 .32398988-.013671875 .37998963 .013320923 .4169922 .05937195 .44999696 .09941101 .46798707 .1554718 .46798707 .2195282 .46798707 .34866334 .3959961 .42871095 .2789917 .42871095 .23498535 .42871095 .20098877 .42170716 .1519928 .3836975 .1789856 .5346985 .29100038 .6427002 .44799806 .6687012L.44599916 .68470767Z"/>
<path id="font_1_25" d="M.2709961 .27209474C.33898927 .22613526 .36898805 .18617249 .36898805 .1242218 .36898805 .059280397 .32398988 .014328003 .25898744 .014328003 .18299866 .014328003 .13198853 .06626892 .13198853 .15820313 .13198853 .22314453 .15299988 .26409913 .21199036 .3120575L.2709961 .27209474M.35499574 .53286746C.35499574 .470932 .32899476 .42897035 .26098634 .3889923 .17298889 .4409485 .13598633 .48690797 .13598633 .54885867 .13598633 .6108093 .1789856 .6477661 .24598694 .6477661 .31399537 .6477661 .35499574 .60180667 .35499574 .53286746M.44499208 .15519715C.44499208 .23512268 .41299439 .28907777 .2899933 .37101747 .3889923 .42396546 .42399598 .45793153 .42399598 .53286746 .42399598 .6108093 .35499574 .67578127 .2559967 .67578127 .14498902 .67578127 .06199646 .61579897 .06199646 .5198822 .06199646 .4549408 .08299255 .41697694 .18598938 .3320465 .07899475 .2571106 .055999757 .21813965 .055999757 .14920044 .055999757 .055282594 .1349945-.013671875 .24798584-.013671875 .36799623-.013671875 .44499208 .05229187 .44499208 .15519715Z"/>
<path id="font_1_18" d="M.3939972 0V.01499939C.31900025 .01499939 .29899598 .032989503 .29899598 .07597351V.67277529L.2899933 .67578127 .11099243 .5847931V.5708008L.13798523 .5807953C.1559906 .5877991 .17298889 .59280398 .18299866 .59280398 .20399475 .59280398 .21299744 .57780459 .21299744 .543808V.0949707C.21299744 .039978029 .19198609 .018997193 .117996219 .01499939V0H.3939972Z"/>
<path id="font_2_49" d="M.37998963 .32505799C.37998963 .12722779 .33499146 .012313843 .25 .012313843 .1639862 .012313843 .11999512 .1262207 .11999512 .32904054 .11999512 .5318756 .16499329 .6497803 .24798584 .6497803 .33599855 .6497803 .37998963 .53286746 .37998963 .32505799M.47599793 .3300476C.47599793 .53486636 .3849945 .67578127 .2539978 .67578127 .09298706 .67578127 .023986817 .5128937 .023986817 .3360443 .023986817 .17218018 .07899475-.013671875 .25-.013671875 .41299439-.013671875 .47599793 .15818787 .47599793 .3300476Z"/>
<path id="font_2_54" d="M.43798829 .68110659 .42900086 .6880951C.41299439 .667099 .4039917 .6621094 .3809967 .6621094H.17399597L.06498718 .4251709C.06498718 .4251709 .06399536 .42216493 .06399536 .42016603 .06399536 .4141693 .066986087 .4121704 .07598877 .4121704 .17199707 .4121704 .24198914 .380188 .2889862 .3421936 .33399964 .30621339 .35598756 .2562256 .35598756 .19226074 .35598756 .106292728 .29100038 .02331543 .22099304 .02331543 .20098877 .02331543 .17799378 .032318117 .1499939 .05531311 .117996219 .08129883 .09899902 .08630371 .07598877 .08630371 .04798889 .08630371 .0309906 .07330322 .0309906 .048309328 .0309906 .010314941 .08299255-.013671875 .1579895-.013671875 .22599793-.013671875 .2809906 .0013275147 .32798768 .035308839 .3959961 .08529663 .42599488 .14727783 .42599488 .24324036 .42599488 .29621888 .4169922 .334198 .3909912 .37019349 .33399964 .4491577 .28399659 .47114564 .14099121 .49813844L.18099976 .58309939H.375C.3909912 .58309939 .39898683 .58909609 .4019928 .59609988L.43798829 .68110659Z"/>
<path id="font_2_50" d="M.3939972 0V.01499939C.31900025 .01499939 .29899598 .032989503 .29899598 .07597351V.67277529L.2899933 .67578127 .11099243 .5847931V.5708008L.13798523 .5807953C.1559906 .5877991 .17298889 .59280398 .18299866 .59280398 .20399475 .59280398 .21299744 .57780459 .21299744 .543808V.0949707C.21299744 .039978029 .19198609 .018997193 .117996219 .01499939V0H.3939972Z"/>
<path id="font_2_51" d="M.47399903 .13696289 .45999146 .1429596C.4269867 .08699036 .4059906 .07598877 .3639984 .07598877H.12998963L.29499818 .2519226C.38398744 .34588624 .4229889 .42085267 .4229889 .4998169 .4229889 .59877017 .35099793 .67578127 .23799134 .67578127 .114990238 .67578127 .050994874 .5937805 .02999878 .4768219L.050994874 .47183229C.09098816 .5697937 .12599182 .6017761 .19799805 .6017761 .2829895 .6017761 .33699037 .55178835 .33699037 .4608307 .33699037 .37586976 .30099488 .29989625 .20698548 .200943L.0289917 .011993408V0H.41999818L.47399903 .13696289Z"/>
<clipPath id="clip_3">
<path transform="matrix(1,0,0,-1,38.169,163.79901)" d="M0 0H194.26486V161.39385H0Z"/>
</clipPath>
<path id="font_2_3168" d="M.17298889 .25097657C.18199158 .28897096 .20498657 .3579712 .20498657 .39996339 .20498657 .42396546 .19599915 .44096376 .1639862 .44096376 .14199829 .44096376 .10499573 .41897584 .07998657 .39396668 .055999757 .3699646 .038986207 .3429718 .033996583 .33596803L.04699707 .3259735C.06298828 .3469696 .084991458 .37597657 .10699463 .37597657 .117996219 .37597657 .11999512 .3719635 .11999512 .36296083 .11999512 .3489685 .11299133 .32896424 .10699463 .30397035L.02999878 0H.10798645L.13899231 .10498047C.16899109 .20698548 .29899598 .37597657 .33898927 .37597657 .35598756 .37597657 .36698915 .3639679 .36698915 .3469696 .36698915 .3299713 .3619995 .30897523 .35899354 .29896546 .27398683-.039001466 .2599945-.0960083 .2599945-.13700867 .2599945-.15501404 .2619934-.17201233 .2709961-.18301392H.34700013C.34298707-.17500305 .34199525-.16200257 .34199525-.14801026 .34199525-.117004398 .34999085-.06700134 .36499024-.0040130617L.43998719 .30897523C.44599916 .3349762 .45498658 .36497499 .45498658 .3869629 .45498658 .42097474 .43399049 .44096376 .394989 .44096376 .33599855 .44096376 .28599549 .39297486 .23199463 .3239746 .21899414 .30697633 .19599915 .27796937 .1749878 .25097657H.17298889Z"/>
<path id="font_2_3178" d="M.21199036 .23834229C.23399353 .3323822 .28399659 .38539125 .33699037 .38539125 .3600006 .38539125 .3880005 .36538697 .3880005 .30236817 .3880005 .19033814 .31298829 .01727295 .21199036 .01727295 .19999695 .01727295 .17999268 .022277832 .1659851 .0382843L.21199036 .23834229M.02999878-.182724H.11299133L.15699768 .0062713625C.17599488-.0077209474 .19400025-.01171875 .21798706-.01171875 .3619995-.01171875 .47200013 .15731812 .47200013 .2863617 .47200013 .3874054 .43899537 .44140626 .37799073 .44140626 .34199525 .44140626 .31199647 .42840577 .27999879 .4123993 .21299744 .37939454 .15299988 .31037904 .11399841 .15332031L.02999878-.182724Z"/>
<path id="font_4_2509" d="M.22698975 .4412079 .068984989 .41921998 .07199097 .4032135C.07899475 .4052124 .09098816 .4072113 .099990848 .4072113 .12298584 .4072113 .1309967 .40222169 .1309967 .3852234 .1309967 .3822174 .12998963 .37521363 .1289978 .37321473 .049987794 .0662384 .049987794 .04724121 .049987794 .035247804 .049987794 .008255005 .06199646-.0107421879 .08999634-.0107421879 .13899231-.0107421879 .18899536 .049240114 .22399903 .09423828L.21099854 .10424805C.1749878 .06524658 .16899109 .053253175 .14698792 .053253175 .13999939 .053253175 .13398743 .056243898 .13398743 .06324768 .13398743 .06724548 .13398743 .071243289 .1349945 .07723999L.22698975 .4412079M.25698854 .5662079C.25698854 .5912018 .23498535 .61621096 .20899964 .61621096 .17999268 .61621096 .16099549 .5912018 .16099549 .5662079 .16099549 .5402069 .17999268 .52020266 .20899964 .52020266 .23498535 .52020266 .25698854 .5402069 .25698854 .5662079Z"/>
<path id="font_4_2510" d="M.35099793 .44114686 .19299317 .4131317 .19599915 .39611817C.20298767 .39912416 .21499634 .40112306 .22299195 .40112306 .24499512 .40112306 .25498963 .39111329 .25498963 .3791046L.16299439 .015853882C.13899231-.080200199 .10598755-.15625 .05999756-.15625 .054992677-.15625 .049987794-.1502533 .049987794-.1462555 .049987794-.13023377 .06599426-.12724304 .06599426-.11222839 .06599426-.08921814 .049987794-.07420349 .0309906-.07420349-.0040130617-.07420349-.01600647-.10421753-.01600647-.12623596-.01600647-.1542511 .0039978029-.18725586 .056991579-.18725586 .16499329-.18725586 .22099304-.07220459 .24299622 .015853882L.35099793 .44114686M.37199403 .5662079C.37199403 .5912018 .34999085 .61621096 .32398988 .61621096 .29499818 .61621096 .27598573 .5912018 .27598573 .5662079 .27598573 .5402069 .29499818 .52020266 .32398988 .52020266 .34999085 .52020266 .37199403 .5402069 .37199403 .5662079Z"/>
<path id="font_4_2511" d="M.5269928 .42797853H.33299256L.32899476 .41596986H.34098817C.35099793 .41596986 .36698915 .40898133 .36698915 .39697267 .36698915 .38397218 .35699464 .37097169 .34599305 .36097718L.1789856 .21199036 .2919922 .66796877 .13398743 .6429596 .13699341 .6289673C.14498902 .6309662 .15499878 .6309662 .1639862 .6309662 .18598938 .6309662 .19599915 .6199646 .19599915 .608963 .19599915 .6019745 .19499207 .5949707 .19299317 .588974L.04499817 0H.12098694L.1659851 .1659851 .22200012 .21498108 .2849884 .067993167C.29599 .042251588 .31698609-.0107421879 .36299134-.0107421879 .43099977-.0107421879 .47799684 .09623718 .48999024 .11721802L.47499085 .1282196C.45298768 .098236087 .43099977 .055252077 .40098573 .055252077 .375 .055252077 .36299134 .07923889 .34799195 .114227298L.28399659 .2661438 .3899994 .35810853C.42799378 .39108277 .45599366 .40907289 .522995 .41607667L.5269928 .42797853Z"/>
<path id="font_4_2512" d="M.27799989 .66796877 .12098694 .6449585 .12399292 .62997439C.13198853 .6309662 .14399719 .6329651 .15098572 .6329651 .17399597 .6329651 .18199158 .6229706 .18199158 .6109772 .18199158 .60798647 .18199158 .59999087 .1789856 .58699038L.050994874 .07720947C.04798889 .067214969 .04499817 .053222658 .04499817 .041229249 .04499817 .016220093 .053985597-.009765625 .083999637-.009765625 .14199829-.009765625 .18499756 .056228639 .21899414 .096206668L.20298767 .10820007C.19400025 .09220886 .1639862 .053222658 .14099121 .053222658 .1329956 .053222658 .1289978 .05921936 .1289978 .066223148 .1289978 .07321167 .12998963 .07720947 .12998963 .07720947L.27799989 .66796877Z"/>
<path id="font_4_2513" d="M.6669922 .10708618C.647995 .0700531 .621994 .054031373 .6049957 .054031373 .59599307 .054031373 .58999636 .058029176 .58999636 .06604004 .58999636 .06904602 .59098818 .07505798 .59199526 .078063968L.6529999 .30932618C.6589966 .3333435 .6599884 .35237123 .6599884 .37039186 .6599884 .41540528 .6419983 .44140626 .60598757 .44140626 .58599856 .44140626 .5669861 .43440248 .54499819 .41940309 .49598695 .38639833 .44400025 .32434083 .4149933 .27227784H.4099884L.41999818 .3083191C.42599488 .32833863 .42900086 .34335328 .42900086 .36038209 .42900086 .4044037 .41099549 .44140626 .37399293 .44140626 .33599855 .44140626 .27598573 .41540528 .18199158 .27227784H.17599488L.21998596 .44140626 .06298828 .41740418 .06498718 .4033966C.07299805 .4044037 .083999637 .4053955 .09199524 .4053955 .11898804 .4053955 .125 .39239503 .125 .37438966L.02999878 0H.10798645L.14299011 .13511658C.15899658 .19619751 .2689972 .37739564 .32099916 .37739564 .33898927 .37739564 .34399415 .359375 .34399415 .33935548 .34399415 .32434083 .34098817 .3083191 .33898927 .2993164L.2619934 0H.34098817L.375 .13511658C.3899994 .19619751 .5 .37739564 .55400088 .37739564 .57199099 .37739564 .5779877 .359375 .5779877 .33935548 .5779877 .32234193 .57598879 .31332398 .57199099 .2993164L.5159912 .078063968C.5109863 .058029176 .5099945 .04801941 .5099945 .041015626 .5099945 .0021820069 .5269928-.0078125 .548996-.0078125 .59599307-.0078125 .647995 .04219055 .6799927 .09623718L.6669922 .10708618Z"/>
<path id="font_4_2514" d="M.46699525 .096206668 .45399476 .10720825C.43998719 .09020996 .41600038 .05418396 .3919983 .05418396 .3809967 .05418396 .37799073 .062179567 .3769989 .06819153 .3769989 .07319641 .3769989 .07620239 .37799073 .078201297L.43699647 .3093567C.44198609 .32936097 .44799806 .35438539 .44799806 .37939454 .44799806 .4123993 .43598939 .44140626 .3919983 .44140626 .33198548 .44140626 .27198792 .37539674 .23199463 .32536317 .22999573 .32235719 .18099976 .25231935 .17599488 .25231935H.17298889L.22399903 .44140626 .06498718 .418396 .066986087 .4033966C.07398987 .4044037 .084991458 .4064026 .09498596 .4064026 .12199402 .4064026 .125 .39239503 .125 .37438966L.02999878 0H.10699463L.13999939 .12411499C.1459961 .1451416 .17199707 .19218445 .20799256 .24624634 .23899842 .29330445 .3019867 .37939454 .33999635 .37939454 .35798646 .37939454 .3639984 .36038209 .3639984 .34135438 .3639984 .3273468 .35899354 .307312 .35699464 .2993164L.2999878 .078063968C.29699708 .06704712 .29299928 .05102539 .29299928 .038009645 .29299928 .015182495 .3019867-.0078125 .33399964-.0078125 .38598634-.0078125 .43399049 .05618286 .46199037 .09020996L.46699525 .096206668Z"/>
<path id="font_4_974" d="M.2679901 .3962555C.31999208 .4772644 .375 .5582733 .42399598 .60827639 .44898988 .63427737 .47799684 .65527346 .5059967 .65527346 .5289917 .65527346 .54100039 .6432648 .54100039 .6242676 .54100039 .5282593 .42599488 .43026734 .2689972 .39526368L.2679901 .3962555M.07699585 .38926698C.10398865 .37025453 .1349945 .3612671 .16499329 .36026 .15098572 .33825685 .13699341 .31625367 .125 .29426576 .07798767 .21224976 .04798889 .1312561 .04798889 .07624817 .04798889 .018249512 .08799744-.0107421879 .1349945-.0107421879 .19799805-.0107421879 .25698854 .04624939 .3619995 .16925049L.34098817 .18624878C.24398804 .07424927 .18899536 .019256592 .14199829 .019256592 .114990238 .019256592 .10598755 .038253786 .10598755 .06225586 .10598755 .1292572 .19699097 .27626039 .24899292 .36026 .4249878 .386261 .57099917 .5152588 .57099917 .6202698 .57099917 .66625979 .548996 .6872711 .5069885 .6872711 .4249878 .6872711 .2899933 .5452728 .18499756 .3902588 .15499878 .3902588 .12399292 .3922577 .09098816 .41526795L.07699585 .38926698Z"/>
</defs>
<path transform="matrix(1,0,0,-1,38.169,163.79901)" stroke-width=".3985" stroke-linecap="butt" stroke-miterlimit="10" stroke-linejoin="miter" fill="none" stroke="#b0b0b0" d="M28.45293 0V161.39385M67.69835 0V161.39385M106.94379 0V161.39385M146.18921 0V161.39385M185.43463 0V161.39385"/>
<path transform="matrix(1,0,0,-1,38.169,163.79901)" stroke-width=".3985" stroke-linecap="butt" stroke-miterlimit="10" stroke-linejoin="miter" fill="none" stroke="#b0b0b0" d="M0 2.44182H194.26486M0 40.59422H194.26486M0 78.74664H194.26486M0 116.89905H194.26486M0 155.05146H194.26486"/>
<path transform="matrix(1,0,0,-1,38.169,163.79901)" stroke-width=".19925" stroke-linecap="butt" stroke-miterlimit="10" stroke-linejoin="miter" fill="none" stroke="#000000" d="M28.45293-4.25186V0M67.69835-4.25186V0M106.94379-4.25186V0M146.18921-4.25186V0M185.43463-4.25186V0"/>
<path transform="matrix(1,0,0,-1,38.169,163.79901)" stroke-width=".19925" stroke-linecap="butt" stroke-miterlimit="10" stroke-linejoin="miter" fill="none" stroke="#000000" d="M-4.25179 2.44182H0M-4.25179 40.59422H0M-4.25179 78.74664H0M-4.25179 116.89905H0M-4.25179 155.05146H0"/>
<path transform="matrix(1,0,0,-1,38.169,163.79901)" stroke-width=".3985" stroke-linecap="butt" stroke-miterlimit="10" stroke-linejoin="miter" fill="none" stroke="#000000" d="M0 0V161.39385H194.26486V0H0Z"/>
<use data-text="0" xlink:href="#font_1_17" transform="matrix(9.96264,0,0,-9.96264,60.394998,178.30602)"/>
<use data-text="." xlink:href="#font_1_15" transform="matrix(9.96264,0,0,-9.96264,65.37631,178.30602)"/>
<use data-text="2" xlink:href="#font_1_19" transform="matrix(9.96264,0,0,-9.96264,67.866977,178.30602)"/>
<use data-text="0" xlink:href="#font_1_17" transform="matrix(9.96264,0,0,-9.96264,99.64,178.30602)"/>
<use data-text="." xlink:href="#font_1_15" transform="matrix(9.96264,0,0,-9.96264,104.62132,178.30602)"/>
<use data-text="4" xlink:href="#font_1_21" transform="matrix(9.96264,0,0,-9.96264,107.111988,178.30602)"/>
<use data-text="0" xlink:href="#font_1_17" transform="matrix(9.96264,0,0,-9.96264,138.88501,178.38602)"/>
<use data-text="." xlink:href="#font_1_15" transform="matrix(9.96264,0,0,-9.96264,143.86634,178.38602)"/>
<use data-text="6" xlink:href="#font_1_23" transform="matrix(9.96264,0,0,-9.96264,146.357,178.38602)"/>
<use data-text="0" xlink:href="#font_1_17" transform="matrix(9.96264,0,0,-9.96264,178.13,178.30602)"/>
<use data-text="." xlink:href="#font_1_15" transform="matrix(9.96264,0,0,-9.96264,183.11133,178.30602)"/>
<use data-text="8" xlink:href="#font_1_25" transform="matrix(9.96264,0,0,-9.96264,185.60199,178.30602)"/>
<use data-text="1" xlink:href="#font_1_18" transform="matrix(9.96264,0,0,-9.96264,217.375,178.30602)"/>
<use data-text="." xlink:href="#font_1_15" transform="matrix(9.96264,0,0,-9.96264,222.35633,178.30602)"/>
<use data-text="0" xlink:href="#font_1_17" transform="matrix(9.96264,0,0,-9.96264,224.84699,178.30602)"/>
<use data-text="0" xlink:href="#font_2_49" transform="matrix(9.96264,0,0,-9.96264,25.415999,164.65502)"/>
<use data-text="5" xlink:href="#font_2_54" transform="matrix(9.96264,0,0,-9.96264,25.415999,126.56302)"/>
<use data-text="1" xlink:href="#font_2_50" transform="matrix(9.96264,0,0,-9.96264,20.435,88.35102)"/>
<use data-text="0" xlink:href="#font_2_49" transform="matrix(9.96264,0,0,-9.96264,25.416319,88.35102)"/>
<use data-text="1" xlink:href="#font_2_50" transform="matrix(9.96264,0,0,-9.96264,20.435,50.259019)"/>
<use data-text="5" xlink:href="#font_2_54" transform="matrix(9.96264,0,0,-9.96264,25.416319,50.259019)"/>
<use data-text="2" xlink:href="#font_2_51" transform="matrix(9.96264,0,0,-9.96264,20.435,12.048004)"/>
<use data-text="0" xlink:href="#font_2_49" transform="matrix(9.96264,0,0,-9.96264,25.416319,12.048004)"/>
<g clip-path="url(#clip_3)">
<path transform="matrix(1,0,0,-1,38.169,163.79901)" stroke-width=".59776" stroke-linecap="butt" stroke-miterlimit="10" stroke-linejoin="miter" fill="none" stroke="#0000ff" d="M8.8302 154.05783 10.61407 141.29444 12.39795 130.49115 14.18182 121.22847 15.9657 113.1987 17.74959 106.17104 19.53348 99.96895 21.31735 94.45511 23.10123 89.52113 24.8851 85.08023 26.66899 81.06218 28.45287 77.40948 30.23674 74.07466 32.02061 71.01808 33.80449 68.20653 35.58836 65.61182 37.37227 63.20998 39.15614 60.98042 40.94002 58.90543 42.72389 56.96962 44.50777 55.15958 46.29166 53.46362 48.07553 51.8714 49.8594 50.3738 51.64328 48.96281 53.42717 47.63123 55.21106 46.37267 56.99493 45.1814 58.77881 44.05228 60.56268 42.98065 62.34656 41.96239 64.13043 40.99368 65.91432 40.07109 67.6982 39.1915 69.48209 38.35205 71.26596 37.55016 73.04984 36.78345 74.83372 36.0497 76.6176 35.34695 78.40147 34.67334 80.18535 34.02715 81.96922 33.40681 83.75311 32.81088 85.53699 32.238 87.32088 31.68694 89.10475 31.15651 90.88863 30.64563 92.6725 30.15332 94.45639 29.6786 96.24026 29.22064 98.02414 28.77858 99.80801 28.35167 101.59189 27.93918 103.3758 27.54045 105.15967 27.15483 106.94354 26.78174 108.72742 26.42061 110.51129 26.07089 112.29517 25.73213 114.07906 25.40384 115.86293 25.08556 117.6468 24.77687 119.4307 24.4774 121.21457 24.18675 122.99846 23.90459 124.78233 23.63057 126.56621 23.36435 128.35009 23.10567 130.13396 22.8542 131.91785 22.6097 133.70172 22.37187 135.4856 22.14052 137.26949 21.91536 139.05336 21.69618 140.83725 21.48279 142.62113 21.27495 144.405 21.0725 146.18888 20.87521 147.97275 20.68294 149.75662 20.4955 151.54051 20.31274 153.3244 20.13449 155.10828 19.96062 156.89215 19.79095 158.67603 19.6254 160.45992 19.4638 162.24379 19.30602 164.02767 19.15196 165.81154 19.0015 167.59542 18.85452 169.3793 18.7109 171.1632 18.57057 172.94707 18.43343 174.73094 18.29936 176.51482 18.16827 178.29869 18.04008 180.08258 17.91472 181.86646 17.79208 183.65033 17.6721 185.4342 17.55472"/>
<path transform="matrix(1,0,0,-1,38.169,163.79901)" stroke-width=".59776" stroke-linecap="butt" stroke-miterlimit="10" stroke-linejoin="miter" fill="none" stroke="#008000" d="M8.8302 78.91377 10.61407 72.62138 12.39795 67.3107 14.18182 62.77173 15.9657 58.85036 17.74959 55.43102 19.53348 52.42522 21.31735 49.76416 23.10123 47.39348 24.8851 45.26968 26.66899 43.35753 28.45287 41.62814 30.23674 40.05771 32.02061 38.6263 33.80449 37.31723 35.58836 36.11636 37.37227 35.0116 39.15614 33.99261 40.94002 33.05048 42.72389 32.17746 44.50777 31.36678 46.29166 30.61258 48.07553 29.90962 49.8594 29.25336 51.64328 28.63971 53.42717 28.06505 55.21106 27.52617 56.99493 27.02019 58.77881 26.54448 60.56268 26.09676 62.34656 25.67488 64.13043 25.27696 65.91432 24.90126 67.6982 24.5462 69.48209 24.21036 71.26596 23.89244 73.04984 23.59122 74.83372 23.30562 76.6176 23.0346 78.40147 22.7773 80.18535 22.5328 81.96922 22.30035 83.75311 22.07921 85.53699 21.86873 87.32088 21.66824 89.10475 21.47717 90.88863 21.29503 92.6725 21.12129 94.45639 20.95546 96.24026 20.79715 98.02414 20.64592 99.80801 20.5014 101.59189 20.36327 103.3758 20.23116 105.15967 20.10475 106.94354 19.98376 108.72742 19.86795 110.51129 19.75703 112.29517 19.65077 114.07906 19.54893 115.86293 19.45131 117.6468 19.3577 119.4307 19.26791 121.21457 19.18178 122.99846 19.0991 124.78233 19.01976 126.56621 18.94359 128.35009 18.87042 130.13396 18.80014 131.91785 18.73264 133.70172 18.66776 135.4856 18.60538 137.26949 18.54544 139.05336 18.4878 140.83725 18.43236 142.62113 18.37903 144.405 18.32774 146.18888 18.2784 147.97275 18.23091 149.75662 18.18521 151.54051 18.14122 153.3244 18.09888 155.10828 18.0581 156.89215 18.01883 158.67603 17.98105 160.45992 17.94464 162.24379 17.90956 164.02767 17.8758 165.81154 17.84323 167.59542 17.81189 169.3793 17.7817 171.1632 17.75258 172.94707 17.72453 174.73094 17.69751 176.51482 17.67146 178.29869 17.64636 180.08258 17.62218 181.86646 17.59885 183.65033 17.57639 185.4342 17.55472"/>
<path transform="matrix(1,0,0,-1,38.169,163.79901)" stroke-width=".59776" stroke-linecap="butt" stroke-miterlimit="10" stroke-linejoin="miter" fill="none" stroke="#ff0000" d="M8.8302 41.9149 10.61407 38.59474 12.39795 35.78558 14.18182 33.37814 15.9657 31.29224 17.74959 29.46774 19.53348 27.85869 21.31735 26.42928 23.10123 25.15126 24.8851 24.00201 26.66899 22.96324 28.45287 22.01993 30.23674 21.1597 32.02061 20.37224 33.80449 19.64885 35.58836 18.98221 37.37227 18.366 39.15614 17.7949 40.94002 17.26428 42.72389 16.7701 44.50777 16.30884 46.29166 15.87747 48.07553 15.47327 49.8594 15.09386 51.64328 14.73714 53.42717 14.40121 55.21106 14.08443 56.99493 13.78525 58.77881 13.50237 60.56268 13.23453 62.34656 12.98067 64.13043 12.73978 65.91432 12.51094 67.6982 12.29338 69.48209 12.08629 71.26596 11.88902 73.04984 11.70094 74.83372 11.52148 76.6176 11.3501 78.40147 11.18631 80.18535 11.02966 81.96922 10.87976 83.75311 10.73619 85.53699 10.59863 87.32088 10.46672 89.10475 10.34018 90.88863 10.2187 92.6725 10.10202 94.45639 9.98991 96.24026 9.88211 98.02414 9.77843 99.80801 9.67863 101.59189 9.58257 103.3758 9.49002 105.15967 9.40085 106.94354 9.31488 108.72742 9.23198 110.51129 9.15201 112.29517 9.07481 114.07906 9.00029 115.86293 8.92831 117.6468 8.85878 119.4307 8.79156 121.21457 8.7266 122.99846 8.66376 124.78233 8.60298 126.56621 8.54416 128.35009 8.48724 130.13396 8.43211 131.91785 8.37874 133.70172 8.32703 135.4856 8.27693 137.26949 8.22836 139.05336 8.1813 140.83725 8.13565 142.62113 8.09138 144.405 8.04842 146.18888 8.00676 147.97275 7.9663 149.75662 7.92703 151.54051 7.8889 153.3244 7.85187 155.10828 7.81592 156.89215 7.78098 158.67603 7.74701 160.45992 7.71402 162.24379 7.68195 164.02767 7.65076 165.81154 7.62042 167.59542 7.59091 169.3793 7.56223 171.1632 7.5343 172.94707 7.50714 174.73094 7.4807 176.51482 7.45497 178.29869 7.42992 180.08258 7.40552 181.86646 7.38176 183.65033 7.35861 185.4342 7.33609"/>
</g>
<path transform="matrix(1,0,0,-1,38.169,163.79901)" stroke-width=".59776" stroke-linecap="butt" stroke-miterlimit="10" stroke-linejoin="miter" fill="none" stroke="#0000ff" d="M6.71677 151.94441 10.94362 156.17125M6.71677 156.17125 10.94362 151.94441"/>
<path transform="matrix(1,0,0,-1,38.169,163.79901)" stroke-width=".59776" stroke-linecap="butt" stroke-miterlimit="10" stroke-linejoin="miter" fill="none" stroke="#0000ff" d="M42.39435 53.04616 46.62119 57.27301M42.39435 57.27301 46.62119 53.04616"/>
<path transform="matrix(1,0,0,-1,38.169,163.79901)" stroke-width=".59776" stroke-linecap="butt" stroke-miterlimit="10" stroke-linejoin="miter" fill="none" stroke="#0000ff" d="M78.07193 31.91371 82.29878 36.14056M78.07193 36.14056 82.29878 31.91371"/>
<path transform="matrix(1,0,0,-1,38.169,163.79901)" stroke-width=".59776" stroke-linecap="butt" stroke-miterlimit="10" stroke-linejoin="miter" fill="none" stroke="#0000ff" d="M113.74951 22.97212 117.97636 27.19897M113.74951 27.19897 117.97636 22.97212"/>
<path transform="matrix(1,0,0,-1,38.169,163.79901)" stroke-width=".59776" stroke-linecap="butt" stroke-miterlimit="10" stroke-linejoin="miter" fill="none" stroke="#0000ff" d="M149.4271 18.19931 153.65395 22.42616M149.4271 22.42616 153.65395 18.19931"/>
<path transform="matrix(1,0,0,-1,38.169,163.79901)" stroke-width=".59776" stroke-linecap="butt" stroke-miterlimit="10" stroke-linejoin="miter" fill="none" stroke="#0000ff" d=""/>
<path transform="matrix(1,0,0,-1,38.169,163.79901)" d="M8.8302 81.9026 11.41861 77.41936H6.24179Z" fill="#008000"/>
<path transform="matrix(1,0,0,-1,38.169,163.79901)" stroke-width=".59776" stroke-linecap="butt" stroke-miterlimit="10" stroke-linejoin="miter" fill="none" stroke="#008000" d="M8.8302 81.9026 11.41861 77.41936H6.24179Z"/>
<path transform="matrix(1,0,0,-1,38.169,163.79901)" d="M44.50777 34.3556 47.09618 29.87236H41.91936Z" fill="#008000"/>
<path transform="matrix(1,0,0,-1,38.169,163.79901)" stroke-width=".59776" stroke-linecap="butt" stroke-miterlimit="10" stroke-linejoin="miter" fill="none" stroke="#008000" d="M44.50777 34.3556 47.09618 29.87236H41.91936Z"/>
<path transform="matrix(1,0,0,-1,38.169,163.79901)" d="M80.18535 25.52164 82.77376 21.03839H77.59694Z" fill="#008000"/>
<path transform="matrix(1,0,0,-1,38.169,163.79901)" stroke-width=".59776" stroke-linecap="butt" stroke-miterlimit="10" stroke-linejoin="miter" fill="none" stroke="#008000" d="M80.18535 25.52164 82.77376 21.03839H77.59694Z"/>
<path transform="matrix(1,0,0,-1,38.169,163.79901)" d="M115.86293 22.44014 118.45134 17.9569H113.27452Z" fill="#008000"/>
<path transform="matrix(1,0,0,-1,38.169,163.79901)" stroke-width=".59776" stroke-linecap="butt" stroke-miterlimit="10" stroke-linejoin="miter" fill="none" stroke="#008000" d="M115.86293 22.44014 118.45134 17.9569H113.27452Z"/>
<path transform="matrix(1,0,0,-1,38.169,163.79901)" d="M151.54051 21.13005 154.12892 16.6468H148.9521Z" fill="#008000"/>
<path transform="matrix(1,0,0,-1,38.169,163.79901)" stroke-width=".59776" stroke-linecap="butt" stroke-miterlimit="10" stroke-linejoin="miter" fill="none" stroke="#008000" d="M151.54051 21.13005 154.12892 16.6468H148.9521Z"/>
<path transform="matrix(1,0,0,-1,38.169,163.79901)" stroke-width=".59776" stroke-linecap="butt" stroke-miterlimit="10" stroke-linejoin="miter" fill="none" stroke="#008000" d=""/>
<path transform="matrix(1,0,0,-1,38.169,163.79901)" stroke-width=".59776" stroke-linecap="butt" stroke-miterlimit="10" stroke-linejoin="miter" fill="none" stroke="#ff0000" d="M10.82275 41.9149C10.82275 43.01538 9.93066 43.90746 8.8302 43.90746 7.72972 43.90746 6.83765 43.01538 6.83765 41.9149 6.83765 40.81444 7.72972 39.92235 8.8302 39.92235 9.93066 39.92235 10.82275 40.81444 10.82275 41.9149ZM8.8302 41.9149"/>
<path transform="matrix(1,0,0,-1,38.169,163.79901)" stroke-width=".59776" stroke-linecap="butt" stroke-miterlimit="10" stroke-linejoin="miter" fill="none" stroke="#ff0000" d="M46.50032 16.30884C46.50032 17.40932 45.60825 18.30139 44.50777 18.30139 43.4073 18.30139 42.51521 17.40932 42.51521 16.30884 42.51521 15.20837 43.4073 14.31628 44.50777 14.31628 45.60825 14.31628 46.50032 15.20837 46.50032 16.30884ZM44.50777 16.30884"/>
<path transform="matrix(1,0,0,-1,38.169,163.79901)" stroke-width=".59776" stroke-linecap="butt" stroke-miterlimit="10" stroke-linejoin="miter" fill="none" stroke="#ff0000" d="M82.1779 11.02966C82.1779 12.13014 81.28583 13.02222 80.18535 13.02222 79.08488 13.02222 78.1928 12.13014 78.1928 11.02966 78.1928 9.9292 79.08488 9.03711 80.18535 9.03711 81.28583 9.03711 82.1779 9.9292 82.1779 11.02966ZM80.18535 11.02966"/>
<path transform="matrix(1,0,0,-1,38.169,163.79901)" stroke-width=".59776" stroke-linecap="butt" stroke-miterlimit="10" stroke-linejoin="miter" fill="none" stroke="#ff0000" d="M117.85548 8.92831C117.85548 10.02878 116.96341 10.92087 115.86293 10.92087 114.76247 10.92087 113.87038 10.02878 113.87038 8.92831 113.87038 7.82784 114.76247 6.93576 115.86293 6.93576 116.96341 6.93576 117.85548 7.82784 117.85548 8.92831ZM115.86293 8.92831"/>
<path transform="matrix(1,0,0,-1,38.169,163.79901)" stroke-width=".59776" stroke-linecap="butt" stroke-miterlimit="10" stroke-linejoin="miter" fill="none" stroke="#ff0000" d="M153.53307 7.8889C153.53307 8.98938 152.64099 9.88145 151.54051 9.88145 150.44005 9.88145 149.54796 8.98938 149.54796 7.8889 149.54796 6.78844 150.44005 5.89635 151.54051 5.89635 152.64099 5.89635 153.53307 6.78844 153.53307 7.8889ZM151.54051 7.8889"/>
<path transform="matrix(1,0,0,-1,38.169,163.79901)" stroke-width=".59776" stroke-linecap="butt" stroke-miterlimit="10" stroke-linejoin="miter" fill="none" stroke="#ff0000" d=""/>
<use data-text="&#x1d702;" xlink:href="#font_2_3168" transform="matrix(9.96264,0,0,-9.96264,132.81,189.759)"/>
<use data-text="&#x1d70c;" xlink:href="#font_2_3178" transform="matrix(0,-9.96264,-9.96264,-0,9.707001,91.93501)"/>
<use data-text="&#x1d456;" xlink:href="#font_4_2509" transform="matrix(0,-7.47198,-7.47198,-0,12.197998,86.93401)"/>
<use data-text="&#x1d457;" xlink:href="#font_4_2510" transform="matrix(0,-7.47198,-7.47198,-0,12.197998,84.61023)"/>
<use data-text="&#x1d458;" xlink:href="#font_4_2511" transform="matrix(0,-7.47198,-7.47198,-0,12.197998,81.25531)"/>
<use data-text="&#x1d459;" xlink:href="#font_4_2512" transform="matrix(0,-7.47198,-7.47198,-0,12.197998,77.20549)"/>
<path transform="matrix(1,0,0,-1,38.169,163.79901)" d="M139.16335 124.36177H190.17948V157.966H139.16335Z" fill="#ffffff" fill-opacity=".8"/>
<path transform="matrix(1,0,0,-1,38.169,163.79901)" stroke-width=".3985" stroke-linecap="butt" stroke-miterlimit="10" stroke-linejoin="miter" fill="none" stroke="#cccccc" d="M139.16335 124.36177H190.17948V157.966H139.16335Z"/>
<path transform="matrix(1,0,0,-1,180.618,12.764009)" stroke-width=".59776" stroke-linecap="butt" stroke-miterlimit="10" stroke-linejoin="miter" fill="none" stroke="#0000ff" d="M0 0H8.50412 17.00826"/>
<path transform="matrix(1,0,0,-1,180.618,12.764009)" stroke-width=".59776" stroke-linecap="butt" stroke-miterlimit="10" stroke-linejoin="miter" fill="none" stroke="#0000ff" d="M6.39069-2.11342 10.61754 2.11342M6.39069 2.11342 10.61754-2.11342"/>
<use data-text="&#x1d70c;" xlink:href="#font_2_3178" transform="matrix(9.96264,0,0,-9.96264,199.918,14.2140049)"/>
<use data-text="&#x1d45a;" xlink:href="#font_4_2513" transform="matrix(7.47198,0,0,-7.47198,204.919,16.705002)"/>
<use data-text="&#x1d45b;" xlink:href="#font_4_2514" transform="matrix(7.47198,0,0,-7.47198,210.2241,16.705002)"/>
<use data-text="&#x1d45a;" xlink:href="#font_4_2513" transform="matrix(7.47198,0,0,-7.47198,213.93769,16.705002)"/>
<use data-text="&#x1d45b;" xlink:href="#font_4_2514" transform="matrix(7.47198,0,0,-7.47198,219.24279,16.705002)"/>
<path transform="matrix(1,0,0,-1,180.618,22.637009)" stroke-width=".59776" stroke-linecap="butt" stroke-miterlimit="10" stroke-linejoin="miter" fill="none" stroke="#008000" d="M0 0H8.50412 17.00826"/>
<path transform="matrix(1,0,0,-1,180.618,22.637009)" d="M8.50412 2.98883 11.09253-1.49442H5.91571Z" fill="#008000" fill-opacity=".8"/>
<path transform="matrix(1,0,0,-1,180.618,22.637009)" stroke-width=".59776" stroke-linecap="butt" stroke-miterlimit="10" stroke-linejoin="miter" fill="none" stroke="#008000" d="M8.50412 2.98883 11.09253-1.49442H5.91571Z"/>
<use data-text="&#x1d70c;" xlink:href="#font_2_3178" transform="matrix(9.96264,0,0,-9.96264,199.918,24.087006)"/>
<use data-text="&#x1d45b;" xlink:href="#font_4_2514" transform="matrix(7.47198,0,0,-7.47198,204.919,26.578003)"/>
<use data-text="&#x2113;" xlink:href="#font_4_974" transform="matrix(7.47198,0,0,-7.47198,208.63259,26.578003)"/>
<use data-text="&#x1d45b;" xlink:href="#font_4_2514" transform="matrix(7.47198,0,0,-7.47198,212.95886,26.578003)"/>
<use data-text="&#x2113;" xlink:href="#font_4_974" transform="matrix(7.47198,0,0,-7.47198,216.67244,26.578003)"/>
<path transform="matrix(1,0,0,-1,180.618,32.51001)" stroke-width=".59776" stroke-linecap="butt" stroke-miterlimit="10" stroke-linejoin="miter" fill="none" stroke="#ff0000" d="M0 0H8.50412 17.00826"/>
<path transform="matrix(1,0,0,-1,180.618,32.51001)" stroke-width=".59776" stroke-linecap="butt" stroke-miterlimit="10" stroke-linejoin="miter" fill="none" stroke="#ff0000" d="M10.49667 0C10.49667 1.10046 9.60458 1.99255 8.50412 1.99255 7.40364 1.99255 6.51157 1.10046 6.51157 0 6.51157-1.10046 7.40364-1.99255 8.50412-1.99255 9.60458-1.99255 10.49667-1.10046 10.49667 0ZM8.50412 0"/>
<use data-text="&#x1d70c;" xlink:href="#font_2_3178" transform="matrix(9.96264,0,0,-9.96264,199.918,33.960008)"/>
<use data-text="&#x1d45b;" xlink:href="#font_4_2514" transform="matrix(7.47198,0,0,-7.47198,204.919,36.451005)"/>
<use data-text="&#x1d45b;" xlink:href="#font_4_2514" transform="matrix(7.47198,0,0,-7.47198,208.63259,36.451005)"/>
<use data-text="&#x1d45b;" xlink:href="#font_4_2514" transform="matrix(7.47198,0,0,-7.47198,212.34616,36.451005)"/>
<use data-text="&#x1d45b;" xlink:href="#font_4_2514" transform="matrix(7.47198,0,0,-7.47198,216.05974,36.451005)"/>
</svg>
