<svg xmlns="http://www.w3.org/2000/svg" xmlns:xlink="http://www.w3.org/1999/xlink" xmlns:inkscape="http://www.inkscape.org/namespaces/inkscape" version="1.1" width="232.59" height="174.787" viewBox="0 0 232.59 174.787">
<defs>
<path id="font_1_2506" d="M.12399292 .2111969C.15299988 .2961731 .21299744 .4111328 .2869873 .4111328 .31199647 .4111328 .33099366 .39312745 .33099366 .3681488 .33099366 .28016664 .23699951 .2111969 .1329956 .2111969H.12399292M.36299134 .11222839C.32699586 .0662384 .2789917 .04824829 .23699951 .04824829 .17599488 .04824829 .12399292 .0912323 .12399292 .1552124V.18319702C.24299622 .18920899 .4099884 .2381897 .4099884 .36514283 .4099884 .42712403 .34999085 .4411316 .30799867 .4411316 .18099976 .4411316 .070999149 .3161621 .04598999 .2052002 .040985109 .1822052 .039993287 .16821289 .039993287 .1452179 .039993287 .07324219 .07899475-.0107421879 .1769867-.0107421879 .23899842-.0107421879 .30699159 .013244629 .3769989 .099227908L.36299134 .11222839Z"/>
<path id="font_2_50" d="M.3939972 0V.01499939C.31900025 .01499939 .29899598 .032989503 .29899598 .07597351V.67277529L.2899933 .67578127 .11099243 .5847931V.5708008L.13798523 .5807953C.1559906 .5877991 .17298889 .59280398 .18299866 .59280398 .20399475 .59280398 .21299744 .57780459 .21299744 .543808V.0949707C.21299744 .039978029 .19198609 .018997193 .117996219 .01499939V0H.3939972Z"/>
<path id="font_2_51" d="M.47399903 .13696289 .45999146 .1429596C.4269867 .08699036 .4059906 .07598877 .3639984 .07598877H.12998963L.29499818 .2519226C.38398744 .34588624 .4229889 .42085267 .4229889 .4998169 .4229889 .59877017 .35099793 .67578127 .23799134 .67578127 .114990238 .67578127 .050994874 .5937805 .02999878 .4768219L.050994874 .47183229C.09098816 .5697937 .12599182 .6017761 .19799805 .6017761 .2829895 .6017761 .33699037 .55178835 .33699037 .4608307 .33699037 .37586976 .30099488 .29989625 .20698548 .200943L.0289917 .011993408V0H.41999818L.47399903 .13696289Z"/>
<path id="font_2_52" d="M.06098938 .50987246C.101989749 .58380129 .147995 .61576846 .20999146 .61576846 .27598573 .61576846 .31799317 .58180239 .31799317 .51387026 .31799317 .45292665 .28599549 .40795899 .23699951 .37998963 .21699524 .36799623 .19099427 .3570099 .15299988 .34402467V.33003236C.20999146 .33003236 .23298645 .32704164 .25498963 .3200531 .32398988 .3000641 .35899354 .2511139 .35899354 .17518616 .35899354 .09025574 .30299378 .022323609 .22898865 .022323609 .20098877 .022323609 .17999268 .027313233 .14299011 .05329895 .114990238 .073272708 .09899902 .07926941 .08198547 .07926941 .05899048 .07926941 .040985109 .06428528 .040985109 .043304445 .040985109 .0073242189 .07998657-.013671875 .15299988-.013671875 .24198914-.013671875 .33699037 .015319824 .3849945 .07926941 .4139862 .11723328 .43099977 .16618347 .43099977 .21913147 .43099977 .27108766 .4149933 .31704713 .3869934 .34802247 .3659973 .36999513 .34799195 .38198854 .3039856 .40097047 .37098695 .44093324 .39698792 .4908905 .39698792 .5388489 .39698792 .6207733 .33399964 .67578127 .24099732 .67578127 .13699341 .67578127 .07398987 .6087799 .04499817 .51387026L.06098938 .50987246Z"/>
<path id="font_1_3191" d="M.23999024 .018966675C.16999817 .018966675 .12399292 .094955448 .12399292 .15795899 .12399292 .27696229 .20899964 .41096498 .33898927 .41096498L.23999024 .018966675M.41799928 .41096498C.5029907 .4119568 .5349884 .358963 .5349884 .279953 .5349884 .16996765 .44198609 .018966675 .32099916 .018966675L.41799928 .41096498M.47999574 .66796877H.397995C.38198854 .5919647 .3639984 .5159607 .34498597 .43995667H.32899476C.24899292 .43995667 .17999268 .41296388 .12399292 .35595704 .070999149 .30195619 .039993287 .23596192 .039993287 .15995789 .039993287 .044952394 .12298584-.011047363 .23098755-.011047363L.18499756-.18304444H.2659912L.31399537-.011047363C.40098573-.011047363 .47999574 .015960694 .5399933 .080963138 .59298709 .13795471 .6199951 .20695496 .6199951 .2849579 .6199951 .40196229 .5279999 .43995667 .4249878 .43995667L.47999574 .66796877Z"/>
<path id="font_1_3169" d="M.35598756 .30773927C.35299684 .29875184 .34700013 .270813 .33999635 .24784851 .30899049 .14901734 .24899292 .018249512 .18199158 .018249512 .13899231 .018249512 .12399292 .074157718 .12399292 .14303589 .12399292 .19094849 .1329956 .25782777 .14898682 .30773927H.35598756M.15899658 .34375C.18499756 .4628296 .2669983 .6389618 .33898927 .6389618 .37998963 .6389618 .3899994 .58291628 .3899994 .50987246 .3899994 .46884156 .37998963 .41378785 .36499024 .34375H.15899658M.47399903 .47183229C.47399903 .6049347 .4189911 .66796877 .34599305 .66796877 .1559906 .66796877 .039993287 .34173585 .039993287 .16798401 .039993287 .048202516 .08198547-.0107421879 .1769867-.0107421879 .33099366-.0107421879 .47399903 .2758026 .47399903 .47183229Z"/>
<path id="font_2_3169" d="M.35598756 .30773927C.35299684 .29875184 .34700013 .270813 .33999635 .24784851 .30899049 .14901734 .24899292 .018249512 .18199158 .018249512 .13899231 .018249512 .12399292 .074157718 .12399292 .14303589 .12399292 .19094849 .1329956 .25782777 .14898682 .30773927H.35598756M.15899658 .34375C.18499756 .4628296 .2669983 .6389618 .33898927 .6389618 .37998963 .6389618 .3899994 .58291628 .3899994 .50987246 .3899994 .46884156 .37998963 .41378785 .36499024 .34375H.15899658M.47399903 .47183229C.47399903 .6049347 .4189911 .66796877 .34599305 .66796877 .1559906 .66796877 .039993287 .34173585 .039993287 .16798401 .039993287 .048202516 .08198547-.0107421879 .1769867-.0107421879 .33099366-.0107421879 .47399903 .2758026 .47399903 .47183229Z"/>
<path id="font_2_3191" d="M.23999024 .018966675C.16999817 .018966675 .12399292 .094955448 .12399292 .15795899 .12399292 .27696229 .20899964 .41096498 .33898927 .41096498L.23999024 .018966675M.41799928 .41096498C.5029907 .4119568 .5349884 .358963 .5349884 .279953 .5349884 .16996765 .44198609 .018966675 .32099916 .018966675L.41799928 .41096498M.47999574 .66796877H.397995C.38198854 .5919647 .3639984 .5159607 .34498597 .43995667H.32899476C.24899292 .43995667 .17999268 .41296388 .12399292 .35595704 .070999149 .30195619 .039993287 .23596192 .039993287 .15995789 .039993287 .044952394 .12298584-.011047363 .23098755-.011047363L.18499756-.18304444H.2659912L.31399537-.011047363C.40098573-.011047363 .47999574 .015960694 .5399933 .080963138 .59298709 .13795471 .6199951 .20695496 .6199951 .2849579 .6199951 .40196229 .5279999 .43995667 .4249878 .43995667L.47999574 .66796877Z"/>
<path id="font_2_2518" d="M.1749878 .2669983 .22099304 .44099427 .06399536 .41799928 .06599426 .40299989C.07199097 .4039917 .085998538 .4059906 .09298706 .4059906 .114990238 .4059906 .12599182 .3999939 .12599182 .3869934 .12599182 .38198854 .125 .375 .12199402 .3639984L.02999878 0H.10699463L.12799073 .07598877C.1329956 .09298706 .21998596 .34899903 .2809906 .34899903 .29899598 .34899903 .2889862 .31098939 .32798768 .31098939 .36898805 .31098939 .3929901 .35499574 .3929901 .3929901 .3929901 .41999818 .37799073 .44099427 .34899903 .44099427 .2939911 .44099427 .24598694 .37599183 .21199036 .32199098 .20098877 .3039856 .18899536 .28399659 .17999268 .2659912L.1749878 .2669983Z"/>
<path id="font_1_3185" d="M.71099856 .43899537H.68499758C.5319977 .43899537 .5089874 .32598878 .48098756 .20599365 .45599366 .09700012 .38398744 .032989503 .31098939 .018997193L.41099549 .42799378H.32998658L.22999573 .018997193C.1789856 .025985718 .14698792 .069992069 .14698792 .14498902 .14698792 .20298767 .17799378 .27398683 .17799378 .32998658 .17799378 .3869934 .14698792 .44099427 .08999634 .44099427 .07199097 .44099427 .053985597 .44099427 .034988405 .43899537L.02999878 .4229889C.07699585 .41799928 .09098816 .3769989 .09098816 .33699037 .09098816 .269989 .05899048 .20999146 .05899048 .1539917 .05899048 .02999878 .13398743-.011001587 .21199036-.011001587H.22200012L.1789856-.18301392H.2599945L.3019867-.011001587C.42599488-.011001587 .54100039 .08198547 .56999209 .20999146 .58999636 .29899598 .61499026 .4099884 .71099856 .4229889V.43899537Z"/>
<path id="font_1_974" d="M.2679901 .3962555C.31999208 .4772644 .375 .5582733 .42399598 .60827639 .44898988 .63427737 .47799684 .65527346 .5059967 .65527346 .5289917 .65527346 .54100039 .6432648 .54100039 .6242676 .54100039 .5282593 .42599488 .43026734 .2689972 .39526368L.2679901 .3962555M.07699585 .38926698C.10398865 .37025453 .1349945 .3612671 .16499329 .36026 .15098572 .33825685 .13699341 .31625367 .125 .29426576 .07798767 .21224976 .04798889 .1312561 .04798889 .07624817 .04798889 .018249512 .08799744-.0107421879 .1349945-.0107421879 .19799805-.0107421879 .25698854 .04624939 .3619995 .16925049L.34098817 .18624878C.24398804 .07424927 .18899536 .019256592 .14199829 .019256592 .114990238 .019256592 .10598755 .038253786 .10598755 .06225586 .10598755 .1292572 .19699097 .27626039 .24899292 .36026 .4249878 .386261 .57099917 .5152588 .57099917 .6202698 .57099917 .66625979 .548996 .6872711 .5069885 .6872711 .4249878 .6872711 .2899933 .5452728 .18499756 .3902588 .15499878 .3902588 .12399292 .3922577 .09098816 .41526795L.07699585 .38926698Z"/>
<path id="font_1_2513" d="M.6669922 .10708618C.647995 .0700531 .621994 .054031373 .6049957 .054031373 .59599307 .054031373 .58999636 .058029176 .58999636 .06604004 .58999636 .06904602 .59098818 .07505798 .59199526 .078063968L.6529999 .30932618C.6589966 .3333435 .6599884 .35237123 .6599884 .37039186 .6599884 .41540528 .6419983 .44140626 .60598757 .44140626 .58599856 .44140626 .5669861 .43440248 .54499819 .41940309 .49598695 .38639833 .44400025 .32434083 .4149933 .27227784H.4099884L.41999818 .3083191C.42599488 .32833863 .42900086 .34335328 .42900086 .36038209 .42900086 .4044037 .41099549 .44140626 .37399293 .44140626 .33599855 .44140626 .27598573 .41540528 .18199158 .27227784H.17599488L.21998596 .44140626 .06298828 .41740418 .06498718 .4033966C.07299805 .4044037 .083999637 .4053955 .09199524 .4053955 .11898804 .4053955 .125 .39239503 .125 .37438966L.02999878 0H.10798645L.14299011 .13511658C.15899658 .19619751 .2689972 .37739564 .32099916 .37739564 .33898927 .37739564 .34399415 .359375 .34399415 .33935548 .34399415 .32434083 .34098817 .3083191 .33898927 .2993164L.2619934 0H.34098817L.375 .13511658C.3899994 .19619751 .5 .37739564 .55400088 .37739564 .57199099 .37739564 .5779877 .359375 .5779877 .33935548 .5779877 .32234193 .57598879 .31332398 .57199099 .2993164L.5159912 .078063968C.5109863 .058029176 .5099945 .04801941 .5099945 .041015626 .5099945 .0021820069 .5269928-.0078125 .548996-.0078125 .59599307-.0078125 .647995 .04219055 .6799927 .09623718L.6669922 .10708618Z"/>
<path id="font_1_2514" d="M.46699525 .096206668 .45399476 .10720825C.43998719 .09020996 .41600038 .05418396 .3919983 .05418396 .3809967 .05418396 .37799073 .062179567 .3769989 .06819153 .3769989 .07319641 .3769989 .07620239 .37799073 .078201297L.43699647 .3093567C.44198609 .32936097 .44799806 .35438539 .44799806 .37939454 .44799806 .4123993 .43598939 .44140626 .3919983 .44140626 .33198548 .44140626 .27198792 .37539674 .23199463 .32536317 .22999573 .32235719 .18099976 .25231935 .17599488 .25231935H.17298889L.22399903 .44140626 .06498718 .418396 .066986087 .4033966C.07398987 .4044037 .084991458 .4064026 .09498596 .4064026 .12199402 .4064026 .125 .39239503 .125 .37438966L.02999878 0H.10699463L.13999939 .12411499C.1459961 .1451416 .17199707 .19218445 .20799256 .24624634 .23899842 .29330445 .3019867 .37939454 .33999635 .37939454 .35798646 .37939454 .3639984 .36038209 .3639984 .34135438 .3639984 .3273468 .35899354 .307312 .35699464 .2993164L.2999878 .078063968C.29699708 .06704712 .29299928 .05102539 .29299928 .038009645 .29299928 .015182495 .3019867-.0078125 .33399964-.0078125 .38598634-.0078125 .43399049 .05618286 .46199037 .09020996L.46699525 .096206668Z"/>
<path id="font_1_2502" d="M.36698915 .3411255C.36698915 .30714417 .3600006 .26715089 .35198976 .24116516 .32398988 .14619446 .2539978 .051223756 .18499756 .051223756 .1579895 .051223756 .1269989 .06422424 .1269989 .11720276 .1269989 .15219116 .13699341 .19618225 .15499878 .24116516 .18899536 .32513429 .24899292 .41210938 .31698609 .41210938 .35499574 .41210938 .36698915 .3821106 .36698915 .3411255M.47200013 .4281006H.3919983L.3829956 .39511109H.38198854C.37998963 .417099 .35899354 .44110108 .31599427 .44110108 .17199707 .44110108 .039993287 .24116516 .039993287 .10920715 .039993287 .04522705 .06599426-.009765625 .1289978-.009765625 .16799927-.009765625 .22999573 .0032196046 .3019867 .095214847H.30599977C.30099488 .07922363 .29499818 .05822754 .29499818 .04522705 .29499818 .01322937 .3039856-.009765625 .33699037-.009765625 .3849945-.009765625 .43899537 .050231935 .46998597 .097213748L.45799256 .10920715C.4189911 .05722046 .4039917 .055221559 .3939972 .055221559 .38598634 .055221559 .37998963 .06121826 .37998963 .07221985 .37998963 .081222537 .3809967 .083221439 .3809967 .083221439L.47200013 .4281006Z"/>
<path id="font_1_2503" d="M.1789856 .25234986C.18998719 .29736329 .22399903 .38639833 .29599 .38639833 .32899476 .38639833 .36698915 .36439515 .36698915 .2943573 .36698915 .19232178 .30099488 .018249512 .1789856 .018249512 .1559906 .018249512 .12399292 .030258179 .12399292 .037261964L.1789856 .25234986M.21398926 .3824005 .2869873 .66796877 .1289978 .6439667 .13198853 .628006C.13999939 .6309967 .1519928 .6319885 .1619873 .6319885 .1749878 .6319885 .18998719 .6240082 .19099427 .6110382 .19099427 .6080475 .18998719 .6040497 .18899536 .60006716L.04499817 .037261964C.08999634 .007247925 .1309967-.0107421879 .18399048-.0107421879 .34098817-.0107421879 .44999696 .16931153 .44999696 .2903595 .44999696 .37239076 .40899659 .44140626 .33898927 .44140626 .2899933 .44140626 .25099183 .4104004 .21798706 .3784027L.21398926 .3824005Z"/>
<path id="font_1_62" d="M.6369934 .12011719V.18611145H.04798889V.12011719H.6369934M.6369934 .31973268V.3857422H.04798889V.31973268H.6369934Z"/>
<path id="font_1_3168" d="M.17298889 .25097657C.18199158 .28897096 .20498657 .3579712 .20498657 .39996339 .20498657 .42396546 .19599915 .44096376 .1639862 .44096376 .14199829 .44096376 .10499573 .41897584 .07998657 .39396668 .055999757 .3699646 .038986207 .3429718 .033996583 .33596803L.04699707 .3259735C.06298828 .3469696 .084991458 .37597657 .10699463 .37597657 .117996219 .37597657 .11999512 .3719635 .11999512 .36296083 .11999512 .3489685 .11299133 .32896424 .10699463 .30397035L.02999878 0H.10798645L.13899231 .10498047C.16899109 .20698548 .29899598 .37597657 .33898927 .37597657 .35598756 .37597657 .36698915 .3639679 .36698915 .3469696 .36698915 .3299713 .3619995 .30897523 .35899354 .29896546 .27398683-.039001466 .2599945-.0960083 .2599945-.13700867 .2599945-.15501404 .2619934-.17201233 .2709961-.18301392H.34700013C.34298707-.17500305 .34199525-.16200257 .34199525-.14801026 .34199525-.117004398 .34999085-.06700134 .36499024-.0040130617L.43998719 .30897523C.44599916 .3349762 .45498658 .36497499 .45498658 .3869629 .45498658 .42097474 .43399049 .44096376 .394989 .44096376 .33599855 .44096376 .28599549 .39297486 .23199463 .3239746 .21899414 .30697633 .19599915 .27796937 .1749878 .25097657H.17298889Z"/>
</defs>
<path transform="matrix(1,0,0,-1,92.003,112.662)" stroke-width=".79701" stroke-linecap="butt" stroke-miterlimit="10" stroke-linejoin="miter" fill="none" stroke="#000000" d="M0 0-13.01863-17.88391"/>
<path transform="matrix(-.5885,.80847,.80847,.5885,78.984378,130.54592)" d="M2.59026 0-1.55415 2.0722 0 0-1.55415-2.0722"/>
<use data-text="&#x1d452;" xlink:href="#font_1_2506" transform="matrix(9.96264,0,0,-9.96264,65.162998,125.025)"/>
<path transform="matrix(1,0,0,-1,65.162998,127.436008)" stroke-width=".658" stroke-linecap="butt" stroke-miterlimit="10" stroke-linejoin="miter" fill="none" stroke="#000000" d="M0 0H4.433"/>
<use data-text="1" xlink:href="#font_2_50" transform="matrix(7.47198,0,0,-7.47198,69.59699,128.921)"/>
<path transform="matrix(1,0,0,-1,92.003,112.662)" stroke-width=".79701" stroke-linecap="butt" stroke-miterlimit="10" stroke-linejoin="miter" fill="none" stroke="#000000" d="M0 0 37.4078-6.80748"/>
<path transform="matrix(.98381,.17902,.17902,-.98381,129.4108,119.46946)" d="M2.59026 0-1.55415 2.0722 0 0-1.55415-2.0722"/>
<use data-text="&#x1d452;" xlink:href="#font_1_2506" transform="matrix(9.96264,0,0,-9.96264,127.67,128.045)"/>
<path transform="matrix(1,0,0,-1,127.67,130.456)" stroke-width=".658" stroke-linecap="butt" stroke-miterlimit="10" stroke-linejoin="miter" fill="none" stroke="#000000" d="M0 0H4.433"/>
<use data-text="2" xlink:href="#font_2_51" transform="matrix(7.47198,0,0,-7.47198,132.103,131.94101)"/>
<path transform="matrix(1,0,0,-1,92.003,112.662)" stroke-width=".79701" stroke-linecap="butt" stroke-miterlimit="10" stroke-linejoin="miter" fill="none" stroke="#000000" d="M0 0V34.23341"/>
<path transform="matrix(0,-1,-1,-0,92.003,78.42859)" d="M2.59026 0-1.55415 2.0722 0 0-1.55415-2.0722"/>
<use data-text="&#x1d452;" xlink:href="#font_1_2506" transform="matrix(9.96264,0,0,-9.96264,79.706,76.035)"/>
<path transform="matrix(1,0,0,-1,79.706,78.446)" stroke-width=".658" stroke-linecap="butt" stroke-miterlimit="10" stroke-linejoin="miter" fill="none" stroke="#000000" d="M0 0H4.433"/>
<use data-text="3" xlink:href="#font_2_52" transform="matrix(7.47198,0,0,-7.47198,84.14,79.931)"/>
<path transform="matrix(1,0,0,-1,92.003,112.662)" stroke-width=".3985" stroke-linecap="butt" stroke-dasharray=".3985,1.99255" stroke-miterlimit="10" stroke-linejoin="miter" fill="none" stroke="#000000" d="M0 0-43.629-59.93419"/>
<path transform="matrix(1,0,0,-1,92.003,112.662)" stroke-width=".3985" stroke-linecap="butt" stroke-dasharray=".3985,1.99255" stroke-miterlimit="10" stroke-linejoin="miter" fill="none" stroke="#000000" d="M0 0 119.8684-21.81354"/>
<path transform="matrix(1,0,0,-1,92.003,112.662)" stroke-width=".3985" stroke-linecap="butt" stroke-dasharray=".3985,1.99255" stroke-miterlimit="10" stroke-linejoin="miter" fill="none" stroke="#000000" d="M0 0V110.47107"/>
<path transform="matrix(1,0,0,-1,92.003,112.662)" stroke-width=".3985" stroke-linecap="butt" stroke-miterlimit="10" stroke-linejoin="miter" fill="none" stroke="#000000" d="M0 0 26.34111 45.77345"/>
<path transform="matrix(.49876,-.86671,-.86671,-.49876,118.34411,66.88855)" d="M1.99252 0-1.19551 1.59401 0 0-1.19551-1.59401"/>
<path transform="matrix(1,0,0,-1,92.003,112.662)" stroke-width=".3985" stroke-linecap="butt" stroke-dasharray="2.98883,2.98883" stroke-miterlimit="10" stroke-linejoin="miter" fill="none" stroke="#000000" d="M0 0 27.33492-16.28802"/>
<path transform="matrix(1,0,0,-1,92.003,112.662)" stroke-width=".3985" stroke-linecap="butt" stroke-dasharray="2.98883,2.98883" stroke-miterlimit="10" stroke-linejoin="miter" fill="none" stroke="#000000" d="M27.33492 47.5004V-16.28802"/>
<use data-text="&#x1d719;" xlink:href="#font_1_3191" transform="matrix(9.96264,0,0,-9.96264,94.697,139.785)" fill="#008000"/>
<path transform="matrix(1,0,0,-1,92.003,112.662)" stroke-width=".79701" stroke-linecap="butt" stroke-miterlimit="10" stroke-linejoin="miter" fill="none" stroke="#008000" d="M-11.63443-15.9825C-.21579-18.06044 12.5571-16.93425 21.86536-13.02888"/>
<path transform="matrix(1,0,0,-1,92.003,112.662)" stroke-width=".3985" stroke-linecap="butt" stroke-dasharray="2.98883,2.98883" stroke-miterlimit="10" stroke-linejoin="miter" fill="none" stroke="#000000" d="M0 73.64737C30.19008 55.65846 54.66327 8.10344 54.66327-32.57138"/>
<path transform="matrix(1,0,0,-1,92.003,112.662)" stroke-width=".3985" stroke-linecap="butt" stroke-dasharray="2.98883,2.98883" stroke-miterlimit="10" stroke-linejoin="miter" fill="none" stroke="#000000" d="M-29.086-39.95613C15.04887-47.98775 63.8483-36.60979 79.91226-14.54236"/>
<use data-text="&#x1d703;" xlink:href="#font_1_3169" transform="matrix(9.96264,0,0,-9.96264,97.61,60.329004)" fill="#008000"/>
<path transform="matrix(1,0,0,-1,92.003,112.662)" stroke-width=".79701" stroke-linecap="butt" stroke-miterlimit="10" stroke-linejoin="miter" fill="none" stroke="#008000" d="M0 73.64737C9.59291 67.93138 19.02405 58.90675 27.33163 47.49496"/>
<path transform="matrix(1,0,0,-1,92.003,112.662)" stroke-width=".79701" stroke-linecap="butt" stroke-miterlimit="10" stroke-linejoin="miter" fill="none" stroke="#000000" d="M27.33492 47.5004 49.48032 17.07893"/>
<path transform="matrix(.5885,.80847,.80847,-.5885,141.4833,95.58307)" d="M2.59026 0-1.55415 2.0722 0 0-1.55415-2.0722"/>
<use data-text="&#x1d452;" xlink:href="#font_1_2506" transform="matrix(9.96264,0,0,-9.96264,146.726,105.79)"/>
<path transform="matrix(1,0,0,-1,146.726,108.201007)" stroke-width=".658" stroke-linecap="butt" stroke-miterlimit="10" stroke-linejoin="miter" fill="none" stroke="#000000" d="M0 0H4.433"/>
<use data-text="&#x1d703;" xlink:href="#font_2_3169" transform="matrix(7.47198,0,0,-7.47198,151.159,109.685009)"/>
<path transform="matrix(1,0,0,-1,92.003,112.662)" stroke-width=".79701" stroke-linecap="butt" stroke-miterlimit="10" stroke-linejoin="miter" fill="none" stroke="#000000" d="M27.33492 47.5004 57.51918 60.16417"/>
<path transform="matrix(.92209,-.38686,-.38686,-.92209,149.52217,52.497854)" d="M2.59026 0-1.55415 2.0722 0 0-1.55415-2.0722"/>
<use data-text="&#x1d452;" xlink:href="#font_1_2506" transform="matrix(9.96264,0,0,-9.96264,155.629,51.062005)"/>
<path transform="matrix(1,0,0,-1,155.629,53.473)" stroke-width=".658" stroke-linecap="butt" stroke-miterlimit="10" stroke-linejoin="miter" fill="none" stroke="#000000" d="M0 0H4.433"/>
<use data-text="&#x1d719;" xlink:href="#font_2_3191" transform="matrix(7.47198,0,0,-7.47198,160.062,54.957)"/>
<path transform="matrix(1,0,0,-1,92.003,112.662)" stroke-width=".79701" stroke-linecap="butt" stroke-miterlimit="10" stroke-linejoin="miter" fill="none" stroke="#000000" d="M27.33492 47.5004 39.70885 69.003"/>
<path transform="matrix(.49875,-.86671,-.86671,-.49875,131.71186,43.65901)" d="M2.59026 0-1.55415 2.0722 0 0-1.55415-2.0722"/>
<use data-text="&#x1d452;" xlink:href="#font_1_2506" transform="matrix(9.96264,0,0,-9.96264,136.722,33.800004)"/>
<path transform="matrix(1,0,0,-1,136.722,36.211)" stroke-width=".658" stroke-linecap="butt" stroke-miterlimit="10" stroke-linejoin="miter" fill="none" stroke="#000000" d="M0 0H4.433"/>
<use data-text="&#x1d45f;" xlink:href="#font_2_2518" transform="matrix(7.47198,0,0,-7.47198,141.156,37.696)"/>
<use data-text="&#x1d713;" xlink:href="#font_1_3185" transform="matrix(9.96264,0,0,-9.96264,150.521,93.122)" fill="#008000"/>
<path transform="matrix(1,0,0,-1,92.003,112.662)" stroke-width=".79701" stroke-linecap="butt" stroke-miterlimit="10" stroke-linejoin="miter" fill="none" stroke="#008000" d="M46.27078 21.48782C53.18057 24.3868 57.81512 29.91006 59.15057 36.8373"/>
<path transform="matrix(1,0,0,-1,92.003,112.662)" stroke-width=".79701" stroke-linecap="butt" stroke-miterlimit="10" stroke-linejoin="miter" fill="none" stroke="#0000ff" d="M27.33492 47.5004 64.64702 34.9951"/>
<path transform="matrix(.94812,.31778,.31778,-.94812,156.65003,77.666889)" d="M2.59026 0-1.55415 2.0722 0 0-1.55415-2.0722" fill="#0000ff"/>
<use data-text="&#x2113;" xlink:href="#font_1_974" transform="matrix(9.96264,0,0,-9.96264,162.824,89.054)" fill="#0000ff"/>
<path transform="matrix(1,0,0,-1,162.824,91.465007)" stroke-width=".658" stroke-linecap="butt" stroke-miterlimit="10" stroke-linejoin="miter" fill="none" stroke="#0000ff" d="M0 0H5.768"/>
<path transform="matrix(1,0,0,-1,92.003,112.662)" stroke-width=".79701" stroke-linecap="butt" stroke-miterlimit="10" stroke-linejoin="miter" fill="none" stroke="#0000ff" d="M27.33492 47.5004 33.13995 77.61082"/>
<path transform="matrix(.1893,-.9819,-.9819,-.1893,125.14294,35.051195)" d="M2.59026 0-1.55415 2.0722 0 0-1.55415-2.0722" fill="#0000ff"/>
<use data-text="&#x1d45a;" xlink:href="#font_1_2513" transform="matrix(9.96264,0,0,-9.96264,114.84,40.621004)" fill="#0000ff"/>
<path transform="matrix(1,0,0,-1,114.84,43.002)" stroke-width=".658" stroke-linecap="butt" stroke-miterlimit="10" stroke-linejoin="miter" fill="none" stroke="#0000ff" d="M0 0H7.073"/>
<path transform="matrix(1,0,0,-1,92.003,112.662)" stroke-width=".79701" stroke-linecap="butt" stroke-miterlimit="10" stroke-linejoin="miter" fill="none" stroke="#0000ff" d="M27.33492 47.5004 39.70885 69.003"/>
<path transform="matrix(.49875,-.86671,-.86671,-.49875,131.71186,43.65901)" d="M2.59026 0-1.55415 2.0722 0 0-1.55415-2.0722" fill="#0000ff"/>
<use data-text="&#x1d45b;" xlink:href="#font_1_2514" transform="matrix(9.96264,0,0,-9.96264,136.722,49.527)" fill="#0000ff"/>
<path transform="matrix(1,0,0,-1,136.722,51.908006)" stroke-width=".658" stroke-linecap="butt" stroke-miterlimit="10" stroke-linejoin="miter" fill="none" stroke="#0000ff" d="M0 0H4.951"/>
<path transform="matrix(1,0,0,-1,92.003,112.662)" d="M126.75487 14.17934 127.04878 16.83652 126.948 19.61433 126.44469 22.50584 125.54037 25.49886 124.2434 28.57944 122.55342 31.73602 120.48053 34.9573 118.0361 38.2283 115.22285 41.5365 112.05502 44.86853 108.55087 48.21199 104.71457 51.55167 100.56966 54.8754 96.13002 58.16849 91.40984 61.42035 86.43578 64.61511 81.22119 67.742 75.79027 70.78542 70.16583 73.7367 64.36711 76.58139 58.41818 79.31041 52.34828 81.91127 46.1731 84.37134 39.92488 86.68399 33.627 88.83932 27.30247 90.8264 20.97766 92.64117 14.67726 94.27432 8.42877 95.71765 2.2552 96.96988-3.81357 98.01828-9.76018 98.86606-15.55846 99.50818-21.18 99.93776-26.60933 100.15811-31.823 100.16667-36.79187 99.96059-41.50812 99.54675-45.94725 98.92174-50.08914 98.08946-53.9193 97.05455-57.42322 95.81853-60.58356 94.38777-63.39531 92.77124-65.8359 90.9688-67.90428 88.99278-69.58997 86.85031-70.88019 84.54774-71.78206 82.09802-72.28098 79.51009-72.37753 76.79099-72.07617 73.95444-71.37115 71.01018-70.26953 67.97173-68.77922 64.85182-66.89424 61.66115-64.6345 58.41386-62.0065 55.12321-59.01317 51.80086-55.6755 48.46175-52.0033 45.11874-48.009 41.78447-43.7179 38.47485-39.13463 35.19992-34.28445 31.97559-29.1898 28.81308-23.86208 25.72679-18.33098 22.7272-12.6172 19.82718-6.73952 17.04033-.72878 14.37389 5.39719 11.8428 11.61154 9.45502 17.88927 7.2184 24.20209 5.14722 30.52942 3.24512 36.84602 1.5185 43.12292-.0187 49.33742-1.36687 55.46257-2.5185 61.47375-3.46695 67.34598-4.2113 73.06181-4.74835 78.5886-5.07298 83.91223-5.1879 89.00764-5.08945 93.85265-4.77872 98.43283-4.25986 102.72408-3.53067 106.71265-2.59554 110.383-1.46144 113.7167-.12646 116.70454 1.39813 119.33273 3.10802 121.58691 4.99898 123.46648 7.05788 124.95462 9.28139 126.05064 11.65915 126.75294 14.17947" fill="#ff0000" fill-opacity=".1"/>
<path transform="matrix(1,0,0,-1,92.003,112.662)" stroke-width=".3985" stroke-linecap="butt" stroke-miterlimit="10" stroke-linejoin="miter" fill="none" stroke="#ff0000" d="M126.75487 14.17934 127.04878 16.83652 126.948 19.61433 126.44469 22.50584 125.54037 25.49886 124.2434 28.57944 122.55342 31.73602 120.48053 34.9573 118.0361 38.2283 115.22285 41.5365 112.05502 44.86853 108.55087 48.21199 104.71457 51.55167 100.56966 54.8754 96.13002 58.16849 91.40984 61.42035 86.43578 64.61511 81.22119 67.742 75.79027 70.78542 70.16583 73.7367 64.36711 76.58139 58.41818 79.31041 52.34828 81.91127 46.1731 84.37134 39.92488 86.68399 33.627 88.83932 27.30247 90.8264 20.97766 92.64117 14.67726 94.27432 8.42877 95.71765 2.2552 96.96988-3.81357 98.01828-9.76018 98.86606-15.55846 99.50818-21.18 99.93776-26.60933 100.15811-31.823 100.16667-36.79187 99.96059-41.50812 99.54675-45.94725 98.92174-50.08914 98.08946-53.9193 97.05455-57.42322 95.81853-60.58356 94.38777-63.39531 92.77124-65.8359 90.9688-67.90428 88.99278-69.58997 86.85031-70.88019 84.54774-71.78206 82.09802-72.28098 79.51009-72.37753 76.79099-72.07617 73.95444-71.37115 71.01018-70.26953 67.97173-68.77922 64.85182-66.89424 61.66115-64.6345 58.41386-62.0065 55.12321-59.01317 51.80086-55.6755 48.46175-52.0033 45.11874-48.009 41.78447-43.7179 38.47485-39.13463 35.19992-34.28445 31.97559-29.1898 28.81308-23.86208 25.72679-18.33098 22.7272-12.6172 19.82718-6.73952 17.04033-.72878 14.37389 5.39719 11.8428 11.61154 9.45502 17.88927 7.2184 24.20209 5.14722 30.52942 3.24512 36.84602 1.5185 43.12292-.0187 49.33742-1.36687 55.46257-2.5185 61.47375-3.46695 67.34598-4.2113 73.06181-4.74835 78.5886-5.07298 83.91223-5.1879 89.00764-5.08945 93.85265-4.77872 98.43283-4.25986 102.72408-3.53067 106.71265-2.59554 110.383-1.46144 113.7167-.12646 116.70454 1.39813 119.33273 3.10802 121.58691 4.99898 123.46648 7.05788 124.95462 9.28139 126.05064 11.65915 126.75294 14.17947"/>
<path transform="matrix(1,0,0,-1,92.003,112.662)" stroke-width=".3985" stroke-linecap="butt" stroke-dasharray="2.98883,2.98883" stroke-miterlimit="10" stroke-linejoin="miter" fill="none" stroke="#7f807f" d="M27.33492 47.5004 126.75487 14.17934"/>
<use data-text="&#x1d44e;" xlink:href="#font_1_2502" transform="matrix(9.96264,0,0,-9.96264,222.276,106.396)"/>
<path transform="matrix(1,0,0,-1,92.003,112.662)" stroke-width=".3985" stroke-linecap="butt" stroke-dasharray="2.98883,2.98883" stroke-miterlimit="10" stroke-linejoin="miter" fill="none" stroke="#7f807f" d="M27.33492 47.5004 35.20413 88.31763"/>
<use data-text="&#x1d44f;" xlink:href="#font_1_2503" transform="matrix(9.96264,0,0,-9.96264,130.726,19.001999)"/>
<use data-text="=" xlink:href="#font_1_62" transform="matrix(9.96264,0,0,-9.96264,138.16809,19.001999)"/>
<use data-text="&#x1d702;" xlink:href="#font_1_3168" transform="matrix(9.96264,0,0,-9.96264,147.7621,19.001999)"/>
<use data-text="&#x1d44e;" xlink:href="#font_1_2502" transform="matrix(9.96264,0,0,-9.96264,154.00867,19.001999)"/>
</svg>
