<svg xmlns="http://www.w3.org/2000/svg" xmlns:xlink="http://www.w3.org/1999/xlink" xmlns:inkscape="http://www.inkscape.org/namespaces/inkscape" version="1.1" width="360" height="239" viewBox="0 0 360 239">
<defs>
<path id="font_1_1" d="M.041503908 .35327149C.041503908 .43784587 .05021159 .50591537 .06762695 .55747988 .08504232 .6090444 .11092123 .6488139 .14526367 .67678835 .17960613 .70476278 .22281902 .71875 .27490235 .71875 .3133138 .71875 .34700523 .711024 .37597657 .6955719 .4049479 .6801198 .4288737 .6578369 .4477539 .62872317 .46663413 .5996094 .4814453 .56414797 .4921875 .52233889 .5029297 .48053996 .5083008 .42418418 .5083008 .35327149 .5083008 .26934815 .49967448 .2016042 .48242188 .15003968 .46516929 .098475139 .43937174 .058624269 .4050293 .03048706 .37068687 .0023498536 .3273112-.01171875 .27490235-.01171875 .20589192-.01171875 .1516927 .013005574 .11230469 .062454225 .065104167 .12198385 .041503908 .21892293 .041503908 .35327149M.13183594 .35351563C.13183594 .23639934 .14558919 .15845235 .1730957 .11967468 .20060222 .08090719 .23453777 .061523439 .27490235 .061523439 .31526695 .061523439 .34920249 .08098856 .37670899 .11991882 .40421549 .15884908 .41796876 .23671468 .41796876 .35351563 .41796876 .47095744 .40421549 .5489807 .37670899 .58758547 .34920249 .6262004 .3149414 .6455078 .27392579 .6455078 .2335612 .6455078 .20133464 .62847396 .1772461 .5944061 .14697266 .5509288 .13183594 .47063194 .13183594 .35351563Z"/>
<path id="font_1_2" d="M.50341799 .084472659V0H.030273438C.029622397 .021148682 .033040365 .041483564 .040527345 .06100464 .052571615 .09321085 .07185873 .124928798 .09838867 .15615845 .12491862 .1873881 .1632487 .22350057 .2133789 .26449586 .29117839 .3282369 .34375 .37872825 .37109376 .41596986 .3984375 .45321147 .41210938 .48841859 .41210938 .5215912 .41210938 .5563914 .3996582 .5857442 .37475587 .60964968 .34985353 .6335551 .3173828 .6455078 .27734376 .6455078 .23502605 .6455078 .20117188 .6328125 .17578125 .6074219 .15039063 .58203127 .13753255 .546875 .13720703 .5019531L.046875 .5112457C.053059896 .5787811 .07633463 .630249 .11669922 .6656494 .1570638 .7010498 .21126302 .71875 .27929688 .71875 .34798179 .71875 .40234376 .69970199 .4423828 .66160586 .48242188 .6235097 .5024414 .57629397 .5024414 .5199585 .5024414 .4913025 .49658204 .46313478 .48486329 .43545533 .47314454 .40777589 .45369468 .3786316 .42651368 .34802247 .39933268 .3174235 .35416667 .27542115 .29101563 .22201538 .23828125 .17779541 .20442708 .14779663 .18945313 .13201905 .17447917 .116251628 .16210938 .10040283 .15234375 .084472659H.50341799Z"/>
<path id="font_1_3" d="M.3232422 0V.17138672H.0126953129V.25195313L.33935548 .7158203H.4111328V.25195313H.5078125V.17138672H.4111328V0H.3232422M.3232422 .25195313V.57470706L.099121097 .25195313H.3232422Z"/>
<path id="font_1_4" d="M.4975586 .5400543 .41015626 .5332031C.40234376 .5675557 .39127604 .59251406 .37695313 .608078 .3531901 .6330312 .32389323 .6455078 .2890625 .6455078 .26106773 .6455078 .23649089 .637736 .21533203 .6221924 .18766277 .602122 .16585286 .57282 .14990235 .5342865 .13395183 .49575297 .12565105 .4408671 .125 .3696289 .14615886 .40185548 .17203777 .42578126 .20263672 .44140626 .23323567 .45703126 .26529948 .46484376 .29882813 .46484376 .35742188 .46484376 .40730796 .44327799 .44848634 .40014649 .4896647 .35701499 .5102539 .30126954 .5102539 .23291016 .5102539 .18798828 .50056967 .14624024 .48120118 .107666019 .46183268 .0690918 .43522135 .03955078 .4013672 .019042969 .36751304-.0014648438 .32910157-.01171875 .2861328-.01171875 .21289063-.01171875 .15315755 .015197754 .106933597 .06903076 .060709638 .12287394 .037597658 .2116038 .037597658 .33522035 .037597658 .47347514 .06315104 .57399496 .11425781 .6367798 .15885417 .6914266 .21891277 .71875 .2944336 .71875 .3507487 .71875 .39689128 .70292159 .43286134 .67126467 .4688314 .6396077 .49039714 .595871 .4975586 .5400543M.13867188 .23287964C.13867188 .20269776 .1451009 .17381287 .15795899 .14622498 .17081706 .118637088 .18880208 .09762064 .21191406 .08317566 .23502605 .068740848 .25927735 .061523439 .28466798 .061523439 .32177735 .061523439 .35367839 .07645162 .3803711 .10630798 .4070638 .13616435 .42041017 .17673238 .42041017 .22801209 .42041017 .27734886 .40722657 .31621299 .38085938 .3446045 .3544922 .3730062 .32128907 .38720704 .28125 .38720704 .24153646 .38720704 .20784505 .3730062 .18017578 .3446045 .15250652 .31621299 .13867188 .27897135 .13867188 .23287964Z"/>
<path id="font_1_5" d="M.17675781 .38916017C.14029949 .40246583 .11328125 .42145286 .095703128 .44612123 .078125 .47078959 .06933594 .5003255 .06933594 .534729 .06933594 .5866597 .08805338 .63031008 .12548828 .66567996 .16292317 .70106 .21272786 .71875 .27490235 .71875 .33740235 .71875 .3876953 .7006531 .42578126 .6644592 .4638672 .6282756 .48291017 .5842183 .48291017 .5322876 .48291017 .4991862 .47420249 .4703827 .4567871 .44587709 .43937174 .42137147 .4129232 .40246583 .3774414 .38916017 .42138673 .3748169 .45483399 .3516744 .4777832 .31973268 .5007324 .28780113 .51220706 .24966939 .51220706 .20533753 .51220706 .1440684 .4905599 .09257507 .44726563 .050857545 .40397135 .009140015 .34700523-.01171875 .2763672-.01171875 .20572917-.01171875 .14876302 .009221395 .10546875 .051101686 .06217448 .09298197 .040527345 .14521282 .040527345 .20779419 .040527345 .25439454 .052327474 .29342143 .075927738 .32487489 .09952799 .35632835 .13313802 .37775675 .17675781 .38916017M.15917969 .53707888C.15917969 .5035197 .17008464 .47608949 .19189453 .4547882 .21370442 .4334971 .24202474 .42285157 .27685548 .42285157 .31070964 .42285157 .3384603 .4334208 .36010743 .45455934 .38175456 .47569786 .39257813 .501592 .39257813 .5322418 .39257813 .5641937 .38142906 .5910594 .35913087 .61283877 .33683268 .6346181 .30908204 .6455078 .2758789 .6455078 .24235027 .6455078 .21451824 .6348572 .19238281 .6135559 .17024739 .59226486 .15917969 .56677249 .15917969 .53707888M.13085938 .20776367C.13085938 .18273926 .13680013 .15852864 .14868164 .13513184 .16056316 .11173502 .17822266 .09361776 .20166016 .08078003 .22509766 .0679423 .25032554 .061523439 .27734376 .061523439 .31933595 .061523439 .3540039 .07500712 .38134767 .10197449 .4086914 .12895203 .42236329 .16323853 .42236329 .20483399 .42236329 .24708049 .40828453 .28201295 .38012696 .30963136 .3519694 .33725993 .31673179 .35107423 .27441407 .35107423 .23307292 .35107423 .19881185 .3374227 .17163086 .31011964 .14444988 .28282676 .13085938 .24870809 .13085938 .20776367Z"/>
<path id="font_1_6" d="M.3725586 0H.28466798V.5600586C.26350913 .5398763 .23575847 .51969406 .20141602 .49951173 .16707357 .47932945 .13623047 .46419273 .10888672 .45410157V.5390625C.15804036 .5621745 .20100911 .59016928 .23779297 .6230469 .2745768 .6559245 .3006185 .6878255 .31591798 .71875H.3725586V0Z"/>
<path id="font_1_7" d="M.2578125 .07763672 .2705078 0C.24576824-.0045572917 .22363281-.0068359377 .20410156-.0068359377 .17220052-.0068359377 .14746094-.0017903646 .12988281 .008300781 .11230469 .018391928 .0999349 .031656904 .09277344 .048095704 .08561198 .06453451 .08203125 .099121097 .08203125 .15185547V.4501953H.017578125V.5185547H.08203125V.6473236L.1694336 .7001953V.5185547H.2578125V.4501953H.1694336V.14697266C.1694336 .121907558 .17097982 .10579427 .17407227 .09863281 .17716472 .09147135 .18221028 .08577474 .18920899 .08154297 .19620769 .077311199 .20621746 .07519531 .21923828 .07519531 .2290039 .07519531 .24186199 .07600912 .2578125 .07763672Z"/>
<path id="font_2_1" d="M.296875-.20996094H.23388672C.20784505-.17675781 .1841634-.14168294 .1628418-.10473633 .14152019-.06778971 .12320963-.029459635 .107910159 .010253906 .09261068 .04996745 .08081055 .090657558 .072509769 .13232422 .064208988 .17399089 .060058595 .21614583 .060058595 .25878907 .060058595 .30208335 .06429037 .34448243 .072753909 .38598634 .081217449 .42749024 .09309896 .4679362 .10839844 .5073242 .123697917 .5467122 .14200847 .5848796 .16333008 .6218262 .18465169 .65877279 .20817058 .69417318 .23388672 .72802737H.296875C.27376304 .6902669 .25309245 .6530762 .23486328 .6164551 .21663411 .579834 .20133464 .5425618 .18896485 .5046387 .17659505 .46671549 .16715496 .42765299 .16064453 .38745118 .15413411 .34724937 .1508789 .3046875 .1508789 .25976563 .1508789 .21809896 .15437825 .17675781 .16137696 .13574219 .16837566 .09472656 .17822266 .05444336 .19091797 .014892578 .20361328-.024658204 .21891277-.06323242 .2368164-.10083008 .25472007-.13842774 .2747396-.17480469 .296875-.20996094Z"/>
<path id="font_1_8" d="M.06591797 0V.7158203H.1538086V.45898438C.19482422 .50651046 .24658203 .53027346 .30908204 .53027346 .3474935 .53027346 .38085938 .5227051 .4091797 .50756838 .4375 .49243165 .45776368 .47151695 .4699707 .44482423 .48217774 .4181315 .48828126 .37939454 .48828126 .32861329V0H.40039063V.32861329C.40039063 .3725586 .39086915 .40454103 .37182618 .42456056 .3527832 .44458009 .32584635 .45458985 .29101563 .45458985 .26497398 .45458985 .24047852 .4478353 .2175293 .43432618 .19458008 .42081706 .17822266 .4025065 .16845703 .37939454 .1586914 .35628257 .1538086 .3243815 .1538086 .2836914V0H.06591797Z"/>
<path id="font_1_9" d="M.064941409 0V.5185547H.14404297V.4404297C.16422527 .4770101 .18286133 .50112918 .19995117 .51278689 .21704102 .5244446 .23583985 .53027346 .25634767 .53027346 .28597007 .53027346 .31608073 .520874 .3466797 .5020752L.31640626 .42089845C.29492188 .43359376 .2734375 .4399414 .25195313 .4399414 .23274739 .4399414 .2154948 .43415324 .20019531 .4225769 .18489583 .41101075 .17399089 .3949636 .16748047 .37443543 .15771485 .3431549 .15283203 .3089396 .15283203 .27178956V0H.064941409Z"/>
<path id="font_2_2" d="M.27294923 .25878907C.27294923 .21582031 .26871745 .17358399 .2602539 .13208008 .25179038 .09057617 .23990886 .050130208 .22460938 .0107421879 .20930989-.028645834 .19099935-.06681315 .16967774-.103759769 .14835613-.14070638 .12483724-.17610677 .099121097-.20996094H.036132814C.05891927-.17285156 .079427089-.13590496 .09765625-.099121097 .115885417-.06233724 .13118489-.024902344 .14355469 .013183594 .15592449 .05126953 .16544597 .09049479 .17211914 .13085938 .17879232 .17122396 .1821289 .21354167 .1821289 .2578125 .1821289 .29947917 .17862956 .3408203 .17163086 .38183595 .16463216 .42285157 .15478516 .46313478 .14208985 .50268557 .12939453 .5422363 .11401367 .5808919 .095947269 .61865237 .07788086 .6564128 .057942708 .6928711 .036132814 .72802737H.099121097C.12516277 .6948242 .14892578 .6597493 .17041016 .62280276 .19189453 .58585616 .21020508 .54744467 .2253418 .50756838 .24047852 .46769206 .25219728 .4268392 .26049806 .38500978 .26879884 .34318034 .27294923 .30110679 .27294923 .25878907Z"/>
<path id="font_1_10" d="M.09082031 0V.10058594H.19091797V0H.09082031Z"/>
<path id="font_3_1" d="M.039993287 0 .18899536 .71499636H.2849884L.1519928 .08099365H.5239868L.5069885 0H.039993287Z"/>
<path id="font_4_1" d="M.59716799 .5180664 .4868164 0H.40820313L.4243164 .076171878H.42236329C.41194663 .065104167 .4009603 .054280599 .3894043 .043701173 .3778483 .033121747 .3655599 .02368164 .35253907 .015380859 .33951823 .007080078 .32576499 .00040690104 .3112793-.004638672 .2967936-.009684245 .28157554-.012207031 .265625-.012207031 .25520835-.012207031 .24487305-.010823567 .23461914-.008056641 .22436524-.0052897136 .21476238-.0013020834 .20581055 .00390625 .19685872 .009114583 .18880208 .015625 .18164063 .0234375 .17447917 .03125 .16878255 .040039064 .16455078 .049804689L.111816409-.19921875H.023925782L.17626953 .5180664H.26416017L.19824219 .20898438C.19596355 .1985677 .1940918 .18798828 .19262696 .1772461 .19116211 .1665039 .19042969 .15576172 .19042969 .14501953 .19042969 .116373699 .19750977 .095703128 .21166992 .08300781 .22583008 .0703125 .2467448 .063964847 .27441407 .063964847 .29785157 .063964847 .3190918 .06827799 .33813478 .0769043 .35717774 .0855306 .37394206 .097086589 .38842774 .111572269 .40291343 .12605794 .41503907 .14290364 .4248047 .16210938 .4345703 .18131511 .44173179 .20166016 .44628907 .22314453L.50927737 .5180664H.59716799Z"/>
<path id="font_1_11" d="M.42089845 .16699219 .51171877 .15576172C.49739585 .10270182 .47086589 .061523439 .4321289 .032226564 .39339195 .0029296876 .34391276-.01171875 .2836914-.01171875 .20784505-.01171875 .14770508 .01163737 .103271488 .05834961 .05883789 .10506185 .036621095 .17057292 .036621095 .2548828 .036621095 .3421224 .05908203 .40983073 .104003909 .4580078 .14892578 .5061849 .20719402 .53027346 .2788086 .53027346 .34814454 .53027346 .40478517 .5067088 .44873048 .45957948 .49267579 .41246034 .51464846 .34616599 .51464846 .2606964 .51464846 .25549827 .51448568 .247701 .51416018 .23730469H.1274414C.13069661 .1805013 .14680989 .13700359 .17578125 .10681152 .20475261 .07661947 .24088542 .061523439 .2841797 .061523439 .31640626 .061523439 .34391276 .0699056 .36669923 .08666992 .3894857 .10344442 .4075521 .1302185 .42089845 .16699219M.13232422 .31054688H.421875C.41796876 .3534546 .40690104 .38563539 .38867188 .40708924 .3606771 .4403839 .3243815 .45703126 .27978517 .45703126 .23942058 .45703126 .20548503 .44374085 .17797852 .41716004 .150472 .3905894 .1352539 .35505168 .13232422 .31054688Z"/>
<path id="font_1_12" d="M.08691406 0V.4501953H.009277344V.5185547H.08691406V.5736084C.08691406 .6083577 .09000651 .6341756 .096191409 .651062 .104654949 .6737874 .11954752 .69221499 .14086914 .7063446 .16219075 .72047427 .1920573 .72753909 .23046875 .72753909 .25520835 .72753909 .2825521 .7246094 .3125 .71875L.2993164 .64208987C.28108726 .64534506 .26383464 .64697268 .2475586 .64697268 .22086589 .64697268 .20198567 .6412964 .19091797 .62994387 .17985027 .6185913 .1743164 .5973511 .1743164 .56622317V.5185547H.27539063V.4501953H.1743164V0H.08691406Z"/>
<path id="font_2_3" d="M.5288086 .21923828H.05517578V.30126954H.5288086V.21923828Z"/>
<path id="font_1_13" d="M.41210938 .28222657V.36523438L.71533206 .36572267V.10058594C.66878256 .063313808 .62076827 .03527832 .57128909 .016479493 .5218099-.002319336 .47102867-.01171875 .4189453-.01171875 .3486328-.01171875 .28474937 .0033365887 .22729492 .033447267 .1698405 .063557948 .12646485 .10709635 .09716797 .1640625 .067871097 .22102864 .053222658 .28466798 .053222658 .35498048 .053222658 .42464195 .06778971 .4896647 .09692383 .5500488 .12605794 .6104329 .16796875 .65527346 .22265625 .6845703 .27734376 .7138672 .34033204 .7285156 .4116211 .7285156 .4633789 .7285156 .51017257 .7201538 .55200198 .7034302 .59383139 .68670657 .6266276 .6634013 .6503906 .6335144 .6741536 .6036377 .69222006 .56466677 .70458987 .51660159L.6191406 .49316407C.60839846 .5296224 .59505209 .55826827 .57910159 .57910159 .56315109 .5999349 .54036459 .61661788 .5107422 .6291504 .48111979 .6416829 .4482422 .6479492 .41210938 .6479492 .3688151 .6479492 .33138023 .64135238 .2998047 .62815859 .26822917 .6149648 .24275716 .59761556 .22338867 .57611086 .20402019 .55460616 .18896485 .53098556 .17822266 .505249 .15999349 .4609375 .1508789 .41288249 .1508789 .36108399 .1508789 .29723106 .16186524 .24379985 .18383789 .2007904 .20581055 .15778096 .23779297 .12584941 .27978517 .10499573 .32177735 .08415222 .3663737 .07373047 .41357423 .07373047 .45458985 .07373047 .4946289 .08167521 .5336914 .0975647 .5727539 .113454189 .6023763 .13041179 .6225586 .1484375V.28222657H.41210938Z"/>
<path id="font_1_14" d="M.07714844 0V.7158203H.34716798C.394694 .7158203 .4309896 .71354678 .4560547 .70899966 .49121095 .70314028 .5206706 .69200137 .5444336 .6755829 .5681966 .6591644 .587321 .63615927 .60180667 .6065674 .6162923 .57698568 .62353518 .5444743 .62353518 .5090332 .62353518 .44822184 .6041667 .39676414 .5654297 .35466004 .5266927 .31255595 .45670573 .2915039 .35546876 .2915039H.171875V0H.07714844M.171875 .37597657H.3569336C.4181315 .37597657 .46158854 .38734437 .4873047 .41007997 .5130208 .4328257 .5258789 .4648336 .5258789 .5061035 .5258789 .5359904 .51831057 .5615743 .5031738 .5828552 .4880371 .60413619 .46809898 .6181895 .44335938 .62501528 .42740885 .6292369 .39794923 .63134768 .35498048 .63134768H.171875V.37597657Z"/>
<path id="font_1_15" d="M.40429688 .06402588C.37174479 .03633626 .34041343 .016789755 .31030274 .0053863527 .28019206-.0060170495 .24788411-.01171875 .2133789-.01171875 .15641277-.01171875 .11263021 .0022074383 .08203125 .030059815 .051432294 .05791219 .036132814 .09350077 .036132814 .13682556 .036132814 .16222637 .04191081 .18542989 .053466798 .20643616 .06502279 .22745259 .08015951 .24431356 .09887695 .25701905 .1175944 .26972453 .13867188 .2793325 .16210938 .2858429 .17936199 .29041038 .20540364 .29480998 .24023438 .29904176 .3111979 .30744425 .363444 .3174642 .39697267 .32910157 .3972982 .34109498 .39746095 .3487142 .39746095 .35195924 .39746095 .38763429 .38916017 .4127655 .3725586 .4273529 .35009767 .44713847 .31673179 .45703126 .27246095 .45703126 .2311198 .45703126 .20060222 .44978843 .1809082 .43530274 .16121419 .42081706 .14664714 .39518229 .13720703 .35839845L.05126953 .3701172C.05908203 .40701295 .0719401 .43680827 .08984375 .45950318 .1077474 .4821981 .1336263 .4996643 .16748047 .51190188 .20133464 .5241496 .24055989 .53027346 .28515626 .53027346 .3294271 .53027346 .36539714 .5250651 .3930664 .51464846 .4207357 .50423178 .44108073 .49112956 .45410157 .4753418 .4671224 .45955406 .47623698 .43961589 .4814453 .41552735 .484375 .40055339 .48583985 .37353517 .48583985 .33447267V.21728516C.48583985 .13557942 .48771159 .08390299 .49145509 .06225586 .49519859 .040608724 .5026042 .019856772 .5136719 0H.421875C.4127604 .018249512 .40690104 .039591474 .40429688 .06402588M.39697267 .2607422C.36507163 .24760945 .31722007 .2364502 .25341798 .2272644 .21728516 .22203572 .19173177 .21615093 .17675781 .20960999 .16178386 .20307923 .15022786 .19351705 .14208985 .18092346 .13395183 .16834004 .12988281 .15436809 .12988281 .13900757 .12988281 .115478519 .13875325 .09586588 .15649414 .08016968 .17423503 .06448364 .20019531 .056640626 .234375 .056640626 .26822917 .056640626 .29833985 .064081829 .32470704 .07896423 .35107423 .09384664 .37044273 .11420695 .3828125 .14004517 .3922526 .16000366 .39697267 .18944295 .39697267 .22836304V.2607422Z"/>
<path id="font_1_16" d="M.044921876 .23046875 .13427735 .23828125C.13850911 .20247396 .14835613 .1730957 .16381836 .15014649 .1792806 .12719727 .20328777 .10864258 .23583985 .09448242 .26839195 .080322269 .30501304 .07324219 .34570313 .07324219 .38183595 .07324219 .41373698 .07861328 .44140626 .08935547 .46907554 .100097659 .4896647 .11482748 .5031738 .13354492 .5166829 .15226238 .5234375 .1726888 .5234375 .19482422 .5234375 .21728516 .51692709 .23689778 .50390627 .2536621 .4908854 .27042643 .46940104 .28450523 .43945313 .29589845 .4202474 .3033854 .37776695 .3150228 .31201173 .33081056 .24625652 .3465983 .20019531 .36149089 .17382813 .37548829 .13964844 .39339195 .11417643 .41560874 .09741211 .44213868 .08064779 .4686686 .072265628 .4983724 .072265628 .53125 .072265628 .5673828 .08251953 .6011556 .103027347 .63256838 .123535159 .66398116 .15348308 .6878255 .1928711 .70410159 .23225911 .7203776 .27604167 .7285156 .32421876 .7285156 .37727867 .7285156 .42407228 .7199707 .4645996 .70288088 .50512698 .685791 .5362956 .66064456 .55810549 .6274414 .57991537 .5942383 .5916341 .5566406 .5932617 .51464846L.5024414 .5078125C.4975586 .55322268 .48103843 .5875244 .45288087 .6107178 .4247233 .63391116 .38313804 .6455078 .328125 .6455078 .27083335 .6455078 .22908528 .6349996 .20288086 .61398318 .17667644 .59297689 .16357422 .5676524 .16357422 .53800967 .16357422 .51227316 .17285156 .49109904 .19140625 .4744873 .20963542 .4578654 .25724284 .44084168 .33422853 .42341615 .4112142 .4059906 .46402995 .39076234 .49267579 .37773133 .53434249 .3585154 .5651042 .33416239 .58496096 .30467225 .6048177 .27519227 .6147461 .24123128 .6147461 .2027893 .6147461 .16468303 .6038411 .12876892 .58203127 .095047 .5602214 .061335248 .52888998 .035110475 .4880371 .01637268 .44718424-.0023549398 .40120445-.01171875 .35009767-.01171875 .285319-.01171875 .2310384-.0022786458 .18725586 .016601563 .14347331 .03548177 .10913086 .06388346 .084228519 .10180664 .059326173 .13972982 .046223958 .18261719 .044921876 .23046875Z"/>
<path id="font_1_17" d="M.40429688 .19042969 .49072267 .17919922C.48128257 .11947632 .45711265 .07272339 .4182129 .03894043 .37931315 .005167643 .33154298-.01171875 .27490235-.01171875 .2039388-.01171875 .14689128 .011474609 .103759769 .057861329 .060628255 .10424805 .0390625 .17073567 .0390625 .25732423 .0390625 .3133138 .048339845 .3623047 .06689453 .40429688 .08544922 .44628907 .11368815 .4777832 .15161133 .4987793 .1895345 .5197754 .23079427 .53027346 .27539063 .53027346 .33170573 .53027346 .37776695 .51598617 .41357423 .4874115 .4493815 .45884706 .47233073 .4182841 .48242188 .36572267L.39697267 .35253907C.38883464 .38720704 .37443034 .4132894 .35375978 .43078614 .3330892 .44828288 .30810548 .45703126 .2788086 .45703126 .23453777 .45703126 .1985677 .4412384 .17089844 .4096527 .14322917 .37807719 .12939453 .32811485 .12939453 .25976563 .12939453 .19043987 .14274089 .1400655 .1694336 .10864258 .1961263 .07722982 .23095703 .061523439 .27392579 .061523439 .308431 .061523439 .3372396 .07206217 .36035157 .09313965 .38346354 .114217128 .39811198 .14664714 .40429688 .19042969Z"/>
<path id="font_1_18" d="M.06591797-.19921875V.5185547H.1459961V.45166017C.1648763 .4778646 .18619792 .4975179 .20996094 .5106201 .23372396 .52372238 .26253257 .53027346 .29638673 .53027346 .34065757 .53027346 .37972007 .5188802 .41357423 .49609376 .44742839 .47330729 .47298179 .4411621 .49023438 .3996582 .507487 .3581543 .5161133 .31266276 .5161133 .2631836 .5161133 .2101237 .5065918 .16235352 .48754884 .11987305 .46850587 .07739258 .44083659 .044840497 .40454103 .022216797 .36824546-.00040690104 .33007813-.01171875 .29003907-.01171875 .2607422-.01171875 .23445638-.005452474 .21118164 .007080078 .1879069 .019622803 .16878255 .035461427 .1538086 .054595949V-.19921875H.06591797M.14550781 .25708009C.14550781 .19042969 .15901692 .14117432 .18603516 .109313968 .21305339 .07745361 .24576824 .061523439 .2841797 .061523439 .3232422 .061523439 .35668946 .07802328 .38452149 .11102295 .41235353 .14402263 .42626954 .19514974 .42626954 .2644043 .42626954 .33040367 .41267906 .37982179 .38549806 .4126587 .35831706 .4454956 .32584635 .46191407 .28808595 .46191407 .25065104 .46191407 .2175293 .44443766 .1887207 .40948487 .15991211 .37453208 .14550781 .32373048 .14550781 .25708009Z"/>
<path id="font_1_19" d="M.40576173 0V.076171878C.36539714 .017578125 .31054688-.01171875 .24121094-.01171875 .21061199-.01171875 .18204753-.005859375 .15551758 .005859375 .12898763 .017578125 .10929362 .03230794 .09643555 .050048829 .08357748 .06778971 .07454427 .08951823 .06933594 .115234378 .06575521 .13248699 .063964847 .15983074 .063964847 .19726563V.5185547H.15185547V.23095703C.15185547 .1850586 .15364583 .15413411 .15722656 .1381836 .16276042 .11507162 .17447917 .09692383 .19238281 .083740238 .21028646 .07055664 .23242188 .063964847 .25878907 .063964847 .28515626 .063964847 .30989585 .0707194 .3330078 .084228519 .35611979 .09773763 .3724772 .116129558 .38208009 .1394043 .39168296 .16267903 .39648438 .19645183 .39648438 .24072266V.5185547H.484375V0H.40576173Z"/>
<path id="font_1_20" d="M.20996094 0 .0126953129 .5185547H.10546875L.21679688 .20800781C.22884114 .17447917 .23990886 .13964844 .25 .103515628 .2578125 .13085938 .26871745 .16373699 .28271485 .20214844L.39794923 .5185547H.48828126L.2919922 0H.20996094Z"/>
<path id="font_1_21" d="M.030761719 .15527344 .11767578 .16894531C.122558597 .13426717 .1361491 .107691448 .15844727 .08921814 .18074544 .070755008 .21191406 .061523439 .25195313 .061523439 .29231773 .061523439 .32226563 .06967672 .34179688 .08598328 .36132813 .10230001 .37109376 .12143453 .37109376 .14338684 .37109376 .16309102 .36246745 .17859395 .34521485 .18989563 .33317057 .1976471 .30322267 .20749919 .2553711 .2194519 .19091797 .23573812 .14624024 .24982707 .12133789 .26171876 .09643555 .27361045 .077555339 .29006449 .064697269 .31108094 .05183919 .33209739 .045410158 .35531108 .045410158 .38072206 .045410158 .40385438 .05069987 .4252777 .061279298 .44499208 .07185873 .46470643 .08626302 .4810791 .10449219 .4941101 .11816406 .5042114 .13680013 .5127614 .16040039 .51976016 .18400066 .526769 .20930989 .53027346 .23632813 .53027346 .27701823 .53027346 .31274415 .52437338 .34350587 .51257327 .37426759 .50078329 .39697267 .48480735 .4116211 .4646454 .42626954 .44449363 .4363607 .4175415 .44189454 .38378907L.35595704 .3720703C.35205079 .39876304 .34073893 .41959635 .32202149 .4345703 .30330406 .44954429 .27685548 .45703126 .24267578 .45703126 .2023112 .45703126 .17350261 .45038859 .15625 .43710328 .13899739 .42382813 .1303711 .40827943 .1303711 .39045716 .1303711 .37912498 .13395183 .3689219 .14111328 .35984803 .14827474 .35045878 .1595052 .34268699 .17480469 .3365326 .18359375 .33328758 .20947266 .32583619 .2524414 .31417848 .31461589 .29758708 .35799156 .28400675 .38256837 .2734375 .40714518 .26286827 .42643229 .24749756 .4404297 .22732544 .4544271 .2071635 .46142579 .18212383 .46142579 .15220642 .46142579 .12292989 .45288087 .09536234 .43579103 .069503787 .41870118 .043655397 .39404298 .02365621 .3618164 .009506226 .32958985-.0046437585 .2931315-.01171875 .2524414-.01171875 .1850586-.01171875 .13370769 .002319336 .09838867 .030395508 .063069667 .05847168 .040527345 .100097659 .030761719 .15527344Z"/>
<path id="font_1_22" d="M.08886719 0V.10058594H.18896485V.000289917C.18896485-.036575319 .18245442-.066340129 .1694336-.08900452 .15641277-.11167908 .13574219-.12921143 .107421878-.14160156L.08300781-.103515628C.1015625-.0954183 .115234378-.08351135 .12402344-.0677948 .1328125-.052078248 .13769531-.02947998 .13867188 0H.08886719Z"/>
<path id="font_1_23" d="M.06640625 .6142578V.7158203H.15429688V.6142578H.06640625M.06640625 0V.5185547H.15429688V0H.06640625Z"/>
<path id="font_1_24" d="M.049804689-.04296875 .1352539-.055664064C.13883464-.08203125 .14876302-.10123698 .16503906-.11328125 .18684896-.1295573 .21663411-.13769531 .25439454-.13769531 .29508464-.13769531 .3264974-.12953694 .3486328-.113220218 .37076823-.09691366 .3857422-.07407633 .3935547-.044708253 .39811198-.026774088 .40022788 .010904948 .39990235 .06832886 .36149089 .022776286 .3136393 0 .25634767 0 .1850586 0 .12988281 .025716147 .09082031 .07714844 .051757814 .12858074 .032226564 .19026692 .032226564 .26220704 .032226564 .3116862 .041178388 .35734049 .05908203 .39916993 .07698568 .44099937 .10294596 .47330729 .13696289 .49609376 .17097982 .5188802 .2109375 .53027346 .25683595 .53027346 .31803385 .53027346 .3684896 .5053711 .40820313 .4555664V.5185547H.4892578V.070007327C.4892578-.010772705 .48103843-.06801859 .4645996-.10173035 .4481608-.1354421 .42211915-.16206868 .3864746-.1816101 .35083009-.2011617 .30696617-.2109375 .2548828-.2109375 .19303386-.2109375 .1430664-.19698079 .10498047-.16906739 .06689453-.14115398 .048502607-.099121097 .049804689-.04296875M.122558597 .26853944C.122558597 .20067851 .1360677 .15116374 .16308594 .11999512 .19010417 .0888265 .22395833 .07324219 .26464845 .07324219 .30501304 .07324219 .3388672 .08874512 .36621095 .11975098 .3935547 .15075684 .40722657 .19938152 .40722657 .265625 .40722657 .3289388 .3931478 .3766683 .36499024 .40881349 .33683268 .44095866 .30289714 .45703126 .2631836 .45703126 .2241211 .45703126 .19091797 .4412028 .16357422 .4095459 .13623047 .377889 .122558597 .33088685 .122558597 .26853944Z"/>
<path id="font_1_25" d="M.40234376 0V.06542969C.36946617 .0139973959 .3211263-.01171875 .25732423-.01171875 .21598308-.01171875 .17797852-.00032552085 .14331055 .022460938 .10864258 .045247396 .08178711 .077067058 .06274414 .11791992 .043701173 .15877278 .034179689 .20572917 .034179689 .25878907 .034179689 .31054688 .04280599 .35750328 .060058595 .3996582 .077311199 .44181315 .1031901 .4741211 .13769531 .49658204 .17220052 .51904299 .21077474 .53027346 .25341798 .53027346 .28466798 .53027346 .3125 .52368167 .33691407 .51049807 .36132813 .49731446 .3811849 .48014323 .39648438 .45898438V.7158203H.48388673V0H.40234376M.12451172 .2590332C.12451172 .1928711 .13850911 .14341228 .1665039 .11065674 .1944987 .07790121 .22753906 .061523439 .265625 .061523439 .30403648 .061523439 .33666993 .077168788 .3635254 .10845947 .39038087 .13976033 .4038086 .18752034 .4038086 .2517395 .4038086 .32243858 .39013673 .3743286 .36279298 .40740968 .33544923 .44049073 .3017578 .45703126 .26171876 .45703126 .22265625 .45703126 .19002278 .4411367 .16381836 .40934754 .13761394 .37756858 .12451172 .32746379 .12451172 .2590332Z"/>
<path id="font_1_26" d="M.063964847 0V.7158203H.15185547V0H.063964847Z"/>
<path id="font_1_27" d="M.06591797 0V.5185547H.14501953V.4453125C.18310547 .5019531 .23811849 .53027346 .3100586 .53027346 .3413086 .53027346 .3700358 .5246582 .39624024 .51342776 .42244468 .50219729 .44205729 .48746745 .45507813 .46923829 .46809898 .45100913 .47721354 .42936198 .48242188 .40429688 .4856771 .38802085 .4873047 .35953776 .4873047 .31884767V0H.39941407V.31576539C.39941407 .35161338 .3959961 .37841798 .38916017 .3961792 .38232423 .41394044 .37019859 .42811585 .3527832 .43870545 .33536784 .44929505 .3149414 .45458985 .2915039 .45458985 .254069 .45458985 .22176107 .44269309 .19458008 .41889955 .1673991 .39511619 .1538086 .34998576 .1538086 .2835083V0H.06591797Z"/>
<path id="font_1_28" d="M.033203126 .25927735C.033203126 .355306 .059895833 .42643229 .11328125 .47265626 .15787761 .5110677 .21223958 .53027346 .2763672 .53027346 .34765626 .53027346 .40592448 .5069173 .45117188 .46020509 .49641929 .41349284 .51904299 .34895835 .51904299 .26660157 .51904299 .1998698 .5090332 .14737956 .48901368 .10913086 .46899415 .070882167 .43986003 .041178388 .40161134 .020019532 .36336265-.0011393229 .3216146-.01171875 .2763672-.01171875 .20377605-.01171875 .1451009 .011555989 .1003418 .05810547 .055582685 .104654949 .033203126 .17171224 .033203126 .25927735M.123535159 .25952149C.123535159 .19335938 .13802083 .14381917 .16699219 .11090088 .19596355 .07798258 .23242188 .061523439 .2763672 .061523439 .31998698 .061523439 .35628257 .078063968 .3852539 .11114502 .41422526 .14422608 .42871095 .19465637 .42871095 .2624359 .42871095 .32632957 .4141439 .3747355 .38500978 .4076538 .35587565 .4405721 .31966148 .45703126 .2763672 .45703126 .23242188 .45703126 .19596355 .44065348 .16699219 .40789796 .13802083 .37514244 .123535159 .3256836 .123535159 .25952149Z"/>
<path id="font_1_29" d="M.06591797 0V.5185547H.14453125V.44628907C.1608073 .47153727 .18245442 .4918467 .20947266 .5072174 .23649089 .5225881 .2672526 .53027346 .3017578 .53027346 .34016929 .53027346 .37166343 .52233889 .39624024 .5064697 .42081706 .49061076 .43815104 .46843467 .4482422 .4399414 .4892578 .5001628 .54264327 .53027346 .60839846 .53027346 .65983077 .53027346 .69938156 .5160319 .7270508 .48754884 .75472006 .45906578 .7685547 .4152018 .7685547 .35595704V0H.68115237V.3270111C.68115237 .36220805 .678304 .38754273 .6726074 .40301515 .6669108 .4184977 .6565755 .43096415 .64160159 .44041444 .6266276 .44986473 .6090495 .45458985 .5888672 .45458985 .5524089 .45458985 .52213546 .44244895 .49804688 .4181671 .47395835 .39389549 .46191407 .3550364 .46191407 .30158998V0H.37402345V.33728028C.37402345 .37638346 .36686198 .40571086 .35253907 .42526246 .33821617 .44481407 .31477867 .45458985 .28222657 .45458985 .25748698 .45458985 .23461914 .44806925 .21362305 .43502809 .19262696 .42199708 .17740886 .40293376 .16796875 .37783814 .15852864 .3527527 .1538086 .31658427 .1538086 .2693329V0H.06591797Z"/>
</defs>
<g>
<path transform="matrix(1,0,0,-1,0,239)" stroke-width=".5" stroke-linecap="butt" stroke-miterlimit="3.25" stroke-linejoin="miter" fill="none" stroke="#808080" stroke-opacity=".4" d="M40.406 19.082V196.949"/>
<path transform="matrix(1,0,0,-1,0,239)" stroke-width=".5" stroke-linecap="butt" stroke-miterlimit="3.25" stroke-linejoin="miter" fill="none" stroke="#808080" stroke-opacity=".4" d="M95.664 19.082V196.949"/>
<path transform="matrix(1,0,0,-1,0,239)" stroke-width=".5" stroke-linecap="butt" stroke-miterlimit="3.25" stroke-linejoin="miter" fill="none" stroke="#808080" stroke-opacity=".4" d="M150.922 19.082V196.949"/>
<path transform="matrix(1,0,0,-1,0,239)" stroke-width=".5" stroke-linecap="butt" stroke-miterlimit="3.25" stroke-linejoin="miter" fill="none" stroke="#808080" stroke-opacity=".4" d="M206.18 19.082V196.949"/>
<path transform="matrix(1,0,0,-1,0,239)" stroke-width=".5" stroke-linecap="butt" stroke-miterlimit="3.25" stroke-linejoin="miter" fill="none" stroke="#808080" stroke-opacity=".4" d="M261.434 19.082V196.949"/>
<path transform="matrix(1,0,0,-1,0,239)" stroke-width=".5" stroke-linecap="butt" stroke-miterlimit="3.25" stroke-linejoin="miter" fill="none" stroke="#808080" stroke-opacity=".4" d="M316.691 19.082V196.949"/>
<path transform="matrix(1,0,0,-1,0,239)" stroke-width=".5" stroke-linecap="butt" stroke-miterlimit="3.25" stroke-linejoin="miter" fill="none" stroke="#808080" stroke-opacity=".4" d="M34.648 41.316H322.449"/>
<path transform="matrix(1,0,0,-1,0,239)" stroke-width=".5" stroke-linecap="butt" stroke-miterlimit="3.25" stroke-linejoin="miter" fill="none" stroke="#808080" stroke-opacity=".4" d="M34.648 85.781H322.449"/>
<path transform="matrix(1,0,0,-1,0,239)" stroke-width=".5" stroke-linecap="butt" stroke-miterlimit="3.25" stroke-linejoin="miter" fill="none" stroke="#808080" stroke-opacity=".4" d="M34.648 130.25H322.449"/>
<path transform="matrix(1,0,0,-1,0,239)" stroke-width=".5" stroke-linecap="butt" stroke-miterlimit="3.25" stroke-linejoin="miter" fill="none" stroke="#808080" stroke-opacity=".4" d="M34.648 174.715H322.449"/>
<path transform="matrix(1,0,0,-1,0,239)" stroke-width="1.6" stroke-linecap="square" stroke-miterlimit="3.25" stroke-linejoin="miter" fill="none" stroke="#ff0000" d="M40.406 37.105V37.586L40.41 37.875V38.262L40.414 38.789 40.422 39.5 40.434 40.453 40.457 41.723 40.492 43.402 40.563 45.605 40.684 48.445V48.512L40.719 49.191 40.758 49.891 40.801 50.617 40.848 51.379 40.902 52.172 40.961 53.004 41.027 53.867 41.105 54.766 41.188 55.703 41.285 56.672 41.391 57.684 41.512 58.727 41.645 59.809 41.797 60.922 41.965 62.074 42.152 63.258 42.363 64.477 42.602 65.727 42.871 67.004 43.168 68.313 43.172 68.328 43.508 69.664 43.887 71.023 44.313 72.406 44.789 73.809 45.324 75.227 45.922 76.652 46.594 78.09 47.352 79.531 48.199 80.977 49.148 82.414 50.215 83.852 51.41 85.273 52.75 86.684 54.258 88.078 55.945 89.449 57.844 90.801 59.969 92.121 62.355 93.414 65.031 94.672 68.035 95.898 68.039 95.902 71.41 97.086 75.191 98.238 79.438 99.348 84.199 100.418 89.543 101.445 95.535 102.434 102.262 103.379 109.809 104.285 118.277 105.148 127.781 105.973 138.441 106.754 150.402 107.496 163.824 108.203 178.883 108.875 195.777 109.508 214.734 110.109 236.004 110.676 259.871 111.215 286.648 111.719 316.691 112.199"/>
<path transform="matrix(1,0,0,-1,0,239)" stroke-width="1.6" stroke-linecap="square" stroke-dasharray="4,4" stroke-miterlimit="3.25" stroke-linejoin="miter" fill="none" stroke="#ff0000" d="M40.406 43.574V44.094L40.41 44.402V44.824L40.414 45.395 40.422 46.16 40.434 47.191 40.457 48.566 40.492 50.383 40.563 52.766 40.684 55.836V55.906L40.719 56.641 40.758 57.398 40.801 58.188 40.848 59.008 40.902 59.867 40.961 60.766 41.027 61.699 41.105 62.672 41.188 63.684 41.285 64.734 41.391 65.824 41.512 66.957 41.645 68.125 41.797 69.332 41.965 70.578 42.152 71.859 42.363 73.176 42.602 74.527 42.871 75.914 43.168 77.328 43.172 77.344 43.508 78.789 43.887 80.262 44.313 81.758 44.789 83.273 45.324 84.805 45.922 86.352 46.594 87.906 47.352 89.465 48.199 91.027 49.148 92.586 50.215 94.141 51.41 95.68 52.75 97.207 54.258 98.715 55.945 100.199 57.844 101.66 59.969 103.09 62.355 104.488 65.031 105.852 68.035 107.176 68.039 107.184 71.41 108.465 75.191 109.711 79.438 110.914 84.199 112.07 89.543 113.184 95.535 114.254 102.262 115.277 109.809 116.258 118.277 117.191 127.781 118.082 138.441 118.93 150.402 119.734 163.824 120.5 178.883 121.227 195.777 121.91 214.734 122.563 236.004 123.176 259.871 123.758 286.648 124.305 316.691 124.824"/>
<path transform="matrix(1,0,0,-1,0,239)" stroke-width="1.6" stroke-linecap="square" stroke-miterlimit="3.25" stroke-linejoin="miter" fill="none" stroke="#000000" d="M40.406 57.895V58.504L40.41 58.867V59.359L40.414 60.023 40.422 60.918 40.434 62.125 40.457 63.73 40.492 65.855 40.563 68.637 40.684 72.227V72.313L40.719 73.172 40.758 74.055 40.801 74.977 40.848 75.938 40.902 76.941 40.961 77.988 41.027 79.082 41.105 80.219 41.188 81.402 41.285 82.633 41.391 83.91 41.512 85.23 41.645 86.598 41.797 88.012 41.965 89.469 42.152 90.969 42.363 92.512 42.602 94.09 42.871 95.711 43.168 97.367 43.172 97.387 43.508 99.074 43.887 100.801 44.313 102.551 44.789 104.328 45.324 106.121 45.922 107.93 46.594 109.75 47.352 111.578 48.199 113.406 49.148 115.23 50.215 117.047 51.41 118.855 52.75 120.641 54.258 122.406 55.945 124.148 57.844 125.855 59.969 127.531 62.355 129.172 65.031 130.77 68.035 132.32 68.039 132.328 71.41 133.832 75.191 135.289 79.438 136.695 84.199 138.055 89.543 139.359 95.535 140.613 102.262 141.813 109.809 142.961 118.277 144.055 127.781 145.098 138.441 146.09 150.402 147.035 163.824 147.93 178.883 148.781 195.777 149.586 214.734 150.348 236.004 151.066 259.871 151.75 286.648 152.391 316.691 152.996"/>
<path transform="matrix(1,0,0,-1,0,239)" stroke-width="1.6" stroke-linecap="square" stroke-dasharray="4,4" stroke-miterlimit="3.25" stroke-linejoin="miter" fill="none" stroke="#000000" d="M40.406 60.008V60.629L40.41 61V61.504L40.414 62.18 40.422 63.098 40.434 64.328 40.457 65.969 40.492 68.137 40.563 70.98 40.684 74.648V74.734L40.719 75.613 40.758 76.516 40.801 77.457 40.848 78.438 40.902 79.465 40.961 80.535 41.027 81.652 41.105 82.816 41.188 84.023 41.285 85.281 41.391 86.582 41.512 87.934 41.645 89.332 41.797 90.773 41.965 92.262 42.152 93.797 42.363 95.371 42.602 96.984 42.871 98.641 43.168 100.332 43.172 100.352 43.508 102.078 43.887 103.84 44.313 105.629 44.789 107.445 45.324 109.277 45.922 111.125 46.594 112.984 47.352 114.852 48.199 116.723 49.148 118.586 50.215 120.445 51.41 122.289 52.75 124.113 54.258 125.918 55.945 127.699 57.844 129.445 59.969 131.156 62.355 132.832 65.031 134.461 68.035 136.051 68.039 136.059 71.41 137.594 75.191 139.082 79.438 140.523 84.199 141.91 89.543 143.242 95.535 144.523 102.262 145.75 109.809 146.922 118.277 148.039 127.781 149.105 138.441 150.121 150.402 151.086 163.824 152.004 178.883 152.871 195.777 153.695 214.734 154.473 236.004 155.207 259.871 155.902 286.648 156.563 316.691 157.18"/>
<path transform="matrix(1,0,0,-1,0,239)" stroke-width="1.6" stroke-linecap="square" stroke-miterlimit="3.25" stroke-linejoin="miter" fill="none" stroke="#0000ff" d="M40.406 70.055V70.738L40.41 71.145V71.699L40.414 72.445 40.422 73.453 40.434 74.809 40.457 76.613 40.492 79.004 40.563 82.133 40.684 86.176V86.27L40.719 87.234 40.758 88.227 40.801 89.266 40.848 90.348 40.902 91.477 40.961 92.656 41.027 93.887 41.105 95.168 41.188 96.5 41.285 97.883 41.391 99.32 41.512 100.809 41.645 102.348 41.797 103.938 41.965 105.578 42.152 107.266 42.363 109 42.602 110.781 42.871 112.605 43.168 114.469 43.172 114.492 43.508 116.395 43.887 118.336 44.313 120.309 44.789 122.309 45.324 124.328 45.922 126.367 46.594 128.418 47.352 130.477 48.199 132.535 49.148 134.59 50.215 136.641 51.41 138.672 52.75 140.688 54.258 142.676 55.945 144.637 57.844 146.566 59.969 148.453 62.355 150.301 65.031 152.098 68.035 153.852 68.039 153.859 71.41 155.551 75.191 157.195 79.438 158.781 84.199 160.313 89.543 161.785 95.535 163.195 102.262 164.547 109.809 165.844 118.277 167.078 127.781 168.254 138.441 169.371 150.402 170.438 163.824 171.449 178.883 172.406 195.777 173.313 214.734 174.172 236.004 174.984 259.871 175.75 286.648 176.477 316.691 177.16"/>
<path transform="matrix(1,0,0,-1,0,239)" stroke-width="1.6" stroke-linecap="square" stroke-dasharray="4,4" stroke-miterlimit="3.25" stroke-linejoin="miter" fill="none" stroke="#0000ff" d="M40.406 70.668V71.355L40.41 71.766V72.32L40.414 73.074 40.422 74.086 40.434 75.449 40.457 77.266 40.492 79.668 40.563 82.816 40.684 86.879V86.973L40.719 87.945 40.758 88.945 40.801 89.984 40.848 91.074 40.902 92.211 40.961 93.398 41.027 94.633 41.105 95.922 41.188 97.262 41.285 98.652 41.391 100.098 41.512 101.594 41.645 103.145 41.797 104.742 41.965 106.391 42.152 108.09 42.363 109.836 42.602 111.625 42.871 113.461 43.168 115.332 43.172 115.355 43.508 117.27 43.887 119.223 44.313 121.207 44.789 123.219 45.324 125.25 45.922 127.301 46.594 129.363 47.352 131.43 48.199 133.504 49.148 135.57 50.215 137.629 51.41 139.676 52.75 141.703 54.258 143.703 55.945 145.676 57.844 147.613 59.969 149.512 62.355 151.371 65.031 153.18 68.035 154.941 68.039 154.949 71.41 156.652 75.191 158.305 79.438 159.902 84.199 161.441 89.543 162.922 95.535 164.34 102.262 165.699 109.809 167 118.277 168.242 127.781 169.426 138.441 170.555 150.402 171.625 163.824 172.641 178.883 173.602 195.777 174.516 214.734 175.379 236.004 176.195 259.871 176.969 286.648 177.695 316.691 178.383"/>
<path transform="matrix(1,0,0,-1,0,239)" stroke-width=".5" stroke-linecap="butt" stroke-miterlimit="3.25" stroke-linejoin="miter" fill="none" stroke="#000000" d="M40.406 19.969V23.387"/>
<use data-text="0" xlink:href="#font_1_1" transform="matrix(14,0,0,-14,36.513185,235.02957)"/>
<path transform="matrix(1,0,0,-1,0,239)" stroke-width=".5" stroke-linecap="butt" stroke-miterlimit="3.25" stroke-linejoin="miter" fill="none" stroke="#000000" d="M54.219 19.969V22.02"/>
<path transform="matrix(1,0,0,-1,0,239)" stroke-width=".5" stroke-linecap="butt" stroke-miterlimit="3.25" stroke-linejoin="miter" fill="none" stroke="#000000" d="M68.035 19.969V22.02"/>
<path transform="matrix(1,0,0,-1,0,239)" stroke-width=".5" stroke-linecap="butt" stroke-miterlimit="3.25" stroke-linejoin="miter" fill="none" stroke="#000000" d="M81.848 19.969V22.02"/>
<path transform="matrix(1,0,0,-1,0,239)" stroke-width=".5" stroke-linecap="butt" stroke-miterlimit="3.25" stroke-linejoin="miter" fill="none" stroke="#000000" d="M95.664 19.969V23.387"/>
<use data-text="2" xlink:href="#font_1_2" transform="matrix(14,0,0,-14,87.87733,235.02957)"/>
<use data-text="0" xlink:href="#font_1_1" transform="matrix(14,0,0,-14,95.66133,235.02957)"/>
<path transform="matrix(1,0,0,-1,0,239)" stroke-width=".5" stroke-linecap="butt" stroke-miterlimit="3.25" stroke-linejoin="miter" fill="none" stroke="#000000" d="M109.477 19.969V22.02"/>
<path transform="matrix(1,0,0,-1,0,239)" stroke-width=".5" stroke-linecap="butt" stroke-miterlimit="3.25" stroke-linejoin="miter" fill="none" stroke="#000000" d="M123.293 19.969V22.02"/>
<path transform="matrix(1,0,0,-1,0,239)" stroke-width=".5" stroke-linecap="butt" stroke-miterlimit="3.25" stroke-linejoin="miter" fill="none" stroke="#000000" d="M137.105 19.969V22.02"/>
<path transform="matrix(1,0,0,-1,0,239)" stroke-width=".5" stroke-linecap="butt" stroke-miterlimit="3.25" stroke-linejoin="miter" fill="none" stroke="#000000" d="M150.922 19.969V23.387"/>
<use data-text="4" xlink:href="#font_1_3" transform="matrix(14,0,0,-14,143.13454,235.02957)"/>
<use data-text="0" xlink:href="#font_1_1" transform="matrix(14,0,0,-14,150.91854,235.02957)"/>
<path transform="matrix(1,0,0,-1,0,239)" stroke-width=".5" stroke-linecap="butt" stroke-miterlimit="3.25" stroke-linejoin="miter" fill="none" stroke="#000000" d="M164.734 19.969V22.02"/>
<path transform="matrix(1,0,0,-1,0,239)" stroke-width=".5" stroke-linecap="butt" stroke-miterlimit="3.25" stroke-linejoin="miter" fill="none" stroke="#000000" d="M178.551 19.969V22.02"/>
<path transform="matrix(1,0,0,-1,0,239)" stroke-width=".5" stroke-linecap="butt" stroke-miterlimit="3.25" stroke-linejoin="miter" fill="none" stroke="#000000" d="M192.363 19.969V22.02"/>
<path transform="matrix(1,0,0,-1,0,239)" stroke-width=".5" stroke-linecap="butt" stroke-miterlimit="3.25" stroke-linejoin="miter" fill="none" stroke="#000000" d="M206.18 19.969V23.387"/>
<use data-text="6" xlink:href="#font_1_4" transform="matrix(14,0,0,-14,198.39174,235.02957)"/>
<use data-text="0" xlink:href="#font_1_1" transform="matrix(14,0,0,-14,206.17574,235.02957)"/>
<path transform="matrix(1,0,0,-1,0,239)" stroke-width=".5" stroke-linecap="butt" stroke-miterlimit="3.25" stroke-linejoin="miter" fill="none" stroke="#000000" d="M219.992 19.969V22.02"/>
<path transform="matrix(1,0,0,-1,0,239)" stroke-width=".5" stroke-linecap="butt" stroke-miterlimit="3.25" stroke-linejoin="miter" fill="none" stroke="#000000" d="M233.805 19.969V22.02"/>
<path transform="matrix(1,0,0,-1,0,239)" stroke-width=".5" stroke-linecap="butt" stroke-miterlimit="3.25" stroke-linejoin="miter" fill="none" stroke="#000000" d="M247.621 19.969V22.02"/>
<path transform="matrix(1,0,0,-1,0,239)" stroke-width=".5" stroke-linecap="butt" stroke-miterlimit="3.25" stroke-linejoin="miter" fill="none" stroke="#000000" d="M261.434 19.969V23.387"/>
<use data-text="8" xlink:href="#font_1_5" transform="matrix(14,0,0,-14,253.64894,235.02957)"/>
<use data-text="0" xlink:href="#font_1_1" transform="matrix(14,0,0,-14,261.43296,235.02957)"/>
<path transform="matrix(1,0,0,-1,0,239)" stroke-width=".5" stroke-linecap="butt" stroke-miterlimit="3.25" stroke-linejoin="miter" fill="none" stroke="#000000" d="M275.25 19.969V22.02"/>
<path transform="matrix(1,0,0,-1,0,239)" stroke-width=".5" stroke-linecap="butt" stroke-miterlimit="3.25" stroke-linejoin="miter" fill="none" stroke="#000000" d="M289.063 19.969V22.02"/>
<path transform="matrix(1,0,0,-1,0,239)" stroke-width=".5" stroke-linecap="butt" stroke-miterlimit="3.25" stroke-linejoin="miter" fill="none" stroke="#000000" d="M302.879 19.969V22.02"/>
<path transform="matrix(1,0,0,-1,0,239)" stroke-width=".5" stroke-linecap="butt" stroke-miterlimit="3.25" stroke-linejoin="miter" fill="none" stroke="#000000" d="M316.691 19.969V23.387"/>
<use data-text="1" xlink:href="#font_1_6" transform="matrix(14,0,0,-14,305.0131,235.02957)"/>
<use data-text="0" xlink:href="#font_1_1" transform="matrix(14,0,0,-14,312.7971,235.02957)"/>
<use data-text="0" xlink:href="#font_1_1" transform="matrix(14,0,0,-14,320.5811,235.02957)"/>
<path transform="matrix(1,0,0,-1,0,239)" stroke-width=".5" stroke-linecap="butt" stroke-miterlimit="3.25" stroke-linejoin="miter" fill="none" stroke="#000000" d="M34.648 19.969H322.449"/>
<use data-text="t" xlink:href="#font_1_7" transform="matrix(14,0,0,-14,330.44825,224.02957)"/>
<use data-text="(" xlink:href="#font_2_1" transform="matrix(14,0,0,-14,338.21824,224.02957)"/>
<use data-text="h" xlink:href="#font_1_8" transform="matrix(14,0,0,-14,342.88023,224.02957)"/>
<use data-text="r" xlink:href="#font_1_9" transform="matrix(14,0,0,-14,350.6642,224.02957)"/>
<use data-text=")" xlink:href="#font_2_2" transform="matrix(14,0,0,-14,355.3262,224.02957)"/>
<path transform="matrix(1,0,0,-1,0,239)" stroke-width=".5" stroke-linecap="butt" stroke-miterlimit="3.25" stroke-linejoin="miter" fill="none" stroke="#000000" d="M40.406 19.082H42.453"/>
<path transform="matrix(1,0,0,-1,0,239)" stroke-width=".5" stroke-linecap="butt" stroke-miterlimit="3.25" stroke-linejoin="miter" fill="none" stroke="#000000" d="M40.406 30.199H42.453"/>
<path transform="matrix(1,0,0,-1,0,239)" stroke-width=".5" stroke-linecap="butt" stroke-miterlimit="3.25" stroke-linejoin="miter" fill="none" stroke="#000000" d="M40.406 41.316H43.82"/>
<use data-text="0" xlink:href="#font_1_1" transform="matrix(14,0,0,-14,17.944336,202.6853)"/>
<use data-text="." xlink:href="#font_1_10" transform="matrix(14,0,0,-14,25.728337,202.6853)"/>
<use data-text="4" xlink:href="#font_1_3" transform="matrix(14,0,0,-14,29.606337,202.6853)"/>
<path transform="matrix(1,0,0,-1,0,239)" stroke-width=".5" stroke-linecap="butt" stroke-miterlimit="3.25" stroke-linejoin="miter" fill="none" stroke="#000000" d="M40.406 52.43H42.453"/>
<path transform="matrix(1,0,0,-1,0,239)" stroke-width=".5" stroke-linecap="butt" stroke-miterlimit="3.25" stroke-linejoin="miter" fill="none" stroke="#000000" d="M40.406 63.547H42.453"/>
<path transform="matrix(1,0,0,-1,0,239)" stroke-width=".5" stroke-linecap="butt" stroke-miterlimit="3.25" stroke-linejoin="miter" fill="none" stroke="#000000" d="M40.406 74.664H42.453"/>
<path transform="matrix(1,0,0,-1,0,239)" stroke-width=".5" stroke-linecap="butt" stroke-miterlimit="3.25" stroke-linejoin="miter" fill="none" stroke="#000000" d="M40.406 85.781H43.82"/>
<use data-text="0" xlink:href="#font_1_1" transform="matrix(14,0,0,-14,17.944336,158.21808)"/>
<use data-text="." xlink:href="#font_1_10" transform="matrix(14,0,0,-14,25.728337,158.21808)"/>
<use data-text="6" xlink:href="#font_1_4" transform="matrix(14,0,0,-14,29.606337,158.21808)"/>
<path transform="matrix(1,0,0,-1,0,239)" stroke-width=".5" stroke-linecap="butt" stroke-miterlimit="3.25" stroke-linejoin="miter" fill="none" stroke="#000000" d="M40.406 96.898H42.453"/>
<path transform="matrix(1,0,0,-1,0,239)" stroke-width=".5" stroke-linecap="butt" stroke-miterlimit="3.25" stroke-linejoin="miter" fill="none" stroke="#000000" d="M40.406 108.016H42.453"/>
<path transform="matrix(1,0,0,-1,0,239)" stroke-width=".5" stroke-linecap="butt" stroke-miterlimit="3.25" stroke-linejoin="miter" fill="none" stroke="#000000" d="M40.406 119.133H42.453"/>
<path transform="matrix(1,0,0,-1,0,239)" stroke-width=".5" stroke-linecap="butt" stroke-miterlimit="3.25" stroke-linejoin="miter" fill="none" stroke="#000000" d="M40.406 130.25H43.82"/>
<use data-text="0" xlink:href="#font_1_1" transform="matrix(14,0,0,-14,17.944336,113.75084)"/>
<use data-text="." xlink:href="#font_1_10" transform="matrix(14,0,0,-14,25.728337,113.75084)"/>
<use data-text="8" xlink:href="#font_1_5" transform="matrix(14,0,0,-14,29.606337,113.75084)"/>
<path transform="matrix(1,0,0,-1,0,239)" stroke-width=".5" stroke-linecap="butt" stroke-miterlimit="3.25" stroke-linejoin="miter" fill="none" stroke="#000000" d="M40.406 141.367H42.453"/>
<path transform="matrix(1,0,0,-1,0,239)" stroke-width=".5" stroke-linecap="butt" stroke-miterlimit="3.25" stroke-linejoin="miter" fill="none" stroke="#000000" d="M40.406 152.484H42.453"/>
<path transform="matrix(1,0,0,-1,0,239)" stroke-width=".5" stroke-linecap="butt" stroke-miterlimit="3.25" stroke-linejoin="miter" fill="none" stroke="#000000" d="M40.406 163.598H42.453"/>
<path transform="matrix(1,0,0,-1,0,239)" stroke-width=".5" stroke-linecap="butt" stroke-miterlimit="3.25" stroke-linejoin="miter" fill="none" stroke="#000000" d="M40.406 174.715H43.82"/>
<use data-text="1" xlink:href="#font_1_6" transform="matrix(14,0,0,-14,17.944336,69.283618)"/>
<use data-text="." xlink:href="#font_1_10" transform="matrix(14,0,0,-14,25.728337,69.283618)"/>
<use data-text="0" xlink:href="#font_1_1" transform="matrix(14,0,0,-14,29.606337,69.283618)"/>
<path transform="matrix(1,0,0,-1,0,239)" stroke-width=".5" stroke-linecap="butt" stroke-miterlimit="3.25" stroke-linejoin="miter" fill="none" stroke="#000000" d="M40.406 185.832H42.453"/>
<path transform="matrix(1,0,0,-1,0,239)" stroke-width=".5" stroke-linecap="butt" stroke-miterlimit="3.25" stroke-linejoin="miter" fill="none" stroke="#000000" d="M40.406 196.949H42.453"/>
<path transform="matrix(1,0,0,-1,0,239)" stroke-width=".5" stroke-linecap="butt" stroke-miterlimit="3.25" stroke-linejoin="miter" fill="none" stroke="#000000" d="M40.406 19.082V196.949"/>
<use data-text="L" xlink:href="#font_3_1" transform="matrix(14,0,0,-14,0,30.300004)"/>
<use data-text="&#x03bc;" xlink:href="#font_4_1" transform="matrix(9.939453,0,0,-9.939453,7.786133,34.050004)"/>
<use data-text="e" xlink:href="#font_1_11" transform="matrix(9.939453,0,0,-9.939453,7.786133,24)"/>
<use data-text="f" xlink:href="#font_1_12" transform="matrix(9.939453,0,0,-9.939453,13.3124699,24)"/>
<use data-text="f" xlink:href="#font_1_12" transform="matrix(9.939453,0,0,-9.939453,16.065699,24)"/>
<use data-text="(" xlink:href="#font_2_1" transform="matrix(14,0,0,-14,19.576172,30.300004)"/>
<use data-text="t" xlink:href="#font_1_7" transform="matrix(14,0,0,-14,24.238173,30.300004)"/>
<use data-text=")" xlink:href="#font_2_2" transform="matrix(14,0,0,-14,28.116173,30.300004)"/>
<use data-text="-" xlink:href="#font_2_3" transform="matrix(14,0,0,-14,32.77817,30.300004)"/>
<use data-text="G" xlink:href="#font_1_13" transform="matrix(14,0,0,-14,40.94017,30.300004)"/>
<use data-text="P" xlink:href="#font_1_14" transform="matrix(14,0,0,-14,51.81817,30.300004)"/>
<use data-text="a" xlink:href="#font_1_15" transform="matrix(14,0,0,-14,61.14217,30.300004)"/>
<use data-text="-" xlink:href="#font_2_3" transform="matrix(9.939453,0,0,-9.939453,68.97949,24)"/>
<use data-text="1" xlink:href="#font_1_6" transform="matrix(9.939453,0,0,-9.939453,74.77419,24)"/>
<use data-text="S" xlink:href="#font_1_16" transform="matrix(14,0,0,-14,17.853466,13)"/>
<use data-text="h" xlink:href="#font_1_8" transform="matrix(14,0,0,-14,27.177468,13)"/>
<use data-text="e" xlink:href="#font_1_11" transform="matrix(14,0,0,-14,34.961469,13)"/>
<use data-text="a" xlink:href="#font_1_15" transform="matrix(14,0,0,-14,42.74547,13)"/>
<use data-text="r" xlink:href="#font_1_9" transform="matrix(14,0,0,-14,50.52947,13)"/>
<use data-text="c" xlink:href="#font_1_17" transform="matrix(14,0,0,-14,59.08347,13)"/>
<use data-text="r" xlink:href="#font_1_9" transform="matrix(14,0,0,-14,66.083469,13)"/>
<use data-text="e" xlink:href="#font_1_11" transform="matrix(14,0,0,-14,70.74547,13)"/>
<use data-text="e" xlink:href="#font_1_11" transform="matrix(14,0,0,-14,78.52947,13)"/>
<use data-text="p" xlink:href="#font_1_18" transform="matrix(14,0,0,-14,86.31348,13)"/>
<use data-text="c" xlink:href="#font_1_17" transform="matrix(14,0,0,-14,97.98948,13)"/>
<use data-text="u" xlink:href="#font_1_19" transform="matrix(14,0,0,-14,104.98948,13)"/>
<use data-text="r" xlink:href="#font_1_9" transform="matrix(14,0,0,-14,112.77348,13)"/>
<use data-text="v" xlink:href="#font_1_20" transform="matrix(14,0,0,-14,117.435489,13)"/>
<use data-text="e" xlink:href="#font_1_11" transform="matrix(14,0,0,-14,124.435489,13)"/>
<use data-text="s" xlink:href="#font_1_21" transform="matrix(14,0,0,-14,132.21949,13)"/>
<use data-text="," xlink:href="#font_1_22" transform="matrix(14,0,0,-14,139.21949,13)"/>
<use data-text="r" xlink:href="#font_1_9" transform="matrix(14,0,0,-14,146.9755,13)"/>
<use data-text="i" xlink:href="#font_1_23" transform="matrix(14,0,0,-14,151.6375,13)"/>
<use data-text="g" xlink:href="#font_1_24" transform="matrix(14,0,0,-14,154.7455,13)"/>
<use data-text="i" xlink:href="#font_1_23" transform="matrix(14,0,0,-14,162.5295,13)"/>
<use data-text="d" xlink:href="#font_1_25" transform="matrix(14,0,0,-14,165.6375,13)"/>
<use data-text="s" xlink:href="#font_1_21" transform="matrix(14,0,0,-14,177.31349,13)"/>
<use data-text="p" xlink:href="#font_1_18" transform="matrix(14,0,0,-14,184.31349,13)"/>
<use data-text="h" xlink:href="#font_1_8" transform="matrix(14,0,0,-14,192.09749,13)"/>
<use data-text="e" xlink:href="#font_1_11" transform="matrix(14,0,0,-14,199.88149,13)"/>
<use data-text="r" xlink:href="#font_1_9" transform="matrix(14,0,0,-14,207.66548,13)"/>
<use data-text="i" xlink:href="#font_1_23" transform="matrix(14,0,0,-14,212.32749,13)"/>
<use data-text="c" xlink:href="#font_1_17" transform="matrix(14,0,0,-14,215.43549,13)"/>
<use data-text="a" xlink:href="#font_1_15" transform="matrix(14,0,0,-14,222.43549,13)"/>
<use data-text="l" xlink:href="#font_1_26" transform="matrix(14,0,0,-14,230.21949,13)"/>
<use data-text="i" xlink:href="#font_1_23" transform="matrix(14,0,0,-14,237.21949,13)"/>
<use data-text="n" xlink:href="#font_1_27" transform="matrix(14,0,0,-14,240.32749,13)"/>
<use data-text="h" xlink:href="#font_1_8" transform="matrix(14,0,0,-14,248.11148,13)"/>
<use data-text="o" xlink:href="#font_1_28" transform="matrix(14,0,0,-14,255.89548,13)"/>
<use data-text="m" xlink:href="#font_1_29" transform="matrix(14,0,0,-14,263.67948,13)"/>
<use data-text="o" xlink:href="#font_1_28" transform="matrix(14,0,0,-14,275.34147,13)"/>
<use data-text="g" xlink:href="#font_1_24" transform="matrix(14,0,0,-14,283.12547,13)"/>
<use data-text="e" xlink:href="#font_1_11" transform="matrix(14,0,0,-14,290.90946,13)"/>
<use data-text="n" xlink:href="#font_1_27" transform="matrix(14,0,0,-14,298.69346,13)"/>
<use data-text="e" xlink:href="#font_1_11" transform="matrix(14,0,0,-14,306.47746,13)"/>
<use data-text="i" xlink:href="#font_1_23" transform="matrix(14,0,0,-14,314.26145,13)"/>
<use data-text="t" xlink:href="#font_1_7" transform="matrix(14,0,0,-14,317.36946,13)"/>
<use data-text="i" xlink:href="#font_1_23" transform="matrix(14,0,0,-14,321.24745,13)"/>
<use data-text="e" xlink:href="#font_1_11" transform="matrix(14,0,0,-14,324.35545,13)"/>
<use data-text="s" xlink:href="#font_1_21" transform="matrix(14,0,0,-14,332.13945,13)"/>
</g>
</svg>
